<?xml version="1.0" encoding="utf-8" standalone="no"?>
<!DOCTYPE svg PUBLIC "-//W3C//DTD SVG 1.1//EN"
  "http://www.w3.org/Graphics/SVG/1.1/DTD/svg11.dtd">
<svg xmlns:xlink="http://www.w3.org/1999/xlink" width="460.8pt" height="345.6pt" viewBox="0 0 460.8 345.6" xmlns="http://www.w3.org/2000/svg" version="1.1">
 <metadata>
  <rdf:RDF xmlns:dc="http://purl.org/dc/elements/1.1/" xmlns:cc="http://creativecommons.org/ns#" xmlns:rdf="http://www.w3.org/1999/02/22-rdf-syntax-ns#">
   <cc:Work>
    <dc:type rdf:resource="http://purl.org/dc/dcmitype/StillImage"/>
    <dc:date>2024-03-04T19:42:29.715318</dc:date>
    <dc:format>image/svg+xml</dc:format>
    <dc:creator>
     <cc:Agent>
      <dc:title>Matplotlib v3.8.0, https://matplotlib.org/</dc:title>
     </cc:Agent>
    </dc:creator>
   </cc:Work>
  </rdf:RDF>
 </metadata>
 <defs>
  <style type="text/css">*{stroke-linejoin: round; stroke-linecap: butt}</style>
 </defs>
 <g id="figure_1">
  <g id="patch_1">
   <path d="M 0 345.6 
L 460.8 345.6 
L 460.8 0 
L 0 0 
z
" style="fill: #ffffff"/>
  </g>
  <g id="axes_1">
   <g id="patch_2">
    <path d="M 93.928598 307.584 
L 378.391402 307.584 
L 378.391402 41.472 
L 93.928598 41.472 
z
" style="fill: #ffffff"/>
   </g>
   <g id="PatchCollection_1">
    <path d="M 137.02903 153.574779 
L 135.727032 153.438026 
L 135.207878 152.236455 
L 133.905874 152.099704 
L 133.386714 150.898131 
L 132.084705 150.761382 
L 131.56554 149.559807 
L 132.348388 148.494981 
L 131.829221 147.293404 
L 130.527202 147.156655 
L 130.008029 145.955077 
L 128.706004 145.81833 
L 128.186826 144.61675 
L 128.969677 143.551916 
L 128.450498 142.350334 
L 127.148463 142.213587 
L 126.629278 141.012004 
L 127.412132 139.947166 
L 126.892946 138.745581 
L 125.590901 138.608833 
L 125.071709 137.407246 
L 123.769659 137.270501 
L 123.250461 136.068913 
L 121.948405 135.932169 
L 121.165551 136.997017 
L 119.863495 136.860278 
L 119.344287 135.658689 
L 118.042224 135.521952 
L 117.523011 134.320362 
L 116.220943 134.183627 
L 115.701724 132.982036 
L 114.399651 132.845302 
L 113.880426 131.64371 
L 114.663279 130.578849 
L 114.144053 129.377254 
L 112.84197 129.240521 
L 112.322738 128.038925 
L 111.020649 127.902194 
L 110.501412 126.700596 
L 109.199317 126.563867 
L 108.680074 125.362268 
L 107.377974 125.22554 
L 106.858725 124.02394 
L 107.641582 122.959066 
L 108.943686 123.095795 
L 109.726546 122.030924 
L 109.2073 120.82932 
L 109.990163 119.764448 
L 111.292271 119.901184 
L 112.075137 118.836315 
L 111.555894 117.634707 
L 112.338763 116.569838 
L 113.640875 116.706579 
L 114.423747 115.641713 
L 115.725858 115.778458 
L 116.508733 114.713595 
L 117.810843 114.850344 
L 118.330072 116.051956 
L 119.632176 116.188707 
L 120.415055 115.12385 
L 119.89583 113.922237 
L 120.678712 112.857379 
L 120.159486 111.655764 
L 120.942371 110.590905 
L 120.423144 109.389287 
L 119.121027 109.252529 
L 118.601794 108.05091 
L 119.384682 106.986048 
L 118.865448 105.784427 
L 119.648339 104.719564 
L 119.129104 103.51794 
L 119.911999 102.453076 
L 121.214129 102.58984 
L 121.997027 101.52498 
L 123.299157 101.661748 
L 124.082058 100.59689 
L 125.384187 100.733662 
L 126.167092 99.668807 
L 127.469219 99.805583 
L 128.252127 98.740731 
L 129.554253 98.877511 
L 130.337165 97.812662 
L 131.63929 97.949446 
L 132.422205 96.8846 
L 133.724329 97.021388 
L 134.507247 95.956544 
L 135.80937 96.093337 
L 136.592291 95.028496 
L 137.894413 95.165292 
L 138.413609 96.366927 
L 139.715726 96.503725 
L 140.498651 95.438891 
L 141.800766 95.575693 
L 142.319952 96.777328 
L 143.622062 96.914132 
L 144.141243 98.115766 
L 145.443347 98.252572 
L 145.962522 99.454204 
L 147.264621 99.591013 
L 147.78379 100.792644 
L 149.085884 100.929454 
L 149.868812 99.864635 
L 151.170904 100.001449 
L 151.953836 98.936633 
L 153.255927 99.073452 
L 154.038862 98.008638 
L 155.340952 98.145461 
L 156.12389 97.08065 
L 157.425979 97.217477 
L 157.945125 98.419111 
L 159.247208 98.55594 
L 160.03015 97.491135 
L 161.332232 97.627968 
L 161.851368 98.829602 
L 163.153445 98.966437 
L 163.672576 100.16807 
L 164.974647 100.304906 
L 165.493772 101.506538 
L 166.795838 101.643377 
L 167.578783 100.578585 
L 168.880847 100.715427 
L 169.663796 99.650638 
L 170.965859 99.787485 
L 171.48497 100.989118 
L 172.787028 101.125966 
L 173.56998 100.061184 
L 174.872036 100.198036 
L 175.391137 101.399669 
L 176.693188 101.536523 
L 177.212283 102.738155 
L 178.514329 102.875011 
L 179.033418 104.076642 
L 180.335458 104.2135 
L 180.854542 105.415129 
L 182.156576 105.55199 
L 182.675654 106.753617 
L 183.977683 106.89048 
L 184.496756 108.092106 
L 183.713803 109.156869 
L 184.232874 110.358493 
L 185.534893 110.495355 
L 186.317846 109.430596 
L 187.619864 109.567462 
L 188.40282 108.502705 
L 189.704837 108.639575 
L 190.487796 107.574821 
L 191.789812 107.711695 
L 192.308864 108.913322 
L 193.610874 109.050198 
L 194.129921 110.251823 
L 195.431925 110.388701 
L 196.214888 109.323956 
L 195.695846 108.12233 
L 196.478812 107.057585 
L 195.959768 105.855956 
L 196.742737 104.791211 
L 196.223692 103.589579 
L 197.006665 102.524833 
L 196.487619 101.323199 
L 197.270594 100.258453 
L 198.572616 100.395343 
L 199.355594 99.3306 
L 200.657615 99.467494 
L 201.440597 98.402753 
L 202.742616 98.539652 
L 203.525601 97.474914 
L 204.82762 97.611816 
L 205.610608 96.547081 
L 206.912625 96.683988 
L 207.431649 97.885627 
L 208.733661 98.022536 
L 209.516653 96.957807 
L 210.818664 97.09472 
L 211.601659 96.029993 
L 212.903668 96.16691 
L 213.686667 95.102186 
L 213.167656 93.900543 
L 213.950658 92.835819 
L 215.25267 92.972741 
L 216.035675 91.90802 
L 215.516667 90.706373 
L 216.299676 89.641651 
L 217.601692 89.77858 
L 218.120695 90.980229 
L 219.422706 91.11716 
L 219.941704 92.318807 
L 221.243709 92.45574 
L 221.762702 93.657386 
L 220.979693 94.722097 
L 221.498684 95.923741 
L 222.800679 96.060674 
L 223.319665 97.262316 
L 224.621654 97.399251 
L 225.404663 96.334545 
L 224.885682 95.132902 
L 225.668694 94.068196 
L 226.970687 94.205137 
L 227.753702 93.140434 
L 227.234724 91.938787 
L 228.017742 90.874084 
L 227.498763 89.672434 
L 228.281785 88.60773 
L 227.762804 87.406078 
L 228.545829 86.341374 
L 228.026847 85.139719 
L 228.809875 84.075014 
L 228.290892 82.873357 
L 229.073923 81.808652 
L 228.554939 80.606992 
L 229.337973 79.542286 
L 230.639992 79.679243 
L 231.423029 78.614541 
L 230.904048 77.412877 
L 231.687089 76.348174 
L 231.168106 75.146508 
L 231.95115 74.081804 
L 231.432167 72.880135 
L 232.215214 71.815431 
L 231.696229 70.61376 
L 232.479279 69.549055 
L 231.960293 68.347382 
L 232.743346 67.282676 
L 234.045386 67.419648 
L 234.828443 66.354946 
L 236.130482 66.491921 
L 236.913542 65.427222 
L 238.21558 65.564201 
L 238.734553 66.765879 
L 240.036585 66.90286 
L 240.819649 65.838167 
L 242.12168 65.975152 
L 242.904747 64.910462 
L 244.206777 65.047452 
L 244.725736 66.24913 
L 246.02776 66.386122 
L 246.81083 65.321437 
L 248.112854 65.458433 
L 248.631803 66.660111 
L 249.93382 66.797109 
L 250.716894 65.73243 
L 252.018911 65.869432 
L 252.801988 64.804756 
L 254.104003 64.941762 
L 254.887083 63.877089 
L 256.189098 64.014099 
L 256.972181 62.949429 
L 256.45325 61.747746 
L 257.236337 60.683076 
L 258.538355 60.820092 
L 259.321445 59.755424 
L 260.623462 59.892444 
L 261.406555 58.827779 
L 262.708571 58.964803 
L 263.491667 57.900141 
L 264.793682 58.037169 
L 265.576781 56.97251 
L 266.878795 57.109542 
L 267.661898 56.044886 
L 268.963911 56.181922 
L 269.747017 55.117268 
L 271.049028 55.254308 
L 271.567929 56.456 
L 272.869935 56.593042 
L 273.38883 57.794733 
L 274.690831 57.931777 
L 275.47394 56.867133 
L 276.77594 57.004181 
L 277.559053 55.939539 
L 278.861051 56.076592 
L 279.644167 55.011953 
L 280.946164 55.149009 
L 281.465041 56.350702 
L 282.767032 56.48776 
L 283.550152 55.423128 
L 284.852142 55.56019 
L 285.635265 54.49556 
L 286.937255 54.632627 
L 287.720381 53.568 
L 289.022369 53.70507 
L 289.541227 54.906765 
L 288.7581 55.971389 
L 289.276957 57.173081 
L 290.578935 57.310152 
L 291.097786 58.511843 
L 292.399758 58.648915 
L 292.918603 59.850605 
L 292.13548 60.915221 
L 292.654323 62.116909 
L 291.871203 63.181525 
L 292.390045 64.38321 
L 293.692004 64.52028 
L 294.21084 65.721963 
L 293.427723 66.786576 
L 293.946559 67.988257 
L 293.163445 69.052868 
L 293.682279 70.254547 
L 294.984223 70.391615 
L 295.503051 71.593292 
L 294.71994 72.6579 
L 295.238767 73.859575 
L 294.45566 74.924182 
L 294.974486 76.125855 
L 294.191381 77.190462 
L 294.710206 78.392131 
L 293.927104 79.456738 
L 294.445928 80.658405 
L 295.747848 80.795467 
L 296.266666 81.997132 
L 297.56858 82.134196 
L 298.087392 83.335861 
L 299.389302 83.472926 
L 300.172403 82.408329 
L 301.474311 82.545399 
L 301.993113 83.747063 
L 303.295016 83.884135 
L 303.813812 85.085798 
L 303.03071 86.150388 
L 301.728812 86.013319 
L 300.945714 87.077912 
L 299.643815 86.940846 
L 298.860719 88.005442 
L 297.558819 87.868381 
L 296.775727 88.932979 
L 295.473826 88.795922 
L 294.690737 89.860524 
L 293.388835 89.72347 
L 292.60575 90.788075 
L 291.303846 90.651025 
L 290.520764 91.715632 
L 289.21886 91.578587 
L 288.435781 92.643197 
L 288.954607 93.844849 
L 288.171531 94.909459 
L 286.86963 94.77242 
L 286.086557 95.837032 
L 286.605386 97.03868 
L 285.822317 98.103292 
L 284.520419 97.966259 
L 283.737353 99.030874 
L 284.256185 100.232518 
L 283.473123 101.297133 
L 283.991953 102.498775 
L 283.208894 103.563388 
L 283.727723 104.765028 
L 282.944667 105.829641 
L 283.463495 107.031278 
L 282.680442 108.095891 
L 283.199269 109.297525 
L 282.416219 110.362138 
L 282.935044 111.56377 
L 284.236915 111.70079 
L 284.755735 112.902421 
L 283.972688 113.967029 
L 284.491507 115.168658 
L 285.793368 115.305678 
L 286.31218 116.507305 
L 287.614036 116.644327 
L 288.132843 117.845953 
L 287.349799 118.910554 
L 287.868605 120.112177 
L 287.085564 121.176778 
L 287.604369 122.378399 
L 288.90621 122.515419 
L 289.425009 123.717038 
L 288.641971 124.781636 
L 289.160769 125.983252 
L 288.377735 127.047849 
L 288.896531 128.249463 
L 288.1135 129.31406 
L 286.811673 129.177045 
L 286.028645 130.241645 
L 286.547444 131.443255 
L 285.76442 132.507854 
L 286.283218 133.709461 
L 285.500196 134.77406 
L 284.198377 134.637054 
L 283.415358 135.701655 
L 282.113538 135.564653 
L 281.594731 134.363048 
L 280.292904 134.226048 
L 279.50989 135.290655 
L 278.208062 135.153659 
L 277.425051 136.218269 
L 276.123222 136.081277 
L 275.340214 137.14589 
L 274.038384 137.008902 
L 273.255379 138.073518 
L 271.953549 137.936534 
L 271.434719 136.734932 
L 270.132883 136.59795 
L 269.614047 135.396347 
L 268.312205 135.259367 
L 267.793364 134.057763 
L 266.491516 133.920785 
L 265.972669 132.719179 
L 264.670816 132.582203 
L 263.887815 133.646835 
L 262.585961 133.509863 
L 262.067104 132.308257 
L 260.765244 132.171287 
L 260.246382 130.96968 
L 258.944517 130.832712 
L 258.161519 131.897353 
L 256.859653 131.760389 
L 256.076658 132.825033 
L 254.774791 132.688073 
L 253.9918 133.75272 
L 252.689931 133.615764 
L 251.906943 134.680413 
L 252.425824 135.882016 
L 251.642839 136.946665 
L 252.161718 138.148264 
L 251.378736 139.212913 
L 250.076876 139.075965 
L 249.293898 140.140616 
L 249.81278 141.342212 
L 249.029804 142.406863 
L 249.548685 143.608457 
L 248.765713 144.673107 
L 249.284593 145.874698 
L 248.501624 146.939348 
L 247.199776 146.80241 
L 246.41681 147.867063 
L 246.935693 149.06865 
L 246.152731 150.133302 
L 244.850886 149.996371 
L 244.067927 151.061026 
L 244.586813 152.262609 
L 243.803857 153.327264 
L 244.322741 154.528845 
L 243.539789 155.593499 
L 242.237952 155.456576 
L 241.455002 156.521233 
L 241.97389 157.72281 
L 241.190944 158.787466 
L 241.70983 159.989041 
L 240.926887 161.053697 
L 241.445772 162.255269 
L 242.747595 162.392186 
L 243.530538 161.327533 
L 244.832361 161.464454 
L 245.615307 160.399804 
L 246.917129 160.53673 
L 247.435999 161.738303 
L 248.737815 161.87523 
L 249.520765 160.810586 
L 250.822579 160.947517 
L 251.605532 159.882876 
L 252.907346 160.019811 
L 253.690302 158.955173 
L 254.992115 159.092112 
L 255.510966 160.293688 
L 256.812773 160.430629 
L 257.331619 161.632203 
L 258.633421 161.769146 
L 259.152261 162.970719 
L 260.454057 163.107664 
L 260.972892 164.309236 
L 260.189935 165.373861 
L 260.708769 166.57543 
L 262.010554 166.712375 
L 262.793511 165.647753 
L 264.095296 165.784702 
L 264.878256 164.720083 
L 266.18004 164.857036 
L 266.698859 166.058606 
L 268.000637 166.195561 
L 268.51945 167.39713 
L 269.821223 167.534087 
L 270.340031 168.735655 
L 271.641798 168.872614 
L 272.1606 170.07418 
L 273.462361 170.211141 
L 274.245325 169.146538 
L 275.547085 169.283503 
L 276.065877 170.485069 
L 277.367632 170.622036 
L 278.150599 169.557439 
L 279.452353 169.69441 
L 279.971135 170.895976 
L 281.272883 171.032949 
L 281.79166 172.234514 
L 283.093402 172.371489 
L 283.876373 171.306901 
L 285.178114 171.44388 
L 285.696881 172.645445 
L 286.998617 172.782426 
L 287.517377 173.983989 
L 288.819108 174.120972 
L 289.602082 173.056394 
L 290.903811 173.193381 
L 291.422562 174.394944 
L 292.724286 174.531933 
L 293.243031 175.733495 
L 292.460056 176.798066 
L 292.9788 177.999626 
L 292.195829 179.064197 
L 292.714572 180.265754 
L 291.931604 181.330324 
L 292.450345 182.531878 
L 291.66738 183.596449 
L 292.18612 184.798 
L 291.403159 185.86257 
L 291.921897 187.064119 
L 293.223593 187.2011 
L 293.742326 188.402648 
L 292.959368 189.467214 
L 293.478099 190.668759 
L 292.695144 191.733325 
L 293.213875 192.934867 
L 292.430923 193.999433 
L 292.949652 195.200973 
L 294.251329 195.337949 
L 294.770052 196.539488 
L 296.071723 196.676466 
L 296.590441 197.878004 
L 297.892107 198.014984 
L 298.410819 199.216521 
L 299.712479 199.353503 
L 300.231186 200.555038 
L 299.448237 201.619589 
L 299.966942 202.821122 
L 301.268592 202.958104 
L 301.787292 204.159635 
L 303.088936 204.296619 
L 303.60763 205.498149 
L 304.90927 205.635135 
L 305.427958 206.836664 
L 306.729591 206.973652 
L 307.512541 205.909114 
L 308.814173 206.046106 
L 309.332852 207.247634 
L 310.634479 207.384628 
L 311.153151 208.586155 
L 310.370201 209.650687 
L 310.888873 210.852212 
L 312.19049 210.989206 
L 312.709155 212.190729 
L 314.010766 212.327725 
L 314.793716 211.2632 
L 316.095327 211.4002 
L 316.613982 212.601723 
L 317.915587 212.738725 
L 318.434237 213.940246 
L 319.735836 214.07725 
L 320.25448 215.278771 
L 321.556074 215.415777 
L 322.074713 216.617296 
L 323.376301 216.754304 
L 324.159254 215.689795 
L 325.460841 215.826806 
L 325.97947 217.028326 
L 325.196516 218.092831 
L 325.715143 219.294348 
L 327.01672 219.43136 
L 327.535342 220.632875 
L 326.752391 221.697377 
L 327.271012 222.89889 
L 326.488064 223.963392 
L 327.006684 225.164902 
L 326.223739 226.229403 
L 326.742357 227.430911 
L 325.959416 228.495411 
L 326.478033 229.696916 
L 327.779586 229.833922 
L 328.298197 231.035426 
L 327.515259 232.099923 
L 328.033869 233.301424 
L 329.335412 233.438429 
L 329.854016 234.639929 
L 331.155554 234.776937 
L 331.674152 235.978435 
L 330.891217 237.042925 
L 331.409814 238.244421 
L 332.711342 238.381428 
L 333.229934 239.582923 
L 334.531456 239.719932 
L 335.050042 240.921426 
L 336.351558 241.058437 
L 336.870139 242.259929 
L 338.17165 242.396942 
L 338.690224 243.598433 
L 339.99173 243.735448 
L 340.510299 244.936937 
L 341.811799 245.073955 
L 342.330362 246.275443 
L 341.547429 247.339912 
L 342.065991 248.541398 
L 343.367481 248.678415 
L 343.886038 249.879899 
L 345.187522 250.016918 
L 345.970455 248.952455 
L 347.271938 249.089478 
L 347.790484 250.290962 
L 347.007551 251.355422 
L 347.526096 252.556904 
L 346.743167 253.621363 
L 347.261711 254.822842 
L 348.563179 254.959863 
L 349.081717 256.161341 
L 348.298791 257.225796 
L 348.817328 258.427272 
L 350.118787 258.564292 
L 350.637318 259.765766 
L 351.938771 259.902789 
L 352.457296 261.104261 
L 353.758744 261.241286 
L 354.541671 260.17684 
L 355.843117 260.313869 
L 356.361633 261.515341 
L 357.663074 261.652372 
L 358.181583 262.853843 
L 359.483019 262.990876 
L 360.001523 264.192345 
L 361.302953 264.32938 
L 361.821451 265.530848 
L 363.122876 265.667885 
L 363.641369 266.869352 
L 364.942787 267.00639 
L 365.461275 268.207856 
L 364.678347 269.272282 
L 363.376933 269.135246 
L 362.594009 270.199675 
L 363.112499 271.401137 
L 362.329578 272.465566 
L 361.028167 272.328535 
L 360.24525 273.392967 
L 358.943838 273.25594 
L 358.160924 274.320374 
L 358.679421 275.521832 
L 357.89651 276.586265 
L 356.595102 276.449245 
L 355.812194 277.513681 
L 354.510784 277.376665 
L 353.72788 278.441105 
L 352.426469 278.304093 
L 351.643568 279.368535 
L 352.162077 280.569985 
L 351.379179 281.634427 
L 351.897687 282.835875 
L 353.199089 282.972883 
L 353.717592 284.17433 
L 352.934697 285.238768 
L 353.453198 286.440213 
L 354.75459 286.577221 
L 355.273086 287.778664 
L 356.574472 287.915674 
L 357.092962 289.117116 
L 356.31007 290.181546 
L 356.828559 291.382986 
L 356.04567 292.447416 
L 354.744293 292.31041 
L 354.2258 291.108972 
L 352.924417 290.971968 
L 352.405918 289.770529 
L 351.10453 289.633527 
L 350.321644 290.697967 
L 349.020255 290.560969 
L 348.237373 291.625412 
L 346.935982 291.488418 
L 346.153103 292.552863 
L 344.851711 292.415874 
L 344.068836 293.480322 
L 342.767443 293.343336 
L 342.248921 292.1419 
L 340.947523 292.004917 
L 340.428995 290.803479 
L 339.127591 290.666498 
L 338.609058 289.465059 
L 339.391933 288.400601 
L 338.873399 287.19916 
L 337.571984 287.062178 
L 337.053444 285.860736 
L 335.752025 285.723756 
L 334.96915 286.788221 
L 333.667729 286.651245 
L 332.884857 287.715712 
L 331.583436 287.57874 
L 330.800567 288.643211 
L 329.499144 288.506243 
L 328.980585 287.304803 
L 327.679157 287.167837 
L 327.160592 285.966396 
L 325.859158 285.829432 
L 325.340588 284.627989 
L 326.123456 283.563509 
L 325.604885 282.362064 
L 324.303441 282.2251 
L 323.784864 281.023653 
L 324.567735 279.959169 
L 324.049156 278.75772 
L 322.747702 278.620756 
L 322.229118 277.419306 
L 320.927659 277.282344 
L 320.144788 278.346834 
L 318.843327 278.209876 
L 318.060459 279.274369 
L 316.758997 279.137415 
L 315.976133 280.201911 
L 314.67467 280.064961 
L 314.156067 278.863513 
L 314.938932 277.799014 
L 314.420327 276.597563 
L 313.118855 276.460613 
L 312.600245 275.259161 
L 311.298766 275.122213 
L 310.780151 273.92076 
L 309.478667 273.783814 
L 308.695803 274.848323 
L 307.394318 274.711381 
L 306.611457 275.775893 
L 305.309971 275.638955 
L 304.527113 276.703469 
L 303.225626 276.566535 
L 302.706992 275.365084 
L 301.405499 275.228152 
L 300.886859 274.0267 
L 299.585361 273.88977 
L 298.802507 274.954294 
L 297.501007 274.817368 
L 296.982357 273.615915 
L 297.765211 272.551388 
L 297.24656 271.349933 
L 295.94505 271.213007 
L 295.426394 270.011551 
L 294.124879 269.874626 
L 293.606216 268.673169 
L 292.304696 268.536247 
L 291.786027 267.334788 
L 290.484501 267.197867 
L 289.965827 265.996407 
L 288.664296 265.859489 
L 287.881442 266.924033 
L 286.579909 266.787118 
L 285.797059 267.851665 
L 284.495525 267.714755 
L 283.976837 266.513296 
L 282.675298 266.376387 
L 282.156604 265.174927 
L 280.855059 265.038021 
L 280.072212 266.102577 
L 278.770666 265.965674 
L 278.251962 264.764214 
L 276.950411 264.627314 
L 276.431701 263.425852 
L 275.130144 263.288953 
L 274.347301 264.353519 
L 273.045742 264.216624 
L 272.262902 265.281193 
L 272.781621 266.482652 
L 271.998784 267.54722 
L 270.697229 267.410331 
L 269.914396 268.474902 
L 268.61284 268.338018 
L 267.830009 269.402591 
L 268.348735 270.604046 
L 267.565908 271.668618 
L 268.084632 272.87007 
L 269.386179 273.00695 
L 269.904898 274.208401 
L 269.122074 275.27297 
L 267.820532 275.136092 
L 267.037711 276.200664 
L 267.556433 277.402111 
L 268.857971 277.538987 
L 269.376687 278.740432 
L 268.59387 279.805 
L 269.112585 281.006443 
L 268.32977 282.071011 
L 267.028241 281.934139 
L 266.24543 282.99871 
L 266.764148 284.200149 
L 268.065673 284.337018 
L 268.584385 285.538456 
L 269.885904 285.675328 
L 270.404611 286.876764 
L 269.621803 287.941328 
L 270.140508 289.142762 
L 271.442017 289.279634 
L 271.960717 290.481066 
L 273.262221 290.61794 
L 273.780915 291.819371 
L 272.99811 292.883928 
L 271.696611 292.747056 
L 270.913809 293.811615 
L 269.612309 293.674748 
L 269.093606 292.473319 
L 269.876407 291.408756 
L 269.357703 290.207325 
L 268.056193 290.070457 
L 267.537483 288.869025 
L 266.235968 288.732159 
L 265.717252 287.530725 
L 264.415731 287.393861 
L 263.89701 286.192426 
L 262.595483 286.055564 
L 262.076756 284.854127 
L 262.859561 283.789551 
L 262.340833 282.588112 
L 263.12364 281.523535 
L 262.604911 280.322094 
L 261.30337 280.18523 
L 260.784635 278.983787 
L 261.567445 277.919206 
L 261.048709 276.717761 
L 259.747158 276.580897 
L 259.228416 275.37945 
L 257.926859 275.242588 
L 257.408111 274.041139 
L 256.106549 273.904279 
L 255.323738 274.96887 
L 254.022175 274.832014 
L 253.503417 273.630565 
L 254.286228 272.565972 
L 255.587796 272.70283 
L 256.370609 271.638239 
L 255.851855 270.436787 
L 254.550282 270.299927 
L 254.031522 269.098473 
L 254.814339 268.033879 
L 254.295578 266.832423 
L 255.078397 265.767828 
L 254.559635 264.566369 
L 255.342458 263.501774 
L 254.823694 262.300313 
L 253.522102 262.163449 
L 253.003333 260.961986 
L 253.786159 259.897387 
L 253.267388 258.695922 
L 251.965787 258.559058 
L 251.44701 257.357591 
L 250.145403 257.220729 
L 249.626621 256.019261 
L 248.325008 255.882401 
L 247.80622 254.680932 
L 246.504602 254.544073 
L 245.721776 255.608686 
L 244.420157 255.471831 
L 243.901359 254.270362 
L 242.599734 254.13351 
L 241.816912 255.198128 
L 240.515286 255.061279 
L 239.996478 253.85981 
L 238.694847 253.722964 
L 237.912028 254.787588 
L 236.610395 254.650746 
L 236.091577 253.449277 
L 234.789939 253.312436 
L 234.007123 254.377067 
L 232.705484 254.24023 
L 231.922672 255.304863 
L 230.621032 255.168031 
L 229.838223 256.232667 
L 228.536581 256.095839 
L 227.753775 257.160478 
L 228.272611 258.361942 
L 227.489808 259.42658 
L 226.18817 259.289758 
L 225.405371 260.354399 
L 224.103732 260.217581 
L 223.320936 261.282225 
L 223.839779 262.483684 
L 223.056986 263.548328 
L 221.75535 263.411516 
L 220.97256 264.476162 
L 219.670924 264.339354 
L 218.888137 265.404003 
L 217.5865 265.267199 
L 216.803717 266.331851 
L 217.322571 267.533304 
L 216.539791 268.597956 
L 215.238157 268.461158 
L 214.45538 269.525812 
L 213.153745 269.389018 
L 212.370972 270.453675 
L 211.069335 270.316885 
L 210.286565 271.381545 
L 208.984927 271.244759 
L 208.202161 272.309422 
L 208.721032 273.510868 
L 207.938268 274.57553 
L 208.457138 275.776973 
L 207.674377 276.841635 
L 208.193246 278.043076 
L 207.410489 279.107737 
L 207.929356 280.309175 
L 207.146602 281.373836 
L 207.665467 282.575272 
L 206.882717 283.639932 
L 207.401581 284.841365 
L 206.618834 285.906025 
L 205.317222 285.769255 
L 204.534477 286.833918 
L 205.053345 288.035347 
L 204.270604 289.10001 
L 204.78947 290.301436 
L 204.006732 291.366098 
L 204.525597 292.567522 
L 203.742862 293.632184 
L 202.441263 293.495424 
L 201.658531 294.560088 
L 200.356931 294.423333 
L 199.574202 295.488 
L 198.272601 295.351249 
L 197.753723 294.149828 
L 196.452115 294.013079 
L 195.933232 292.811657 
L 196.715959 291.746984 
L 196.197074 290.545559 
L 194.895457 290.40881 
L 194.376566 289.207384 
L 193.074944 289.070637 
L 192.556047 287.86921 
L 193.338778 286.804529 
L 192.819881 285.6031 
L 191.518248 285.466352 
L 190.999344 284.264921 
L 189.697706 284.128176 
L 189.178797 282.926744 
L 187.877153 282.79 
L 187.358239 281.588567 
L 186.056589 281.451825 
L 185.273858 282.516519 
L 183.972208 282.379781 
L 183.453283 281.178347 
L 182.151627 281.041612 
L 181.632697 279.840177 
L 180.331035 279.703443 
L 179.812099 278.502007 
L 178.510432 278.365275 
L 177.99149 277.163838 
L 178.774221 276.099131 
L 178.255278 274.897691 
L 176.953601 274.760959 
L 176.434652 273.559518 
L 175.132969 273.422788 
L 174.614015 272.221345 
L 173.312327 272.084617 
L 172.793367 270.883173 
L 171.491673 270.746447 
L 170.972708 269.545002 
L 169.671008 269.408278 
L 169.152037 268.206832 
L 167.850332 268.07011 
L 167.331355 266.868662 
L 166.029645 266.731942 
L 165.510662 265.530493 
L 166.293395 264.465762 
L 165.774411 263.264311 
L 166.557147 262.19958 
L 166.038162 260.998125 
L 164.736437 260.861403 
L 164.217447 259.659948 
L 165.000185 258.595213 
L 166.301915 258.731937 
L 167.084657 257.667206 
L 166.56567 256.465746 
L 167.348415 255.401014 
L 166.829426 254.199552 
L 167.612175 253.134819 
L 167.093185 251.933355 
L 167.875936 250.868622 
L 167.356945 249.667155 
L 168.1397 248.602421 
L 169.441446 248.739158 
L 169.960433 249.940626 
L 171.262174 250.077364 
L 172.044932 249.012637 
L 173.346672 249.149379 
L 174.129434 248.084655 
L 173.610455 246.883184 
L 172.308711 246.746439 
L 171.789727 245.544967 
L 170.487978 245.408225 
L 169.968988 244.206752 
L 168.667233 244.070011 
L 168.148238 242.868536 
L 166.846477 242.731798 
L 166.327476 241.530322 
L 165.025709 241.393585 
L 164.506703 240.192108 
L 165.289467 239.127366 
L 164.770459 237.925887 
L 163.468683 237.78915 
L 162.94967 236.587669 
L 163.732437 235.522923 
L 163.213422 234.32144 
L 163.996193 233.256694 
L 163.477177 232.055208 
L 162.175386 231.918469 
L 161.656364 230.716981 
L 162.439138 229.652232 
L 161.920115 228.450742 
L 162.702892 227.385992 
L 162.183867 226.184499 
L 162.966647 225.119748 
L 162.447622 223.918253 
L 163.230405 222.853502 
L 162.711378 221.652005 
L 161.409564 221.51526 
L 160.890531 220.313761 
L 161.673318 219.249006 
L 161.154284 218.047504 
L 159.85246 217.910759 
L 159.33342 216.709256 
L 160.11621 215.644498 
L 159.597169 214.442993 
L 158.295335 214.306247 
L 157.776288 213.104741 
L 156.474448 212.967997 
L 155.955396 211.766489 
L 156.738189 210.701724 
L 156.219135 209.500213 
L 154.917286 209.36347 
L 154.398227 208.161958 
L 155.181022 207.097189 
L 154.661962 205.895674 
L 153.360102 205.758931 
L 152.841036 204.557415 
L 151.539171 204.420674 
L 151.020099 203.219157 
L 149.718228 203.082417 
L 149.199151 201.880899 
L 149.981949 200.816119 
L 149.462871 199.614598 
L 148.16099 199.477859 
L 147.641906 198.276337 
L 148.424707 197.211553 
L 147.905622 196.010029 
L 146.603731 195.873289 
L 146.08464 194.671763 
L 146.867444 193.606976 
L 146.348352 192.405447 
L 145.046451 192.268707 
L 144.527353 191.067178 
L 145.31016 190.002387 
L 144.791061 188.800854 
L 145.573872 187.736063 
L 145.054771 186.534528 
L 143.752855 186.397786 
L 143.233749 185.19625 
L 144.016563 184.131455 
L 143.497456 182.929916 
L 144.280273 181.86512 
L 143.761164 180.663579 
L 144.543984 179.598783 
L 144.024874 178.397239 
L 142.722939 178.260493 
L 142.203824 177.058948 
L 142.986647 175.994148 
L 142.46753 174.792601 
L 143.250356 173.7278 
L 142.731238 172.52625 
L 143.514068 171.461449 
L 142.994948 170.259897 
L 143.777781 169.195095 
L 143.25866 167.99354 
L 141.956702 167.856788 
L 141.437576 166.655231 
L 142.220412 165.590426 
L 141.701284 164.388867 
L 140.399316 164.252115 
L 139.880182 163.050554 
L 138.578209 162.913804 
L 138.05907 161.712242 
L 136.757091 161.575494 
L 136.237946 160.373931 
L 137.020785 159.309115 
L 136.501639 158.10755 
L 137.284481 157.042734 
L 136.765333 155.841166 
L 137.548179 154.77635 
L 137.02903 153.574779 
L 137.02903 153.574779 
" clip-path="url(#p8787615ec8)" style="fill: none; stroke: #ff0000; stroke-width: 0.7"/>
   </g>
   <g id="matplotlib.axis_1">
    <g id="xtick_1">
     <g id="line2d_1">
      <defs>
       <path id="m40c32ca2e0" d="M 0 0 
L 0 3.5 
" style="stroke: #000000; stroke-width: 0.8"/>
      </defs>
      <g>
       <use xlink:href="#m40c32ca2e0" x="110.365109" y="307.584" style="stroke: #000000; stroke-width: 0.8"/>
      </g>
     </g>
     <g id="text_1">
      <!-- −0.08 -->
      <g transform="translate(95.042453 322.182437) scale(0.1 -0.1)">
       <defs>
        <path id="DejaVuSans-2212" d="M 678 2272 
L 4684 2272 
L 4684 1741 
L 678 1741 
L 678 2272 
z
" transform="scale(0.015625)"/>
        <path id="DejaVuSans-30" d="M 2034 4250 
Q 1547 4250 1301 3770 
Q 1056 3291 1056 2328 
Q 1056 1369 1301 889 
Q 1547 409 2034 409 
Q 2525 409 2770 889 
Q 3016 1369 3016 2328 
Q 3016 3291 2770 3770 
Q 2525 4250 2034 4250 
z
M 2034 4750 
Q 2819 4750 3233 4129 
Q 3647 3509 3647 2328 
Q 3647 1150 3233 529 
Q 2819 -91 2034 -91 
Q 1250 -91 836 529 
Q 422 1150 422 2328 
Q 422 3509 836 4129 
Q 1250 4750 2034 4750 
z
" transform="scale(0.015625)"/>
        <path id="DejaVuSans-2e" d="M 684 794 
L 1344 794 
L 1344 0 
L 684 0 
L 684 794 
z
" transform="scale(0.015625)"/>
        <path id="DejaVuSans-38" d="M 2034 2216 
Q 1584 2216 1326 1975 
Q 1069 1734 1069 1313 
Q 1069 891 1326 650 
Q 1584 409 2034 409 
Q 2484 409 2743 651 
Q 3003 894 3003 1313 
Q 3003 1734 2745 1975 
Q 2488 2216 2034 2216 
z
M 1403 2484 
Q 997 2584 770 2862 
Q 544 3141 544 3541 
Q 544 4100 942 4425 
Q 1341 4750 2034 4750 
Q 2731 4750 3128 4425 
Q 3525 4100 3525 3541 
Q 3525 3141 3298 2862 
Q 3072 2584 2669 2484 
Q 3125 2378 3379 2068 
Q 3634 1759 3634 1313 
Q 3634 634 3220 271 
Q 2806 -91 2034 -91 
Q 1263 -91 848 271 
Q 434 634 434 1313 
Q 434 1759 690 2068 
Q 947 2378 1403 2484 
z
M 1172 3481 
Q 1172 3119 1398 2916 
Q 1625 2713 2034 2713 
Q 2441 2713 2670 2916 
Q 2900 3119 2900 3481 
Q 2900 3844 2670 4047 
Q 2441 4250 2034 4250 
Q 1625 4250 1398 4047 
Q 1172 3844 1172 3481 
z
" transform="scale(0.015625)"/>
       </defs>
       <use xlink:href="#DejaVuSans-2212"/>
       <use xlink:href="#DejaVuSans-30" x="83.789062"/>
       <use xlink:href="#DejaVuSans-2e" x="147.412109"/>
       <use xlink:href="#DejaVuSans-30" x="179.199219"/>
       <use xlink:href="#DejaVuSans-38" x="242.822266"/>
      </g>
     </g>
    </g>
    <g id="xtick_2">
     <g id="line2d_2">
      <g>
       <use xlink:href="#m40c32ca2e0" x="154.855634" y="307.584" style="stroke: #000000; stroke-width: 0.8"/>
      </g>
     </g>
     <g id="text_2">
      <!-- −0.07 -->
      <g transform="translate(139.532978 322.182437) scale(0.1 -0.1)">
       <defs>
        <path id="DejaVuSans-37" d="M 525 4666 
L 3525 4666 
L 3525 4397 
L 1831 0 
L 1172 0 
L 2766 4134 
L 525 4134 
L 525 4666 
z
" transform="scale(0.015625)"/>
       </defs>
       <use xlink:href="#DejaVuSans-2212"/>
       <use xlink:href="#DejaVuSans-30" x="83.789062"/>
       <use xlink:href="#DejaVuSans-2e" x="147.412109"/>
       <use xlink:href="#DejaVuSans-30" x="179.199219"/>
       <use xlink:href="#DejaVuSans-37" x="242.822266"/>
      </g>
     </g>
    </g>
    <g id="xtick_3">
     <g id="line2d_3">
      <g>
       <use xlink:href="#m40c32ca2e0" x="199.34616" y="307.584" style="stroke: #000000; stroke-width: 0.8"/>
      </g>
     </g>
     <g id="text_3">
      <!-- −0.06 -->
      <g transform="translate(184.023503 322.182437) scale(0.1 -0.1)">
       <defs>
        <path id="DejaVuSans-36" d="M 2113 2584 
Q 1688 2584 1439 2293 
Q 1191 2003 1191 1497 
Q 1191 994 1439 701 
Q 1688 409 2113 409 
Q 2538 409 2786 701 
Q 3034 994 3034 1497 
Q 3034 2003 2786 2293 
Q 2538 2584 2113 2584 
z
M 3366 4563 
L 3366 3988 
Q 3128 4100 2886 4159 
Q 2644 4219 2406 4219 
Q 1781 4219 1451 3797 
Q 1122 3375 1075 2522 
Q 1259 2794 1537 2939 
Q 1816 3084 2150 3084 
Q 2853 3084 3261 2657 
Q 3669 2231 3669 1497 
Q 3669 778 3244 343 
Q 2819 -91 2113 -91 
Q 1303 -91 875 529 
Q 447 1150 447 2328 
Q 447 3434 972 4092 
Q 1497 4750 2381 4750 
Q 2619 4750 2861 4703 
Q 3103 4656 3366 4563 
z
" transform="scale(0.015625)"/>
       </defs>
       <use xlink:href="#DejaVuSans-2212"/>
       <use xlink:href="#DejaVuSans-30" x="83.789062"/>
       <use xlink:href="#DejaVuSans-2e" x="147.412109"/>
       <use xlink:href="#DejaVuSans-30" x="179.199219"/>
       <use xlink:href="#DejaVuSans-36" x="242.822266"/>
      </g>
     </g>
    </g>
    <g id="xtick_4">
     <g id="line2d_4">
      <g>
       <use xlink:href="#m40c32ca2e0" x="243.836685" y="307.584" style="stroke: #000000; stroke-width: 0.8"/>
      </g>
     </g>
     <g id="text_4">
      <!-- −0.05 -->
      <g transform="translate(228.514029 322.182437) scale(0.1 -0.1)">
       <defs>
        <path id="DejaVuSans-35" d="M 691 4666 
L 3169 4666 
L 3169 4134 
L 1269 4134 
L 1269 2991 
Q 1406 3038 1543 3061 
Q 1681 3084 1819 3084 
Q 2600 3084 3056 2656 
Q 3513 2228 3513 1497 
Q 3513 744 3044 326 
Q 2575 -91 1722 -91 
Q 1428 -91 1123 -41 
Q 819 9 494 109 
L 494 744 
Q 775 591 1075 516 
Q 1375 441 1709 441 
Q 2250 441 2565 725 
Q 2881 1009 2881 1497 
Q 2881 1984 2565 2268 
Q 2250 2553 1709 2553 
Q 1456 2553 1204 2497 
Q 953 2441 691 2322 
L 691 4666 
z
" transform="scale(0.015625)"/>
       </defs>
       <use xlink:href="#DejaVuSans-2212"/>
       <use xlink:href="#DejaVuSans-30" x="83.789062"/>
       <use xlink:href="#DejaVuSans-2e" x="147.412109"/>
       <use xlink:href="#DejaVuSans-30" x="179.199219"/>
       <use xlink:href="#DejaVuSans-35" x="242.822266"/>
      </g>
     </g>
    </g>
    <g id="xtick_5">
     <g id="line2d_5">
      <g>
       <use xlink:href="#m40c32ca2e0" x="288.32721" y="307.584" style="stroke: #000000; stroke-width: 0.8"/>
      </g>
     </g>
     <g id="text_5">
      <!-- −0.04 -->
      <g transform="translate(273.004554 322.182437) scale(0.1 -0.1)">
       <defs>
        <path id="DejaVuSans-34" d="M 2419 4116 
L 825 1625 
L 2419 1625 
L 2419 4116 
z
M 2253 4666 
L 3047 4666 
L 3047 1625 
L 3713 1625 
L 3713 1100 
L 3047 1100 
L 3047 0 
L 2419 0 
L 2419 1100 
L 313 1100 
L 313 1709 
L 2253 4666 
z
" transform="scale(0.015625)"/>
       </defs>
       <use xlink:href="#DejaVuSans-2212"/>
       <use xlink:href="#DejaVuSans-30" x="83.789062"/>
       <use xlink:href="#DejaVuSans-2e" x="147.412109"/>
       <use xlink:href="#DejaVuSans-30" x="179.199219"/>
       <use xlink:href="#DejaVuSans-34" x="242.822266"/>
      </g>
     </g>
    </g>
    <g id="xtick_6">
     <g id="line2d_6">
      <g>
       <use xlink:href="#m40c32ca2e0" x="332.817736" y="307.584" style="stroke: #000000; stroke-width: 0.8"/>
      </g>
     </g>
     <g id="text_6">
      <!-- −0.03 -->
      <g transform="translate(317.495079 322.182437) scale(0.1 -0.1)">
       <defs>
        <path id="DejaVuSans-33" d="M 2597 2516 
Q 3050 2419 3304 2112 
Q 3559 1806 3559 1356 
Q 3559 666 3084 287 
Q 2609 -91 1734 -91 
Q 1441 -91 1130 -33 
Q 819 25 488 141 
L 488 750 
Q 750 597 1062 519 
Q 1375 441 1716 441 
Q 2309 441 2620 675 
Q 2931 909 2931 1356 
Q 2931 1769 2642 2001 
Q 2353 2234 1838 2234 
L 1294 2234 
L 1294 2753 
L 1863 2753 
Q 2328 2753 2575 2939 
Q 2822 3125 2822 3475 
Q 2822 3834 2567 4026 
Q 2313 4219 1838 4219 
Q 1578 4219 1281 4162 
Q 984 4106 628 3988 
L 628 4550 
Q 988 4650 1302 4700 
Q 1616 4750 1894 4750 
Q 2613 4750 3031 4423 
Q 3450 4097 3450 3541 
Q 3450 3153 3228 2886 
Q 3006 2619 2597 2516 
z
" transform="scale(0.015625)"/>
       </defs>
       <use xlink:href="#DejaVuSans-2212"/>
       <use xlink:href="#DejaVuSans-30" x="83.789062"/>
       <use xlink:href="#DejaVuSans-2e" x="147.412109"/>
       <use xlink:href="#DejaVuSans-30" x="179.199219"/>
       <use xlink:href="#DejaVuSans-33" x="242.822266"/>
      </g>
     </g>
    </g>
    <g id="xtick_7">
     <g id="line2d_7">
      <g>
       <use xlink:href="#m40c32ca2e0" x="377.308261" y="307.584" style="stroke: #000000; stroke-width: 0.8"/>
      </g>
     </g>
     <g id="text_7">
      <!-- −0.02 -->
      <g transform="translate(361.985605 322.182437) scale(0.1 -0.1)">
       <defs>
        <path id="DejaVuSans-32" d="M 1228 531 
L 3431 531 
L 3431 0 
L 469 0 
L 469 531 
Q 828 903 1448 1529 
Q 2069 2156 2228 2338 
Q 2531 2678 2651 2914 
Q 2772 3150 2772 3378 
Q 2772 3750 2511 3984 
Q 2250 4219 1831 4219 
Q 1534 4219 1204 4116 
Q 875 4013 500 3803 
L 500 4441 
Q 881 4594 1212 4672 
Q 1544 4750 1819 4750 
Q 2544 4750 2975 4387 
Q 3406 4025 3406 3419 
Q 3406 3131 3298 2873 
Q 3191 2616 2906 2266 
Q 2828 2175 2409 1742 
Q 1991 1309 1228 531 
z
" transform="scale(0.015625)"/>
       </defs>
       <use xlink:href="#DejaVuSans-2212"/>
       <use xlink:href="#DejaVuSans-30" x="83.789062"/>
       <use xlink:href="#DejaVuSans-2e" x="147.412109"/>
       <use xlink:href="#DejaVuSans-30" x="179.199219"/>
       <use xlink:href="#DejaVuSans-32" x="242.822266"/>
      </g>
     </g>
    </g>
    <g id="text_8">
     <!-- −1.001e2 -->
     <g transform="translate(328.867964 334.860562) scale(0.1 -0.1)">
      <defs>
       <path id="DejaVuSans-31" d="M 794 531 
L 1825 531 
L 1825 4091 
L 703 3866 
L 703 4441 
L 1819 4666 
L 2450 4666 
L 2450 531 
L 3481 531 
L 3481 0 
L 794 0 
L 794 531 
z
" transform="scale(0.015625)"/>
       <path id="DejaVuSans-65" d="M 3597 1894 
L 3597 1613 
L 953 1613 
Q 991 1019 1311 708 
Q 1631 397 2203 397 
Q 2534 397 2845 478 
Q 3156 559 3463 722 
L 3463 178 
Q 3153 47 2828 -22 
Q 2503 -91 2169 -91 
Q 1331 -91 842 396 
Q 353 884 353 1716 
Q 353 2575 817 3079 
Q 1281 3584 2069 3584 
Q 2775 3584 3186 3129 
Q 3597 2675 3597 1894 
z
M 3022 2063 
Q 3016 2534 2758 2815 
Q 2500 3097 2075 3097 
Q 1594 3097 1305 2825 
Q 1016 2553 972 2059 
L 3022 2063 
z
" transform="scale(0.015625)"/>
      </defs>
      <use xlink:href="#DejaVuSans-2212"/>
      <use xlink:href="#DejaVuSans-31" x="83.789062"/>
      <use xlink:href="#DejaVuSans-2e" x="147.412109"/>
      <use xlink:href="#DejaVuSans-30" x="179.199219"/>
      <use xlink:href="#DejaVuSans-30" x="242.822266"/>
      <use xlink:href="#DejaVuSans-31" x="306.445312"/>
      <use xlink:href="#DejaVuSans-65" x="370.068359"/>
      <use xlink:href="#DejaVuSans-32" x="431.591797"/>
     </g>
    </g>
   </g>
   <g id="matplotlib.axis_2">
    <g id="ytick_1">
     <g id="line2d_8">
      <defs>
       <path id="m2b27fd85ac" d="M 0 0 
L -3.5 0 
" style="stroke: #000000; stroke-width: 0.8"/>
      </defs>
      <g>
       <use xlink:href="#m2b27fd85ac" x="93.928598" y="304.11498" style="stroke: #000000; stroke-width: 0.8"/>
      </g>
     </g>
     <g id="text_9">
      <!-- 19.17 -->
      <g transform="translate(58.300473 307.914198) scale(0.1 -0.1)">
       <defs>
        <path id="DejaVuSans-39" d="M 703 97 
L 703 672 
Q 941 559 1184 500 
Q 1428 441 1663 441 
Q 2288 441 2617 861 
Q 2947 1281 2994 2138 
Q 2813 1869 2534 1725 
Q 2256 1581 1919 1581 
Q 1219 1581 811 2004 
Q 403 2428 403 3163 
Q 403 3881 828 4315 
Q 1253 4750 1959 4750 
Q 2769 4750 3195 4129 
Q 3622 3509 3622 2328 
Q 3622 1225 3098 567 
Q 2575 -91 1691 -91 
Q 1453 -91 1209 -44 
Q 966 3 703 97 
z
M 1959 2075 
Q 2384 2075 2632 2365 
Q 2881 2656 2881 3163 
Q 2881 3666 2632 3958 
Q 2384 4250 1959 4250 
Q 1534 4250 1286 3958 
Q 1038 3666 1038 3163 
Q 1038 2656 1286 2365 
Q 1534 2075 1959 2075 
z
" transform="scale(0.015625)"/>
       </defs>
       <use xlink:href="#DejaVuSans-31"/>
       <use xlink:href="#DejaVuSans-39" x="63.623047"/>
       <use xlink:href="#DejaVuSans-2e" x="127.246094"/>
       <use xlink:href="#DejaVuSans-31" x="159.033203"/>
       <use xlink:href="#DejaVuSans-37" x="222.65625"/>
      </g>
     </g>
    </g>
    <g id="ytick_2">
     <g id="line2d_9">
      <g>
       <use xlink:href="#m2b27fd85ac" x="93.928598" y="257.004683" style="stroke: #000000; stroke-width: 0.8"/>
      </g>
     </g>
     <g id="text_10">
      <!-- 19.18 -->
      <g transform="translate(58.300473 260.803901) scale(0.1 -0.1)">
       <use xlink:href="#DejaVuSans-31"/>
       <use xlink:href="#DejaVuSans-39" x="63.623047"/>
       <use xlink:href="#DejaVuSans-2e" x="127.246094"/>
       <use xlink:href="#DejaVuSans-31" x="159.033203"/>
       <use xlink:href="#DejaVuSans-38" x="222.65625"/>
      </g>
     </g>
    </g>
    <g id="ytick_3">
     <g id="line2d_10">
      <g>
       <use xlink:href="#m2b27fd85ac" x="93.928598" y="209.894386" style="stroke: #000000; stroke-width: 0.8"/>
      </g>
     </g>
     <g id="text_11">
      <!-- 19.19 -->
      <g transform="translate(58.300473 213.693604) scale(0.1 -0.1)">
       <use xlink:href="#DejaVuSans-31"/>
       <use xlink:href="#DejaVuSans-39" x="63.623047"/>
       <use xlink:href="#DejaVuSans-2e" x="127.246094"/>
       <use xlink:href="#DejaVuSans-31" x="159.033203"/>
       <use xlink:href="#DejaVuSans-39" x="222.65625"/>
      </g>
     </g>
    </g>
    <g id="ytick_4">
     <g id="line2d_11">
      <g>
       <use xlink:href="#m2b27fd85ac" x="93.928598" y="162.784088" style="stroke: #000000; stroke-width: 0.8"/>
      </g>
     </g>
     <g id="text_12">
      <!-- 19.20 -->
      <g transform="translate(58.300473 166.583307) scale(0.1 -0.1)">
       <use xlink:href="#DejaVuSans-31"/>
       <use xlink:href="#DejaVuSans-39" x="63.623047"/>
       <use xlink:href="#DejaVuSans-2e" x="127.246094"/>
       <use xlink:href="#DejaVuSans-32" x="159.033203"/>
       <use xlink:href="#DejaVuSans-30" x="222.65625"/>
      </g>
     </g>
    </g>
    <g id="ytick_5">
     <g id="line2d_12">
      <g>
       <use xlink:href="#m2b27fd85ac" x="93.928598" y="115.673791" style="stroke: #000000; stroke-width: 0.8"/>
      </g>
     </g>
     <g id="text_13">
      <!-- 19.21 -->
      <g transform="translate(58.300473 119.47301) scale(0.1 -0.1)">
       <use xlink:href="#DejaVuSans-31"/>
       <use xlink:href="#DejaVuSans-39" x="63.623047"/>
       <use xlink:href="#DejaVuSans-2e" x="127.246094"/>
       <use xlink:href="#DejaVuSans-32" x="159.033203"/>
       <use xlink:href="#DejaVuSans-31" x="222.65625"/>
      </g>
     </g>
    </g>
    <g id="ytick_6">
     <g id="line2d_13">
      <g>
       <use xlink:href="#m2b27fd85ac" x="93.928598" y="68.563494" style="stroke: #000000; stroke-width: 0.8"/>
      </g>
     </g>
     <g id="text_14">
      <!-- 19.22 -->
      <g transform="translate(58.300473 72.362713) scale(0.1 -0.1)">
       <use xlink:href="#DejaVuSans-31"/>
       <use xlink:href="#DejaVuSans-39" x="63.623047"/>
       <use xlink:href="#DejaVuSans-2e" x="127.246094"/>
       <use xlink:href="#DejaVuSans-32" x="159.033203"/>
       <use xlink:href="#DejaVuSans-32" x="222.65625"/>
      </g>
     </g>
    </g>
   </g>
   <g id="patch_3">
    <path d="M 93.928598 307.584 
L 93.928598 41.472 
" style="fill: none; stroke: #000000; stroke-width: 0.8; stroke-linejoin: miter; stroke-linecap: square"/>
   </g>
   <g id="patch_4">
    <path d="M 378.391402 307.584 
L 378.391402 41.472 
" style="fill: none; stroke: #000000; stroke-width: 0.8; stroke-linejoin: miter; stroke-linecap: square"/>
   </g>
   <g id="patch_5">
    <path d="M 93.928598 307.584 
L 378.391402 307.584 
" style="fill: none; stroke: #000000; stroke-width: 0.8; stroke-linejoin: miter; stroke-linecap: square"/>
   </g>
   <g id="patch_6">
    <path d="M 93.928598 41.472 
L 378.391402 41.472 
" style="fill: none; stroke: #000000; stroke-width: 0.8; stroke-linejoin: miter; stroke-linecap: square"/>
   </g>
  </g>
 </g>
 <defs>
  <clipPath id="p8787615ec8">
   <rect x="93.928598" y="41.472" width="284.462804" height="266.112"/>
  </clipPath>
 </defs>
</svg>
