<?xml version="1.0" encoding="utf-8" standalone="no"?>
<!DOCTYPE svg PUBLIC "-//W3C//DTD SVG 1.1//EN"
  "http://www.w3.org/Graphics/SVG/1.1/DTD/svg11.dtd">
<svg xmlns:xlink="http://www.w3.org/1999/xlink" width="460.8pt" height="345.6pt" viewBox="0 0 460.8 345.6" xmlns="http://www.w3.org/2000/svg" version="1.1">
 <metadata>
  <rdf:RDF xmlns:dc="http://purl.org/dc/elements/1.1/" xmlns:cc="http://creativecommons.org/ns#" xmlns:rdf="http://www.w3.org/1999/02/22-rdf-syntax-ns#">
   <cc:Work>
    <dc:type rdf:resource="http://purl.org/dc/dcmitype/StillImage"/>
    <dc:date>2024-03-22T17:57:49.459486</dc:date>
    <dc:format>image/svg+xml</dc:format>
    <dc:creator>
     <cc:Agent>
      <dc:title>Matplotlib v3.8.0, https://matplotlib.org/</dc:title>
     </cc:Agent>
    </dc:creator>
   </cc:Work>
  </rdf:RDF>
 </metadata>
 <defs>
  <style type="text/css">*{stroke-linejoin: round; stroke-linecap: butt}</style>
 </defs>
 <g id="figure_1">
  <g id="patch_1">
   <path d="M 0 345.6 
L 460.8 345.6 
L 460.8 0 
L 0 0 
z
" style="fill: #ffffff"/>
  </g>
  <g id="axes_1">
   <g id="patch_2">
    <path d="M 106.142588 307.584 
L 366.177412 307.584 
L 366.177412 41.472 
L 106.142588 41.472 
z
" style="fill: #ffffff"/>
   </g>
   <g id="PatchCollection_1">
    <path d="M 148.42905 149.145203 
L 147.282715 149.0248 
L 146.825629 147.966884 
L 145.679288 147.846482 
L 145.222197 146.788565 
L 144.075852 146.668166 
L 143.618756 145.610247 
L 144.308009 144.672727 
L 143.850912 143.614807 
L 142.704558 143.494407 
L 142.247456 142.436485 
L 141.101097 142.316087 
L 140.64399 141.258165 
L 141.333246 140.320639 
L 140.876138 139.262714 
L 139.72977 139.142315 
L 139.272657 138.084389 
L 139.961915 137.14686 
L 139.504801 136.088931 
L 138.358424 135.968533 
L 137.901305 134.910604 
L 136.754923 134.790207 
L 136.297799 133.732277 
L 135.151412 133.611882 
L 134.462154 134.54942 
L 133.315766 134.429029 
L 132.858633 133.371098 
L 131.712241 133.250709 
L 131.255103 132.192777 
L 130.108706 132.072389 
L 129.651563 131.014456 
L 128.505161 130.89407 
L 128.048013 129.836136 
L 128.737271 128.898586 
L 128.280122 127.84065 
L 127.133711 127.720264 
L 126.676557 126.662326 
L 125.530141 126.541942 
L 125.072982 125.484003 
L 123.926561 125.363621 
L 123.469397 124.305681 
L 122.322971 124.1853 
L 121.865802 123.127359 
L 122.555063 122.189798 
L 123.701492 122.31018 
L 124.390756 121.372621 
L 123.933589 120.314677 
L 124.622856 119.377117 
L 125.769288 119.497505 
L 126.458558 118.559948 
L 126.001394 117.502 
L 126.690666 116.564443 
L 127.837102 116.684836 
L 128.526376 115.747281 
L 129.672811 115.867678 
L 130.362089 114.930126 
L 131.508522 115.050526 
L 131.965675 116.108477 
L 133.112103 116.228879 
L 133.801384 115.291332 
L 133.344236 114.23338 
L 134.033519 113.295833 
L 133.57637 112.237878 
L 134.265657 111.300331 
L 133.808506 110.242374 
L 132.662065 110.121967 
L 132.20491 109.064009 
L 132.894199 108.126458 
L 132.437043 107.068498 
L 133.126334 106.130946 
L 132.669177 105.072984 
L 133.358471 104.135432 
L 134.504924 104.255845 
L 135.194221 103.318296 
L 136.340673 103.438712 
L 137.029973 102.501165 
L 138.176424 102.621585 
L 138.865727 101.684041 
L 140.012177 101.804464 
L 140.701483 100.866922 
L 141.847932 100.987349 
L 142.537241 100.04981 
L 143.683689 100.170241 
L 144.373001 99.232703 
L 145.519448 99.353138 
L 146.208763 98.415603 
L 147.355209 98.536041 
L 148.044526 97.598509 
L 149.190971 97.71895 
L 149.648094 98.776922 
L 150.794534 98.897365 
L 151.483855 97.959838 
L 152.630294 98.080285 
L 153.087409 99.138256 
L 154.233843 99.258705 
L 154.690952 100.316675 
L 155.837381 100.437126 
L 156.294486 101.495095 
L 157.44091 101.615547 
L 157.898009 102.673515 
L 159.044429 102.793969 
L 159.733753 101.856456 
L 160.880171 101.976913 
L 161.569499 101.039403 
L 162.715916 101.159864 
L 163.405246 100.222356 
L 164.551663 100.34282 
L 165.240996 99.405315 
L 166.387411 99.525783 
L 166.84449 100.583754 
L 167.990901 100.704224 
L 168.680237 99.766724 
L 169.826647 99.887197 
L 170.283717 100.945168 
L 171.430122 101.065643 
L 171.887187 102.123613 
L 173.033587 102.24409 
L 173.490647 103.302059 
L 174.637042 103.422537 
L 175.326381 102.485049 
L 176.472776 102.605531 
L 177.162118 101.668044 
L 178.308511 101.78853 
L 178.765558 102.8465 
L 179.911947 102.966987 
L 180.601292 102.029506 
L 181.747679 102.149997 
L 182.204718 103.207967 
L 183.3511 103.328459 
L 183.808134 104.386428 
L 184.954512 104.506922 
L 185.411541 105.56489 
L 186.557913 105.685386 
L 187.014937 106.743353 
L 188.161305 106.86385 
L 188.618324 107.921816 
L 189.764687 108.042315 
L 190.221701 109.100279 
L 189.532355 110.037743 
L 189.989368 111.095705 
L 191.135722 111.216204 
L 191.825068 110.278744 
L 192.971421 110.399247 
L 193.660769 109.461788 
L 194.807122 109.582295 
L 195.496473 108.644839 
L 196.642824 108.765349 
L 197.09982 109.823313 
L 198.246167 109.943825 
L 198.703158 111.001788 
L 199.8495 111.122302 
L 200.538854 110.184854 
L 200.081867 109.12689 
L 200.771224 108.189442 
L 200.314235 107.131476 
L 201.003595 106.194027 
L 200.546606 105.136059 
L 201.235969 104.19861 
L 200.778978 103.140639 
L 201.468343 102.20319 
L 202.6147 102.323715 
L 203.304068 101.386268 
L 204.450424 101.506796 
L 205.139795 100.569352 
L 206.28615 100.689883 
L 206.975524 99.752441 
L 208.121877 99.872976 
L 208.811255 98.935537 
L 209.957607 99.056076 
L 210.414579 100.114052 
L 211.560926 100.234592 
L 212.250307 99.297158 
L 213.396653 99.417702 
L 214.086036 98.480271 
L 215.232382 98.600818 
L 215.921768 97.663389 
L 215.464808 96.60541 
L 216.154197 95.66798 
L 217.300546 95.788533 
L 217.989937 94.851106 
L 217.53298 93.793124 
L 218.222375 92.855696 
L 219.368726 92.976255 
L 219.82568 94.034238 
L 220.972027 94.154798 
L 221.428975 95.212781 
L 222.575317 95.333342 
L 223.03226 96.391324 
L 222.342866 97.328742 
L 222.799808 98.386721 
L 223.946141 98.507283 
L 224.403078 99.565261 
L 225.549406 99.685824 
L 226.238801 98.748411 
L 225.781868 97.690432 
L 226.471266 96.753019 
L 227.617597 96.873588 
L 228.306997 95.936177 
L 227.850067 94.878195 
L 228.53947 93.940783 
L 228.082538 92.882799 
L 228.771945 91.945387 
L 228.315012 90.8874 
L 229.004421 89.949988 
L 228.547486 88.891999 
L 229.236898 87.954587 
L 228.779963 86.896596 
L 229.469378 85.959183 
L 229.012441 84.901189 
L 229.701859 83.963776 
L 230.848213 84.084359 
L 231.537633 83.146949 
L 231.080699 82.088952 
L 231.770123 81.151541 
L 231.313188 80.093542 
L 232.002614 79.15613 
L 231.545678 78.098129 
L 232.235107 77.160717 
L 231.77817 76.102713 
L 232.467601 75.165301 
L 232.010663 74.107295 
L 232.700097 73.169883 
L 233.84647 73.290478 
L 234.535907 72.353068 
L 235.682279 72.473667 
L 236.371719 71.53626 
L 237.51809 71.656862 
L 237.975016 72.714871 
L 239.121382 72.835476 
L 239.810825 71.898073 
L 240.95719 72.018682 
L 241.646636 71.081282 
L 242.793 71.201893 
L 243.249914 72.259903 
L 244.396273 72.380517 
L 245.085722 71.443122 
L 246.23208 71.563739 
L 246.688985 72.621749 
L 247.835339 72.742368 
L 248.524791 71.804978 
L 249.671143 71.925601 
L 250.360598 70.988214 
L 251.506949 71.10884 
L 252.196407 70.171456 
L 253.342757 70.292085 
L 254.032218 69.354703 
L 253.575328 68.296689 
L 254.264791 67.359307 
L 255.411145 67.479942 
L 256.100611 66.542562 
L 257.246963 66.6632 
L 257.936433 65.725823 
L 259.082784 65.846465 
L 259.772256 64.90909 
L 260.918607 65.029736 
L 261.608082 64.092364 
L 262.754431 64.213013 
L 263.443909 63.275643 
L 264.590258 63.396295 
L 265.279739 62.458928 
L 266.426086 62.579584 
L 266.882949 63.637606 
L 268.029291 63.758264 
L 268.486149 64.816284 
L 269.632487 64.936944 
L 270.321971 63.999585 
L 271.468308 64.120248 
L 272.157795 63.182891 
L 273.30413 63.303558 
L 273.99362 62.366204 
L 275.139955 62.486874 
L 275.596796 63.544897 
L 276.743126 63.665569 
L 277.432619 62.72822 
L 278.578948 62.848896 
L 279.268443 61.91155 
L 280.414772 62.032229 
L 281.10427 61.094885 
L 282.250597 61.215568 
L 282.707422 62.273592 
L 282.017923 63.210933 
L 282.474747 64.268955 
L 283.621065 64.389638 
L 284.077884 65.447659 
L 285.224197 65.568344 
L 285.681011 66.626364 
L 284.991515 67.563698 
L 285.448327 68.621716 
L 284.758834 69.55905 
L 285.215646 70.617066 
L 286.361946 70.737748 
L 286.818753 71.795763 
L 286.129262 72.733094 
L 286.586068 73.791106 
L 285.89658 74.728437 
L 286.353384 75.786447 
L 287.499672 75.907127 
L 287.956471 76.965136 
L 287.266986 77.902463 
L 287.723784 78.96047 
L 287.034302 79.897797 
L 287.491099 80.955801 
L 286.80162 81.893128 
L 287.258416 82.95113 
L 286.568939 83.888456 
L 287.025734 84.946456 
L 288.172001 85.067131 
L 288.628791 86.12513 
L 289.775053 86.245806 
L 290.231838 87.303804 
L 291.378095 87.424483 
L 292.067572 86.487165 
L 293.213828 86.607847 
L 293.670604 87.665845 
L 294.816856 87.786529 
L 295.273627 88.844525 
L 294.58415 89.781837 
L 293.437902 89.661155 
L 292.748428 90.598469 
L 291.60218 90.47779 
L 290.912708 91.415107 
L 289.766459 91.294432 
L 289.076991 92.231751 
L 287.93074 92.11108 
L 287.241275 93.048401 
L 286.095023 92.927733 
L 285.405561 93.865057 
L 284.259309 93.744393 
L 283.569849 94.68172 
L 282.423596 94.561059 
L 281.734139 95.498388 
L 282.190936 96.556375 
L 281.501482 97.493703 
L 280.355232 97.373048 
L 279.665781 98.310379 
L 280.12258 99.368362 
L 279.433132 100.305693 
L 278.286884 100.185043 
L 277.597439 101.122376 
L 278.054241 102.180356 
L 277.364799 103.117689 
L 277.8216 104.175667 
L 277.13216 105.112999 
L 277.58896 106.170975 
L 276.899523 107.108307 
L 277.356322 108.16628 
L 276.666888 109.103612 
L 277.123686 110.161583 
L 276.434255 111.098914 
L 276.891051 112.156883 
L 278.037275 112.277522 
L 278.494067 113.33549 
L 277.804638 114.272817 
L 278.261428 115.330783 
L 279.407643 115.451422 
L 279.864429 116.509386 
L 281.010639 116.630027 
L 281.467419 117.68799 
L 280.777994 118.625312 
L 281.234773 119.683273 
L 280.54535 120.620594 
L 281.002128 121.678553 
L 282.148325 121.799192 
L 282.605099 122.857149 
L 281.915678 123.794467 
L 282.37245 124.852423 
L 281.683033 125.78974 
L 282.139804 126.847693 
L 281.450389 127.78501 
L 280.304204 127.664377 
L 279.614792 128.601697 
L 280.071565 129.659646 
L 279.382156 130.596966 
L 279.838929 131.654913 
L 279.149523 132.592232 
L 278.003344 132.471606 
L 277.313941 133.408927 
L 276.167761 133.288304 
L 275.710981 132.230359 
L 274.564797 132.109738 
L 273.875396 133.047065 
L 272.729211 132.926447 
L 272.039813 133.863776 
L 270.893627 133.743163 
L 270.204232 134.680494 
L 269.058045 134.559884 
L 268.368653 135.497218 
L 267.222465 135.376612 
L 266.765665 134.318669 
L 265.619471 134.198064 
L 265.162666 133.140121 
L 264.016468 133.019518 
L 263.559657 131.961573 
L 262.413454 131.840972 
L 261.956639 130.783026 
L 260.810431 130.662426 
L 260.121042 131.599774 
L 258.974833 131.479178 
L 258.518009 130.421232 
L 257.371795 130.300638 
L 256.914966 129.242691 
L 255.768747 129.122098 
L 255.079362 130.059454 
L 253.933143 129.938865 
L 253.24376 130.876224 
L 252.09754 130.755638 
L 251.40816 131.693 
L 250.261938 131.572418 
L 249.572562 132.509781 
L 250.029407 133.567724 
L 249.340033 134.505088 
L 249.796876 135.563028 
L 249.107505 136.500391 
L 247.961291 136.379816 
L 247.271923 137.317182 
L 247.728769 138.375119 
L 247.039404 139.312484 
L 247.496249 140.370419 
L 246.806886 141.307784 
L 247.26373 142.365716 
L 246.574371 143.303081 
L 245.428167 143.182515 
L 244.73881 144.119881 
L 245.195657 145.177811 
L 244.506303 146.115177 
L 243.360102 145.994617 
L 242.670751 146.931985 
L 243.1276 147.989912 
L 242.438252 148.92728 
L 242.8951 149.985204 
L 242.205755 150.922572 
L 241.059561 150.802019 
L 240.370218 151.739389 
L 240.82707 152.79731 
L 240.13773 153.73468 
L 240.59458 154.792598 
L 239.905243 155.729967 
L 240.362091 156.787884 
L 241.508273 156.908431 
L 242.197611 155.971065 
L 243.343792 156.091616 
L 244.033132 155.154252 
L 245.179312 155.274807 
L 245.636148 156.332724 
L 246.782323 156.453281 
L 247.471666 155.515922 
L 248.61784 155.636482 
L 249.307186 154.699126 
L 250.45336 154.819689 
L 251.142708 153.882336 
L 252.288881 154.002903 
L 252.7457 155.060822 
L 253.891868 155.181391 
L 254.348682 156.239309 
L 255.494845 156.35988 
L 255.951655 157.417797 
L 257.097812 157.538369 
L 257.554617 158.596285 
L 256.865268 159.533628 
L 257.322072 160.591541 
L 258.46822 160.712114 
L 259.15757 159.774774 
L 260.303718 159.89535 
L 260.99307 158.958013 
L 262.139217 159.078593 
L 262.596007 160.136507 
L 263.742149 160.257089 
L 264.198935 161.315002 
L 265.345073 161.435585 
L 265.801854 162.493497 
L 266.947986 162.614082 
L 267.404762 163.671993 
L 268.550889 163.792579 
L 269.240244 162.855257 
L 270.386371 162.975847 
L 270.843138 164.033758 
L 271.98926 164.154349 
L 272.678618 163.217032 
L 273.824738 163.337627 
L 274.281497 164.395538 
L 275.427612 164.516135 
L 275.884366 165.574045 
L 277.030477 165.694644 
L 277.719838 164.757334 
L 278.865948 164.877937 
L 279.322692 165.935846 
L 280.468797 166.05645 
L 280.925537 167.114359 
L 282.071637 167.234965 
L 282.761001 166.297664 
L 283.9071 166.418273 
L 284.363831 167.476181 
L 285.509925 167.596792 
L 285.966651 168.6547 
L 285.277286 169.591995 
L 285.734011 170.6499 
L 285.044649 171.587195 
L 285.501373 172.645098 
L 284.812014 173.582392 
L 285.268736 174.640293 
L 284.57938 175.577587 
L 285.036101 176.635485 
L 284.346748 177.572778 
L 284.803468 178.630675 
L 285.949537 178.751278 
L 286.406252 179.809173 
L 285.716902 180.746464 
L 286.173616 181.804356 
L 285.484268 182.741646 
L 285.940981 183.799537 
L 285.251636 184.736826 
L 285.708347 185.794714 
L 286.8544 185.915314 
L 287.311107 186.973201 
L 288.457155 187.093803 
L 288.913857 188.151689 
L 290.0599 188.272292 
L 290.516597 189.330177 
L 291.662635 189.450782 
L 292.119327 190.508666 
L 291.429984 191.445944 
L 291.886675 192.503825 
L 293.032704 192.62443 
L 293.48939 193.68231 
L 294.635415 193.802917 
L 295.092095 194.860796 
L 296.238115 194.981405 
L 296.694791 196.039283 
L 297.840805 196.159893 
L 298.530148 195.222627 
L 299.676162 195.343241 
L 300.132829 196.401119 
L 301.278838 196.521734 
L 301.7355 197.579611 
L 301.046157 198.516871 
L 301.502818 199.574746 
L 302.648818 199.695361 
L 303.105474 200.753234 
L 304.251469 200.873852 
L 304.940812 199.936597 
L 306.086806 200.057218 
L 306.543453 201.115091 
L 307.689443 201.235714 
L 308.146085 202.293586 
L 309.292069 202.41421 
L 309.748706 203.472081 
L 310.894686 203.592707 
L 311.351318 204.650577 
L 312.497292 204.771204 
L 313.186639 203.833964 
L 314.332612 203.954595 
L 314.789236 205.012465 
L 314.099889 205.949702 
L 314.556511 207.00757 
L 315.702476 207.128201 
L 316.159093 208.186067 
L 315.469749 209.123301 
L 315.926366 210.181165 
L 315.237024 211.118399 
L 315.693639 212.176261 
L 315.004301 213.113494 
L 315.460915 214.171353 
L 314.771579 215.108586 
L 315.228192 216.166443 
L 316.374136 216.287069 
L 316.830744 217.344925 
L 316.141411 218.282155 
L 316.598018 219.340009 
L 317.743953 219.460634 
L 318.200555 220.518487 
L 319.346485 220.639114 
L 319.803082 221.696966 
L 319.113752 222.634189 
L 319.570347 223.692038 
L 320.716269 223.812665 
L 321.172859 224.870514 
L 322.318776 224.991143 
L 322.775362 226.04899 
L 323.921274 226.16962 
L 324.377854 227.227466 
L 325.523761 227.348098 
L 325.980337 228.405943 
L 327.126239 228.526577 
L 327.582809 229.584421 
L 328.728707 229.705057 
L 329.185272 230.762899 
L 328.495944 231.700104 
L 328.952509 232.757945 
L 330.098397 232.87858 
L 330.554957 233.936419 
L 331.70084 234.057057 
L 332.390168 233.119857 
L 333.536051 233.240498 
L 333.992601 234.298337 
L 333.303273 235.235534 
L 333.759823 236.29337 
L 333.070498 237.230567 
L 333.527046 238.288401 
L 334.672916 238.40904 
L 335.129459 239.466873 
L 334.440137 240.404067 
L 334.896679 241.461898 
L 336.04254 241.582537 
L 336.499077 242.640366 
L 337.644933 242.761007 
L 338.101466 243.818836 
L 339.247317 243.939478 
L 339.93664 243.002294 
L 341.08249 243.12294 
L 341.539013 244.180768 
L 342.684859 244.301416 
L 343.141377 245.359244 
L 344.287218 245.479893 
L 344.743731 246.537719 
L 345.889567 246.65837 
L 346.346075 247.716196 
L 347.491906 247.836848 
L 347.948409 248.894672 
L 349.094235 249.015327 
L 349.550734 250.07315 
L 348.861411 251.010317 
L 347.715589 250.889664 
L 347.026268 251.826834 
L 347.48277 252.884653 
L 346.793452 253.821822 
L 345.647634 253.701175 
L 344.958319 254.638346 
L 343.812499 254.517703 
L 343.123187 255.454877 
L 343.579695 256.512692 
L 342.890386 257.449865 
L 341.74457 257.329227 
L 341.055264 258.266403 
L 339.909446 258.145768 
L 339.220143 259.082947 
L 338.074324 258.962315 
L 337.385024 259.899496 
L 337.841542 260.957306 
L 337.152245 261.894487 
L 337.608762 262.952294 
L 338.754573 263.072922 
L 339.211085 264.130728 
L 338.52179 265.067905 
L 338.978301 266.125709 
L 340.124103 266.246337 
L 340.580609 267.30414 
L 341.726407 267.424769 
L 342.182908 268.482571 
L 341.493616 269.419742 
L 341.950116 270.477542 
L 341.260826 271.414712 
L 340.115037 271.294087 
L 339.658533 270.236288 
L 338.512739 270.115664 
L 338.05623 269.057865 
L 336.910431 268.937242 
L 336.221145 269.874421 
L 335.075345 269.753803 
L 334.386061 270.690984 
L 333.24026 270.570369 
L 332.55098 271.507553 
L 331.405178 271.386941 
L 330.7159 272.324128 
L 329.570098 272.20352 
L 329.113568 271.145723 
L 327.967761 271.025117 
L 327.511226 269.967319 
L 326.365414 269.846715 
L 325.908874 268.788916 
L 326.598152 267.851721 
L 326.141611 266.79392 
L 324.99579 266.673315 
L 324.539245 265.615513 
L 323.393418 265.49491 
L 322.704141 266.432111 
L 321.558314 266.311511 
L 320.869039 267.248715 
L 319.723211 267.128119 
L 319.03394 268.065325 
L 317.88811 267.944732 
L 317.431548 266.886932 
L 316.285714 266.766341 
L 315.829147 265.70854 
L 314.683308 265.587951 
L 314.226737 264.530149 
L 314.916008 263.592934 
L 314.459435 262.53513 
L 313.313587 262.414541 
L 312.857009 261.356735 
L 313.546283 260.419517 
L 313.089704 259.361709 
L 311.943847 259.24112 
L 311.487263 258.183311 
L 310.341401 258.062723 
L 309.652128 258.999947 
L 308.506265 258.879363 
L 307.816994 259.816589 
L 306.671131 259.696009 
L 305.981863 260.633238 
L 304.835998 260.512661 
L 304.379398 259.454854 
L 305.068666 258.517622 
L 304.612064 257.459813 
L 303.466191 257.339236 
L 303.009584 256.281425 
L 301.863706 256.16085 
L 301.407094 255.103039 
L 300.261211 254.982465 
L 299.571944 255.919705 
L 298.426059 255.799136 
L 297.736795 256.736378 
L 296.59091 256.615812 
L 295.901648 257.553057 
L 294.755762 257.432494 
L 294.299134 256.374685 
L 293.153243 256.254124 
L 292.69661 255.196313 
L 291.550714 255.075754 
L 290.861455 256.013007 
L 289.715559 255.892451 
L 289.258917 254.83464 
L 289.948175 253.897384 
L 289.491532 252.839571 
L 288.345627 252.719015 
L 287.888979 251.661201 
L 286.743068 251.540647 
L 286.286415 250.482831 
L 285.1405 250.362279 
L 284.683842 249.304462 
L 283.537922 249.183912 
L 283.081259 248.126094 
L 281.935334 248.005545 
L 281.246075 248.942816 
L 280.100149 248.82227 
L 279.410894 249.759544 
L 278.264967 249.639002 
L 277.808291 248.581185 
L 276.662359 248.460645 
L 276.205679 247.402827 
L 275.059742 247.282289 
L 274.370489 248.21957 
L 273.224552 248.099035 
L 272.767862 247.041217 
L 271.62192 246.920684 
L 271.165225 245.862865 
L 270.019278 245.742334 
L 269.330028 246.679623 
L 268.18408 246.559096 
L 267.494834 247.496388 
L 267.951536 248.554205 
L 267.262292 249.491497 
L 266.116347 249.370974 
L 265.427106 250.308268 
L 264.281159 250.18775 
L 263.591922 251.125046 
L 264.04863 252.182859 
L 263.359395 253.120155 
L 263.816103 254.177966 
L 264.962041 254.298481 
L 265.418744 255.35629 
L 264.729512 256.293583 
L 263.583577 256.17307 
L 262.894348 257.110365 
L 263.351053 258.168171 
L 264.496984 258.288683 
L 264.953684 259.346488 
L 264.264458 260.28378 
L 264.721157 261.341582 
L 264.031933 262.278874 
L 262.88601 262.158366 
L 262.196789 263.09566 
L 262.653491 264.15346 
L 263.79941 264.273966 
L 264.256107 265.331764 
L 265.402021 265.452272 
L 265.858713 266.510069 
L 265.169495 267.447357 
L 265.626185 268.505151 
L 266.772091 268.625659 
L 267.228776 269.683453 
L 268.374677 269.803962 
L 268.831358 270.861754 
L 268.142142 271.799036 
L 266.996246 271.678528 
L 266.307033 272.615813 
L 265.161135 272.495309 
L 264.704447 271.437518 
L 265.39366 270.500231 
L 264.93697 269.442439 
L 263.791064 269.321935 
L 263.334369 268.264141 
L 262.188458 268.143638 
L 261.731758 267.085844 
L 260.585842 266.965343 
L 260.129138 265.907547 
L 258.983217 265.787048 
L 258.526507 264.729251 
L 259.215722 263.791952 
L 258.759012 262.734152 
L 259.44823 261.796853 
L 258.991518 260.739051 
L 257.845584 260.61855 
L 257.388867 259.560748 
L 258.078088 258.623445 
L 257.62137 257.56564 
L 256.475428 257.445139 
L 256.018705 256.387333 
L 254.872757 256.266833 
L 254.416029 255.209026 
L 253.270077 255.088528 
L 252.580857 256.02584 
L 251.434903 255.905346 
L 250.978167 254.847539 
L 251.667387 253.910224 
L 252.813344 254.03072 
L 253.502567 253.093408 
L 253.045833 252.035597 
L 251.899872 251.9151 
L 251.443133 250.857288 
L 252.132359 249.919972 
L 251.675619 248.862158 
L 252.364848 247.924843 
L 251.908107 246.867026 
L 252.597338 245.92971 
L 252.140596 244.871892 
L 250.994618 244.75139 
L 250.537871 243.693571 
L 251.227105 242.756251 
L 250.770357 241.698429 
L 249.62437 241.577928 
L 249.167617 240.520105 
L 248.021625 240.399605 
L 247.564867 239.341781 
L 246.41887 239.221283 
L 245.962107 238.163457 
L 244.816106 238.042961 
L 244.126872 238.980292 
L 242.98087 238.859799 
L 242.524097 237.801974 
L 241.37809 237.681483 
L 240.688859 238.618819 
L 239.542851 238.498332 
L 239.08607 237.440506 
L 237.940057 237.32002 
L 237.250829 238.257362 
L 236.104815 238.13688 
L 235.648026 237.079054 
L 234.502007 236.958574 
L 233.812782 237.895921 
L 232.666762 237.775444 
L 231.97754 238.712794 
L 230.831519 238.59232 
L 230.1423 239.529672 
L 228.996278 239.409203 
L 228.307062 240.346557 
L 228.763867 241.404379 
L 228.074654 242.341733 
L 226.928635 242.221268 
L 226.239425 243.158625 
L 225.093405 243.038164 
L 224.404197 243.975523 
L 224.861009 245.03334 
L 224.171804 245.970699 
L 223.025788 245.850243 
L 222.336586 246.787604 
L 221.190568 246.667152 
L 220.501369 247.604516 
L 219.35535 247.484067 
L 218.666154 248.421433 
L 219.122976 249.479245 
L 218.433783 250.416611 
L 217.287767 250.296168 
L 216.598577 251.233536 
L 215.45256 251.113096 
L 214.763373 252.050467 
L 213.617355 251.930031 
L 212.928171 252.867404 
L 211.782152 252.746971 
L 211.09297 253.684347 
L 211.549807 254.742152 
L 210.860628 255.679527 
L 211.317463 256.73733 
L 210.628287 257.674704 
L 211.085121 258.732505 
L 210.395948 259.669879 
L 210.852781 260.727677 
L 210.16361 261.665051 
L 210.620442 262.722847 
L 209.931274 263.660221 
L 210.388105 264.718014 
L 209.69894 265.655387 
L 208.552944 265.534969 
L 207.863782 266.472345 
L 208.320616 267.530135 
L 207.631457 268.46751 
L 208.088289 269.525299 
L 207.399132 270.462673 
L 207.855964 271.520459 
L 207.16681 272.457833 
L 206.020825 272.337424 
L 205.331674 273.274801 
L 204.185688 273.154396 
L 203.496541 274.091775 
L 202.350554 273.971373 
L 201.893711 272.91359 
L 200.747719 272.79319 
L 200.290871 271.735406 
L 200.980019 270.798021 
L 200.52317 269.740235 
L 199.37717 269.619835 
L 198.920316 268.562047 
L 197.77431 268.441649 
L 197.317451 267.383861 
L 198.006602 266.446469 
L 197.549742 265.388679 
L 196.403728 265.26828 
L 195.946863 264.210488 
L 194.800844 264.090091 
L 194.343974 263.032298 
L 193.19795 262.911903 
L 192.741075 261.854109 
L 191.595046 261.733716 
L 190.905896 262.671118 
L 189.759866 262.550729 
L 189.302982 261.492934 
L 188.156947 261.372546 
L 187.700059 260.314751 
L 186.554019 260.194364 
L 186.097125 259.136568 
L 184.951081 259.016183 
L 184.494182 257.958385 
L 185.183332 257.020971 
L 184.726432 255.963171 
L 183.580379 255.842786 
L 183.123474 254.784985 
L 181.977416 254.664602 
L 181.520506 253.6068 
L 180.374443 253.486419 
L 179.917528 252.428615 
L 178.77146 252.308236 
L 178.314541 251.250431 
L 177.168468 251.130053 
L 176.711543 250.072248 
L 175.565465 249.951872 
L 175.108536 248.894065 
L 173.962453 248.77369 
L 173.505518 247.715882 
L 174.19467 246.778447 
L 173.737734 245.720637 
L 174.426889 244.783202 
L 173.969952 243.725389 
L 172.823857 243.605013 
L 172.366915 242.547199 
L 173.056072 241.609761 
L 174.202172 241.730139 
L 174.891332 240.792702 
L 174.434393 239.734885 
L 175.123556 238.797449 
L 174.666615 237.73963 
L 175.355781 236.802193 
L 174.89884 235.744371 
L 175.588008 234.806934 
L 175.131066 233.74911 
L 175.820237 232.811672 
L 176.966351 232.932061 
L 177.42329 233.989886 
L 178.569399 234.110276 
L 179.258574 233.172844 
L 180.404682 233.293238 
L 181.093859 232.355808 
L 180.636928 231.297981 
L 179.490816 231.177585 
L 179.03388 230.119757 
L 177.887763 229.999363 
L 177.430822 228.941533 
L 176.2847 228.821141 
L 175.827754 227.76331 
L 174.681627 227.64292 
L 174.224676 226.585088 
L 173.078545 226.464699 
L 172.621589 225.406866 
L 173.310769 224.469422 
L 172.853811 223.411587 
L 171.707671 223.291198 
L 171.250709 222.233361 
L 171.939891 221.295913 
L 171.482928 220.238075 
L 172.172113 219.300626 
L 171.715149 218.242786 
L 170.568996 218.122395 
L 170.112027 217.064553 
L 170.801215 216.127101 
L 170.344244 215.069257 
L 171.033435 214.131805 
L 170.576463 213.073958 
L 171.265657 212.136506 
L 170.808684 211.078657 
L 171.497881 210.141204 
L 171.040907 209.083353 
L 169.894733 208.962957 
L 169.437754 207.905105 
L 170.126953 206.967648 
L 169.669973 205.909794 
L 168.523791 205.789398 
L 168.066806 204.731543 
L 168.756008 203.794083 
L 168.299022 202.736225 
L 167.15283 202.615829 
L 166.695839 201.55797 
L 165.549643 201.437575 
L 165.092647 200.379715 
L 165.781851 199.442249 
L 165.324854 198.384387 
L 164.178649 198.263993 
L 163.721647 197.206129 
L 164.410854 196.26866 
L 163.953851 195.210795 
L 162.807636 195.0904 
L 162.350628 194.032533 
L 161.204409 193.91214 
L 160.747396 192.854272 
L 159.601172 192.733881 
L 159.144154 191.676012 
L 159.833364 190.738533 
L 159.376345 189.680662 
L 158.230112 189.560271 
L 157.773088 188.502398 
L 158.4623 187.564917 
L 158.005275 186.507042 
L 156.859033 186.386651 
L 156.402003 185.328775 
L 157.091218 184.39129 
L 156.634187 183.333412 
L 155.487936 183.21302 
L 155.0309 182.155141 
L 155.720118 181.217653 
L 155.26308 180.159772 
L 155.952301 179.222283 
L 155.495262 178.1644 
L 154.348999 178.044006 
L 153.891955 176.986121 
L 154.581178 176.048629 
L 154.124134 174.990742 
L 154.81336 174.05325 
L 154.356314 172.995361 
L 155.045543 172.057868 
L 154.588496 170.999977 
L 153.442216 170.879579 
L 152.985164 169.821687 
L 153.674396 168.884191 
L 153.217342 167.826296 
L 153.906577 166.888799 
L 153.449523 165.830902 
L 154.13876 164.893405 
L 153.681704 163.835506 
L 154.370944 162.898009 
L 153.913888 161.840107 
L 152.767587 161.719704 
L 152.310526 160.661802 
L 152.999769 159.724301 
L 152.542706 158.666396 
L 151.396397 158.545994 
L 150.939329 157.488088 
L 149.793015 157.367686 
L 149.335942 156.309779 
L 148.189623 156.18938 
L 147.732546 155.131472 
L 148.421791 154.193962 
L 147.964712 153.136051 
L 148.65396 152.198541 
L 148.196881 151.140629 
L 148.886131 150.203118 
L 148.42905 149.145203 
L 148.42905 149.145203 
" clip-path="url(#p803a23f416)" style="fill: none; stroke: #ff0000; stroke-width: 0.7"/>
   </g>
   <g id="matplotlib.axis_1">
    <g id="xtick_1">
     <g id="line2d_1">
      <defs>
       <path id="m94da070ba2" d="M 0 0 
L 0 3.5 
" style="stroke: #000000; stroke-width: 0.8"/>
      </defs>
      <g>
       <use xlink:href="#m94da070ba2" x="124.952975" y="307.584" style="stroke: #000000; stroke-width: 0.8"/>
      </g>
     </g>
     <g id="text_1">
      <!-- −0.08 -->
      <g transform="translate(109.630318 322.182437) scale(0.1 -0.1)">
       <defs>
        <path id="DejaVuSans-2212" d="M 678 2272 
L 4684 2272 
L 4684 1741 
L 678 1741 
L 678 2272 
z
" transform="scale(0.015625)"/>
        <path id="DejaVuSans-30" d="M 2034 4250 
Q 1547 4250 1301 3770 
Q 1056 3291 1056 2328 
Q 1056 1369 1301 889 
Q 1547 409 2034 409 
Q 2525 409 2770 889 
Q 3016 1369 3016 2328 
Q 3016 3291 2770 3770 
Q 2525 4250 2034 4250 
z
M 2034 4750 
Q 2819 4750 3233 4129 
Q 3647 3509 3647 2328 
Q 3647 1150 3233 529 
Q 2819 -91 2034 -91 
Q 1250 -91 836 529 
Q 422 1150 422 2328 
Q 422 3509 836 4129 
Q 1250 4750 2034 4750 
z
" transform="scale(0.015625)"/>
        <path id="DejaVuSans-2e" d="M 684 794 
L 1344 794 
L 1344 0 
L 684 0 
L 684 794 
z
" transform="scale(0.015625)"/>
        <path id="DejaVuSans-38" d="M 2034 2216 
Q 1584 2216 1326 1975 
Q 1069 1734 1069 1313 
Q 1069 891 1326 650 
Q 1584 409 2034 409 
Q 2484 409 2743 651 
Q 3003 894 3003 1313 
Q 3003 1734 2745 1975 
Q 2488 2216 2034 2216 
z
M 1403 2484 
Q 997 2584 770 2862 
Q 544 3141 544 3541 
Q 544 4100 942 4425 
Q 1341 4750 2034 4750 
Q 2731 4750 3128 4425 
Q 3525 4100 3525 3541 
Q 3525 3141 3298 2862 
Q 3072 2584 2669 2484 
Q 3125 2378 3379 2068 
Q 3634 1759 3634 1313 
Q 3634 634 3220 271 
Q 2806 -91 2034 -91 
Q 1263 -91 848 271 
Q 434 634 434 1313 
Q 434 1759 690 2068 
Q 947 2378 1403 2484 
z
M 1172 3481 
Q 1172 3119 1398 2916 
Q 1625 2713 2034 2713 
Q 2441 2713 2670 2916 
Q 2900 3119 2900 3481 
Q 2900 3844 2670 4047 
Q 2441 4250 2034 4250 
Q 1625 4250 1398 4047 
Q 1172 3844 1172 3481 
z
" transform="scale(0.015625)"/>
       </defs>
       <use xlink:href="#DejaVuSans-2212"/>
       <use xlink:href="#DejaVuSans-30" x="83.789062"/>
       <use xlink:href="#DejaVuSans-2e" x="147.412109"/>
       <use xlink:href="#DejaVuSans-30" x="179.199219"/>
       <use xlink:href="#DejaVuSans-38" x="242.822266"/>
      </g>
     </g>
    </g>
    <g id="xtick_2">
     <g id="line2d_2">
      <g>
       <use xlink:href="#m94da070ba2" x="164.124368" y="307.584" style="stroke: #000000; stroke-width: 0.8"/>
      </g>
     </g>
     <g id="text_2">
      <!-- −0.07 -->
      <g transform="translate(148.801712 322.182437) scale(0.1 -0.1)">
       <defs>
        <path id="DejaVuSans-37" d="M 525 4666 
L 3525 4666 
L 3525 4397 
L 1831 0 
L 1172 0 
L 2766 4134 
L 525 4134 
L 525 4666 
z
" transform="scale(0.015625)"/>
       </defs>
       <use xlink:href="#DejaVuSans-2212"/>
       <use xlink:href="#DejaVuSans-30" x="83.789062"/>
       <use xlink:href="#DejaVuSans-2e" x="147.412109"/>
       <use xlink:href="#DejaVuSans-30" x="179.199219"/>
       <use xlink:href="#DejaVuSans-37" x="242.822266"/>
      </g>
     </g>
    </g>
    <g id="xtick_3">
     <g id="line2d_3">
      <g>
       <use xlink:href="#m94da070ba2" x="203.295762" y="307.584" style="stroke: #000000; stroke-width: 0.8"/>
      </g>
     </g>
     <g id="text_3">
      <!-- −0.06 -->
      <g transform="translate(187.973105 322.182437) scale(0.1 -0.1)">
       <defs>
        <path id="DejaVuSans-36" d="M 2113 2584 
Q 1688 2584 1439 2293 
Q 1191 2003 1191 1497 
Q 1191 994 1439 701 
Q 1688 409 2113 409 
Q 2538 409 2786 701 
Q 3034 994 3034 1497 
Q 3034 2003 2786 2293 
Q 2538 2584 2113 2584 
z
M 3366 4563 
L 3366 3988 
Q 3128 4100 2886 4159 
Q 2644 4219 2406 4219 
Q 1781 4219 1451 3797 
Q 1122 3375 1075 2522 
Q 1259 2794 1537 2939 
Q 1816 3084 2150 3084 
Q 2853 3084 3261 2657 
Q 3669 2231 3669 1497 
Q 3669 778 3244 343 
Q 2819 -91 2113 -91 
Q 1303 -91 875 529 
Q 447 1150 447 2328 
Q 447 3434 972 4092 
Q 1497 4750 2381 4750 
Q 2619 4750 2861 4703 
Q 3103 4656 3366 4563 
z
" transform="scale(0.015625)"/>
       </defs>
       <use xlink:href="#DejaVuSans-2212"/>
       <use xlink:href="#DejaVuSans-30" x="83.789062"/>
       <use xlink:href="#DejaVuSans-2e" x="147.412109"/>
       <use xlink:href="#DejaVuSans-30" x="179.199219"/>
       <use xlink:href="#DejaVuSans-36" x="242.822266"/>
      </g>
     </g>
    </g>
    <g id="xtick_4">
     <g id="line2d_4">
      <g>
       <use xlink:href="#m94da070ba2" x="242.467155" y="307.584" style="stroke: #000000; stroke-width: 0.8"/>
      </g>
     </g>
     <g id="text_4">
      <!-- −0.05 -->
      <g transform="translate(227.144499 322.182437) scale(0.1 -0.1)">
       <defs>
        <path id="DejaVuSans-35" d="M 691 4666 
L 3169 4666 
L 3169 4134 
L 1269 4134 
L 1269 2991 
Q 1406 3038 1543 3061 
Q 1681 3084 1819 3084 
Q 2600 3084 3056 2656 
Q 3513 2228 3513 1497 
Q 3513 744 3044 326 
Q 2575 -91 1722 -91 
Q 1428 -91 1123 -41 
Q 819 9 494 109 
L 494 744 
Q 775 591 1075 516 
Q 1375 441 1709 441 
Q 2250 441 2565 725 
Q 2881 1009 2881 1497 
Q 2881 1984 2565 2268 
Q 2250 2553 1709 2553 
Q 1456 2553 1204 2497 
Q 953 2441 691 2322 
L 691 4666 
z
" transform="scale(0.015625)"/>
       </defs>
       <use xlink:href="#DejaVuSans-2212"/>
       <use xlink:href="#DejaVuSans-30" x="83.789062"/>
       <use xlink:href="#DejaVuSans-2e" x="147.412109"/>
       <use xlink:href="#DejaVuSans-30" x="179.199219"/>
       <use xlink:href="#DejaVuSans-35" x="242.822266"/>
      </g>
     </g>
    </g>
    <g id="xtick_5">
     <g id="line2d_5">
      <g>
       <use xlink:href="#m94da070ba2" x="281.638549" y="307.584" style="stroke: #000000; stroke-width: 0.8"/>
      </g>
     </g>
     <g id="text_5">
      <!-- −0.04 -->
      <g transform="translate(266.315893 322.182437) scale(0.1 -0.1)">
       <defs>
        <path id="DejaVuSans-34" d="M 2419 4116 
L 825 1625 
L 2419 1625 
L 2419 4116 
z
M 2253 4666 
L 3047 4666 
L 3047 1625 
L 3713 1625 
L 3713 1100 
L 3047 1100 
L 3047 0 
L 2419 0 
L 2419 1100 
L 313 1100 
L 313 1709 
L 2253 4666 
z
" transform="scale(0.015625)"/>
       </defs>
       <use xlink:href="#DejaVuSans-2212"/>
       <use xlink:href="#DejaVuSans-30" x="83.789062"/>
       <use xlink:href="#DejaVuSans-2e" x="147.412109"/>
       <use xlink:href="#DejaVuSans-30" x="179.199219"/>
       <use xlink:href="#DejaVuSans-34" x="242.822266"/>
      </g>
     </g>
    </g>
    <g id="xtick_6">
     <g id="line2d_6">
      <g>
       <use xlink:href="#m94da070ba2" x="320.809942" y="307.584" style="stroke: #000000; stroke-width: 0.8"/>
      </g>
     </g>
     <g id="text_6">
      <!-- −0.03 -->
      <g transform="translate(305.487286 322.182437) scale(0.1 -0.1)">
       <defs>
        <path id="DejaVuSans-33" d="M 2597 2516 
Q 3050 2419 3304 2112 
Q 3559 1806 3559 1356 
Q 3559 666 3084 287 
Q 2609 -91 1734 -91 
Q 1441 -91 1130 -33 
Q 819 25 488 141 
L 488 750 
Q 750 597 1062 519 
Q 1375 441 1716 441 
Q 2309 441 2620 675 
Q 2931 909 2931 1356 
Q 2931 1769 2642 2001 
Q 2353 2234 1838 2234 
L 1294 2234 
L 1294 2753 
L 1863 2753 
Q 2328 2753 2575 2939 
Q 2822 3125 2822 3475 
Q 2822 3834 2567 4026 
Q 2313 4219 1838 4219 
Q 1578 4219 1281 4162 
Q 984 4106 628 3988 
L 628 4550 
Q 988 4650 1302 4700 
Q 1616 4750 1894 4750 
Q 2613 4750 3031 4423 
Q 3450 4097 3450 3541 
Q 3450 3153 3228 2886 
Q 3006 2619 2597 2516 
z
" transform="scale(0.015625)"/>
       </defs>
       <use xlink:href="#DejaVuSans-2212"/>
       <use xlink:href="#DejaVuSans-30" x="83.789062"/>
       <use xlink:href="#DejaVuSans-2e" x="147.412109"/>
       <use xlink:href="#DejaVuSans-30" x="179.199219"/>
       <use xlink:href="#DejaVuSans-33" x="242.822266"/>
      </g>
     </g>
    </g>
    <g id="xtick_7">
     <g id="line2d_7">
      <g>
       <use xlink:href="#m94da070ba2" x="359.981336" y="307.584" style="stroke: #000000; stroke-width: 0.8"/>
      </g>
     </g>
     <g id="text_7">
      <!-- −0.02 -->
      <g transform="translate(344.65868 322.182437) scale(0.1 -0.1)">
       <defs>
        <path id="DejaVuSans-32" d="M 1228 531 
L 3431 531 
L 3431 0 
L 469 0 
L 469 531 
Q 828 903 1448 1529 
Q 2069 2156 2228 2338 
Q 2531 2678 2651 2914 
Q 2772 3150 2772 3378 
Q 2772 3750 2511 3984 
Q 2250 4219 1831 4219 
Q 1534 4219 1204 4116 
Q 875 4013 500 3803 
L 500 4441 
Q 881 4594 1212 4672 
Q 1544 4750 1819 4750 
Q 2544 4750 2975 4387 
Q 3406 4025 3406 3419 
Q 3406 3131 3298 2873 
Q 3191 2616 2906 2266 
Q 2828 2175 2409 1742 
Q 1991 1309 1228 531 
z
" transform="scale(0.015625)"/>
       </defs>
       <use xlink:href="#DejaVuSans-2212"/>
       <use xlink:href="#DejaVuSans-30" x="83.789062"/>
       <use xlink:href="#DejaVuSans-2e" x="147.412109"/>
       <use xlink:href="#DejaVuSans-30" x="179.199219"/>
       <use xlink:href="#DejaVuSans-32" x="242.822266"/>
      </g>
     </g>
    </g>
    <g id="text_8">
     <!-- −1.001e2 -->
     <g transform="translate(316.653975 334.860562) scale(0.1 -0.1)">
      <defs>
       <path id="DejaVuSans-31" d="M 794 531 
L 1825 531 
L 1825 4091 
L 703 3866 
L 703 4441 
L 1819 4666 
L 2450 4666 
L 2450 531 
L 3481 531 
L 3481 0 
L 794 0 
L 794 531 
z
" transform="scale(0.015625)"/>
       <path id="DejaVuSans-65" d="M 3597 1894 
L 3597 1613 
L 953 1613 
Q 991 1019 1311 708 
Q 1631 397 2203 397 
Q 2534 397 2845 478 
Q 3156 559 3463 722 
L 3463 178 
Q 3153 47 2828 -22 
Q 2503 -91 2169 -91 
Q 1331 -91 842 396 
Q 353 884 353 1716 
Q 353 2575 817 3079 
Q 1281 3584 2069 3584 
Q 2775 3584 3186 3129 
Q 3597 2675 3597 1894 
z
M 3022 2063 
Q 3016 2534 2758 2815 
Q 2500 3097 2075 3097 
Q 1594 3097 1305 2825 
Q 1016 2553 972 2059 
L 3022 2063 
z
" transform="scale(0.015625)"/>
      </defs>
      <use xlink:href="#DejaVuSans-2212"/>
      <use xlink:href="#DejaVuSans-31" x="83.789062"/>
      <use xlink:href="#DejaVuSans-2e" x="147.412109"/>
      <use xlink:href="#DejaVuSans-30" x="179.199219"/>
      <use xlink:href="#DejaVuSans-30" x="242.822266"/>
      <use xlink:href="#DejaVuSans-31" x="306.445312"/>
      <use xlink:href="#DejaVuSans-65" x="370.068359"/>
      <use xlink:href="#DejaVuSans-32" x="431.591797"/>
     </g>
    </g>
   </g>
   <g id="matplotlib.axis_2">
    <g id="ytick_1">
     <g id="line2d_8">
      <defs>
       <path id="mf42415a39b" d="M 0 0 
L -3.5 0 
" style="stroke: #000000; stroke-width: 0.8"/>
      </defs>
      <g>
       <use xlink:href="#mf42415a39b" x="106.142588" y="281.687343" style="stroke: #000000; stroke-width: 0.8"/>
      </g>
     </g>
     <g id="text_9">
      <!-- 19.17 -->
      <g transform="translate(70.514463 285.486562) scale(0.1 -0.1)">
       <defs>
        <path id="DejaVuSans-39" d="M 703 97 
L 703 672 
Q 941 559 1184 500 
Q 1428 441 1663 441 
Q 2288 441 2617 861 
Q 2947 1281 2994 2138 
Q 2813 1869 2534 1725 
Q 2256 1581 1919 1581 
Q 1219 1581 811 2004 
Q 403 2428 403 3163 
Q 403 3881 828 4315 
Q 1253 4750 1959 4750 
Q 2769 4750 3195 4129 
Q 3622 3509 3622 2328 
Q 3622 1225 3098 567 
Q 2575 -91 1691 -91 
Q 1453 -91 1209 -44 
Q 966 3 703 97 
z
M 1959 2075 
Q 2384 2075 2632 2365 
Q 2881 2656 2881 3163 
Q 2881 3666 2632 3958 
Q 2384 4250 1959 4250 
Q 1534 4250 1286 3958 
Q 1038 3666 1038 3163 
Q 1038 2656 1286 2365 
Q 1534 2075 1959 2075 
z
" transform="scale(0.015625)"/>
       </defs>
       <use xlink:href="#DejaVuSans-31"/>
       <use xlink:href="#DejaVuSans-39" x="63.623047"/>
       <use xlink:href="#DejaVuSans-2e" x="127.246094"/>
       <use xlink:href="#DejaVuSans-31" x="159.033203"/>
       <use xlink:href="#DejaVuSans-37" x="222.65625"/>
      </g>
     </g>
    </g>
    <g id="ytick_2">
     <g id="line2d_9">
      <g>
       <use xlink:href="#mf42415a39b" x="106.142588" y="240.209388" style="stroke: #000000; stroke-width: 0.8"/>
      </g>
     </g>
     <g id="text_10">
      <!-- 19.18 -->
      <g transform="translate(70.514463 244.008607) scale(0.1 -0.1)">
       <use xlink:href="#DejaVuSans-31"/>
       <use xlink:href="#DejaVuSans-39" x="63.623047"/>
       <use xlink:href="#DejaVuSans-2e" x="127.246094"/>
       <use xlink:href="#DejaVuSans-31" x="159.033203"/>
       <use xlink:href="#DejaVuSans-38" x="222.65625"/>
      </g>
     </g>
    </g>
    <g id="ytick_3">
     <g id="line2d_10">
      <g>
       <use xlink:href="#mf42415a39b" x="106.142588" y="198.731434" style="stroke: #000000; stroke-width: 0.8"/>
      </g>
     </g>
     <g id="text_11">
      <!-- 19.19 -->
      <g transform="translate(70.514463 202.530653) scale(0.1 -0.1)">
       <use xlink:href="#DejaVuSans-31"/>
       <use xlink:href="#DejaVuSans-39" x="63.623047"/>
       <use xlink:href="#DejaVuSans-2e" x="127.246094"/>
       <use xlink:href="#DejaVuSans-31" x="159.033203"/>
       <use xlink:href="#DejaVuSans-39" x="222.65625"/>
      </g>
     </g>
    </g>
    <g id="ytick_4">
     <g id="line2d_11">
      <g>
       <use xlink:href="#mf42415a39b" x="106.142588" y="157.253479" style="stroke: #000000; stroke-width: 0.8"/>
      </g>
     </g>
     <g id="text_12">
      <!-- 19.20 -->
      <g transform="translate(70.514463 161.052698) scale(0.1 -0.1)">
       <use xlink:href="#DejaVuSans-31"/>
       <use xlink:href="#DejaVuSans-39" x="63.623047"/>
       <use xlink:href="#DejaVuSans-2e" x="127.246094"/>
       <use xlink:href="#DejaVuSans-32" x="159.033203"/>
       <use xlink:href="#DejaVuSans-30" x="222.65625"/>
      </g>
     </g>
    </g>
    <g id="ytick_5">
     <g id="line2d_12">
      <g>
       <use xlink:href="#mf42415a39b" x="106.142588" y="115.775525" style="stroke: #000000; stroke-width: 0.8"/>
      </g>
     </g>
     <g id="text_13">
      <!-- 19.21 -->
      <g transform="translate(70.514463 119.574744) scale(0.1 -0.1)">
       <use xlink:href="#DejaVuSans-31"/>
       <use xlink:href="#DejaVuSans-39" x="63.623047"/>
       <use xlink:href="#DejaVuSans-2e" x="127.246094"/>
       <use xlink:href="#DejaVuSans-32" x="159.033203"/>
       <use xlink:href="#DejaVuSans-31" x="222.65625"/>
      </g>
     </g>
    </g>
    <g id="ytick_6">
     <g id="line2d_13">
      <g>
       <use xlink:href="#mf42415a39b" x="106.142588" y="74.29757" style="stroke: #000000; stroke-width: 0.8"/>
      </g>
     </g>
     <g id="text_14">
      <!-- 19.22 -->
      <g transform="translate(70.514463 78.096789) scale(0.1 -0.1)">
       <use xlink:href="#DejaVuSans-31"/>
       <use xlink:href="#DejaVuSans-39" x="63.623047"/>
       <use xlink:href="#DejaVuSans-2e" x="127.246094"/>
       <use xlink:href="#DejaVuSans-32" x="159.033203"/>
       <use xlink:href="#DejaVuSans-32" x="222.65625"/>
      </g>
     </g>
    </g>
   </g>
   <g id="patch_3">
    <path d="M 106.142588 307.584 
L 106.142588 41.472 
" style="fill: none; stroke: #000000; stroke-width: 0.8; stroke-linejoin: miter; stroke-linecap: square"/>
   </g>
   <g id="patch_4">
    <path d="M 366.177412 307.584 
L 366.177412 41.472 
" style="fill: none; stroke: #000000; stroke-width: 0.8; stroke-linejoin: miter; stroke-linecap: square"/>
   </g>
   <g id="patch_5">
    <path d="M 106.142588 307.584 
L 366.177412 307.584 
" style="fill: none; stroke: #000000; stroke-width: 0.8; stroke-linejoin: miter; stroke-linecap: square"/>
   </g>
   <g id="patch_6">
    <path d="M 106.142588 41.472 
L 366.177412 41.472 
" style="fill: none; stroke: #000000; stroke-width: 0.8; stroke-linejoin: miter; stroke-linecap: square"/>
   </g>
  </g>
 </g>
 <defs>
  <clipPath id="p803a23f416">
   <rect x="106.142588" y="41.472" width="260.034825" height="266.112"/>
  </clipPath>
 </defs>
</svg>
