<?xml version="1.0" encoding="utf-8" standalone="no"?>
<!DOCTYPE svg PUBLIC "-//W3C//DTD SVG 1.1//EN"
  "http://www.w3.org/Graphics/SVG/1.1/DTD/svg11.dtd">
<svg xmlns:xlink="http://www.w3.org/1999/xlink" width="460.8pt" height="345.6pt" viewBox="0 0 460.8 345.6" xmlns="http://www.w3.org/2000/svg" version="1.1">
 <metadata>
  <rdf:RDF xmlns:dc="http://purl.org/dc/elements/1.1/" xmlns:cc="http://creativecommons.org/ns#" xmlns:rdf="http://www.w3.org/1999/02/22-rdf-syntax-ns#">
   <cc:Work>
    <dc:type rdf:resource="http://purl.org/dc/dcmitype/StillImage"/>
    <dc:date>2024-03-04T19:42:41.388461</dc:date>
    <dc:format>image/svg+xml</dc:format>
    <dc:creator>
     <cc:Agent>
      <dc:title>Matplotlib v3.8.0, https://matplotlib.org/</dc:title>
     </cc:Agent>
    </dc:creator>
   </cc:Work>
  </rdf:RDF>
 </metadata>
 <defs>
  <style type="text/css">*{stroke-linejoin: round; stroke-linecap: butt}</style>
 </defs>
 <g id="figure_1">
  <g id="patch_1">
   <path d="M 0 345.6 
L 460.8 345.6 
L 460.8 0 
L 0 0 
z
" style="fill: #ffffff"/>
  </g>
  <g id="axes_1">
   <g id="patch_2">
    <path d="M 106.141267 307.584 
L 366.178733 307.584 
L 366.178733 41.472 
L 106.141267 41.472 
z
" style="fill: #ffffff"/>
   </g>
   <g id="PatchCollection_1">
    <path d="M 142.681992 158.640739 
L 142.224898 157.582834 
L 141.07856 157.462447 
L 140.621461 156.404541 
L 141.310705 155.46702 
L 140.853605 154.409112 
L 139.707258 154.288725 
L 139.250153 153.230815 
L 139.939399 152.293292 
L 139.482293 151.23538 
L 138.335937 151.114993 
L 137.878826 150.05708 
L 138.568075 149.119553 
L 138.110963 148.061638 
L 136.964598 147.941251 
L 136.507481 146.883335 
L 135.361111 146.762949 
L 134.903989 145.705032 
L 135.593241 144.767499 
L 135.136118 143.709579 
L 133.989739 143.589194 
L 133.532611 142.531273 
L 132.386227 142.410889 
L 131.929094 141.352967 
L 130.782706 141.232585 
L 130.325568 140.174662 
L 129.179175 140.054282 
L 128.722032 138.996357 
L 127.575633 138.875979 
L 127.118485 137.818053 
L 125.972082 137.697677 
L 125.514929 136.63975 
L 124.368521 136.519375 
L 123.911363 135.461447 
L 122.764951 135.341074 
L 122.307788 134.283145 
L 122.997041 133.345588 
L 122.539877 132.287657 
L 121.393456 132.167284 
L 120.936287 131.109352 
L 119.78986 130.98898 
L 119.332686 129.931047 
L 120.021942 128.993484 
L 119.564767 127.935548 
L 118.418332 127.815177 
L 117.961152 126.75724 
L 118.650411 125.819674 
L 118.193229 124.761735 
L 118.882491 123.824169 
L 118.425308 122.766227 
L 119.114573 121.828661 
L 118.657389 120.770717 
L 119.346657 119.83315 
L 120.493108 119.953529 
L 121.182378 119.015964 
L 120.725197 117.958017 
L 121.41447 117.020452 
L 120.957288 115.962503 
L 121.646564 115.024938 
L 122.793022 115.145324 
L 123.482301 114.207761 
L 123.025122 113.149809 
L 123.714403 112.212245 
L 123.257223 111.154291 
L 123.946507 110.216727 
L 125.092972 110.33712 
L 125.782259 109.399559 
L 125.325082 108.341601 
L 126.014372 107.404039 
L 127.16084 107.524438 
L 127.850133 106.586878 
L 127.392958 105.528917 
L 128.082253 104.591357 
L 127.625077 103.533394 
L 128.314376 102.595834 
L 129.460851 102.71624 
L 130.150152 101.778682 
L 131.296626 101.899091 
L 131.985931 100.961536 
L 133.132403 101.081949 
L 133.821711 100.144396 
L 134.968183 100.264813 
L 135.657493 99.327262 
L 136.803964 99.447683 
L 137.493277 98.510135 
L 138.639747 98.630558 
L 139.329063 97.693013 
L 140.475532 97.81344 
L 141.164851 96.875897 
L 142.311319 96.996328 
L 143.000641 96.058788 
L 144.147108 96.179222 
L 144.836433 95.241684 
L 145.982899 95.362122 
L 146.440037 96.420096 
L 147.586499 96.540536 
L 148.275826 95.603003 
L 149.422287 95.723446 
L 149.879416 96.78142 
L 151.025871 96.901865 
L 151.715202 95.964338 
L 152.861656 96.084787 
L 153.55099 95.147262 
L 154.697444 95.267714 
L 155.15456 96.325689 
L 156.301009 96.446143 
L 156.990345 95.508623 
L 158.136793 95.629081 
L 158.5939 96.687055 
L 159.740343 96.807515 
L 160.429683 95.870001 
L 161.576125 95.990463 
L 162.033224 97.048438 
L 163.179661 97.168902 
L 163.869003 96.231394 
L 165.015439 96.351862 
L 165.472529 97.409837 
L 166.61896 97.530306 
L 167.308306 96.592803 
L 168.454736 96.713276 
L 169.144085 95.775775 
L 170.290514 95.896252 
L 170.747591 96.954228 
L 171.894016 97.074706 
L 172.583367 96.137211 
L 173.729791 96.257693 
L 174.186859 97.315669 
L 175.333278 97.436153 
L 176.022632 96.498663 
L 177.16905 96.61915 
L 177.626109 97.677126 
L 178.772522 97.797615 
L 179.461879 96.86013 
L 180.608291 96.980623 
L 181.065342 98.038598 
L 182.211749 98.159093 
L 182.901109 97.221613 
L 184.047515 97.342111 
L 184.504557 98.400087 
L 185.650958 98.520586 
L 186.340321 97.583112 
L 187.486722 97.703616 
L 187.943755 98.761591 
L 189.09015 98.882096 
L 189.779516 97.944628 
L 190.925911 98.065136 
L 191.382935 99.123111 
L 192.529324 99.243622 
L 193.218694 98.306159 
L 194.365082 98.426672 
L 195.054454 97.489212 
L 196.200842 97.609729 
L 196.890217 96.672271 
L 198.036604 96.792792 
L 198.725982 95.855336 
L 199.872367 95.97586 
L 200.561748 95.038407 
L 201.708133 95.158935 
L 202.397517 94.221484 
L 203.543901 94.342016 
L 204.233287 93.404568 
L 205.37967 93.525103 
L 206.06906 92.587657 
L 207.215442 92.708196 
L 207.904834 91.770752 
L 209.051215 91.891295 
L 209.740611 90.953854 
L 210.88699 91.074399 
L 211.576389 90.136961 
L 212.722768 90.25751 
L 213.412169 89.320074 
L 214.558547 89.440627 
L 215.247951 88.503194 
L 216.394328 88.62375 
L 217.083735 87.686319 
L 218.230111 87.806879 
L 218.687077 88.864869 
L 219.833448 88.985431 
L 220.522858 88.048005 
L 221.669228 88.16857 
L 222.358641 87.231147 
L 223.50501 87.351716 
L 224.194426 86.414295 
L 223.737473 85.356303 
L 224.426891 84.418882 
L 223.969936 83.360887 
L 224.659358 82.423466 
L 224.202402 81.365469 
L 224.891826 80.428047 
L 224.434869 79.370048 
L 225.124296 78.432625 
L 226.27068 78.553205 
L 226.96011 77.615785 
L 226.503156 76.557783 
L 227.192588 75.620362 
L 226.735633 74.562358 
L 227.425068 73.624937 
L 226.968112 72.56693 
L 227.65755 71.629509 
L 228.803945 71.750098 
L 229.493386 70.812679 
L 230.63978 70.933272 
L 231.329224 69.995856 
L 232.475617 70.116451 
L 233.165064 69.179038 
L 234.311457 69.299637 
L 235.000906 68.362226 
L 236.147298 68.482829 
L 236.83675 67.54542 
L 237.983141 67.666027 
L 238.672596 66.728621 
L 239.818986 66.849231 
L 240.508444 65.911827 
L 241.654833 66.032441 
L 242.344294 65.095039 
L 243.490681 65.215657 
L 244.180146 64.278258 
L 245.326532 64.398879 
L 246.015999 63.461482 
L 247.162385 63.582107 
L 247.851855 62.644713 
L 248.998239 62.765341 
L 249.687713 61.82795 
L 250.834096 61.948581 
L 251.523572 61.011192 
L 252.669955 61.131827 
L 253.359433 60.194441 
L 254.505815 60.315079 
L 255.195297 59.377695 
L 256.341677 59.498338 
L 257.031162 58.560956 
L 258.177542 58.681602 
L 258.634433 59.739627 
L 259.780808 59.860274 
L 260.470295 58.922898 
L 261.616669 59.043549 
L 262.30616 58.106176 
L 263.452533 58.22683 
L 264.142026 57.289459 
L 265.288398 57.410117 
L 265.977894 56.472749 
L 267.124265 56.59341 
L 267.813764 55.656044 
L 268.960134 55.77671 
L 269.649637 54.839346 
L 270.796006 54.960015 
L 271.252869 56.018045 
L 272.399233 56.138716 
L 273.088738 55.201357 
L 274.235101 55.322031 
L 274.924609 54.384676 
L 276.070971 54.505353 
L 276.760482 53.568 
L 277.906844 53.688681 
L 278.36369 54.746714 
L 279.510047 54.867396 
L 280.19956 53.930049 
L 281.345916 54.050735 
L 281.802753 55.108767 
L 282.949104 55.229456 
L 283.405937 56.287487 
L 284.552282 56.408177 
L 285.241799 55.470837 
L 286.388144 55.591531 
L 286.844968 56.649562 
L 287.991308 56.770257 
L 288.448127 57.828287 
L 289.594462 57.948984 
L 290.283982 57.011653 
L 291.430316 57.132353 
L 291.887126 58.190383 
L 293.033455 58.311085 
L 293.49026 59.369114 
L 294.636584 59.489818 
L 295.093384 60.547846 
L 296.239703 60.668551 
L 296.929226 59.731231 
L 298.075545 59.85194 
L 298.532336 60.909968 
L 299.67865 61.030679 
L 300.135436 62.088705 
L 301.281744 62.209418 
L 301.738526 63.267443 
L 302.884829 63.388158 
L 303.341606 64.446182 
L 304.487904 64.566898 
L 304.944676 65.624921 
L 306.09097 65.745639 
L 306.780496 64.808336 
L 307.926789 64.929057 
L 308.383552 65.98708 
L 309.52984 66.107803 
L 309.986597 67.165825 
L 311.13288 67.28655 
L 311.589633 68.34457 
L 312.735911 68.465297 
L 313.192659 69.523317 
L 314.338932 69.644045 
L 314.795675 70.702063 
L 315.941943 70.822793 
L 316.631473 69.885507 
L 317.77774 70.006241 
L 318.234474 71.064259 
L 319.380736 71.184995 
L 319.837465 72.243012 
L 320.983723 72.363749 
L 321.440447 73.421765 
L 320.750917 74.359042 
L 319.604663 74.238307 
L 318.915136 75.175587 
L 317.768881 75.054855 
L 317.079357 75.992138 
L 317.536088 77.050149 
L 316.846566 77.987431 
L 315.700315 77.866705 
L 315.010796 78.80399 
L 315.467529 79.861998 
L 314.778014 80.799282 
L 313.631765 80.678561 
L 312.942252 81.615848 
L 313.398988 82.673853 
L 312.709478 83.611139 
L 311.563232 83.490423 
L 310.873725 84.427712 
L 309.727478 84.307 
L 309.037974 85.244291 
L 309.494717 86.302292 
L 308.805215 87.239583 
L 307.658972 87.118876 
L 306.969473 88.056169 
L 307.426218 89.114167 
L 306.736723 90.05146 
L 305.590482 89.930758 
L 304.900989 90.868054 
L 303.754747 90.747356 
L 303.065257 91.684654 
L 303.522009 92.742647 
L 302.832522 93.679944 
L 301.686283 93.559252 
L 300.996799 94.496552 
L 301.453554 95.554541 
L 300.764072 96.491841 
L 299.617836 96.371154 
L 298.928358 97.308456 
L 297.782121 97.187772 
L 297.325359 96.129785 
L 296.179117 96.009103 
L 295.489642 96.946411 
L 294.343399 96.825732 
L 293.653927 97.763042 
L 292.507683 97.642368 
L 291.818213 98.57968 
L 290.671969 98.459009 
L 289.982502 99.396324 
L 288.836257 99.275656 
L 288.146793 100.212974 
L 287.000546 100.09231 
L 286.54376 99.034326 
L 285.397508 98.913664 
L 284.708048 99.850987 
L 283.561795 99.730328 
L 282.872337 100.667653 
L 281.726084 100.546998 
L 281.036629 101.484326 
L 281.493427 102.542306 
L 280.803974 103.479633 
L 281.260771 104.537611 
L 282.407016 104.658263 
L 282.863808 105.716239 
L 282.174359 106.653563 
L 282.631149 107.711538 
L 281.941702 108.648861 
L 282.398492 109.706833 
L 283.544725 109.827483 
L 284.001509 110.885454 
L 283.312065 111.822774 
L 283.768849 112.880743 
L 284.915072 113.001393 
L 285.371851 114.05936 
L 284.682409 114.996677 
L 285.139187 116.054643 
L 284.449748 116.991959 
L 284.906524 118.049923 
L 286.052735 118.17057 
L 286.509507 119.228532 
L 285.820071 120.165846 
L 286.276841 121.223805 
L 285.587408 122.161118 
L 286.044177 123.219076 
L 285.354747 124.156388 
L 285.811514 125.214344 
L 285.122087 126.151656 
L 285.578854 127.209609 
L 286.725044 127.330251 
L 287.181806 128.388203 
L 286.492381 129.325512 
L 286.949142 130.383462 
L 286.25972 131.32077 
L 286.716479 132.378718 
L 286.02706 133.316025 
L 286.483819 134.373971 
L 285.794402 135.311278 
L 286.251159 136.369221 
L 285.561746 137.306529 
L 286.018502 138.364469 
L 285.329091 139.301776 
L 285.785846 140.359715 
L 285.096438 141.297021 
L 285.553192 142.354957 
L 284.863787 143.292263 
L 285.32054 144.350197 
L 284.631138 145.287503 
L 283.484983 145.166877 
L 282.795583 146.104185 
L 281.649427 145.983563 
L 281.192667 144.925631 
L 280.046506 144.80501 
L 279.589741 143.747077 
L 278.443575 143.626459 
L 277.754179 144.563775 
L 276.608012 144.44316 
L 276.151238 143.385226 
L 275.005066 143.264613 
L 274.548287 142.206679 
L 273.40211 142.086067 
L 272.945326 141.028131 
L 271.799145 140.907521 
L 271.109752 141.844849 
L 269.963569 141.724242 
L 269.506776 140.666307 
L 268.360589 140.545702 
L 267.903791 139.487765 
L 266.757599 139.367162 
L 266.068209 140.304498 
L 264.922016 140.183898 
L 264.465209 139.125962 
L 263.319011 139.005364 
L 262.862199 137.947426 
L 261.715997 137.82683 
L 261.25918 136.768891 
L 260.112972 136.648297 
L 259.423585 137.585643 
L 258.277376 137.465053 
L 257.820551 136.407113 
L 256.674337 136.286525 
L 256.217507 135.228584 
L 255.071288 135.107997 
L 254.381904 136.045352 
L 253.235685 135.924768 
L 252.546304 136.862126 
L 253.003142 137.920064 
L 252.313764 138.857421 
L 252.770601 139.915357 
L 252.081226 140.852714 
L 250.935013 140.732138 
L 250.245641 141.669497 
L 250.70248 142.72743 
L 250.013111 143.664788 
L 250.469949 144.722719 
L 249.780583 145.660077 
L 248.634377 145.539508 
L 247.945013 146.476869 
L 248.401854 147.534796 
L 247.712493 148.472157 
L 248.169334 149.530082 
L 249.315531 149.650647 
L 249.772367 150.708571 
L 250.918559 150.829138 
L 251.607921 149.891784 
L 252.754113 150.012355 
L 253.210939 151.070278 
L 254.357126 151.190851 
L 255.046491 150.253502 
L 256.192677 150.374078 
L 256.649494 151.432001 
L 257.795675 151.552579 
L 258.485043 150.615235 
L 259.631223 150.735817 
L 260.088032 151.793741 
L 261.234207 151.914324 
L 261.691011 152.972246 
L 262.837181 153.092831 
L 263.29398 154.150752 
L 264.440146 154.271339 
L 265.129516 153.334006 
L 266.275681 153.454597 
L 266.732471 154.512518 
L 267.878631 154.63311 
L 268.335416 155.69103 
L 269.481571 155.811623 
L 269.938351 156.869542 
L 271.084501 156.990138 
L 271.773874 156.052816 
L 272.920023 156.173415 
L 273.376794 157.231334 
L 274.522938 157.351935 
L 274.979705 158.409852 
L 276.125844 158.530455 
L 276.582605 159.588371 
L 277.728739 159.708975 
L 278.185496 160.766891 
L 279.331625 160.887497 
L 280.021002 159.950189 
L 281.16713 160.070799 
L 281.623878 161.128714 
L 282.770002 161.249325 
L 283.226744 162.307239 
L 284.372863 162.427852 
L 284.8296 163.485765 
L 285.975714 163.60638 
L 286.665094 162.669083 
L 287.811207 162.789701 
L 288.267936 163.847614 
L 287.578555 164.784908 
L 288.035283 165.842818 
L 287.345906 166.780111 
L 287.802632 167.83802 
L 288.948732 167.958636 
L 289.405454 169.016543 
L 288.716079 169.953833 
L 289.1728 171.011738 
L 290.318891 171.132354 
L 290.775606 172.190258 
L 290.086234 173.127545 
L 290.542949 174.185446 
L 291.689031 174.306063 
L 292.14574 175.363963 
L 291.456371 176.301246 
L 291.913079 177.359144 
L 293.059153 177.47976 
L 293.515856 178.537658 
L 292.82649 179.474937 
L 293.283192 180.532832 
L 294.429256 180.653448 
L 294.885954 181.711342 
L 296.032013 181.83196 
L 296.488706 182.889852 
L 297.63476 183.010472 
L 298.091448 184.068363 
L 299.237498 184.188984 
L 299.69418 185.246874 
L 300.840225 185.367497 
L 301.296902 186.425386 
L 302.442942 186.546011 
L 302.899614 187.603899 
L 304.04565 187.724525 
L 304.502317 188.782412 
L 303.812953 189.719671 
L 304.269619 190.777556 
L 305.415645 190.898182 
L 305.872307 191.956065 
L 307.018328 192.076693 
L 307.474984 193.134575 
L 308.621001 193.255205 
L 309.077652 194.313086 
L 310.223664 194.433718 
L 310.68031 195.491597 
L 311.826317 195.612231 
L 312.282958 196.670109 
L 313.42896 196.790744 
L 313.885597 197.848622 
L 315.031594 197.969258 
L 315.488225 199.027135 
L 316.634217 199.147773 
L 317.090844 200.205648 
L 318.236831 200.326289 
L 318.693452 201.384163 
L 319.839435 201.504804 
L 320.296051 202.562677 
L 321.442029 202.683321 
L 321.89864 203.741193 
L 321.209278 204.67842 
L 321.665888 205.736289 
L 322.811857 205.856933 
L 323.268462 206.914801 
L 324.414426 207.035446 
L 324.871026 208.093313 
L 324.181666 209.030534 
L 324.638265 210.088399 
L 325.78422 210.209044 
L 326.240815 211.266908 
L 327.386765 211.387555 
L 327.843354 212.445417 
L 328.989299 212.566066 
L 329.445883 213.623928 
L 328.756526 214.561139 
L 329.213109 215.618998 
L 330.359046 215.739647 
L 330.815624 216.797505 
L 331.961555 216.918155 
L 332.418128 217.976012 
L 331.728774 218.913218 
L 332.185346 219.971072 
L 333.331269 220.091722 
L 333.787836 221.149576 
L 334.933753 221.270228 
L 335.390315 222.32808 
L 336.536228 222.448734 
L 336.992785 223.506585 
L 336.303434 224.443781 
L 336.759989 225.50163 
L 337.905893 225.622284 
L 338.362444 226.680132 
L 339.508344 226.800787 
L 339.96489 227.858633 
L 339.27554 228.795824 
L 339.732085 229.853668 
L 340.877976 229.974323 
L 341.334515 231.032166 
L 342.480401 231.152823 
L 342.936936 232.210665 
L 342.247589 233.147849 
L 342.704123 234.205689 
L 343.85 234.326346 
L 344.306528 235.384185 
L 345.4524 235.504843 
L 345.908924 236.562681 
L 347.054791 236.683341 
L 347.51131 237.741177 
L 346.821965 238.678352 
L 347.278483 239.736186 
L 348.424341 239.856846 
L 348.880854 240.914679 
L 350.026707 241.035341 
L 350.483215 242.093173 
L 349.793873 243.030342 
L 350.25038 244.088171 
L 351.396224 244.208833 
L 351.852726 245.266661 
L 352.998565 245.387325 
L 353.455062 246.445152 
L 352.765723 247.382314 
L 353.222219 248.440139 
L 352.532883 249.377301 
L 352.989377 250.435124 
L 352.300044 251.372286 
L 352.756537 252.430106 
L 353.90236 252.550766 
L 354.358848 253.608585 
L 353.669518 254.545744 
L 354.126005 255.603561 
L 353.436678 256.540719 
L 353.893164 257.598534 
L 353.203839 258.535691 
L 353.660324 259.593504 
L 352.971002 260.530661 
L 353.427486 261.588471 
L 352.738166 262.525628 
L 353.194649 263.583436 
L 352.505333 264.520592 
L 352.961814 265.578398 
L 352.272501 266.515554 
L 352.728981 267.573358 
L 352.03967 268.510513 
L 350.893879 268.389868 
L 350.204571 269.327026 
L 350.661054 270.384826 
L 349.971749 271.321984 
L 350.428231 272.379782 
L 349.738929 273.316939 
L 348.593145 273.196301 
L 347.903845 274.133461 
L 348.36033 275.191255 
L 347.671033 276.128414 
L 346.525252 276.007782 
L 345.835958 276.944943 
L 344.690176 276.824314 
L 344.000885 277.761478 
L 342.855102 277.640853 
L 342.165814 278.578019 
L 341.02003 278.457397 
L 340.563529 277.399607 
L 339.41774 277.278987 
L 338.728455 278.216159 
L 337.582665 278.095542 
L 336.893383 279.032716 
L 335.747592 278.912103 
L 335.291079 277.854314 
L 334.145283 277.733702 
L 333.456004 278.670882 
L 332.310207 278.550274 
L 331.853686 277.492484 
L 330.707884 277.371878 
L 330.018608 278.309063 
L 328.872805 278.188461 
L 328.416274 277.130671 
L 327.270467 277.01007 
L 326.581193 277.947261 
L 325.435385 277.826663 
L 324.978845 276.768874 
L 323.833032 276.648278 
L 323.376488 275.590487 
L 322.230669 275.469893 
L 321.541399 276.407092 
L 320.39558 276.286501 
L 319.939027 275.22871 
L 318.793202 275.108122 
L 318.103935 276.045326 
L 316.95811 275.924741 
L 316.501548 274.86695 
L 315.355718 274.746366 
L 314.899151 273.688574 
L 313.753316 273.567992 
L 313.296744 272.510199 
L 312.150904 272.389619 
L 311.694327 271.331824 
L 310.548482 271.211246 
L 310.091901 270.15345 
L 308.946051 270.032874 
L 308.489464 268.975077 
L 307.343609 268.854502 
L 306.654346 269.791726 
L 305.50849 269.671155 
L 305.051894 268.613358 
L 303.906034 268.492789 
L 303.449433 267.43499 
L 302.303568 267.314423 
L 301.846962 266.256623 
L 300.701092 266.136057 
L 300.244482 265.078257 
L 299.098607 264.957693 
L 298.641991 263.899891 
L 297.496111 263.779328 
L 297.03949 262.721526 
L 295.893606 262.600965 
L 295.43698 261.543161 
L 294.29109 261.422602 
L 293.83446 260.364796 
L 292.688565 260.244239 
L 291.999305 261.181489 
L 290.853409 261.060935 
L 290.39677 260.00313 
L 289.250869 259.882578 
L 288.794225 258.824771 
L 287.64832 258.704221 
L 287.19167 257.646413 
L 286.04576 257.525865 
L 285.589106 256.468056 
L 284.443191 256.347509 
L 283.753934 257.284773 
L 282.608018 257.164229 
L 282.151354 256.10642 
L 281.005433 255.985879 
L 280.548765 254.928069 
L 279.402839 254.807529 
L 278.946166 253.749718 
L 277.800236 253.62918 
L 277.110982 254.566454 
L 275.96505 254.44592 
L 275.508368 253.388109 
L 274.362431 253.267576 
L 273.673181 254.204856 
L 274.129866 255.262666 
L 273.440618 256.199946 
L 272.294684 256.079418 
L 271.605439 257.016701 
L 272.062128 258.074507 
L 273.208057 258.195033 
L 273.664741 259.252839 
L 274.810666 259.373366 
L 275.267344 260.431171 
L 276.413264 260.5517 
L 276.869938 261.609503 
L 276.180695 262.546776 
L 276.637367 263.604578 
L 277.783279 263.725107 
L 278.239946 264.782907 
L 279.385852 264.903437 
L 279.842515 265.961236 
L 279.153275 266.898503 
L 279.609936 267.9563 
L 278.920699 268.893566 
L 279.377359 269.951361 
L 278.688124 270.888627 
L 279.144784 271.946419 
L 278.455552 272.883685 
L 278.91221 273.941474 
L 278.222981 274.87874 
L 278.679638 275.936527 
L 277.990412 276.873792 
L 276.844529 276.753272 
L 276.387869 275.695486 
L 275.241981 275.574968 
L 274.552758 276.512238 
L 273.406869 276.391723 
L 272.717649 277.328996 
L 271.57176 277.208485 
L 271.115087 276.150699 
L 269.969192 276.03019 
L 269.279975 276.967468 
L 268.13408 276.846962 
L 267.677398 275.789177 
L 266.531497 275.668672 
L 265.842283 276.605956 
L 264.696382 276.485455 
L 264.007171 277.422741 
L 262.861269 277.302244 
L 262.404574 276.24446 
L 261.258667 276.123964 
L 260.569459 277.061256 
L 259.423551 276.940764 
L 258.966847 275.882979 
L 257.820934 275.762489 
L 257.364226 274.704703 
L 256.218308 274.584215 
L 255.761594 273.526428 
L 256.450802 272.589128 
L 255.994088 271.531339 
L 254.848161 271.41085 
L 254.391441 270.35306 
L 253.24551 270.232573 
L 252.788785 269.174782 
L 251.642849 269.054297 
L 251.186119 267.996504 
L 250.040178 267.876021 
L 249.583444 266.818227 
L 250.272654 265.880915 
L 249.815918 264.823119 
L 248.669968 264.702636 
L 248.213228 263.644838 
L 247.067273 263.524357 
L 246.610527 262.466558 
L 245.464567 262.346079 
L 245.007816 261.288279 
L 245.697029 260.350958 
L 245.240278 259.293156 
L 244.094309 259.172676 
L 243.637552 258.114873 
L 244.326768 257.177549 
L 243.87001 256.119744 
L 242.724033 255.999264 
L 242.26727 254.941457 
L 242.956488 254.00413 
L 242.499724 252.946321 
L 243.188946 252.008993 
L 242.73218 250.951182 
L 241.58619 250.8307 
L 241.12942 249.772888 
L 241.818644 248.835556 
L 241.361873 247.777742 
L 240.215874 247.65726 
L 239.759098 246.599445 
L 240.448324 245.66211 
L 239.991547 244.604292 
L 238.845539 244.48381 
L 238.156313 245.421148 
L 237.010304 245.30067 
L 236.32108 246.23801 
L 236.777865 247.295825 
L 236.088644 248.233165 
L 234.942638 248.112692 
L 234.25342 249.050034 
L 233.107413 248.929564 
L 232.418198 249.866909 
L 232.87499 250.92472 
L 232.185777 251.862064 
L 231.039774 251.7416 
L 230.350564 252.678947 
L 229.204559 252.558486 
L 228.515353 253.495835 
L 228.972151 254.553642 
L 228.282947 255.490991 
L 227.136945 255.370535 
L 226.447745 256.307887 
L 225.301742 256.187435 
L 224.612544 257.124789 
L 225.069349 258.182591 
L 224.380153 259.119944 
L 223.234154 258.999498 
L 222.544961 259.936853 
L 223.001769 260.994653 
L 222.312579 261.932008 
L 222.769386 262.989805 
L 222.080199 263.92716 
L 220.934206 263.80672 
L 220.245022 264.744078 
L 220.701831 265.801871 
L 220.01265 266.739228 
L 218.86666 266.618794 
L 218.177482 267.556154 
L 218.634294 268.613944 
L 217.945119 269.551303 
L 216.799132 269.430874 
L 216.10996 270.368236 
L 216.566774 271.426023 
L 215.877604 272.363384 
L 216.334418 273.421168 
L 215.645251 274.358529 
L 214.499271 274.238108 
L 213.810107 275.175471 
L 214.266923 276.233252 
L 213.577762 277.170615 
L 214.034577 278.228394 
L 215.180549 278.348811 
L 215.637359 279.406589 
L 214.948201 280.343949 
L 215.40501 281.401724 
L 214.715854 282.339083 
L 215.172662 283.396857 
L 214.483509 284.334215 
L 214.940315 285.391987 
L 216.086271 285.5124 
L 216.543072 286.570171 
L 215.853922 287.507526 
L 216.310723 288.565294 
L 217.45667 288.685707 
L 217.913465 289.743474 
L 217.224318 290.680826 
L 217.681112 291.73859 
L 216.991967 292.675942 
L 217.448761 293.733704 
L 216.759619 294.671055 
L 215.613684 294.550647 
L 214.924545 295.488 
L 213.77861 295.367595 
L 213.321809 294.309835 
L 212.175868 294.189432 
L 211.486732 295.126791 
L 210.340791 295.006391 
L 209.883981 293.948631 
L 208.738034 293.828233 
L 208.28122 292.770472 
L 207.135268 292.650076 
L 206.678449 291.592313 
L 205.532493 291.471919 
L 205.075668 290.414155 
L 203.929707 290.293763 
L 203.472877 289.235998 
L 202.326911 289.115607 
L 201.870077 288.057841 
L 200.724106 287.937452 
L 200.267266 286.879685 
L 199.12129 286.759297 
L 198.664446 285.701529 
L 199.353581 284.764147 
L 198.896735 283.706377 
L 197.750751 283.585989 
L 197.2939 282.528217 
L 197.983038 281.590832 
L 197.526186 280.533058 
L 196.380193 280.412671 
L 195.923336 279.354896 
L 194.777337 279.23451 
L 194.320476 278.176734 
L 193.174473 278.056349 
L 192.717606 276.998572 
L 193.406746 276.061178 
L 192.949878 275.003398 
L 191.803866 274.883014 
L 191.346994 273.825233 
L 190.200977 273.704851 
L 189.744099 272.647069 
L 188.598077 272.526688 
L 188.141194 271.468905 
L 186.995168 271.348526 
L 186.53828 270.290742 
L 187.227423 269.353335 
L 186.770534 268.295549 
L 185.624498 268.17517 
L 185.167605 267.117382 
L 184.021564 266.997005 
L 183.564665 265.939216 
L 182.41862 265.81884 
L 181.961716 264.76105 
L 180.815666 264.640676 
L 180.358757 263.582885 
L 179.212702 263.462513 
L 178.755789 262.404721 
L 177.609729 262.28435 
L 177.15281 261.226557 
L 176.006745 261.106188 
L 175.549821 260.048394 
L 174.403752 259.928027 
L 173.946823 258.870231 
L 172.800749 258.749866 
L 172.343815 257.692069 
L 171.197735 257.571705 
L 170.740797 256.513907 
L 171.429942 255.576471 
L 170.973002 254.518671 
L 169.826914 254.398308 
L 169.369969 253.340506 
L 170.059116 252.403067 
L 169.60217 251.345263 
L 168.456073 251.2249 
L 167.999122 250.167095 
L 168.688273 249.229653 
L 168.231321 248.171845 
L 167.085215 248.051482 
L 166.628258 246.993673 
L 167.317411 246.056228 
L 166.860453 244.998417 
L 167.549608 244.060971 
L 167.092649 243.003159 
L 167.781808 242.065712 
L 167.324847 241.007897 
L 168.014008 240.07045 
L 167.557047 239.012633 
L 168.246211 238.075186 
L 167.789249 237.017366 
L 168.478415 236.079919 
L 168.021452 235.022097 
L 168.710621 234.084649 
L 168.253657 233.026825 
L 168.942829 232.089376 
L 168.485863 231.03155 
L 169.175038 230.094101 
L 168.718071 229.036273 
L 167.571925 228.915895 
L 167.114953 227.858065 
L 167.804131 226.920613 
L 167.347158 225.862781 
L 168.036339 224.925328 
L 167.579364 223.867494 
L 168.268548 222.930041 
L 167.811572 221.872205 
L 166.665409 221.751823 
L 166.208429 220.693985 
L 166.897615 219.756529 
L 166.440634 218.698689 
L 167.129823 217.761233 
L 166.67284 216.703391 
L 167.362032 215.765933 
L 166.905048 214.708089 
L 165.758869 214.587704 
L 165.30188 213.529858 
L 165.991075 212.592398 
L 165.534085 211.53455 
L 164.387896 211.414164 
L 163.930901 210.356316 
L 162.784708 210.235932 
L 162.327708 209.178082 
L 161.18151 209.0577 
L 160.724505 207.999849 
L 161.413702 207.062379 
L 160.956696 206.004526 
L 159.810489 205.884144 
L 159.353478 204.826289 
L 158.207266 204.705909 
L 157.75025 203.648053 
L 158.43945 202.710577 
L 157.982433 201.65272 
L 156.836212 201.532339 
L 156.37919 200.47448 
L 155.232965 200.354101 
L 154.775938 199.296241 
L 155.46514 198.358759 
L 155.008112 197.300897 
L 153.861877 197.180518 
L 153.404844 196.122654 
L 154.094049 195.185169 
L 153.637015 194.127303 
L 154.326223 193.189817 
L 153.869188 192.131949 
L 152.72294 192.011569 
L 152.2659 190.9537 
L 152.955111 190.01621 
L 152.498069 188.958339 
L 151.351813 188.837958 
L 150.894767 187.780086 
L 151.58398 186.842593 
L 151.126933 185.784719 
L 151.816149 184.847226 
L 151.3591 183.789349 
L 150.212831 183.668966 
L 149.755777 182.611088 
L 150.444996 181.673592 
L 149.987942 180.615712 
L 150.677163 179.678215 
L 150.220107 178.620333 
L 149.073826 178.499948 
L 148.616765 177.442064 
L 149.305989 176.504564 
L 148.848927 175.446678 
L 147.702637 175.326294 
L 147.24557 174.268407 
L 147.934797 173.330903 
L 147.477729 172.273014 
L 148.166958 171.335511 
L 147.709889 170.277619 
L 146.563586 170.157232 
L 146.106512 169.09934 
L 146.795744 168.161833 
L 146.338669 167.103938 
L 147.027904 166.166431 
L 146.570828 165.108534 
L 145.424512 164.988145 
L 144.96743 163.930247 
L 145.656669 162.992736 
L 145.199586 161.934836 
L 144.053261 161.814447 
L 143.596174 160.756545 
L 144.285414 159.819031 
L 143.828326 158.761127 
L 142.681992 158.640739 
M 259.988467 73.011281 
L 260.445341 74.069291 
L 259.755873 75.006661 
L 258.609531 74.886024 
L 257.920066 75.823397 
L 258.376943 76.881403 
L 257.687481 77.818776 
L 256.541141 77.698145 
L 255.851682 78.635519 
L 254.705342 78.514892 
L 254.015885 79.452269 
L 252.869544 79.331645 
L 252.18009 80.269025 
L 251.033748 80.148405 
L 250.576855 79.090403 
L 249.430508 78.969784 
L 248.741057 79.907169 
L 247.594709 79.786554 
L 247.137808 78.728552 
L 245.991455 78.607939 
L 245.302007 79.545329 
L 244.155653 79.42472 
L 243.466208 80.362113 
L 242.319854 80.241506 
L 241.862939 79.183505 
L 240.71658 79.062901 
L 240.027138 80.000299 
L 238.880777 79.879698 
L 238.423854 78.821697 
L 237.277489 78.701098 
L 236.58805 79.638502 
L 235.441683 79.517906 
L 234.752247 80.455313 
L 233.60588 80.33472 
L 232.916446 81.272129 
L 233.373381 82.330127 
L 232.683951 83.267535 
L 231.537586 83.146949 
L 230.848159 84.084359 
L 231.305096 85.142354 
L 230.615671 86.079764 
L 231.072607 87.137757 
L 230.383186 88.075167 
L 229.236828 87.954587 
L 228.547409 88.891999 
L 229.004348 89.949988 
L 228.314932 90.8874 
L 228.771869 91.945387 
L 228.082456 92.882799 
L 228.539393 93.940783 
L 227.849982 94.878195 
L 228.306918 95.936177 
L 227.61751 96.873588 
L 226.471167 96.753019 
L 225.781762 97.690432 
L 226.238701 98.748411 
L 225.549299 99.685824 
L 226.006236 100.743801 
L 225.316836 101.681214 
L 224.170501 101.560652 
L 223.71356 100.502676 
L 222.567219 100.382117 
L 221.877823 101.319534 
L 220.731481 101.198978 
L 220.042088 102.136398 
L 218.895745 102.015846 
L 218.206355 102.953269 
L 217.060011 102.832719 
L 216.603054 101.774746 
L 215.456705 101.654198 
L 214.767318 102.591627 
L 213.620968 102.471083 
L 213.164002 101.413109 
L 212.017648 101.292567 
L 211.328263 102.23 
L 210.181908 102.109462 
L 209.724933 101.051488 
L 208.578573 100.930951 
L 207.889191 101.86839 
L 206.74283 101.747857 
L 206.053451 102.685298 
L 204.907089 102.564769 
L 204.217714 103.502212 
L 203.071351 103.381686 
L 202.381978 104.319133 
L 202.838968 105.377102 
L 202.149598 106.314548 
L 202.606588 107.372515 
L 201.91722 108.309961 
L 202.374209 109.367926 
L 201.684844 110.305371 
L 200.538492 110.184854 
L 199.849131 111.122302 
L 200.306121 112.180263 
L 199.616763 113.11771 
L 198.470414 112.997199 
L 198.013419 111.939238 
L 196.867065 111.818728 
L 196.410065 110.760766 
L 195.263706 110.640258 
L 194.806701 109.582295 
L 193.660337 109.461788 
L 192.970982 110.399247 
L 191.824617 110.278744 
L 191.135265 111.216204 
L 189.988899 111.095705 
L 189.531881 110.037743 
L 190.221234 109.100279 
L 189.764215 108.042315 
L 188.617841 107.921816 
L 188.160817 106.86385 
L 187.014438 106.743353 
L 186.557409 105.685386 
L 185.411025 105.56489 
L 184.953992 104.506922 
L 183.807602 104.386428 
L 183.350564 103.328459 
L 182.20417 103.207967 
L 181.514818 104.145445 
L 180.368423 104.024956 
L 179.911375 102.966987 
L 178.764975 102.8465 
L 178.075626 103.783983 
L 176.929225 103.663499 
L 176.239879 104.600985 
L 175.093477 104.480505 
L 174.636417 103.422537 
L 173.490011 103.302059 
L 172.800667 104.23955 
L 171.65426 104.119076 
L 170.964919 105.056569 
L 169.818511 104.936098 
L 169.361438 103.878131 
L 168.215025 103.757662 
L 167.757947 102.699694 
L 166.611529 102.579226 
L 165.922191 103.516728 
L 164.775772 103.396264 
L 164.318686 102.338295 
L 163.172261 102.217833 
L 162.71517 101.159864 
L 161.568741 101.039403 
L 160.879407 101.976913 
L 159.732976 101.856456 
L 159.043645 102.793969 
L 157.897214 102.673515 
L 157.207886 103.61103 
L 156.061454 103.49058 
L 155.604346 102.432613 
L 154.457909 102.312165 
L 154.000796 101.254197 
L 152.854354 101.13375 
L 152.397237 100.07578 
L 151.25079 99.955336 
L 150.561465 100.892862 
L 149.415017 100.772421 
L 148.957891 99.714451 
L 147.811438 99.594012 
L 147.122116 100.531543 
L 145.975662 100.411107 
L 145.286343 101.348642 
L 144.139889 101.228209 
L 143.450572 102.165746 
L 142.304117 102.045317 
L 141.846974 100.987349 
L 140.700514 100.866922 
L 140.0112 101.804464 
L 138.864739 101.684041 
L 138.175429 102.621585 
L 137.028966 102.501165 
L 136.339659 103.438712 
L 135.193196 103.318296 
L 134.503891 104.255845 
L 134.96105 105.313808 
L 134.271748 106.251358 
L 133.125288 106.130946 
L 132.435989 107.068498 
L 132.89315 108.126458 
L 132.203854 109.064009 
L 132.661014 110.121967 
L 133.807466 110.242374 
L 134.264621 111.300331 
L 135.411069 111.42074 
L 135.868219 112.478695 
L 135.178925 113.41624 
L 135.636074 114.474193 
L 134.946784 115.411738 
L 133.800344 115.291332 
L 133.111056 116.228879 
L 131.964616 116.108477 
L 131.507459 115.050526 
L 130.361014 114.930126 
L 129.671729 115.867678 
L 128.525283 115.747281 
L 127.836001 116.684836 
L 126.689554 116.564443 
L 126.000275 117.502 
L 126.457443 118.559948 
L 125.768167 119.497505 
L 124.621723 119.377117 
L 123.932449 120.314677 
L 124.38962 121.372621 
L 123.70035 122.31018 
L 124.15752 123.368122 
L 125.303956 123.488506 
L 125.761121 124.546447 
L 126.907552 124.666833 
L 127.364712 125.724773 
L 128.511139 125.845161 
L 128.968294 126.9031 
L 130.114715 127.023489 
L 130.571865 128.081427 
L 129.882597 129.018974 
L 130.339746 130.076909 
L 131.486159 130.197299 
L 131.943303 131.255233 
L 133.089711 131.375624 
L 133.546849 132.433557 
L 134.693252 132.55395 
L 135.382521 131.616412 
L 136.528923 131.736808 
L 136.986053 132.794741 
L 138.13245 132.915139 
L 138.589575 133.973071 
L 139.735968 134.093471 
L 140.193088 135.151402 
L 141.339475 135.271803 
L 141.79659 136.329733 
L 142.942973 136.450136 
L 143.400083 137.508065 
L 142.710814 138.445589 
L 143.167923 139.503515 
L 144.314297 139.623918 
L 144.771401 140.681843 
L 144.082135 141.619364 
L 144.539238 142.677287 
L 145.685603 142.79769 
L 146.142701 143.855612 
L 145.453437 144.793129 
L 145.910534 145.851048 
L 147.05689 145.971452 
L 147.513982 147.02937 
L 148.660333 147.149775 
L 149.11742 148.207692 
L 148.428159 149.145203 
L 148.885245 150.203118 
L 148.195987 151.140629 
L 148.653071 152.198541 
L 149.79941 152.318944 
L 150.256489 153.376856 
L 149.567234 154.314363 
L 150.024313 155.372272 
L 151.170642 155.492675 
L 151.627716 156.550584 
L 150.938463 157.488088 
L 151.395536 158.545994 
L 152.541856 158.666396 
L 152.998924 159.724301 
L 154.14524 159.844706 
L 154.602302 160.902609 
L 153.913052 161.840107 
L 154.370113 162.898009 
L 155.516421 163.018413 
L 155.973477 164.076313 
L 155.28423 165.013808 
L 155.741285 166.071706 
L 155.05204 167.0092 
L 155.509094 168.067096 
L 154.819853 169.00459 
L 155.276906 170.062483 
L 154.587667 170.999977 
L 155.044719 172.057868 
L 156.191005 172.178267 
L 156.648052 173.236157 
L 157.794334 173.356558 
L 158.251375 174.414447 
L 157.562139 175.351934 
L 158.01918 176.409821 
L 157.329947 177.347308 
L 157.786986 178.405192 
L 157.097756 179.342678 
L 157.554794 180.400561 
L 156.865566 181.338047 
L 157.322603 182.395927 
L 158.468864 182.516322 
L 158.925897 183.574201 
L 158.236672 184.511683 
L 158.693703 185.56956 
L 159.839955 185.689955 
L 160.296981 186.747831 
L 159.607759 187.68531 
L 160.064784 188.743183 
L 161.211027 188.863579 
L 161.668047 189.921451 
L 160.978828 190.858927 
L 161.435847 191.916797 
L 162.582081 192.037192 
L 163.039095 193.09506 
L 164.185325 193.215457 
L 164.642334 194.273325 
L 165.788559 194.393723 
L 166.245563 195.45159 
L 165.556346 196.389057 
L 166.013348 197.446921 
L 167.159564 197.567319 
L 167.616562 198.625183 
L 166.927348 199.562646 
L 167.384345 200.620507 
L 168.530552 200.740905 
L 168.987544 201.798765 
L 170.133746 201.919165 
L 170.590733 202.977024 
L 171.73693 203.097426 
L 172.193912 204.155283 
L 171.5047 205.092737 
L 171.961681 206.150593 
L 173.107869 206.270994 
L 173.564845 207.328848 
L 172.875636 208.2663 
L 173.332611 209.324151 
L 174.47879 209.444553 
L 174.93576 210.502404 
L 174.246554 211.439852 
L 174.703522 212.4977 
L 174.014319 213.435147 
L 174.471286 214.492993 
L 173.782085 215.43044 
L 174.239051 216.488284 
L 173.549853 217.425731 
L 174.006818 218.483573 
L 173.317623 219.421019 
L 173.774587 220.478858 
L 174.920742 220.599253 
L 175.377701 221.657091 
L 174.688509 222.594534 
L 175.145467 223.65237 
L 176.291613 223.772764 
L 176.748566 224.830599 
L 177.894708 224.950995 
L 178.351655 226.008829 
L 177.662466 226.946266 
L 178.119412 228.004097 
L 179.265545 228.124493 
L 179.722487 229.182323 
L 180.868615 229.302721 
L 181.325551 230.36055 
L 180.636364 231.297981 
L 181.0933 232.355808 
L 182.239419 232.476205 
L 182.69635 233.534031 
L 182.007165 234.471458 
L 182.464095 235.529282 
L 181.774913 236.466709 
L 182.231841 237.52453 
L 183.377948 237.644926 
L 183.834871 238.702746 
L 183.145692 239.640169 
L 183.602615 240.697987 
L 182.913438 241.63541 
L 183.37036 242.693226 
L 184.516453 242.81362 
L 184.973369 243.871434 
L 186.119458 243.99183 
L 186.576369 245.049643 
L 187.722453 245.170041 
L 188.179359 246.227853 
L 189.325438 246.348252 
L 189.782339 247.406063 
L 190.928413 247.526464 
L 191.61759 246.589055 
L 192.763662 246.70946 
L 193.452842 245.772054 
L 194.598914 245.892461 
L 195.288096 244.955058 
L 196.434167 245.075469 
L 197.123353 244.138068 
L 196.666467 243.080253 
L 197.355655 242.142851 
L 198.501729 242.263268 
L 199.19092 241.325869 
L 200.336993 241.446289 
L 201.026187 240.508893 
L 202.172259 240.629317 
L 202.861455 239.691923 
L 204.007527 239.81235 
L 204.696726 238.874958 
L 205.842796 238.995389 
L 206.531999 238.058 
L 207.678068 238.178435 
L 208.134931 239.236257 
L 209.280995 239.356693 
L 209.737853 240.414513 
L 210.883913 240.534951 
L 211.573118 239.597571 
L 212.719177 239.718012 
L 213.176026 240.775833 
L 214.32208 240.896276 
L 215.011288 239.9589 
L 216.157341 240.079347 
L 216.614181 241.137168 
L 217.760229 241.257616 
L 218.449441 240.320246 
L 219.595487 240.440698 
L 220.284702 239.503331 
L 221.430748 239.623786 
L 222.119965 238.686421 
L 223.26601 238.80688 
L 223.95523 237.869517 
L 225.101274 237.98998 
L 225.790497 237.05262 
L 226.93654 237.173086 
L 227.625766 236.235728 
L 228.771809 236.356198 
L 229.228621 237.414024 
L 230.374658 237.534496 
L 231.063887 236.597143 
L 232.209923 236.717618 
L 232.899155 235.780268 
L 234.04519 235.900747 
L 234.50199 236.958574 
L 235.64802 237.079054 
L 236.337255 236.14171 
L 237.483285 236.262194 
L 238.172522 235.324851 
L 239.318551 235.445339 
L 239.775338 236.503167 
L 240.921361 236.623656 
L 241.610602 235.686319 
L 242.756625 235.806812 
L 243.213403 236.86464 
L 244.359421 236.985134 
L 244.816194 238.042961 
L 245.962206 238.163457 
L 246.65145 237.226129 
L 247.797462 237.346629 
L 248.254226 238.404455 
L 249.400233 238.524957 
L 249.856993 239.582782 
L 251.002995 239.703285 
L 251.459749 240.761109 
L 252.605746 240.881614 
L 253.294993 239.944297 
L 254.44099 240.064806 
L 254.897735 241.12263 
L 254.208488 242.059944 
L 254.665232 243.117766 
L 255.81122 243.238274 
L 256.267959 244.296095 
L 255.578715 245.233406 
L 256.035453 246.291225 
L 255.346211 247.228536 
L 255.802948 248.286352 
L 255.11371 249.223662 
L 255.570446 250.281476 
L 256.716416 250.401981 
L 257.173147 251.459794 
L 256.483911 252.397101 
L 256.940641 253.454911 
L 256.251408 254.392218 
L 256.708137 255.450026 
L 256.018906 256.387333 
L 256.475634 257.445139 
L 257.621588 257.56564 
L 258.078311 258.623445 
L 259.22426 258.743947 
L 259.680977 259.801751 
L 260.826922 259.922256 
L 261.516152 258.984958 
L 262.662096 259.105466 
L 263.351329 258.168171 
L 262.894619 257.110365 
L 263.583856 256.17307 
L 263.127145 255.115262 
L 263.816384 254.177966 
L 263.359672 253.120155 
L 264.048914 252.182859 
L 263.5922 251.125046 
L 264.281445 250.18775 
L 263.824731 249.129935 
L 264.513978 248.192638 
L 265.65994 248.313158 
L 266.349191 247.375864 
L 265.892479 246.318045 
L 266.581732 245.38075 
L 267.727697 245.501276 
L 268.416954 244.563984 
L 269.562918 244.684513 
L 270.252177 243.747223 
L 271.39814 243.867756 
L 272.087402 242.930469 
L 273.233364 243.051005 
L 273.69006 244.108828 
L 274.836018 244.229366 
L 275.292709 245.287188 
L 276.438661 245.407728 
L 276.895348 246.465548 
L 278.041295 246.58609 
L 278.73056 245.648813 
L 279.876507 245.769359 
L 280.333184 246.827179 
L 281.479126 246.947726 
L 281.935799 248.005545 
L 283.081735 248.126094 
L 283.771003 247.188826 
L 284.916939 247.309378 
L 285.373603 248.367197 
L 286.519534 248.487751 
L 286.976193 249.545569 
L 288.122119 249.666125 
L 288.578773 250.723941 
L 287.889504 251.661201 
L 288.346157 252.719015 
L 289.492074 252.839571 
L 289.948722 253.897384 
L 291.094634 254.017942 
L 291.783903 253.080688 
L 292.929814 253.201249 
L 293.386453 254.259062 
L 294.532359 254.379625 
L 294.988993 255.437437 
L 296.134895 255.558001 
L 296.824166 254.620756 
L 297.970067 254.741324 
L 298.659342 253.804081 
L 299.805241 253.924652 
L 300.261862 254.982465 
L 301.407757 255.103039 
L 302.097035 254.165801 
L 303.242928 254.286378 
L 303.699541 255.344191 
L 304.84543 255.464769 
L 305.302037 256.522581 
L 306.447921 256.643161 
L 306.904524 257.700972 
L 308.050403 257.821554 
L 308.739683 256.884327 
L 309.885562 257.004913 
L 310.574845 256.067689 
L 311.720722 256.188278 
L 312.177312 257.24609 
L 313.323184 257.36668 
L 313.779769 258.424491 
L 314.925636 258.545083 
L 315.382216 259.602893 
L 314.692933 260.540108 
L 315.149511 261.597915 
L 314.46023 262.53513 
L 314.916808 263.592934 
L 316.062662 263.713525 
L 316.519235 264.771329 
L 315.829957 265.70854 
L 316.286528 266.766341 
L 317.432374 266.886932 
L 318.121652 265.949723 
L 319.267497 266.070318 
L 319.956779 265.133111 
L 321.102622 265.253709 
L 321.791907 264.316505 
L 322.937749 264.437107 
L 323.394304 265.49491 
L 324.540142 265.615513 
L 324.996692 266.673315 
L 326.142526 266.79392 
L 326.599071 267.851721 
L 327.744899 267.972327 
L 328.201439 269.030127 
L 329.347262 269.150735 
L 330.036549 268.213545 
L 329.580013 267.155745 
L 330.269303 266.218554 
L 331.41513 266.339168 
L 331.871662 267.39697 
L 333.017484 267.517585 
L 333.474011 268.575386 
L 334.619827 268.696003 
L 335.07635 269.753803 
L 336.222161 269.874421 
L 336.911455 268.937242 
L 338.057265 269.057865 
L 338.746562 268.120688 
L 339.892371 268.241314 
L 340.58167 267.30414 
L 340.12516 266.246337 
L 338.979346 266.125709 
L 338.52283 265.067905 
L 337.377012 264.94728 
L 336.920491 263.889474 
L 337.609792 262.952294 
L 337.153271 261.894487 
L 336.007443 261.773861 
L 335.550916 260.716052 
L 336.240221 259.778869 
L 335.783693 258.721058 
L 336.473 257.783874 
L 337.618835 257.904503 
L 338.308145 256.967322 
L 337.85162 255.909508 
L 338.540933 254.972326 
L 338.084407 253.91451 
L 338.773722 252.977327 
L 338.317195 251.919509 
L 339.006513 250.982326 
L 340.152359 251.102964 
L 340.841681 250.165784 
L 340.385156 249.107962 
L 339.239306 248.987322 
L 338.782776 247.929499 
L 339.4721 246.992315 
L 339.015569 245.93449 
L 337.869711 245.813849 
L 337.413175 244.756023 
L 336.267311 244.635384 
L 335.81077 243.577556 
L 334.664901 243.456919 
L 334.208356 242.39909 
L 333.062482 242.278455 
L 332.605931 241.220625 
L 331.460053 241.099991 
L 331.003497 240.04216 
L 329.857614 239.921528 
L 329.401053 238.863696 
L 328.255165 238.743066 
L 327.565841 239.68027 
L 326.419952 239.559643 
L 325.963382 238.50181 
L 324.817488 238.381185 
L 324.360914 237.323352 
L 323.215015 237.202729 
L 322.758435 236.144894 
L 323.447759 235.207681 
L 322.991178 234.149845 
L 321.84527 234.029221 
L 321.388685 232.971383 
L 322.078011 232.034167 
L 321.621424 230.976327 
L 320.475507 230.855704 
L 320.018915 229.797862 
L 318.872994 229.67724 
L 318.416397 228.619398 
L 317.270471 228.498778 
L 316.813869 227.440934 
L 317.503198 226.503709 
L 317.046595 225.445863 
L 315.90066 225.325243 
L 315.444052 224.267396 
L 314.298112 224.146777 
L 313.841499 223.088929 
L 312.695554 222.968312 
L 312.238936 221.910463 
L 312.928267 220.973229 
L 312.471648 219.915377 
L 311.325695 219.79476 
L 310.869071 218.736907 
L 311.558405 217.79967 
L 311.10178 216.741815 
L 309.955817 216.621198 
L 309.499187 215.563342 
L 310.188523 214.626101 
L 309.731892 213.568243 
L 310.421232 212.631002 
L 309.9646 211.573141 
L 310.653942 210.635899 
L 311.799916 210.756522 
L 312.489261 209.819283 
L 312.032632 208.761418 
L 312.72198 207.824179 
L 312.265349 206.766313 
L 311.119367 206.645687 
L 310.430019 207.582929 
L 309.284036 207.462307 
L 308.827396 206.40444 
L 307.681408 206.28382 
L 306.992063 207.221067 
L 305.846074 207.10045 
L 305.389426 206.042584 
L 306.07877 205.105333 
L 305.622121 204.047465 
L 304.476123 203.926848 
L 304.019469 202.868978 
L 302.873466 202.748362 
L 302.416806 201.690491 
L 301.270799 201.569878 
L 300.814134 200.512005 
L 301.503482 199.574746 
L 301.046816 198.516871 
L 299.900799 198.396257 
L 299.444129 197.338382 
L 298.298108 197.21777 
L 297.841432 196.159893 
L 296.695406 196.039283 
L 296.006059 196.976551 
L 294.860031 196.855944 
L 294.403347 195.798067 
L 295.092694 194.860796 
L 294.636009 193.802917 
L 293.489973 193.68231 
L 293.033282 192.62443 
L 291.887241 192.503825 
L 291.430546 191.445944 
L 290.2845 191.32534 
L 289.8278 190.267458 
L 288.681749 190.146856 
L 288.225043 189.088972 
L 287.078988 188.968372 
L 286.622277 187.910487 
L 285.476217 187.789889 
L 285.019502 186.732003 
L 285.708851 185.794714 
L 285.252134 184.736826 
L 284.106065 184.616228 
L 283.649344 183.558338 
L 284.338696 182.621046 
L 283.881973 181.563154 
L 284.571328 180.625862 
L 284.114604 179.567968 
L 282.968522 179.447368 
L 282.511793 178.389473 
L 283.201151 177.452177 
L 282.744421 176.394279 
L 283.433782 175.456983 
L 282.977051 174.399083 
L 283.666414 173.461786 
L 283.209682 172.403885 
L 283.899048 171.466587 
L 283.442315 170.408683 
L 282.296212 170.288078 
L 281.839474 169.230173 
L 280.693366 169.109569 
L 280.236623 168.051662 
L 279.09051 167.93106 
L 278.401145 168.868366 
L 277.255031 168.747767 
L 276.798279 167.689861 
L 275.652161 167.569264 
L 275.195404 166.511356 
L 274.04928 166.390761 
L 273.592519 165.332853 
L 272.44639 165.212259 
L 271.757028 166.149576 
L 270.610899 166.028986 
L 270.154128 164.971078 
L 269.007994 164.850489 
L 268.318634 165.787812 
L 267.172499 165.667227 
L 266.71572 164.609318 
L 265.56958 164.488735 
L 265.112795 163.430825 
L 263.96665 163.310244 
L 263.277294 164.247575 
L 262.131148 164.126997 
L 261.674355 163.069087 
L 260.528204 162.948511 
L 260.071406 161.8906 
L 258.92525 161.770026 
L 258.468447 160.712114 
L 257.322287 160.591541 
L 256.632933 161.528883 
L 255.486772 161.408314 
L 255.02996 160.350402 
L 255.719313 159.413057 
L 255.2625 158.355142 
L 254.116329 158.234573 
L 253.659511 157.176657 
L 252.513336 157.05609 
L 251.823983 157.993441 
L 250.677807 157.872877 
L 250.22098 156.814961 
L 249.074799 156.694399 
L 248.385449 157.631755 
L 247.239267 157.511197 
L 246.782431 156.453281 
L 245.636244 156.332724 
L 244.946897 157.270085 
L 243.800709 157.149532 
L 243.343865 156.091616 
L 242.197672 155.971065 
L 241.508328 156.908431 
L 240.362134 156.787884 
L 239.905281 155.729967 
L 238.759082 155.609421 
L 238.302224 154.551504 
L 238.991568 153.614132 
L 240.13777 153.73468 
L 240.827117 152.79731 
L 240.370261 151.739389 
L 241.059611 150.802019 
L 240.602754 149.744096 
L 241.292106 148.806725 
L 242.438316 148.92728 
L 243.127671 147.989912 
L 242.670817 146.931985 
L 243.360175 145.994617 
L 242.90332 144.936688 
L 243.592681 143.999319 
L 244.738897 144.119881 
L 245.428261 143.182515 
L 244.971408 142.124583 
L 245.660775 141.187216 
L 245.203921 140.129282 
L 245.893291 139.191915 
L 245.436436 138.133978 
L 244.290208 138.013411 
L 243.833348 136.955473 
L 244.52272 136.018103 
L 245.668952 136.138672 
L 246.358327 135.201304 
L 245.90147 134.143363 
L 246.590848 133.205994 
L 247.737083 133.326569 
L 248.426464 132.389203 
L 249.572698 132.509781 
L 250.262082 131.572418 
L 251.408315 131.693 
L 252.097701 130.755638 
L 253.243934 130.876224 
L 253.933323 129.938865 
L 255.079554 130.059454 
L 255.768947 129.122098 
L 256.915177 129.242691 
L 257.604572 128.305337 
L 258.750801 128.425933 
L 259.4402 127.488582 
L 258.983368 126.430631 
L 259.672769 125.493279 
L 260.819002 125.613881 
L 261.508405 124.676532 
L 262.654637 124.797137 
L 263.344043 123.85979 
L 264.490274 123.980399 
L 265.179683 123.043054 
L 264.722863 121.985099 
L 265.412275 121.047754 
L 266.558508 121.168368 
L 267.247924 120.231026 
L 268.394156 120.351643 
L 269.083574 119.414303 
L 270.229806 119.534925 
L 270.919227 118.597587 
L 270.462416 117.539626 
L 271.15184 116.602288 
L 270.695029 115.544325 
L 271.384455 114.606987 
L 270.927643 113.549021 
L 271.617072 112.611682 
L 272.763314 112.732313 
L 273.452747 111.794977 
L 272.995937 110.737007 
L 273.685372 109.799671 
L 273.228561 108.7417 
L 273.917999 107.804363 
L 273.461187 106.746389 
L 274.150628 105.809052 
L 273.693814 104.751076 
L 274.383258 103.813739 
L 275.529515 103.93438 
L 276.218962 102.997045 
L 275.762151 101.939066 
L 276.4516 101.00173 
L 275.994788 99.943749 
L 276.684241 99.006413 
L 277.830505 99.127061 
L 278.51996 98.189727 
L 278.063151 97.131743 
L 278.752608 96.194409 
L 278.295798 95.136422 
L 278.985259 94.199088 
L 278.528448 93.141099 
L 277.382172 93.020445 
L 276.925356 91.962455 
L 277.614819 91.025117 
L 277.158002 89.967125 
L 276.011717 89.846471 
L 275.554895 88.788478 
L 276.244361 87.851137 
L 275.787537 86.793141 
L 274.641244 86.672487 
L 274.184415 85.61449 
L 274.873884 84.677146 
L 274.417054 83.619147 
L 275.106526 82.681802 
L 274.649695 81.623801 
L 275.33917 80.686456 
L 274.882338 79.628453 
L 273.736028 79.507795 
L 273.279191 78.44979 
L 272.132876 78.329135 
L 271.676034 77.271129 
L 272.365511 76.333777 
L 271.908668 75.275769 
L 270.762344 75.155114 
L 270.305496 74.097104 
L 269.159167 73.97645 
L 268.702314 72.91844 
L 267.555981 72.797787 
L 267.099123 71.739776 
L 265.952784 71.619125 
L 265.263308 72.556488 
L 264.116968 72.435841 
L 263.660101 71.377829 
L 262.513757 71.257184 
L 261.824283 72.194552 
L 260.677938 72.07391 
L 259.988467 73.011281 
" clip-path="url(#p4b4949841e)" style="fill: #a0522d"/>
    <path d="M 148.660333 147.149775 
L 147.513982 147.02937 
L 147.05689 145.971452 
L 145.910534 145.851048 
L 145.453437 144.793129 
L 146.142701 143.855612 
L 145.685603 142.79769 
L 144.539238 142.677287 
L 144.082135 141.619364 
L 144.771401 140.681843 
L 144.314297 139.623918 
L 143.167923 139.503515 
L 142.710814 138.445589 
L 143.400083 137.508065 
L 142.942973 136.450136 
L 141.79659 136.329733 
L 141.339475 135.271803 
L 140.193088 135.151402 
L 139.735968 134.093471 
L 138.589575 133.973071 
L 138.13245 132.915139 
L 136.986053 132.794741 
L 136.528923 131.736808 
L 135.382521 131.616412 
L 134.693252 132.55395 
L 133.546849 132.433557 
L 133.089711 131.375624 
L 131.943303 131.255233 
L 131.486159 130.197299 
L 130.339746 130.076909 
L 129.882597 129.018974 
L 130.571865 128.081427 
L 130.114715 127.023489 
L 128.968294 126.9031 
L 128.511139 125.845161 
L 127.364712 125.724773 
L 126.907552 124.666833 
L 125.761121 124.546447 
L 125.303956 123.488506 
L 124.15752 123.368122 
L 123.70035 122.31018 
L 124.38962 121.372621 
L 123.932449 120.314677 
L 124.621723 119.377117 
L 125.768167 119.497505 
L 126.457443 118.559948 
L 126.000275 117.502 
L 126.689554 116.564443 
L 127.836001 116.684836 
L 128.525283 115.747281 
L 129.671729 115.867678 
L 130.361014 114.930126 
L 131.507459 115.050526 
L 131.964616 116.108477 
L 133.111056 116.228879 
L 133.800344 115.291332 
L 134.946784 115.411738 
L 135.636074 114.474193 
L 135.178925 113.41624 
L 135.868219 112.478695 
L 135.411069 111.42074 
L 134.264621 111.300331 
L 133.807466 110.242374 
L 132.661014 110.121967 
L 132.203854 109.064009 
L 132.89315 108.126458 
L 132.435989 107.068498 
L 133.125288 106.130946 
L 134.271748 106.251358 
L 134.96105 105.313808 
L 134.503891 104.255845 
L 135.193196 103.318296 
L 136.339659 103.438712 
L 137.028966 102.501165 
L 138.175429 102.621585 
L 138.864739 101.684041 
L 140.0112 101.804464 
L 140.700514 100.866922 
L 141.846974 100.987349 
L 142.304117 102.045317 
L 143.450572 102.165746 
L 144.139889 101.228209 
L 145.286343 101.348642 
L 145.975662 100.411107 
L 147.122116 100.531543 
L 147.811438 99.594012 
L 148.957891 99.714451 
L 149.415017 100.772421 
L 150.561465 100.892862 
L 151.25079 99.955336 
L 152.397237 100.07578 
L 152.854354 101.13375 
L 154.000796 101.254197 
L 154.457909 102.312165 
L 155.604346 102.432613 
L 156.061454 103.49058 
L 157.207886 103.61103 
L 157.897214 102.673515 
L 159.043645 102.793969 
L 159.732976 101.856456 
L 160.879407 101.976913 
L 161.568741 101.039403 
L 162.71517 101.159864 
L 163.172261 102.217833 
L 164.318686 102.338295 
L 164.775772 103.396264 
L 165.922191 103.516728 
L 166.611529 102.579226 
L 167.757947 102.699694 
L 168.215025 103.757662 
L 169.361438 103.878131 
L 169.818511 104.936098 
L 170.964919 105.056569 
L 171.65426 104.119076 
L 172.800667 104.23955 
L 173.490011 103.302059 
L 174.636417 103.422537 
L 175.093477 104.480505 
L 176.239879 104.600985 
L 176.929225 103.663499 
L 178.075626 103.783983 
L 178.764975 102.8465 
L 179.911375 102.966987 
L 180.368423 104.024956 
L 181.514818 104.145445 
L 182.20417 103.207967 
L 183.350564 103.328459 
L 183.807602 104.386428 
L 184.953992 104.506922 
L 185.411025 105.56489 
L 186.557409 105.685386 
L 187.014438 106.743353 
L 188.160817 106.86385 
L 188.617841 107.921816 
L 189.764215 108.042315 
L 190.221234 109.100279 
L 189.531881 110.037743 
L 189.988899 111.095705 
L 191.135265 111.216204 
L 191.824617 110.278744 
L 192.970982 110.399247 
L 193.660337 109.461788 
L 194.806701 109.582295 
L 195.263706 110.640258 
L 196.410065 110.760766 
L 196.867065 111.818728 
L 198.013419 111.939238 
L 198.470414 112.997199 
L 199.616763 113.11771 
L 200.306121 112.180263 
L 199.849131 111.122302 
L 200.538492 110.184854 
L 201.684844 110.305371 
L 202.374209 109.367926 
L 201.91722 108.309961 
L 202.606588 107.372515 
L 202.149598 106.314548 
L 202.838968 105.377102 
L 202.381978 104.319133 
L 203.071351 103.381686 
L 204.217714 103.502212 
L 204.907089 102.564769 
L 206.053451 102.685298 
L 206.74283 101.747857 
L 207.889191 101.86839 
L 208.578573 100.930951 
L 209.724933 101.051488 
L 210.181908 102.109462 
L 211.328263 102.23 
L 212.017648 101.292567 
L 213.164002 101.413109 
L 213.620968 102.471083 
L 214.767318 102.591627 
L 215.456705 101.654198 
L 216.603054 101.774746 
L 217.060011 102.832719 
L 218.206355 102.953269 
L 218.895745 102.015846 
L 220.042088 102.136398 
L 220.731481 101.198978 
L 221.877823 101.319534 
L 222.567219 100.382117 
L 223.71356 100.502676 
L 224.170501 101.560652 
L 225.316836 101.681214 
L 226.006236 100.743801 
L 225.549299 99.685824 
L 226.238701 98.748411 
L 225.781762 97.690432 
L 226.471167 96.753019 
L 227.61751 96.873588 
L 228.306918 95.936177 
L 227.849982 94.878195 
L 228.539393 93.940783 
L 228.082456 92.882799 
L 228.771869 91.945387 
L 228.314932 90.8874 
L 229.004348 89.949988 
L 228.547409 88.891999 
L 229.236828 87.954587 
L 230.383186 88.075167 
L 231.072607 87.137757 
L 230.615671 86.079764 
L 231.305096 85.142354 
L 230.848159 84.084359 
L 231.537586 83.146949 
L 232.683951 83.267535 
L 233.373381 82.330127 
L 232.916446 81.272129 
L 233.60588 80.33472 
L 234.752247 80.455313 
L 235.441683 79.517906 
L 236.58805 79.638502 
L 237.277489 78.701098 
L 238.423854 78.821697 
L 238.880777 79.879698 
L 240.027138 80.000299 
L 240.71658 79.062901 
L 241.862939 79.183505 
L 242.319854 80.241506 
L 243.466208 80.362113 
L 244.155653 79.42472 
L 245.302007 79.545329 
L 245.991455 78.607939 
L 247.137808 78.728552 
L 247.594709 79.786554 
L 248.741057 79.907169 
L 249.430508 78.969784 
L 250.576855 79.090403 
L 251.033748 80.148405 
L 252.18009 80.269025 
L 252.869544 79.331645 
L 254.015885 79.452269 
L 254.705342 78.514892 
L 255.851682 78.635519 
L 256.541141 77.698145 
L 257.687481 77.818776 
L 258.376943 76.881403 
L 257.920066 75.823397 
L 258.609531 74.886024 
L 259.755873 75.006661 
L 260.445341 74.069291 
L 259.988467 73.011281 
L 260.677938 72.07391 
L 261.824283 72.194552 
L 262.513757 71.257184 
L 263.660101 71.377829 
L 264.116968 72.435841 
L 265.263308 72.556488 
L 265.952784 71.619125 
L 267.099123 71.739776 
L 267.555981 72.797787 
L 268.702314 72.91844 
L 269.159167 73.97645 
L 270.305496 74.097104 
L 270.762344 75.155114 
L 271.908668 75.275769 
L 272.365511 76.333777 
L 271.676034 77.271129 
L 272.132876 78.329135 
L 273.279191 78.44979 
L 273.736028 79.507795 
L 274.882338 79.628453 
L 275.33917 80.686456 
L 274.649695 81.623801 
L 275.106526 82.681802 
L 274.417054 83.619147 
L 274.873884 84.677146 
L 274.184415 85.61449 
L 274.641244 86.672487 
L 275.787537 86.793141 
L 276.244361 87.851137 
L 275.554895 88.788478 
L 276.011717 89.846471 
L 277.158002 89.967125 
L 277.614819 91.025117 
L 276.925356 91.962455 
L 277.382172 93.020445 
L 278.528448 93.141099 
L 278.985259 94.199088 
L 278.295798 95.136422 
L 278.752608 96.194409 
L 278.063151 97.131743 
L 278.51996 98.189727 
L 277.830505 99.127061 
L 276.684241 99.006413 
L 275.994788 99.943749 
L 276.4516 101.00173 
L 275.762151 101.939066 
L 276.218962 102.997045 
L 275.529515 103.93438 
L 274.383258 103.813739 
L 273.693814 104.751076 
L 274.150628 105.809052 
L 273.461187 106.746389 
L 273.917999 107.804363 
L 273.228561 108.7417 
L 273.685372 109.799671 
L 272.995937 110.737007 
L 273.452747 111.794977 
L 272.763314 112.732313 
L 271.617072 112.611682 
L 270.927643 113.549021 
L 271.384455 114.606987 
L 270.695029 115.544325 
L 271.15184 116.602288 
L 270.462416 117.539626 
L 270.919227 118.597587 
L 270.229806 119.534925 
L 269.083574 119.414303 
L 268.394156 120.351643 
L 267.247924 120.231026 
L 266.558508 121.168368 
L 265.412275 121.047754 
L 264.722863 121.985099 
L 265.179683 123.043054 
L 264.490274 123.980399 
L 263.344043 123.85979 
L 262.654637 124.797137 
L 261.508405 124.676532 
L 260.819002 125.613881 
L 259.672769 125.493279 
L 258.983368 126.430631 
L 259.4402 127.488582 
L 258.750801 128.425933 
L 257.604572 128.305337 
L 256.915177 129.242691 
L 255.768947 129.122098 
L 255.079554 130.059454 
L 253.933323 129.938865 
L 253.243934 130.876224 
L 252.097701 130.755638 
L 251.408315 131.693 
L 250.262082 131.572418 
L 249.572698 132.509781 
L 248.426464 132.389203 
L 247.737083 133.326569 
L 246.590848 133.205994 
L 245.90147 134.143363 
L 246.358327 135.201304 
L 245.668952 136.138672 
L 244.52272 136.018103 
L 243.833348 136.955473 
L 244.290208 138.013411 
L 245.436436 138.133978 
L 245.893291 139.191915 
L 245.203921 140.129282 
L 245.660775 141.187216 
L 244.971408 142.124583 
L 245.428261 143.182515 
L 244.738897 144.119881 
L 243.592681 143.999319 
L 242.90332 144.936688 
L 243.360175 145.994617 
L 242.670817 146.931985 
L 243.127671 147.989912 
L 242.438316 148.92728 
L 241.292106 148.806725 
L 240.602754 149.744096 
L 241.059611 150.802019 
L 240.370261 151.739389 
L 240.827117 152.79731 
L 240.13777 153.73468 
L 238.991568 153.614132 
L 238.302224 154.551504 
L 238.759082 155.609421 
L 239.905281 155.729967 
L 240.362134 156.787884 
L 241.508328 156.908431 
L 242.197672 155.971065 
L 243.343865 156.091616 
L 243.800709 157.149532 
L 244.946897 157.270085 
L 245.636244 156.332724 
L 246.782431 156.453281 
L 247.239267 157.511197 
L 248.385449 157.631755 
L 249.074799 156.694399 
L 250.22098 156.814961 
L 250.677807 157.872877 
L 251.823983 157.993441 
L 252.513336 157.05609 
L 253.659511 157.176657 
L 254.116329 158.234573 
L 255.2625 158.355142 
L 255.719313 159.413057 
L 255.02996 160.350402 
L 255.486772 161.408314 
L 256.632933 161.528883 
L 257.322287 160.591541 
L 258.468447 160.712114 
L 258.92525 161.770026 
L 260.071406 161.8906 
L 260.528204 162.948511 
L 261.674355 163.069087 
L 262.131148 164.126997 
L 263.277294 164.247575 
L 263.96665 163.310244 
L 265.112795 163.430825 
L 265.56958 164.488735 
L 266.71572 164.609318 
L 267.172499 165.667227 
L 268.318634 165.787812 
L 269.007994 164.850489 
L 270.154128 164.971078 
L 270.610899 166.028986 
L 271.757028 166.149576 
L 272.44639 165.212259 
L 273.592519 165.332853 
L 274.04928 166.390761 
L 275.195404 166.511356 
L 275.652161 167.569264 
L 276.798279 167.689861 
L 277.255031 168.747767 
L 278.401145 168.868366 
L 279.09051 167.93106 
L 280.236623 168.051662 
L 280.693366 169.109569 
L 281.839474 169.230173 
L 282.296212 170.288078 
L 283.442315 170.408683 
L 283.899048 171.466587 
L 283.209682 172.403885 
L 283.666414 173.461786 
L 282.977051 174.399083 
L 283.433782 175.456983 
L 282.744421 176.394279 
L 283.201151 177.452177 
L 282.511793 178.389473 
L 282.968522 179.447368 
L 284.114604 179.567968 
L 284.571328 180.625862 
L 283.881973 181.563154 
L 284.338696 182.621046 
L 283.649344 183.558338 
L 284.106065 184.616228 
L 285.252134 184.736826 
L 285.708851 185.794714 
L 285.019502 186.732003 
L 285.476217 187.789889 
L 286.622277 187.910487 
L 287.078988 188.968372 
L 288.225043 189.088972 
L 288.681749 190.146856 
L 289.8278 190.267458 
L 290.2845 191.32534 
L 291.430546 191.445944 
L 291.887241 192.503825 
L 293.033282 192.62443 
L 293.489973 193.68231 
L 294.636009 193.802917 
L 295.092694 194.860796 
L 294.403347 195.798067 
L 294.860031 196.855944 
L 296.006059 196.976551 
L 296.695406 196.039283 
L 297.841432 196.159893 
L 298.298108 197.21777 
L 299.444129 197.338382 
L 299.900799 198.396257 
L 301.046816 198.516871 
L 301.503482 199.574746 
L 300.814134 200.512005 
L 301.270799 201.569878 
L 302.416806 201.690491 
L 302.873466 202.748362 
L 304.019469 202.868978 
L 304.476123 203.926848 
L 305.622121 204.047465 
L 306.07877 205.105333 
L 305.389426 206.042584 
L 305.846074 207.10045 
L 306.992063 207.221067 
L 307.681408 206.28382 
L 308.827396 206.40444 
L 309.284036 207.462307 
L 310.430019 207.582929 
L 311.119367 206.645687 
L 312.265349 206.766313 
L 312.72198 207.824179 
L 312.032632 208.761418 
L 312.489261 209.819283 
L 311.799916 210.756522 
L 310.653942 210.635899 
L 309.9646 211.573141 
L 310.421232 212.631002 
L 309.731892 213.568243 
L 310.188523 214.626101 
L 309.499187 215.563342 
L 309.955817 216.621198 
L 311.10178 216.741815 
L 311.558405 217.79967 
L 310.869071 218.736907 
L 311.325695 219.79476 
L 312.471648 219.915377 
L 312.928267 220.973229 
L 312.238936 221.910463 
L 312.695554 222.968312 
L 313.841499 223.088929 
L 314.298112 224.146777 
L 315.444052 224.267396 
L 315.90066 225.325243 
L 317.046595 225.445863 
L 317.503198 226.503709 
L 316.813869 227.440934 
L 317.270471 228.498778 
L 318.416397 228.619398 
L 318.872994 229.67724 
L 320.018915 229.797862 
L 320.475507 230.855704 
L 321.621424 230.976327 
L 322.078011 232.034167 
L 321.388685 232.971383 
L 321.84527 234.029221 
L 322.991178 234.149845 
L 323.447759 235.207681 
L 322.758435 236.144894 
L 323.215015 237.202729 
L 324.360914 237.323352 
L 324.817488 238.381185 
L 325.963382 238.50181 
L 326.419952 239.559643 
L 327.565841 239.68027 
L 328.255165 238.743066 
L 329.401053 238.863696 
L 329.857614 239.921528 
L 331.003497 240.04216 
L 331.460053 241.099991 
L 332.605931 241.220625 
L 333.062482 242.278455 
L 334.208356 242.39909 
L 334.664901 243.456919 
L 335.81077 243.577556 
L 336.267311 244.635384 
L 337.413175 244.756023 
L 337.869711 245.813849 
L 339.015569 245.93449 
L 339.4721 246.992315 
L 338.782776 247.929499 
L 339.239306 248.987322 
L 340.385156 249.107962 
L 340.841681 250.165784 
L 340.152359 251.102964 
L 339.006513 250.982326 
L 338.317195 251.919509 
L 338.773722 252.977327 
L 338.084407 253.91451 
L 338.540933 254.972326 
L 337.85162 255.909508 
L 338.308145 256.967322 
L 337.618835 257.904503 
L 336.473 257.783874 
L 335.783693 258.721058 
L 336.240221 259.778869 
L 335.550916 260.716052 
L 336.007443 261.773861 
L 337.153271 261.894487 
L 337.609792 262.952294 
L 336.920491 263.889474 
L 337.377012 264.94728 
L 338.52283 265.067905 
L 338.979346 266.125709 
L 340.12516 266.246337 
L 340.58167 267.30414 
L 339.892371 268.241314 
L 338.746562 268.120688 
L 338.057265 269.057865 
L 336.911455 268.937242 
L 336.222161 269.874421 
L 335.07635 269.753803 
L 334.619827 268.696003 
L 333.474011 268.575386 
L 333.017484 267.517585 
L 331.871662 267.39697 
L 331.41513 266.339168 
L 330.269303 266.218554 
L 329.580013 267.155745 
L 330.036549 268.213545 
L 329.347262 269.150735 
L 328.201439 269.030127 
L 327.744899 267.972327 
L 326.599071 267.851721 
L 326.142526 266.79392 
L 324.996692 266.673315 
L 324.540142 265.615513 
L 323.394304 265.49491 
L 322.937749 264.437107 
L 321.791907 264.316505 
L 321.102622 265.253709 
L 319.956779 265.133111 
L 319.267497 266.070318 
L 318.121652 265.949723 
L 317.432374 266.886932 
L 316.286528 266.766341 
L 315.829957 265.70854 
L 316.519235 264.771329 
L 316.062662 263.713525 
L 314.916808 263.592934 
L 314.46023 262.53513 
L 315.149511 261.597915 
L 314.692933 260.540108 
L 315.382216 259.602893 
L 314.925636 258.545083 
L 313.779769 258.424491 
L 313.323184 257.36668 
L 312.177312 257.24609 
L 311.720722 256.188278 
L 310.574845 256.067689 
L 309.885562 257.004913 
L 308.739683 256.884327 
L 308.050403 257.821554 
L 306.904524 257.700972 
L 306.447921 256.643161 
L 305.302037 256.522581 
L 304.84543 255.464769 
L 303.699541 255.344191 
L 303.242928 254.286378 
L 302.097035 254.165801 
L 301.407757 255.103039 
L 300.261862 254.982465 
L 299.805241 253.924652 
L 298.659342 253.804081 
L 297.970067 254.741324 
L 296.824166 254.620756 
L 296.134895 255.558001 
L 294.988993 255.437437 
L 294.532359 254.379625 
L 293.386453 254.259062 
L 292.929814 253.201249 
L 291.783903 253.080688 
L 291.094634 254.017942 
L 289.948722 253.897384 
L 289.492074 252.839571 
L 288.346157 252.719015 
L 287.889504 251.661201 
L 288.578773 250.723941 
L 288.122119 249.666125 
L 286.976193 249.545569 
L 286.519534 248.487751 
L 285.373603 248.367197 
L 284.916939 247.309378 
L 283.771003 247.188826 
L 283.081735 248.126094 
L 281.935799 248.005545 
L 281.479126 246.947726 
L 280.333184 246.827179 
L 279.876507 245.769359 
L 278.73056 245.648813 
L 278.041295 246.58609 
L 276.895348 246.465548 
L 276.438661 245.407728 
L 275.292709 245.287188 
L 274.836018 244.229366 
L 273.69006 244.108828 
L 273.233364 243.051005 
L 272.087402 242.930469 
L 271.39814 243.867756 
L 270.252177 243.747223 
L 269.562918 244.684513 
L 268.416954 244.563984 
L 267.727697 245.501276 
L 266.581732 245.38075 
L 265.892479 246.318045 
L 266.349191 247.375864 
L 265.65994 248.313158 
L 264.513978 248.192638 
L 263.824731 249.129935 
L 264.281445 250.18775 
L 263.5922 251.125046 
L 264.048914 252.182859 
L 263.359672 253.120155 
L 263.816384 254.177966 
L 263.127145 255.115262 
L 263.583856 256.17307 
L 262.894619 257.110365 
L 263.351329 258.168171 
L 262.662096 259.105466 
L 261.516152 258.984958 
L 260.826922 259.922256 
L 259.680977 259.801751 
L 259.22426 258.743947 
L 258.078311 258.623445 
L 257.621588 257.56564 
L 256.475634 257.445139 
L 256.018906 256.387333 
L 256.708137 255.450026 
L 256.251408 254.392218 
L 256.940641 253.454911 
L 256.483911 252.397101 
L 257.173147 251.459794 
L 256.716416 250.401981 
L 255.570446 250.281476 
L 255.11371 249.223662 
L 255.802948 248.286352 
L 255.346211 247.228536 
L 256.035453 246.291225 
L 255.578715 245.233406 
L 256.267959 244.296095 
L 255.81122 243.238274 
L 254.665232 243.117766 
L 254.208488 242.059944 
L 254.897735 241.12263 
L 254.44099 240.064806 
L 253.294993 239.944297 
L 252.605746 240.881614 
L 251.459749 240.761109 
L 251.002995 239.703285 
L 249.856993 239.582782 
L 249.400233 238.524957 
L 248.254226 238.404455 
L 247.797462 237.346629 
L 246.65145 237.226129 
L 245.962206 238.163457 
L 244.816194 238.042961 
L 244.359421 236.985134 
L 243.213403 236.86464 
L 242.756625 235.806812 
L 241.610602 235.686319 
L 240.921361 236.623656 
L 239.775338 236.503167 
L 239.318551 235.445339 
L 238.172522 235.324851 
L 237.483285 236.262194 
L 236.337255 236.14171 
L 235.64802 237.079054 
L 234.50199 236.958574 
L 234.04519 235.900747 
L 232.899155 235.780268 
L 232.209923 236.717618 
L 231.063887 236.597143 
L 230.374658 237.534496 
L 229.228621 237.414024 
L 228.771809 236.356198 
L 227.625766 236.235728 
L 226.93654 237.173086 
L 225.790497 237.05262 
L 225.101274 237.98998 
L 223.95523 237.869517 
L 223.26601 238.80688 
L 222.119965 238.686421 
L 221.430748 239.623786 
L 220.284702 239.503331 
L 219.595487 240.440698 
L 218.449441 240.320246 
L 217.760229 241.257616 
L 216.614181 241.137168 
L 216.157341 240.079347 
L 215.011288 239.9589 
L 214.32208 240.896276 
L 213.176026 240.775833 
L 212.719177 239.718012 
L 211.573118 239.597571 
L 210.883913 240.534951 
L 209.737853 240.414513 
L 209.280995 239.356693 
L 208.134931 239.236257 
L 207.678068 238.178435 
L 206.531999 238.058 
L 205.842796 238.995389 
L 204.696726 238.874958 
L 204.007527 239.81235 
L 202.861455 239.691923 
L 202.172259 240.629317 
L 201.026187 240.508893 
L 200.336993 241.446289 
L 199.19092 241.325869 
L 198.501729 242.263268 
L 197.355655 242.142851 
L 196.666467 243.080253 
L 197.123353 244.138068 
L 196.434167 245.075469 
L 195.288096 244.955058 
L 194.598914 245.892461 
L 193.452842 245.772054 
L 192.763662 246.70946 
L 191.61759 246.589055 
L 190.928413 247.526464 
L 189.782339 247.406063 
L 189.325438 246.348252 
L 188.179359 246.227853 
L 187.722453 245.170041 
L 186.576369 245.049643 
L 186.119458 243.99183 
L 184.973369 243.871434 
L 184.516453 242.81362 
L 183.37036 242.693226 
L 182.913438 241.63541 
L 183.602615 240.697987 
L 183.145692 239.640169 
L 183.834871 238.702746 
L 183.377948 237.644926 
L 182.231841 237.52453 
L 181.774913 236.466709 
L 182.464095 235.529282 
L 182.007165 234.471458 
L 182.69635 233.534031 
L 182.239419 232.476205 
L 181.0933 232.355808 
L 180.636364 231.297981 
L 181.325551 230.36055 
L 180.868615 229.302721 
L 179.722487 229.182323 
L 179.265545 228.124493 
L 178.119412 228.004097 
L 177.662466 226.946266 
L 178.351655 226.008829 
L 177.894708 224.950995 
L 176.748566 224.830599 
L 176.291613 223.772764 
L 175.145467 223.65237 
L 174.688509 222.594534 
L 175.377701 221.657091 
L 174.920742 220.599253 
L 173.774587 220.478858 
L 173.317623 219.421019 
L 174.006818 218.483573 
L 173.549853 217.425731 
L 174.239051 216.488284 
L 173.782085 215.43044 
L 174.471286 214.492993 
L 174.014319 213.435147 
L 174.703522 212.4977 
L 174.246554 211.439852 
L 174.93576 210.502404 
L 174.47879 209.444553 
L 173.332611 209.324151 
L 172.875636 208.2663 
L 173.564845 207.328848 
L 173.107869 206.270994 
L 171.961681 206.150593 
L 171.5047 205.092737 
L 172.193912 204.155283 
L 171.73693 203.097426 
L 170.590733 202.977024 
L 170.133746 201.919165 
L 168.987544 201.798765 
L 168.530552 200.740905 
L 167.384345 200.620507 
L 166.927348 199.562646 
L 167.616562 198.625183 
L 167.159564 197.567319 
L 166.013348 197.446921 
L 165.556346 196.389057 
L 166.245563 195.45159 
L 165.788559 194.393723 
L 164.642334 194.273325 
L 164.185325 193.215457 
L 163.039095 193.09506 
L 162.582081 192.037192 
L 161.435847 191.916797 
L 160.978828 190.858927 
L 161.668047 189.921451 
L 161.211027 188.863579 
L 160.064784 188.743183 
L 159.607759 187.68531 
L 160.296981 186.747831 
L 159.839955 185.689955 
L 158.693703 185.56956 
L 158.236672 184.511683 
L 158.925897 183.574201 
L 158.468864 182.516322 
L 157.322603 182.395927 
L 156.865566 181.338047 
L 157.554794 180.400561 
L 157.097756 179.342678 
L 157.786986 178.405192 
L 157.329947 177.347308 
L 158.01918 176.409821 
L 157.562139 175.351934 
L 158.251375 174.414447 
L 157.794334 173.356558 
L 156.648052 173.236157 
L 156.191005 172.178267 
L 155.044719 172.057868 
L 154.587667 170.999977 
L 155.276906 170.062483 
L 154.819853 169.00459 
L 155.509094 168.067096 
L 155.05204 167.0092 
L 155.741285 166.071706 
L 155.28423 165.013808 
L 155.973477 164.076313 
L 155.516421 163.018413 
L 154.370113 162.898009 
L 153.913052 161.840107 
L 154.602302 160.902609 
L 154.14524 159.844706 
L 152.998924 159.724301 
L 152.541856 158.666396 
L 151.395536 158.545994 
L 150.938463 157.488088 
L 151.627716 156.550584 
L 151.170642 155.492675 
L 150.024313 155.372272 
L 149.567234 154.314363 
L 150.256489 153.376856 
L 149.79941 152.318944 
L 148.653071 152.198541 
L 148.195987 151.140629 
L 148.885245 150.203118 
L 148.428159 149.145203 
L 149.11742 148.207692 
L 148.660333 147.149775 
" clip-path="url(#p4b4949841e)" style="fill: #40e0d0"/>
   </g>
   <g id="matplotlib.axis_1">
    <g id="xtick_1">
     <g id="line2d_1">
      <defs>
       <path id="m0afd0cc41e" d="M 0 0 
L 0 3.5 
" style="stroke: #000000; stroke-width: 0.8"/>
      </defs>
      <g>
       <use xlink:href="#m0afd0cc41e" x="124.951845" y="307.584" style="stroke: #000000; stroke-width: 0.8"/>
      </g>
     </g>
     <g id="text_1">
      <!-- 0.08 -->
      <g transform="translate(109.629188 322.182437) scale(0.1 -0.1)">
       <defs>
        <path id="DejaVuSans-2212" d="M 678 2272 
L 4684 2272 
L 4684 1741 
L 678 1741 
L 678 2272 
z
" transform="scale(0.015625)"/>
        <path id="DejaVuSans-30" d="M 2034 4250 
Q 1547 4250 1301 3770 
Q 1056 3291 1056 2328 
Q 1056 1369 1301 889 
Q 1547 409 2034 409 
Q 2525 409 2770 889 
Q 3016 1369 3016 2328 
Q 3016 3291 2770 3770 
Q 2525 4250 2034 4250 
z
M 2034 4750 
Q 2819 4750 3233 4129 
Q 3647 3509 3647 2328 
Q 3647 1150 3233 529 
Q 2819 -91 2034 -91 
Q 1250 -91 836 529 
Q 422 1150 422 2328 
Q 422 3509 836 4129 
Q 1250 4750 2034 4750 
z
" transform="scale(0.015625)"/>
        <path id="DejaVuSans-2e" d="M 684 794 
L 1344 794 
L 1344 0 
L 684 0 
L 684 794 
z
" transform="scale(0.015625)"/>
        <path id="DejaVuSans-38" d="M 2034 2216 
Q 1584 2216 1326 1975 
Q 1069 1734 1069 1313 
Q 1069 891 1326 650 
Q 1584 409 2034 409 
Q 2484 409 2743 651 
Q 3003 894 3003 1313 
Q 3003 1734 2745 1975 
Q 2488 2216 2034 2216 
z
M 1403 2484 
Q 997 2584 770 2862 
Q 544 3141 544 3541 
Q 544 4100 942 4425 
Q 1341 4750 2034 4750 
Q 2731 4750 3128 4425 
Q 3525 4100 3525 3541 
Q 3525 3141 3298 2862 
Q 3072 2584 2669 2484 
Q 3125 2378 3379 2068 
Q 3634 1759 3634 1313 
Q 3634 634 3220 271 
Q 2806 -91 2034 -91 
Q 1263 -91 848 271 
Q 434 634 434 1313 
Q 434 1759 690 2068 
Q 947 2378 1403 2484 
z
M 1172 3481 
Q 1172 3119 1398 2916 
Q 1625 2713 2034 2713 
Q 2441 2713 2670 2916 
Q 2900 3119 2900 3481 
Q 2900 3844 2670 4047 
Q 2441 4250 2034 4250 
Q 1625 4250 1398 4047 
Q 1172 3844 1172 3481 
z
" transform="scale(0.015625)"/>
       </defs>
       <use xlink:href="#DejaVuSans-2212"/>
       <use xlink:href="#DejaVuSans-30" x="83.789062"/>
       <use xlink:href="#DejaVuSans-2e" x="147.412109"/>
       <use xlink:href="#DejaVuSans-30" x="179.199219"/>
       <use xlink:href="#DejaVuSans-38" x="242.822266"/>
      </g>
     </g>
    </g>
    <g id="xtick_2">
     <g id="line2d_2">
      <g>
       <use xlink:href="#m0afd0cc41e" x="164.123636" y="307.584" style="stroke: #000000; stroke-width: 0.8"/>
      </g>
     </g>
     <g id="text_2">
      <!-- 0.07 -->
      <g transform="translate(148.80098 322.182437) scale(0.1 -0.1)">
       <defs>
        <path id="DejaVuSans-37" d="M 525 4666 
L 3525 4666 
L 3525 4397 
L 1831 0 
L 1172 0 
L 2766 4134 
L 525 4134 
L 525 4666 
z
" transform="scale(0.015625)"/>
       </defs>
       <use xlink:href="#DejaVuSans-2212"/>
       <use xlink:href="#DejaVuSans-30" x="83.789062"/>
       <use xlink:href="#DejaVuSans-2e" x="147.412109"/>
       <use xlink:href="#DejaVuSans-30" x="179.199219"/>
       <use xlink:href="#DejaVuSans-37" x="242.822266"/>
      </g>
     </g>
    </g>
    <g id="xtick_3">
     <g id="line2d_3">
      <g>
       <use xlink:href="#m0afd0cc41e" x="203.295428" y="307.584" style="stroke: #000000; stroke-width: 0.8"/>
      </g>
     </g>
     <g id="text_3">
      <!-- 0.06 -->
      <g transform="translate(187.972771 322.182437) scale(0.1 -0.1)">
       <defs>
        <path id="DejaVuSans-36" d="M 2113 2584 
Q 1688 2584 1439 2293 
Q 1191 2003 1191 1497 
Q 1191 994 1439 701 
Q 1688 409 2113 409 
Q 2538 409 2786 701 
Q 3034 994 3034 1497 
Q 3034 2003 2786 2293 
Q 2538 2584 2113 2584 
z
M 3366 4563 
L 3366 3988 
Q 3128 4100 2886 4159 
Q 2644 4219 2406 4219 
Q 1781 4219 1451 3797 
Q 1122 3375 1075 2522 
Q 1259 2794 1537 2939 
Q 1816 3084 2150 3084 
Q 2853 3084 3261 2657 
Q 3669 2231 3669 1497 
Q 3669 778 3244 343 
Q 2819 -91 2113 -91 
Q 1303 -91 875 529 
Q 447 1150 447 2328 
Q 447 3434 972 4092 
Q 1497 4750 2381 4750 
Q 2619 4750 2861 4703 
Q 3103 4656 3366 4563 
z
" transform="scale(0.015625)"/>
       </defs>
       <use xlink:href="#DejaVuSans-2212"/>
       <use xlink:href="#DejaVuSans-30" x="83.789062"/>
       <use xlink:href="#DejaVuSans-2e" x="147.412109"/>
       <use xlink:href="#DejaVuSans-30" x="179.199219"/>
       <use xlink:href="#DejaVuSans-36" x="242.822266"/>
      </g>
     </g>
    </g>
    <g id="xtick_4">
     <g id="line2d_4">
      <g>
       <use xlink:href="#m0afd0cc41e" x="242.467219" y="307.584" style="stroke: #000000; stroke-width: 0.8"/>
      </g>
     </g>
     <g id="text_4">
      <!-- 0.05 -->
      <g transform="translate(227.144563 322.182437) scale(0.1 -0.1)">
       <defs>
        <path id="DejaVuSans-35" d="M 691 4666 
L 3169 4666 
L 3169 4134 
L 1269 4134 
L 1269 2991 
Q 1406 3038 1543 3061 
Q 1681 3084 1819 3084 
Q 2600 3084 3056 2656 
Q 3513 2228 3513 1497 
Q 3513 744 3044 326 
Q 2575 -91 1722 -91 
Q 1428 -91 1123 -41 
Q 819 9 494 109 
L 494 744 
Q 775 591 1075 516 
Q 1375 441 1709 441 
Q 2250 441 2565 725 
Q 2881 1009 2881 1497 
Q 2881 1984 2565 2268 
Q 2250 2553 1709 2553 
Q 1456 2553 1204 2497 
Q 953 2441 691 2322 
L 691 4666 
z
" transform="scale(0.015625)"/>
       </defs>
       <use xlink:href="#DejaVuSans-2212"/>
       <use xlink:href="#DejaVuSans-30" x="83.789062"/>
       <use xlink:href="#DejaVuSans-2e" x="147.412109"/>
       <use xlink:href="#DejaVuSans-30" x="179.199219"/>
       <use xlink:href="#DejaVuSans-35" x="242.822266"/>
      </g>
     </g>
    </g>
    <g id="xtick_5">
     <g id="line2d_5">
      <g>
       <use xlink:href="#m0afd0cc41e" x="281.639011" y="307.584" style="stroke: #000000; stroke-width: 0.8"/>
      </g>
     </g>
     <g id="text_5">
      <!-- 0.04 -->
      <g transform="translate(266.316355 322.182437) scale(0.1 -0.1)">
       <defs>
        <path id="DejaVuSans-34" d="M 2419 4116 
L 825 1625 
L 2419 1625 
L 2419 4116 
z
M 2253 4666 
L 3047 4666 
L 3047 1625 
L 3713 1625 
L 3713 1100 
L 3047 1100 
L 3047 0 
L 2419 0 
L 2419 1100 
L 313 1100 
L 313 1709 
L 2253 4666 
z
" transform="scale(0.015625)"/>
       </defs>
       <use xlink:href="#DejaVuSans-2212"/>
       <use xlink:href="#DejaVuSans-30" x="83.789062"/>
       <use xlink:href="#DejaVuSans-2e" x="147.412109"/>
       <use xlink:href="#DejaVuSans-30" x="179.199219"/>
       <use xlink:href="#DejaVuSans-34" x="242.822266"/>
      </g>
     </g>
    </g>
    <g id="xtick_6">
     <g id="line2d_6">
      <g>
       <use xlink:href="#m0afd0cc41e" x="320.810802" y="307.584" style="stroke: #000000; stroke-width: 0.8"/>
      </g>
     </g>
     <g id="text_6">
      <!-- 0.03 -->
      <g transform="translate(305.488146 322.182437) scale(0.1 -0.1)">
       <defs>
        <path id="DejaVuSans-33" d="M 2597 2516 
Q 3050 2419 3304 2112 
Q 3559 1806 3559 1356 
Q 3559 666 3084 287 
Q 2609 -91 1734 -91 
Q 1441 -91 1130 -33 
Q 819 25 488 141 
L 488 750 
Q 750 597 1062 519 
Q 1375 441 1716 441 
Q 2309 441 2620 675 
Q 2931 909 2931 1356 
Q 2931 1769 2642 2001 
Q 2353 2234 1838 2234 
L 1294 2234 
L 1294 2753 
L 1863 2753 
Q 2328 2753 2575 2939 
Q 2822 3125 2822 3475 
Q 2822 3834 2567 4026 
Q 2313 4219 1838 4219 
Q 1578 4219 1281 4162 
Q 984 4106 628 3988 
L 628 4550 
Q 988 4650 1302 4700 
Q 1616 4750 1894 4750 
Q 2613 4750 3031 4423 
Q 3450 4097 3450 3541 
Q 3450 3153 3228 2886 
Q 3006 2619 2597 2516 
z
" transform="scale(0.015625)"/>
       </defs>
       <use xlink:href="#DejaVuSans-2212"/>
       <use xlink:href="#DejaVuSans-30" x="83.789062"/>
       <use xlink:href="#DejaVuSans-2e" x="147.412109"/>
       <use xlink:href="#DejaVuSans-30" x="179.199219"/>
       <use xlink:href="#DejaVuSans-33" x="242.822266"/>
      </g>
     </g>
    </g>
    <g id="xtick_7">
     <g id="line2d_7">
      <g>
       <use xlink:href="#m0afd0cc41e" x="359.982594" y="307.584" style="stroke: #000000; stroke-width: 0.8"/>
      </g>
     </g>
     <g id="text_7">
      <!-- 0.02 -->
      <g transform="translate(344.659938 322.182437) scale(0.1 -0.1)">
       <defs>
        <path id="DejaVuSans-32" d="M 1228 531 
L 3431 531 
L 3431 0 
L 469 0 
L 469 531 
Q 828 903 1448 1529 
Q 2069 2156 2228 2338 
Q 2531 2678 2651 2914 
Q 2772 3150 2772 3378 
Q 2772 3750 2511 3984 
Q 2250 4219 1831 4219 
Q 1534 4219 1204 4116 
Q 875 4013 500 3803 
L 500 4441 
Q 881 4594 1212 4672 
Q 1544 4750 1819 4750 
Q 2544 4750 2975 4387 
Q 3406 4025 3406 3419 
Q 3406 3131 3298 2873 
Q 3191 2616 2906 2266 
Q 2828 2175 2409 1742 
Q 1991 1309 1228 531 
z
" transform="scale(0.015625)"/>
       </defs>
       <use xlink:href="#DejaVuSans-2212"/>
       <use xlink:href="#DejaVuSans-30" x="83.789062"/>
       <use xlink:href="#DejaVuSans-2e" x="147.412109"/>
       <use xlink:href="#DejaVuSans-30" x="179.199219"/>
       <use xlink:href="#DejaVuSans-32" x="242.822266"/>
      </g>
     </g>
    </g>
    <g id="text_8">
     <!-- 1.001e2 -->
     <g transform="translate(316.655296 334.860562) scale(0.1 -0.1)">
      <defs>
       <path id="DejaVuSans-31" d="M 794 531 
L 1825 531 
L 1825 4091 
L 703 3866 
L 703 4441 
L 1819 4666 
L 2450 4666 
L 2450 531 
L 3481 531 
L 3481 0 
L 794 0 
L 794 531 
z
" transform="scale(0.015625)"/>
       <path id="DejaVuSans-65" d="M 3597 1894 
L 3597 1613 
L 953 1613 
Q 991 1019 1311 708 
Q 1631 397 2203 397 
Q 2534 397 2845 478 
Q 3156 559 3463 722 
L 3463 178 
Q 3153 47 2828 -22 
Q 2503 -91 2169 -91 
Q 1331 -91 842 396 
Q 353 884 353 1716 
Q 353 2575 817 3079 
Q 1281 3584 2069 3584 
Q 2775 3584 3186 3129 
Q 3597 2675 3597 1894 
z
M 3022 2063 
Q 3016 2534 2758 2815 
Q 2500 3097 2075 3097 
Q 1594 3097 1305 2825 
Q 1016 2553 972 2059 
L 3022 2063 
z
" transform="scale(0.015625)"/>
      </defs>
      <use xlink:href="#DejaVuSans-2212"/>
      <use xlink:href="#DejaVuSans-31" x="83.789062"/>
      <use xlink:href="#DejaVuSans-2e" x="147.412109"/>
      <use xlink:href="#DejaVuSans-30" x="179.199219"/>
      <use xlink:href="#DejaVuSans-30" x="242.822266"/>
      <use xlink:href="#DejaVuSans-31" x="306.445312"/>
      <use xlink:href="#DejaVuSans-65" x="370.068359"/>
      <use xlink:href="#DejaVuSans-32" x="431.591797"/>
     </g>
    </g>
   </g>
   <g id="matplotlib.axis_2">
    <g id="ytick_1">
     <g id="line2d_8">
      <defs>
       <path id="m392152885e" d="M 0 0 
L -3.5 0 
" style="stroke: #000000; stroke-width: 0.8"/>
      </defs>
      <g>
       <use xlink:href="#m392152885e" x="106.141267" y="281.687343" style="stroke: #000000; stroke-width: 0.8"/>
      </g>
     </g>
     <g id="text_9">
      <!-- 19.17 -->
      <g transform="translate(70.513142 285.486562) scale(0.1 -0.1)">
       <defs>
        <path id="DejaVuSans-39" d="M 703 97 
L 703 672 
Q 941 559 1184 500 
Q 1428 441 1663 441 
Q 2288 441 2617 861 
Q 2947 1281 2994 2138 
Q 2813 1869 2534 1725 
Q 2256 1581 1919 1581 
Q 1219 1581 811 2004 
Q 403 2428 403 3163 
Q 403 3881 828 4315 
Q 1253 4750 1959 4750 
Q 2769 4750 3195 4129 
Q 3622 3509 3622 2328 
Q 3622 1225 3098 567 
Q 2575 -91 1691 -91 
Q 1453 -91 1209 -44 
Q 966 3 703 97 
z
M 1959 2075 
Q 2384 2075 2632 2365 
Q 2881 2656 2881 3163 
Q 2881 3666 2632 3958 
Q 2384 4250 1959 4250 
Q 1534 4250 1286 3958 
Q 1038 3666 1038 3163 
Q 1038 2656 1286 2365 
Q 1534 2075 1959 2075 
z
" transform="scale(0.015625)"/>
       </defs>
       <use xlink:href="#DejaVuSans-31"/>
       <use xlink:href="#DejaVuSans-39" x="63.623047"/>
       <use xlink:href="#DejaVuSans-2e" x="127.246094"/>
       <use xlink:href="#DejaVuSans-31" x="159.033203"/>
       <use xlink:href="#DejaVuSans-37" x="222.65625"/>
      </g>
     </g>
    </g>
    <g id="ytick_2">
     <g id="line2d_9">
      <g>
       <use xlink:href="#m392152885e" x="106.141267" y="240.209388" style="stroke: #000000; stroke-width: 0.8"/>
      </g>
     </g>
     <g id="text_10">
      <!-- 19.18 -->
      <g transform="translate(70.513142 244.008607) scale(0.1 -0.1)">
       <use xlink:href="#DejaVuSans-31"/>
       <use xlink:href="#DejaVuSans-39" x="63.623047"/>
       <use xlink:href="#DejaVuSans-2e" x="127.246094"/>
       <use xlink:href="#DejaVuSans-31" x="159.033203"/>
       <use xlink:href="#DejaVuSans-38" x="222.65625"/>
      </g>
     </g>
    </g>
    <g id="ytick_3">
     <g id="line2d_10">
      <g>
       <use xlink:href="#m392152885e" x="106.141267" y="198.731434" style="stroke: #000000; stroke-width: 0.8"/>
      </g>
     </g>
     <g id="text_11">
      <!-- 19.19 -->
      <g transform="translate(70.513142 202.530653) scale(0.1 -0.1)">
       <use xlink:href="#DejaVuSans-31"/>
       <use xlink:href="#DejaVuSans-39" x="63.623047"/>
       <use xlink:href="#DejaVuSans-2e" x="127.246094"/>
       <use xlink:href="#DejaVuSans-31" x="159.033203"/>
       <use xlink:href="#DejaVuSans-39" x="222.65625"/>
      </g>
     </g>
    </g>
    <g id="ytick_4">
     <g id="line2d_11">
      <g>
       <use xlink:href="#m392152885e" x="106.141267" y="157.253479" style="stroke: #000000; stroke-width: 0.8"/>
      </g>
     </g>
     <g id="text_12">
      <!-- 19.20 -->
      <g transform="translate(70.513142 161.052698) scale(0.1 -0.1)">
       <use xlink:href="#DejaVuSans-31"/>
       <use xlink:href="#DejaVuSans-39" x="63.623047"/>
       <use xlink:href="#DejaVuSans-2e" x="127.246094"/>
       <use xlink:href="#DejaVuSans-32" x="159.033203"/>
       <use xlink:href="#DejaVuSans-30" x="222.65625"/>
      </g>
     </g>
    </g>
    <g id="ytick_5">
     <g id="line2d_12">
      <g>
       <use xlink:href="#m392152885e" x="106.141267" y="115.775525" style="stroke: #000000; stroke-width: 0.8"/>
      </g>
     </g>
     <g id="text_13">
      <!-- 19.21 -->
      <g transform="translate(70.513142 119.574744) scale(0.1 -0.1)">
       <use xlink:href="#DejaVuSans-31"/>
       <use xlink:href="#DejaVuSans-39" x="63.623047"/>
       <use xlink:href="#DejaVuSans-2e" x="127.246094"/>
       <use xlink:href="#DejaVuSans-32" x="159.033203"/>
       <use xlink:href="#DejaVuSans-31" x="222.65625"/>
      </g>
     </g>
    </g>
    <g id="ytick_6">
     <g id="line2d_13">
      <g>
       <use xlink:href="#m392152885e" x="106.141267" y="74.29757" style="stroke: #000000; stroke-width: 0.8"/>
      </g>
     </g>
     <g id="text_14">
      <!-- 19.22 -->
      <g transform="translate(70.513142 78.096789) scale(0.1 -0.1)">
       <use xlink:href="#DejaVuSans-31"/>
       <use xlink:href="#DejaVuSans-39" x="63.623047"/>
       <use xlink:href="#DejaVuSans-2e" x="127.246094"/>
       <use xlink:href="#DejaVuSans-32" x="159.033203"/>
       <use xlink:href="#DejaVuSans-32" x="222.65625"/>
      </g>
     </g>
    </g>
   </g>
   <g id="patch_3">
    <path d="M 106.141267 307.584 
L 106.141267 41.472 
" style="fill: none; stroke: #000000; stroke-width: 0.8; stroke-linejoin: miter; stroke-linecap: square"/>
   </g>
   <g id="patch_4">
    <path d="M 366.178733 307.584 
L 366.178733 41.472 
" style="fill: none; stroke: #000000; stroke-width: 0.8; stroke-linejoin: miter; stroke-linecap: square"/>
   </g>
   <g id="patch_5">
    <path d="M 106.141267 307.584 
L 366.178733 307.584 
" style="fill: none; stroke: #000000; stroke-width: 0.8; stroke-linejoin: miter; stroke-linecap: square"/>
   </g>
   <g id="patch_6">
    <path d="M 106.141267 41.472 
L 366.178733 41.472 
" style="fill: none; stroke: #000000; stroke-width: 0.8; stroke-linejoin: miter; stroke-linecap: square"/>
   </g>
   <g id="text_15">
    <!-- presa_valledebravo_hehaviour in 2023-08 -->
    <g transform="translate(110.110313 35.472) scale(0.12 -0.12)">
     <defs>
      <path id="DejaVuSans-70" d="M 1159 525 
L 1159 -1331 
L 581 -1331 
L 581 3500 
L 1159 3500 
L 1159 2969 
Q 1341 3281 1617 3432 
Q 1894 3584 2278 3584 
Q 2916 3584 3314 3078 
Q 3713 2572 3713 1747 
Q 3713 922 3314 415 
Q 2916 -91 2278 -91 
Q 1894 -91 1617 61 
Q 1341 213 1159 525 
z
M 3116 1747 
Q 3116 2381 2855 2742 
Q 2594 3103 2138 3103 
Q 1681 3103 1420 2742 
Q 1159 2381 1159 1747 
Q 1159 1113 1420 752 
Q 1681 391 2138 391 
Q 2594 391 2855 752 
Q 3116 1113 3116 1747 
z
" transform="scale(0.015625)"/>
      <path id="DejaVuSans-72" d="M 2631 2963 
Q 2534 3019 2420 3045 
Q 2306 3072 2169 3072 
Q 1681 3072 1420 2755 
Q 1159 2438 1159 1844 
L 1159 0 
L 581 0 
L 581 3500 
L 1159 3500 
L 1159 2956 
Q 1341 3275 1631 3429 
Q 1922 3584 2338 3584 
Q 2397 3584 2469 3576 
Q 2541 3569 2628 3553 
L 2631 2963 
z
" transform="scale(0.015625)"/>
      <path id="DejaVuSans-73" d="M 2834 3397 
L 2834 2853 
Q 2591 2978 2328 3040 
Q 2066 3103 1784 3103 
Q 1356 3103 1142 2972 
Q 928 2841 928 2578 
Q 928 2378 1081 2264 
Q 1234 2150 1697 2047 
L 1894 2003 
Q 2506 1872 2764 1633 
Q 3022 1394 3022 966 
Q 3022 478 2636 193 
Q 2250 -91 1575 -91 
Q 1294 -91 989 -36 
Q 684 19 347 128 
L 347 722 
Q 666 556 975 473 
Q 1284 391 1588 391 
Q 1994 391 2212 530 
Q 2431 669 2431 922 
Q 2431 1156 2273 1281 
Q 2116 1406 1581 1522 
L 1381 1569 
Q 847 1681 609 1914 
Q 372 2147 372 2553 
Q 372 3047 722 3315 
Q 1072 3584 1716 3584 
Q 2034 3584 2315 3537 
Q 2597 3491 2834 3397 
z
" transform="scale(0.015625)"/>
      <path id="DejaVuSans-61" d="M 2194 1759 
Q 1497 1759 1228 1600 
Q 959 1441 959 1056 
Q 959 750 1161 570 
Q 1363 391 1709 391 
Q 2188 391 2477 730 
Q 2766 1069 2766 1631 
L 2766 1759 
L 2194 1759 
z
M 3341 1997 
L 3341 0 
L 2766 0 
L 2766 531 
Q 2569 213 2275 61 
Q 1981 -91 1556 -91 
Q 1019 -91 701 211 
Q 384 513 384 1019 
Q 384 1609 779 1909 
Q 1175 2209 1959 2209 
L 2766 2209 
L 2766 2266 
Q 2766 2663 2505 2880 
Q 2244 3097 1772 3097 
Q 1472 3097 1187 3025 
Q 903 2953 641 2809 
L 641 3341 
Q 956 3463 1253 3523 
Q 1550 3584 1831 3584 
Q 2591 3584 2966 3190 
Q 3341 2797 3341 1997 
z
" transform="scale(0.015625)"/>
      <path id="DejaVuSans-5f" d="M 3263 -1063 
L 3263 -1509 
L -63 -1509 
L -63 -1063 
L 3263 -1063 
z
" transform="scale(0.015625)"/>
      <path id="DejaVuSans-76" d="M 191 3500 
L 800 3500 
L 1894 563 
L 2988 3500 
L 3597 3500 
L 2284 0 
L 1503 0 
L 191 3500 
z
" transform="scale(0.015625)"/>
      <path id="DejaVuSans-6c" d="M 603 4863 
L 1178 4863 
L 1178 0 
L 603 0 
L 603 4863 
z
" transform="scale(0.015625)"/>
      <path id="DejaVuSans-64" d="M 2906 2969 
L 2906 4863 
L 3481 4863 
L 3481 0 
L 2906 0 
L 2906 525 
Q 2725 213 2448 61 
Q 2172 -91 1784 -91 
Q 1150 -91 751 415 
Q 353 922 353 1747 
Q 353 2572 751 3078 
Q 1150 3584 1784 3584 
Q 2172 3584 2448 3432 
Q 2725 3281 2906 2969 
z
M 947 1747 
Q 947 1113 1208 752 
Q 1469 391 1925 391 
Q 2381 391 2643 752 
Q 2906 1113 2906 1747 
Q 2906 2381 2643 2742 
Q 2381 3103 1925 3103 
Q 1469 3103 1208 2742 
Q 947 2381 947 1747 
z
" transform="scale(0.015625)"/>
      <path id="DejaVuSans-62" d="M 3116 1747 
Q 3116 2381 2855 2742 
Q 2594 3103 2138 3103 
Q 1681 3103 1420 2742 
Q 1159 2381 1159 1747 
Q 1159 1113 1420 752 
Q 1681 391 2138 391 
Q 2594 391 2855 752 
Q 3116 1113 3116 1747 
z
M 1159 2969 
Q 1341 3281 1617 3432 
Q 1894 3584 2278 3584 
Q 2916 3584 3314 3078 
Q 3713 2572 3713 1747 
Q 3713 922 3314 415 
Q 2916 -91 2278 -91 
Q 1894 -91 1617 61 
Q 1341 213 1159 525 
L 1159 0 
L 581 0 
L 581 4863 
L 1159 4863 
L 1159 2969 
z
" transform="scale(0.015625)"/>
      <path id="DejaVuSans-6f" d="M 1959 3097 
Q 1497 3097 1228 2736 
Q 959 2375 959 1747 
Q 959 1119 1226 758 
Q 1494 397 1959 397 
Q 2419 397 2687 759 
Q 2956 1122 2956 1747 
Q 2956 2369 2687 2733 
Q 2419 3097 1959 3097 
z
M 1959 3584 
Q 2709 3584 3137 3096 
Q 3566 2609 3566 1747 
Q 3566 888 3137 398 
Q 2709 -91 1959 -91 
Q 1206 -91 779 398 
Q 353 888 353 1747 
Q 353 2609 779 3096 
Q 1206 3584 1959 3584 
z
" transform="scale(0.015625)"/>
      <path id="DejaVuSans-68" d="M 3513 2113 
L 3513 0 
L 2938 0 
L 2938 2094 
Q 2938 2591 2744 2837 
Q 2550 3084 2163 3084 
Q 1697 3084 1428 2787 
Q 1159 2491 1159 1978 
L 1159 0 
L 581 0 
L 581 4863 
L 1159 4863 
L 1159 2956 
Q 1366 3272 1645 3428 
Q 1925 3584 2291 3584 
Q 2894 3584 3203 3211 
Q 3513 2838 3513 2113 
z
" transform="scale(0.015625)"/>
      <path id="DejaVuSans-69" d="M 603 3500 
L 1178 3500 
L 1178 0 
L 603 0 
L 603 3500 
z
M 603 4863 
L 1178 4863 
L 1178 4134 
L 603 4134 
L 603 4863 
z
" transform="scale(0.015625)"/>
      <path id="DejaVuSans-75" d="M 544 1381 
L 544 3500 
L 1119 3500 
L 1119 1403 
Q 1119 906 1312 657 
Q 1506 409 1894 409 
Q 2359 409 2629 706 
Q 2900 1003 2900 1516 
L 2900 3500 
L 3475 3500 
L 3475 0 
L 2900 0 
L 2900 538 
Q 2691 219 2414 64 
Q 2138 -91 1772 -91 
Q 1169 -91 856 284 
Q 544 659 544 1381 
z
M 1991 3584 
L 1991 3584 
z
" transform="scale(0.015625)"/>
      <path id="DejaVuSans-20" transform="scale(0.015625)"/>
      <path id="DejaVuSans-6e" d="M 3513 2113 
L 3513 0 
L 2938 0 
L 2938 2094 
Q 2938 2591 2744 2837 
Q 2550 3084 2163 3084 
Q 1697 3084 1428 2787 
Q 1159 2491 1159 1978 
L 1159 0 
L 581 0 
L 581 3500 
L 1159 3500 
L 1159 2956 
Q 1366 3272 1645 3428 
Q 1925 3584 2291 3584 
Q 2894 3584 3203 3211 
Q 3513 2838 3513 2113 
z
" transform="scale(0.015625)"/>
      <path id="DejaVuSans-2d" d="M 313 2009 
L 1997 2009 
L 1997 1497 
L 313 1497 
L 313 2009 
z
" transform="scale(0.015625)"/>
     </defs>
     <use xlink:href="#DejaVuSans-70"/>
     <use xlink:href="#DejaVuSans-72" x="63.476562"/>
     <use xlink:href="#DejaVuSans-65" x="102.339844"/>
     <use xlink:href="#DejaVuSans-73" x="163.863281"/>
     <use xlink:href="#DejaVuSans-61" x="215.962891"/>
     <use xlink:href="#DejaVuSans-5f" x="277.242188"/>
     <use xlink:href="#DejaVuSans-76" x="327.242188"/>
     <use xlink:href="#DejaVuSans-61" x="386.421875"/>
     <use xlink:href="#DejaVuSans-6c" x="447.701172"/>
     <use xlink:href="#DejaVuSans-6c" x="475.484375"/>
     <use xlink:href="#DejaVuSans-65" x="503.267578"/>
     <use xlink:href="#DejaVuSans-64" x="564.791016"/>
     <use xlink:href="#DejaVuSans-65" x="628.267578"/>
     <use xlink:href="#DejaVuSans-62" x="689.791016"/>
     <use xlink:href="#DejaVuSans-72" x="753.267578"/>
     <use xlink:href="#DejaVuSans-61" x="794.380859"/>
     <use xlink:href="#DejaVuSans-76" x="855.660156"/>
     <use xlink:href="#DejaVuSans-6f" x="914.839844"/>
     <use xlink:href="#DejaVuSans-5f" x="976.021484"/>
     <use xlink:href="#DejaVuSans-68" x="1026.021484"/>
     <use xlink:href="#DejaVuSans-65" x="1089.400391"/>
     <use xlink:href="#DejaVuSans-68" x="1150.923828"/>
     <use xlink:href="#DejaVuSans-61" x="1214.302734"/>
     <use xlink:href="#DejaVuSans-76" x="1275.582031"/>
     <use xlink:href="#DejaVuSans-69" x="1334.761719"/>
     <use xlink:href="#DejaVuSans-6f" x="1362.544922"/>
     <use xlink:href="#DejaVuSans-75" x="1423.726562"/>
     <use xlink:href="#DejaVuSans-72" x="1487.105469"/>
     <use xlink:href="#DejaVuSans-20" x="1528.21875"/>
     <use xlink:href="#DejaVuSans-69" x="1560.005859"/>
     <use xlink:href="#DejaVuSans-6e" x="1587.789062"/>
     <use xlink:href="#DejaVuSans-20" x="1651.167969"/>
     <use xlink:href="#DejaVuSans-32" x="1682.955078"/>
     <use xlink:href="#DejaVuSans-30" x="1746.578125"/>
     <use xlink:href="#DejaVuSans-32" x="1810.201172"/>
     <use xlink:href="#DejaVuSans-33" x="1873.824219"/>
     <use xlink:href="#DejaVuSans-2d" x="1937.447266"/>
     <use xlink:href="#DejaVuSans-30" x="1973.53125"/>
     <use xlink:href="#DejaVuSans-38" x="2037.154297"/>
    </g>
   </g>
  </g>
 </g>
 <defs>
  <clipPath id="p4b4949841e">
   <rect x="106.141267" y="41.472" width="260.037467" height="266.112"/>
  </clipPath>
 </defs>
</svg>
