<?xml version="1.0" encoding="utf-8" standalone="no"?>
<!DOCTYPE svg PUBLIC "-//W3C//DTD SVG 1.1//EN"
  "http://www.w3.org/Graphics/SVG/1.1/DTD/svg11.dtd">
<svg xmlns:xlink="http://www.w3.org/1999/xlink" width="460.8pt" height="345.6pt" viewBox="0 0 460.8 345.6" xmlns="http://www.w3.org/2000/svg" version="1.1">
 <metadata>
  <rdf:RDF xmlns:dc="http://purl.org/dc/elements/1.1/" xmlns:cc="http://creativecommons.org/ns#" xmlns:rdf="http://www.w3.org/1999/02/22-rdf-syntax-ns#">
   <cc:Work>
    <dc:type rdf:resource="http://purl.org/dc/dcmitype/StillImage"/>
    <dc:date>2024-03-22T17:58:10.974030</dc:date>
    <dc:format>image/svg+xml</dc:format>
    <dc:creator>
     <cc:Agent>
      <dc:title>Matplotlib v3.8.0, https://matplotlib.org/</dc:title>
     </cc:Agent>
    </dc:creator>
   </cc:Work>
  </rdf:RDF>
 </metadata>
 <defs>
  <style type="text/css">*{stroke-linejoin: round; stroke-linecap: butt}</style>
 </defs>
 <g id="figure_1">
  <g id="patch_1">
   <path d="M 0 345.6 
L 460.8 345.6 
L 460.8 0 
L 0 0 
z
" style="fill: #ffffff"/>
  </g>
  <g id="axes_1">
   <g id="patch_2">
    <path d="M 57.6 270.834069 
L 414.72 270.834069 
L 414.72 78.221931 
L 57.6 78.221931 
z
" style="fill: #ffffff"/>
   </g>
   <g id="PatchCollection_1">
    <path d="M 90.181273 179.888825 
L 89.83097 179.075329 
L 88.950689 178.981656 
L 88.600382 178.168159 
L 87.720096 178.074487 
L 87.190121 178.794314 
L 86.309836 178.700645 
L 85.779863 179.420473 
L 84.899576 179.326807 
L 84.369606 180.046637 
L 83.489318 179.952973 
L 82.95935 180.672806 
L 82.079062 180.579145 
L 81.728739 179.76565 
L 80.848447 179.671991 
L 80.498121 178.858495 
L 79.617825 178.764837 
L 79.267495 177.951341 
L 79.797463 177.231502 
L 79.447131 176.418004 
L 79.977102 175.698165 
L 79.62677 174.884666 
L 80.156742 174.164826 
L 79.806409 173.351325 
L 80.336384 172.631485 
L 81.216692 172.725149 
L 81.746668 172.005312 
L 81.396337 171.191808 
L 81.926317 170.47197 
L 81.575985 169.658465 
L 82.105966 168.938626 
L 81.755633 168.12512 
L 82.285617 167.405281 
L 83.165933 167.498952 
L 83.695918 166.779115 
L 84.576234 166.872789 
L 85.106221 166.152954 
L 84.755894 165.339444 
L 85.285884 164.619609 
L 86.166201 164.713287 
L 86.696194 163.993454 
L 87.57651 164.087135 
L 88.106505 163.367304 
L 88.986821 163.460987 
L 89.516817 162.741158 
L 89.166498 161.927644 
L 89.696497 161.207815 
L 89.346176 160.394299 
L 89.876177 159.67447 
L 89.525856 158.860952 
L 90.055859 158.141122 
L 89.705537 157.327603 
L 88.825209 157.233914 
L 88.474883 156.420394 
L 89.004888 155.700562 
L 88.654561 154.88704 
L 89.184569 154.167208 
L 88.834241 153.353685 
L 89.36425 152.633852 
L 89.013922 151.820327 
L 88.133581 151.726635 
L 87.783248 150.913109 
L 86.902904 150.819419 
L 86.552567 150.005892 
L 87.082579 149.286055 
L 86.732242 148.472527 
L 87.262256 147.752689 
L 88.142607 147.846382 
L 88.672622 147.126547 
L 89.552973 147.220243 
L 90.082991 146.500409 
L 90.96334 146.594108 
L 91.313668 147.407639 
L 92.194014 147.501339 
L 92.724034 146.781509 
L 93.604379 146.875212 
L 93.9547 147.688743 
L 94.835041 147.782447 
L 95.365064 147.062622 
L 96.245404 147.156329 
L 96.775429 146.436506 
L 97.655769 146.530215 
L 98.185796 145.810394 
L 97.835483 144.996861 
L 98.365513 144.277039 
L 98.015199 143.463505 
L 98.545231 142.743683 
L 98.194917 141.930146 
L 98.72495 141.210324 
L 98.374635 140.396786 
L 97.494284 140.303071 
L 97.143965 139.489532 
L 97.674 138.769707 
L 97.323681 137.956167 
L 96.443322 137.862451 
L 96.092999 137.04891 
L 96.623037 136.329083 
L 96.272712 135.51554 
L 95.392347 135.421824 
L 95.042019 134.60828 
L 95.572059 133.888451 
L 95.221729 133.074905 
L 94.341357 132.98119 
L 93.991025 132.167643 
L 94.521067 131.447811 
L 95.401442 131.541528 
L 95.931486 130.821698 
L 96.81186 130.915418 
L 97.341907 130.19559 
L 98.22228 130.289312 
L 98.572604 131.102861 
L 99.452974 131.196585 
L 99.983022 130.476761 
L 100.863391 130.570488 
L 101.393442 129.850666 
L 101.043124 129.037116 
L 101.573177 128.317293 
L 101.222858 127.503741 
L 101.752914 126.783919 
L 101.402594 125.970365 
L 101.932651 125.250543 
L 101.582331 124.436987 
L 102.11239 123.717164 
L 101.762069 122.903607 
L 102.29213 122.183784 
L 103.172514 122.277521 
L 103.522832 123.091078 
L 104.403212 123.184816 
L 104.753527 123.998373 
L 105.633902 124.092112 
L 105.984213 124.905669 
L 106.864585 124.999409 
L 107.214892 125.812964 
L 106.68483 126.532779 
L 107.035136 127.346332 
L 107.915502 127.440073 
L 108.265804 128.253626 
L 109.146165 128.347367 
L 109.496464 129.160919 
L 110.376821 129.254662 
L 110.906883 128.534855 
L 111.78724 128.628601 
L 112.317305 127.908795 
L 113.197661 128.002544 
L 113.547949 128.816097 
L 114.428302 128.909847 
L 114.958368 128.190045 
L 115.83872 128.283798 
L 116.189002 129.097351 
L 117.069349 129.191105 
L 117.599418 128.471307 
L 118.479765 128.565064 
L 119.009836 127.845269 
L 119.890182 127.939029 
L 120.240455 128.752582 
L 121.120797 128.846343 
L 121.471065 129.659896 
L 122.351404 129.753658 
L 122.701668 130.56721 
L 122.171597 131.286999 
L 122.521861 132.100549 
L 123.402193 132.194311 
L 123.752452 133.00786 
L 124.63278 133.101624 
L 124.983036 133.915172 
L 125.863361 134.008937 
L 126.393432 133.289155 
L 127.273755 133.382923 
L 127.624004 134.196471 
L 128.504324 134.290241 
L 128.854569 135.103788 
L 129.734885 135.197559 
L 130.085127 136.011105 
L 129.555055 136.730881 
L 129.905296 137.544426 
L 130.785605 137.638196 
L 131.135842 138.45174 
L 130.605772 139.171513 
L 130.956008 139.985056 
L 131.836311 140.078826 
L 132.186543 140.892368 
L 131.656475 141.612138 
L 132.006706 142.425678 
L 131.476641 143.145448 
L 131.826872 143.958987 
L 132.707164 144.052756 
L 133.057391 144.866293 
L 132.527328 145.586061 
L 132.877553 146.399597 
L 132.347492 147.119364 
L 132.697717 147.932898 
L 132.167659 148.652666 
L 131.287375 148.558901 
L 130.757319 149.27867 
L 131.107546 150.092202 
L 130.577491 150.811971 
L 130.927717 151.625501 
L 131.807995 151.719263 
L 132.338049 150.999496 
L 131.987826 150.185965 
L 132.517882 149.466198 
L 133.398162 149.559964 
L 133.928221 148.840199 
L 133.578 148.026666 
L 134.108061 147.3069 
L 133.757839 146.493365 
L 134.287902 145.7736 
L 135.168187 145.867372 
L 135.698252 145.147608 
L 135.348032 144.334071 
L 135.8781 143.614307 
L 135.527879 142.800768 
L 134.647588 142.706993 
L 134.297364 141.893453 
L 134.827433 141.173687 
L 135.707727 141.267463 
L 136.237799 140.547698 
L 135.887577 139.734156 
L 136.417651 139.014391 
L 136.067428 138.200847 
L 136.597504 137.481083 
L 137.477803 137.574864 
L 138.007881 136.855101 
L 137.65766 136.041555 
L 136.777358 135.947772 
L 136.427133 135.134224 
L 136.957213 134.414459 
L 136.606988 133.60091 
L 135.726679 133.507127 
L 135.376449 132.693577 
L 135.906532 131.97381 
L 136.786844 132.067594 
L 137.13707 132.881145 
L 138.017379 132.97493 
L 138.547463 132.255167 
L 138.19724 131.441615 
L 138.727327 130.721851 
L 139.607637 130.815641 
L 140.137726 130.095879 
L 139.787505 129.282325 
L 140.317596 128.562563 
L 141.197909 128.656357 
L 141.728002 127.936597 
L 142.608314 128.030394 
L 143.13841 127.310636 
L 142.788194 126.497078 
L 143.318292 125.77732 
L 144.198606 125.871121 
L 144.728706 125.151364 
L 144.378492 124.337805 
L 144.908594 123.618048 
L 144.558379 122.804487 
L 145.088483 122.08473 
L 145.968803 122.178536 
L 146.498909 121.458781 
L 146.148696 120.645218 
L 146.678805 119.925462 
L 146.328591 119.111897 
L 145.448266 119.018088 
L 145.098048 118.204521 
L 145.628159 117.484764 
L 145.27794 116.671196 
L 144.397608 116.577386 
L 144.047385 115.763818 
L 143.167049 115.67001 
L 142.816823 114.85644 
L 141.936483 114.762633 
L 141.586253 113.949063 
L 140.705909 113.855258 
L 140.355675 113.041686 
L 139.475327 112.947882 
L 139.125089 112.13431 
L 139.655202 111.414541 
L 139.304964 110.600967 
L 138.424609 110.507163 
L 138.074367 109.693589 
L 138.604482 108.973817 
L 138.254238 108.160241 
L 137.373877 108.066437 
L 137.02363 107.25286 
L 137.553747 106.533086 
L 137.203499 105.719507 
L 137.733618 104.999733 
L 137.383369 104.186152 
L 137.91349 103.466378 
L 138.793861 103.560186 
L 139.323984 102.840414 
L 140.204354 102.934225 
L 140.554597 103.747807 
L 140.024473 104.467577 
L 140.374715 105.281157 
L 141.255078 105.374969 
L 141.605316 106.188548 
L 142.485675 106.28236 
L 142.83591 107.095939 
L 143.716265 107.189753 
L 144.246388 106.469989 
L 145.126743 106.563806 
L 145.656869 105.844044 
L 145.30664 105.030464 
L 145.836768 104.310702 
L 145.486539 103.49712 
L 146.016669 102.777358 
L 145.666439 101.963774 
L 146.196572 101.244012 
L 147.076934 101.337836 
L 147.607069 100.618075 
L 148.487431 100.711901 
L 149.017568 99.992143 
L 148.667343 99.178556 
L 149.197482 98.458797 
L 150.077846 98.552628 
L 150.607987 97.832871 
L 151.488351 97.926704 
L 151.83857 98.740293 
L 152.718929 98.834128 
L 153.249073 98.114375 
L 154.129432 98.208212 
L 154.659577 97.488462 
L 155.539935 97.582302 
L 156.070083 96.862553 
L 155.719873 96.048962 
L 156.250023 95.329214 
L 157.130384 95.423058 
L 157.660536 94.703311 
L 158.540895 94.797158 
L 158.8911 95.610751 
L 159.771456 95.704599 
L 160.121656 96.518191 
L 161.002008 96.61204 
L 161.352205 97.425631 
L 162.232553 97.519482 
L 162.582746 98.333072 
L 162.052593 99.05281 
L 162.402785 99.866398 
L 163.283126 99.96025 
L 163.633314 100.773837 
L 164.513652 100.867689 
L 164.863836 101.681276 
L 165.74417 101.77513 
L 166.094351 102.588715 
L 166.974681 102.68257 
L 167.504833 101.962841 
L 168.385162 102.056699 
L 168.735336 102.870285 
L 169.615662 102.964144 
L 170.145816 102.244419 
L 171.026141 102.338281 
L 171.376308 103.151867 
L 172.256629 103.24573 
L 172.786786 102.526009 
L 173.667106 102.619875 
L 174.197266 101.900157 
L 175.077585 101.994025 
L 175.607747 101.274309 
L 176.488065 101.36818 
L 176.838219 102.181767 
L 177.718534 102.27564 
L 178.248698 101.555928 
L 179.129012 101.649804 
L 179.479159 102.463391 
L 178.948995 103.183101 
L 179.299142 103.996687 
L 180.179449 104.090562 
L 180.529591 104.904147 
L 179.999429 105.623855 
L 180.349571 106.437438 
L 179.819411 107.157146 
L 180.169552 107.970727 
L 181.04985 108.064601 
L 181.399987 108.878182 
L 180.869829 109.597887 
L 181.219965 110.411466 
L 182.100256 110.50534 
L 182.450388 111.318918 
L 181.920233 112.038621 
L 182.270364 112.852197 
L 183.150648 112.946071 
L 183.500775 113.759646 
L 184.381055 113.853522 
L 184.731179 114.667096 
L 185.611455 114.760973 
L 185.961575 115.574547 
L 186.841847 115.668425 
L 187.191963 116.481998 
L 188.072232 116.575878 
L 188.602388 115.856186 
L 188.252275 115.042612 
L 188.782432 114.32292 
L 189.662703 114.416804 
L 190.192863 113.697114 
L 191.073133 113.791 
L 191.603296 113.071312 
L 192.483565 113.165201 
L 193.013729 112.445515 
L 193.893998 112.539407 
L 194.424164 111.819723 
L 195.304432 111.913618 
L 195.834601 111.193936 
L 195.484502 110.380356 
L 196.014673 109.660674 
L 195.664573 108.847093 
L 196.194746 108.12741 
L 197.075019 108.221311 
L 197.605195 107.50163 
L 197.255097 106.688046 
L 197.785275 105.968365 
L 197.435176 105.15478 
L 197.965356 104.435099 
L 197.615256 103.621512 
L 198.145438 102.901831 
L 197.795338 102.088243 
L 198.325522 101.368561 
L 197.97542 100.554971 
L 198.505607 99.835289 
L 198.155504 99.021697 
L 198.685693 98.302015 
L 198.33559 97.488422 
L 198.86578 96.768739 
L 199.746074 96.862652 
L 200.276267 96.142972 
L 201.156559 96.236888 
L 201.686754 95.517209 
L 202.567046 95.611128 
L 203.097243 94.891451 
L 203.977534 94.985373 
L 204.327625 95.798969 
L 205.207913 95.892892 
L 205.558 96.706488 
L 206.438283 96.800412 
L 206.788367 97.614006 
L 206.25817 98.333676 
L 206.608252 99.147269 
L 206.078057 99.866939 
L 206.428139 100.680531 
L 205.897946 101.4002 
L 206.248026 102.21379 
L 205.717836 102.933459 
L 206.067916 103.747047 
L 206.948183 103.840967 
L 207.298259 104.654554 
L 206.768071 105.374221 
L 207.118146 106.187807 
L 206.587959 106.907473 
L 206.938034 107.721057 
L 207.818292 107.814975 
L 208.168362 108.628559 
L 207.638178 109.348223 
L 207.988247 110.161804 
L 208.868498 110.255722 
L 209.218564 111.069303 
L 208.688382 111.788964 
L 209.038447 112.602543 
L 209.918691 112.696462 
L 210.268752 113.51004 
L 211.148993 113.603959 
L 211.49905 114.417537 
L 210.96887 115.137193 
L 211.318926 115.950769 
L 210.788748 116.670426 
L 211.138804 117.484 
L 210.608628 118.203656 
L 210.958683 119.017228 
L 210.428509 119.736885 
L 210.778563 120.550455 
L 210.248391 121.270111 
L 210.598444 122.08368 
L 211.478666 122.177594 
L 211.828715 122.991162 
L 212.708932 123.085077 
L 213.058978 123.898645 
L 213.939192 123.992561 
L 214.469363 123.272912 
L 214.119321 122.459344 
L 214.649495 121.739694 
L 215.529711 121.833615 
L 216.059887 121.113967 
L 215.709847 120.300397 
L 216.240025 119.580749 
L 215.889984 118.767177 
L 216.420164 118.047529 
L 216.070122 117.233955 
L 216.600305 116.514307 
L 216.250262 115.700731 
L 216.780447 114.981082 
L 217.660674 115.075012 
L 218.190861 114.355365 
L 217.840821 113.541787 
L 218.37101 112.82214 
L 219.251239 112.916074 
L 219.781431 112.196429 
L 219.431392 111.382848 
L 219.961586 110.663203 
L 219.611546 109.849621 
L 220.141742 109.129976 
L 219.791701 108.316392 
L 220.321899 107.596746 
L 219.971858 106.783161 
L 220.502058 106.063515 
L 220.152016 105.249928 
L 220.682218 104.530282 
L 220.332175 103.716693 
L 220.862379 102.997047 
L 221.742627 103.090992 
L 222.272833 102.371347 
L 223.153079 102.465295 
L 223.683288 101.745652 
L 224.563534 101.839602 
L 225.093744 101.119962 
L 225.973989 101.213915 
L 226.504202 100.494276 
L 226.15417 99.680683 
L 226.684386 98.961044 
L 227.564633 99.055001 
L 228.09485 98.335365 
L 227.74482 97.521769 
L 228.27504 96.802132 
L 229.155289 96.896093 
L 229.685511 96.176458 
L 230.56576 96.270422 
L 230.915783 97.084019 
L 231.796028 97.177985 
L 232.326252 96.458354 
L 233.206496 96.552322 
L 233.736722 95.832693 
L 234.616966 95.926664 
L 234.966979 96.740262 
L 234.436753 97.459889 
L 234.786766 98.273486 
L 235.667003 98.367456 
L 236.017012 99.181052 
L 235.486788 99.900676 
L 235.836796 100.71427 
L 235.306574 101.433894 
L 235.656582 102.247487 
L 235.126362 102.967111 
L 235.476368 103.780701 
L 234.946151 104.500325 
L 235.296157 105.313914 
L 234.765941 106.033537 
L 235.115946 106.847125 
L 234.585733 107.566748 
L 234.935737 108.380333 
L 234.405525 109.099956 
L 234.755529 109.91354 
L 234.22532 110.633163 
L 234.575322 111.446745 
L 234.045115 112.166368 
L 234.395117 112.979949 
L 233.864912 113.699571 
L 234.214913 114.51315 
L 233.68471 115.232772 
L 234.03471 116.046349 
L 233.504509 116.765971 
L 233.854508 117.579547 
L 233.32431 118.299168 
L 233.674308 119.112742 
L 233.144112 119.832363 
L 233.494109 120.645936 
L 232.963915 121.365557 
L 233.313912 122.179128 
L 232.78372 122.898748 
L 233.133715 123.712317 
L 232.603526 124.431938 
L 232.95352 125.245505 
L 233.833702 125.339454 
L 234.183692 126.15302 
L 233.653505 126.872638 
L 234.003495 127.686203 
L 234.883669 127.780151 
L 235.233655 128.593716 
L 236.113826 128.687665 
L 236.463808 129.501228 
L 235.933623 130.220842 
L 236.283604 131.034403 
L 237.163768 131.128353 
L 237.513745 131.941914 
L 236.983562 132.661524 
L 237.333539 133.475084 
L 236.803358 134.194694 
L 237.153334 135.008252 
L 236.623155 135.727862 
L 236.97313 136.541418 
L 237.85328 136.635364 
L 238.203252 137.44892 
L 237.673075 138.168527 
L 238.023045 138.982081 
L 237.49287 139.701688 
L 237.84284 140.51524 
L 237.312667 141.234847 
L 237.662636 142.048398 
L 238.542774 142.142341 
L 238.892739 142.95589 
L 238.362568 143.675495 
L 238.712532 144.489043 
L 239.592663 144.582986 
L 239.942623 145.396533 
L 240.822751 145.490478 
L 241.172707 146.304024 
L 242.052831 146.39797 
L 242.402783 147.211515 
L 241.872615 147.931113 
L 242.222566 148.744656 
L 243.102683 148.838603 
L 243.632851 148.119007 
L 244.512967 148.212956 
L 245.043138 147.493362 
L 244.693192 146.679817 
L 245.223365 145.960223 
L 246.103484 146.054176 
L 246.633659 145.334584 
L 246.283715 144.521036 
L 246.813892 143.801444 
L 246.463948 142.987895 
L 246.994127 142.268302 
L 247.874251 142.362261 
L 248.404432 141.64267 
L 248.05449 140.829119 
L 248.584674 140.109528 
L 248.234731 139.295975 
L 248.764917 138.576384 
L 249.645046 138.670348 
L 250.175234 137.950759 
L 249.825293 137.137203 
L 250.355483 136.417614 
L 250.005541 135.604057 
L 250.535734 134.884467 
L 250.185791 134.070908 
L 250.715986 133.351318 
L 250.366042 132.537758 
L 250.896239 131.818168 
L 250.546294 131.004605 
L 251.076493 130.285015 
L 250.726548 129.471451 
L 251.256749 128.751861 
L 252.136895 128.845836 
L 252.667099 128.126247 
L 252.317155 127.312681 
L 252.847361 126.593092 
L 252.497417 125.779524 
L 253.027624 125.059935 
L 253.907776 125.153916 
L 254.437986 124.434329 
L 255.318136 124.528313 
L 255.668074 125.341883 
L 255.137865 126.061468 
L 255.487802 126.875036 
L 256.367946 126.969019 
L 256.717879 127.782586 
L 256.187671 128.502169 
L 256.537604 129.315734 
L 256.007398 130.035317 
L 256.35733 130.84888 
L 255.827126 131.568462 
L 256.177057 132.382024 
L 255.646856 133.101606 
L 255.996786 133.915167 
L 256.876914 134.009146 
L 257.22684 134.822706 
L 256.696641 135.542285 
L 257.046566 136.355843 
L 256.516369 137.075422 
L 256.866293 137.888978 
L 256.336098 138.608557 
L 256.686022 139.422112 
L 256.155829 140.14169 
L 256.505752 140.955243 
L 255.975561 141.674822 
L 255.095448 141.580849 
L 254.56526 142.300429 
L 254.915185 143.11398 
L 254.384999 143.83356 
L 254.734923 144.647109 
L 254.204739 145.366689 
L 254.554662 146.180236 
L 254.02448 146.899815 
L 254.374402 147.713361 
L 253.844223 148.43294 
L 254.194144 149.246484 
L 255.074242 149.34045 
L 255.424159 150.153993 
L 254.893982 150.873569 
L 255.243898 151.687111 
L 254.713723 152.406687 
L 255.063639 153.220227 
L 254.533465 153.939804 
L 254.88338 154.753342 
L 254.353209 155.472918 
L 254.703123 156.286454 
L 254.172954 157.00603 
L 254.522867 157.819565 
L 253.992701 158.53914 
L 254.342613 159.352674 
L 253.812449 160.072249 
L 254.16236 160.88578 
L 255.042433 160.979737 
L 255.39234 161.793268 
L 254.862178 162.512841 
L 255.212085 163.32637 
L 254.681925 164.045942 
L 255.03183 164.85947 
L 255.911893 164.953425 
L 256.261795 165.766951 
L 257.141855 165.860908 
L 257.491753 166.674434 
L 258.371808 166.768392 
L 258.721703 167.581916 
L 259.601754 167.675876 
L 259.951645 168.489399 
L 260.831693 168.58336 
L 261.361853 167.863799 
L 262.2419 167.957762 
L 262.591784 168.771286 
L 263.471827 168.865251 
L 264.00199 168.145693 
L 264.882032 168.239661 
L 265.412197 167.520105 
L 266.292239 167.614076 
L 266.822406 166.894522 
L 267.702447 166.988495 
L 268.232616 166.268944 
L 267.882744 165.455417 
L 268.412916 164.735865 
L 268.063043 163.922336 
L 268.593217 163.202784 
L 268.243343 162.389254 
L 268.773519 161.669702 
L 268.423645 160.85617 
L 268.953823 160.136617 
L 268.603947 159.323084 
L 269.134127 158.603531 
L 268.784251 157.789996 
L 269.314434 157.070443 
L 268.964557 156.256906 
L 269.494741 155.537353 
L 269.144863 154.723814 
L 269.67505 154.004261 
L 269.325171 153.19072 
L 269.85536 152.471167 
L 270.735427 152.565155 
L 271.265618 151.845603 
L 270.915742 151.032061 
L 271.445935 150.312509 
L 272.326005 150.406502 
L 272.8562 149.686952 
L 272.506325 148.873406 
L 273.036523 148.153856 
L 273.916595 148.247853 
L 274.446794 147.528305 
L 275.326866 147.622305 
L 275.857067 146.902758 
L 276.737138 146.996761 
L 277.267342 146.277216 
L 278.147411 146.371222 
L 278.677618 145.651679 
L 279.557686 145.745687 
L 280.087895 145.026147 
L 280.967963 145.120158 
L 281.317819 145.933708 
L 280.787611 146.653246 
L 281.137466 147.466794 
L 282.017528 147.560805 
L 282.367379 148.374352 
L 283.247437 148.468364 
L 283.597285 149.281911 
L 284.477338 149.375924 
L 285.007547 148.656393 
L 285.8876 148.750409 
L 286.417811 148.030879 
L 286.067969 147.217331 
L 286.598182 146.497801 
L 287.478237 146.591822 
L 287.828076 147.405371 
L 288.708127 147.499392 
L 289.057962 148.31294 
L 289.93801 148.406963 
L 290.287841 149.220511 
L 289.757628 149.940034 
L 290.107458 150.753579 
L 290.987499 150.847602 
L 291.337326 151.661147 
L 290.807115 152.380668 
L 291.15694 153.194211 
L 292.036974 153.288234 
L 292.386796 154.101776 
L 293.266826 154.1958 
L 293.616644 155.009341 
L 294.496671 155.103367 
L 295.026882 154.383853 
L 295.906907 154.477881 
L 296.256718 155.291422 
L 297.13674 155.385452 
L 297.666953 154.665942 
L 298.546974 154.759975 
L 299.07719 154.040467 
L 299.95721 154.134502 
L 300.487428 153.414996 
L 301.367447 153.509034 
L 301.897667 152.78953 
L 301.547868 151.975986 
L 302.07809 151.256481 
L 301.728289 150.442935 
L 302.258514 149.723431 
L 301.908713 148.909883 
L 301.028684 148.815841 
L 300.49846 149.535348 
L 299.618431 149.441308 
L 299.268623 148.62776 
L 299.798847 147.908251 
L 300.678879 148.002292 
L 301.209106 147.282785 
L 302.089137 147.376829 
L 302.619366 146.657324 
L 303.499396 146.751371 
L 304.029627 146.031867 
L 304.909657 146.125917 
L 305.43989 145.406416 
L 306.319919 145.500468 
L 306.669712 146.314019 
L 306.139479 147.033518 
L 306.489271 147.847068 
L 307.369293 147.94112 
L 307.899527 147.221624 
L 308.779548 147.315678 
L 309.129333 148.129228 
L 310.009351 148.223284 
L 310.359133 149.036834 
L 309.828899 149.756326 
L 310.17868 150.569873 
L 311.058691 150.663929 
L 311.408468 151.477476 
L 312.288475 151.571533 
L 312.638248 152.385079 
L 312.108017 153.104567 
L 312.457789 153.918111 
L 313.337789 154.012168 
L 313.687557 154.825711 
L 313.157328 155.545196 
L 313.507096 156.358738 
L 312.976869 157.078223 
L 313.326636 157.891763 
L 312.796411 158.611247 
L 313.146177 159.424786 
L 314.026164 159.51884 
L 314.375926 160.332377 
L 313.845703 161.051859 
L 314.195464 161.865395 
L 315.075445 161.959449 
L 315.425202 162.772984 
L 314.894982 163.492464 
L 315.244738 164.305997 
L 314.71452 165.025477 
L 315.064275 165.839008 
L 315.944246 165.933061 
L 316.293998 166.746592 
L 315.763782 167.466069 
L 316.113532 168.279598 
L 316.993496 168.373651 
L 317.343243 169.187179 
L 316.813029 169.906653 
L 317.162775 170.72018 
L 318.042732 170.814233 
L 318.392475 171.627758 
L 319.272428 171.721812 
L 319.622166 172.535337 
L 320.502116 172.629392 
L 321.03233 171.909924 
L 320.682594 171.096399 
L 321.212811 170.376931 
L 322.092762 170.47099 
L 322.622981 169.751524 
L 322.273248 168.937996 
L 322.803468 168.218529 
L 323.683422 168.312593 
L 324.213645 167.593129 
L 325.093598 167.687195 
L 325.623823 166.967733 
L 326.503776 167.061802 
L 327.034003 166.342341 
L 327.913955 166.436413 
L 328.444184 165.716955 
L 329.324135 165.81103 
L 329.854367 165.091573 
L 329.504647 164.278039 
L 330.034881 163.558583 
L 330.914834 163.652662 
L 331.26455 164.466196 
L 332.1445 164.560276 
L 332.674736 163.840824 
L 333.554684 163.934907 
L 334.084923 163.215456 
L 334.96487 163.309542 
L 335.495111 162.590093 
L 336.375058 162.684182 
L 336.9053 161.964735 
L 337.785246 162.058826 
L 338.315491 161.339382 
L 337.96579 160.525843 
L 338.496037 159.806398 
L 339.375985 159.900494 
L 339.906235 159.181051 
L 340.786182 159.275149 
L 341.316434 158.555708 
L 342.19638 158.649809 
L 342.726634 157.93037 
L 342.376941 157.116828 
L 342.907196 156.397388 
L 343.787146 156.491494 
L 344.317404 155.772056 
L 345.197352 155.866164 
L 345.727612 155.146729 
L 345.377924 154.333183 
L 345.908186 153.613747 
L 346.788137 153.70786 
L 347.318401 152.988426 
L 348.198351 153.082541 
L 348.728618 152.363109 
L 349.608567 152.457227 
L 349.958246 153.270775 
L 350.838191 153.364894 
L 351.36846 152.645467 
L 352.248404 152.739589 
L 352.778676 152.020163 
L 353.658619 152.114288 
L 354.008289 152.927836 
L 354.888228 153.021962 
L 355.418502 152.302541 
L 356.298441 152.39667 
L 356.648103 153.210219 
L 357.528039 153.304349 
L 357.877698 154.117897 
L 357.347424 154.837313 
L 357.697082 155.65086 
L 357.166811 156.370276 
L 357.516468 157.183821 
L 356.986199 157.903237 
L 357.335855 158.71678 
L 358.215777 158.810907 
L 358.56543 159.624449 
L 358.035163 160.343863 
L 358.384814 161.157404 
L 357.854549 161.876817 
L 358.2042 162.690356 
L 357.673937 163.40977 
L 358.023587 164.223307 
L 357.493326 164.94272 
L 357.842975 165.756255 
L 358.722882 165.850378 
L 359.072527 166.663913 
L 358.542269 167.383324 
L 358.891913 168.196856 
L 359.771813 168.290979 
L 360.121453 169.104511 
L 359.591197 169.823919 
L 359.940836 170.63745 
L 359.410582 171.356858 
L 359.760221 172.170387 
L 359.229969 172.889794 
L 359.579607 173.703321 
L 360.459493 173.797441 
L 360.809127 174.610967 
L 360.278878 175.330373 
L 360.628511 176.143897 
L 360.098263 176.863303 
L 360.447895 177.676825 
L 361.327772 177.770944 
L 361.677401 178.584466 
L 361.147155 179.303868 
L 361.496783 180.117389 
L 362.376653 180.211507 
L 362.726277 181.025026 
L 363.606143 181.119146 
L 363.955763 181.932665 
L 364.835626 182.026786 
L 365.185242 182.840303 
L 364.654998 183.559699 
L 365.004613 184.373215 
L 365.884469 184.467336 
L 366.234081 185.280851 
L 367.113932 185.374973 
L 367.46354 186.188488 
L 368.343388 186.282611 
L 368.692992 187.096125 
L 369.572836 187.19025 
L 369.922436 188.003762 
L 370.802277 188.097888 
L 371.151873 188.9114 
L 370.621631 189.630785 
L 370.971226 190.444295 
L 371.85106 190.538421 
L 372.200651 191.35193 
L 371.670412 192.071312 
L 372.020002 192.88482 
L 372.899829 192.978946 
L 373.249416 193.792452 
L 372.719179 194.511832 
L 373.068764 195.325337 
L 373.948585 195.419463 
L 374.298167 196.232967 
L 375.177983 196.327094 
L 375.527561 197.140598 
L 376.407373 197.234726 
L 376.756948 198.048229 
L 377.636756 198.142359 
L 377.986327 198.95586 
L 377.456092 199.675231 
L 377.805661 200.488731 
L 377.275428 201.208101 
L 377.624997 202.021599 
L 377.094766 202.740969 
L 376.214966 202.646843 
L 375.684737 203.366216 
L 376.034308 204.179711 
L 376.914105 204.273836 
L 377.263672 205.08733 
L 376.733445 205.8067 
L 377.083011 206.620193 
L 377.962801 206.714318 
L 378.312363 207.52781 
L 377.782139 208.247177 
L 378.1317 209.060668 
L 379.011483 209.154792 
L 379.361041 209.968282 
L 378.830819 210.687646 
L 377.951039 210.593523 
L 377.420818 211.31289 
L 377.770378 212.126377 
L 377.24016 212.845744 
L 377.589719 213.659229 
L 378.469493 213.753349 
L 378.819048 214.566834 
L 379.698818 214.660956 
L 380.048369 215.474439 
L 379.518153 216.193801 
L 378.638386 216.099681 
L 378.108173 216.819045 
L 378.457726 217.632526 
L 379.33749 217.726645 
L 379.68704 218.540125 
L 379.156828 219.259487 
L 379.506377 220.072966 
L 380.386134 220.167084 
L 380.735679 220.980562 
L 380.205469 221.699921 
L 380.555013 222.513397 
L 381.434764 222.607516 
L 381.784304 223.420991 
L 381.254096 224.140347 
L 381.603635 224.953821 
L 381.07343 225.673177 
L 381.422969 226.48665 
L 380.892766 227.206005 
L 380.013024 227.111891 
L 379.482823 227.831249 
L 378.603081 227.737138 
L 378.072883 228.456498 
L 377.19314 228.362389 
L 376.843592 227.548919 
L 375.963845 227.454812 
L 375.614294 226.641342 
L 374.734544 226.547236 
L 374.204347 227.266602 
L 373.324596 227.172499 
L 372.975038 226.359028 
L 372.095283 226.264926 
L 371.745721 225.451455 
L 370.865962 225.357354 
L 370.516396 224.543882 
L 369.636634 224.449783 
L 369.10644 225.169157 
L 368.226676 225.075061 
L 367.877103 224.261589 
L 366.997336 224.167494 
L 366.64776 223.35402 
L 367.177954 222.634641 
L 366.828377 221.821166 
L 365.948603 221.727071 
L 365.599021 220.913595 
L 364.719244 220.819501 
L 364.369659 220.006024 
L 363.489877 219.911932 
L 363.140288 219.098454 
L 363.670484 218.379068 
L 363.320895 217.565589 
L 362.441106 217.471496 
L 362.091513 216.658016 
L 362.621711 215.938627 
L 362.272117 215.125146 
L 362.802317 214.405757 
L 362.452722 213.592273 
L 361.572924 213.498179 
L 361.223325 212.684695 
L 360.343522 212.590602 
L 359.99392 211.777117 
L 359.114114 211.683026 
L 358.764507 210.86954 
L 357.884697 210.77545 
L 357.535087 209.961963 
L 358.065289 209.242565 
L 357.715678 208.429076 
L 356.835861 208.334986 
L 356.486246 207.521496 
L 355.606426 207.427408 
L 355.256807 206.613917 
L 355.787011 205.894515 
L 355.437391 205.081023 
L 354.557564 204.986934 
L 354.20794 204.173441 
L 353.328109 204.079354 
L 352.978482 203.26586 
L 353.508688 202.546452 
L 353.15906 201.732957 
L 352.279222 201.63887 
L 351.92959 200.825373 
L 351.049748 200.731287 
L 350.700112 199.91779 
L 349.820267 199.823705 
L 349.470627 199.010207 
L 348.590777 198.916124 
L 348.060571 199.63554 
L 347.180721 199.541459 
L 346.831074 198.727961 
L 345.951221 198.633881 
L 345.60157 197.820382 
L 344.721712 197.726304 
L 344.372058 196.912805 
L 343.492197 196.818728 
L 342.961992 197.538153 
L 342.08213 197.444079 
L 341.732469 196.630579 
L 340.852603 196.536506 
L 340.502938 195.723005 
L 339.623068 195.628934 
L 339.092866 196.348365 
L 338.212996 196.254297 
L 337.863324 195.440796 
L 336.98345 195.346729 
L 336.45325 196.066164 
L 335.573375 195.9721 
L 335.043177 196.691537 
L 334.163302 196.597476 
L 333.633106 197.316915 
L 333.982787 198.130413 
L 334.86266 198.224474 
L 335.212337 199.037971 
L 334.682144 199.757408 
L 335.03182 200.570904 
L 335.911686 200.664964 
L 336.261358 201.478459 
L 337.141221 201.572521 
L 337.490889 202.386015 
L 338.370748 202.480078 
L 338.720412 203.293571 
L 339.600267 203.387635 
L 339.949928 204.201128 
L 340.829779 204.295193 
L 341.179436 205.108685 
L 342.059283 205.202752 
L 342.408936 206.016242 
L 341.878745 206.735666 
L 342.228397 207.549155 
L 343.108237 207.643221 
L 343.457886 208.45671 
L 344.337722 208.550778 
L 344.687367 209.364265 
L 344.157178 210.083684 
L 344.506821 210.89717 
L 345.386651 210.991237 
L 345.736291 211.804722 
L 346.616117 211.898792 
L 346.965753 212.712276 
L 346.435566 213.43169 
L 346.785201 214.245172 
L 347.66502 214.339241 
L 348.014651 215.152723 
L 348.894467 215.246793 
L 349.244094 216.060274 
L 350.123906 216.154346 
L 350.473529 216.967826 
L 349.943344 217.687233 
L 350.292967 218.500711 
L 351.172772 218.594782 
L 351.522391 219.40826 
L 352.402192 219.502333 
L 352.751807 220.315809 
L 353.631604 220.409884 
L 353.981215 221.223359 
L 354.861008 221.317435 
L 355.210616 222.13091 
L 356.090405 222.224987 
L 356.440009 223.038461 
L 355.909826 223.757856 
L 356.259429 224.571328 
L 357.139211 224.665406 
L 357.48881 225.478877 
L 356.958629 226.19827 
L 357.308228 227.01174 
L 358.188003 227.105817 
L 358.537598 227.919285 
L 358.007419 228.638676 
L 358.357012 229.452143 
L 359.236781 229.54622 
L 359.586371 230.359686 
L 359.056194 231.079075 
L 359.405783 231.892539 
L 358.875608 232.611927 
L 359.225196 233.42539 
L 358.695024 234.144778 
L 359.044611 234.958239 
L 359.924367 235.052313 
L 360.27395 235.865773 
L 359.74378 236.585159 
L 360.093362 237.398617 
L 360.973112 237.492691 
L 361.32269 238.306149 
L 360.792522 239.025532 
L 361.1421 239.838988 
L 360.611934 240.558371 
L 360.961511 241.371825 
L 361.84125 241.465898 
L 362.190823 242.279351 
L 361.660659 242.998731 
L 362.010231 243.812183 
L 361.48007 244.531563 
L 361.829641 245.345013 
L 361.299482 246.064393 
L 361.649052 246.877842 
L 362.528779 246.971911 
L 362.878345 247.785359 
L 362.348188 248.504736 
L 362.697753 249.318182 
L 363.577473 249.412252 
L 363.927035 250.225697 
L 363.39688 250.945072 
L 363.746441 251.758515 
L 364.626154 251.852585 
L 364.975711 252.666027 
L 364.445558 253.3854 
L 364.795114 254.198841 
L 365.67482 254.29291 
L 366.024373 255.10635 
L 365.494222 255.82572 
L 365.843773 256.639158 
L 366.723473 256.733228 
L 367.07302 257.546665 
L 366.542871 258.266032 
L 366.892418 259.079468 
L 366.362272 259.798836 
L 365.482578 259.704769 
L 365.133029 258.891334 
L 364.253331 258.797269 
L 363.723187 259.51664 
L 362.843489 259.422578 
L 362.493932 258.609143 
L 361.614231 258.515082 
L 361.084089 259.234458 
L 360.204386 259.140399 
L 359.854823 258.326964 
L 358.975116 258.232907 
L 358.625549 257.419471 
L 357.745839 257.325416 
L 357.215699 258.044798 
L 356.335988 257.950745 
L 355.80585 258.670129 
L 354.926139 258.576079 
L 354.396003 259.295465 
L 353.516291 259.201417 
L 352.986158 259.920805 
L 352.106444 259.826761 
L 351.756861 259.013327 
L 350.877144 258.919284 
L 350.347013 259.638676 
L 349.467295 259.544635 
L 348.937167 260.264029 
L 348.057448 260.169992 
L 347.707855 259.356559 
L 346.828133 259.262522 
L 346.478536 258.449089 
L 345.59881 258.355054 
L 345.068683 259.074454 
L 344.188956 258.980422 
L 343.839353 258.166988 
L 342.959622 258.072957 
L 342.610015 257.259522 
L 341.73028 257.165493 
L 341.380669 256.352057 
L 340.500931 256.258029 
L 340.151316 255.444592 
L 339.271573 255.350565 
L 338.921955 254.537128 
L 338.042209 254.443102 
L 337.692586 253.629664 
L 336.812836 253.53564 
L 336.46321 252.722201 
L 335.583456 252.628178 
L 335.053332 253.347596 
L 334.173578 253.253576 
L 333.823944 252.440136 
L 332.944186 252.346118 
L 332.414064 253.06554 
L 331.534305 252.971524 
L 331.184665 252.158084 
L 331.714787 251.43866 
L 331.365146 250.625219 
L 330.48538 250.531203 
L 330.135736 249.717761 
L 329.255966 249.623746 
L 328.906317 248.810304 
L 328.026544 248.71629 
L 327.676892 247.902847 
L 328.207015 247.183415 
L 327.857362 246.36997 
L 326.977582 246.275957 
L 326.627925 245.462511 
L 327.158051 244.743077 
L 326.808393 243.929629 
L 327.338521 243.210195 
L 328.218307 243.304211 
L 328.748437 242.58478 
L 328.398782 241.771329 
L 328.928914 241.051897 
L 328.579257 240.238445 
L 327.699465 240.144426 
L 327.349804 239.330973 
L 327.879939 238.611539 
L 327.530278 237.798084 
L 328.060414 237.078649 
L 327.710752 236.265193 
L 328.240891 235.545758 
L 327.891228 234.7323 
L 327.011423 234.638278 
L 326.661756 233.824819 
L 327.191897 233.105382 
L 326.842229 232.291922 
L 325.962417 232.1979 
L 325.612745 231.384438 
L 326.142888 230.664998 
L 325.793216 229.851535 
L 324.913397 229.757513 
L 324.563721 228.944049 
L 323.683898 228.850029 
L 323.334218 228.036564 
L 323.864363 227.317119 
L 323.514682 226.503653 
L 322.634853 226.409632 
L 322.285168 225.596165 
L 321.405335 225.502145 
L 321.055646 224.688677 
L 320.175809 224.594659 
L 319.826116 223.78119 
L 318.946276 223.687174 
L 318.596579 222.873704 
L 317.716735 222.779688 
L 317.367034 221.966218 
L 316.487186 221.872203 
L 316.137482 221.058732 
L 315.25763 220.964719 
L 314.907922 220.151247 
L 314.028066 220.057235 
L 313.497921 220.776698 
L 312.618064 220.682689 
L 312.26835 219.869217 
L 311.388489 219.775209 
L 310.858346 220.494676 
L 309.978485 220.400671 
L 309.628764 219.587199 
L 308.748899 219.493195 
L 308.218758 220.212666 
L 308.568483 221.026138 
L 308.038344 221.745608 
L 307.158481 221.651609 
L 306.628345 222.371082 
L 305.748482 222.277086 
L 305.218348 222.99656 
L 304.338484 222.902566 
L 303.808352 223.622043 
L 302.928487 223.528052 
L 302.57875 222.714584 
L 301.698881 222.620594 
L 301.168752 223.340075 
L 301.518491 224.153542 
L 300.988364 224.873023 
L 300.108497 224.779038 
L 299.758755 223.965571 
L 298.878884 223.871587 
L 298.348759 224.591071 
L 297.468888 224.49709 
L 296.938765 225.216577 
L 296.058893 225.122598 
L 295.528772 225.842087 
L 294.6489 225.748111 
L 294.118781 226.467601 
L 294.468535 227.281065 
L 293.938419 228.000555 
L 293.058549 227.906584 
L 292.528434 228.626076 
L 291.648563 228.532107 
L 291.118451 229.251601 
L 290.238579 229.157636 
L 289.708469 229.877132 
L 290.058232 230.690591 
L 289.528124 231.410087 
L 289.877886 232.223545 
L 289.34778 232.943041 
L 289.697541 233.756497 
L 289.167438 234.475992 
L 289.517198 235.289447 
L 290.397058 235.383407 
L 290.746814 236.196861 
L 290.216713 236.916354 
L 290.566468 237.729806 
L 290.036369 238.449299 
L 289.156515 238.355342 
L 288.626418 239.074836 
L 287.746563 238.980882 
L 287.216469 239.700378 
L 286.336613 239.606426 
L 285.806521 240.325925 
L 284.926665 240.231976 
L 284.396574 240.951476 
L 284.746341 241.764923 
L 284.216253 242.484424 
L 283.336399 242.390479 
L 282.806313 243.109981 
L 283.156081 243.923426 
L 282.625997 244.642928 
L 282.975765 245.456371 
L 282.445683 246.175873 
L 281.565835 246.081933 
L 281.035755 246.801437 
L 280.155906 246.7075 
L 279.806132 245.894059 
L 278.926279 245.800123 
L 278.576502 244.986681 
L 279.106581 244.267173 
L 278.756803 243.453729 
L 277.876942 243.359793 
L 277.527161 242.546348 
L 278.057242 241.826838 
L 277.707459 241.013391 
L 276.827592 240.919456 
L 276.297511 241.638968 
L 275.417643 241.545036 
L 275.067853 240.731589 
L 275.597934 240.012074 
L 275.248144 239.198626 
L 275.778227 238.47911 
L 275.428436 237.66566 
L 275.958521 236.946145 
L 275.608729 236.132693 
L 276.138817 235.413177 
L 275.789024 234.599724 
L 274.90914 234.505787 
L 274.559343 233.692333 
L 275.089433 232.972815 
L 274.739635 232.159359 
L 275.269727 231.43984 
L 274.919929 230.626383 
L 275.450023 229.906864 
L 275.100223 229.093405 
L 275.63032 228.373886 
L 275.280519 227.560425 
L 275.810618 226.840906 
L 275.460817 226.027443 
L 275.990917 225.307924 
L 275.641115 224.494459 
L 274.761209 224.400515 
L 274.411404 223.58705 
L 274.941506 222.867528 
L 274.5917 222.054061 
L 273.711787 221.960117 
L 273.361977 221.14665 
L 273.892081 220.427125 
L 273.54227 219.613656 
L 272.662351 219.519712 
L 272.312535 218.706241 
L 271.432612 218.612299 
L 271.082793 217.798828 
L 270.202866 217.704886 
L 269.853044 216.891414 
L 268.973113 216.797474 
L 268.623286 215.984001 
L 267.743352 215.890062 
L 267.393521 215.076589 
L 266.513583 214.982651 
L 266.163748 214.169177 
L 265.283806 214.07524 
L 264.933968 213.261765 
L 265.464075 212.542225 
L 265.114236 211.728748 
L 264.234287 211.634812 
L 263.884444 210.821334 
L 263.004491 210.727399 
L 262.654644 209.91392 
L 263.184753 209.194375 
L 262.834905 208.380895 
L 261.954946 208.28696 
L 261.605095 207.473479 
L 262.135205 206.753932 
L 261.785353 205.940449 
L 260.905387 205.846514 
L 260.555531 205.03303 
L 261.085644 204.31348 
L 260.735787 203.499995 
L 259.855813 203.40606 
L 259.505953 202.592573 
L 258.625976 202.49864 
L 258.276111 201.685152 
L 257.39613 201.59122 
L 256.866017 202.310776 
L 255.986036 202.216847 
L 255.636164 201.403359 
L 256.166277 200.683801 
L 255.816405 199.870312 
L 254.936417 199.776382 
L 254.58654 198.962892 
L 255.116655 198.243331 
L 254.766778 197.42984 
L 253.886783 197.33591 
L 253.536902 196.522418 
L 252.656903 196.428489 
L 252.307019 195.614996 
L 251.427016 195.521069 
L 251.077127 194.707575 
L 250.197121 194.613649 
L 249.667006 195.333219 
L 250.016898 196.146713 
L 249.486785 196.866282 
L 248.606781 196.772361 
L 248.076671 197.491932 
L 248.426564 198.305423 
L 247.896456 199.024994 
L 248.246349 199.838483 
L 247.716243 200.558054 
L 246.836244 200.464138 
L 246.30614 201.183711 
L 245.42614 201.089798 
L 244.896039 201.809373 
L 244.016038 201.715463 
L 243.666136 200.901976 
L 242.786132 200.808067 
L 242.436226 199.994579 
L 241.556218 199.900672 
L 241.206309 199.087183 
L 240.326297 198.993277 
L 239.796198 199.71286 
L 240.14611 200.526348 
L 239.616013 201.245931 
L 239.965925 202.059417 
L 239.43583 202.779 
L 238.555823 202.6851 
L 238.02573 203.404685 
L 238.375644 204.218168 
L 237.845553 204.937753 
L 238.195466 205.751235 
L 237.665377 206.470819 
L 238.015289 207.2843 
L 237.485203 208.003884 
L 237.835114 208.817362 
L 238.715109 208.911258 
L 239.065016 209.724735 
L 238.534932 210.444317 
L 238.884838 211.257793 
L 239.764826 211.351688 
L 240.114728 212.165163 
L 239.584646 212.884743 
L 238.704662 212.790849 
L 238.174582 213.510431 
L 237.294596 213.41654 
L 236.764519 214.136123 
L 235.884532 214.042235 
L 235.534621 213.228762 
L 234.654631 213.134875 
L 234.124555 213.854463 
L 233.244565 213.760579 
L 232.714491 214.480168 
L 231.8345 214.386287 
L 231.484579 213.572815 
L 232.014652 212.853223 
L 231.66473 212.039749 
L 232.194805 211.320158 
L 231.844882 210.506682 
L 232.37496 209.78709 
L 232.025036 208.973613 
L 231.145031 208.879729 
L 230.795104 208.066251 
L 231.325183 207.346656 
L 230.975255 206.533177 
L 230.095243 206.439293 
L 229.745311 205.625812 
L 228.865296 205.531929 
L 228.51536 204.718448 
L 229.045441 203.998849 
L 228.695504 203.185366 
L 229.225588 202.465766 
L 230.105609 202.559652 
L 230.635695 201.840054 
L 231.515716 201.933943 
L 232.045804 201.214347 
L 232.925823 201.308238 
L 233.455914 200.588645 
L 233.105985 199.775158 
L 233.636078 199.055564 
L 233.286148 198.242075 
L 233.816242 197.522481 
L 234.696267 197.616378 
L 235.226364 196.896786 
L 234.876436 196.083295 
L 235.406536 195.363702 
L 236.286563 195.457603 
L 236.816664 194.738013 
L 236.466738 193.924519 
L 236.996842 193.204928 
L 236.646915 192.391433 
L 237.177021 191.671842 
L 236.827094 190.858345 
L 237.357202 190.138754 
L 238.237237 190.232662 
L 238.767347 189.513073 
L 238.417422 188.699574 
L 237.537383 188.605664 
L 237.187454 187.792164 
L 237.717566 187.072572 
L 237.367636 186.25907 
L 237.897751 185.539479 
L 237.54782 184.725975 
L 236.667772 184.632064 
L 236.317837 183.81856 
L 236.847954 183.098965 
L 236.498018 182.285459 
L 235.617963 182.191548 
L 235.268024 181.378041 
L 235.798142 180.658445 
L 235.448202 179.844936 
L 234.56814 179.751025 
L 234.218196 178.937516 
L 233.338131 178.843606 
L 232.988183 178.030096 
L 232.108113 177.936187 
L 231.577995 178.655791 
L 230.697925 178.561885 
L 230.34797 177.748375 
L 230.878088 177.028769 
L 230.528133 176.215257 
L 229.648056 176.121352 
L 229.298097 175.307839 
L 229.828217 174.588231 
L 229.478257 173.774716 
L 228.598173 173.68081 
L 228.248209 172.867295 
L 227.368121 172.773391 
L 226.838001 173.493003 
L 225.957913 173.399102 
L 225.607942 172.585586 
L 224.72785 172.491686 
L 224.197731 173.211303 
L 223.317639 173.117405 
L 222.967661 172.30389 
L 223.497779 171.584271 
L 223.1478 170.770754 
L 223.677921 170.051134 
L 223.327941 169.237615 
L 223.858064 168.517996 
L 223.508083 167.704476 
L 224.038208 166.984856 
L 223.688227 166.171334 
L 224.218354 165.451714 
L 223.868372 164.63819 
L 222.98826 164.544287 
L 222.458133 165.263909 
L 221.57802 165.170009 
L 221.228032 164.356485 
L 220.347915 164.262586 
L 219.817791 164.982212 
L 218.937674 164.888316 
L 218.587678 164.074792 
L 217.707557 163.980897 
L 217.357558 163.167372 
L 217.887682 162.447741 
L 217.537682 161.634215 
L 216.657554 161.54032 
L 216.30755 160.726792 
L 215.427418 160.632899 
L 214.897294 161.352534 
L 214.017162 161.258643 
L 213.667151 160.445116 
L 212.787014 160.351226 
L 212.437 159.537698 
L 211.55686 159.44381 
L 211.026738 160.163451 
L 210.146597 160.069566 
L 209.796575 159.256038 
L 208.916431 159.162154 
L 208.566405 158.348624 
L 207.686257 158.254742 
L 207.336228 157.441212 
L 206.456076 157.34733 
L 206.106043 156.533799 
L 205.225887 156.439919 
L 204.87585 155.626388 
L 203.99569 155.532509 
L 203.465571 156.252164 
L 202.58541 156.158288 
L 202.055293 156.877944 
L 201.175132 156.784071 
L 200.645017 157.50373 
L 200.995063 158.317259 
L 200.46495 159.036917 
L 199.584791 158.943048 
L 199.05468 159.662709 
L 198.17452 159.568842 
L 197.644412 160.288505 
L 197.994463 161.102031 
L 197.464356 161.821693 
L 197.814406 162.635217 
L 197.284302 163.354879 
L 196.404148 163.261018 
L 195.874046 163.980682 
L 194.993891 163.886824 
L 194.643834 163.073301 
L 193.763676 162.979445 
L 193.413616 162.165921 
L 192.533453 162.072066 
L 192.183389 161.258541 
L 191.303223 161.164688 
L 190.953155 160.351162 
L 190.072985 160.25731 
L 189.722913 159.443783 
L 188.842739 159.349932 
L 188.312639 160.069609 
L 187.432465 159.975761 
L 187.082386 159.162234 
L 186.202208 159.068387 
L 185.852125 158.25486 
L 184.971943 158.161015 
L 184.441846 158.880698 
L 183.561662 158.786855 
L 183.031567 159.50654 
L 182.151383 159.4127 
L 181.62129 160.132387 
L 180.741106 160.03855 
L 180.211015 160.758239 
L 179.330829 160.664404 
L 178.980732 159.850879 
L 178.100542 159.757046 
L 177.570454 160.476739 
L 176.690264 160.382909 
L 176.160178 161.102604 
L 175.279987 161.008776 
L 174.749903 161.728473 
L 173.869711 161.634648 
L 173.339629 162.354347 
L 172.459437 162.260525 
L 171.929357 162.980226 
L 172.27947 163.793747 
L 171.749393 164.513448 
L 170.869202 164.41963 
L 170.339127 165.139333 
L 169.458936 165.045517 
L 168.928863 165.765222 
L 168.048672 165.67141 
L 167.518601 166.391116 
L 166.638408 166.297307 
L 166.10834 167.017015 
L 166.458463 167.830531 
L 165.928397 168.55024 
L 166.27852 169.363754 
L 165.748456 170.083462 
L 164.868268 169.989658 
L 164.338206 170.709368 
L 163.458018 170.615567 
L 162.927959 171.335279 
L 163.278087 172.14879 
L 162.748029 172.868502 
L 161.867843 172.774705 
L 161.337788 173.494418 
L 160.457601 173.400624 
L 159.927548 174.12034 
L 160.277681 174.933847 
L 159.74763 175.653563 
L 158.867446 175.559773 
L 158.337397 176.27949 
L 158.687532 177.092996 
L 158.157485 177.812713 
L 158.50762 178.626216 
L 157.977575 179.345933 
L 158.327708 180.159435 
L 157.797666 180.879152 
L 156.91749 180.785369 
L 156.38745 181.505088 
L 156.737585 182.318587 
L 156.207547 183.038306 
L 156.557682 183.851804 
L 156.027646 184.571522 
L 156.37778 185.385018 
L 155.847746 186.104736 
L 156.197879 186.91823 
L 155.667848 187.637948 
L 154.787683 187.544173 
L 154.257654 188.263893 
L 154.607789 189.077385 
L 154.077762 189.797104 
L 153.197599 189.703334 
L 152.667574 190.423055 
L 151.787411 190.329287 
L 151.43727 189.515797 
L 150.557103 189.42203 
L 150.027081 190.141756 
L 149.146913 190.047992 
L 148.616892 190.76772 
L 147.736724 190.673959 
L 147.386573 189.860469 
L 146.506401 189.766709 
L 146.156246 188.953218 
L 145.27607 188.85946 
L 144.925912 188.045969 
L 144.045732 187.952212 
L 143.69557 187.138719 
L 142.815386 187.044964 
L 142.285368 187.764702 
L 141.405184 187.670949 
L 140.875168 188.390689 
L 139.994983 188.296939 
L 139.464969 189.016682 
L 138.584783 188.922934 
L 138.054772 189.642678 
L 138.404946 190.456168 
L 137.874937 191.175912 
L 136.994753 191.082168 
L 136.464746 191.801914 
L 136.814922 192.615401 
L 136.284917 193.335147 
L 136.635093 194.148632 
L 137.51527 194.242372 
L 137.865442 195.055856 
L 138.745616 195.149598 
L 139.095783 195.963081 
L 139.975953 196.056824 
L 140.326117 196.870307 
L 141.206284 196.964051 
L 141.556444 197.777533 
L 141.026441 198.497269 
L 141.3766 199.310749 
L 140.846599 200.030486 
L 141.196758 200.843964 
L 140.666759 201.5637 
L 139.786602 201.46996 
L 139.256605 202.189698 
L 138.376447 202.09596 
L 137.846453 202.8157 
L 136.966294 202.721966 
L 136.616127 201.90849 
L 135.735965 201.814757 
L 135.205973 202.534501 
L 134.32581 202.44077 
L 133.975635 201.627294 
L 133.095468 201.533565 
L 132.74529 200.720088 
L 131.86512 200.626361 
L 131.514938 199.812883 
L 130.634763 199.719156 
L 130.104774 200.438909 
L 129.224598 200.345186 
L 128.694611 201.06494 
L 127.814435 200.971219 
L 127.28445 201.690976 
L 127.63464 202.504451 
L 127.104657 203.224208 
L 126.224484 203.130491 
L 125.694503 203.850249 
L 124.814328 203.756535 
L 124.464131 202.943062 
L 123.583953 202.849349 
L 123.233753 202.035874 
L 122.35357 201.942163 
L 122.003366 201.128688 
L 121.12318 201.034978 
L 120.772972 200.221502 
L 119.892782 200.127793 
L 119.362804 200.847562 
L 119.713015 201.661038 
L 119.183039 202.380807 
L 118.302851 202.287102 
L 117.772877 203.006873 
L 118.12309 203.820346 
L 117.593119 204.540117 
L 116.712933 204.446417 
L 116.362717 203.632944 
L 115.482528 203.539245 
L 115.132308 202.725772 
L 115.66228 202.005997 
L 115.312059 201.192523 
L 115.842033 200.472747 
L 115.491811 199.659271 
L 116.021787 198.939496 
L 116.901985 199.033199 
L 117.431964 198.313425 
L 118.312161 198.407131 
L 118.842142 197.687359 
L 118.491925 196.87388 
L 117.611725 196.780172 
L 117.081744 197.499946 
L 116.201543 197.406242 
L 115.851319 196.592762 
L 114.971115 196.499059 
L 114.620887 195.685578 
L 113.740679 195.591877 
L 113.390447 194.778395 
L 113.920428 194.058615 
L 113.570196 193.245132 
L 114.100178 192.525351 
L 113.749945 191.711866 
L 112.869727 191.618163 
L 112.339744 192.337946 
L 111.459525 192.244245 
L 111.109285 191.430761 
L 111.639268 190.710976 
L 111.289027 189.897489 
L 110.408801 189.803789 
L 109.878819 190.523576 
L 110.229062 191.337062 
L 109.699082 192.056849 
L 108.818858 191.963152 
L 108.468612 191.149667 
L 107.588384 191.055972 
L 107.238134 190.242487 
L 107.768114 189.522695 
L 107.417863 188.709208 
L 106.537629 188.615513 
L 106.187373 187.802025 
L 105.307135 187.708331 
L 104.956876 186.894842 
L 104.076634 186.80115 
L 103.726372 185.98766 
L 104.256354 185.267861 
L 103.90609 184.45437 
L 103.025842 184.360677 
L 102.495859 185.080478 
L 101.61561 184.986788 
L 101.26534 184.173297 
L 100.385086 184.079608 
L 100.034812 183.266116 
L 99.154555 183.172429 
L 98.624575 183.892236 
L 97.744317 183.798552 
L 97.21434 184.518361 
L 96.334081 184.424679 
L 95.983797 183.611188 
L 95.103535 183.517508 
L 94.57356 184.237321 
L 93.693296 184.143643 
L 93.343006 183.330152 
L 93.872981 182.610336 
L 93.522689 181.796843 
L 92.642419 181.703166 
L 92.292124 180.889671 
L 91.41185 180.795995 
L 91.061551 179.9825 
L 90.181273 179.888825 
M 168.166051 119.110722 
L 167.63592 119.830445 
L 167.98608 120.644011 
L 168.866369 120.737857 
L 169.216525 121.551422 
L 170.09681 121.645269 
L 170.446962 122.458834 
L 171.327243 122.552681 
L 171.677392 123.366245 
L 171.147263 124.085961 
L 171.497411 124.899523 
L 172.377685 124.993371 
L 172.727829 125.806933 
L 173.608099 125.900782 
L 173.958239 126.714342 
L 174.838506 126.808193 
L 175.188642 127.621753 
L 176.068905 127.715604 
L 176.599034 126.995898 
L 177.479296 127.089752 
L 177.829425 127.903312 
L 178.709683 127.997168 
L 179.239815 127.277466 
L 178.889688 126.463905 
L 179.419822 125.744202 
L 180.300083 125.838062 
L 180.830219 125.118362 
L 180.480094 124.304799 
L 179.599831 124.210937 
L 179.249702 123.397373 
L 179.77984 122.67767 
L 179.429711 121.864105 
L 179.959851 121.144401 
L 179.609721 120.330834 
L 180.139864 119.61113 
L 179.789733 118.797562 
L 178.909457 118.703697 
L 178.559322 117.890127 
L 179.089466 117.170421 
L 178.739331 116.35685 
L 177.859048 116.262986 
L 177.508908 115.449413 
L 178.039055 114.729705 
L 177.688915 113.916131 
L 178.219063 113.196422 
L 177.868922 112.382847 
L 176.988629 112.288981 
L 176.638484 111.475404 
L 177.168635 110.755693 
L 176.818489 109.942115 
L 175.93819 109.848249 
L 175.408039 110.567963 
L 174.527738 110.474099 
L 173.99759 111.193815 
L 174.347742 112.007391 
L 173.817595 112.727106 
L 172.937297 112.633247 
L 172.407153 113.352965 
L 172.757306 114.166539 
L 172.227164 114.886255 
L 171.346868 114.792401 
L 170.816729 115.51212 
L 169.936432 115.418267 
L 169.406294 116.137988 
L 168.525997 116.044139 
L 167.995861 116.763862 
L 168.346023 117.577432 
L 167.81589 118.297154 
L 168.166051 119.110722 
L 168.166051 119.110722 
" clip-path="url(#p9962a6f4ab)" style="fill: none; stroke: #ff0000; stroke-width: 0.7"/>
    <path d="M 101.420897 118.209718 
L 102.301291 118.303456 
L 102.651615 119.117018 
L 102.121549 119.836842 
L 101.241159 119.743105 
L 100.711095 120.462931 
L 99.830704 120.369197 
L 99.480374 119.555637 
L 98.599979 119.461904 
L 98.249645 118.648343 
L 97.369247 118.554612 
L 97.018909 117.74105 
L 97.548973 117.021218 
L 98.429374 117.11495 
L 98.95944 116.39512 
L 99.839841 116.488855 
L 100.190173 117.302419 
L 101.070569 117.396155 
L 101.420897 118.209718 
" clip-path="url(#p9962a6f4ab)" style="fill: none; stroke: #ff0000; stroke-width: 0.7"/>
    <path d="M 122.370103 121.993158 
L 123.250457 122.086927 
L 123.780541 121.367137 
L 123.430271 120.553576 
L 123.960358 119.833785 
L 124.840714 119.927559 
L 125.370802 119.20777 
L 126.251158 119.301547 
L 126.781248 118.58176 
L 127.661603 118.675539 
L 128.191696 117.955755 
L 127.841434 117.142189 
L 128.371529 116.422404 
L 128.021267 115.608837 
L 128.551364 114.889052 
L 129.431724 114.982837 
L 129.781983 115.796405 
L 130.662339 115.890191 
L 131.012595 116.703758 
L 130.482498 117.423539 
L 130.832752 118.237105 
L 130.302657 118.956885 
L 129.422307 118.863102 
L 128.892214 119.582884 
L 129.242471 120.396447 
L 130.122818 120.490229 
L 130.473071 121.303791 
L 129.94298 122.023571 
L 130.293232 122.837132 
L 129.763144 123.556912 
L 128.882803 123.463133 
L 128.352716 124.182914 
L 128.702971 124.996472 
L 128.172886 125.716254 
L 128.52314 126.52981 
L 127.993057 127.249591 
L 127.112722 127.155818 
L 126.582642 127.875601 
L 125.702306 127.78183 
L 125.352046 126.968275 
L 124.471706 126.874506 
L 124.121443 126.06095 
L 123.241099 125.967182 
L 122.890832 125.153625 
L 122.010484 125.059859 
L 121.660213 124.246301 
L 120.779862 124.152536 
L 120.429587 123.338978 
L 120.959667 122.619184 
L 121.840021 122.71295 
L 122.370103 121.993158 
" clip-path="url(#p9962a6f4ab)" style="fill: none; stroke: #ff0000; stroke-width: 0.7"/>
   </g>
   <g id="matplotlib.axis_1">
    <g id="xtick_1">
     <g id="line2d_1">
      <defs>
       <path id="m02669e3083" d="M 0 0 
L 0 3.5 
" style="stroke: #000000; stroke-width: 0.8"/>
      </defs>
      <g>
       <use xlink:href="#m02669e3083" x="65.945578" y="270.834069" style="stroke: #000000; stroke-width: 0.8"/>
      </g>
     </g>
     <g id="text_1">
      <!-- 0.06 -->
      <g transform="translate(50.622922 285.432507) scale(0.1 -0.1)">
       <defs>
        <path id="DejaVuSans-2212" d="M 678 2272 
L 4684 2272 
L 4684 1741 
L 678 1741 
L 678 2272 
z
" transform="scale(0.015625)"/>
        <path id="DejaVuSans-30" d="M 2034 4250 
Q 1547 4250 1301 3770 
Q 1056 3291 1056 2328 
Q 1056 1369 1301 889 
Q 1547 409 2034 409 
Q 2525 409 2770 889 
Q 3016 1369 3016 2328 
Q 3016 3291 2770 3770 
Q 2525 4250 2034 4250 
z
M 2034 4750 
Q 2819 4750 3233 4129 
Q 3647 3509 3647 2328 
Q 3647 1150 3233 529 
Q 2819 -91 2034 -91 
Q 1250 -91 836 529 
Q 422 1150 422 2328 
Q 422 3509 836 4129 
Q 1250 4750 2034 4750 
z
" transform="scale(0.015625)"/>
        <path id="DejaVuSans-2e" d="M 684 794 
L 1344 794 
L 1344 0 
L 684 0 
L 684 794 
z
" transform="scale(0.015625)"/>
        <path id="DejaVuSans-36" d="M 2113 2584 
Q 1688 2584 1439 2293 
Q 1191 2003 1191 1497 
Q 1191 994 1439 701 
Q 1688 409 2113 409 
Q 2538 409 2786 701 
Q 3034 994 3034 1497 
Q 3034 2003 2786 2293 
Q 2538 2584 2113 2584 
z
M 3366 4563 
L 3366 3988 
Q 3128 4100 2886 4159 
Q 2644 4219 2406 4219 
Q 1781 4219 1451 3797 
Q 1122 3375 1075 2522 
Q 1259 2794 1537 2939 
Q 1816 3084 2150 3084 
Q 2853 3084 3261 2657 
Q 3669 2231 3669 1497 
Q 3669 778 3244 343 
Q 2819 -91 2113 -91 
Q 1303 -91 875 529 
Q 447 1150 447 2328 
Q 447 3434 972 4092 
Q 1497 4750 2381 4750 
Q 2619 4750 2861 4703 
Q 3103 4656 3366 4563 
z
" transform="scale(0.015625)"/>
       </defs>
       <use xlink:href="#DejaVuSans-2212"/>
       <use xlink:href="#DejaVuSans-30" x="83.789062"/>
       <use xlink:href="#DejaVuSans-2e" x="147.412109"/>
       <use xlink:href="#DejaVuSans-30" x="179.199219"/>
       <use xlink:href="#DejaVuSans-36" x="242.822266"/>
      </g>
     </g>
    </g>
    <g id="xtick_2">
     <g id="line2d_2">
      <g>
       <use xlink:href="#m02669e3083" x="126.02158" y="270.834069" style="stroke: #000000; stroke-width: 0.8"/>
      </g>
     </g>
     <g id="text_2">
      <!-- 0.04 -->
      <g transform="translate(110.698924 285.432507) scale(0.1 -0.1)">
       <defs>
        <path id="DejaVuSans-34" d="M 2419 4116 
L 825 1625 
L 2419 1625 
L 2419 4116 
z
M 2253 4666 
L 3047 4666 
L 3047 1625 
L 3713 1625 
L 3713 1100 
L 3047 1100 
L 3047 0 
L 2419 0 
L 2419 1100 
L 313 1100 
L 313 1709 
L 2253 4666 
z
" transform="scale(0.015625)"/>
       </defs>
       <use xlink:href="#DejaVuSans-2212"/>
       <use xlink:href="#DejaVuSans-30" x="83.789062"/>
       <use xlink:href="#DejaVuSans-2e" x="147.412109"/>
       <use xlink:href="#DejaVuSans-30" x="179.199219"/>
       <use xlink:href="#DejaVuSans-34" x="242.822266"/>
      </g>
     </g>
    </g>
    <g id="xtick_3">
     <g id="line2d_3">
      <g>
       <use xlink:href="#m02669e3083" x="186.097582" y="270.834069" style="stroke: #000000; stroke-width: 0.8"/>
      </g>
     </g>
     <g id="text_3">
      <!-- 0.02 -->
      <g transform="translate(170.774926 285.432507) scale(0.1 -0.1)">
       <defs>
        <path id="DejaVuSans-32" d="M 1228 531 
L 3431 531 
L 3431 0 
L 469 0 
L 469 531 
Q 828 903 1448 1529 
Q 2069 2156 2228 2338 
Q 2531 2678 2651 2914 
Q 2772 3150 2772 3378 
Q 2772 3750 2511 3984 
Q 2250 4219 1831 4219 
Q 1534 4219 1204 4116 
Q 875 4013 500 3803 
L 500 4441 
Q 881 4594 1212 4672 
Q 1544 4750 1819 4750 
Q 2544 4750 2975 4387 
Q 3406 4025 3406 3419 
Q 3406 3131 3298 2873 
Q 3191 2616 2906 2266 
Q 2828 2175 2409 1742 
Q 1991 1309 1228 531 
z
" transform="scale(0.015625)"/>
       </defs>
       <use xlink:href="#DejaVuSans-2212"/>
       <use xlink:href="#DejaVuSans-30" x="83.789062"/>
       <use xlink:href="#DejaVuSans-2e" x="147.412109"/>
       <use xlink:href="#DejaVuSans-30" x="179.199219"/>
       <use xlink:href="#DejaVuSans-32" x="242.822266"/>
      </g>
     </g>
    </g>
    <g id="xtick_4">
     <g id="line2d_4">
      <g>
       <use xlink:href="#m02669e3083" x="246.173584" y="270.834069" style="stroke: #000000; stroke-width: 0.8"/>
      </g>
     </g>
     <g id="text_4">
      <!-- 0.00 -->
      <g transform="translate(235.040771 285.432507) scale(0.1 -0.1)">
       <use xlink:href="#DejaVuSans-30"/>
       <use xlink:href="#DejaVuSans-2e" x="63.623047"/>
       <use xlink:href="#DejaVuSans-30" x="95.410156"/>
       <use xlink:href="#DejaVuSans-30" x="159.033203"/>
      </g>
     </g>
    </g>
    <g id="xtick_5">
     <g id="line2d_5">
      <g>
       <use xlink:href="#m02669e3083" x="306.249585" y="270.834069" style="stroke: #000000; stroke-width: 0.8"/>
      </g>
     </g>
     <g id="text_5">
      <!-- 0.02 -->
      <g transform="translate(295.116773 285.432507) scale(0.1 -0.1)">
       <use xlink:href="#DejaVuSans-30"/>
       <use xlink:href="#DejaVuSans-2e" x="63.623047"/>
       <use xlink:href="#DejaVuSans-30" x="95.410156"/>
       <use xlink:href="#DejaVuSans-32" x="159.033203"/>
      </g>
     </g>
    </g>
    <g id="xtick_6">
     <g id="line2d_6">
      <g>
       <use xlink:href="#m02669e3083" x="366.325587" y="270.834069" style="stroke: #000000; stroke-width: 0.8"/>
      </g>
     </g>
     <g id="text_6">
      <!-- 0.04 -->
      <g transform="translate(355.192775 285.432507) scale(0.1 -0.1)">
       <use xlink:href="#DejaVuSans-30"/>
       <use xlink:href="#DejaVuSans-2e" x="63.623047"/>
       <use xlink:href="#DejaVuSans-30" x="95.410156"/>
       <use xlink:href="#DejaVuSans-34" x="159.033203"/>
      </g>
     </g>
    </g>
    <g id="text_7">
     <!-- 1e2 -->
     <g transform="translate(387.462188 298.110632) scale(0.1 -0.1)">
      <defs>
       <path id="DejaVuSans-31" d="M 794 531 
L 1825 531 
L 1825 4091 
L 703 3866 
L 703 4441 
L 1819 4666 
L 2450 4666 
L 2450 531 
L 3481 531 
L 3481 0 
L 794 0 
L 794 531 
z
" transform="scale(0.015625)"/>
       <path id="DejaVuSans-65" d="M 3597 1894 
L 3597 1613 
L 953 1613 
Q 991 1019 1311 708 
Q 1631 397 2203 397 
Q 2534 397 2845 478 
Q 3156 559 3463 722 
L 3463 178 
Q 3153 47 2828 -22 
Q 2503 -91 2169 -91 
Q 1331 -91 842 396 
Q 353 884 353 1716 
Q 353 2575 817 3079 
Q 1281 3584 2069 3584 
Q 2775 3584 3186 3129 
Q 3597 2675 3597 1894 
z
M 3022 2063 
Q 3016 2534 2758 2815 
Q 2500 3097 2075 3097 
Q 1594 3097 1305 2825 
Q 1016 2553 972 2059 
L 3022 2063 
z
" transform="scale(0.015625)"/>
      </defs>
      <use xlink:href="#DejaVuSans-2212"/>
      <use xlink:href="#DejaVuSans-31" x="83.789062"/>
      <use xlink:href="#DejaVuSans-65" x="147.412109"/>
      <use xlink:href="#DejaVuSans-32" x="208.935547"/>
     </g>
    </g>
   </g>
   <g id="matplotlib.axis_2">
    <g id="ytick_1">
     <g id="line2d_7">
      <defs>
       <path id="m8e65b29117" d="M 0 0 
L -3.5 0 
" style="stroke: #000000; stroke-width: 0.8"/>
      </defs>
      <g>
       <use xlink:href="#m8e65b29117" x="57.6" y="247.908666" style="stroke: #000000; stroke-width: 0.8"/>
      </g>
     </g>
     <g id="text_8">
      <!-- 19.44 -->
      <g transform="translate(21.971875 251.707884) scale(0.1 -0.1)">
       <defs>
        <path id="DejaVuSans-39" d="M 703 97 
L 703 672 
Q 941 559 1184 500 
Q 1428 441 1663 441 
Q 2288 441 2617 861 
Q 2947 1281 2994 2138 
Q 2813 1869 2534 1725 
Q 2256 1581 1919 1581 
Q 1219 1581 811 2004 
Q 403 2428 403 3163 
Q 403 3881 828 4315 
Q 1253 4750 1959 4750 
Q 2769 4750 3195 4129 
Q 3622 3509 3622 2328 
Q 3622 1225 3098 567 
Q 2575 -91 1691 -91 
Q 1453 -91 1209 -44 
Q 966 3 703 97 
z
M 1959 2075 
Q 2384 2075 2632 2365 
Q 2881 2656 2881 3163 
Q 2881 3666 2632 3958 
Q 2384 4250 1959 4250 
Q 1534 4250 1286 3958 
Q 1038 3666 1038 3163 
Q 1038 2656 1286 2365 
Q 1534 2075 1959 2075 
z
" transform="scale(0.015625)"/>
       </defs>
       <use xlink:href="#DejaVuSans-31"/>
       <use xlink:href="#DejaVuSans-39" x="63.623047"/>
       <use xlink:href="#DejaVuSans-2e" x="127.246094"/>
       <use xlink:href="#DejaVuSans-34" x="159.033203"/>
       <use xlink:href="#DejaVuSans-34" x="222.65625"/>
      </g>
     </g>
    </g>
    <g id="ytick_2">
     <g id="line2d_8">
      <g>
       <use xlink:href="#m8e65b29117" x="57.6" y="216.050346" style="stroke: #000000; stroke-width: 0.8"/>
      </g>
     </g>
     <g id="text_9">
      <!-- 19.45 -->
      <g transform="translate(21.971875 219.849565) scale(0.1 -0.1)">
       <defs>
        <path id="DejaVuSans-35" d="M 691 4666 
L 3169 4666 
L 3169 4134 
L 1269 4134 
L 1269 2991 
Q 1406 3038 1543 3061 
Q 1681 3084 1819 3084 
Q 2600 3084 3056 2656 
Q 3513 2228 3513 1497 
Q 3513 744 3044 326 
Q 2575 -91 1722 -91 
Q 1428 -91 1123 -41 
Q 819 9 494 109 
L 494 744 
Q 775 591 1075 516 
Q 1375 441 1709 441 
Q 2250 441 2565 725 
Q 2881 1009 2881 1497 
Q 2881 1984 2565 2268 
Q 2250 2553 1709 2553 
Q 1456 2553 1204 2497 
Q 953 2441 691 2322 
L 691 4666 
z
" transform="scale(0.015625)"/>
       </defs>
       <use xlink:href="#DejaVuSans-31"/>
       <use xlink:href="#DejaVuSans-39" x="63.623047"/>
       <use xlink:href="#DejaVuSans-2e" x="127.246094"/>
       <use xlink:href="#DejaVuSans-34" x="159.033203"/>
       <use xlink:href="#DejaVuSans-35" x="222.65625"/>
      </g>
     </g>
    </g>
    <g id="ytick_3">
     <g id="line2d_9">
      <g>
       <use xlink:href="#m8e65b29117" x="57.6" y="184.192026" style="stroke: #000000; stroke-width: 0.8"/>
      </g>
     </g>
     <g id="text_10">
      <!-- 19.46 -->
      <g transform="translate(21.971875 187.991245) scale(0.1 -0.1)">
       <use xlink:href="#DejaVuSans-31"/>
       <use xlink:href="#DejaVuSans-39" x="63.623047"/>
       <use xlink:href="#DejaVuSans-2e" x="127.246094"/>
       <use xlink:href="#DejaVuSans-34" x="159.033203"/>
       <use xlink:href="#DejaVuSans-36" x="222.65625"/>
      </g>
     </g>
    </g>
    <g id="ytick_4">
     <g id="line2d_10">
      <g>
       <use xlink:href="#m8e65b29117" x="57.6" y="152.333707" style="stroke: #000000; stroke-width: 0.8"/>
      </g>
     </g>
     <g id="text_11">
      <!-- 19.47 -->
      <g transform="translate(21.971875 156.132925) scale(0.1 -0.1)">
       <defs>
        <path id="DejaVuSans-37" d="M 525 4666 
L 3525 4666 
L 3525 4397 
L 1831 0 
L 1172 0 
L 2766 4134 
L 525 4134 
L 525 4666 
z
" transform="scale(0.015625)"/>
       </defs>
       <use xlink:href="#DejaVuSans-31"/>
       <use xlink:href="#DejaVuSans-39" x="63.623047"/>
       <use xlink:href="#DejaVuSans-2e" x="127.246094"/>
       <use xlink:href="#DejaVuSans-34" x="159.033203"/>
       <use xlink:href="#DejaVuSans-37" x="222.65625"/>
      </g>
     </g>
    </g>
    <g id="ytick_5">
     <g id="line2d_11">
      <g>
       <use xlink:href="#m8e65b29117" x="57.6" y="120.475387" style="stroke: #000000; stroke-width: 0.8"/>
      </g>
     </g>
     <g id="text_12">
      <!-- 19.48 -->
      <g transform="translate(21.971875 124.274606) scale(0.1 -0.1)">
       <defs>
        <path id="DejaVuSans-38" d="M 2034 2216 
Q 1584 2216 1326 1975 
Q 1069 1734 1069 1313 
Q 1069 891 1326 650 
Q 1584 409 2034 409 
Q 2484 409 2743 651 
Q 3003 894 3003 1313 
Q 3003 1734 2745 1975 
Q 2488 2216 2034 2216 
z
M 1403 2484 
Q 997 2584 770 2862 
Q 544 3141 544 3541 
Q 544 4100 942 4425 
Q 1341 4750 2034 4750 
Q 2731 4750 3128 4425 
Q 3525 4100 3525 3541 
Q 3525 3141 3298 2862 
Q 3072 2584 2669 2484 
Q 3125 2378 3379 2068 
Q 3634 1759 3634 1313 
Q 3634 634 3220 271 
Q 2806 -91 2034 -91 
Q 1263 -91 848 271 
Q 434 634 434 1313 
Q 434 1759 690 2068 
Q 947 2378 1403 2484 
z
M 1172 3481 
Q 1172 3119 1398 2916 
Q 1625 2713 2034 2713 
Q 2441 2713 2670 2916 
Q 2900 3119 2900 3481 
Q 2900 3844 2670 4047 
Q 2441 4250 2034 4250 
Q 1625 4250 1398 4047 
Q 1172 3844 1172 3481 
z
" transform="scale(0.015625)"/>
       </defs>
       <use xlink:href="#DejaVuSans-31"/>
       <use xlink:href="#DejaVuSans-39" x="63.623047"/>
       <use xlink:href="#DejaVuSans-2e" x="127.246094"/>
       <use xlink:href="#DejaVuSans-34" x="159.033203"/>
       <use xlink:href="#DejaVuSans-38" x="222.65625"/>
      </g>
     </g>
    </g>
    <g id="ytick_6">
     <g id="line2d_12">
      <g>
       <use xlink:href="#m8e65b29117" x="57.6" y="88.617067" style="stroke: #000000; stroke-width: 0.8"/>
      </g>
     </g>
     <g id="text_13">
      <!-- 19.49 -->
      <g transform="translate(21.971875 92.416286) scale(0.1 -0.1)">
       <use xlink:href="#DejaVuSans-31"/>
       <use xlink:href="#DejaVuSans-39" x="63.623047"/>
       <use xlink:href="#DejaVuSans-2e" x="127.246094"/>
       <use xlink:href="#DejaVuSans-34" x="159.033203"/>
       <use xlink:href="#DejaVuSans-39" x="222.65625"/>
      </g>
     </g>
    </g>
   </g>
   <g id="patch_3">
    <path d="M 57.6 270.834069 
L 57.6 78.221931 
" style="fill: none; stroke: #000000; stroke-width: 0.8; stroke-linejoin: miter; stroke-linecap: square"/>
   </g>
   <g id="patch_4">
    <path d="M 414.72 270.834069 
L 414.72 78.221931 
" style="fill: none; stroke: #000000; stroke-width: 0.8; stroke-linejoin: miter; stroke-linecap: square"/>
   </g>
   <g id="patch_5">
    <path d="M 57.6 270.834069 
L 414.72 270.834069 
" style="fill: none; stroke: #000000; stroke-width: 0.8; stroke-linejoin: miter; stroke-linecap: square"/>
   </g>
   <g id="patch_6">
    <path d="M 57.6 78.221931 
L 414.72 78.221931 
" style="fill: none; stroke: #000000; stroke-width: 0.8; stroke-linejoin: miter; stroke-linecap: square"/>
   </g>
  </g>
 </g>
 <defs>
  <clipPath id="p9962a6f4ab">
   <rect x="57.6" y="78.221931" width="357.12" height="192.612139"/>
  </clipPath>
 </defs>
</svg>
