<?xml version="1.0" encoding="utf-8" standalone="no"?>
<!DOCTYPE svg PUBLIC "-//W3C//DTD SVG 1.1//EN"
  "http://www.w3.org/Graphics/SVG/1.1/DTD/svg11.dtd">
<svg xmlns:xlink="http://www.w3.org/1999/xlink" width="460.8pt" height="345.6pt" viewBox="0 0 460.8 345.6" xmlns="http://www.w3.org/2000/svg" version="1.1">
 <metadata>
  <rdf:RDF xmlns:dc="http://purl.org/dc/elements/1.1/" xmlns:cc="http://creativecommons.org/ns#" xmlns:rdf="http://www.w3.org/1999/02/22-rdf-syntax-ns#">
   <cc:Work>
    <dc:type rdf:resource="http://purl.org/dc/dcmitype/StillImage"/>
    <dc:date>2024-03-04T19:42:44.082872</dc:date>
    <dc:format>image/svg+xml</dc:format>
    <dc:creator>
     <cc:Agent>
      <dc:title>Matplotlib v3.8.0, https://matplotlib.org/</dc:title>
     </cc:Agent>
    </dc:creator>
   </cc:Work>
  </rdf:RDF>
 </metadata>
 <defs>
  <style type="text/css">*{stroke-linejoin: round; stroke-linecap: butt}</style>
 </defs>
 <g id="figure_1">
  <g id="patch_1">
   <path d="M 0 345.6 
L 460.8 345.6 
L 460.8 0 
L 0 0 
z
" style="fill: #ffffff"/>
  </g>
  <g id="axes_1">
   <g id="patch_2">
    <path d="M 57.6 272.249915 
L 414.72 272.249915 
L 414.72 76.806085 
L 57.6 76.806085 
z
" style="fill: #ffffff"/>
   </g>
   <g id="PatchCollection_1">
    <path d="M 85.54516 177.109161 
L 85.169222 176.236135 
L 84.224523 176.135606 
L 83.848581 175.262579 
L 82.903878 175.162052 
L 82.33512 175.934555 
L 81.390417 175.834031 
L 80.821661 176.606535 
L 79.876956 176.506014 
L 79.308203 177.278521 
L 78.363498 177.178003 
L 77.794747 177.950512 
L 76.850041 177.849997 
L 76.474082 176.976972 
L 75.529372 176.876459 
L 75.153409 176.003433 
L 74.208694 175.902921 
L 73.832727 175.029894 
L 74.401478 174.257379 
L 74.02551 173.38435 
L 74.594263 172.611834 
L 74.218294 171.738804 
L 74.787049 170.966288 
L 74.411079 170.093256 
L 74.979836 169.320739 
L 75.924564 169.421257 
L 76.493323 168.648743 
L 76.117356 167.775708 
L 76.686118 167.003194 
L 76.310149 166.130157 
L 76.878914 165.357642 
L 76.502944 164.484604 
L 77.071711 163.712089 
L 78.016447 163.812615 
L 78.585217 163.040102 
L 79.529952 163.14063 
L 80.098724 162.368119 
L 79.72276 161.495077 
L 80.291533 160.722566 
L 81.236271 160.823099 
L 81.805048 160.05059 
L 82.749785 160.151126 
L 83.318563 159.378619 
L 84.2633 159.479158 
L 84.832081 158.706653 
L 84.456125 157.833607 
L 85.024908 157.061102 
L 84.648952 156.188054 
L 85.217738 155.415548 
L 84.841781 154.542499 
L 85.410568 153.769993 
L 85.03461 152.896942 
L 84.089861 152.796397 
L 83.713899 151.923344 
L 84.282689 151.150836 
L 83.906726 150.277782 
L 84.475518 149.505273 
L 84.099554 148.632218 
L 84.668349 147.859709 
L 84.292384 146.986651 
L 83.347621 146.886103 
L 82.971652 146.013045 
L 82.026884 145.912498 
L 81.650911 145.039439 
L 82.219708 144.266925 
L 81.843734 143.393863 
L 82.412533 142.621349 
L 83.357307 142.721899 
L 83.926109 141.949387 
L 84.870881 142.049939 
L 85.439686 141.277429 
L 86.384458 141.377985 
L 86.760422 142.251049 
L 87.70519 142.351606 
L 88.273997 141.5791 
L 89.218764 141.67966 
L 89.594721 142.552724 
L 90.539484 142.653285 
L 91.108293 141.880784 
L 92.053055 141.981348 
L 92.621867 141.208849 
L 93.566628 141.309417 
L 94.135442 140.53692 
L 93.759494 139.663854 
L 94.32831 138.891357 
L 93.952361 138.018288 
L 94.52118 137.245791 
L 94.14523 136.372721 
L 94.714051 135.600224 
L 94.3381 134.727152 
L 93.393326 134.626579 
L 93.017371 133.753506 
L 93.586194 132.981006 
L 93.210239 132.107932 
L 92.265457 132.007358 
L 91.889497 131.134283 
L 92.458322 130.36178 
L 92.082362 129.488703 
L 91.137573 129.38813 
L 90.761608 128.515052 
L 91.330435 127.742546 
L 90.95447 126.869466 
L 90.009673 126.768893 
L 89.633704 125.895812 
L 90.202533 125.123304 
L 91.147333 125.223879 
L 91.716165 124.451373 
L 92.660964 124.551951 
L 93.229798 123.779447 
L 94.174596 123.880028 
L 94.550556 124.753111 
L 95.49535 124.853694 
L 96.064187 124.081194 
L 97.00898 124.18178 
L 97.57782 123.409282 
L 97.201866 122.536197 
L 97.770707 121.7637 
L 97.394753 120.890613 
L 97.963596 120.118115 
L 97.587641 119.245027 
L 98.156487 118.472529 
L 97.78053 117.599438 
L 98.349379 116.82694 
L 97.973421 115.953848 
L 98.542272 115.181349 
L 99.487081 115.281945 
L 99.863035 116.155038 
L 100.807839 116.255635 
L 101.18379 117.128727 
L 102.12859 117.229326 
L 102.504536 118.102417 
L 103.449332 118.203018 
L 103.825274 119.076108 
L 103.256423 119.848597 
L 103.632364 120.721685 
L 104.577153 120.822285 
L 104.95309 121.695373 
L 105.897875 121.795975 
L 106.273808 122.669061 
L 107.218589 122.769664 
L 107.78744 121.997182 
L 108.73222 122.097788 
L 109.301074 121.325308 
L 110.245853 121.425917 
L 110.621776 122.299005 
L 111.566551 122.399615 
L 112.135407 121.62714 
L 113.080181 121.727753 
L 113.456096 122.60084 
L 114.400866 122.701455 
L 114.969725 121.928984 
L 115.914494 122.029602 
L 116.483355 121.257133 
L 117.428124 121.357754 
L 117.804028 122.230842 
L 118.748793 122.331465 
L 119.124693 123.204552 
L 120.069454 123.305176 
L 120.44535 124.178262 
L 119.876489 124.950724 
L 120.252385 125.823808 
L 121.197138 125.924432 
L 121.573029 126.797515 
L 122.517778 126.898141 
L 122.893665 127.771223 
L 123.83841 127.87185 
L 124.407272 127.099395 
L 125.352016 127.200025 
L 125.727896 128.073107 
L 126.672636 128.173738 
L 127.048512 129.04682 
L 127.993248 129.147453 
L 128.369119 130.020533 
L 127.800258 130.792981 
L 128.176129 131.66606 
L 129.120857 131.766692 
L 129.496724 132.639771 
L 128.927865 133.412215 
L 129.303731 134.285292 
L 130.248452 134.385924 
L 130.624314 135.258999 
L 130.055457 136.031442 
L 130.431317 136.904515 
L 129.862463 137.676957 
L 130.238323 138.550029 
L 131.183034 138.65066 
L 131.558889 139.523731 
L 130.990037 140.29617 
L 131.365891 141.169239 
L 130.797042 141.941679 
L 131.172895 142.814746 
L 130.604048 143.587185 
L 129.659346 143.486558 
L 129.090501 144.258999 
L 129.466357 145.132064 
L 128.897514 145.904505 
L 129.273369 146.777568 
L 130.218064 146.878191 
L 130.786907 146.105753 
L 130.411055 145.232689 
L 130.9799 144.46025 
L 131.924598 144.560878 
L 132.493445 143.788442 
L 132.117596 142.915375 
L 132.686446 142.142938 
L 132.310595 141.26987 
L 132.879447 140.497433 
L 133.82415 140.598067 
L 134.393005 139.825632 
L 134.017157 138.952561 
L 134.586014 138.180126 
L 134.210164 137.307053 
L 133.265455 137.206417 
L 132.889602 136.333343 
L 133.458461 135.560905 
L 134.403174 135.661544 
L 134.972035 134.889108 
L 134.596184 134.016032 
L 135.165048 133.243596 
L 134.789196 132.370518 
L 135.358062 131.598082 
L 136.302781 131.698726 
L 136.871649 130.926292 
L 136.4958 130.053211 
L 135.551078 129.952565 
L 135.175224 129.079484 
L 135.744095 128.307047 
L 135.36824 127.433964 
L 134.423512 127.333318 
L 134.047653 126.460234 
L 134.616526 125.687794 
L 135.561258 125.788442 
L 135.937114 126.661527 
L 136.881842 126.762176 
L 137.450717 125.989741 
L 137.074865 125.116655 
L 137.643743 124.34422 
L 138.588473 124.444873 
L 139.157353 123.67244 
L 138.781503 122.799351 
L 139.350386 122.026918 
L 140.295119 122.127576 
L 140.864003 121.355145 
L 141.808735 121.455805 
L 142.377623 120.683376 
L 142.001778 119.810284 
L 142.570668 119.037855 
L 143.515402 119.13852 
L 144.084294 118.366093 
L 143.708452 117.492998 
L 144.277346 116.720571 
L 143.901503 115.847474 
L 144.470399 115.075046 
L 145.415139 115.175718 
L 145.984038 114.403292 
L 145.608197 113.530193 
L 146.177099 112.757767 
L 145.801257 111.884666 
L 144.85651 111.783992 
L 144.480664 110.91089 
L 145.049568 110.138461 
L 144.67372 109.265358 
L 143.728967 109.164684 
L 143.353115 108.291579 
L 142.408357 108.190906 
L 142.032502 107.317801 
L 141.08774 107.21713 
L 140.711881 106.344023 
L 139.767115 106.243353 
L 139.391251 105.370246 
L 138.446481 105.269578 
L 138.070613 104.396469 
L 138.639519 103.624029 
L 138.26365 102.750919 
L 137.318873 102.65025 
L 136.943 101.77714 
L 137.511908 101.004696 
L 137.136034 100.131584 
L 136.19125 100.030915 
L 135.815372 99.157802 
L 136.384282 98.385356 
L 136.008403 97.51224 
L 136.577316 96.739794 
L 136.201436 95.866677 
L 136.770351 95.094231 
L 137.715146 95.194904 
L 138.284063 94.422459 
L 139.228857 94.523135 
L 139.60473 95.396254 
L 139.035812 96.168696 
L 139.411685 97.041813 
L 140.356471 97.142489 
L 140.732339 98.015605 
L 141.677122 98.116283 
L 142.052986 98.989398 
L 142.997764 99.090077 
L 143.566681 98.317642 
L 144.511459 98.418324 
L 145.080379 97.645891 
L 144.704521 96.772774 
L 145.273443 96.000341 
L 144.897584 95.127223 
L 145.466509 94.354789 
L 145.090649 93.481669 
L 145.659576 92.709235 
L 146.604362 92.809925 
L 147.173292 92.037493 
L 148.118077 92.138186 
L 148.687009 91.365756 
L 148.311154 90.492632 
L 148.880088 89.720203 
L 149.824876 89.8209 
L 150.393812 89.048472 
L 151.3386 89.149172 
L 151.714447 90.022298 
L 152.65923 90.122999 
L 153.228169 89.350576 
L 154.172951 89.45128 
L 154.741892 88.67886 
L 155.686674 88.779567 
L 156.255617 88.007148 
L 155.879779 87.13402 
L 156.448724 86.361601 
L 157.393508 86.462312 
L 157.962456 85.689896 
L 158.907239 85.79061 
L 159.283071 86.66374 
L 160.22785 86.764456 
L 160.603678 87.637585 
L 161.548452 87.738303 
L 161.924276 88.611431 
L 162.869047 88.71215 
L 163.244866 89.585277 
L 162.675918 90.357685 
L 163.051736 91.23081 
L 163.9965 91.331529 
L 164.372314 92.204654 
L 165.317074 92.305374 
L 165.692884 93.178498 
L 166.637639 93.279219 
L 167.013445 94.152342 
L 167.958197 94.253065 
L 168.527145 93.480668 
L 169.471895 93.581394 
L 169.847694 94.454516 
L 170.792441 94.555244 
L 171.361391 93.782851 
L 172.306137 93.883582 
L 172.681929 94.756704 
L 173.62667 94.857436 
L 174.195623 94.085047 
L 175.140364 94.185782 
L 175.70932 93.413396 
L 176.65406 93.514134 
L 177.223018 92.741749 
L 178.167757 92.84249 
L 178.543534 93.715614 
L 179.488269 93.816357 
L 180.05723 93.043977 
L 181.001964 93.144722 
L 181.377734 94.017846 
L 180.808774 94.790224 
L 181.184543 95.663347 
L 182.12927 95.764092 
L 182.505036 96.637213 
L 181.936077 97.409589 
L 182.311842 98.282708 
L 181.742886 99.055083 
L 182.11865 99.928201 
L 183.063366 100.028945 
L 183.439125 100.902062 
L 182.870172 101.674435 
L 183.24593 102.54755 
L 184.190639 102.648294 
L 184.566393 103.521408 
L 183.997442 104.293778 
L 184.373196 105.16689 
L 185.317897 105.267634 
L 185.693647 106.140746 
L 186.638344 106.241491 
L 187.014089 107.114601 
L 187.958783 107.215348 
L 188.334524 108.088458 
L 189.279213 108.189206 
L 189.65495 109.062315 
L 190.599636 109.163064 
L 191.168587 108.390707 
L 190.792854 107.517597 
L 191.361808 106.745239 
L 192.306495 106.845993 
L 192.875452 106.073637 
L 193.820139 106.174394 
L 194.389097 105.40204 
L 195.333784 105.5028 
L 195.902745 104.730448 
L 196.84743 104.831211 
L 197.416393 104.058861 
L 198.361078 104.159627 
L 198.930044 103.38728 
L 198.554325 102.514164 
L 199.123293 101.741816 
L 198.747573 100.868699 
L 199.316544 100.096351 
L 200.261234 100.197122 
L 200.830207 99.424776 
L 200.454489 98.551656 
L 201.023465 97.77931 
L 200.647746 96.906188 
L 201.216724 96.133842 
L 200.841004 95.260718 
L 201.409984 94.488371 
L 201.034264 93.615246 
L 201.603246 92.842899 
L 201.227525 91.969771 
L 201.796509 91.197424 
L 201.420787 90.324295 
L 201.989774 89.551947 
L 201.614051 88.678817 
L 202.18304 87.906469 
L 203.127752 88.007254 
L 203.696744 87.234909 
L 204.641455 87.335697 
L 205.210449 86.563354 
L 206.155159 86.664145 
L 206.724155 85.891804 
L 207.668865 85.992598 
L 208.044575 86.865732 
L 208.98928 86.966528 
L 209.364987 87.839662 
L 210.309688 87.940459 
L 210.68539 88.813591 
L 210.116394 89.585926 
L 210.492095 90.459056 
L 209.923101 91.23139 
L 210.298801 92.104519 
L 209.729809 92.876853 
L 210.105508 93.74998 
L 209.536519 94.522314 
L 209.912217 95.395439 
L 210.856901 95.496232 
L 211.232596 96.369356 
L 210.663609 97.141687 
L 211.039302 98.01481 
L 210.470317 98.78714 
L 210.846009 99.660261 
L 211.790683 99.761052 
L 212.166371 100.634172 
L 211.597389 101.4065 
L 211.973076 102.279618 
L 212.917742 102.380409 
L 213.293426 103.253527 
L 212.724445 104.025852 
L 213.100128 104.898968 
L 214.044787 104.999758 
L 214.420465 105.872873 
L 215.36512 105.973665 
L 215.740794 106.846779 
L 215.171816 107.6191 
L 215.547489 108.492211 
L 214.978513 109.264531 
L 215.354185 110.137642 
L 214.785212 110.909961 
L 215.160883 111.78307 
L 214.591912 112.555389 
L 214.967582 113.428496 
L 214.398614 114.200815 
L 214.774283 115.07392 
L 215.718918 115.174706 
L 216.094583 116.04781 
L 217.039214 116.148598 
L 217.414875 117.021701 
L 218.359502 117.12249 
L 218.928471 116.350178 
L 218.552813 115.477074 
L 219.121784 114.704762 
L 220.066413 114.805555 
L 220.635386 114.033245 
L 220.259731 113.160138 
L 220.828707 112.387828 
L 220.45305 111.51472 
L 221.022028 110.742409 
L 220.646371 109.869299 
L 221.215351 109.096988 
L 220.839693 108.223876 
L 221.408676 107.451565 
L 222.353317 107.552367 
L 222.922302 106.780058 
L 222.546646 105.906944 
L 223.115634 105.134634 
L 224.060277 105.235441 
L 224.629267 104.463134 
L 224.253613 103.590017 
L 224.822606 102.817709 
L 224.446951 101.94459 
L 225.015945 101.172282 
L 224.64029 100.299162 
L 225.209286 99.526854 
L 224.83363 98.653731 
L 225.402629 97.881423 
L 225.026971 97.008299 
L 225.595973 96.23599 
L 225.220314 95.362864 
L 225.789318 94.590555 
L 226.73398 94.691374 
L 227.302987 93.919067 
L 228.247648 94.01989 
L 228.816657 93.247585 
L 229.761317 93.34841 
L 230.330328 92.576108 
L 231.274988 92.676936 
L 231.844001 91.904635 
L 231.468355 91.031504 
L 232.03737 90.259203 
L 232.982033 90.360036 
L 233.55105 89.587737 
L 233.175406 88.714604 
L 233.744426 87.942305 
L 234.689091 88.043142 
L 235.258114 87.270845 
L 236.202778 87.371685 
L 236.578415 88.244821 
L 237.523075 88.345662 
L 238.0921 87.57337 
L 239.036759 87.674214 
L 239.605787 86.901924 
L 240.550445 87.002772 
L 240.926072 87.875908 
L 240.357045 88.648196 
L 240.732671 89.52133 
L 241.677322 89.622178 
L 242.052944 90.495311 
L 241.483919 91.267596 
L 241.859541 92.140728 
L 241.290518 92.913013 
L 241.666138 93.786143 
L 241.097118 94.558428 
L 241.472737 95.431556 
L 240.903719 96.20384 
L 241.279338 97.076967 
L 240.710322 97.849251 
L 241.08594 98.722376 
L 240.516926 99.494659 
L 240.892543 100.367782 
L 240.323532 101.140066 
L 240.699148 102.013187 
L 240.130139 102.785471 
L 240.505754 103.65859 
L 239.936747 104.430873 
L 240.312361 105.303991 
L 239.743357 106.076273 
L 240.11897 106.949389 
L 239.549968 107.721672 
L 239.92558 108.594786 
L 239.356581 109.367068 
L 239.732192 110.24018 
L 239.163195 111.012463 
L 239.538805 111.885573 
L 238.96981 112.657855 
L 239.345419 113.530963 
L 238.776427 114.303245 
L 239.152035 115.176352 
L 238.583045 115.948633 
L 238.958652 116.821738 
L 238.389664 117.59402 
L 238.765271 118.467123 
L 239.709863 118.567946 
L 240.085465 119.441048 
L 239.516479 120.213327 
L 239.892081 121.086427 
L 240.836665 121.18725 
L 241.212263 122.06035 
L 242.156843 122.161175 
L 242.532437 123.034273 
L 241.963453 123.806547 
L 242.339045 124.679644 
L 243.283618 124.780468 
L 243.659207 125.653564 
L 243.090225 126.425835 
L 243.465813 127.29893 
L 242.896834 128.0712 
L 243.27242 128.944293 
L 242.703444 129.716563 
L 243.079029 130.589654 
L 244.023588 130.690475 
L 244.39917 131.563565 
L 243.830196 132.335833 
L 244.205776 133.208921 
L 243.636804 133.981188 
L 244.012384 134.854274 
L 243.443414 135.626541 
L 243.818993 136.499626 
L 244.763538 136.600444 
L 245.139113 137.473528 
L 244.570145 138.245792 
L 244.945719 139.118874 
L 245.890257 139.219692 
L 246.265826 140.092773 
L 247.21036 140.193593 
L 247.585926 141.066673 
L 248.530455 141.167494 
L 248.906017 142.040573 
L 248.337051 142.81283 
L 248.712612 143.685907 
L 249.657134 143.786728 
L 250.2261 143.014473 
L 251.170621 143.115297 
L 251.739589 142.343045 
L 251.364035 141.469966 
L 251.933005 140.697713 
L 252.877529 140.798541 
L 253.446502 140.026291 
L 253.07095 139.153209 
L 253.639925 138.380958 
L 253.264372 137.507874 
L 253.833349 136.735623 
L 254.777879 136.836458 
L 255.346858 136.064208 
L 254.971308 135.191122 
L 255.54029 134.418873 
L 255.164738 133.545785 
L 255.733722 132.773535 
L 256.678258 132.874376 
L 257.247244 132.102128 
L 256.871695 131.229038 
L 257.440684 130.45679 
L 257.065134 129.583698 
L 257.634125 128.81145 
L 257.258574 127.938356 
L 257.827567 127.166107 
L 257.452016 126.293012 
L 258.021011 125.520763 
L 257.645459 124.647665 
L 258.214457 123.875416 
L 257.838903 123.002317 
L 258.407903 122.230068 
L 259.352457 122.33092 
L 259.92146 121.558673 
L 259.545909 120.685571 
L 260.114914 119.913324 
L 259.739361 119.04022 
L 260.308369 118.267973 
L 261.252928 118.368831 
L 261.821938 117.596586 
L 262.766497 117.697447 
L 263.142043 118.570553 
L 262.573033 119.342796 
L 262.948578 120.2159 
L 263.89313 120.316761 
L 264.26867 121.189864 
L 263.699663 121.962104 
L 264.075203 122.835205 
L 263.506198 123.607445 
L 263.881737 124.480545 
L 263.312734 125.252784 
L 263.688272 126.125882 
L 263.119272 126.898122 
L 263.494809 127.771217 
L 264.439343 127.872074 
L 264.814876 128.745169 
L 264.245878 129.517406 
L 264.62141 130.390499 
L 264.052414 131.162735 
L 264.427945 132.035827 
L 263.858952 132.808063 
L 264.234482 133.681152 
L 263.665491 134.453389 
L 264.04102 135.326476 
L 263.472031 136.098712 
L 262.527513 135.997863 
L 261.958526 136.770101 
L 262.334058 137.643186 
L 261.765074 138.415424 
L 262.140604 139.288507 
L 261.571623 140.060745 
L 261.947152 140.933826 
L 261.378173 141.706064 
L 261.753702 142.579143 
L 261.184724 143.35138 
L 261.560252 144.224458 
L 262.504754 144.3253 
L 262.880278 145.198377 
L 262.311303 145.970611 
L 262.686826 146.843686 
L 262.117853 147.61592 
L 262.493375 148.488994 
L 261.924405 149.261228 
L 262.299926 150.134299 
L 261.730958 150.906533 
L 262.106478 151.779603 
L 261.537512 152.551836 
L 261.913031 153.424904 
L 261.344068 154.197137 
L 261.719586 155.070204 
L 261.150625 155.842436 
L 261.526142 156.715501 
L 262.470618 156.816333 
L 262.846131 157.689397 
L 262.277172 158.461627 
L 262.652684 159.334689 
L 262.083728 160.106919 
L 262.459239 160.979979 
L 263.403704 161.08081 
L 263.779211 161.953869 
L 264.723672 162.054701 
L 265.099175 162.927759 
L 266.043632 163.028593 
L 266.419131 163.90165 
L 267.363584 164.002485 
L 267.739078 164.875542 
L 268.683527 164.976378 
L 269.252484 164.20416 
L 270.196931 164.305 
L 270.572419 165.178056 
L 271.516863 165.278897 
L 272.085822 164.506683 
L 273.030264 164.607527 
L 273.599226 163.835316 
L 274.543668 163.936163 
L 275.112632 163.163953 
L 276.057073 163.264803 
L 276.626039 162.492596 
L 276.250564 161.619537 
L 276.819533 160.847329 
L 276.444057 159.974268 
L 277.013028 159.20206 
L 276.637551 158.328997 
L 277.206525 157.556788 
L 276.831047 156.683723 
L 277.400023 155.911515 
L 277.024544 155.038448 
L 277.593522 154.26624 
L 277.218042 153.393171 
L 277.787023 152.620962 
L 277.411542 151.747892 
L 277.980525 150.975683 
L 277.605043 150.102611 
L 278.174028 149.330401 
L 277.798546 148.457328 
L 278.367533 147.685118 
L 279.312003 147.785985 
L 279.880992 147.013777 
L 279.505512 146.140701 
L 280.074504 145.368493 
L 281.018976 145.469364 
L 281.58797 144.697158 
L 281.212492 143.824079 
L 281.781489 143.051873 
L 282.725963 143.152749 
L 283.294962 142.380545 
L 284.239435 142.481423 
L 284.808437 141.709222 
L 285.752909 141.810103 
L 286.321913 141.037904 
L 287.266385 141.138788 
L 287.835391 140.366591 
L 288.779861 140.467478 
L 289.34887 139.695283 
L 290.29334 139.796173 
L 290.668798 140.669257 
L 290.09979 141.44145 
L 290.475248 142.314533 
L 291.41971 142.415423 
L 291.795164 143.288505 
L 292.739622 143.389396 
L 293.115072 144.262477 
L 294.059526 144.36337 
L 294.628535 143.591184 
L 295.572989 143.692081 
L 296.142 142.919897 
L 295.766557 142.046815 
L 296.33557 141.274631 
L 297.280026 141.375531 
L 297.655466 142.248614 
L 298.599918 142.349517 
L 298.975354 143.222599 
L 299.919802 143.323502 
L 300.295233 144.196584 
L 299.72622 144.968761 
L 300.10165 145.84184 
L 301.046091 145.942744 
L 301.421518 146.815822 
L 300.852506 147.587997 
L 301.227932 148.461073 
L 302.172365 148.561977 
L 302.547787 149.435053 
L 303.492216 149.535958 
L 303.867633 150.409033 
L 304.812059 150.509939 
L 305.38107 149.737772 
L 306.325494 149.838681 
L 306.700904 150.711756 
L 307.645325 150.812667 
L 308.214338 150.040504 
L 309.158758 150.141418 
L 309.727774 149.369257 
L 310.672192 149.470174 
L 311.241211 148.698016 
L 312.185629 148.798935 
L 312.754649 148.026779 
L 312.379252 147.153701 
L 312.948275 146.381544 
L 312.572877 145.508464 
L 313.141902 144.736307 
L 312.766503 143.863225 
L 311.822076 143.762301 
L 311.25305 144.53446 
L 310.308622 144.433539 
L 309.933216 143.560457 
L 310.502241 142.788295 
L 311.446672 142.889218 
L 312.0157 142.117059 
L 312.960131 142.217984 
L 313.529161 141.445827 
L 314.473591 141.546756 
L 315.042623 140.7746 
L 315.987052 140.875532 
L 316.556087 140.103379 
L 317.500515 140.204314 
L 317.875906 141.0774 
L 317.306871 141.849551 
L 317.68226 142.722635 
L 318.626681 142.82357 
L 319.195716 142.051421 
L 320.140136 142.152359 
L 320.515518 143.025443 
L 321.459934 143.126382 
L 321.835312 143.999466 
L 321.266278 144.771609 
L 321.641655 145.644691 
L 322.586063 145.74563 
L 322.961436 146.61871 
L 323.905841 146.719651 
L 324.28121 147.592731 
L 323.712177 148.364869 
L 324.087545 149.237947 
L 325.031943 149.338888 
L 325.407306 150.211965 
L 324.838276 150.984101 
L 325.213639 151.857176 
L 324.644611 152.629312 
L 325.019973 153.502385 
L 324.450947 154.274521 
L 324.826308 155.147593 
L 325.770692 155.24853 
L 326.146049 156.121601 
L 325.577025 156.893733 
L 325.952381 157.766802 
L 326.896758 157.86774 
L 327.27211 158.740808 
L 326.703088 159.512938 
L 327.078439 160.386004 
L 326.509421 161.158134 
L 326.884771 162.031199 
L 327.829136 162.132134 
L 328.204482 163.005198 
L 327.635466 163.777325 
L 328.010811 164.650387 
L 328.955169 164.751322 
L 329.33051 165.624383 
L 328.761496 166.396508 
L 329.136836 167.269567 
L 330.081187 167.370503 
L 330.456523 168.243561 
L 331.40087 168.344498 
L 331.776201 169.217555 
L 332.720544 169.318493 
L 333.289559 168.546376 
L 332.91423 167.673317 
L 333.483247 166.9012 
L 334.427592 167.002142 
L 334.996611 166.230027 
L 334.621285 165.356966 
L 335.190306 164.58485 
L 336.134654 164.685797 
L 336.703678 163.913683 
L 337.648025 164.014633 
L 338.217051 163.242522 
L 339.161397 163.343475 
L 339.730425 162.571365 
L 340.674771 162.672321 
L 341.243801 161.900214 
L 342.188146 162.001173 
L 342.757179 161.229067 
L 342.381868 160.356 
L 342.950903 159.583895 
L 343.89525 159.684858 
L 344.270558 160.557926 
L 345.214901 160.658891 
L 345.783939 159.88679 
L 346.728281 159.987758 
L 347.297321 159.215659 
L 348.241662 159.31663 
L 348.810705 158.544533 
L 349.755045 158.645507 
L 350.32409 157.873412 
L 351.268429 157.974389 
L 351.837476 157.202296 
L 351.462184 156.329224 
L 352.031234 155.557131 
L 352.975576 155.658112 
L 353.544628 154.886022 
L 354.488969 154.987006 
L 355.058023 154.214917 
L 356.002363 154.315905 
L 356.57142 153.543818 
L 356.196137 152.670742 
L 356.765196 151.898655 
L 357.709538 151.999647 
L 358.2786 151.227562 
L 359.222941 151.328557 
L 359.792005 150.556474 
L 359.416727 149.683394 
L 359.985794 148.911311 
L 360.930138 149.01231 
L 361.499206 148.24023 
L 362.443549 148.341232 
L 363.01262 147.569153 
L 363.956963 147.670158 
L 364.332231 148.543241 
L 365.276569 148.644247 
L 365.845642 147.872173 
L 366.78998 147.973183 
L 367.359055 147.201111 
L 368.303392 147.302123 
L 368.67865 148.175206 
L 369.622982 148.27622 
L 370.19206 147.504153 
L 371.136392 147.60517 
L 371.511642 148.478253 
L 372.45597 148.579271 
L 372.831216 149.452353 
L 372.262138 150.224416 
L 372.637384 151.097496 
L 372.068308 151.869559 
L 372.443552 152.742637 
L 371.874479 153.5147 
L 372.249722 154.387776 
L 373.194036 154.488792 
L 373.569276 155.361867 
L 373.000204 156.133927 
L 373.375443 157.007001 
L 372.806374 157.779061 
L 373.181612 158.652133 
L 372.612545 159.424192 
L 372.987782 160.297262 
L 372.418717 161.069321 
L 372.793953 161.94239 
L 373.73825 162.043401 
L 374.113482 162.916468 
L 373.54442 163.688525 
L 373.91965 164.561591 
L 374.86394 164.662601 
L 375.239166 165.535666 
L 374.670107 166.30772 
L 375.045332 167.180783 
L 374.476275 167.952837 
L 374.8515 168.825898 
L 374.282445 169.597951 
L 374.657669 170.471011 
L 375.601944 170.572018 
L 375.977164 171.445077 
L 375.408111 172.217127 
L 375.78333 173.090184 
L 375.21428 173.862235 
L 375.589497 174.73529 
L 376.533763 174.836296 
L 376.908976 175.70935 
L 376.339928 176.481398 
L 376.715141 177.35445 
L 377.659399 177.455456 
L 378.034607 178.328507 
L 378.978861 178.429515 
L 379.354066 179.302565 
L 380.298315 179.403574 
L 380.673516 180.276623 
L 380.10447 181.048664 
L 380.479669 181.921712 
L 381.423912 182.02272 
L 381.799107 182.895767 
L 382.743345 182.996777 
L 383.118537 183.869823 
L 384.062771 183.970835 
L 384.437958 184.84388 
L 385.382188 184.944893 
L 385.757371 185.817937 
L 386.701597 185.918951 
L 387.076776 186.791994 
L 386.507732 187.564022 
L 386.88291 188.437064 
L 387.827129 188.538078 
L 388.202303 189.411119 
L 387.633261 190.183144 
L 388.008434 191.056183 
L 388.952646 191.157197 
L 389.327815 192.030235 
L 388.758775 192.802258 
L 389.133943 193.675294 
L 390.078147 193.776308 
L 390.453311 194.649343 
L 391.397511 194.750358 
L 391.772671 195.623393 
L 392.716867 195.724409 
L 393.092022 196.597443 
L 394.036214 196.698461 
L 394.411366 197.571493 
L 393.842328 198.343506 
L 394.217479 199.216537 
L 393.648444 199.98855 
L 394.023594 200.861579 
L 393.454561 201.633591 
L 392.510379 201.532577 
L 391.941349 202.304592 
L 392.316501 203.177618 
L 393.26068 203.27863 
L 393.635828 204.151656 
L 393.0668 204.923668 
L 393.441947 205.796691 
L 394.386118 205.897703 
L 394.761261 206.770726 
L 394.192236 207.542735 
L 394.567377 208.415756 
L 395.511542 208.516768 
L 395.886679 209.389787 
L 395.317656 210.161794 
L 394.373495 210.060784 
L 393.804474 210.832793 
L 394.179614 211.70581 
L 393.610596 212.477818 
L 393.985735 213.350834 
L 394.929889 213.451841 
L 395.305024 214.324855 
L 396.249175 214.425864 
L 396.624305 215.298878 
L 396.055289 216.070882 
L 395.111142 215.969874 
L 394.542128 216.74188 
L 394.917261 217.614891 
L 395.861405 217.715897 
L 396.236534 218.588906 
L 395.667522 219.360909 
L 396.04265 220.233918 
L 396.986787 220.334923 
L 397.361911 221.207931 
L 396.792901 221.979931 
L 397.168024 222.852936 
L 398.112154 222.953942 
L 398.487273 223.826947 
L 397.918266 224.598944 
L 398.293384 225.471947 
L 397.724379 226.243945 
L 398.099496 227.116945 
L 397.530493 227.888943 
L 396.586374 227.787942 
L 396.017374 228.559941 
L 395.073253 228.458943 
L 394.504255 229.230944 
L 393.560134 229.129949 
L 393.185007 228.256951 
L 392.240882 228.155957 
L 391.865751 227.282958 
L 390.921622 227.181965 
L 390.352626 227.953973 
L 389.408496 227.852984 
L 389.033358 226.979985 
L 388.089224 226.878997 
L 387.714081 226.005996 
L 386.769943 225.90501 
L 386.394797 225.032009 
L 385.450654 224.931024 
L 384.881661 225.703041 
L 383.937518 225.602059 
L 383.562364 224.729058 
L 382.618217 224.628077 
L 382.243059 223.755075 
L 382.812052 222.983052 
L 382.436893 222.110048 
L 381.492738 222.009068 
L 381.117575 221.136063 
L 380.173417 221.035083 
L 379.79825 220.162078 
L 378.854087 220.0611 
L 378.478916 219.188093 
L 379.047911 218.416063 
L 378.672739 217.543054 
L 377.728568 217.442076 
L 377.353392 216.569067 
L 377.92239 215.797035 
L 377.547213 214.924023 
L 378.116212 214.151991 
L 377.741034 213.278978 
L 376.796853 213.177998 
L 376.421671 212.304984 
L 375.477487 212.204006 
L 375.1023 211.330991 
L 374.158111 211.230014 
L 373.782921 210.356998 
L 372.838728 210.256023 
L 372.463534 209.383006 
L 373.032535 208.610964 
L 372.65734 207.737945 
L 371.71314 207.63697 
L 371.33794 206.76395 
L 370.393736 206.662976 
L 370.018532 205.789956 
L 370.587536 205.017908 
L 370.212332 204.144886 
L 369.26812 204.043912 
L 368.892912 203.170889 
L 367.948696 203.069916 
L 367.573483 202.196892 
L 368.142489 201.42484 
L 367.767276 200.551814 
L 366.823053 200.450841 
L 366.447835 199.577814 
L 365.503608 199.476843 
L 365.128386 198.603815 
L 364.184154 198.502846 
L 363.808928 197.629817 
L 362.864693 197.528849 
L 362.295687 198.300911 
L 361.351451 198.199945 
L 360.976217 197.326917 
L 360.031977 197.225953 
L 359.65674 196.352923 
L 358.712495 196.25196 
L 358.337254 195.37893 
L 357.393005 195.277969 
L 356.824002 196.05004 
L 355.879753 195.949082 
L 355.504504 195.076051 
L 354.56025 194.975095 
L 354.184997 194.102063 
L 353.24074 194.001108 
L 352.671739 194.773186 
L 351.72748 194.672234 
L 351.35222 193.799202 
L 350.407958 193.698251 
L 349.838959 194.470334 
L 348.894696 194.369386 
L 348.3257 195.14147 
L 347.381436 195.040526 
L 346.812441 195.812612 
L 347.187711 196.685642 
L 348.131972 196.786585 
L 348.507238 197.659613 
L 347.938246 198.431697 
L 348.313511 199.304724 
L 349.257764 199.405667 
L 349.633025 200.278692 
L 350.577275 200.379637 
L 350.952531 201.252662 
L 351.896777 201.353608 
L 352.272029 202.226631 
L 353.21627 202.327579 
L 353.591519 203.200602 
L 354.535756 203.301551 
L 354.911 204.174573 
L 355.855233 204.275523 
L 356.230473 205.148544 
L 355.661484 205.920613 
L 356.036723 206.793633 
L 356.980949 206.894583 
L 357.356184 207.767601 
L 358.300405 207.868553 
L 358.675636 208.74157 
L 358.106649 209.513635 
L 358.481879 210.38665 
L 359.426093 210.487602 
L 359.801319 211.360616 
L 360.74553 211.46157 
L 361.120751 212.334583 
L 360.551766 213.106643 
L 360.926987 213.979654 
L 361.87119 214.080608 
L 362.246407 214.953618 
L 363.190606 215.054573 
L 363.565819 215.927583 
L 364.510013 216.028539 
L 364.885222 216.901548 
L 364.316239 217.6736 
L 364.691447 218.546607 
L 365.635634 218.647563 
L 366.010838 219.520569 
L 366.955021 219.621527 
L 367.33022 220.494532 
L 368.2744 220.595491 
L 368.649595 221.468495 
L 369.59377 221.569455 
L 369.968961 222.442459 
L 370.913133 222.543421 
L 371.28832 223.416423 
L 370.719339 224.188463 
L 371.094525 225.061464 
L 372.038689 225.162425 
L 372.413871 226.035425 
L 371.844892 226.807463 
L 372.220073 227.680461 
L 373.16423 227.781422 
L 373.539407 228.654419 
L 372.97043 229.426454 
L 373.345607 230.299449 
L 374.289756 230.400411 
L 374.664928 231.273405 
L 374.095954 232.045437 
L 374.471125 232.91843 
L 373.902153 233.690462 
L 374.277323 234.563453 
L 373.708354 235.335484 
L 374.083523 236.208473 
L 375.027658 236.309432 
L 375.402823 237.18242 
L 374.833856 237.954449 
L 375.20902 238.827435 
L 376.153148 238.928393 
L 376.528308 239.801379 
L 375.959344 240.573405 
L 376.334503 241.446388 
L 375.76554 242.218415 
L 376.140698 243.091396 
L 377.084816 243.192353 
L 377.45997 244.065334 
L 376.89101 244.837357 
L 377.266163 245.710336 
L 376.697205 246.482359 
L 377.072357 247.355337 
L 376.503401 248.12736 
L 376.878553 249.000335 
L 377.822657 249.101289 
L 378.197804 249.974263 
L 377.62885 250.746283 
L 378.003997 251.619256 
L 378.948093 251.72021 
L 379.323235 252.593181 
L 378.754284 253.365199 
L 379.129425 254.238169 
L 380.073515 254.339122 
L 380.448652 255.212092 
L 379.879703 255.984107 
L 380.254839 256.857074 
L 381.198921 256.958027 
L 381.574053 257.830994 
L 381.005106 258.603006 
L 381.380238 259.47597 
L 382.324312 259.576924 
L 382.699439 260.449887 
L 382.130495 261.221897 
L 382.505621 262.094859 
L 381.936679 262.866868 
L 380.992611 262.765918 
L 380.617482 261.892957 
L 379.67341 261.792009 
L 379.10447 262.564023 
L 378.160397 262.463077 
L 377.785261 261.590116 
L 376.841183 261.489172 
L 376.272246 262.26119 
L 375.328168 262.160249 
L 374.953024 261.287287 
L 374.008943 261.186348 
L 373.633794 260.313386 
L 372.689708 260.212447 
L 372.120774 260.984472 
L 371.176687 260.883537 
L 370.607754 261.655564 
L 369.663667 261.554632 
L 369.094737 262.326661 
L 368.150648 262.225732 
L 367.581721 262.997764 
L 366.637631 262.896837 
L 366.262466 262.023877 
L 365.318373 261.922952 
L 364.749448 262.694988 
L 363.805353 262.594066 
L 363.23643 263.366104 
L 362.292335 263.265185 
L 361.91716 262.392226 
L 360.973061 262.291309 
L 360.597881 261.418349 
L 359.653778 261.317433 
L 359.084857 262.089478 
L 358.140753 261.988564 
L 357.765566 261.115604 
L 356.821458 261.014692 
L 356.446267 260.141732 
L 355.502155 260.040821 
L 355.126959 259.167859 
L 354.182843 259.06695 
L 353.807644 258.193988 
L 352.863523 258.09308 
L 352.48832 257.220116 
L 351.544195 257.11921 
L 351.168988 256.246246 
L 350.224859 256.145341 
L 349.849648 255.272376 
L 348.905515 255.171472 
L 348.336597 255.943536 
L 347.392464 255.842636 
L 347.017245 254.96967 
L 346.073107 254.868771 
L 345.504192 255.64084 
L 344.560053 255.539944 
L 344.184827 254.666978 
L 344.753743 253.894907 
L 344.378515 253.02194 
L 343.43437 252.921044 
L 343.059138 252.048076 
L 342.114989 251.947181 
L 341.739753 251.074212 
L 340.795599 250.973319 
L 340.42036 250.100348 
L 340.989277 249.32827 
L 340.614037 248.455298 
L 339.669876 248.354405 
L 339.294631 247.481432 
L 339.863551 246.709351 
L 339.488305 245.836377 
L 340.057227 245.064296 
L 341.001395 245.165192 
L 341.57032 244.393113 
L 341.195076 243.520136 
L 341.764003 242.748056 
L 341.388759 241.875077 
L 340.444585 241.774178 
L 340.069337 240.901198 
L 340.638266 240.129116 
L 340.263017 239.256134 
L 340.831948 238.484052 
L 340.456698 237.611068 
L 341.025632 236.838986 
L 340.650381 235.966001 
L 339.706193 235.865098 
L 339.330938 234.992112 
L 339.899874 234.220027 
L 339.524617 233.347039 
L 338.580422 233.246136 
L 338.205162 232.373147 
L 338.7741 231.60106 
L 338.398839 230.728069 
L 337.454637 230.627166 
L 337.079371 229.754174 
L 336.135165 229.653273 
L 335.759896 228.78028 
L 336.328836 228.008188 
L 335.953566 227.135193 
L 335.009352 227.034292 
L 334.634077 226.161297 
L 333.689859 226.060397 
L 333.314581 225.1874 
L 332.370359 225.086502 
L 331.995076 224.213505 
L 331.05085 224.112608 
L 330.675563 223.23961 
L 329.731333 223.138714 
L 329.356042 222.265715 
L 328.411808 222.164821 
L 328.036513 221.291821 
L 327.092275 221.190928 
L 326.716976 220.317927 
L 325.772733 220.217036 
L 325.203793 220.989148 
L 324.25955 220.88826 
L 323.884243 220.015258 
L 322.939996 219.914372 
L 322.371058 220.686488 
L 321.42681 220.585604 
L 321.051496 219.712603 
L 320.107244 219.611721 
L 319.538308 220.383841 
L 319.913625 221.256842 
L 319.344692 222.028962 
L 318.400442 221.928084 
L 317.831512 222.700207 
L 316.887261 222.599332 
L 316.318333 223.371456 
L 315.374081 223.270584 
L 314.805155 224.042711 
L 313.860903 223.941842 
L 313.485573 223.068845 
L 312.541317 222.967978 
L 311.972393 223.740109 
L 312.347726 224.613105 
L 311.778805 225.385236 
L 310.834551 225.284373 
L 310.459215 224.411378 
L 309.514956 224.310516 
L 308.946038 225.082651 
L 308.001779 224.981793 
L 307.432862 225.75393 
L 306.488602 225.653075 
L 305.919688 226.425214 
L 304.975428 226.324362 
L 304.406516 227.096503 
L 304.781865 227.969495 
L 304.212955 228.741637 
L 303.268697 228.640788 
L 302.69979 229.412932 
L 301.755531 229.312087 
L 301.186626 230.084232 
L 300.242366 229.98339 
L 299.673464 230.755538 
L 300.048821 231.628525 
L 299.479921 232.400673 
L 299.855278 233.273659 
L 299.28638 234.045806 
L 299.661736 234.91879 
L 299.092841 235.690937 
L 299.468195 236.563919 
L 300.412442 236.664755 
L 300.787793 237.537736 
L 300.2189 238.309881 
L 300.59425 239.18286 
L 300.025359 239.955004 
L 299.081118 239.854171 
L 298.51223 240.626317 
L 297.567989 240.525487 
L 296.999102 241.297635 
L 296.05486 241.196808 
L 295.485977 241.968958 
L 294.541734 241.868134 
L 293.972852 242.640287 
L 294.348214 243.513261 
L 293.779335 244.285413 
L 292.835094 244.184593 
L 292.266218 244.956748 
L 292.641582 245.829719 
L 292.072707 246.601873 
L 292.44807 247.474843 
L 291.879198 248.246997 
L 290.934963 248.146183 
L 290.366094 248.918339 
L 289.421858 248.817528 
L 289.046488 247.94456 
L 288.102249 247.843751 
L 287.726875 246.970782 
L 288.295745 246.198621 
L 287.92037 245.32565 
L 286.976123 245.224841 
L 286.600745 244.351869 
L 287.169617 243.579706 
L 286.794237 242.706733 
L 285.849983 242.605923 
L 285.281111 243.378089 
L 284.336856 243.277282 
L 283.961469 242.404309 
L 284.530341 241.632141 
L 284.154953 240.759165 
L 284.723827 239.986997 
L 284.348439 239.11402 
L 284.917315 238.341851 
L 284.541926 237.468872 
L 285.110804 236.696703 
L 284.735414 235.823723 
L 283.791142 235.722912 
L 283.415747 234.84993 
L 283.984628 234.077758 
L 283.609233 233.204775 
L 284.178116 232.432603 
L 283.80272 231.559618 
L 284.371605 230.787446 
L 283.996208 229.914459 
L 284.565096 229.142287 
L 284.189698 228.269298 
L 284.758588 227.497125 
L 284.383189 226.624135 
L 284.952081 225.851962 
L 284.576681 224.97897 
L 283.632386 224.878151 
L 283.256981 224.005158 
L 283.825876 223.232982 
L 283.450471 222.359987 
L 282.506168 222.259168 
L 282.130759 221.386172 
L 282.699656 220.613994 
L 282.324246 219.740996 
L 281.379935 219.640177 
L 281.004521 218.767179 
L 280.060207 218.666361 
L 279.684788 217.793361 
L 278.74047 217.692545 
L 278.365047 216.819545 
L 277.420725 216.71873 
L 277.045298 215.845729 
L 276.100971 215.744915 
L 275.72554 214.871913 
L 274.78121 214.771101 
L 274.405775 213.898098 
L 273.46144 213.797288 
L 273.086001 212.924283 
L 273.6549 212.152088 
L 273.27946 211.279082 
L 272.335118 211.178272 
L 271.959674 210.305265 
L 271.015328 210.204456 
L 270.63988 209.331448 
L 271.208781 208.559248 
L 270.833332 207.686238 
L 269.888979 207.585429 
L 269.513525 206.712419 
L 270.082429 205.940216 
L 269.706975 205.067204 
L 268.762614 204.966395 
L 268.387156 204.093381 
L 268.956062 203.321176 
L 268.580603 202.448161 
L 267.636235 202.347352 
L 267.260771 201.474336 
L 266.316399 201.373528 
L 265.940932 200.500511 
L 264.996555 200.399705 
L 264.42765 201.171917 
L 263.483272 201.071114 
L 263.107798 200.198097 
L 263.676703 199.425882 
L 263.301228 198.552863 
L 262.356843 198.45206 
L 261.981364 197.57904 
L 262.550272 196.806823 
L 262.174791 195.933801 
L 261.230399 195.832998 
L 260.854915 194.959975 
L 259.910519 194.859173 
L 259.53503 193.98615 
L 258.59063 193.885349 
L 258.215137 193.012325 
L 257.270733 192.911526 
L 256.701825 193.683753 
L 257.077321 194.556776 
L 256.508416 195.329003 
L 255.564014 195.228208 
L 254.995111 196.000437 
L 255.37061 196.873458 
L 254.801709 197.645686 
L 255.177206 198.518705 
L 254.608308 199.290934 
L 253.663912 199.190145 
L 253.095016 199.962375 
L 252.150619 199.86159 
L 251.581725 200.633822 
L 250.637328 200.533039 
L 250.261821 199.660023 
L 249.317419 199.559242 
L 248.941908 198.686224 
L 247.997502 198.585445 
L 247.621987 197.712426 
L 246.677577 197.611648 
L 246.108686 198.38389 
L 246.484204 199.256907 
L 245.915315 200.029148 
L 246.290833 200.902164 
L 245.721946 201.674405 
L 244.777542 201.573633 
L 244.208658 202.345876 
L 244.584178 203.218889 
L 244.015296 203.991132 
L 244.390815 204.864144 
L 243.821935 205.636386 
L 244.197453 206.509396 
L 243.628576 207.281638 
L 244.004093 208.154646 
L 244.948484 208.255412 
L 245.323997 209.128419 
L 244.755122 209.900659 
L 245.130634 210.773664 
L 246.075018 210.87443 
L 246.450526 211.747434 
L 245.881653 212.519671 
L 244.937272 212.418906 
L 244.368402 213.191146 
L 243.424021 213.090384 
L 242.855153 213.862625 
L 241.91077 213.761867 
L 241.535253 212.888865 
L 240.590866 212.788108 
L 240.022001 213.560354 
L 239.077614 213.459599 
L 238.50875 214.231847 
L 237.564362 214.131096 
L 237.188834 213.258095 
L 237.757698 212.485845 
L 237.382169 211.612842 
L 237.951034 210.840592 
L 237.575504 209.967588 
L 238.144372 209.195337 
L 237.768841 208.322331 
L 236.824439 208.221576 
L 236.448904 207.348569 
L 237.017775 206.576316 
L 236.642239 205.703307 
L 235.69783 205.602552 
L 235.32229 204.729543 
L 234.377876 204.62879 
L 234.002332 203.755779 
L 234.571205 202.98352 
L 234.19566 202.110508 
L 234.764534 201.338249 
L 235.708954 201.439005 
L 236.277831 200.666749 
L 237.22225 200.767508 
L 237.791129 199.995253 
L 238.735547 200.096015 
L 239.304429 199.323763 
L 238.928893 198.450746 
L 239.497777 197.678493 
L 239.122239 196.805475 
L 239.691126 196.033222 
L 240.63555 196.13399 
L 241.204438 195.361739 
L 240.828903 194.488718 
L 241.397794 193.716466 
L 242.34222 193.817239 
L 242.911114 193.04499 
L 242.535581 192.171966 
L 243.104477 191.399717 
L 242.728943 190.526691 
L 243.297841 189.754442 
L 242.922307 188.881414 
L 243.491207 188.109164 
L 244.435642 188.209944 
L 245.004545 187.437697 
L 244.629013 186.564667 
L 243.684574 186.463885 
L 243.309038 185.590854 
L 243.877943 184.818604 
L 243.502406 183.945571 
L 244.071313 183.173321 
L 243.695775 182.300286 
L 242.751326 182.199503 
L 242.375784 181.326467 
L 242.944693 180.554214 
L 242.56915 179.681177 
L 241.624694 179.580394 
L 241.249146 178.707356 
L 241.818058 177.9351 
L 241.44251 177.06206 
L 240.498046 176.961276 
L 240.122494 176.088236 
L 239.178027 175.987454 
L 238.80247 175.114412 
L 237.857998 175.013632 
L 237.289087 175.785895 
L 236.344614 175.685117 
L 235.96905 174.812075 
L 236.537962 174.03981 
L 236.162397 173.166766 
L 235.217918 173.065989 
L 234.842349 172.192944 
L 235.411263 171.420676 
L 235.035693 170.54763 
L 234.091206 170.446852 
L 233.715632 169.573805 
L 232.771141 169.473029 
L 232.202227 170.245302 
L 231.257735 170.144529 
L 230.882154 169.271481 
L 229.937658 169.17071 
L 229.368746 169.942987 
L 228.424249 169.842218 
L 228.048661 168.969171 
L 228.617572 168.196891 
L 228.241983 167.323842 
L 228.810897 166.551562 
L 228.435306 165.678511 
L 229.004222 164.906231 
L 228.628631 164.033178 
L 229.197549 163.260898 
L 228.821957 162.387843 
L 229.390878 161.615563 
L 229.015284 160.742506 
L 228.070767 160.641731 
L 227.501847 161.414014 
L 226.557329 161.313243 
L 226.181728 160.440186 
L 225.237206 160.339416 
L 224.668288 161.111703 
L 223.723765 161.010936 
L 223.348157 160.137879 
L 222.40363 160.037113 
L 222.028019 159.164056 
L 222.596937 158.391764 
L 222.221324 157.518705 
L 221.27679 157.417939 
L 220.901173 156.544878 
L 219.956634 156.444114 
L 219.387716 157.216411 
L 218.443177 157.115649 
L 218.067553 156.242589 
L 217.12301 156.141829 
L 216.747381 155.268768 
L 215.802834 155.168009 
L 215.233919 155.940313 
L 214.289371 155.839557 
L 213.913735 154.966496 
L 212.969183 154.865742 
L 212.593543 153.99268 
L 211.648987 153.891927 
L 211.273343 153.018864 
L 210.328782 152.918112 
L 209.953134 152.045048 
L 209.00857 151.944298 
L 208.632918 151.071234 
L 207.688349 150.970485 
L 207.119437 151.742803 
L 206.174867 151.642057 
L 205.605957 152.414377 
L 204.661387 152.313635 
L 204.092478 153.085957 
L 204.46814 153.959019 
L 203.899234 154.731341 
L 202.954667 154.630603 
L 202.385763 155.402926 
L 201.441195 155.302191 
L 200.872294 156.074517 
L 201.247961 156.947576 
L 200.679062 157.719902 
L 201.054728 158.592959 
L 200.485832 159.365284 
L 199.541269 159.264555 
L 198.972375 160.036883 
L 198.027811 159.936156 
L 197.652139 159.063101 
L 196.707571 158.962376 
L 196.331894 158.08932 
L 195.387322 157.988597 
L 195.011641 157.11554 
L 194.067066 157.014818 
L 193.69138 156.14176 
L 192.746801 156.04104 
L 192.371111 155.167981 
L 191.426527 155.067262 
L 190.857636 155.839603 
L 189.913051 155.738887 
L 189.537355 154.865828 
L 188.592766 154.765114 
L 188.217065 153.892054 
L 187.272472 153.791341 
L 186.703583 154.563689 
L 185.758989 154.462979 
L 185.190103 155.23533 
L 184.245508 155.134622 
L 183.676624 155.906975 
L 182.732028 155.806271 
L 182.163147 156.578626 
L 181.21855 156.477924 
L 180.842833 155.604867 
L 179.898233 155.504167 
L 179.329353 156.276527 
L 178.384752 156.17583 
L 177.815875 156.948191 
L 176.871273 156.847497 
L 176.302398 157.619861 
L 175.357795 157.51917 
L 174.788923 158.291535 
L 173.844319 158.190847 
L 173.275449 158.963215 
L 173.651183 159.836268 
L 173.082315 160.608636 
L 172.137714 160.507952 
L 171.568848 161.280322 
L 170.624246 161.179641 
L 170.055383 161.952013 
L 169.110781 161.851335 
L 168.54192 162.623709 
L 167.597316 162.523035 
L 167.028458 163.29541 
L 167.404203 164.168458 
L 166.835347 164.940834 
L 167.211092 165.81388 
L 166.642238 166.586255 
L 165.69764 166.485587 
L 165.128789 167.257964 
L 164.18419 167.157299 
L 163.615341 167.929678 
L 163.991091 168.802721 
L 163.422245 169.5751 
L 162.477648 169.474439 
L 161.908804 170.24682 
L 160.964207 170.146162 
L 160.395365 170.918546 
L 160.77112 171.791585 
L 160.202281 172.563968 
L 159.257686 172.463314 
L 158.688849 173.2357 
L 159.064607 174.108736 
L 158.495772 174.881121 
L 158.871528 175.754156 
L 158.302696 176.526541 
L 158.678452 177.399574 
L 158.109621 178.171958 
L 157.165036 178.071312 
L 156.596208 178.843699 
L 156.971966 179.716729 
L 156.40314 180.489115 
L 156.778897 181.362144 
L 156.210074 182.13453 
L 156.58583 183.007557 
L 156.017009 183.779943 
L 156.392765 184.652967 
L 155.823946 185.425353 
L 154.879372 185.324716 
L 154.310556 186.097104 
L 154.686314 186.970126 
L 154.1175 187.742513 
L 153.172929 187.641881 
L 152.604117 188.41427 
L 151.659545 188.313641 
L 151.283781 187.44062 
L 150.339205 187.339992 
L 149.770396 188.112386 
L 148.825819 188.01176 
L 148.257012 188.784156 
L 147.312434 188.683534 
L 146.93666 187.810514 
L 145.992078 187.709894 
L 145.6163 186.836873 
L 144.671714 186.736253 
L 144.295931 185.863232 
L 143.351341 185.762614 
L 142.975555 184.889591 
L 142.03096 184.788975 
L 141.462156 185.561383 
L 140.517562 185.460769 
L 139.94876 186.233179 
L 139.004164 186.132568 
L 138.435365 186.90498 
L 137.490768 186.804373 
L 136.921971 187.576787 
L 137.297771 188.449806 
L 136.728976 189.222219 
L 135.784382 189.121616 
L 135.21559 189.894032 
L 135.591391 190.767049 
L 135.022601 191.539464 
L 135.398402 192.412479 
L 136.34299 192.513079 
L 136.718787 193.386093 
L 137.66337 193.486694 
L 138.039163 194.359707 
L 138.983742 194.46031 
L 139.359531 195.333322 
L 140.304106 195.433927 
L 140.67989 196.306938 
L 140.111102 197.079343 
L 140.486886 197.952353 
L 139.9181 198.724758 
L 140.293883 199.597766 
L 139.7251 200.370171 
L 138.780534 200.269571 
L 138.211753 201.041978 
L 137.267187 200.941381 
L 136.698408 201.713791 
L 135.753841 201.613197 
L 135.378049 200.740192 
L 134.433477 200.6396 
L 133.864701 201.412013 
L 132.920129 201.311424 
L 132.54433 200.438419 
L 131.599753 200.337831 
L 131.22395 199.464825 
L 130.27937 199.364238 
L 129.903562 198.491232 
L 128.958978 198.390646 
L 128.390204 199.16307 
L 127.445619 199.062487 
L 126.876848 199.834913 
L 125.932262 199.734333 
L 125.363493 200.506761 
L 125.73931 201.379765 
L 125.170543 202.152192 
L 124.22596 202.051617 
L 123.657196 202.824047 
L 122.712611 202.723475 
L 122.336788 201.850472 
L 121.392199 201.749902 
L 121.016372 200.876898 
L 120.071779 200.77633 
L 119.695947 199.903325 
L 118.751351 199.802758 
L 118.375515 198.929753 
L 117.430914 198.829187 
L 116.862153 199.601627 
L 117.237992 200.474632 
L 116.669232 201.247072 
L 115.724634 201.146511 
L 115.155877 201.918953 
L 115.531719 202.791955 
L 114.962964 203.564398 
L 114.018368 203.46384 
L 113.642524 202.59084 
L 112.697924 202.490284 
L 112.322075 201.617282 
L 112.89083 200.844835 
L 112.51498 199.971831 
L 113.083737 199.199384 
L 112.707886 198.326379 
L 113.276645 197.553931 
L 114.221255 197.654491 
L 114.790016 196.882046 
L 115.734625 196.982609 
L 116.303389 196.210165 
L 115.927544 195.337156 
L 114.982932 195.236592 
L 114.414168 196.009038 
L 113.469555 195.908476 
L 113.093703 195.035467 
L 112.149086 194.934907 
L 111.773229 194.061897 
L 110.828608 193.961338 
L 110.452748 193.088327 
L 111.021511 192.315875 
L 110.64565 191.442862 
L 111.214416 190.670409 
L 110.838553 189.797394 
L 109.893922 189.696834 
L 109.325156 190.46929 
L 108.380523 190.368732 
L 108.004654 189.495718 
L 108.57342 188.72326 
L 108.197549 187.850244 
L 107.252909 187.749687 
L 106.684143 188.522147 
L 107.060017 189.395162 
L 106.491254 190.167622 
L 105.546617 190.067069 
L 105.17074 189.194055 
L 104.226098 189.093503 
L 103.850217 188.220488 
L 104.41898 187.448023 
L 104.043098 186.575006 
L 103.09845 186.474455 
L 102.722563 185.601436 
L 101.777911 185.500886 
L 101.40202 184.627867 
L 100.457364 184.527319 
L 100.081469 183.654299 
L 100.650235 182.881827 
L 100.274339 182.008805 
L 99.329675 181.908256 
L 98.76091 182.680731 
L 97.816245 182.580185 
L 97.440342 181.707163 
L 96.495673 181.606619 
L 96.119767 180.733597 
L 95.175094 180.633054 
L 94.606331 181.405535 
L 93.661657 181.304995 
L 93.092896 182.077479 
L 92.148222 181.976942 
L 91.772304 181.10392 
L 90.827626 181.003385 
L 90.258868 181.775873 
L 89.314188 181.67534 
L 88.938264 180.802318 
L 89.507022 180.029828 
L 89.131096 179.156804 
L 88.186409 179.056272 
L 87.81048 178.183247 
L 86.865789 178.082716 
L 86.489855 177.209691 
L 85.54516 177.109161 
M 169.23675 111.883406 
L 168.667824 112.655796 
L 169.043609 113.528898 
L 169.988315 113.629611 
L 170.364096 114.502712 
L 171.308798 114.603426 
L 171.684575 115.476526 
L 172.629273 115.577242 
L 173.005045 116.450341 
L 172.436122 117.222725 
L 172.811893 118.095822 
L 173.756584 118.196538 
L 174.132352 119.069634 
L 175.077039 119.170351 
L 175.452802 120.043447 
L 176.397485 120.144165 
L 176.773244 121.01726 
L 177.717923 121.11798 
L 178.286846 120.345606 
L 179.231524 120.446329 
L 179.607276 121.319424 
L 180.55195 121.420148 
L 181.120876 120.647779 
L 180.745127 119.774683 
L 181.314055 119.002314 
L 182.258732 119.103042 
L 182.827662 118.330675 
L 182.451916 117.457577 
L 181.507237 117.356846 
L 181.131486 116.483747 
L 181.700419 115.711377 
L 181.324668 114.838276 
L 181.893603 114.065906 
L 181.517851 113.192803 
L 182.086789 112.420433 
L 181.711036 111.547328 
L 180.766342 111.446595 
L 180.390585 110.573489 
L 180.959525 109.801116 
L 180.583767 108.928009 
L 179.639066 108.827275 
L 179.263304 107.954167 
L 179.832246 107.181791 
L 179.456483 106.308681 
L 180.025427 105.536305 
L 179.649663 104.663194 
L 178.704951 104.562459 
L 178.329183 103.689346 
L 178.89813 102.916967 
L 178.522361 102.043853 
L 177.577642 101.943118 
L 177.008696 102.715499 
L 176.063976 102.614767 
L 175.495032 103.38715 
L 175.870807 104.260263 
L 175.301865 105.032646 
L 174.357148 104.931918 
L 173.788209 105.704303 
L 174.163987 106.577413 
L 173.595049 107.349798 
L 172.650335 107.249075 
L 172.0814 108.021462 
L 171.136684 107.920742 
L 170.567752 108.693131 
L 169.623036 108.592414 
L 169.054106 109.364805 
L 169.429892 110.237911 
L 168.860964 111.010302 
L 169.23675 111.883406 
L 169.23675 111.883406 
" clip-path="url(#pb731678742)" style="fill: none; stroke: #ff0000; stroke-width: 0.7"/>
    <path d="M 97.607284 110.916467 
L 98.552103 111.017064 
L 98.928063 111.890162 
L 98.359208 112.662661 
L 97.414392 112.562065 
L 96.845539 113.334566 
L 95.900722 113.233973 
L 95.524755 112.360878 
L 94.579935 112.260286 
L 94.203964 111.38719 
L 93.259139 111.2866 
L 92.883164 110.413502 
L 93.452017 109.640994 
L 94.396845 109.741585 
L 94.9657 108.969079 
L 95.910528 109.069674 
L 96.286496 109.942773 
L 97.231319 110.043369 
L 97.607284 110.916467 
" clip-path="url(#pb731678742)" style="fill: none; stroke: #ff0000; stroke-width: 0.7"/>
    <path d="M 120.089522 114.976774 
L 121.034298 115.077405 
L 121.603173 114.304942 
L 121.227271 113.431845 
L 121.796149 112.659381 
L 122.740928 112.760017 
L 123.309807 111.987555 
L 124.254586 112.088194 
L 124.823468 111.315735 
L 125.768245 111.416376 
L 126.33713 110.643919 
L 125.961237 109.770818 
L 126.530123 108.99836 
L 126.154229 108.125257 
L 126.723118 107.3528 
L 127.667901 107.453447 
L 128.043792 108.326551 
L 128.988571 108.4272 
L 129.364458 109.300303 
L 128.795569 110.072756 
L 129.171455 110.945858 
L 128.602568 111.71831 
L 127.657796 111.617664 
L 127.088911 112.390119 
L 127.464799 113.263218 
L 128.409569 113.363862 
L 128.785453 114.23696 
L 128.216571 115.009412 
L 128.592454 115.882508 
L 128.023574 116.65496 
L 127.078811 116.554319 
L 126.509933 117.326773 
L 126.885819 118.199866 
L 126.316944 118.97232 
L 126.692828 119.845411 
L 126.123955 120.617865 
L 125.179198 120.517229 
L 124.610328 121.289685 
L 123.66557 121.189052 
L 123.289679 120.315963 
L 122.344917 120.215331 
L 121.969022 119.342241 
L 121.024255 119.241611 
L 120.648356 118.368519 
L 119.703586 118.267891 
L 119.327683 117.394798 
L 118.382909 117.294172 
L 118.007001 116.421078 
L 118.575872 115.648611 
L 119.520649 115.749239 
L 120.089522 114.976774 
" clip-path="url(#pb731678742)" style="fill: none; stroke: #ff0000; stroke-width: 0.7"/>
   </g>
   <g id="matplotlib.axis_1">
    <g id="xtick_1">
     <g id="line2d_1">
      <defs>
       <path id="m47f518f811" d="M 0 0 
L 0 3.5 
" style="stroke: #000000; stroke-width: 0.8"/>
      </defs>
      <g>
       <use xlink:href="#m47f518f811" x="59.535933" y="272.249915" style="stroke: #000000; stroke-width: 0.8"/>
      </g>
     </g>
     <g id="text_1">
      <!-- 0.06 -->
      <g transform="translate(44.213277 286.848352) scale(0.1 -0.1)">
       <defs>
        <path id="DejaVuSans-2212" d="M 678 2272 
L 4684 2272 
L 4684 1741 
L 678 1741 
L 678 2272 
z
" transform="scale(0.015625)"/>
        <path id="DejaVuSans-30" d="M 2034 4250 
Q 1547 4250 1301 3770 
Q 1056 3291 1056 2328 
Q 1056 1369 1301 889 
Q 1547 409 2034 409 
Q 2525 409 2770 889 
Q 3016 1369 3016 2328 
Q 3016 3291 2770 3770 
Q 2525 4250 2034 4250 
z
M 2034 4750 
Q 2819 4750 3233 4129 
Q 3647 3509 3647 2328 
Q 3647 1150 3233 529 
Q 2819 -91 2034 -91 
Q 1250 -91 836 529 
Q 422 1150 422 2328 
Q 422 3509 836 4129 
Q 1250 4750 2034 4750 
z
" transform="scale(0.015625)"/>
        <path id="DejaVuSans-2e" d="M 684 794 
L 1344 794 
L 1344 0 
L 684 0 
L 684 794 
z
" transform="scale(0.015625)"/>
        <path id="DejaVuSans-36" d="M 2113 2584 
Q 1688 2584 1439 2293 
Q 1191 2003 1191 1497 
Q 1191 994 1439 701 
Q 1688 409 2113 409 
Q 2538 409 2786 701 
Q 3034 994 3034 1497 
Q 3034 2003 2786 2293 
Q 2538 2584 2113 2584 
z
M 3366 4563 
L 3366 3988 
Q 3128 4100 2886 4159 
Q 2644 4219 2406 4219 
Q 1781 4219 1451 3797 
Q 1122 3375 1075 2522 
Q 1259 2794 1537 2939 
Q 1816 3084 2150 3084 
Q 2853 3084 3261 2657 
Q 3669 2231 3669 1497 
Q 3669 778 3244 343 
Q 2819 -91 2113 -91 
Q 1303 -91 875 529 
Q 447 1150 447 2328 
Q 447 3434 972 4092 
Q 1497 4750 2381 4750 
Q 2619 4750 2861 4703 
Q 3103 4656 3366 4563 
z
" transform="scale(0.015625)"/>
       </defs>
       <use xlink:href="#DejaVuSans-2212"/>
       <use xlink:href="#DejaVuSans-30" x="83.789062"/>
       <use xlink:href="#DejaVuSans-2e" x="147.412109"/>
       <use xlink:href="#DejaVuSans-30" x="179.199219"/>
       <use xlink:href="#DejaVuSans-36" x="242.822266"/>
      </g>
     </g>
    </g>
    <g id="xtick_2">
     <g id="line2d_2">
      <g>
       <use xlink:href="#m47f518f811" x="124.008208" y="272.249915" style="stroke: #000000; stroke-width: 0.8"/>
      </g>
     </g>
     <g id="text_2">
      <!-- 0.04 -->
      <g transform="translate(108.685552 286.848352) scale(0.1 -0.1)">
       <defs>
        <path id="DejaVuSans-34" d="M 2419 4116 
L 825 1625 
L 2419 1625 
L 2419 4116 
z
M 2253 4666 
L 3047 4666 
L 3047 1625 
L 3713 1625 
L 3713 1100 
L 3047 1100 
L 3047 0 
L 2419 0 
L 2419 1100 
L 313 1100 
L 313 1709 
L 2253 4666 
z
" transform="scale(0.015625)"/>
       </defs>
       <use xlink:href="#DejaVuSans-2212"/>
       <use xlink:href="#DejaVuSans-30" x="83.789062"/>
       <use xlink:href="#DejaVuSans-2e" x="147.412109"/>
       <use xlink:href="#DejaVuSans-30" x="179.199219"/>
       <use xlink:href="#DejaVuSans-34" x="242.822266"/>
      </g>
     </g>
    </g>
    <g id="xtick_3">
     <g id="line2d_3">
      <g>
       <use xlink:href="#m47f518f811" x="188.480484" y="272.249915" style="stroke: #000000; stroke-width: 0.8"/>
      </g>
     </g>
     <g id="text_3">
      <!-- 0.02 -->
      <g transform="translate(173.157827 286.848352) scale(0.1 -0.1)">
       <defs>
        <path id="DejaVuSans-32" d="M 1228 531 
L 3431 531 
L 3431 0 
L 469 0 
L 469 531 
Q 828 903 1448 1529 
Q 2069 2156 2228 2338 
Q 2531 2678 2651 2914 
Q 2772 3150 2772 3378 
Q 2772 3750 2511 3984 
Q 2250 4219 1831 4219 
Q 1534 4219 1204 4116 
Q 875 4013 500 3803 
L 500 4441 
Q 881 4594 1212 4672 
Q 1544 4750 1819 4750 
Q 2544 4750 2975 4387 
Q 3406 4025 3406 3419 
Q 3406 3131 3298 2873 
Q 3191 2616 2906 2266 
Q 2828 2175 2409 1742 
Q 1991 1309 1228 531 
z
" transform="scale(0.015625)"/>
       </defs>
       <use xlink:href="#DejaVuSans-2212"/>
       <use xlink:href="#DejaVuSans-30" x="83.789062"/>
       <use xlink:href="#DejaVuSans-2e" x="147.412109"/>
       <use xlink:href="#DejaVuSans-30" x="179.199219"/>
       <use xlink:href="#DejaVuSans-32" x="242.822266"/>
      </g>
     </g>
    </g>
    <g id="xtick_4">
     <g id="line2d_4">
      <g>
       <use xlink:href="#m47f518f811" x="252.952759" y="272.249915" style="stroke: #000000; stroke-width: 0.8"/>
      </g>
     </g>
     <g id="text_4">
      <!-- 0.00 -->
      <g transform="translate(241.819947 286.848352) scale(0.1 -0.1)">
       <use xlink:href="#DejaVuSans-30"/>
       <use xlink:href="#DejaVuSans-2e" x="63.623047"/>
       <use xlink:href="#DejaVuSans-30" x="95.410156"/>
       <use xlink:href="#DejaVuSans-30" x="159.033203"/>
      </g>
     </g>
    </g>
    <g id="xtick_5">
     <g id="line2d_5">
      <g>
       <use xlink:href="#m47f518f811" x="317.425035" y="272.249915" style="stroke: #000000; stroke-width: 0.8"/>
      </g>
     </g>
     <g id="text_5">
      <!-- 0.02 -->
      <g transform="translate(306.292222 286.848352) scale(0.1 -0.1)">
       <use xlink:href="#DejaVuSans-30"/>
       <use xlink:href="#DejaVuSans-2e" x="63.623047"/>
       <use xlink:href="#DejaVuSans-30" x="95.410156"/>
       <use xlink:href="#DejaVuSans-32" x="159.033203"/>
      </g>
     </g>
    </g>
    <g id="xtick_6">
     <g id="line2d_6">
      <g>
       <use xlink:href="#m47f518f811" x="381.89731" y="272.249915" style="stroke: #000000; stroke-width: 0.8"/>
      </g>
     </g>
     <g id="text_6">
      <!-- 0.04 -->
      <g transform="translate(370.764497 286.848352) scale(0.1 -0.1)">
       <use xlink:href="#DejaVuSans-30"/>
       <use xlink:href="#DejaVuSans-2e" x="63.623047"/>
       <use xlink:href="#DejaVuSans-30" x="95.410156"/>
       <use xlink:href="#DejaVuSans-34" x="159.033203"/>
      </g>
     </g>
    </g>
    <g id="text_7">
     <!-- 1e2 -->
     <g transform="translate(387.462188 299.526477) scale(0.1 -0.1)">
      <defs>
       <path id="DejaVuSans-31" d="M 794 531 
L 1825 531 
L 1825 4091 
L 703 3866 
L 703 4441 
L 1819 4666 
L 2450 4666 
L 2450 531 
L 3481 531 
L 3481 0 
L 794 0 
L 794 531 
z
" transform="scale(0.015625)"/>
       <path id="DejaVuSans-65" d="M 3597 1894 
L 3597 1613 
L 953 1613 
Q 991 1019 1311 708 
Q 1631 397 2203 397 
Q 2534 397 2845 478 
Q 3156 559 3463 722 
L 3463 178 
Q 3153 47 2828 -22 
Q 2503 -91 2169 -91 
Q 1331 -91 842 396 
Q 353 884 353 1716 
Q 353 2575 817 3079 
Q 1281 3584 2069 3584 
Q 2775 3584 3186 3129 
Q 3597 2675 3597 1894 
z
M 3022 2063 
Q 3016 2534 2758 2815 
Q 2500 3097 2075 3097 
Q 1594 3097 1305 2825 
Q 1016 2553 972 2059 
L 3022 2063 
z
" transform="scale(0.015625)"/>
      </defs>
      <use xlink:href="#DejaVuSans-2212"/>
      <use xlink:href="#DejaVuSans-31" x="83.789062"/>
      <use xlink:href="#DejaVuSans-65" x="147.412109"/>
      <use xlink:href="#DejaVuSans-32" x="208.935547"/>
     </g>
    </g>
   </g>
   <g id="matplotlib.axis_2">
    <g id="ytick_1">
     <g id="line2d_7">
      <defs>
       <path id="md593a00633" d="M 0 0 
L -3.5 0 
" style="stroke: #000000; stroke-width: 0.8"/>
      </defs>
      <g>
       <use xlink:href="#md593a00633" x="57.6" y="250.106593" style="stroke: #000000; stroke-width: 0.8"/>
      </g>
     </g>
     <g id="text_8">
      <!-- 19.44 -->
      <g transform="translate(21.971875 253.905812) scale(0.1 -0.1)">
       <defs>
        <path id="DejaVuSans-39" d="M 703 97 
L 703 672 
Q 941 559 1184 500 
Q 1428 441 1663 441 
Q 2288 441 2617 861 
Q 2947 1281 2994 2138 
Q 2813 1869 2534 1725 
Q 2256 1581 1919 1581 
Q 1219 1581 811 2004 
Q 403 2428 403 3163 
Q 403 3881 828 4315 
Q 1253 4750 1959 4750 
Q 2769 4750 3195 4129 
Q 3622 3509 3622 2328 
Q 3622 1225 3098 567 
Q 2575 -91 1691 -91 
Q 1453 -91 1209 -44 
Q 966 3 703 97 
z
M 1959 2075 
Q 2384 2075 2632 2365 
Q 2881 2656 2881 3163 
Q 2881 3666 2632 3958 
Q 2384 4250 1959 4250 
Q 1534 4250 1286 3958 
Q 1038 3666 1038 3163 
Q 1038 2656 1286 2365 
Q 1534 2075 1959 2075 
z
" transform="scale(0.015625)"/>
       </defs>
       <use xlink:href="#DejaVuSans-31"/>
       <use xlink:href="#DejaVuSans-39" x="63.623047"/>
       <use xlink:href="#DejaVuSans-2e" x="127.246094"/>
       <use xlink:href="#DejaVuSans-34" x="159.033203"/>
       <use xlink:href="#DejaVuSans-34" x="222.65625"/>
      </g>
     </g>
    </g>
    <g id="ytick_2">
     <g id="line2d_8">
      <g>
       <use xlink:href="#md593a00633" x="57.6" y="215.916928" style="stroke: #000000; stroke-width: 0.8"/>
      </g>
     </g>
     <g id="text_9">
      <!-- 19.45 -->
      <g transform="translate(21.971875 219.716147) scale(0.1 -0.1)">
       <defs>
        <path id="DejaVuSans-35" d="M 691 4666 
L 3169 4666 
L 3169 4134 
L 1269 4134 
L 1269 2991 
Q 1406 3038 1543 3061 
Q 1681 3084 1819 3084 
Q 2600 3084 3056 2656 
Q 3513 2228 3513 1497 
Q 3513 744 3044 326 
Q 2575 -91 1722 -91 
Q 1428 -91 1123 -41 
Q 819 9 494 109 
L 494 744 
Q 775 591 1075 516 
Q 1375 441 1709 441 
Q 2250 441 2565 725 
Q 2881 1009 2881 1497 
Q 2881 1984 2565 2268 
Q 2250 2553 1709 2553 
Q 1456 2553 1204 2497 
Q 953 2441 691 2322 
L 691 4666 
z
" transform="scale(0.015625)"/>
       </defs>
       <use xlink:href="#DejaVuSans-31"/>
       <use xlink:href="#DejaVuSans-39" x="63.623047"/>
       <use xlink:href="#DejaVuSans-2e" x="127.246094"/>
       <use xlink:href="#DejaVuSans-34" x="159.033203"/>
       <use xlink:href="#DejaVuSans-35" x="222.65625"/>
      </g>
     </g>
    </g>
    <g id="ytick_3">
     <g id="line2d_9">
      <g>
       <use xlink:href="#md593a00633" x="57.6" y="181.727264" style="stroke: #000000; stroke-width: 0.8"/>
      </g>
     </g>
     <g id="text_10">
      <!-- 19.46 -->
      <g transform="translate(21.971875 185.526482) scale(0.1 -0.1)">
       <use xlink:href="#DejaVuSans-31"/>
       <use xlink:href="#DejaVuSans-39" x="63.623047"/>
       <use xlink:href="#DejaVuSans-2e" x="127.246094"/>
       <use xlink:href="#DejaVuSans-34" x="159.033203"/>
       <use xlink:href="#DejaVuSans-36" x="222.65625"/>
      </g>
     </g>
    </g>
    <g id="ytick_4">
     <g id="line2d_10">
      <g>
       <use xlink:href="#md593a00633" x="57.6" y="147.537599" style="stroke: #000000; stroke-width: 0.8"/>
      </g>
     </g>
     <g id="text_11">
      <!-- 19.47 -->
      <g transform="translate(21.971875 151.336818) scale(0.1 -0.1)">
       <defs>
        <path id="DejaVuSans-37" d="M 525 4666 
L 3525 4666 
L 3525 4397 
L 1831 0 
L 1172 0 
L 2766 4134 
L 525 4134 
L 525 4666 
z
" transform="scale(0.015625)"/>
       </defs>
       <use xlink:href="#DejaVuSans-31"/>
       <use xlink:href="#DejaVuSans-39" x="63.623047"/>
       <use xlink:href="#DejaVuSans-2e" x="127.246094"/>
       <use xlink:href="#DejaVuSans-34" x="159.033203"/>
       <use xlink:href="#DejaVuSans-37" x="222.65625"/>
      </g>
     </g>
    </g>
    <g id="ytick_5">
     <g id="line2d_11">
      <g>
       <use xlink:href="#md593a00633" x="57.6" y="113.347934" style="stroke: #000000; stroke-width: 0.8"/>
      </g>
     </g>
     <g id="text_12">
      <!-- 19.48 -->
      <g transform="translate(21.971875 117.147153) scale(0.1 -0.1)">
       <defs>
        <path id="DejaVuSans-38" d="M 2034 2216 
Q 1584 2216 1326 1975 
Q 1069 1734 1069 1313 
Q 1069 891 1326 650 
Q 1584 409 2034 409 
Q 2484 409 2743 651 
Q 3003 894 3003 1313 
Q 3003 1734 2745 1975 
Q 2488 2216 2034 2216 
z
M 1403 2484 
Q 997 2584 770 2862 
Q 544 3141 544 3541 
Q 544 4100 942 4425 
Q 1341 4750 2034 4750 
Q 2731 4750 3128 4425 
Q 3525 4100 3525 3541 
Q 3525 3141 3298 2862 
Q 3072 2584 2669 2484 
Q 3125 2378 3379 2068 
Q 3634 1759 3634 1313 
Q 3634 634 3220 271 
Q 2806 -91 2034 -91 
Q 1263 -91 848 271 
Q 434 634 434 1313 
Q 434 1759 690 2068 
Q 947 2378 1403 2484 
z
M 1172 3481 
Q 1172 3119 1398 2916 
Q 1625 2713 2034 2713 
Q 2441 2713 2670 2916 
Q 2900 3119 2900 3481 
Q 2900 3844 2670 4047 
Q 2441 4250 2034 4250 
Q 1625 4250 1398 4047 
Q 1172 3844 1172 3481 
z
" transform="scale(0.015625)"/>
       </defs>
       <use xlink:href="#DejaVuSans-31"/>
       <use xlink:href="#DejaVuSans-39" x="63.623047"/>
       <use xlink:href="#DejaVuSans-2e" x="127.246094"/>
       <use xlink:href="#DejaVuSans-34" x="159.033203"/>
       <use xlink:href="#DejaVuSans-38" x="222.65625"/>
      </g>
     </g>
    </g>
    <g id="ytick_6">
     <g id="line2d_12">
      <g>
       <use xlink:href="#md593a00633" x="57.6" y="79.158269" style="stroke: #000000; stroke-width: 0.8"/>
      </g>
     </g>
     <g id="text_13">
      <!-- 19.49 -->
      <g transform="translate(21.971875 82.957488) scale(0.1 -0.1)">
       <use xlink:href="#DejaVuSans-31"/>
       <use xlink:href="#DejaVuSans-39" x="63.623047"/>
       <use xlink:href="#DejaVuSans-2e" x="127.246094"/>
       <use xlink:href="#DejaVuSans-34" x="159.033203"/>
       <use xlink:href="#DejaVuSans-39" x="222.65625"/>
      </g>
     </g>
    </g>
   </g>
   <g id="patch_3">
    <path d="M 57.6 272.249915 
L 57.6 76.806085 
" style="fill: none; stroke: #000000; stroke-width: 0.8; stroke-linejoin: miter; stroke-linecap: square"/>
   </g>
   <g id="patch_4">
    <path d="M 414.72 272.249915 
L 414.72 76.806085 
" style="fill: none; stroke: #000000; stroke-width: 0.8; stroke-linejoin: miter; stroke-linecap: square"/>
   </g>
   <g id="patch_5">
    <path d="M 57.6 272.249915 
L 414.72 272.249915 
" style="fill: none; stroke: #000000; stroke-width: 0.8; stroke-linejoin: miter; stroke-linecap: square"/>
   </g>
   <g id="patch_6">
    <path d="M 57.6 76.806085 
L 414.72 76.806085 
" style="fill: none; stroke: #000000; stroke-width: 0.8; stroke-linejoin: miter; stroke-linecap: square"/>
   </g>
  </g>
 </g>
 <defs>
  <clipPath id="pb731678742">
   <rect x="57.6" y="76.806085" width="357.12" height="195.44383"/>
  </clipPath>
 </defs>
</svg>
