<?xml version="1.0" encoding="utf-8" standalone="no"?>
<!DOCTYPE svg PUBLIC "-//W3C//DTD SVG 1.1//EN"
  "http://www.w3.org/Graphics/SVG/1.1/DTD/svg11.dtd">
<svg xmlns:xlink="http://www.w3.org/1999/xlink" width="540pt" height="360pt" viewBox="0 0 540 360" xmlns="http://www.w3.org/2000/svg" version="1.1">
 <metadata>
  <rdf:RDF xmlns:dc="http://purl.org/dc/elements/1.1/" xmlns:cc="http://creativecommons.org/ns#" xmlns:rdf="http://www.w3.org/1999/02/22-rdf-syntax-ns#">
   <cc:Work>
    <dc:type rdf:resource="http://purl.org/dc/dcmitype/StillImage"/>
    <dc:date>2023-09-05T21:45:02.667274</dc:date>
    <dc:format>image/svg+xml</dc:format>
    <dc:creator>
     <cc:Agent>
      <dc:title>Matplotlib v3.7.1, https://matplotlib.org/</dc:title>
     </cc:Agent>
    </dc:creator>
   </cc:Work>
  </rdf:RDF>
 </metadata>
 <defs>
  <style type="text/css">*{stroke-linejoin: round; stroke-linecap: butt}</style>
 </defs>
 <g id="figure_1">
  <g id="patch_1">
   <path d="M 0 360 
L 540 360 
L 540 0 
L 0 0 
z
" style="fill: #ffffff"/>
  </g>
  <g id="axes_1">
   <g id="patch_2">
    <path d="M 67.5 320.4 
L 486 320.4 
L 486 43.2 
L 67.5 43.2 
z
" style="fill: #ffffff"/>
   </g>
   <g id="PolyCollection_1">
    <defs>
     <path id="me4623a691f" d="M 100.846614 -272.796609 
L 100.846614 -256.492261 
L 134.193227 -251.402646 
L 167.539841 -246.937836 
L 200.886454 -242.107066 
L 234.233068 -236.446572 
L 267.579681 -228.909374 
L 300.926295 -226.121473 
L 334.272908 -223.437276 
L 367.619522 -247.273483 
L 400.966135 -266.282453 
L 434.312749 -265.476882 
L 467.659363 -261.998478 
L 467.659363 -278.302826 
L 467.659363 -278.302826 
L 434.312749 -281.78123 
L 400.966135 -282.586801 
L 367.619522 -263.577831 
L 334.272908 -239.741625 
L 300.926295 -242.425821 
L 267.579681 -245.213722 
L 234.233068 -252.75092 
L 200.886454 -258.411414 
L 167.539841 -263.242184 
L 134.193227 -267.706994 
L 100.846614 -272.796609 
z
" style="stroke: #006400; stroke-opacity: 0.1"/>
    </defs>
    <g clip-path="url(#p3bb6590efc)">
     <use xlink:href="#me4623a691f" x="0" y="360" style="fill: #006400; fill-opacity: 0.1; stroke: #006400; stroke-opacity: 0.1"/>
    </g>
   </g>
   <g id="matplotlib.axis_1">
    <g id="xtick_1">
     <g id="line2d_1">
      <defs>
       <path id="mf64dfc8d7c" d="M 0 0 
L 0 3.5 
" style="stroke: #000000; stroke-width: 0.8"/>
      </defs>
      <g>
       <use xlink:href="#mf64dfc8d7c" x="67.5" y="320.4" style="stroke: #000000; stroke-width: 0.8"/>
      </g>
     </g>
     <g id="text_1">
      <!-- 0 -->
      <g transform="translate(69.431562 331.85375) rotate(-90) scale(0.07 -0.07)">
       <defs>
        <path id="DejaVuSans-30" d="M 2034 4250 
Q 1547 4250 1301 3770 
Q 1056 3291 1056 2328 
Q 1056 1369 1301 889 
Q 1547 409 2034 409 
Q 2525 409 2770 889 
Q 3016 1369 3016 2328 
Q 3016 3291 2770 3770 
Q 2525 4250 2034 4250 
z
M 2034 4750 
Q 2819 4750 3233 4129 
Q 3647 3509 3647 2328 
Q 3647 1150 3233 529 
Q 2819 -91 2034 -91 
Q 1250 -91 836 529 
Q 422 1150 422 2328 
Q 422 3509 836 4129 
Q 1250 4750 2034 4750 
z
" transform="scale(0.015625)"/>
       </defs>
       <use xlink:href="#DejaVuSans-30"/>
      </g>
     </g>
    </g>
    <g id="xtick_2">
     <g id="line2d_2">
      <g>
       <use xlink:href="#mf64dfc8d7c" x="100.846614" y="320.4" style="stroke: #000000; stroke-width: 0.8"/>
      </g>
     </g>
     <g id="text_2">
      <!-- 1 -->
      <g transform="translate(102.778176 331.85375) rotate(-90) scale(0.07 -0.07)">
       <defs>
        <path id="DejaVuSans-31" d="M 794 531 
L 1825 531 
L 1825 4091 
L 703 3866 
L 703 4441 
L 1819 4666 
L 2450 4666 
L 2450 531 
L 3481 531 
L 3481 0 
L 794 0 
L 794 531 
z
" transform="scale(0.015625)"/>
       </defs>
       <use xlink:href="#DejaVuSans-31"/>
      </g>
     </g>
    </g>
    <g id="xtick_3">
     <g id="line2d_3">
      <g>
       <use xlink:href="#mf64dfc8d7c" x="134.193227" y="320.4" style="stroke: #000000; stroke-width: 0.8"/>
      </g>
     </g>
     <g id="text_3">
      <!-- 2 -->
      <g transform="translate(136.12479 331.85375) rotate(-90) scale(0.07 -0.07)">
       <defs>
        <path id="DejaVuSans-32" d="M 1228 531 
L 3431 531 
L 3431 0 
L 469 0 
L 469 531 
Q 828 903 1448 1529 
Q 2069 2156 2228 2338 
Q 2531 2678 2651 2914 
Q 2772 3150 2772 3378 
Q 2772 3750 2511 3984 
Q 2250 4219 1831 4219 
Q 1534 4219 1204 4116 
Q 875 4013 500 3803 
L 500 4441 
Q 881 4594 1212 4672 
Q 1544 4750 1819 4750 
Q 2544 4750 2975 4387 
Q 3406 4025 3406 3419 
Q 3406 3131 3298 2873 
Q 3191 2616 2906 2266 
Q 2828 2175 2409 1742 
Q 1991 1309 1228 531 
z
" transform="scale(0.015625)"/>
       </defs>
       <use xlink:href="#DejaVuSans-32"/>
      </g>
     </g>
    </g>
    <g id="xtick_4">
     <g id="line2d_4">
      <g>
       <use xlink:href="#mf64dfc8d7c" x="167.539841" y="320.4" style="stroke: #000000; stroke-width: 0.8"/>
      </g>
     </g>
     <g id="text_4">
      <!-- 3 -->
      <g transform="translate(169.471403 331.85375) rotate(-90) scale(0.07 -0.07)">
       <defs>
        <path id="DejaVuSans-33" d="M 2597 2516 
Q 3050 2419 3304 2112 
Q 3559 1806 3559 1356 
Q 3559 666 3084 287 
Q 2609 -91 1734 -91 
Q 1441 -91 1130 -33 
Q 819 25 488 141 
L 488 750 
Q 750 597 1062 519 
Q 1375 441 1716 441 
Q 2309 441 2620 675 
Q 2931 909 2931 1356 
Q 2931 1769 2642 2001 
Q 2353 2234 1838 2234 
L 1294 2234 
L 1294 2753 
L 1863 2753 
Q 2328 2753 2575 2939 
Q 2822 3125 2822 3475 
Q 2822 3834 2567 4026 
Q 2313 4219 1838 4219 
Q 1578 4219 1281 4162 
Q 984 4106 628 3988 
L 628 4550 
Q 988 4650 1302 4700 
Q 1616 4750 1894 4750 
Q 2613 4750 3031 4423 
Q 3450 4097 3450 3541 
Q 3450 3153 3228 2886 
Q 3006 2619 2597 2516 
z
" transform="scale(0.015625)"/>
       </defs>
       <use xlink:href="#DejaVuSans-33"/>
      </g>
     </g>
    </g>
    <g id="xtick_5">
     <g id="line2d_5">
      <g>
       <use xlink:href="#mf64dfc8d7c" x="200.886454" y="320.4" style="stroke: #000000; stroke-width: 0.8"/>
      </g>
     </g>
     <g id="text_5">
      <!-- 4 -->
      <g transform="translate(202.818017 331.85375) rotate(-90) scale(0.07 -0.07)">
       <defs>
        <path id="DejaVuSans-34" d="M 2419 4116 
L 825 1625 
L 2419 1625 
L 2419 4116 
z
M 2253 4666 
L 3047 4666 
L 3047 1625 
L 3713 1625 
L 3713 1100 
L 3047 1100 
L 3047 0 
L 2419 0 
L 2419 1100 
L 313 1100 
L 313 1709 
L 2253 4666 
z
" transform="scale(0.015625)"/>
       </defs>
       <use xlink:href="#DejaVuSans-34"/>
      </g>
     </g>
    </g>
    <g id="xtick_6">
     <g id="line2d_6">
      <g>
       <use xlink:href="#mf64dfc8d7c" x="234.233068" y="320.4" style="stroke: #000000; stroke-width: 0.8"/>
      </g>
     </g>
     <g id="text_6">
      <!-- 5 -->
      <g transform="translate(236.16463 331.85375) rotate(-90) scale(0.07 -0.07)">
       <defs>
        <path id="DejaVuSans-35" d="M 691 4666 
L 3169 4666 
L 3169 4134 
L 1269 4134 
L 1269 2991 
Q 1406 3038 1543 3061 
Q 1681 3084 1819 3084 
Q 2600 3084 3056 2656 
Q 3513 2228 3513 1497 
Q 3513 744 3044 326 
Q 2575 -91 1722 -91 
Q 1428 -91 1123 -41 
Q 819 9 494 109 
L 494 744 
Q 775 591 1075 516 
Q 1375 441 1709 441 
Q 2250 441 2565 725 
Q 2881 1009 2881 1497 
Q 2881 1984 2565 2268 
Q 2250 2553 1709 2553 
Q 1456 2553 1204 2497 
Q 953 2441 691 2322 
L 691 4666 
z
" transform="scale(0.015625)"/>
       </defs>
       <use xlink:href="#DejaVuSans-35"/>
      </g>
     </g>
    </g>
    <g id="xtick_7">
     <g id="line2d_7">
      <g>
       <use xlink:href="#mf64dfc8d7c" x="267.579681" y="320.4" style="stroke: #000000; stroke-width: 0.8"/>
      </g>
     </g>
     <g id="text_7">
      <!-- 6 -->
      <g transform="translate(269.511244 331.85375) rotate(-90) scale(0.07 -0.07)">
       <defs>
        <path id="DejaVuSans-36" d="M 2113 2584 
Q 1688 2584 1439 2293 
Q 1191 2003 1191 1497 
Q 1191 994 1439 701 
Q 1688 409 2113 409 
Q 2538 409 2786 701 
Q 3034 994 3034 1497 
Q 3034 2003 2786 2293 
Q 2538 2584 2113 2584 
z
M 3366 4563 
L 3366 3988 
Q 3128 4100 2886 4159 
Q 2644 4219 2406 4219 
Q 1781 4219 1451 3797 
Q 1122 3375 1075 2522 
Q 1259 2794 1537 2939 
Q 1816 3084 2150 3084 
Q 2853 3084 3261 2657 
Q 3669 2231 3669 1497 
Q 3669 778 3244 343 
Q 2819 -91 2113 -91 
Q 1303 -91 875 529 
Q 447 1150 447 2328 
Q 447 3434 972 4092 
Q 1497 4750 2381 4750 
Q 2619 4750 2861 4703 
Q 3103 4656 3366 4563 
z
" transform="scale(0.015625)"/>
       </defs>
       <use xlink:href="#DejaVuSans-36"/>
      </g>
     </g>
    </g>
    <g id="xtick_8">
     <g id="line2d_8">
      <g>
       <use xlink:href="#mf64dfc8d7c" x="300.926295" y="320.4" style="stroke: #000000; stroke-width: 0.8"/>
      </g>
     </g>
     <g id="text_8">
      <!-- 7 -->
      <g transform="translate(302.857857 331.85375) rotate(-90) scale(0.07 -0.07)">
       <defs>
        <path id="DejaVuSans-37" d="M 525 4666 
L 3525 4666 
L 3525 4397 
L 1831 0 
L 1172 0 
L 2766 4134 
L 525 4134 
L 525 4666 
z
" transform="scale(0.015625)"/>
       </defs>
       <use xlink:href="#DejaVuSans-37"/>
      </g>
     </g>
    </g>
    <g id="xtick_9">
     <g id="line2d_9">
      <g>
       <use xlink:href="#mf64dfc8d7c" x="334.272908" y="320.4" style="stroke: #000000; stroke-width: 0.8"/>
      </g>
     </g>
     <g id="text_9">
      <!-- 8 -->
      <g transform="translate(336.204471 331.85375) rotate(-90) scale(0.07 -0.07)">
       <defs>
        <path id="DejaVuSans-38" d="M 2034 2216 
Q 1584 2216 1326 1975 
Q 1069 1734 1069 1313 
Q 1069 891 1326 650 
Q 1584 409 2034 409 
Q 2484 409 2743 651 
Q 3003 894 3003 1313 
Q 3003 1734 2745 1975 
Q 2488 2216 2034 2216 
z
M 1403 2484 
Q 997 2584 770 2862 
Q 544 3141 544 3541 
Q 544 4100 942 4425 
Q 1341 4750 2034 4750 
Q 2731 4750 3128 4425 
Q 3525 4100 3525 3541 
Q 3525 3141 3298 2862 
Q 3072 2584 2669 2484 
Q 3125 2378 3379 2068 
Q 3634 1759 3634 1313 
Q 3634 634 3220 271 
Q 2806 -91 2034 -91 
Q 1263 -91 848 271 
Q 434 634 434 1313 
Q 434 1759 690 2068 
Q 947 2378 1403 2484 
z
M 1172 3481 
Q 1172 3119 1398 2916 
Q 1625 2713 2034 2713 
Q 2441 2713 2670 2916 
Q 2900 3119 2900 3481 
Q 2900 3844 2670 4047 
Q 2441 4250 2034 4250 
Q 1625 4250 1398 4047 
Q 1172 3844 1172 3481 
z
" transform="scale(0.015625)"/>
       </defs>
       <use xlink:href="#DejaVuSans-38"/>
      </g>
     </g>
    </g>
    <g id="xtick_10">
     <g id="line2d_10">
      <g>
       <use xlink:href="#mf64dfc8d7c" x="367.619522" y="320.4" style="stroke: #000000; stroke-width: 0.8"/>
      </g>
     </g>
     <g id="text_10">
      <!-- 9 -->
      <g transform="translate(369.551084 331.85375) rotate(-90) scale(0.07 -0.07)">
       <defs>
        <path id="DejaVuSans-39" d="M 703 97 
L 703 672 
Q 941 559 1184 500 
Q 1428 441 1663 441 
Q 2288 441 2617 861 
Q 2947 1281 2994 2138 
Q 2813 1869 2534 1725 
Q 2256 1581 1919 1581 
Q 1219 1581 811 2004 
Q 403 2428 403 3163 
Q 403 3881 828 4315 
Q 1253 4750 1959 4750 
Q 2769 4750 3195 4129 
Q 3622 3509 3622 2328 
Q 3622 1225 3098 567 
Q 2575 -91 1691 -91 
Q 1453 -91 1209 -44 
Q 966 3 703 97 
z
M 1959 2075 
Q 2384 2075 2632 2365 
Q 2881 2656 2881 3163 
Q 2881 3666 2632 3958 
Q 2384 4250 1959 4250 
Q 1534 4250 1286 3958 
Q 1038 3666 1038 3163 
Q 1038 2656 1286 2365 
Q 1534 2075 1959 2075 
z
" transform="scale(0.015625)"/>
       </defs>
       <use xlink:href="#DejaVuSans-39"/>
      </g>
     </g>
    </g>
    <g id="xtick_11">
     <g id="line2d_11">
      <g>
       <use xlink:href="#mf64dfc8d7c" x="400.966135" y="320.4" style="stroke: #000000; stroke-width: 0.8"/>
      </g>
     </g>
     <g id="text_11">
      <!-- 10 -->
      <g transform="translate(402.897698 336.3075) rotate(-90) scale(0.07 -0.07)">
       <use xlink:href="#DejaVuSans-31"/>
       <use xlink:href="#DejaVuSans-30" x="63.623047"/>
      </g>
     </g>
    </g>
    <g id="xtick_12">
     <g id="line2d_12">
      <g>
       <use xlink:href="#mf64dfc8d7c" x="434.312749" y="320.4" style="stroke: #000000; stroke-width: 0.8"/>
      </g>
     </g>
     <g id="text_12">
      <!-- 11 -->
      <g transform="translate(436.244312 336.3075) rotate(-90) scale(0.07 -0.07)">
       <use xlink:href="#DejaVuSans-31"/>
       <use xlink:href="#DejaVuSans-31" x="63.623047"/>
      </g>
     </g>
    </g>
    <g id="xtick_13">
     <g id="line2d_13">
      <g>
       <use xlink:href="#mf64dfc8d7c" x="467.659363" y="320.4" style="stroke: #000000; stroke-width: 0.8"/>
      </g>
     </g>
     <g id="text_13">
      <!-- 12 -->
      <g transform="translate(469.590925 336.3075) rotate(-90) scale(0.07 -0.07)">
       <use xlink:href="#DejaVuSans-31"/>
       <use xlink:href="#DejaVuSans-32" x="63.623047"/>
      </g>
     </g>
    </g>
    <g id="text_14">
     <!-- Month -->
     <g transform="translate(261.078906 347.905937) scale(0.1 -0.1)">
      <defs>
       <path id="DejaVuSans-4d" d="M 628 4666 
L 1569 4666 
L 2759 1491 
L 3956 4666 
L 4897 4666 
L 4897 0 
L 4281 0 
L 4281 4097 
L 3078 897 
L 2444 897 
L 1241 4097 
L 1241 0 
L 628 0 
L 628 4666 
z
" transform="scale(0.015625)"/>
       <path id="DejaVuSans-6f" d="M 1959 3097 
Q 1497 3097 1228 2736 
Q 959 2375 959 1747 
Q 959 1119 1226 758 
Q 1494 397 1959 397 
Q 2419 397 2687 759 
Q 2956 1122 2956 1747 
Q 2956 2369 2687 2733 
Q 2419 3097 1959 3097 
z
M 1959 3584 
Q 2709 3584 3137 3096 
Q 3566 2609 3566 1747 
Q 3566 888 3137 398 
Q 2709 -91 1959 -91 
Q 1206 -91 779 398 
Q 353 888 353 1747 
Q 353 2609 779 3096 
Q 1206 3584 1959 3584 
z
" transform="scale(0.015625)"/>
       <path id="DejaVuSans-6e" d="M 3513 2113 
L 3513 0 
L 2938 0 
L 2938 2094 
Q 2938 2591 2744 2837 
Q 2550 3084 2163 3084 
Q 1697 3084 1428 2787 
Q 1159 2491 1159 1978 
L 1159 0 
L 581 0 
L 581 3500 
L 1159 3500 
L 1159 2956 
Q 1366 3272 1645 3428 
Q 1925 3584 2291 3584 
Q 2894 3584 3203 3211 
Q 3513 2838 3513 2113 
z
" transform="scale(0.015625)"/>
       <path id="DejaVuSans-74" d="M 1172 4494 
L 1172 3500 
L 2356 3500 
L 2356 3053 
L 1172 3053 
L 1172 1153 
Q 1172 725 1289 603 
Q 1406 481 1766 481 
L 2356 481 
L 2356 0 
L 1766 0 
Q 1100 0 847 248 
Q 594 497 594 1153 
L 594 3053 
L 172 3053 
L 172 3500 
L 594 3500 
L 594 4494 
L 1172 4494 
z
" transform="scale(0.015625)"/>
       <path id="DejaVuSans-68" d="M 3513 2113 
L 3513 0 
L 2938 0 
L 2938 2094 
Q 2938 2591 2744 2837 
Q 2550 3084 2163 3084 
Q 1697 3084 1428 2787 
Q 1159 2491 1159 1978 
L 1159 0 
L 581 0 
L 581 4863 
L 1159 4863 
L 1159 2956 
Q 1366 3272 1645 3428 
Q 1925 3584 2291 3584 
Q 2894 3584 3203 3211 
Q 3513 2838 3513 2113 
z
" transform="scale(0.015625)"/>
      </defs>
      <use xlink:href="#DejaVuSans-4d"/>
      <use xlink:href="#DejaVuSans-6f" x="86.279297"/>
      <use xlink:href="#DejaVuSans-6e" x="147.460938"/>
      <use xlink:href="#DejaVuSans-74" x="210.839844"/>
      <use xlink:href="#DejaVuSans-68" x="250.048828"/>
     </g>
    </g>
   </g>
   <g id="matplotlib.axis_2">
    <g id="ytick_1">
     <g id="line2d_14">
      <defs>
       <path id="m7bcb0da75e" d="M 0 0 
L -3.5 0 
" style="stroke: #000000; stroke-width: 0.8"/>
      </defs>
      <g>
       <use xlink:href="#m7bcb0da75e" x="67.5" y="312.447644" style="stroke: #000000; stroke-width: 0.8"/>
      </g>
     </g>
     <g id="text_15">
      <!-- 434 -->
      <g transform="translate(47.13875 315.107097) scale(0.07 -0.07)">
       <use xlink:href="#DejaVuSans-34"/>
       <use xlink:href="#DejaVuSans-33" x="63.623047"/>
       <use xlink:href="#DejaVuSans-34" x="127.246094"/>
      </g>
     </g>
    </g>
    <g id="ytick_2">
     <g id="line2d_15">
      <g>
       <use xlink:href="#m7bcb0da75e" x="67.5" y="276.118354" style="stroke: #000000; stroke-width: 0.8"/>
      </g>
     </g>
     <g id="text_16">
      <!-- 436 -->
      <g transform="translate(47.13875 278.777807) scale(0.07 -0.07)">
       <use xlink:href="#DejaVuSans-34"/>
       <use xlink:href="#DejaVuSans-33" x="63.623047"/>
       <use xlink:href="#DejaVuSans-36" x="127.246094"/>
      </g>
     </g>
    </g>
    <g id="ytick_3">
     <g id="line2d_16">
      <g>
       <use xlink:href="#m7bcb0da75e" x="67.5" y="239.789063" style="stroke: #000000; stroke-width: 0.8"/>
      </g>
     </g>
     <g id="text_17">
      <!-- 438 -->
      <g transform="translate(47.13875 242.448517) scale(0.07 -0.07)">
       <use xlink:href="#DejaVuSans-34"/>
       <use xlink:href="#DejaVuSans-33" x="63.623047"/>
       <use xlink:href="#DejaVuSans-38" x="127.246094"/>
      </g>
     </g>
    </g>
    <g id="ytick_4">
     <g id="line2d_17">
      <g>
       <use xlink:href="#m7bcb0da75e" x="67.5" y="203.459773" style="stroke: #000000; stroke-width: 0.8"/>
      </g>
     </g>
     <g id="text_18">
      <!-- 440 -->
      <g transform="translate(47.13875 206.119226) scale(0.07 -0.07)">
       <use xlink:href="#DejaVuSans-34"/>
       <use xlink:href="#DejaVuSans-34" x="63.623047"/>
       <use xlink:href="#DejaVuSans-30" x="127.246094"/>
      </g>
     </g>
    </g>
    <g id="ytick_5">
     <g id="line2d_18">
      <g>
       <use xlink:href="#m7bcb0da75e" x="67.5" y="167.130483" style="stroke: #000000; stroke-width: 0.8"/>
      </g>
     </g>
     <g id="text_19">
      <!-- 442 -->
      <g transform="translate(47.13875 169.789936) scale(0.07 -0.07)">
       <use xlink:href="#DejaVuSans-34"/>
       <use xlink:href="#DejaVuSans-34" x="63.623047"/>
       <use xlink:href="#DejaVuSans-32" x="127.246094"/>
      </g>
     </g>
    </g>
    <g id="ytick_6">
     <g id="line2d_19">
      <g>
       <use xlink:href="#m7bcb0da75e" x="67.5" y="130.801193" style="stroke: #000000; stroke-width: 0.8"/>
      </g>
     </g>
     <g id="text_20">
      <!-- 444 -->
      <g transform="translate(47.13875 133.460646) scale(0.07 -0.07)">
       <use xlink:href="#DejaVuSans-34"/>
       <use xlink:href="#DejaVuSans-34" x="63.623047"/>
       <use xlink:href="#DejaVuSans-34" x="127.246094"/>
      </g>
     </g>
    </g>
    <g id="ytick_7">
     <g id="line2d_20">
      <g>
       <use xlink:href="#m7bcb0da75e" x="67.5" y="94.471903" style="stroke: #000000; stroke-width: 0.8"/>
      </g>
     </g>
     <g id="text_21">
      <!-- 446 -->
      <g transform="translate(47.13875 97.131356) scale(0.07 -0.07)">
       <use xlink:href="#DejaVuSans-34"/>
       <use xlink:href="#DejaVuSans-34" x="63.623047"/>
       <use xlink:href="#DejaVuSans-36" x="127.246094"/>
      </g>
     </g>
    </g>
    <g id="ytick_8">
     <g id="line2d_21">
      <g>
       <use xlink:href="#m7bcb0da75e" x="67.5" y="58.142613" style="stroke: #000000; stroke-width: 0.8"/>
      </g>
     </g>
     <g id="text_22">
      <!-- 448 -->
      <g transform="translate(47.13875 60.802066) scale(0.07 -0.07)">
       <use xlink:href="#DejaVuSans-34"/>
       <use xlink:href="#DejaVuSans-34" x="63.623047"/>
       <use xlink:href="#DejaVuSans-38" x="127.246094"/>
      </g>
     </g>
    </g>
    <g id="text_23">
     <!-- elevacionactual_mean (msnm) -->
     <g transform="translate(40.780937 258.811719) rotate(-90) scale(0.1 -0.1)">
      <defs>
       <path id="DejaVuSans-65" d="M 3597 1894 
L 3597 1613 
L 953 1613 
Q 991 1019 1311 708 
Q 1631 397 2203 397 
Q 2534 397 2845 478 
Q 3156 559 3463 722 
L 3463 178 
Q 3153 47 2828 -22 
Q 2503 -91 2169 -91 
Q 1331 -91 842 396 
Q 353 884 353 1716 
Q 353 2575 817 3079 
Q 1281 3584 2069 3584 
Q 2775 3584 3186 3129 
Q 3597 2675 3597 1894 
z
M 3022 2063 
Q 3016 2534 2758 2815 
Q 2500 3097 2075 3097 
Q 1594 3097 1305 2825 
Q 1016 2553 972 2059 
L 3022 2063 
z
" transform="scale(0.015625)"/>
       <path id="DejaVuSans-6c" d="M 603 4863 
L 1178 4863 
L 1178 0 
L 603 0 
L 603 4863 
z
" transform="scale(0.015625)"/>
       <path id="DejaVuSans-76" d="M 191 3500 
L 800 3500 
L 1894 563 
L 2988 3500 
L 3597 3500 
L 2284 0 
L 1503 0 
L 191 3500 
z
" transform="scale(0.015625)"/>
       <path id="DejaVuSans-61" d="M 2194 1759 
Q 1497 1759 1228 1600 
Q 959 1441 959 1056 
Q 959 750 1161 570 
Q 1363 391 1709 391 
Q 2188 391 2477 730 
Q 2766 1069 2766 1631 
L 2766 1759 
L 2194 1759 
z
M 3341 1997 
L 3341 0 
L 2766 0 
L 2766 531 
Q 2569 213 2275 61 
Q 1981 -91 1556 -91 
Q 1019 -91 701 211 
Q 384 513 384 1019 
Q 384 1609 779 1909 
Q 1175 2209 1959 2209 
L 2766 2209 
L 2766 2266 
Q 2766 2663 2505 2880 
Q 2244 3097 1772 3097 
Q 1472 3097 1187 3025 
Q 903 2953 641 2809 
L 641 3341 
Q 956 3463 1253 3523 
Q 1550 3584 1831 3584 
Q 2591 3584 2966 3190 
Q 3341 2797 3341 1997 
z
" transform="scale(0.015625)"/>
       <path id="DejaVuSans-63" d="M 3122 3366 
L 3122 2828 
Q 2878 2963 2633 3030 
Q 2388 3097 2138 3097 
Q 1578 3097 1268 2742 
Q 959 2388 959 1747 
Q 959 1106 1268 751 
Q 1578 397 2138 397 
Q 2388 397 2633 464 
Q 2878 531 3122 666 
L 3122 134 
Q 2881 22 2623 -34 
Q 2366 -91 2075 -91 
Q 1284 -91 818 406 
Q 353 903 353 1747 
Q 353 2603 823 3093 
Q 1294 3584 2113 3584 
Q 2378 3584 2631 3529 
Q 2884 3475 3122 3366 
z
" transform="scale(0.015625)"/>
       <path id="DejaVuSans-69" d="M 603 3500 
L 1178 3500 
L 1178 0 
L 603 0 
L 603 3500 
z
M 603 4863 
L 1178 4863 
L 1178 4134 
L 603 4134 
L 603 4863 
z
" transform="scale(0.015625)"/>
       <path id="DejaVuSans-75" d="M 544 1381 
L 544 3500 
L 1119 3500 
L 1119 1403 
Q 1119 906 1312 657 
Q 1506 409 1894 409 
Q 2359 409 2629 706 
Q 2900 1003 2900 1516 
L 2900 3500 
L 3475 3500 
L 3475 0 
L 2900 0 
L 2900 538 
Q 2691 219 2414 64 
Q 2138 -91 1772 -91 
Q 1169 -91 856 284 
Q 544 659 544 1381 
z
M 1991 3584 
L 1991 3584 
z
" transform="scale(0.015625)"/>
       <path id="DejaVuSans-5f" d="M 3263 -1063 
L 3263 -1509 
L -63 -1509 
L -63 -1063 
L 3263 -1063 
z
" transform="scale(0.015625)"/>
       <path id="DejaVuSans-6d" d="M 3328 2828 
Q 3544 3216 3844 3400 
Q 4144 3584 4550 3584 
Q 5097 3584 5394 3201 
Q 5691 2819 5691 2113 
L 5691 0 
L 5113 0 
L 5113 2094 
Q 5113 2597 4934 2840 
Q 4756 3084 4391 3084 
Q 3944 3084 3684 2787 
Q 3425 2491 3425 1978 
L 3425 0 
L 2847 0 
L 2847 2094 
Q 2847 2600 2669 2842 
Q 2491 3084 2119 3084 
Q 1678 3084 1418 2786 
Q 1159 2488 1159 1978 
L 1159 0 
L 581 0 
L 581 3500 
L 1159 3500 
L 1159 2956 
Q 1356 3278 1631 3431 
Q 1906 3584 2284 3584 
Q 2666 3584 2933 3390 
Q 3200 3197 3328 2828 
z
" transform="scale(0.015625)"/>
       <path id="DejaVuSans-20" transform="scale(0.015625)"/>
       <path id="DejaVuSans-28" d="M 1984 4856 
Q 1566 4138 1362 3434 
Q 1159 2731 1159 2009 
Q 1159 1288 1364 580 
Q 1569 -128 1984 -844 
L 1484 -844 
Q 1016 -109 783 600 
Q 550 1309 550 2009 
Q 550 2706 781 3412 
Q 1013 4119 1484 4856 
L 1984 4856 
z
" transform="scale(0.015625)"/>
       <path id="DejaVuSans-73" d="M 2834 3397 
L 2834 2853 
Q 2591 2978 2328 3040 
Q 2066 3103 1784 3103 
Q 1356 3103 1142 2972 
Q 928 2841 928 2578 
Q 928 2378 1081 2264 
Q 1234 2150 1697 2047 
L 1894 2003 
Q 2506 1872 2764 1633 
Q 3022 1394 3022 966 
Q 3022 478 2636 193 
Q 2250 -91 1575 -91 
Q 1294 -91 989 -36 
Q 684 19 347 128 
L 347 722 
Q 666 556 975 473 
Q 1284 391 1588 391 
Q 1994 391 2212 530 
Q 2431 669 2431 922 
Q 2431 1156 2273 1281 
Q 2116 1406 1581 1522 
L 1381 1569 
Q 847 1681 609 1914 
Q 372 2147 372 2553 
Q 372 3047 722 3315 
Q 1072 3584 1716 3584 
Q 2034 3584 2315 3537 
Q 2597 3491 2834 3397 
z
" transform="scale(0.015625)"/>
       <path id="DejaVuSans-29" d="M 513 4856 
L 1013 4856 
Q 1481 4119 1714 3412 
Q 1947 2706 1947 2009 
Q 1947 1309 1714 600 
Q 1481 -109 1013 -844 
L 513 -844 
Q 928 -128 1133 580 
Q 1338 1288 1338 2009 
Q 1338 2731 1133 3434 
Q 928 4138 513 4856 
z
" transform="scale(0.015625)"/>
      </defs>
      <use xlink:href="#DejaVuSans-65"/>
      <use xlink:href="#DejaVuSans-6c" x="61.523438"/>
      <use xlink:href="#DejaVuSans-65" x="89.306641"/>
      <use xlink:href="#DejaVuSans-76" x="150.830078"/>
      <use xlink:href="#DejaVuSans-61" x="210.009766"/>
      <use xlink:href="#DejaVuSans-63" x="271.289062"/>
      <use xlink:href="#DejaVuSans-69" x="326.269531"/>
      <use xlink:href="#DejaVuSans-6f" x="354.052734"/>
      <use xlink:href="#DejaVuSans-6e" x="415.234375"/>
      <use xlink:href="#DejaVuSans-61" x="478.613281"/>
      <use xlink:href="#DejaVuSans-63" x="539.892578"/>
      <use xlink:href="#DejaVuSans-74" x="594.873047"/>
      <use xlink:href="#DejaVuSans-75" x="634.082031"/>
      <use xlink:href="#DejaVuSans-61" x="697.460938"/>
      <use xlink:href="#DejaVuSans-6c" x="758.740234"/>
      <use xlink:href="#DejaVuSans-5f" x="786.523438"/>
      <use xlink:href="#DejaVuSans-6d" x="836.523438"/>
      <use xlink:href="#DejaVuSans-65" x="933.935547"/>
      <use xlink:href="#DejaVuSans-61" x="995.458984"/>
      <use xlink:href="#DejaVuSans-6e" x="1056.738281"/>
      <use xlink:href="#DejaVuSans-20" x="1120.117188"/>
      <use xlink:href="#DejaVuSans-28" x="1151.904297"/>
      <use xlink:href="#DejaVuSans-6d" x="1190.917969"/>
      <use xlink:href="#DejaVuSans-73" x="1288.330078"/>
      <use xlink:href="#DejaVuSans-6e" x="1340.429688"/>
      <use xlink:href="#DejaVuSans-6d" x="1403.808594"/>
      <use xlink:href="#DejaVuSans-29" x="1501.220703"/>
     </g>
    </g>
   </g>
   <g id="line2d_22">
    <path d="M 100.846614 95.355565 
L 134.193227 100.44518 
L 167.539841 104.90999 
L 200.886454 109.74076 
L 234.233068 115.401254 
L 267.579681 122.938452 
L 300.926295 125.726353 
L 334.272908 128.41055 
L 367.619522 104.574343 
L 400.966135 85.565373 
L 434.312749 86.370944 
L 467.659363 89.849348 
" clip-path="url(#p3bb6590efc)" style="fill: none; stroke: #006400; stroke-width: 1.5; stroke-linecap: square"/>
   </g>
   <g id="line2d_23">
    <path d="M 100.846614 96.880183 
L 134.193227 108.618529 
L 167.539841 100.472291 
L 200.886454 85.707462 
L 234.233068 85.700974 
L 267.579681 95.843647 
L 300.926295 83.704653 
L 334.272908 83.936409 
L 367.619522 83.115868 
L 400.966135 64.29913 
L 434.312749 55.8 
L 467.659363 69.022609 
" clip-path="url(#p3bb6590efc)" style="fill: none; stroke-dasharray: 0.74,0.32; stroke-dashoffset: 0; stroke: #1f77b4; stroke-width: 0.2"/>
   </g>
   <g id="line2d_24">
    <path d="M 100.846614 80.922423 
L 134.193227 81.3207 
L 167.539841 86.479459 
L 200.886454 92.971638 
L 234.233068 87.036926 
L 267.579681 83.633665 
L 300.926295 76.879108 
L 334.272908 91.807755 
L 367.619522 94.505541 
L 400.966135 90.706232 
L 434.312749 90.294035 
L 467.659363 99.169656 
" clip-path="url(#p3bb6590efc)" style="fill: none; stroke-dasharray: 0.74,0.32; stroke-dashoffset: 0; stroke: #ff7f0e; stroke-width: 0.2"/>
   </g>
   <g id="line2d_25">
    <path d="M 100.846614 92.065087 
L 134.193227 88.383114 
L 167.539841 87.850597 
L 200.886454 106.502953 
L 234.233068 108.114849 
L 267.579681 110.260612 
L 300.926295 104.680433 
L 334.272908 104.388454 
L 367.619522 125.010304 
L 400.966135 128.318692 
L 434.312749 125.642434 
L 467.659363 116.022957 
" clip-path="url(#p3bb6590efc)" style="fill: none; stroke-dasharray: 0.74,0.32; stroke-dashoffset: 0; stroke: #2ca02c; stroke-width: 0.2"/>
   </g>
   <g id="line2d_26">
    <path d="M 100.846614 116.112885 
L 134.193227 122.465639 
L 167.539841 128.816057 
L 200.886454 133.559528 
L 234.233068 137.27601 
L 267.579681 142.6147 
L 300.926295 146.585643 
L 334.272908 145.015028 
L 367.619522 108.088899 
L 400.966135 78.737562 
L 434.312749 82.937353 
L 467.659363 77.312368 
" clip-path="url(#p3bb6590efc)" style="fill: none; stroke-dasharray: 0.74,0.32; stroke-dashoffset: 0; stroke: #d62728; stroke-width: 0.2"/>
   </g>
   <g id="line2d_27">
    <path d="M 100.846614 76.482417 
L 134.193227 83.869132 
L 167.539841 88.356472 
L 200.886454 94.377716 
L 234.233068 99.05691 
L 267.579681 101.269672 
L 300.926295 104.117329 
L 334.272908 93.934229 
L 367.619522 88.276462 
L 400.966135 67.588228 
L 434.312749 67.050555 
L 467.659363 58.116663 
" clip-path="url(#p3bb6590efc)" style="fill: none; stroke-dasharray: 0.74,0.32; stroke-dashoffset: 0; stroke: #9467bd; stroke-width: 0.2"/>
   </g>
   <g id="line2d_28">
    <path d="M 100.846614 63.688884 
L 134.193227 59.16113 
L 167.539841 58.832869 
L 200.886454 62.195208 
L 234.233068 74.511753 
L 267.579681 80.915696 
L 300.926295 89.917767 
L 334.272908 92.430197 
L 367.619522 85.441479 
L 400.966135 78.620223 
L 434.312749 85.585759 
L 467.659363 83.372007 
" clip-path="url(#p3bb6590efc)" style="fill: none; stroke-dasharray: 0.74,0.32; stroke-dashoffset: 0; stroke: #8c564b; stroke-width: 0.2"/>
   </g>
   <g id="line2d_29">
    <path d="M 100.846614 81.962517 
L 134.193227 87.275909 
L 167.539841 91.487711 
L 200.886454 87.865354 
L 234.233068 86.96385 
L 267.579681 87.619447 
L 300.926295 97.559893 
L 334.272908 109.394858 
L 367.619522 91.98698 
L 400.966135 75.23617 
L 434.312749 69.993478 
L 467.659363 85.680215 
" clip-path="url(#p3bb6590efc)" style="fill: none; stroke-dasharray: 0.74,0.32; stroke-dashoffset: 0; stroke: #e377c2; stroke-width: 0.2"/>
   </g>
   <g id="line2d_30">
    <path d="M 100.846614 94.887095 
L 134.193227 95.820279 
L 167.539841 97.657203 
L 200.886454 97.083854 
L 234.233068 123.73456 
L 267.579681 132.358163 
L 300.926295 131.702938 
L 334.272908 134.41466 
L 367.619522 136.592082 
L 400.966135 76.410191 
L 434.312749 80.727322 
L 467.659363 91.404873 
" clip-path="url(#p3bb6590efc)" style="fill: none; stroke-dasharray: 0.74,0.32; stroke-dashoffset: 0; stroke: #7f7f7f; stroke-width: 0.2"/>
   </g>
   <g id="line2d_31">
    <path d="M 100.846614 98.421031 
L 134.193227 98.154372 
L 167.539841 100.292487 
L 200.886454 106.411664 
L 234.233068 111.013449 
L 267.579681 124.389746 
L 300.926295 130.947908 
L 334.272908 147.720262 
L 367.619522 147.393898 
L 400.966135 68.971085 
L 434.312749 69.849413 
L 467.659363 71.166663 
" clip-path="url(#p3bb6590efc)" style="fill: none; stroke-dasharray: 0.74,0.32; stroke-dashoffset: 0; stroke: #bcbd22; stroke-width: 0.2"/>
   </g>
   <g id="line2d_32">
    <path d="M 100.846614 73.569586 
L 134.193227 71.335527 
L 167.539841 70.319412 
L 200.886454 70.662763 
L 234.233068 74.077391 
L 267.579681 80.285315 
L 300.926295 92.149423 
L 334.272908 111.2742 
L 367.619522 73.555651 
L 400.966135 72.391768 
L 434.312749 76.237394 
L 467.659363 78.180095 
" clip-path="url(#p3bb6590efc)" style="fill: none; stroke-dasharray: 0.74,0.32; stroke-dashoffset: 0; stroke: #17becf; stroke-width: 0.2"/>
   </g>
   <g id="line2d_33">
    <path d="M 100.846614 79.304424 
L 134.193227 84.205246 
L 167.539841 94.565858 
L 200.886454 106.774957 
L 234.233068 110.404055 
L 267.579681 112.868304 
L 300.926295 116.144204 
L 334.272908 75.327665 
L 367.619522 72.979235 
L 400.966135 77.152853 
L 434.312749 75.836323 
L 467.659363 77.348698 
" clip-path="url(#p3bb6590efc)" style="fill: none; stroke-dasharray: 0.74,0.32; stroke-dashoffset: 0; stroke: #1f77b4; stroke-width: 0.2"/>
   </g>
   <g id="line2d_34">
    <path d="M 100.846614 81.043521 
L 134.193227 83.862405 
L 167.539841 86.533953 
L 200.886454 89.422132 
L 234.233068 95.910543 
L 267.579681 109.684793 
L 300.926295 100.553695 
L 334.272908 109.623722 
L 367.619522 127.713203 
L 400.966135 136.670253 
L 434.312749 142.395248 
L 467.659363 155.78969 
" clip-path="url(#p3bb6590efc)" style="fill: none; stroke-dasharray: 0.74,0.32; stroke-dashoffset: 0; stroke: #ff7f0e; stroke-width: 0.2"/>
   </g>
   <g id="line2d_35">
    <path d="M 100.846614 189.408123 
L 134.193227 225.412083 
L 167.539841 253.129986 
L 200.886454 273.249853 
L 234.233068 283.723285 
L 267.579681 307.66645 
L 300.926295 307.8 
L 334.272908 303.10375 
L 367.619522 124.80686 
L 400.966135 97.247461 
L 434.312749 100.472963 
L 467.659363 105.455026 
" clip-path="url(#p3bb6590efc)" style="fill: none; stroke: #ffa500; stroke-width: 0.5; stroke-linecap: square"/>
   </g>
   <g id="line2d_36">
    <path d="M 100.846614 110.229733 
L 134.193227 116.348454 
L 167.539841 123.945504 
L 200.886454 129.585559 
L 234.233068 138.093001 
L 267.579681 151.728117 
L 300.926295 177.425945 
L 334.272908 195.376506 
" clip-path="url(#p3bb6590efc)" style="fill: none; stroke: #ff0000; stroke-width: 0.5; stroke-linecap: square"/>
   </g>
   <g id="patch_3">
    <path d="M 67.5 320.4 
L 67.5 43.2 
" style="fill: none; stroke: #000000; stroke-width: 0.8; stroke-linejoin: miter; stroke-linecap: square"/>
   </g>
   <g id="patch_4">
    <path d="M 486 320.4 
L 486 43.2 
" style="fill: none; stroke: #000000; stroke-width: 0.8; stroke-linejoin: miter; stroke-linecap: square"/>
   </g>
   <g id="patch_5">
    <path d="M 67.5 320.4 
L 486 320.4 
" style="fill: none; stroke: #000000; stroke-width: 0.8; stroke-linejoin: miter; stroke-linecap: square"/>
   </g>
   <g id="patch_6">
    <path d="M 67.5 43.2 
L 486 43.2 
" style="fill: none; stroke: #000000; stroke-width: 0.8; stroke-linejoin: miter; stroke-linecap: square"/>
   </g>
   <g id="text_24">
    <!-- Water level in presa_laboca 2010 - 2023 by year -->
    <g transform="translate(131.132812 37.2) scale(0.12 -0.12)">
     <defs>
      <path id="DejaVuSans-57" d="M 213 4666 
L 850 4666 
L 1831 722 
L 2809 4666 
L 3519 4666 
L 4500 722 
L 5478 4666 
L 6119 4666 
L 4947 0 
L 4153 0 
L 3169 4050 
L 2175 0 
L 1381 0 
L 213 4666 
z
" transform="scale(0.015625)"/>
      <path id="DejaVuSans-72" d="M 2631 2963 
Q 2534 3019 2420 3045 
Q 2306 3072 2169 3072 
Q 1681 3072 1420 2755 
Q 1159 2438 1159 1844 
L 1159 0 
L 581 0 
L 581 3500 
L 1159 3500 
L 1159 2956 
Q 1341 3275 1631 3429 
Q 1922 3584 2338 3584 
Q 2397 3584 2469 3576 
Q 2541 3569 2628 3553 
L 2631 2963 
z
" transform="scale(0.015625)"/>
      <path id="DejaVuSans-70" d="M 1159 525 
L 1159 -1331 
L 581 -1331 
L 581 3500 
L 1159 3500 
L 1159 2969 
Q 1341 3281 1617 3432 
Q 1894 3584 2278 3584 
Q 2916 3584 3314 3078 
Q 3713 2572 3713 1747 
Q 3713 922 3314 415 
Q 2916 -91 2278 -91 
Q 1894 -91 1617 61 
Q 1341 213 1159 525 
z
M 3116 1747 
Q 3116 2381 2855 2742 
Q 2594 3103 2138 3103 
Q 1681 3103 1420 2742 
Q 1159 2381 1159 1747 
Q 1159 1113 1420 752 
Q 1681 391 2138 391 
Q 2594 391 2855 752 
Q 3116 1113 3116 1747 
z
" transform="scale(0.015625)"/>
      <path id="DejaVuSans-62" d="M 3116 1747 
Q 3116 2381 2855 2742 
Q 2594 3103 2138 3103 
Q 1681 3103 1420 2742 
Q 1159 2381 1159 1747 
Q 1159 1113 1420 752 
Q 1681 391 2138 391 
Q 2594 391 2855 752 
Q 3116 1113 3116 1747 
z
M 1159 2969 
Q 1341 3281 1617 3432 
Q 1894 3584 2278 3584 
Q 2916 3584 3314 3078 
Q 3713 2572 3713 1747 
Q 3713 922 3314 415 
Q 2916 -91 2278 -91 
Q 1894 -91 1617 61 
Q 1341 213 1159 525 
L 1159 0 
L 581 0 
L 581 4863 
L 1159 4863 
L 1159 2969 
z
" transform="scale(0.015625)"/>
      <path id="DejaVuSans-2d" d="M 313 2009 
L 1997 2009 
L 1997 1497 
L 313 1497 
L 313 2009 
z
" transform="scale(0.015625)"/>
      <path id="DejaVuSans-79" d="M 2059 -325 
Q 1816 -950 1584 -1140 
Q 1353 -1331 966 -1331 
L 506 -1331 
L 506 -850 
L 844 -850 
Q 1081 -850 1212 -737 
Q 1344 -625 1503 -206 
L 1606 56 
L 191 3500 
L 800 3500 
L 1894 763 
L 2988 3500 
L 3597 3500 
L 2059 -325 
z
" transform="scale(0.015625)"/>
     </defs>
     <use xlink:href="#DejaVuSans-57"/>
     <use xlink:href="#DejaVuSans-61" x="92.501953"/>
     <use xlink:href="#DejaVuSans-74" x="153.78125"/>
     <use xlink:href="#DejaVuSans-65" x="192.990234"/>
     <use xlink:href="#DejaVuSans-72" x="254.513672"/>
     <use xlink:href="#DejaVuSans-20" x="295.626953"/>
     <use xlink:href="#DejaVuSans-6c" x="327.414062"/>
     <use xlink:href="#DejaVuSans-65" x="355.197266"/>
     <use xlink:href="#DejaVuSans-76" x="416.720703"/>
     <use xlink:href="#DejaVuSans-65" x="475.900391"/>
     <use xlink:href="#DejaVuSans-6c" x="537.423828"/>
     <use xlink:href="#DejaVuSans-20" x="565.207031"/>
     <use xlink:href="#DejaVuSans-69" x="596.994141"/>
     <use xlink:href="#DejaVuSans-6e" x="624.777344"/>
     <use xlink:href="#DejaVuSans-20" x="688.15625"/>
     <use xlink:href="#DejaVuSans-70" x="719.943359"/>
     <use xlink:href="#DejaVuSans-72" x="783.419922"/>
     <use xlink:href="#DejaVuSans-65" x="822.283203"/>
     <use xlink:href="#DejaVuSans-73" x="883.806641"/>
     <use xlink:href="#DejaVuSans-61" x="935.90625"/>
     <use xlink:href="#DejaVuSans-5f" x="997.185547"/>
     <use xlink:href="#DejaVuSans-6c" x="1047.185547"/>
     <use xlink:href="#DejaVuSans-61" x="1074.96875"/>
     <use xlink:href="#DejaVuSans-62" x="1136.248047"/>
     <use xlink:href="#DejaVuSans-6f" x="1199.724609"/>
     <use xlink:href="#DejaVuSans-63" x="1260.90625"/>
     <use xlink:href="#DejaVuSans-61" x="1315.886719"/>
     <use xlink:href="#DejaVuSans-20" x="1377.166016"/>
     <use xlink:href="#DejaVuSans-32" x="1408.953125"/>
     <use xlink:href="#DejaVuSans-30" x="1472.576172"/>
     <use xlink:href="#DejaVuSans-31" x="1536.199219"/>
     <use xlink:href="#DejaVuSans-30" x="1599.822266"/>
     <use xlink:href="#DejaVuSans-20" x="1663.445312"/>
     <use xlink:href="#DejaVuSans-2d" x="1695.232422"/>
     <use xlink:href="#DejaVuSans-20" x="1731.316406"/>
     <use xlink:href="#DejaVuSans-32" x="1763.103516"/>
     <use xlink:href="#DejaVuSans-30" x="1826.726562"/>
     <use xlink:href="#DejaVuSans-32" x="1890.349609"/>
     <use xlink:href="#DejaVuSans-33" x="1953.972656"/>
     <use xlink:href="#DejaVuSans-20" x="2017.595703"/>
     <use xlink:href="#DejaVuSans-62" x="2049.382812"/>
     <use xlink:href="#DejaVuSans-79" x="2112.859375"/>
     <use xlink:href="#DejaVuSans-20" x="2172.039062"/>
     <use xlink:href="#DejaVuSans-79" x="2203.826172"/>
     <use xlink:href="#DejaVuSans-65" x="2263.005859"/>
     <use xlink:href="#DejaVuSans-61" x="2324.529297"/>
     <use xlink:href="#DejaVuSans-72" x="2385.808594"/>
    </g>
   </g>
   <g id="legend_1">
    <g id="line2d_37">
     <path d="M 440.248438 166.348594 
L 447.248438 166.348594 
L 454.248438 166.348594 
" style="fill: none; stroke: #006400; stroke-width: 1.5; stroke-linecap: square"/>
    </g>
    <g id="text_25">
     <!-- mean -->
     <g transform="translate(459.848438 168.798594) scale(0.07 -0.07)">
      <use xlink:href="#DejaVuSans-6d"/>
      <use xlink:href="#DejaVuSans-65" x="97.412109"/>
      <use xlink:href="#DejaVuSans-61" x="158.935547"/>
      <use xlink:href="#DejaVuSans-6e" x="220.214844"/>
     </g>
    </g>
    <g id="line2d_38">
     <path d="M 440.248438 176.623281 
L 447.248438 176.623281 
L 454.248438 176.623281 
" style="fill: none; stroke-dasharray: 0.74,0.32; stroke-dashoffset: 0; stroke: #1f77b4; stroke-width: 0.2"/>
    </g>
    <g id="text_26">
     <!-- 10 -->
     <g transform="translate(459.848438 179.073281) scale(0.07 -0.07)">
      <use xlink:href="#DejaVuSans-31"/>
      <use xlink:href="#DejaVuSans-30" x="63.623047"/>
     </g>
    </g>
    <g id="line2d_39">
     <path d="M 440.248438 186.897969 
L 447.248438 186.897969 
L 454.248438 186.897969 
" style="fill: none; stroke-dasharray: 0.74,0.32; stroke-dashoffset: 0; stroke: #ff7f0e; stroke-width: 0.2"/>
    </g>
    <g id="text_27">
     <!-- 11 -->
     <g transform="translate(459.848438 189.347969) scale(0.07 -0.07)">
      <use xlink:href="#DejaVuSans-31"/>
      <use xlink:href="#DejaVuSans-31" x="63.623047"/>
     </g>
    </g>
    <g id="line2d_40">
     <path d="M 440.248438 197.172656 
L 447.248438 197.172656 
L 454.248438 197.172656 
" style="fill: none; stroke-dasharray: 0.74,0.32; stroke-dashoffset: 0; stroke: #2ca02c; stroke-width: 0.2"/>
    </g>
    <g id="text_28">
     <!-- 12 -->
     <g transform="translate(459.848438 199.622656) scale(0.07 -0.07)">
      <use xlink:href="#DejaVuSans-31"/>
      <use xlink:href="#DejaVuSans-32" x="63.623047"/>
     </g>
    </g>
    <g id="line2d_41">
     <path d="M 440.248438 207.447344 
L 447.248438 207.447344 
L 454.248438 207.447344 
" style="fill: none; stroke-dasharray: 0.74,0.32; stroke-dashoffset: 0; stroke: #d62728; stroke-width: 0.2"/>
    </g>
    <g id="text_29">
     <!-- 13 -->
     <g transform="translate(459.848438 209.897344) scale(0.07 -0.07)">
      <use xlink:href="#DejaVuSans-31"/>
      <use xlink:href="#DejaVuSans-33" x="63.623047"/>
     </g>
    </g>
    <g id="line2d_42">
     <path d="M 440.248438 217.722031 
L 447.248438 217.722031 
L 454.248438 217.722031 
" style="fill: none; stroke-dasharray: 0.74,0.32; stroke-dashoffset: 0; stroke: #9467bd; stroke-width: 0.2"/>
    </g>
    <g id="text_30">
     <!-- 14 -->
     <g transform="translate(459.848438 220.172031) scale(0.07 -0.07)">
      <use xlink:href="#DejaVuSans-31"/>
      <use xlink:href="#DejaVuSans-34" x="63.623047"/>
     </g>
    </g>
    <g id="line2d_43">
     <path d="M 440.248438 227.996719 
L 447.248438 227.996719 
L 454.248438 227.996719 
" style="fill: none; stroke-dasharray: 0.74,0.32; stroke-dashoffset: 0; stroke: #8c564b; stroke-width: 0.2"/>
    </g>
    <g id="text_31">
     <!-- 15 -->
     <g transform="translate(459.848438 230.446719) scale(0.07 -0.07)">
      <use xlink:href="#DejaVuSans-31"/>
      <use xlink:href="#DejaVuSans-35" x="63.623047"/>
     </g>
    </g>
    <g id="line2d_44">
     <path d="M 440.248438 238.271406 
L 447.248438 238.271406 
L 454.248438 238.271406 
" style="fill: none; stroke-dasharray: 0.74,0.32; stroke-dashoffset: 0; stroke: #e377c2; stroke-width: 0.2"/>
    </g>
    <g id="text_32">
     <!-- 16 -->
     <g transform="translate(459.848438 240.721406) scale(0.07 -0.07)">
      <use xlink:href="#DejaVuSans-31"/>
      <use xlink:href="#DejaVuSans-36" x="63.623047"/>
     </g>
    </g>
    <g id="line2d_45">
     <path d="M 440.248438 248.546094 
L 447.248438 248.546094 
L 454.248438 248.546094 
" style="fill: none; stroke-dasharray: 0.74,0.32; stroke-dashoffset: 0; stroke: #7f7f7f; stroke-width: 0.2"/>
    </g>
    <g id="text_33">
     <!-- 17 -->
     <g transform="translate(459.848438 250.996094) scale(0.07 -0.07)">
      <use xlink:href="#DejaVuSans-31"/>
      <use xlink:href="#DejaVuSans-37" x="63.623047"/>
     </g>
    </g>
    <g id="line2d_46">
     <path d="M 440.248438 258.820781 
L 447.248438 258.820781 
L 454.248438 258.820781 
" style="fill: none; stroke-dasharray: 0.74,0.32; stroke-dashoffset: 0; stroke: #bcbd22; stroke-width: 0.2"/>
    </g>
    <g id="text_34">
     <!-- 18 -->
     <g transform="translate(459.848438 261.270781) scale(0.07 -0.07)">
      <use xlink:href="#DejaVuSans-31"/>
      <use xlink:href="#DejaVuSans-38" x="63.623047"/>
     </g>
    </g>
    <g id="line2d_47">
     <path d="M 440.248438 269.095469 
L 447.248438 269.095469 
L 454.248438 269.095469 
" style="fill: none; stroke-dasharray: 0.74,0.32; stroke-dashoffset: 0; stroke: #17becf; stroke-width: 0.2"/>
    </g>
    <g id="text_35">
     <!-- 19 -->
     <g transform="translate(459.848438 271.545469) scale(0.07 -0.07)">
      <use xlink:href="#DejaVuSans-31"/>
      <use xlink:href="#DejaVuSans-39" x="63.623047"/>
     </g>
    </g>
    <g id="line2d_48">
     <path d="M 440.248438 279.370156 
L 447.248438 279.370156 
L 454.248438 279.370156 
" style="fill: none; stroke-dasharray: 0.74,0.32; stroke-dashoffset: 0; stroke: #1f77b4; stroke-width: 0.2"/>
    </g>
    <g id="text_36">
     <!-- 20 -->
     <g transform="translate(459.848438 281.820156) scale(0.07 -0.07)">
      <use xlink:href="#DejaVuSans-32"/>
      <use xlink:href="#DejaVuSans-30" x="63.623047"/>
     </g>
    </g>
    <g id="line2d_49">
     <path d="M 440.248438 289.644844 
L 447.248438 289.644844 
L 454.248438 289.644844 
" style="fill: none; stroke-dasharray: 0.74,0.32; stroke-dashoffset: 0; stroke: #ff7f0e; stroke-width: 0.2"/>
    </g>
    <g id="text_37">
     <!-- 21 -->
     <g transform="translate(459.848438 292.094844) scale(0.07 -0.07)">
      <use xlink:href="#DejaVuSans-32"/>
      <use xlink:href="#DejaVuSans-31" x="63.623047"/>
     </g>
    </g>
    <g id="line2d_50">
     <path d="M 440.248438 299.919531 
L 447.248438 299.919531 
L 454.248438 299.919531 
" style="fill: none; stroke: #ffa500; stroke-width: 0.5; stroke-linecap: square"/>
    </g>
    <g id="text_38">
     <!-- 22 -->
     <g transform="translate(459.848438 302.369531) scale(0.07 -0.07)">
      <use xlink:href="#DejaVuSans-32"/>
      <use xlink:href="#DejaVuSans-32" x="63.623047"/>
     </g>
    </g>
    <g id="line2d_51">
     <path d="M 440.248438 310.194219 
L 447.248438 310.194219 
L 454.248438 310.194219 
" style="fill: none; stroke: #ff0000; stroke-width: 0.5; stroke-linecap: square"/>
    </g>
    <g id="text_39">
     <!-- 23 -->
     <g transform="translate(459.848438 312.644219) scale(0.07 -0.07)">
      <use xlink:href="#DejaVuSans-32"/>
      <use xlink:href="#DejaVuSans-33" x="63.623047"/>
     </g>
    </g>
   </g>
  </g>
 </g>
 <defs>
  <clipPath id="p3bb6590efc">
   <rect x="67.5" y="43.2" width="418.5" height="277.2"/>
  </clipPath>
 </defs>
</svg>
