<?xml version="1.0" encoding="utf-8" standalone="no"?>
<!DOCTYPE svg PUBLIC "-//W3C//DTD SVG 1.1//EN"
  "http://www.w3.org/Graphics/SVG/1.1/DTD/svg11.dtd">
<svg xmlns:xlink="http://www.w3.org/1999/xlink" width="540pt" height="360pt" viewBox="0 0 540 360" xmlns="http://www.w3.org/2000/svg" version="1.1">
 <metadata>
  <rdf:RDF xmlns:dc="http://purl.org/dc/elements/1.1/" xmlns:cc="http://creativecommons.org/ns#" xmlns:rdf="http://www.w3.org/1999/02/22-rdf-syntax-ns#">
   <cc:Work>
    <dc:type rdf:resource="http://purl.org/dc/dcmitype/StillImage"/>
    <dc:date>2023-09-07T02:02:54.120516</dc:date>
    <dc:format>image/svg+xml</dc:format>
    <dc:creator>
     <cc:Agent>
      <dc:title>Matplotlib v3.7.1, https://matplotlib.org/</dc:title>
     </cc:Agent>
    </dc:creator>
   </cc:Work>
  </rdf:RDF>
 </metadata>
 <defs>
  <style type="text/css">*{stroke-linejoin: round; stroke-linecap: butt}</style>
 </defs>
 <g id="figure_1">
  <g id="patch_1">
   <path d="M 0 360 
L 540 360 
L 540 0 
L 0 0 
z
" style="fill: #ffffff"/>
  </g>
  <g id="axes_1">
   <g id="patch_2">
    <path d="M 67.5 320.4 
L 486 320.4 
L 486 43.2 
L 67.5 43.2 
z
" style="fill: #ffffff"/>
   </g>
   <g id="PolyCollection_1">
    <defs>
     <path id="m599243f4b1" d="M 100.846614 -259.273244 
L 100.846614 -241.786747 
L 134.193227 -238.105837 
L 167.539841 -234.484713 
L 200.886454 -228.955645 
L 234.233068 -221.503467 
L 267.579681 -214.103835 
L 300.926295 -211.319227 
L 334.272908 -209.428277 
L 367.619522 -221.668143 
L 400.966135 -253.93298 
L 434.312749 -253.635873 
L 467.659363 -249.213087 
L 467.659363 -266.699584 
L 467.659363 -266.699584 
L 434.312749 -271.122371 
L 400.966135 -271.419477 
L 367.619522 -239.15464 
L 334.272908 -226.914774 
L 300.926295 -228.805724 
L 267.579681 -231.590332 
L 234.233068 -238.989964 
L 200.886454 -246.442143 
L 167.539841 -251.971211 
L 134.193227 -255.592334 
L 100.846614 -259.273244 
z
" style="stroke: #006400; stroke-opacity: 0.1"/>
    </defs>
    <g clip-path="url(#paf700b1806)">
     <use xlink:href="#m599243f4b1" x="0" y="360" style="fill: #006400; fill-opacity: 0.1; stroke: #006400; stroke-opacity: 0.1"/>
    </g>
   </g>
   <g id="matplotlib.axis_1">
    <g id="xtick_1">
     <g id="line2d_1">
      <defs>
       <path id="m44195f3d67" d="M 0 0 
L 0 3.5 
" style="stroke: #000000; stroke-width: 0.8"/>
      </defs>
      <g>
       <use xlink:href="#m44195f3d67" x="67.5" y="320.4" style="stroke: #000000; stroke-width: 0.8"/>
      </g>
     </g>
     <g id="text_1">
      <!-- 0 -->
      <g transform="translate(69.431562 331.85375) rotate(-90) scale(0.07 -0.07)">
       <defs>
        <path id="DejaVuSans-30" d="M 2034 4250 
Q 1547 4250 1301 3770 
Q 1056 3291 1056 2328 
Q 1056 1369 1301 889 
Q 1547 409 2034 409 
Q 2525 409 2770 889 
Q 3016 1369 3016 2328 
Q 3016 3291 2770 3770 
Q 2525 4250 2034 4250 
z
M 2034 4750 
Q 2819 4750 3233 4129 
Q 3647 3509 3647 2328 
Q 3647 1150 3233 529 
Q 2819 -91 2034 -91 
Q 1250 -91 836 529 
Q 422 1150 422 2328 
Q 422 3509 836 4129 
Q 1250 4750 2034 4750 
z
" transform="scale(0.015625)"/>
       </defs>
       <use xlink:href="#DejaVuSans-30"/>
      </g>
     </g>
    </g>
    <g id="xtick_2">
     <g id="line2d_2">
      <g>
       <use xlink:href="#m44195f3d67" x="100.846614" y="320.4" style="stroke: #000000; stroke-width: 0.8"/>
      </g>
     </g>
     <g id="text_2">
      <!-- 1 -->
      <g transform="translate(102.778176 331.85375) rotate(-90) scale(0.07 -0.07)">
       <defs>
        <path id="DejaVuSans-31" d="M 794 531 
L 1825 531 
L 1825 4091 
L 703 3866 
L 703 4441 
L 1819 4666 
L 2450 4666 
L 2450 531 
L 3481 531 
L 3481 0 
L 794 0 
L 794 531 
z
" transform="scale(0.015625)"/>
       </defs>
       <use xlink:href="#DejaVuSans-31"/>
      </g>
     </g>
    </g>
    <g id="xtick_3">
     <g id="line2d_3">
      <g>
       <use xlink:href="#m44195f3d67" x="134.193227" y="320.4" style="stroke: #000000; stroke-width: 0.8"/>
      </g>
     </g>
     <g id="text_3">
      <!-- 2 -->
      <g transform="translate(136.12479 331.85375) rotate(-90) scale(0.07 -0.07)">
       <defs>
        <path id="DejaVuSans-32" d="M 1228 531 
L 3431 531 
L 3431 0 
L 469 0 
L 469 531 
Q 828 903 1448 1529 
Q 2069 2156 2228 2338 
Q 2531 2678 2651 2914 
Q 2772 3150 2772 3378 
Q 2772 3750 2511 3984 
Q 2250 4219 1831 4219 
Q 1534 4219 1204 4116 
Q 875 4013 500 3803 
L 500 4441 
Q 881 4594 1212 4672 
Q 1544 4750 1819 4750 
Q 2544 4750 2975 4387 
Q 3406 4025 3406 3419 
Q 3406 3131 3298 2873 
Q 3191 2616 2906 2266 
Q 2828 2175 2409 1742 
Q 1991 1309 1228 531 
z
" transform="scale(0.015625)"/>
       </defs>
       <use xlink:href="#DejaVuSans-32"/>
      </g>
     </g>
    </g>
    <g id="xtick_4">
     <g id="line2d_4">
      <g>
       <use xlink:href="#m44195f3d67" x="167.539841" y="320.4" style="stroke: #000000; stroke-width: 0.8"/>
      </g>
     </g>
     <g id="text_4">
      <!-- 3 -->
      <g transform="translate(169.471403 331.85375) rotate(-90) scale(0.07 -0.07)">
       <defs>
        <path id="DejaVuSans-33" d="M 2597 2516 
Q 3050 2419 3304 2112 
Q 3559 1806 3559 1356 
Q 3559 666 3084 287 
Q 2609 -91 1734 -91 
Q 1441 -91 1130 -33 
Q 819 25 488 141 
L 488 750 
Q 750 597 1062 519 
Q 1375 441 1716 441 
Q 2309 441 2620 675 
Q 2931 909 2931 1356 
Q 2931 1769 2642 2001 
Q 2353 2234 1838 2234 
L 1294 2234 
L 1294 2753 
L 1863 2753 
Q 2328 2753 2575 2939 
Q 2822 3125 2822 3475 
Q 2822 3834 2567 4026 
Q 2313 4219 1838 4219 
Q 1578 4219 1281 4162 
Q 984 4106 628 3988 
L 628 4550 
Q 988 4650 1302 4700 
Q 1616 4750 1894 4750 
Q 2613 4750 3031 4423 
Q 3450 4097 3450 3541 
Q 3450 3153 3228 2886 
Q 3006 2619 2597 2516 
z
" transform="scale(0.015625)"/>
       </defs>
       <use xlink:href="#DejaVuSans-33"/>
      </g>
     </g>
    </g>
    <g id="xtick_5">
     <g id="line2d_5">
      <g>
       <use xlink:href="#m44195f3d67" x="200.886454" y="320.4" style="stroke: #000000; stroke-width: 0.8"/>
      </g>
     </g>
     <g id="text_5">
      <!-- 4 -->
      <g transform="translate(202.818017 331.85375) rotate(-90) scale(0.07 -0.07)">
       <defs>
        <path id="DejaVuSans-34" d="M 2419 4116 
L 825 1625 
L 2419 1625 
L 2419 4116 
z
M 2253 4666 
L 3047 4666 
L 3047 1625 
L 3713 1625 
L 3713 1100 
L 3047 1100 
L 3047 0 
L 2419 0 
L 2419 1100 
L 313 1100 
L 313 1709 
L 2253 4666 
z
" transform="scale(0.015625)"/>
       </defs>
       <use xlink:href="#DejaVuSans-34"/>
      </g>
     </g>
    </g>
    <g id="xtick_6">
     <g id="line2d_6">
      <g>
       <use xlink:href="#m44195f3d67" x="234.233068" y="320.4" style="stroke: #000000; stroke-width: 0.8"/>
      </g>
     </g>
     <g id="text_6">
      <!-- 5 -->
      <g transform="translate(236.16463 331.85375) rotate(-90) scale(0.07 -0.07)">
       <defs>
        <path id="DejaVuSans-35" d="M 691 4666 
L 3169 4666 
L 3169 4134 
L 1269 4134 
L 1269 2991 
Q 1406 3038 1543 3061 
Q 1681 3084 1819 3084 
Q 2600 3084 3056 2656 
Q 3513 2228 3513 1497 
Q 3513 744 3044 326 
Q 2575 -91 1722 -91 
Q 1428 -91 1123 -41 
Q 819 9 494 109 
L 494 744 
Q 775 591 1075 516 
Q 1375 441 1709 441 
Q 2250 441 2565 725 
Q 2881 1009 2881 1497 
Q 2881 1984 2565 2268 
Q 2250 2553 1709 2553 
Q 1456 2553 1204 2497 
Q 953 2441 691 2322 
L 691 4666 
z
" transform="scale(0.015625)"/>
       </defs>
       <use xlink:href="#DejaVuSans-35"/>
      </g>
     </g>
    </g>
    <g id="xtick_7">
     <g id="line2d_7">
      <g>
       <use xlink:href="#m44195f3d67" x="267.579681" y="320.4" style="stroke: #000000; stroke-width: 0.8"/>
      </g>
     </g>
     <g id="text_7">
      <!-- 6 -->
      <g transform="translate(269.511244 331.85375) rotate(-90) scale(0.07 -0.07)">
       <defs>
        <path id="DejaVuSans-36" d="M 2113 2584 
Q 1688 2584 1439 2293 
Q 1191 2003 1191 1497 
Q 1191 994 1439 701 
Q 1688 409 2113 409 
Q 2538 409 2786 701 
Q 3034 994 3034 1497 
Q 3034 2003 2786 2293 
Q 2538 2584 2113 2584 
z
M 3366 4563 
L 3366 3988 
Q 3128 4100 2886 4159 
Q 2644 4219 2406 4219 
Q 1781 4219 1451 3797 
Q 1122 3375 1075 2522 
Q 1259 2794 1537 2939 
Q 1816 3084 2150 3084 
Q 2853 3084 3261 2657 
Q 3669 2231 3669 1497 
Q 3669 778 3244 343 
Q 2819 -91 2113 -91 
Q 1303 -91 875 529 
Q 447 1150 447 2328 
Q 447 3434 972 4092 
Q 1497 4750 2381 4750 
Q 2619 4750 2861 4703 
Q 3103 4656 3366 4563 
z
" transform="scale(0.015625)"/>
       </defs>
       <use xlink:href="#DejaVuSans-36"/>
      </g>
     </g>
    </g>
    <g id="xtick_8">
     <g id="line2d_8">
      <g>
       <use xlink:href="#m44195f3d67" x="300.926295" y="320.4" style="stroke: #000000; stroke-width: 0.8"/>
      </g>
     </g>
     <g id="text_8">
      <!-- 7 -->
      <g transform="translate(302.857857 331.85375) rotate(-90) scale(0.07 -0.07)">
       <defs>
        <path id="DejaVuSans-37" d="M 525 4666 
L 3525 4666 
L 3525 4397 
L 1831 0 
L 1172 0 
L 2766 4134 
L 525 4134 
L 525 4666 
z
" transform="scale(0.015625)"/>
       </defs>
       <use xlink:href="#DejaVuSans-37"/>
      </g>
     </g>
    </g>
    <g id="xtick_9">
     <g id="line2d_9">
      <g>
       <use xlink:href="#m44195f3d67" x="334.272908" y="320.4" style="stroke: #000000; stroke-width: 0.8"/>
      </g>
     </g>
     <g id="text_9">
      <!-- 8 -->
      <g transform="translate(336.204471 331.85375) rotate(-90) scale(0.07 -0.07)">
       <defs>
        <path id="DejaVuSans-38" d="M 2034 2216 
Q 1584 2216 1326 1975 
Q 1069 1734 1069 1313 
Q 1069 891 1326 650 
Q 1584 409 2034 409 
Q 2484 409 2743 651 
Q 3003 894 3003 1313 
Q 3003 1734 2745 1975 
Q 2488 2216 2034 2216 
z
M 1403 2484 
Q 997 2584 770 2862 
Q 544 3141 544 3541 
Q 544 4100 942 4425 
Q 1341 4750 2034 4750 
Q 2731 4750 3128 4425 
Q 3525 4100 3525 3541 
Q 3525 3141 3298 2862 
Q 3072 2584 2669 2484 
Q 3125 2378 3379 2068 
Q 3634 1759 3634 1313 
Q 3634 634 3220 271 
Q 2806 -91 2034 -91 
Q 1263 -91 848 271 
Q 434 634 434 1313 
Q 434 1759 690 2068 
Q 947 2378 1403 2484 
z
M 1172 3481 
Q 1172 3119 1398 2916 
Q 1625 2713 2034 2713 
Q 2441 2713 2670 2916 
Q 2900 3119 2900 3481 
Q 2900 3844 2670 4047 
Q 2441 4250 2034 4250 
Q 1625 4250 1398 4047 
Q 1172 3844 1172 3481 
z
" transform="scale(0.015625)"/>
       </defs>
       <use xlink:href="#DejaVuSans-38"/>
      </g>
     </g>
    </g>
    <g id="xtick_10">
     <g id="line2d_10">
      <g>
       <use xlink:href="#m44195f3d67" x="367.619522" y="320.4" style="stroke: #000000; stroke-width: 0.8"/>
      </g>
     </g>
     <g id="text_10">
      <!-- 9 -->
      <g transform="translate(369.551084 331.85375) rotate(-90) scale(0.07 -0.07)">
       <defs>
        <path id="DejaVuSans-39" d="M 703 97 
L 703 672 
Q 941 559 1184 500 
Q 1428 441 1663 441 
Q 2288 441 2617 861 
Q 2947 1281 2994 2138 
Q 2813 1869 2534 1725 
Q 2256 1581 1919 1581 
Q 1219 1581 811 2004 
Q 403 2428 403 3163 
Q 403 3881 828 4315 
Q 1253 4750 1959 4750 
Q 2769 4750 3195 4129 
Q 3622 3509 3622 2328 
Q 3622 1225 3098 567 
Q 2575 -91 1691 -91 
Q 1453 -91 1209 -44 
Q 966 3 703 97 
z
M 1959 2075 
Q 2384 2075 2632 2365 
Q 2881 2656 2881 3163 
Q 2881 3666 2632 3958 
Q 2384 4250 1959 4250 
Q 1534 4250 1286 3958 
Q 1038 3666 1038 3163 
Q 1038 2656 1286 2365 
Q 1534 2075 1959 2075 
z
" transform="scale(0.015625)"/>
       </defs>
       <use xlink:href="#DejaVuSans-39"/>
      </g>
     </g>
    </g>
    <g id="xtick_11">
     <g id="line2d_11">
      <g>
       <use xlink:href="#m44195f3d67" x="400.966135" y="320.4" style="stroke: #000000; stroke-width: 0.8"/>
      </g>
     </g>
     <g id="text_11">
      <!-- 10 -->
      <g transform="translate(402.897698 336.3075) rotate(-90) scale(0.07 -0.07)">
       <use xlink:href="#DejaVuSans-31"/>
       <use xlink:href="#DejaVuSans-30" x="63.623047"/>
      </g>
     </g>
    </g>
    <g id="xtick_12">
     <g id="line2d_12">
      <g>
       <use xlink:href="#m44195f3d67" x="434.312749" y="320.4" style="stroke: #000000; stroke-width: 0.8"/>
      </g>
     </g>
     <g id="text_12">
      <!-- 11 -->
      <g transform="translate(436.244312 336.3075) rotate(-90) scale(0.07 -0.07)">
       <use xlink:href="#DejaVuSans-31"/>
       <use xlink:href="#DejaVuSans-31" x="63.623047"/>
      </g>
     </g>
    </g>
    <g id="xtick_13">
     <g id="line2d_13">
      <g>
       <use xlink:href="#m44195f3d67" x="467.659363" y="320.4" style="stroke: #000000; stroke-width: 0.8"/>
      </g>
     </g>
     <g id="text_13">
      <!-- 12 -->
      <g transform="translate(469.590925 336.3075) rotate(-90) scale(0.07 -0.07)">
       <use xlink:href="#DejaVuSans-31"/>
       <use xlink:href="#DejaVuSans-32" x="63.623047"/>
      </g>
     </g>
    </g>
    <g id="text_14">
     <!-- Month -->
     <g transform="translate(261.078906 347.905937) scale(0.1 -0.1)">
      <defs>
       <path id="DejaVuSans-4d" d="M 628 4666 
L 1569 4666 
L 2759 1491 
L 3956 4666 
L 4897 4666 
L 4897 0 
L 4281 0 
L 4281 4097 
L 3078 897 
L 2444 897 
L 1241 4097 
L 1241 0 
L 628 0 
L 628 4666 
z
" transform="scale(0.015625)"/>
       <path id="DejaVuSans-6f" d="M 1959 3097 
Q 1497 3097 1228 2736 
Q 959 2375 959 1747 
Q 959 1119 1226 758 
Q 1494 397 1959 397 
Q 2419 397 2687 759 
Q 2956 1122 2956 1747 
Q 2956 2369 2687 2733 
Q 2419 3097 1959 3097 
z
M 1959 3584 
Q 2709 3584 3137 3096 
Q 3566 2609 3566 1747 
Q 3566 888 3137 398 
Q 2709 -91 1959 -91 
Q 1206 -91 779 398 
Q 353 888 353 1747 
Q 353 2609 779 3096 
Q 1206 3584 1959 3584 
z
" transform="scale(0.015625)"/>
       <path id="DejaVuSans-6e" d="M 3513 2113 
L 3513 0 
L 2938 0 
L 2938 2094 
Q 2938 2591 2744 2837 
Q 2550 3084 2163 3084 
Q 1697 3084 1428 2787 
Q 1159 2491 1159 1978 
L 1159 0 
L 581 0 
L 581 3500 
L 1159 3500 
L 1159 2956 
Q 1366 3272 1645 3428 
Q 1925 3584 2291 3584 
Q 2894 3584 3203 3211 
Q 3513 2838 3513 2113 
z
" transform="scale(0.015625)"/>
       <path id="DejaVuSans-74" d="M 1172 4494 
L 1172 3500 
L 2356 3500 
L 2356 3053 
L 1172 3053 
L 1172 1153 
Q 1172 725 1289 603 
Q 1406 481 1766 481 
L 2356 481 
L 2356 0 
L 1766 0 
Q 1100 0 847 248 
Q 594 497 594 1153 
L 594 3053 
L 172 3053 
L 172 3500 
L 594 3500 
L 594 4494 
L 1172 4494 
z
" transform="scale(0.015625)"/>
       <path id="DejaVuSans-68" d="M 3513 2113 
L 3513 0 
L 2938 0 
L 2938 2094 
Q 2938 2591 2744 2837 
Q 2550 3084 2163 3084 
Q 1697 3084 1428 2787 
Q 1159 2491 1159 1978 
L 1159 0 
L 581 0 
L 581 4863 
L 1159 4863 
L 1159 2956 
Q 1366 3272 1645 3428 
Q 1925 3584 2291 3584 
Q 2894 3584 3203 3211 
Q 3513 2838 3513 2113 
z
" transform="scale(0.015625)"/>
      </defs>
      <use xlink:href="#DejaVuSans-4d"/>
      <use xlink:href="#DejaVuSans-6f" x="86.279297"/>
      <use xlink:href="#DejaVuSans-6e" x="147.460938"/>
      <use xlink:href="#DejaVuSans-74" x="210.839844"/>
      <use xlink:href="#DejaVuSans-68" x="250.048828"/>
     </g>
    </g>
   </g>
   <g id="matplotlib.axis_2">
    <g id="ytick_1">
     <g id="line2d_14">
      <defs>
       <path id="m2a78b04592" d="M 0 0 
L -3.5 0 
" style="stroke: #000000; stroke-width: 0.8"/>
      </defs>
      <g>
       <use xlink:href="#m2a78b04592" x="67.5" y="292.579462" style="stroke: #000000; stroke-width: 0.8"/>
      </g>
     </g>
     <g id="text_15">
      <!-- 5 -->
      <g transform="translate(56.04625 295.238915) scale(0.07 -0.07)">
       <use xlink:href="#DejaVuSans-35"/>
      </g>
     </g>
    </g>
    <g id="ytick_2">
     <g id="line2d_15">
      <g>
       <use xlink:href="#m2a78b04592" x="67.5" y="256.255986" style="stroke: #000000; stroke-width: 0.8"/>
      </g>
     </g>
     <g id="text_16">
      <!-- 10 -->
      <g transform="translate(51.5925 258.915439) scale(0.07 -0.07)">
       <use xlink:href="#DejaVuSans-31"/>
       <use xlink:href="#DejaVuSans-30" x="63.623047"/>
      </g>
     </g>
    </g>
    <g id="ytick_3">
     <g id="line2d_16">
      <g>
       <use xlink:href="#m2a78b04592" x="67.5" y="219.93251" style="stroke: #000000; stroke-width: 0.8"/>
      </g>
     </g>
     <g id="text_17">
      <!-- 15 -->
      <g transform="translate(51.5925 222.591963) scale(0.07 -0.07)">
       <use xlink:href="#DejaVuSans-31"/>
       <use xlink:href="#DejaVuSans-35" x="63.623047"/>
      </g>
     </g>
    </g>
    <g id="ytick_4">
     <g id="line2d_17">
      <g>
       <use xlink:href="#m2a78b04592" x="67.5" y="183.609034" style="stroke: #000000; stroke-width: 0.8"/>
      </g>
     </g>
     <g id="text_18">
      <!-- 20 -->
      <g transform="translate(51.5925 186.268487) scale(0.07 -0.07)">
       <use xlink:href="#DejaVuSans-32"/>
       <use xlink:href="#DejaVuSans-30" x="63.623047"/>
      </g>
     </g>
    </g>
    <g id="ytick_5">
     <g id="line2d_18">
      <g>
       <use xlink:href="#m2a78b04592" x="67.5" y="147.285559" style="stroke: #000000; stroke-width: 0.8"/>
      </g>
     </g>
     <g id="text_19">
      <!-- 25 -->
      <g transform="translate(51.5925 149.945012) scale(0.07 -0.07)">
       <use xlink:href="#DejaVuSans-32"/>
       <use xlink:href="#DejaVuSans-35" x="63.623047"/>
      </g>
     </g>
    </g>
    <g id="ytick_6">
     <g id="line2d_19">
      <g>
       <use xlink:href="#m2a78b04592" x="67.5" y="110.962083" style="stroke: #000000; stroke-width: 0.8"/>
      </g>
     </g>
     <g id="text_20">
      <!-- 30 -->
      <g transform="translate(51.5925 113.621536) scale(0.07 -0.07)">
       <use xlink:href="#DejaVuSans-33"/>
       <use xlink:href="#DejaVuSans-30" x="63.623047"/>
      </g>
     </g>
    </g>
    <g id="ytick_7">
     <g id="line2d_20">
      <g>
       <use xlink:href="#m2a78b04592" x="67.5" y="74.638607" style="stroke: #000000; stroke-width: 0.8"/>
      </g>
     </g>
     <g id="text_21">
      <!-- 35 -->
      <g transform="translate(51.5925 77.29806) scale(0.07 -0.07)">
       <use xlink:href="#DejaVuSans-33"/>
       <use xlink:href="#DejaVuSans-35" x="63.623047"/>
      </g>
     </g>
    </g>
    <g id="text_22">
     <!-- almacenaactual (hm3) -->
     <g transform="translate(45.512812 238.352344) rotate(-90) scale(0.1 -0.1)">
      <defs>
       <path id="DejaVuSans-61" d="M 2194 1759 
Q 1497 1759 1228 1600 
Q 959 1441 959 1056 
Q 959 750 1161 570 
Q 1363 391 1709 391 
Q 2188 391 2477 730 
Q 2766 1069 2766 1631 
L 2766 1759 
L 2194 1759 
z
M 3341 1997 
L 3341 0 
L 2766 0 
L 2766 531 
Q 2569 213 2275 61 
Q 1981 -91 1556 -91 
Q 1019 -91 701 211 
Q 384 513 384 1019 
Q 384 1609 779 1909 
Q 1175 2209 1959 2209 
L 2766 2209 
L 2766 2266 
Q 2766 2663 2505 2880 
Q 2244 3097 1772 3097 
Q 1472 3097 1187 3025 
Q 903 2953 641 2809 
L 641 3341 
Q 956 3463 1253 3523 
Q 1550 3584 1831 3584 
Q 2591 3584 2966 3190 
Q 3341 2797 3341 1997 
z
" transform="scale(0.015625)"/>
       <path id="DejaVuSans-6c" d="M 603 4863 
L 1178 4863 
L 1178 0 
L 603 0 
L 603 4863 
z
" transform="scale(0.015625)"/>
       <path id="DejaVuSans-6d" d="M 3328 2828 
Q 3544 3216 3844 3400 
Q 4144 3584 4550 3584 
Q 5097 3584 5394 3201 
Q 5691 2819 5691 2113 
L 5691 0 
L 5113 0 
L 5113 2094 
Q 5113 2597 4934 2840 
Q 4756 3084 4391 3084 
Q 3944 3084 3684 2787 
Q 3425 2491 3425 1978 
L 3425 0 
L 2847 0 
L 2847 2094 
Q 2847 2600 2669 2842 
Q 2491 3084 2119 3084 
Q 1678 3084 1418 2786 
Q 1159 2488 1159 1978 
L 1159 0 
L 581 0 
L 581 3500 
L 1159 3500 
L 1159 2956 
Q 1356 3278 1631 3431 
Q 1906 3584 2284 3584 
Q 2666 3584 2933 3390 
Q 3200 3197 3328 2828 
z
" transform="scale(0.015625)"/>
       <path id="DejaVuSans-63" d="M 3122 3366 
L 3122 2828 
Q 2878 2963 2633 3030 
Q 2388 3097 2138 3097 
Q 1578 3097 1268 2742 
Q 959 2388 959 1747 
Q 959 1106 1268 751 
Q 1578 397 2138 397 
Q 2388 397 2633 464 
Q 2878 531 3122 666 
L 3122 134 
Q 2881 22 2623 -34 
Q 2366 -91 2075 -91 
Q 1284 -91 818 406 
Q 353 903 353 1747 
Q 353 2603 823 3093 
Q 1294 3584 2113 3584 
Q 2378 3584 2631 3529 
Q 2884 3475 3122 3366 
z
" transform="scale(0.015625)"/>
       <path id="DejaVuSans-65" d="M 3597 1894 
L 3597 1613 
L 953 1613 
Q 991 1019 1311 708 
Q 1631 397 2203 397 
Q 2534 397 2845 478 
Q 3156 559 3463 722 
L 3463 178 
Q 3153 47 2828 -22 
Q 2503 -91 2169 -91 
Q 1331 -91 842 396 
Q 353 884 353 1716 
Q 353 2575 817 3079 
Q 1281 3584 2069 3584 
Q 2775 3584 3186 3129 
Q 3597 2675 3597 1894 
z
M 3022 2063 
Q 3016 2534 2758 2815 
Q 2500 3097 2075 3097 
Q 1594 3097 1305 2825 
Q 1016 2553 972 2059 
L 3022 2063 
z
" transform="scale(0.015625)"/>
       <path id="DejaVuSans-75" d="M 544 1381 
L 544 3500 
L 1119 3500 
L 1119 1403 
Q 1119 906 1312 657 
Q 1506 409 1894 409 
Q 2359 409 2629 706 
Q 2900 1003 2900 1516 
L 2900 3500 
L 3475 3500 
L 3475 0 
L 2900 0 
L 2900 538 
Q 2691 219 2414 64 
Q 2138 -91 1772 -91 
Q 1169 -91 856 284 
Q 544 659 544 1381 
z
M 1991 3584 
L 1991 3584 
z
" transform="scale(0.015625)"/>
       <path id="DejaVuSans-20" transform="scale(0.015625)"/>
       <path id="DejaVuSans-28" d="M 1984 4856 
Q 1566 4138 1362 3434 
Q 1159 2731 1159 2009 
Q 1159 1288 1364 580 
Q 1569 -128 1984 -844 
L 1484 -844 
Q 1016 -109 783 600 
Q 550 1309 550 2009 
Q 550 2706 781 3412 
Q 1013 4119 1484 4856 
L 1984 4856 
z
" transform="scale(0.015625)"/>
       <path id="DejaVuSans-29" d="M 513 4856 
L 1013 4856 
Q 1481 4119 1714 3412 
Q 1947 2706 1947 2009 
Q 1947 1309 1714 600 
Q 1481 -109 1013 -844 
L 513 -844 
Q 928 -128 1133 580 
Q 1338 1288 1338 2009 
Q 1338 2731 1133 3434 
Q 928 4138 513 4856 
z
" transform="scale(0.015625)"/>
      </defs>
      <use xlink:href="#DejaVuSans-61"/>
      <use xlink:href="#DejaVuSans-6c" x="61.279297"/>
      <use xlink:href="#DejaVuSans-6d" x="89.0625"/>
      <use xlink:href="#DejaVuSans-61" x="186.474609"/>
      <use xlink:href="#DejaVuSans-63" x="247.753906"/>
      <use xlink:href="#DejaVuSans-65" x="302.734375"/>
      <use xlink:href="#DejaVuSans-6e" x="364.257812"/>
      <use xlink:href="#DejaVuSans-61" x="427.636719"/>
      <use xlink:href="#DejaVuSans-61" x="488.916016"/>
      <use xlink:href="#DejaVuSans-63" x="550.195312"/>
      <use xlink:href="#DejaVuSans-74" x="605.175781"/>
      <use xlink:href="#DejaVuSans-75" x="644.384766"/>
      <use xlink:href="#DejaVuSans-61" x="707.763672"/>
      <use xlink:href="#DejaVuSans-6c" x="769.042969"/>
      <use xlink:href="#DejaVuSans-20" x="796.826172"/>
      <use xlink:href="#DejaVuSans-28" x="828.613281"/>
      <use xlink:href="#DejaVuSans-68" x="867.626953"/>
      <use xlink:href="#DejaVuSans-6d" x="931.005859"/>
      <use xlink:href="#DejaVuSans-33" x="1028.417969"/>
      <use xlink:href="#DejaVuSans-29" x="1092.041016"/>
     </g>
    </g>
   </g>
   <g id="line2d_21">
    <path d="M 100.846614 109.470005 
L 134.193227 113.150915 
L 167.539841 116.772038 
L 200.886454 122.301106 
L 234.233068 129.753284 
L 267.579681 137.152917 
L 300.926295 139.937524 
L 334.272908 141.828474 
L 367.619522 129.588608 
L 400.966135 97.323772 
L 434.312749 97.620878 
L 467.659363 102.043665 
" clip-path="url(#paf700b1806)" style="fill: none; stroke: #006400; stroke-width: 1.5; stroke-linecap: square"/>
   </g>
   <g id="line2d_22">
    <path d="M 100.846614 126.802868 
L 134.193227 145.042221 
L 167.539841 132.551062 
L 200.886454 108.240157 
L 234.233068 108.247422 
L 267.579681 125.268773 
L 300.926295 103.883013 
L 334.272908 105.201439 
L 367.619522 103.744984 
L 400.966135 70.883797 
L 434.312749 55.8 
L 467.659363 79.352893 
" clip-path="url(#paf700b1806)" style="fill: none; stroke-dasharray: 0.74,0.32; stroke-dashoffset: 0; stroke: #1f77b4; stroke-width: 0.2"/>
   </g>
   <g id="line2d_23">
    <path d="M 100.846614 100.062888 
L 134.193227 100.838875 
L 167.539841 109.583088 
L 200.886454 120.551749 
L 234.233068 110.517433 
L 267.579681 104.755881 
L 300.926295 93.237034 
L 334.272908 118.580811 
L 367.619522 123.067487 
L 400.966135 116.651736 
L 434.312749 116.034517 
L 467.659363 130.532921 
" clip-path="url(#paf700b1806)" style="fill: none; stroke-dasharray: 0.74,0.32; stroke-dashoffset: 0; stroke: #ff7f0e; stroke-width: 0.2"/>
   </g>
   <g id="line2d_24">
    <path d="M 100.846614 119.033937 
L 134.193227 112.79947 
L 167.539841 111.891495 
L 200.886454 141.713537 
L 234.233068 144.255402 
L 267.579681 147.379128 
L 300.926295 139.052964 
L 334.272908 138.60075 
L 367.619522 168.035271 
L 400.966135 172.489746 
L 434.312749 168.911394 
L 467.659363 155.668498 
" clip-path="url(#paf700b1806)" style="fill: none; stroke-dasharray: 0.74,0.32; stroke-dashoffset: 0; stroke: #2ca02c; stroke-width: 0.2"/>
   </g>
   <g id="line2d_25">
    <path d="M 100.846614 155.794771 
L 134.193227 164.667014 
L 167.539841 173.172262 
L 200.886454 179.322326 
L 234.233068 184.045619 
L 267.579681 190.63633 
L 300.926295 195.44698 
L 334.272908 193.548694 
L 367.619522 139.702255 
L 400.966135 96.342761 
L 434.312749 103.569737 
L 467.659363 93.944777 
" clip-path="url(#paf700b1806)" style="fill: none; stroke-dasharray: 0.74,0.32; stroke-dashoffset: 0; stroke: #d62728; stroke-width: 0.2"/>
   </g>
   <g id="line2d_26">
    <path d="M 100.846614 92.605755 
L 134.193227 105.154901 
L 167.539841 112.755494 
L 200.886454 122.840398 
L 234.233068 130.35431 
L 267.579681 133.737182 
L 300.926295 138.229632 
L 334.272908 122.145064 
L 367.619522 112.601828 
L 400.966135 76.816513 
L 434.312749 75.902083 
L 467.659363 59.957696 
" clip-path="url(#paf700b1806)" style="fill: none; stroke-dasharray: 0.74,0.32; stroke-dashoffset: 0; stroke: #9467bd; stroke-width: 0.2"/>
   </g>
   <g id="line2d_27">
    <path d="M 100.846614 69.931811 
L 134.193227 61.817977 
L 167.539841 61.226043 
L 200.886454 67.27897 
L 234.233068 89.155703 
L 267.579681 100.143875 
L 300.926295 115.399255 
L 334.272908 119.654726 
L 367.619522 107.815432 
L 400.966135 96.260519 
L 434.312749 108.062017 
L 467.659363 104.313849 
" clip-path="url(#paf700b1806)" style="fill: none; stroke-dasharray: 0.74,0.32; stroke-dashoffset: 0; stroke: #8c564b; stroke-width: 0.2"/>
   </g>
   <g id="line2d_28">
    <path d="M 100.846614 101.925286 
L 134.193227 110.923245 
L 167.539841 118.057355 
L 200.886454 111.923175 
L 234.233068 110.394898 
L 267.579681 111.505432 
L 300.926295 127.905867 
L 334.272908 146.091075 
L 367.619522 118.807082 
L 400.966135 90.351141 
L 434.312749 81.141511 
L 467.659363 108.187696 
" clip-path="url(#paf700b1806)" style="fill: none; stroke-dasharray: 0.74,0.32; stroke-dashoffset: 0; stroke: #e377c2; stroke-width: 0.2"/>
   </g>
   <g id="line2d_29">
    <path d="M 100.846614 123.748984 
L 134.193227 125.240003 
L 167.539841 128.142308 
L 200.886454 127.213957 
L 234.233068 165.865837 
L 267.579681 177.798057 
L 300.926295 176.966249 
L 334.272908 180.407898 
L 367.619522 183.070575 
L 400.966135 92.296659 
L 434.312749 99.833377 
L 467.659363 117.683882 
" clip-path="url(#paf700b1806)" style="fill: none; stroke-dasharray: 0.74,0.32; stroke-dashoffset: 0; stroke: #7f7f7f; stroke-width: 0.2"/>
   </g>
   <g id="line2d_30">
    <path d="M 100.846614 129.349833 
L 134.193227 128.928004 
L 167.539841 132.306073 
L 200.886454 141.686435 
L 234.233068 148.476734 
L 267.579681 167.203738 
L 300.926295 175.919634 
L 334.272908 196.707539 
L 367.619522 195.835796 
L 400.966135 79.327382 
L 434.312749 80.886245 
L 467.659363 83.223782 
" clip-path="url(#paf700b1806)" style="fill: none; stroke-dasharray: 0.74,0.32; stroke-dashoffset: 0; stroke: #bcbd22; stroke-width: 0.2"/>
   </g>
   <g id="line2d_31">
    <path d="M 100.846614 87.489593 
L 134.193227 83.524405 
L 167.539841 81.720128 
L 200.886454 82.330574 
L 234.233068 88.38842 
L 267.579681 99.085275 
L 300.926295 119.09439 
L 334.272908 148.671559 
L 367.619522 86.412256 
L 400.966135 85.399235 
L 434.312749 92.176978 
L 467.659363 95.521099 
" clip-path="url(#paf700b1806)" style="fill: none; stroke-dasharray: 0.74,0.32; stroke-dashoffset: 0; stroke: #17becf; stroke-width: 0.2"/>
   </g>
   <g id="line2d_32">
    <path d="M 100.846614 97.424323 
L 134.193227 105.723947 
L 167.539841 123.08711 
L 200.886454 142.21089 
L 234.233068 147.584348 
L 267.579681 151.168413 
L 300.926295 154.17775 
L 334.272908 90.503663 
L 367.619522 86.381727 
L 400.966135 93.742 
L 434.312749 91.511803 
L 467.659363 94.093219 
" clip-path="url(#paf700b1806)" style="fill: none; stroke-dasharray: 0.74,0.32; stroke-dashoffset: 0; stroke: #1f77b4; stroke-width: 0.2"/>
   </g>
   <g id="line2d_33">
    <path d="M 100.846614 100.36935 
L 134.193227 105.143869 
L 167.539841 109.66703 
L 200.886454 114.558833 
L 234.233068 125.365939 
L 267.579681 146.467243 
L 300.926295 132.655539 
L 334.272908 146.248711 
L 367.619522 171.633059 
L 400.966135 183.148853 
L 434.312749 190.339399 
L 467.659363 205.990349 
" clip-path="url(#paf700b1806)" style="fill: none; stroke: #ffff00; stroke-width: 0.5; stroke-linecap: square"/>
   </g>
   <g id="line2d_34">
    <path d="M 100.846614 239.912757 
L 134.193227 269.182031 
L 167.539841 285.726433 
L 200.886454 295.38545 
L 234.233068 299.458644 
L 267.579681 307.707411 
L 300.926295 307.8 
L 334.272908 306.330658 
L 367.619522 156.631589 
L 400.966135 127.494495 
L 434.312749 132.592309 
L 467.659363 140.246069 
" clip-path="url(#paf700b1806)" style="fill: none; stroke: #ffa500; stroke-width: 0.5; stroke-linecap: square"/>
   </g>
   <g id="line2d_35">
    <path d="M 100.846614 147.333039 
L 134.193227 156.127324 
L 167.539841 166.651127 
L 200.886454 174.194269 
L 234.233068 185.041995 
L 267.579681 201.276272 
L 300.926295 228.791546 
L 334.272908 245.871104 
" clip-path="url(#paf700b1806)" style="fill: none; stroke: #ff0000; stroke-width: 0.5; stroke-linecap: square"/>
   </g>
   <g id="patch_3">
    <path d="M 67.5 320.4 
L 67.5 43.2 
" style="fill: none; stroke: #000000; stroke-width: 0.8; stroke-linejoin: miter; stroke-linecap: square"/>
   </g>
   <g id="patch_4">
    <path d="M 486 320.4 
L 486 43.2 
" style="fill: none; stroke: #000000; stroke-width: 0.8; stroke-linejoin: miter; stroke-linecap: square"/>
   </g>
   <g id="patch_5">
    <path d="M 67.5 320.4 
L 486 320.4 
" style="fill: none; stroke: #000000; stroke-width: 0.8; stroke-linejoin: miter; stroke-linecap: square"/>
   </g>
   <g id="patch_6">
    <path d="M 67.5 43.2 
L 486 43.2 
" style="fill: none; stroke: #000000; stroke-width: 0.8; stroke-linejoin: miter; stroke-linecap: square"/>
   </g>
   <g id="text_23">
    <!-- Water in presa_laboca 2010 - 2023 by year -->
    <g transform="translate(147.308437 37.2) scale(0.12 -0.12)">
     <defs>
      <path id="DejaVuSans-57" d="M 213 4666 
L 850 4666 
L 1831 722 
L 2809 4666 
L 3519 4666 
L 4500 722 
L 5478 4666 
L 6119 4666 
L 4947 0 
L 4153 0 
L 3169 4050 
L 2175 0 
L 1381 0 
L 213 4666 
z
" transform="scale(0.015625)"/>
      <path id="DejaVuSans-72" d="M 2631 2963 
Q 2534 3019 2420 3045 
Q 2306 3072 2169 3072 
Q 1681 3072 1420 2755 
Q 1159 2438 1159 1844 
L 1159 0 
L 581 0 
L 581 3500 
L 1159 3500 
L 1159 2956 
Q 1341 3275 1631 3429 
Q 1922 3584 2338 3584 
Q 2397 3584 2469 3576 
Q 2541 3569 2628 3553 
L 2631 2963 
z
" transform="scale(0.015625)"/>
      <path id="DejaVuSans-69" d="M 603 3500 
L 1178 3500 
L 1178 0 
L 603 0 
L 603 3500 
z
M 603 4863 
L 1178 4863 
L 1178 4134 
L 603 4134 
L 603 4863 
z
" transform="scale(0.015625)"/>
      <path id="DejaVuSans-70" d="M 1159 525 
L 1159 -1331 
L 581 -1331 
L 581 3500 
L 1159 3500 
L 1159 2969 
Q 1341 3281 1617 3432 
Q 1894 3584 2278 3584 
Q 2916 3584 3314 3078 
Q 3713 2572 3713 1747 
Q 3713 922 3314 415 
Q 2916 -91 2278 -91 
Q 1894 -91 1617 61 
Q 1341 213 1159 525 
z
M 3116 1747 
Q 3116 2381 2855 2742 
Q 2594 3103 2138 3103 
Q 1681 3103 1420 2742 
Q 1159 2381 1159 1747 
Q 1159 1113 1420 752 
Q 1681 391 2138 391 
Q 2594 391 2855 752 
Q 3116 1113 3116 1747 
z
" transform="scale(0.015625)"/>
      <path id="DejaVuSans-73" d="M 2834 3397 
L 2834 2853 
Q 2591 2978 2328 3040 
Q 2066 3103 1784 3103 
Q 1356 3103 1142 2972 
Q 928 2841 928 2578 
Q 928 2378 1081 2264 
Q 1234 2150 1697 2047 
L 1894 2003 
Q 2506 1872 2764 1633 
Q 3022 1394 3022 966 
Q 3022 478 2636 193 
Q 2250 -91 1575 -91 
Q 1294 -91 989 -36 
Q 684 19 347 128 
L 347 722 
Q 666 556 975 473 
Q 1284 391 1588 391 
Q 1994 391 2212 530 
Q 2431 669 2431 922 
Q 2431 1156 2273 1281 
Q 2116 1406 1581 1522 
L 1381 1569 
Q 847 1681 609 1914 
Q 372 2147 372 2553 
Q 372 3047 722 3315 
Q 1072 3584 1716 3584 
Q 2034 3584 2315 3537 
Q 2597 3491 2834 3397 
z
" transform="scale(0.015625)"/>
      <path id="DejaVuSans-5f" d="M 3263 -1063 
L 3263 -1509 
L -63 -1509 
L -63 -1063 
L 3263 -1063 
z
" transform="scale(0.015625)"/>
      <path id="DejaVuSans-62" d="M 3116 1747 
Q 3116 2381 2855 2742 
Q 2594 3103 2138 3103 
Q 1681 3103 1420 2742 
Q 1159 2381 1159 1747 
Q 1159 1113 1420 752 
Q 1681 391 2138 391 
Q 2594 391 2855 752 
Q 3116 1113 3116 1747 
z
M 1159 2969 
Q 1341 3281 1617 3432 
Q 1894 3584 2278 3584 
Q 2916 3584 3314 3078 
Q 3713 2572 3713 1747 
Q 3713 922 3314 415 
Q 2916 -91 2278 -91 
Q 1894 -91 1617 61 
Q 1341 213 1159 525 
L 1159 0 
L 581 0 
L 581 4863 
L 1159 4863 
L 1159 2969 
z
" transform="scale(0.015625)"/>
      <path id="DejaVuSans-2d" d="M 313 2009 
L 1997 2009 
L 1997 1497 
L 313 1497 
L 313 2009 
z
" transform="scale(0.015625)"/>
      <path id="DejaVuSans-79" d="M 2059 -325 
Q 1816 -950 1584 -1140 
Q 1353 -1331 966 -1331 
L 506 -1331 
L 506 -850 
L 844 -850 
Q 1081 -850 1212 -737 
Q 1344 -625 1503 -206 
L 1606 56 
L 191 3500 
L 800 3500 
L 1894 763 
L 2988 3500 
L 3597 3500 
L 2059 -325 
z
" transform="scale(0.015625)"/>
     </defs>
     <use xlink:href="#DejaVuSans-57"/>
     <use xlink:href="#DejaVuSans-61" x="92.501953"/>
     <use xlink:href="#DejaVuSans-74" x="153.78125"/>
     <use xlink:href="#DejaVuSans-65" x="192.990234"/>
     <use xlink:href="#DejaVuSans-72" x="254.513672"/>
     <use xlink:href="#DejaVuSans-20" x="295.626953"/>
     <use xlink:href="#DejaVuSans-69" x="327.414062"/>
     <use xlink:href="#DejaVuSans-6e" x="355.197266"/>
     <use xlink:href="#DejaVuSans-20" x="418.576172"/>
     <use xlink:href="#DejaVuSans-70" x="450.363281"/>
     <use xlink:href="#DejaVuSans-72" x="513.839844"/>
     <use xlink:href="#DejaVuSans-65" x="552.703125"/>
     <use xlink:href="#DejaVuSans-73" x="614.226562"/>
     <use xlink:href="#DejaVuSans-61" x="666.326172"/>
     <use xlink:href="#DejaVuSans-5f" x="727.605469"/>
     <use xlink:href="#DejaVuSans-6c" x="777.605469"/>
     <use xlink:href="#DejaVuSans-61" x="805.388672"/>
     <use xlink:href="#DejaVuSans-62" x="866.667969"/>
     <use xlink:href="#DejaVuSans-6f" x="930.144531"/>
     <use xlink:href="#DejaVuSans-63" x="991.326172"/>
     <use xlink:href="#DejaVuSans-61" x="1046.306641"/>
     <use xlink:href="#DejaVuSans-20" x="1107.585938"/>
     <use xlink:href="#DejaVuSans-32" x="1139.373047"/>
     <use xlink:href="#DejaVuSans-30" x="1202.996094"/>
     <use xlink:href="#DejaVuSans-31" x="1266.619141"/>
     <use xlink:href="#DejaVuSans-30" x="1330.242188"/>
     <use xlink:href="#DejaVuSans-20" x="1393.865234"/>
     <use xlink:href="#DejaVuSans-2d" x="1425.652344"/>
     <use xlink:href="#DejaVuSans-20" x="1461.736328"/>
     <use xlink:href="#DejaVuSans-32" x="1493.523438"/>
     <use xlink:href="#DejaVuSans-30" x="1557.146484"/>
     <use xlink:href="#DejaVuSans-32" x="1620.769531"/>
     <use xlink:href="#DejaVuSans-33" x="1684.392578"/>
     <use xlink:href="#DejaVuSans-20" x="1748.015625"/>
     <use xlink:href="#DejaVuSans-62" x="1779.802734"/>
     <use xlink:href="#DejaVuSans-79" x="1843.279297"/>
     <use xlink:href="#DejaVuSans-20" x="1902.458984"/>
     <use xlink:href="#DejaVuSans-79" x="1934.246094"/>
     <use xlink:href="#DejaVuSans-65" x="1993.425781"/>
     <use xlink:href="#DejaVuSans-61" x="2054.949219"/>
     <use xlink:href="#DejaVuSans-72" x="2116.228516"/>
    </g>
   </g>
   <g id="legend_1">
    <g id="line2d_36">
     <path d="M 406.843125 166.348594 
L 413.843125 166.348594 
L 420.843125 166.348594 
" style="fill: none; stroke: #006400; stroke-width: 1.5; stroke-linecap: square"/>
    </g>
    <g id="text_24">
     <!-- avg 2016-2020 -->
     <g transform="translate(426.443125 168.798594) scale(0.07 -0.07)">
      <defs>
       <path id="DejaVuSans-76" d="M 191 3500 
L 800 3500 
L 1894 563 
L 2988 3500 
L 3597 3500 
L 2284 0 
L 1503 0 
L 191 3500 
z
" transform="scale(0.015625)"/>
       <path id="DejaVuSans-67" d="M 2906 1791 
Q 2906 2416 2648 2759 
Q 2391 3103 1925 3103 
Q 1463 3103 1205 2759 
Q 947 2416 947 1791 
Q 947 1169 1205 825 
Q 1463 481 1925 481 
Q 2391 481 2648 825 
Q 2906 1169 2906 1791 
z
M 3481 434 
Q 3481 -459 3084 -895 
Q 2688 -1331 1869 -1331 
Q 1566 -1331 1297 -1286 
Q 1028 -1241 775 -1147 
L 775 -588 
Q 1028 -725 1275 -790 
Q 1522 -856 1778 -856 
Q 2344 -856 2625 -561 
Q 2906 -266 2906 331 
L 2906 616 
Q 2728 306 2450 153 
Q 2172 0 1784 0 
Q 1141 0 747 490 
Q 353 981 353 1791 
Q 353 2603 747 3093 
Q 1141 3584 1784 3584 
Q 2172 3584 2450 3431 
Q 2728 3278 2906 2969 
L 2906 3500 
L 3481 3500 
L 3481 434 
z
" transform="scale(0.015625)"/>
      </defs>
      <use xlink:href="#DejaVuSans-61"/>
      <use xlink:href="#DejaVuSans-76" x="61.279297"/>
      <use xlink:href="#DejaVuSans-67" x="120.458984"/>
      <use xlink:href="#DejaVuSans-20" x="183.935547"/>
      <use xlink:href="#DejaVuSans-32" x="215.722656"/>
      <use xlink:href="#DejaVuSans-30" x="279.345703"/>
      <use xlink:href="#DejaVuSans-31" x="342.96875"/>
      <use xlink:href="#DejaVuSans-36" x="406.591797"/>
      <use xlink:href="#DejaVuSans-2d" x="470.214844"/>
      <use xlink:href="#DejaVuSans-32" x="506.298828"/>
      <use xlink:href="#DejaVuSans-30" x="569.921875"/>
      <use xlink:href="#DejaVuSans-32" x="633.544922"/>
      <use xlink:href="#DejaVuSans-30" x="697.167969"/>
     </g>
    </g>
    <g id="line2d_37">
     <path d="M 406.843125 176.623281 
L 413.843125 176.623281 
L 420.843125 176.623281 
" style="fill: none; stroke-dasharray: 0.74,0.32; stroke-dashoffset: 0; stroke: #1f77b4; stroke-width: 0.2"/>
    </g>
    <g id="text_25">
     <!-- 10 -->
     <g transform="translate(426.443125 179.073281) scale(0.07 -0.07)">
      <use xlink:href="#DejaVuSans-31"/>
      <use xlink:href="#DejaVuSans-30" x="63.623047"/>
     </g>
    </g>
    <g id="line2d_38">
     <path d="M 406.843125 186.897969 
L 413.843125 186.897969 
L 420.843125 186.897969 
" style="fill: none; stroke-dasharray: 0.74,0.32; stroke-dashoffset: 0; stroke: #ff7f0e; stroke-width: 0.2"/>
    </g>
    <g id="text_26">
     <!-- 11 -->
     <g transform="translate(426.443125 189.347969) scale(0.07 -0.07)">
      <use xlink:href="#DejaVuSans-31"/>
      <use xlink:href="#DejaVuSans-31" x="63.623047"/>
     </g>
    </g>
    <g id="line2d_39">
     <path d="M 406.843125 197.172656 
L 413.843125 197.172656 
L 420.843125 197.172656 
" style="fill: none; stroke-dasharray: 0.74,0.32; stroke-dashoffset: 0; stroke: #2ca02c; stroke-width: 0.2"/>
    </g>
    <g id="text_27">
     <!-- 12 -->
     <g transform="translate(426.443125 199.622656) scale(0.07 -0.07)">
      <use xlink:href="#DejaVuSans-31"/>
      <use xlink:href="#DejaVuSans-32" x="63.623047"/>
     </g>
    </g>
    <g id="line2d_40">
     <path d="M 406.843125 207.447344 
L 413.843125 207.447344 
L 420.843125 207.447344 
" style="fill: none; stroke-dasharray: 0.74,0.32; stroke-dashoffset: 0; stroke: #d62728; stroke-width: 0.2"/>
    </g>
    <g id="text_28">
     <!-- 13 -->
     <g transform="translate(426.443125 209.897344) scale(0.07 -0.07)">
      <use xlink:href="#DejaVuSans-31"/>
      <use xlink:href="#DejaVuSans-33" x="63.623047"/>
     </g>
    </g>
    <g id="line2d_41">
     <path d="M 406.843125 217.722031 
L 413.843125 217.722031 
L 420.843125 217.722031 
" style="fill: none; stroke-dasharray: 0.74,0.32; stroke-dashoffset: 0; stroke: #9467bd; stroke-width: 0.2"/>
    </g>
    <g id="text_29">
     <!-- 14 -->
     <g transform="translate(426.443125 220.172031) scale(0.07 -0.07)">
      <use xlink:href="#DejaVuSans-31"/>
      <use xlink:href="#DejaVuSans-34" x="63.623047"/>
     </g>
    </g>
    <g id="line2d_42">
     <path d="M 406.843125 227.996719 
L 413.843125 227.996719 
L 420.843125 227.996719 
" style="fill: none; stroke-dasharray: 0.74,0.32; stroke-dashoffset: 0; stroke: #8c564b; stroke-width: 0.2"/>
    </g>
    <g id="text_30">
     <!-- 15 -->
     <g transform="translate(426.443125 230.446719) scale(0.07 -0.07)">
      <use xlink:href="#DejaVuSans-31"/>
      <use xlink:href="#DejaVuSans-35" x="63.623047"/>
     </g>
    </g>
    <g id="line2d_43">
     <path d="M 406.843125 238.271406 
L 413.843125 238.271406 
L 420.843125 238.271406 
" style="fill: none; stroke-dasharray: 0.74,0.32; stroke-dashoffset: 0; stroke: #e377c2; stroke-width: 0.2"/>
    </g>
    <g id="text_31">
     <!-- 16 -->
     <g transform="translate(426.443125 240.721406) scale(0.07 -0.07)">
      <use xlink:href="#DejaVuSans-31"/>
      <use xlink:href="#DejaVuSans-36" x="63.623047"/>
     </g>
    </g>
    <g id="line2d_44">
     <path d="M 406.843125 248.546094 
L 413.843125 248.546094 
L 420.843125 248.546094 
" style="fill: none; stroke-dasharray: 0.74,0.32; stroke-dashoffset: 0; stroke: #7f7f7f; stroke-width: 0.2"/>
    </g>
    <g id="text_32">
     <!-- 17 -->
     <g transform="translate(426.443125 250.996094) scale(0.07 -0.07)">
      <use xlink:href="#DejaVuSans-31"/>
      <use xlink:href="#DejaVuSans-37" x="63.623047"/>
     </g>
    </g>
    <g id="line2d_45">
     <path d="M 406.843125 258.820781 
L 413.843125 258.820781 
L 420.843125 258.820781 
" style="fill: none; stroke-dasharray: 0.74,0.32; stroke-dashoffset: 0; stroke: #bcbd22; stroke-width: 0.2"/>
    </g>
    <g id="text_33">
     <!-- 18 -->
     <g transform="translate(426.443125 261.270781) scale(0.07 -0.07)">
      <use xlink:href="#DejaVuSans-31"/>
      <use xlink:href="#DejaVuSans-38" x="63.623047"/>
     </g>
    </g>
    <g id="line2d_46">
     <path d="M 406.843125 269.095469 
L 413.843125 269.095469 
L 420.843125 269.095469 
" style="fill: none; stroke-dasharray: 0.74,0.32; stroke-dashoffset: 0; stroke: #17becf; stroke-width: 0.2"/>
    </g>
    <g id="text_34">
     <!-- 19 -->
     <g transform="translate(426.443125 271.545469) scale(0.07 -0.07)">
      <use xlink:href="#DejaVuSans-31"/>
      <use xlink:href="#DejaVuSans-39" x="63.623047"/>
     </g>
    </g>
    <g id="line2d_47">
     <path d="M 406.843125 279.370156 
L 413.843125 279.370156 
L 420.843125 279.370156 
" style="fill: none; stroke-dasharray: 0.74,0.32; stroke-dashoffset: 0; stroke: #1f77b4; stroke-width: 0.2"/>
    </g>
    <g id="text_35">
     <!-- 20 -->
     <g transform="translate(426.443125 281.820156) scale(0.07 -0.07)">
      <use xlink:href="#DejaVuSans-32"/>
      <use xlink:href="#DejaVuSans-30" x="63.623047"/>
     </g>
    </g>
    <g id="line2d_48">
     <path d="M 406.843125 289.644844 
L 413.843125 289.644844 
L 420.843125 289.644844 
" style="fill: none; stroke: #ffff00; stroke-width: 0.5; stroke-linecap: square"/>
    </g>
    <g id="text_36">
     <!-- 21 -->
     <g transform="translate(426.443125 292.094844) scale(0.07 -0.07)">
      <use xlink:href="#DejaVuSans-32"/>
      <use xlink:href="#DejaVuSans-31" x="63.623047"/>
     </g>
    </g>
    <g id="line2d_49">
     <path d="M 406.843125 299.919531 
L 413.843125 299.919531 
L 420.843125 299.919531 
" style="fill: none; stroke: #ffa500; stroke-width: 0.5; stroke-linecap: square"/>
    </g>
    <g id="text_37">
     <!-- 22 -->
     <g transform="translate(426.443125 302.369531) scale(0.07 -0.07)">
      <use xlink:href="#DejaVuSans-32"/>
      <use xlink:href="#DejaVuSans-32" x="63.623047"/>
     </g>
    </g>
    <g id="line2d_50">
     <path d="M 406.843125 310.194219 
L 413.843125 310.194219 
L 420.843125 310.194219 
" style="fill: none; stroke: #ff0000; stroke-width: 0.5; stroke-linecap: square"/>
    </g>
    <g id="text_38">
     <!-- 23 -->
     <g transform="translate(426.443125 312.644219) scale(0.07 -0.07)">
      <use xlink:href="#DejaVuSans-32"/>
      <use xlink:href="#DejaVuSans-33" x="63.623047"/>
     </g>
    </g>
   </g>
  </g>
 </g>
 <defs>
  <clipPath id="paf700b1806">
   <rect x="67.5" y="43.2" width="418.5" height="277.2"/>
  </clipPath>
 </defs>
</svg>
