<?xml version="1.0" encoding="utf-8" standalone="no"?>
<!DOCTYPE svg PUBLIC "-//W3C//DTD SVG 1.1//EN"
  "http://www.w3.org/Graphics/SVG/1.1/DTD/svg11.dtd">
<svg xmlns:xlink="http://www.w3.org/1999/xlink" width="360pt" height="360pt" viewBox="0 0 360 360" xmlns="http://www.w3.org/2000/svg" version="1.1">
 <metadata>
  <rdf:RDF xmlns:dc="http://purl.org/dc/elements/1.1/" xmlns:cc="http://creativecommons.org/ns#" xmlns:rdf="http://www.w3.org/1999/02/22-rdf-syntax-ns#">
   <cc:Work>
    <dc:type rdf:resource="http://purl.org/dc/dcmitype/StillImage"/>
    <dc:date>2024-06-24T16:33:28.345326</dc:date>
    <dc:format>image/svg+xml</dc:format>
    <dc:creator>
     <cc:Agent>
      <dc:title>Matplotlib v3.8.0, https://matplotlib.org/</dc:title>
     </cc:Agent>
    </dc:creator>
   </cc:Work>
  </rdf:RDF>
 </metadata>
 <defs>
  <style type="text/css">*{stroke-linejoin: round; stroke-linecap: butt}</style>
 </defs>
 <g id="figure_1">
  <g id="patch_1">
   <path d="M 0 360 
L 360 360 
L 360 0 
L 0 0 
z
" style="fill: #ffffff"/>
  </g>
  <g id="axes_1">
   <g id="patch_2">
    <path d="M 323.1 181.8 
C 323.1 163.599215 319.514842 145.575409 312.549703 128.760076 
C 305.584564 111.944743 295.374899 96.664899 282.505 83.795 
C 269.635101 70.925101 254.355257 60.715436 237.539924 53.750297 
C 220.724591 46.785158 202.700785 43.2 184.5 43.2 
C 166.299215 43.2 148.275409 46.785158 131.460076 53.750297 
C 114.644743 60.715436 99.364899 70.925101 86.495 83.795 
C 73.625101 96.664899 63.415436 111.944743 56.450297 128.760076 
C 49.485158 145.575409 45.9 163.599215 45.9 181.8 
C 45.9 200.000785 49.485158 218.024591 56.450297 234.839924 
C 63.415436 251.655257 73.625101 266.935101 86.495 279.805 
C 99.364899 292.674899 114.644743 302.884564 131.460076 309.849703 
C 148.275409 316.814842 166.299215 320.4 184.5 320.4 
C 202.700785 320.4 220.724591 316.814842 237.539924 309.849703 
C 254.355257 302.884564 269.635101 292.674899 282.505 279.805 
C 295.374899 266.935101 305.584564 251.655257 312.549703 234.839924 
C 319.514842 218.024591 323.1 200.000785 323.1 181.8 
M 184.5 181.8 
C 184.5 181.8 184.5 181.8 184.5 181.8 
C 184.5 181.8 184.5 181.8 184.5 181.8 
C 184.5 181.8 184.5 181.8 184.5 181.8 
C 184.5 181.8 184.5 181.8 184.5 181.8 
C 184.5 181.8 184.5 181.8 184.5 181.8 
C 184.5 181.8 184.5 181.8 184.5 181.8 
C 184.5 181.8 184.5 181.8 184.5 181.8 
C 184.5 181.8 184.5 181.8 184.5 181.8 
C 184.5 181.8 184.5 181.8 184.5 181.8 
C 184.5 181.8 184.5 181.8 184.5 181.8 
C 184.5 181.8 184.5 181.8 184.5 181.8 
C 184.5 181.8 184.5 181.8 184.5 181.8 
C 184.5 181.8 184.5 181.8 184.5 181.8 
C 184.5 181.8 184.5 181.8 184.5 181.8 
C 184.5 181.8 184.5 181.8 184.5 181.8 
C 184.5 181.8 184.5 181.8 184.5 181.8 
z
" style="fill: #ffffff"/>
   </g>
   <g id="patch_3">
    <path d="M 184.5 64.476569 
L 243.504346 89.987445 
L 277.396822 139.375443 
L 315.889313 200.690931 
L 272.323224 257.899256 
L 193.247389 211.590873 
L 155.104757 281.911005 
L 111.927825 244.684148 
L 89.910861 195.399865 
L 86.426974 137.01155 
L 184.5 181.8 
z
" clip-path="url(#pc83081eb82)" style="fill: #599fd5; opacity: 0.5; stroke: #599fd5; stroke-linejoin: miter"/>
   </g>
   <g id="matplotlib.axis_1">
    <g id="xtick_1">
     <g id="line2d_1">
      <path d="M 184.5 181.8 
L 184.5 43.2 
" clip-path="url(#pc83081eb82)" style="fill: none; stroke: #b0b0b0; stroke-width: 0.8; stroke-linecap: square"/>
     </g>
     <g id="text_1">
      <!-- banco -->
      <g transform="translate(172.3275 24.9075) scale(0.08 -0.08)">
       <defs>
        <path id="DejaVuSans-62" d="M 3116 1747 
Q 3116 2381 2855 2742 
Q 2594 3103 2138 3103 
Q 1681 3103 1420 2742 
Q 1159 2381 1159 1747 
Q 1159 1113 1420 752 
Q 1681 391 2138 391 
Q 2594 391 2855 752 
Q 3116 1113 3116 1747 
z
M 1159 2969 
Q 1341 3281 1617 3432 
Q 1894 3584 2278 3584 
Q 2916 3584 3314 3078 
Q 3713 2572 3713 1747 
Q 3713 922 3314 415 
Q 2916 -91 2278 -91 
Q 1894 -91 1617 61 
Q 1341 213 1159 525 
L 1159 0 
L 581 0 
L 581 4863 
L 1159 4863 
L 1159 2969 
z
" transform="scale(0.015625)"/>
        <path id="DejaVuSans-61" d="M 2194 1759 
Q 1497 1759 1228 1600 
Q 959 1441 959 1056 
Q 959 750 1161 570 
Q 1363 391 1709 391 
Q 2188 391 2477 730 
Q 2766 1069 2766 1631 
L 2766 1759 
L 2194 1759 
z
M 3341 1997 
L 3341 0 
L 2766 0 
L 2766 531 
Q 2569 213 2275 61 
Q 1981 -91 1556 -91 
Q 1019 -91 701 211 
Q 384 513 384 1019 
Q 384 1609 779 1909 
Q 1175 2209 1959 2209 
L 2766 2209 
L 2766 2266 
Q 2766 2663 2505 2880 
Q 2244 3097 1772 3097 
Q 1472 3097 1187 3025 
Q 903 2953 641 2809 
L 641 3341 
Q 956 3463 1253 3523 
Q 1550 3584 1831 3584 
Q 2591 3584 2966 3190 
Q 3341 2797 3341 1997 
z
" transform="scale(0.015625)"/>
        <path id="DejaVuSans-6e" d="M 3513 2113 
L 3513 0 
L 2938 0 
L 2938 2094 
Q 2938 2591 2744 2837 
Q 2550 3084 2163 3084 
Q 1697 3084 1428 2787 
Q 1159 2491 1159 1978 
L 1159 0 
L 581 0 
L 581 3500 
L 1159 3500 
L 1159 2956 
Q 1366 3272 1645 3428 
Q 1925 3584 2291 3584 
Q 2894 3584 3203 3211 
Q 3513 2838 3513 2113 
z
" transform="scale(0.015625)"/>
        <path id="DejaVuSans-63" d="M 3122 3366 
L 3122 2828 
Q 2878 2963 2633 3030 
Q 2388 3097 2138 3097 
Q 1578 3097 1268 2742 
Q 959 2388 959 1747 
Q 959 1106 1268 751 
Q 1578 397 2138 397 
Q 2388 397 2633 464 
Q 2878 531 3122 666 
L 3122 134 
Q 2881 22 2623 -34 
Q 2366 -91 2075 -91 
Q 1284 -91 818 406 
Q 353 903 353 1747 
Q 353 2603 823 3093 
Q 1294 3584 2113 3584 
Q 2378 3584 2631 3529 
Q 2884 3475 3122 3366 
z
" transform="scale(0.015625)"/>
        <path id="DejaVuSans-6f" d="M 1959 3097 
Q 1497 3097 1228 2736 
Q 959 2375 959 1747 
Q 959 1119 1226 758 
Q 1494 397 1959 397 
Q 2419 397 2687 759 
Q 2956 1122 2956 1747 
Q 2956 2369 2687 2733 
Q 2419 3097 1959 3097 
z
M 1959 3584 
Q 2709 3584 3137 3096 
Q 3566 2609 3566 1747 
Q 3566 888 3137 398 
Q 2709 -91 1959 -91 
Q 1206 -91 779 398 
Q 353 888 353 1747 
Q 353 2609 779 3096 
Q 1206 3584 1959 3584 
z
" transform="scale(0.015625)"/>
       </defs>
       <use xlink:href="#DejaVuSans-62"/>
       <use xlink:href="#DejaVuSans-61" x="63.476562"/>
       <use xlink:href="#DejaVuSans-6e" x="124.755859"/>
       <use xlink:href="#DejaVuSans-63" x="188.134766"/>
       <use xlink:href="#DejaVuSans-6f" x="243.115234"/>
      </g>
     </g>
    </g>
    <g id="xtick_2">
     <g id="line2d_2">
      <path d="M 184.5 181.8 
L 259.432817 65.20226 
" clip-path="url(#pc83081eb82)" style="fill: none; stroke: #b0b0b0; stroke-width: 0.8; stroke-linecap: square"/>
     </g>
     <g id="text_2">
      <!-- civic_office -->
      <g transform="translate(248.491579 50.052813) scale(0.08 -0.08)">
       <defs>
        <path id="DejaVuSans-69" d="M 603 3500 
L 1178 3500 
L 1178 0 
L 603 0 
L 603 3500 
z
M 603 4863 
L 1178 4863 
L 1178 4134 
L 603 4134 
L 603 4863 
z
" transform="scale(0.015625)"/>
        <path id="DejaVuSans-76" d="M 191 3500 
L 800 3500 
L 1894 563 
L 2988 3500 
L 3597 3500 
L 2284 0 
L 1503 0 
L 191 3500 
z
" transform="scale(0.015625)"/>
        <path id="DejaVuSans-5f" d="M 3263 -1063 
L 3263 -1509 
L -63 -1509 
L -63 -1063 
L 3263 -1063 
z
" transform="scale(0.015625)"/>
        <path id="DejaVuSans-66" d="M 2375 4863 
L 2375 4384 
L 1825 4384 
Q 1516 4384 1395 4259 
Q 1275 4134 1275 3809 
L 1275 3500 
L 2222 3500 
L 2222 3053 
L 1275 3053 
L 1275 0 
L 697 0 
L 697 3053 
L 147 3053 
L 147 3500 
L 697 3500 
L 697 3744 
Q 697 4328 969 4595 
Q 1241 4863 1831 4863 
L 2375 4863 
z
" transform="scale(0.015625)"/>
        <path id="DejaVuSans-65" d="M 3597 1894 
L 3597 1613 
L 953 1613 
Q 991 1019 1311 708 
Q 1631 397 2203 397 
Q 2534 397 2845 478 
Q 3156 559 3463 722 
L 3463 178 
Q 3153 47 2828 -22 
Q 2503 -91 2169 -91 
Q 1331 -91 842 396 
Q 353 884 353 1716 
Q 353 2575 817 3079 
Q 1281 3584 2069 3584 
Q 2775 3584 3186 3129 
Q 3597 2675 3597 1894 
z
M 3022 2063 
Q 3016 2534 2758 2815 
Q 2500 3097 2075 3097 
Q 1594 3097 1305 2825 
Q 1016 2553 972 2059 
L 3022 2063 
z
" transform="scale(0.015625)"/>
       </defs>
       <use xlink:href="#DejaVuSans-63"/>
       <use xlink:href="#DejaVuSans-69" x="54.980469"/>
       <use xlink:href="#DejaVuSans-76" x="82.763672"/>
       <use xlink:href="#DejaVuSans-69" x="141.943359"/>
       <use xlink:href="#DejaVuSans-63" x="169.726562"/>
       <use xlink:href="#DejaVuSans-5f" x="224.707031"/>
       <use xlink:href="#DejaVuSans-6f" x="274.707031"/>
       <use xlink:href="#DejaVuSans-66" x="335.888672"/>
       <use xlink:href="#DejaVuSans-66" x="371.09375"/>
       <use xlink:href="#DejaVuSans-69" x="406.298828"/>
       <use xlink:href="#DejaVuSans-63" x="434.082031"/>
       <use xlink:href="#DejaVuSans-65" x="489.0625"/>
      </g>
     </g>
    </g>
    <g id="xtick_3">
     <g id="line2d_3">
      <path d="M 184.5 181.8 
L 310.574995 124.223479 
" clip-path="url(#pc83081eb82)" style="fill: none; stroke: #b0b0b0; stroke-width: 0.8; stroke-linecap: square"/>
     </g>
     <g id="text_3">
      <!-- correos -->
      <g transform="translate(314.454325 117.914971) scale(0.08 -0.08)">
       <defs>
        <path id="DejaVuSans-72" d="M 2631 2963 
Q 2534 3019 2420 3045 
Q 2306 3072 2169 3072 
Q 1681 3072 1420 2755 
Q 1159 2438 1159 1844 
L 1159 0 
L 581 0 
L 581 3500 
L 1159 3500 
L 1159 2956 
Q 1341 3275 1631 3429 
Q 1922 3584 2338 3584 
Q 2397 3584 2469 3576 
Q 2541 3569 2628 3553 
L 2631 2963 
z
" transform="scale(0.015625)"/>
        <path id="DejaVuSans-73" d="M 2834 3397 
L 2834 2853 
Q 2591 2978 2328 3040 
Q 2066 3103 1784 3103 
Q 1356 3103 1142 2972 
Q 928 2841 928 2578 
Q 928 2378 1081 2264 
Q 1234 2150 1697 2047 
L 1894 2003 
Q 2506 1872 2764 1633 
Q 3022 1394 3022 966 
Q 3022 478 2636 193 
Q 2250 -91 1575 -91 
Q 1294 -91 989 -36 
Q 684 19 347 128 
L 347 722 
Q 666 556 975 473 
Q 1284 391 1588 391 
Q 1994 391 2212 530 
Q 2431 669 2431 922 
Q 2431 1156 2273 1281 
Q 2116 1406 1581 1522 
L 1381 1569 
Q 847 1681 609 1914 
Q 372 2147 372 2553 
Q 372 3047 722 3315 
Q 1072 3584 1716 3584 
Q 2034 3584 2315 3537 
Q 2597 3491 2834 3397 
z
" transform="scale(0.015625)"/>
       </defs>
       <use xlink:href="#DejaVuSans-63"/>
       <use xlink:href="#DejaVuSans-6f" x="54.980469"/>
       <use xlink:href="#DejaVuSans-72" x="116.162109"/>
       <use xlink:href="#DejaVuSans-72" x="155.525391"/>
       <use xlink:href="#DejaVuSans-65" x="194.388672"/>
       <use xlink:href="#DejaVuSans-6f" x="255.912109"/>
       <use xlink:href="#DejaVuSans-73" x="317.09375"/>
      </g>
     </g>
    </g>
    <g id="xtick_4">
     <g id="line2d_4">
      <path d="M 184.5 181.8 
L 321.689252 201.524837 
" clip-path="url(#pc83081eb82)" style="fill: none; stroke: #b0b0b0; stroke-width: 0.8; stroke-linecap: square"/>
     </g>
     <g id="text_4">
      <!-- ep_plaza_big -->
      <g transform="translate(316.137466 206.538541) scale(0.08 -0.08)">
       <defs>
        <path id="DejaVuSans-70" d="M 1159 525 
L 1159 -1331 
L 581 -1331 
L 581 3500 
L 1159 3500 
L 1159 2969 
Q 1341 3281 1617 3432 
Q 1894 3584 2278 3584 
Q 2916 3584 3314 3078 
Q 3713 2572 3713 1747 
Q 3713 922 3314 415 
Q 2916 -91 2278 -91 
Q 1894 -91 1617 61 
Q 1341 213 1159 525 
z
M 3116 1747 
Q 3116 2381 2855 2742 
Q 2594 3103 2138 3103 
Q 1681 3103 1420 2742 
Q 1159 2381 1159 1747 
Q 1159 1113 1420 752 
Q 1681 391 2138 391 
Q 2594 391 2855 752 
Q 3116 1113 3116 1747 
z
" transform="scale(0.015625)"/>
        <path id="DejaVuSans-6c" d="M 603 4863 
L 1178 4863 
L 1178 0 
L 603 0 
L 603 4863 
z
" transform="scale(0.015625)"/>
        <path id="DejaVuSans-7a" d="M 353 3500 
L 3084 3500 
L 3084 2975 
L 922 459 
L 3084 459 
L 3084 0 
L 275 0 
L 275 525 
L 2438 3041 
L 353 3041 
L 353 3500 
z
" transform="scale(0.015625)"/>
        <path id="DejaVuSans-67" d="M 2906 1791 
Q 2906 2416 2648 2759 
Q 2391 3103 1925 3103 
Q 1463 3103 1205 2759 
Q 947 2416 947 1791 
Q 947 1169 1205 825 
Q 1463 481 1925 481 
Q 2391 481 2648 825 
Q 2906 1169 2906 1791 
z
M 3481 434 
Q 3481 -459 3084 -895 
Q 2688 -1331 1869 -1331 
Q 1566 -1331 1297 -1286 
Q 1028 -1241 775 -1147 
L 775 -588 
Q 1028 -725 1275 -790 
Q 1522 -856 1778 -856 
Q 2344 -856 2625 -561 
Q 2906 -266 2906 331 
L 2906 616 
Q 2728 306 2450 153 
Q 2172 0 1784 0 
Q 1141 0 747 490 
Q 353 981 353 1791 
Q 353 2603 747 3093 
Q 1141 3584 1784 3584 
Q 2172 3584 2450 3431 
Q 2728 3278 2906 2969 
L 2906 3500 
L 3481 3500 
L 3481 434 
z
" transform="scale(0.015625)"/>
       </defs>
       <use xlink:href="#DejaVuSans-65"/>
       <use xlink:href="#DejaVuSans-70" x="61.523438"/>
       <use xlink:href="#DejaVuSans-5f" x="125"/>
       <use xlink:href="#DejaVuSans-70" x="175"/>
       <use xlink:href="#DejaVuSans-6c" x="238.476562"/>
       <use xlink:href="#DejaVuSans-61" x="266.259766"/>
       <use xlink:href="#DejaVuSans-7a" x="327.539062"/>
       <use xlink:href="#DejaVuSans-61" x="380.029297"/>
       <use xlink:href="#DejaVuSans-5f" x="441.308594"/>
       <use xlink:href="#DejaVuSans-62" x="491.308594"/>
       <use xlink:href="#DejaVuSans-69" x="554.785156"/>
       <use xlink:href="#DejaVuSans-67" x="582.568359"/>
      </g>
     </g>
    </g>
    <g id="xtick_5">
     <g id="line2d_5">
      <path d="M 184.5 181.8 
L 289.246891 272.563698 
" clip-path="url(#pc83081eb82)" style="fill: none; stroke: #b0b0b0; stroke-width: 0.8; stroke-linecap: square"/>
     </g>
     <g id="text_5">
      <!-- ep_plaza_small -->
      <g transform="translate(274.432882 288.084593) scale(0.08 -0.08)">
       <defs>
        <path id="DejaVuSans-6d" d="M 3328 2828 
Q 3544 3216 3844 3400 
Q 4144 3584 4550 3584 
Q 5097 3584 5394 3201 
Q 5691 2819 5691 2113 
L 5691 0 
L 5113 0 
L 5113 2094 
Q 5113 2597 4934 2840 
Q 4756 3084 4391 3084 
Q 3944 3084 3684 2787 
Q 3425 2491 3425 1978 
L 3425 0 
L 2847 0 
L 2847 2094 
Q 2847 2600 2669 2842 
Q 2491 3084 2119 3084 
Q 1678 3084 1418 2786 
Q 1159 2488 1159 1978 
L 1159 0 
L 581 0 
L 581 3500 
L 1159 3500 
L 1159 2956 
Q 1356 3278 1631 3431 
Q 1906 3584 2284 3584 
Q 2666 3584 2933 3390 
Q 3200 3197 3328 2828 
z
" transform="scale(0.015625)"/>
       </defs>
       <use xlink:href="#DejaVuSans-65"/>
       <use xlink:href="#DejaVuSans-70" x="61.523438"/>
       <use xlink:href="#DejaVuSans-5f" x="125"/>
       <use xlink:href="#DejaVuSans-70" x="175"/>
       <use xlink:href="#DejaVuSans-6c" x="238.476562"/>
       <use xlink:href="#DejaVuSans-61" x="266.259766"/>
       <use xlink:href="#DejaVuSans-7a" x="327.539062"/>
       <use xlink:href="#DejaVuSans-61" x="380.029297"/>
       <use xlink:href="#DejaVuSans-5f" x="441.308594"/>
       <use xlink:href="#DejaVuSans-73" x="491.308594"/>
       <use xlink:href="#DejaVuSans-6d" x="543.408203"/>
       <use xlink:href="#DejaVuSans-61" x="640.820312"/>
       <use xlink:href="#DejaVuSans-6c" x="702.099609"/>
       <use xlink:href="#DejaVuSans-6c" x="729.882812"/>
      </g>
     </g>
    </g>
    <g id="xtick_6">
     <g id="line2d_6">
      <path d="M 184.5 181.8 
L 223.548132 314.785726 
" clip-path="url(#pc83081eb82)" style="fill: none; stroke: #b0b0b0; stroke-width: 0.8; stroke-linecap: square"/>
     </g>
     <g id="text_6">
      <!-- hotel_count -->
      <g transform="translate(205.915525 336.551582) scale(0.08 -0.08)">
       <defs>
        <path id="DejaVuSans-68" d="M 3513 2113 
L 3513 0 
L 2938 0 
L 2938 2094 
Q 2938 2591 2744 2837 
Q 2550 3084 2163 3084 
Q 1697 3084 1428 2787 
Q 1159 2491 1159 1978 
L 1159 0 
L 581 0 
L 581 4863 
L 1159 4863 
L 1159 2956 
Q 1366 3272 1645 3428 
Q 1925 3584 2291 3584 
Q 2894 3584 3203 3211 
Q 3513 2838 3513 2113 
z
" transform="scale(0.015625)"/>
        <path id="DejaVuSans-74" d="M 1172 4494 
L 1172 3500 
L 2356 3500 
L 2356 3053 
L 1172 3053 
L 1172 1153 
Q 1172 725 1289 603 
Q 1406 481 1766 481 
L 2356 481 
L 2356 0 
L 1766 0 
Q 1100 0 847 248 
Q 594 497 594 1153 
L 594 3053 
L 172 3053 
L 172 3500 
L 594 3500 
L 594 4494 
L 1172 4494 
z
" transform="scale(0.015625)"/>
        <path id="DejaVuSans-75" d="M 544 1381 
L 544 3500 
L 1119 3500 
L 1119 1403 
Q 1119 906 1312 657 
Q 1506 409 1894 409 
Q 2359 409 2629 706 
Q 2900 1003 2900 1516 
L 2900 3500 
L 3475 3500 
L 3475 0 
L 2900 0 
L 2900 538 
Q 2691 219 2414 64 
Q 2138 -91 1772 -91 
Q 1169 -91 856 284 
Q 544 659 544 1381 
z
M 1991 3584 
L 1991 3584 
z
" transform="scale(0.015625)"/>
       </defs>
       <use xlink:href="#DejaVuSans-68"/>
       <use xlink:href="#DejaVuSans-6f" x="63.378906"/>
       <use xlink:href="#DejaVuSans-74" x="124.560547"/>
       <use xlink:href="#DejaVuSans-65" x="163.769531"/>
       <use xlink:href="#DejaVuSans-6c" x="225.292969"/>
       <use xlink:href="#DejaVuSans-5f" x="253.076172"/>
       <use xlink:href="#DejaVuSans-63" x="303.076172"/>
       <use xlink:href="#DejaVuSans-6f" x="358.056641"/>
       <use xlink:href="#DejaVuSans-75" x="419.238281"/>
       <use xlink:href="#DejaVuSans-6e" x="482.617188"/>
       <use xlink:href="#DejaVuSans-74" x="545.996094"/>
      </g>
     </g>
    </g>
    <g id="xtick_7">
     <g id="line2d_7">
      <path d="M 184.5 181.8 
L 145.451868 314.785726 
" clip-path="url(#pc83081eb82)" style="fill: none; stroke: #b0b0b0; stroke-width: 0.8; stroke-linecap: square"/>
     </g>
     <g id="text_7">
      <!-- police -->
      <g transform="translate(127.80635 336.662832) scale(0.08 -0.08)">
       <use xlink:href="#DejaVuSans-70"/>
       <use xlink:href="#DejaVuSans-6f" x="63.476562"/>
       <use xlink:href="#DejaVuSans-6c" x="124.658203"/>
       <use xlink:href="#DejaVuSans-69" x="152.441406"/>
       <use xlink:href="#DejaVuSans-63" x="180.224609"/>
       <use xlink:href="#DejaVuSans-65" x="235.205078"/>
      </g>
     </g>
    </g>
    <g id="xtick_8">
     <g id="line2d_8">
      <path d="M 184.5 181.8 
L 79.753109 272.563698 
" clip-path="url(#pc83081eb82)" style="fill: none; stroke: #b0b0b0; stroke-width: 0.8; stroke-linecap: square"/>
     </g>
     <g id="text_8">
      <!-- social_security -->
      <g transform="translate(34.885243 288.084593) scale(0.08 -0.08)">
       <defs>
        <path id="DejaVuSans-79" d="M 2059 -325 
Q 1816 -950 1584 -1140 
Q 1353 -1331 966 -1331 
L 506 -1331 
L 506 -850 
L 844 -850 
Q 1081 -850 1212 -737 
Q 1344 -625 1503 -206 
L 1606 56 
L 191 3500 
L 800 3500 
L 1894 763 
L 2988 3500 
L 3597 3500 
L 2059 -325 
z
" transform="scale(0.015625)"/>
       </defs>
       <use xlink:href="#DejaVuSans-73"/>
       <use xlink:href="#DejaVuSans-6f" x="52.099609"/>
       <use xlink:href="#DejaVuSans-63" x="113.28125"/>
       <use xlink:href="#DejaVuSans-69" x="168.261719"/>
       <use xlink:href="#DejaVuSans-61" x="196.044922"/>
       <use xlink:href="#DejaVuSans-6c" x="257.324219"/>
       <use xlink:href="#DejaVuSans-5f" x="285.107422"/>
       <use xlink:href="#DejaVuSans-73" x="335.107422"/>
       <use xlink:href="#DejaVuSans-65" x="387.207031"/>
       <use xlink:href="#DejaVuSans-63" x="448.730469"/>
       <use xlink:href="#DejaVuSans-75" x="503.710938"/>
       <use xlink:href="#DejaVuSans-72" x="567.089844"/>
       <use xlink:href="#DejaVuSans-69" x="608.203125"/>
       <use xlink:href="#DejaVuSans-74" x="635.986328"/>
       <use xlink:href="#DejaVuSans-79" x="675.195312"/>
      </g>
     </g>
    </g>
    <g id="xtick_9">
     <g id="line2d_9">
      <path d="M 184.5 181.8 
L 47.310748 201.524837 
" clip-path="url(#pc83081eb82)" style="fill: none; stroke: #b0b0b0; stroke-width: 0.8; stroke-linecap: square"/>
     </g>
     <g id="text_9">
      <!-- tax_collection -->
      <g transform="translate(-0.559341 206.538541) scale(0.08 -0.08)">
       <defs>
        <path id="DejaVuSans-78" d="M 3513 3500 
L 2247 1797 
L 3578 0 
L 2900 0 
L 1881 1375 
L 863 0 
L 184 0 
L 1544 1831 
L 300 3500 
L 978 3500 
L 1906 2253 
L 2834 3500 
L 3513 3500 
z
" transform="scale(0.015625)"/>
       </defs>
       <use xlink:href="#DejaVuSans-74"/>
       <use xlink:href="#DejaVuSans-61" x="39.208984"/>
       <use xlink:href="#DejaVuSans-78" x="100.488281"/>
       <use xlink:href="#DejaVuSans-5f" x="159.667969"/>
       <use xlink:href="#DejaVuSans-63" x="209.667969"/>
       <use xlink:href="#DejaVuSans-6f" x="264.648438"/>
       <use xlink:href="#DejaVuSans-6c" x="325.830078"/>
       <use xlink:href="#DejaVuSans-6c" x="353.613281"/>
       <use xlink:href="#DejaVuSans-65" x="381.396484"/>
       <use xlink:href="#DejaVuSans-63" x="442.919922"/>
       <use xlink:href="#DejaVuSans-74" x="497.900391"/>
       <use xlink:href="#DejaVuSans-69" x="537.109375"/>
       <use xlink:href="#DejaVuSans-6f" x="564.892578"/>
       <use xlink:href="#DejaVuSans-6e" x="626.074219"/>
      </g>
     </g>
    </g>
    <g id="xtick_10">
     <g id="line2d_10">
      <path d="M 184.5 181.8 
L 58.425005 124.223479 
" clip-path="url(#pc83081eb82)" style="fill: none; stroke: #b0b0b0; stroke-width: 0.8; stroke-linecap: square"/>
     </g>
     <g id="text_10">
      <!-- viv_count -->
      <g transform="translate(20.6463 117.803721) scale(0.08 -0.08)">
       <use xlink:href="#DejaVuSans-76"/>
       <use xlink:href="#DejaVuSans-69" x="59.179688"/>
       <use xlink:href="#DejaVuSans-76" x="86.962891"/>
       <use xlink:href="#DejaVuSans-5f" x="146.142578"/>
       <use xlink:href="#DejaVuSans-63" x="196.142578"/>
       <use xlink:href="#DejaVuSans-6f" x="251.123047"/>
       <use xlink:href="#DejaVuSans-75" x="312.304688"/>
       <use xlink:href="#DejaVuSans-6e" x="375.683594"/>
       <use xlink:href="#DejaVuSans-74" x="439.0625"/>
      </g>
     </g>
    </g>
    <g id="xtick_11">
     <g id="line2d_11">
      <path d="M 184.5 181.8 
L 109.567183 65.20226 
" clip-path="url(#pc83081eb82)" style="fill: none; stroke: #b0b0b0; stroke-width: 0.8; stroke-linecap: square"/>
     </g>
     <g id="text_11">
      <!-- viv_social_count -->
      <g transform="translate(65.948421 50.052813) scale(0.08 -0.08)">
       <use xlink:href="#DejaVuSans-76"/>
       <use xlink:href="#DejaVuSans-69" x="59.179688"/>
       <use xlink:href="#DejaVuSans-76" x="86.962891"/>
       <use xlink:href="#DejaVuSans-5f" x="146.142578"/>
       <use xlink:href="#DejaVuSans-73" x="196.142578"/>
       <use xlink:href="#DejaVuSans-6f" x="248.242188"/>
       <use xlink:href="#DejaVuSans-63" x="309.423828"/>
       <use xlink:href="#DejaVuSans-69" x="364.404297"/>
       <use xlink:href="#DejaVuSans-61" x="392.1875"/>
       <use xlink:href="#DejaVuSans-6c" x="453.466797"/>
       <use xlink:href="#DejaVuSans-5f" x="481.25"/>
       <use xlink:href="#DejaVuSans-63" x="531.25"/>
       <use xlink:href="#DejaVuSans-6f" x="586.230469"/>
       <use xlink:href="#DejaVuSans-75" x="647.412109"/>
       <use xlink:href="#DejaVuSans-6e" x="710.791016"/>
       <use xlink:href="#DejaVuSans-74" x="774.169922"/>
      </g>
     </g>
    </g>
   </g>
   <g id="matplotlib.axis_2">
    <g id="ytick_1">
     <g id="line2d_12">
      <path d="M 184.5 181.8 
C 184.5 181.8 184.5 181.8 184.5 181.8 
C 184.5 181.8 184.5 181.8 184.5 181.8 
C 184.5 181.8 184.5 181.8 184.5 181.8 
C 184.5 181.8 184.5 181.8 184.5 181.8 
C 184.5 181.8 184.5 181.8 184.5 181.8 
C 184.5 181.8 184.5 181.8 184.5 181.8 
C 184.5 181.8 184.5 181.8 184.5 181.8 
C 184.5 181.8 184.5 181.8 184.5 181.8 
C 184.5 181.8 184.5 181.8 184.5 181.8 
C 184.5 181.8 184.5 181.8 184.5 181.8 
C 184.5 181.8 184.5 181.8 184.5 181.8 
C 184.5 181.8 184.5 181.8 184.5 181.8 
C 184.5 181.8 184.5 181.8 184.5 181.8 
C 184.5 181.8 184.5 181.8 184.5 181.8 
C 184.5 181.8 184.5 181.8 184.5 181.8 
C 184.5 181.8 184.5 181.8 184.5 181.8 
" clip-path="url(#pc83081eb82)" style="fill: none; stroke: #b0b0b0; stroke-width: 0.8; stroke-linecap: square"/>
     </g>
     <g id="text_12">
      <!-- 0 -->
      <g transform="translate(184.5 179.720312) scale(0.1 -0.1)">
       <defs>
        <path id="DejaVuSans-30" d="M 2034 4250 
Q 1547 4250 1301 3770 
Q 1056 3291 1056 2328 
Q 1056 1369 1301 889 
Q 1547 409 2034 409 
Q 2525 409 2770 889 
Q 3016 1369 3016 2328 
Q 3016 3291 2770 3770 
Q 2525 4250 2034 4250 
z
M 2034 4750 
Q 2819 4750 3233 4129 
Q 3647 3509 3647 2328 
Q 3647 1150 3233 529 
Q 2819 -91 2034 -91 
Q 1250 -91 836 529 
Q 422 1150 422 2328 
Q 422 3509 836 4129 
Q 1250 4750 2034 4750 
z
" transform="scale(0.015625)"/>
       </defs>
       <use xlink:href="#DejaVuSans-30"/>
      </g>
     </g>
    </g>
    <g id="ytick_2">
     <g id="line2d_13">
      <path d="M 184.5 154.08 
C 188.140157 154.08 191.744918 154.797032 195.107985 156.190059 
C 198.471051 157.583087 201.52702 159.62502 204.101 162.199 
C 206.67498 164.77298 208.716913 167.828949 210.109941 171.192015 
C 211.502968 174.555082 212.22 178.159843 212.22 181.8 
C 212.22 185.440157 211.502968 189.044918 210.109941 192.407985 
C 208.716913 195.771051 206.67498 198.82702 204.101 201.401 
C 201.52702 203.97498 198.471051 206.016913 195.107985 207.409941 
C 191.744918 208.802968 188.140157 209.52 184.5 209.52 
C 180.859843 209.52 177.255082 208.802968 173.892015 207.409941 
C 170.528949 206.016913 167.47298 203.97498 164.899 201.401 
C 162.32502 198.82702 160.283087 195.771051 158.890059 192.407985 
C 157.497032 189.044918 156.78 185.440157 156.78 181.8 
C 156.78 178.159843 157.497032 174.555082 158.890059 171.192015 
C 160.283087 167.828949 162.32502 164.77298 164.899 162.199 
C 167.47298 159.62502 170.528949 157.583087 173.892015 156.190059 
C 177.255082 154.797032 180.859843 154.08 184.5 154.08 
" clip-path="url(#pc83081eb82)" style="fill: none; stroke: #b0b0b0; stroke-width: 0.8; stroke-linecap: square"/>
     </g>
     <g id="text_13">
      <!-- 2 -->
      <g transform="translate(184.5 152.000312) scale(0.1 -0.1)">
       <defs>
        <path id="DejaVuSans-32" d="M 1228 531 
L 3431 531 
L 3431 0 
L 469 0 
L 469 531 
Q 828 903 1448 1529 
Q 2069 2156 2228 2338 
Q 2531 2678 2651 2914 
Q 2772 3150 2772 3378 
Q 2772 3750 2511 3984 
Q 2250 4219 1831 4219 
Q 1534 4219 1204 4116 
Q 875 4013 500 3803 
L 500 4441 
Q 881 4594 1212 4672 
Q 1544 4750 1819 4750 
Q 2544 4750 2975 4387 
Q 3406 4025 3406 3419 
Q 3406 3131 3298 2873 
Q 3191 2616 2906 2266 
Q 2828 2175 2409 1742 
Q 1991 1309 1228 531 
z
" transform="scale(0.015625)"/>
       </defs>
       <use xlink:href="#DejaVuSans-32"/>
      </g>
     </g>
    </g>
    <g id="ytick_3">
     <g id="line2d_14">
      <path d="M 184.5 126.36 
C 191.780314 126.36 198.989836 127.794063 205.715969 130.580119 
C 212.442103 133.366174 218.55404 137.450041 223.702 142.598 
C 228.849959 147.74596 232.933826 153.857897 235.719881 160.584031 
C 238.505937 167.310164 239.94 174.519686 239.94 181.8 
C 239.94 189.080314 238.505937 196.289836 235.719881 203.015969 
C 232.933826 209.742103 228.849959 215.85404 223.702 221.002 
C 218.55404 226.149959 212.442103 230.233826 205.715969 233.019881 
C 198.989836 235.805937 191.780314 237.24 184.5 237.24 
C 177.219686 237.24 170.010164 235.805937 163.284031 233.019881 
C 156.557897 230.233826 150.44596 226.149959 145.298 221.002 
C 140.150041 215.85404 136.066174 209.742103 133.280119 203.015969 
C 130.494063 196.289836 129.06 189.080314 129.06 181.8 
C 129.06 174.519686 130.494063 167.310164 133.280119 160.584031 
C 136.066174 153.857897 140.150041 147.74596 145.298 142.598 
C 150.44596 137.450041 156.557897 133.366174 163.284031 130.580119 
C 170.010164 127.794063 177.219686 126.36 184.5 126.36 
" clip-path="url(#pc83081eb82)" style="fill: none; stroke: #b0b0b0; stroke-width: 0.8; stroke-linecap: square"/>
     </g>
     <g id="text_14">
      <!-- 4 -->
      <g transform="translate(184.5 124.280312) scale(0.1 -0.1)">
       <defs>
        <path id="DejaVuSans-34" d="M 2419 4116 
L 825 1625 
L 2419 1625 
L 2419 4116 
z
M 2253 4666 
L 3047 4666 
L 3047 1625 
L 3713 1625 
L 3713 1100 
L 3047 1100 
L 3047 0 
L 2419 0 
L 2419 1100 
L 313 1100 
L 313 1709 
L 2253 4666 
z
" transform="scale(0.015625)"/>
       </defs>
       <use xlink:href="#DejaVuSans-34"/>
      </g>
     </g>
    </g>
    <g id="ytick_4">
     <g id="line2d_15">
      <path d="M 184.5 98.64 
C 195.420471 98.64 206.234754 100.791095 216.323954 104.970178 
C 226.413154 109.149261 235.581061 115.275061 243.303 122.997 
C 251.024939 130.718939 257.150739 139.886846 261.329822 149.976046 
C 265.508905 160.065246 267.66 170.879529 267.66 181.8 
C 267.66 192.720471 265.508905 203.534754 261.329822 213.623954 
C 257.150739 223.713154 251.024939 232.881061 243.303 240.603 
C 235.581061 248.324939 226.413154 254.450739 216.323954 258.629822 
C 206.234754 262.808905 195.420471 264.96 184.5 264.96 
C 173.579529 264.96 162.765246 262.808905 152.676046 258.629822 
C 142.586846 254.450739 133.418939 248.324939 125.697 240.603 
C 117.975061 232.881061 111.849261 223.713154 107.670178 213.623954 
C 103.491095 203.534754 101.34 192.720471 101.34 181.8 
C 101.34 170.879529 103.491095 160.065246 107.670178 149.976046 
C 111.849261 139.886846 117.975061 130.718939 125.697 122.997 
C 133.418939 115.275061 142.586846 109.149261 152.676046 104.970178 
C 162.765246 100.791095 173.579529 98.64 184.5 98.64 
" clip-path="url(#pc83081eb82)" style="fill: none; stroke: #b0b0b0; stroke-width: 0.8; stroke-linecap: square"/>
     </g>
     <g id="text_15">
      <!-- 6 -->
      <g transform="translate(184.5 96.560313) scale(0.1 -0.1)">
       <defs>
        <path id="DejaVuSans-36" d="M 2113 2584 
Q 1688 2584 1439 2293 
Q 1191 2003 1191 1497 
Q 1191 994 1439 701 
Q 1688 409 2113 409 
Q 2538 409 2786 701 
Q 3034 994 3034 1497 
Q 3034 2003 2786 2293 
Q 2538 2584 2113 2584 
z
M 3366 4563 
L 3366 3988 
Q 3128 4100 2886 4159 
Q 2644 4219 2406 4219 
Q 1781 4219 1451 3797 
Q 1122 3375 1075 2522 
Q 1259 2794 1537 2939 
Q 1816 3084 2150 3084 
Q 2853 3084 3261 2657 
Q 3669 2231 3669 1497 
Q 3669 778 3244 343 
Q 2819 -91 2113 -91 
Q 1303 -91 875 529 
Q 447 1150 447 2328 
Q 447 3434 972 4092 
Q 1497 4750 2381 4750 
Q 2619 4750 2861 4703 
Q 3103 4656 3366 4563 
z
" transform="scale(0.015625)"/>
       </defs>
       <use xlink:href="#DejaVuSans-36"/>
      </g>
     </g>
    </g>
    <g id="ytick_5">
     <g id="line2d_16">
      <path d="M 184.5 70.92 
C 199.060628 70.92 213.479673 73.788126 226.931939 79.360237 
C 240.384205 84.932349 252.608081 93.100081 262.904 103.396 
C 273.199919 113.691919 281.367651 125.915795 286.939763 139.368061 
C 292.511874 152.820327 295.38 167.239372 295.38 181.8 
C 295.38 196.360628 292.511874 210.779673 286.939763 224.231939 
C 281.367651 237.684205 273.199919 249.908081 262.904 260.204 
C 252.608081 270.499919 240.384205 278.667651 226.931939 284.239763 
C 213.479673 289.811874 199.060628 292.68 184.5 292.68 
C 169.939372 292.68 155.520327 289.811874 142.068061 284.239763 
C 128.615795 278.667651 116.391919 270.499919 106.096 260.204 
C 95.800081 249.908081 87.632349 237.684205 82.060237 224.231939 
C 76.488126 210.779673 73.62 196.360628 73.62 181.8 
C 73.62 167.239372 76.488126 152.820327 82.060237 139.368061 
C 87.632349 125.915795 95.800081 113.691919 106.096 103.396 
C 116.391919 93.100081 128.615795 84.932349 142.068061 79.360237 
C 155.520327 73.788126 169.939372 70.92 184.5 70.92 
" clip-path="url(#pc83081eb82)" style="fill: none; stroke: #b0b0b0; stroke-width: 0.8; stroke-linecap: square"/>
     </g>
     <g id="text_16">
      <!-- 8 -->
      <g transform="translate(184.5 68.840312) scale(0.1 -0.1)">
       <defs>
        <path id="DejaVuSans-38" d="M 2034 2216 
Q 1584 2216 1326 1975 
Q 1069 1734 1069 1313 
Q 1069 891 1326 650 
Q 1584 409 2034 409 
Q 2484 409 2743 651 
Q 3003 894 3003 1313 
Q 3003 1734 2745 1975 
Q 2488 2216 2034 2216 
z
M 1403 2484 
Q 997 2584 770 2862 
Q 544 3141 544 3541 
Q 544 4100 942 4425 
Q 1341 4750 2034 4750 
Q 2731 4750 3128 4425 
Q 3525 4100 3525 3541 
Q 3525 3141 3298 2862 
Q 3072 2584 2669 2484 
Q 3125 2378 3379 2068 
Q 3634 1759 3634 1313 
Q 3634 634 3220 271 
Q 2806 -91 2034 -91 
Q 1263 -91 848 271 
Q 434 634 434 1313 
Q 434 1759 690 2068 
Q 947 2378 1403 2484 
z
M 1172 3481 
Q 1172 3119 1398 2916 
Q 1625 2713 2034 2713 
Q 2441 2713 2670 2916 
Q 2900 3119 2900 3481 
Q 2900 3844 2670 4047 
Q 2441 4250 2034 4250 
Q 1625 4250 1398 4047 
Q 1172 3844 1172 3481 
z
" transform="scale(0.015625)"/>
       </defs>
       <use xlink:href="#DejaVuSans-38"/>
      </g>
     </g>
    </g>
    <g id="ytick_6">
     <g id="line2d_17">
      <path d="M 184.5 43.2 
C 202.700785 43.2 220.724591 46.785158 237.539924 53.750297 
C 254.355257 60.715436 269.635101 70.925101 282.505 83.795 
C 295.374899 96.664899 305.584564 111.944743 312.549703 128.760076 
C 319.514842 145.575409 323.1 163.599215 323.1 181.8 
C 323.1 200.000785 319.514842 218.024591 312.549703 234.839924 
C 305.584564 251.655257 295.374899 266.935101 282.505 279.805 
C 269.635101 292.674899 254.355257 302.884564 237.539924 309.849703 
C 220.724591 316.814842 202.700785 320.4 184.5 320.4 
C 166.299215 320.4 148.275409 316.814842 131.460076 309.849703 
C 114.644743 302.884564 99.364899 292.674899 86.495 279.805 
C 73.625101 266.935101 63.415436 251.655257 56.450297 234.839924 
C 49.485158 218.024591 45.9 200.000785 45.9 181.8 
C 45.9 163.599215 49.485158 145.575409 56.450297 128.760076 
C 63.415436 111.944743 73.625101 96.664899 86.495 83.795 
C 99.364899 70.925101 114.644743 60.715436 131.460076 53.750297 
C 148.275409 46.785158 166.299215 43.2 184.5 43.2 
" clip-path="url(#pc83081eb82)" style="fill: none; stroke: #b0b0b0; stroke-width: 0.8; stroke-linecap: square"/>
     </g>
     <g id="text_17">
      <!-- 10 -->
      <g transform="translate(184.5 41.120312) scale(0.1 -0.1)">
       <defs>
        <path id="DejaVuSans-31" d="M 794 531 
L 1825 531 
L 1825 4091 
L 703 3866 
L 703 4441 
L 1819 4666 
L 2450 4666 
L 2450 531 
L 3481 531 
L 3481 0 
L 794 0 
L 794 531 
z
" transform="scale(0.015625)"/>
       </defs>
       <use xlink:href="#DejaVuSans-31"/>
       <use xlink:href="#DejaVuSans-30" x="63.623047"/>
      </g>
     </g>
    </g>
   </g>
   <g id="line2d_18">
    <path d="M 184.5 64.476569 
L 243.504346 89.987445 
L 277.396822 139.375443 
L 315.889313 200.690931 
L 272.323224 257.899256 
L 193.247389 211.590873 
L 155.104757 281.911005 
L 111.927825 244.684148 
L 89.910861 195.399865 
L 86.426974 137.01155 
L 184.5 181.8 
L 184.5 64.476569 
" clip-path="url(#pc83081eb82)" style="fill: none; stroke: #599fd5; stroke-linecap: square"/>
   </g>
   <g id="patch_4">
    <path d="M 184.5 43.2 
C 166.299215 43.2 148.275409 46.785158 131.460076 53.750297 
C 114.644743 60.715436 99.364899 70.925101 86.495 83.795 
C 73.625101 96.664899 63.415436 111.944743 56.450297 128.760076 
C 49.485158 145.575409 45.9 163.599215 45.9 181.8 
C 45.9 200.000785 49.485158 218.024591 56.450297 234.839924 
C 63.415436 251.655257 73.625101 266.935101 86.495 279.805 
C 99.364899 292.674899 114.644743 302.884564 131.460076 309.849703 
C 148.275409 316.814842 166.299215 320.4 184.5 320.4 
C 202.700785 320.4 220.724591 316.814842 237.539924 309.849703 
C 254.355257 302.884564 269.635101 292.674899 282.505 279.805 
C 295.374899 266.935101 305.584564 251.655257 312.549703 234.839924 
C 319.514842 218.024591 323.1 200.000785 323.1 181.8 
C 323.1 163.599215 319.514842 145.575409 312.549703 128.760076 
C 305.584564 111.944743 295.374899 96.664899 282.505 83.795 
C 269.635101 70.925101 254.355257 60.715436 237.539924 53.750297 
C 220.724591 46.785158 202.700785 43.2 184.5 43.2 
" style="fill: none; stroke: #000000; stroke-width: 0.8; stroke-linejoin: miter; stroke-linecap: square"/>
   </g>
  </g>
 </g>
 <defs>
  <clipPath id="pc83081eb82">
   <path d="M 323.1 181.8 
C 323.1 163.599215 319.514842 145.575409 312.549703 128.760076 
C 305.584564 111.944743 295.374899 96.664899 282.505 83.795 
C 269.635101 70.925101 254.355257 60.715436 237.539924 53.750297 
C 220.724591 46.785158 202.700785 43.2 184.5 43.2 
C 166.299215 43.2 148.275409 46.785158 131.460076 53.750297 
C 114.644743 60.715436 99.364899 70.925101 86.495 83.795 
C 73.625101 96.664899 63.415436 111.944743 56.450297 128.760076 
C 49.485158 145.575409 45.9 163.599215 45.9 181.8 
C 45.9 200.000785 49.485158 218.024591 56.450297 234.839924 
C 63.415436 251.655257 73.625101 266.935101 86.495 279.805 
C 99.364899 292.674899 114.644743 302.884564 131.460076 309.849703 
C 148.275409 316.814842 166.299215 320.4 184.5 320.4 
C 202.700785 320.4 220.724591 316.814842 237.539924 309.849703 
C 254.355257 302.884564 269.635101 292.674899 282.505 279.805 
C 295.374899 266.935101 305.584564 251.655257 312.549703 234.839924 
C 319.514842 218.024591 323.1 200.000785 323.1 181.8 
M 184.5 181.8 
C 184.5 181.8 184.5 181.8 184.5 181.8 
C 184.5 181.8 184.5 181.8 184.5 181.8 
C 184.5 181.8 184.5 181.8 184.5 181.8 
C 184.5 181.8 184.5 181.8 184.5 181.8 
C 184.5 181.8 184.5 181.8 184.5 181.8 
C 184.5 181.8 184.5 181.8 184.5 181.8 
C 184.5 181.8 184.5 181.8 184.5 181.8 
C 184.5 181.8 184.5 181.8 184.5 181.8 
C 184.5 181.8 184.5 181.8 184.5 181.8 
C 184.5 181.8 184.5 181.8 184.5 181.8 
C 184.5 181.8 184.5 181.8 184.5 181.8 
C 184.5 181.8 184.5 181.8 184.5 181.8 
C 184.5 181.8 184.5 181.8 184.5 181.8 
C 184.5 181.8 184.5 181.8 184.5 181.8 
C 184.5 181.8 184.5 181.8 184.5 181.8 
C 184.5 181.8 184.5 181.8 184.5 181.8 
z
"/>
  </clipPath>
 </defs>
</svg>
