<?xml version="1.0" encoding="utf-8" standalone="no"?>
<!DOCTYPE svg PUBLIC "-//W3C//DTD SVG 1.1//EN"
  "http://www.w3.org/Graphics/SVG/1.1/DTD/svg11.dtd">
<svg xmlns:xlink="http://www.w3.org/1999/xlink" width="460.8pt" height="345.6pt" viewBox="0 0 460.8 345.6" xmlns="http://www.w3.org/2000/svg" version="1.1">
 <metadata>
  <rdf:RDF xmlns:dc="http://purl.org/dc/elements/1.1/" xmlns:cc="http://creativecommons.org/ns#" xmlns:rdf="http://www.w3.org/1999/02/22-rdf-syntax-ns#">
   <cc:Work>
    <dc:type rdf:resource="http://purl.org/dc/dcmitype/StillImage"/>
    <dc:date>2023-09-08T18:08:27.667931</dc:date>
    <dc:format>image/svg+xml</dc:format>
    <dc:creator>
     <cc:Agent>
      <dc:title>Matplotlib v3.7.1, https://matplotlib.org/</dc:title>
     </cc:Agent>
    </dc:creator>
   </cc:Work>
  </rdf:RDF>
 </metadata>
 <defs>
  <style type="text/css">*{stroke-linejoin: round; stroke-linecap: butt}</style>
 </defs>
 <g id="figure_1">
  <g id="patch_1">
   <path d="M 0 345.6 
L 460.8 345.6 
L 460.8 0 
L 0 0 
z
" style="fill: #ffffff"/>
  </g>
  <g id="axes_1">
   <g id="patch_2">
    <path d="M 139.740449 307.584 
L 332.579551 307.584 
L 332.579551 41.472 
L 139.740449 41.472 
z
" style="fill: #ffffff"/>
   </g>
   <g id="PatchCollection_1">
    <path d="M 156.786732 158.499459 
L 156.636358 158.141454 
L 156.254391 158.093252 
L 156.104016 157.735247 
L 155.722047 157.687046 
L 155.57167 157.329041 
L 155.189699 157.28084 
L 155.03932 156.922836 
L 154.657347 156.874636 
L 154.506967 156.516632 
L 154.124992 156.468433 
L 153.97461 156.110429 
L 153.592634 156.062231 
L 153.44225 155.704227 
L 153.060272 155.65603 
L 152.909886 155.298026 
L 152.527906 155.24983 
L 152.377519 154.891826 
L 151.995537 154.84363 
L 151.845148 154.485627 
L 151.463164 154.437432 
L 151.312773 154.079428 
L 150.930788 154.031235 
L 150.780395 153.673232 
L 151.011989 153.363421 
L 150.861596 153.005417 
L 151.093191 152.695607 
L 150.942798 152.337603 
L 151.174394 152.027793 
L 151.024 151.669789 
L 151.255597 151.359979 
L 151.105203 151.001975 
L 151.336801 150.692167 
L 151.186406 150.334162 
L 151.418005 150.024354 
L 151.26761 149.66635 
L 151.49921 149.356542 
L 151.348815 148.998537 
L 151.580416 148.68873 
L 151.43002 148.330726 
L 151.661622 148.020919 
L 151.511226 147.662914 
L 151.129226 147.614716 
L 150.978829 147.256712 
L 151.210431 146.946905 
L 151.060033 146.5889 
L 151.291637 146.279094 
L 151.141239 145.921089 
L 151.372843 145.611283 
L 151.222445 145.253278 
L 150.840439 145.205079 
L 150.690039 144.847074 
L 150.921644 144.537268 
L 150.771243 144.179263 
L 151.00285 143.869457 
L 150.852449 143.511452 
L 150.470439 143.463253 
L 150.320036 143.105248 
L 150.551644 142.795442 
L 150.40124 142.437437 
L 150.632849 142.127632 
L 150.482445 141.769626 
L 150.714055 141.459822 
L 150.563651 141.101816 
L 150.181635 141.053616 
L 150.031229 140.695611 
L 150.26284 140.385806 
L 150.112433 140.0278 
L 150.344045 139.717996 
L 150.193638 139.35999 
L 150.425251 139.050186 
L 150.274844 138.692181 
L 149.892822 138.643979 
L 149.742413 138.285974 
L 149.974027 137.97617 
L 149.823618 137.618164 
L 150.055233 137.30836 
L 149.904823 136.950354 
L 150.136439 136.640551 
L 149.986029 136.282545 
L 149.604001 136.234343 
L 149.453589 135.876338 
L 149.685206 135.566534 
L 149.534794 135.208528 
L 149.766412 134.898725 
L 149.615999 134.540719 
L 149.233967 134.492517 
L 149.083553 134.134511 
L 149.315172 133.824707 
L 149.164757 133.466702 
L 149.396377 133.156899 
L 149.245962 132.798893 
L 149.477582 132.48909 
L 149.327167 132.131084 
L 148.945129 132.082881 
L 148.794712 131.724875 
L 149.026334 131.415072 
L 148.875916 131.057066 
L 149.107539 130.747264 
L 148.957121 130.389257 
L 149.188745 130.079456 
L 149.038326 129.721449 
L 148.656283 129.673245 
L 148.505862 129.315239 
L 148.737487 129.005437 
L 149.119532 129.053642 
L 149.351158 128.743841 
L 149.733203 128.792047 
L 149.96483 128.482248 
L 150.346874 128.530456 
L 150.578501 128.220658 
L 150.960545 128.268867 
L 151.192174 127.959071 
L 151.574217 128.007282 
L 151.805847 127.697486 
L 152.18789 127.745699 
L 152.419521 127.435905 
L 152.801563 127.484119 
L 152.951974 127.842126 
L 153.334014 127.890341 
L 153.565646 127.58055 
L 153.947686 127.628766 
L 154.179319 127.318976 
L 154.561359 127.367194 
L 154.792992 127.057404 
L 155.175032 127.105624 
L 155.406666 126.795836 
L 155.788705 126.844057 
L 156.020341 126.534271 
L 156.402379 126.582494 
L 156.634016 126.272709 
L 157.016054 126.320933 
L 157.247691 126.011149 
L 157.629729 126.059375 
L 157.780128 126.417384 
L 158.162164 126.465611 
L 158.393802 126.155829 
L 158.775838 126.204057 
L 159.007477 125.894277 
L 159.389512 125.942507 
L 159.539907 126.300516 
L 159.92194 126.348747 
L 160.15358 126.038969 
L 160.535613 126.087201 
L 160.686005 126.445211 
L 161.068036 126.493444 
L 161.299677 126.183668 
L 161.681708 126.231903 
L 161.91335 125.922128 
L 162.29538 125.970365 
L 162.445767 126.328375 
L 162.827795 126.376612 
L 163.059438 126.06684 
L 163.441466 126.115079 
L 163.59185 126.473089 
L 163.973876 126.521329 
L 164.20552 126.211559 
L 164.587546 126.2598 
L 164.737927 126.617811 
L 165.119951 126.666053 
L 165.351596 126.356285 
L 165.733619 126.404529 
L 165.965265 126.094762 
L 166.347288 126.143007 
L 166.497664 126.501018 
L 166.879686 126.549265 
L 167.111333 126.2395 
L 167.493354 126.287748 
L 167.643727 126.645759 
L 168.025746 126.694008 
L 168.257394 126.384246 
L 168.639412 126.432496 
L 168.871061 126.122735 
L 169.253079 126.170986 
L 169.403448 126.528999 
L 169.785464 126.577251 
L 170.017114 126.267492 
L 170.39913 126.315747 
L 170.549495 126.673759 
L 170.317846 126.983517 
L 170.46821 127.34153 
L 170.850223 127.389784 
L 171.000586 127.747797 
L 171.382598 127.796052 
L 171.532959 128.154065 
L 171.914968 128.202321 
L 172.065328 128.560334 
L 171.833679 128.87009 
L 171.984038 129.228102 
L 172.366044 129.276359 
L 172.516402 129.634372 
L 172.898406 129.682629 
L 173.048762 130.040642 
L 173.430764 130.088901 
L 173.581118 130.446913 
L 173.963119 130.495173 
L 174.113471 130.853186 
L 173.881824 131.162939 
L 174.032175 131.520952 
L 174.414173 131.569212 
L 174.564523 131.927225 
L 174.946519 131.975485 
L 175.096867 132.333498 
L 175.478861 132.38176 
L 175.629208 132.739773 
L 176.0112 132.788036 
L 176.161545 133.146049 
L 175.929898 133.455799 
L 176.080242 133.813813 
L 176.462232 133.862075 
L 176.612574 134.220089 
L 176.994561 134.268352 
L 177.144902 134.626366 
L 177.526888 134.67463 
L 177.677227 135.032644 
L 177.445581 135.342392 
L 177.59592 135.700406 
L 177.977902 135.74867 
L 178.128239 136.106684 
L 178.51022 136.15495 
L 178.660555 136.512963 
L 179.042534 136.56123 
L 179.192867 136.919244 
L 179.574844 136.967511 
L 179.725176 137.325525 
L 179.493532 137.635271 
L 179.643863 137.993284 
L 180.025837 138.041552 
L 180.176166 138.399566 
L 180.558138 138.447835 
L 180.708466 138.805849 
L 181.090436 138.854119 
L 181.240762 139.212132 
L 181.622731 139.260403 
L 181.773055 139.618417 
L 181.541412 139.92816 
L 181.691735 140.286174 
L 182.073701 140.334445 
L 182.224023 140.692459 
L 182.605987 140.740731 
L 182.756307 141.098745 
L 183.138269 141.147018 
L 183.288587 141.505032 
L 183.056945 141.814773 
L 183.207263 142.172787 
L 183.589222 142.22106 
L 183.739538 142.579075 
L 184.121495 142.627349 
L 184.271809 142.985363 
L 184.653765 143.033638 
L 184.804077 143.391652 
L 185.186031 143.439928 
L 185.336342 143.797943 
L 185.104701 144.107681 
L 185.255011 144.465695 
L 185.636962 144.513971 
L 185.78727 144.871986 
L 186.169219 144.920263 
L 186.319526 145.278278 
L 186.701473 145.326556 
L 186.851778 145.68457 
L 187.233723 145.732849 
L 187.384026 146.090864 
L 187.152387 146.400599 
L 187.30269 146.758614 
L 187.684631 146.806893 
L 187.834933 147.164908 
L 188.216873 147.213188 
L 188.367172 147.571203 
L 188.749111 147.619484 
L 188.899409 147.977499 
L 188.66777 148.287233 
L 188.818067 148.645247 
L 189.200002 148.693529 
L 189.350298 149.051544 
L 189.732231 149.099826 
L 189.882525 149.457841 
L 190.264457 149.506124 
L 190.414749 149.864139 
L 190.796678 149.912423 
L 190.946969 150.270438 
L 190.715331 150.580169 
L 190.865621 150.938184 
L 191.247548 150.986469 
L 191.397836 151.344484 
L 191.779761 151.392769 
L 191.930047 151.750785 
L 192.31197 151.799071 
L 192.462255 152.157086 
L 192.844176 152.205373 
L 192.994459 152.563389 
L 192.762823 152.873117 
L 192.913105 153.231132 
L 193.295023 153.27942 
L 193.445304 153.637435 
L 193.82722 153.685723 
L 193.977499 154.043739 
L 194.359414 154.092028 
L 194.509691 154.450044 
L 194.278056 154.75977 
L 194.428333 155.117786 
L 194.810244 155.166075 
L 194.960519 155.524091 
L 195.342429 155.572381 
L 195.492702 155.930397 
L 195.87461 155.978688 
L 196.024881 156.336704 
L 196.406787 156.384996 
L 196.557057 156.743012 
L 196.325423 157.052736 
L 196.475692 157.410752 
L 196.857595 157.459044 
L 197.007863 157.81706 
L 197.389764 157.865354 
L 197.54003 158.22337 
L 197.921929 158.271664 
L 198.072193 158.62968 
L 198.454091 158.677975 
L 198.604353 159.035992 
L 198.37272 159.345712 
L 198.522982 159.703728 
L 198.904876 159.752024 
L 199.055136 160.11004 
L 199.437029 160.158337 
L 199.668662 159.848618 
L 199.518403 159.490601 
L 199.750038 159.180883 
L 199.599778 158.822866 
L 199.831414 158.513148 
L 199.681154 158.155132 
L 199.299257 158.106833 
L 199.148996 157.748817 
L 199.380632 157.439099 
L 199.23037 157.081082 
L 199.462008 156.771364 
L 199.311746 156.413348 
L 199.543384 156.103631 
L 199.393121 155.745614 
L 199.624761 155.435897 
L 199.474498 155.07788 
L 199.092594 155.02958 
L 198.942329 154.671563 
L 199.173969 154.361846 
L 199.023704 154.003829 
L 199.255346 153.694113 
L 199.10508 153.336096 
L 199.336722 153.02638 
L 199.186457 152.668363 
L 199.4181 152.358647 
L 199.267834 152.00063 
L 198.885923 151.952329 
L 198.735655 151.594312 
L 198.967299 151.284596 
L 198.817031 150.926579 
L 199.048676 150.616863 
L 198.898407 150.258846 
L 199.130053 149.949131 
L 198.979784 149.591114 
L 199.211432 149.2814 
L 199.061162 148.923382 
L 198.679244 148.875079 
L 198.528973 148.517061 
L 198.760621 148.207347 
L 198.610349 147.849329 
L 198.841998 147.539615 
L 198.691726 147.181598 
L 198.309804 147.133294 
L 198.15953 146.775277 
L 198.39118 146.465562 
L 198.240906 146.107545 
L 198.472557 145.797831 
L 198.322283 145.439813 
L 197.940356 145.391509 
L 197.790079 145.033492 
L 198.021732 144.723778 
L 197.871455 144.36576 
L 198.103108 144.056046 
L 197.952831 143.698028 
L 197.570899 143.649724 
L 197.420621 143.291706 
L 197.652275 142.981993 
L 197.501996 142.623975 
L 197.733651 142.314261 
L 197.583371 141.956243 
L 197.201435 141.907939 
L 197.051154 141.549921 
L 197.28281 141.240207 
L 197.132528 140.882189 
L 197.364186 140.572476 
L 197.213904 140.214458 
L 196.831963 140.166153 
L 196.681679 139.808135 
L 196.913337 139.498422 
L 196.763053 139.140404 
L 196.994712 138.830691 
L 196.844428 138.472672 
L 196.462483 138.424367 
L 196.312196 138.066349 
L 196.543857 137.756636 
L 196.39357 137.398618 
L 196.625231 137.088905 
L 196.474944 136.730887 
L 196.092994 136.682581 
L 195.942705 136.324563 
L 196.174368 136.01485 
L 196.024078 135.656832 
L 196.255742 135.347119 
L 196.105452 134.989101 
L 195.723498 134.940795 
L 195.573206 134.582776 
L 195.804871 134.273064 
L 195.654579 133.915045 
L 195.886244 133.605333 
L 195.735952 133.247314 
L 195.353993 133.199008 
L 195.203699 132.84099 
L 195.435366 132.531277 
L 195.285072 132.173259 
L 195.516739 131.863547 
L 195.366444 131.505528 
L 195.598113 131.195816 
L 195.447818 130.837798 
L 195.679487 130.528087 
L 196.061451 130.576395 
L 196.293121 130.266686 
L 196.675085 130.314996 
L 196.906757 130.005288 
L 197.28872 130.053599 
L 197.520392 129.743892 
L 197.370101 129.385873 
L 197.601774 129.076167 
L 197.983739 129.12448 
L 198.215413 128.814775 
L 198.597377 128.863091 
L 198.829052 128.553387 
L 199.211015 128.601704 
L 199.442691 128.292002 
L 199.292404 127.933982 
L 199.524081 127.62428 
L 199.906046 127.672599 
L 200.137724 127.362898 
L 200.519688 127.411219 
L 200.751367 127.10152 
L 200.601082 126.743499 
L 200.832762 126.433801 
L 201.214727 126.482124 
L 201.446408 126.172426 
L 201.828372 126.220751 
L 202.060054 125.911055 
L 202.442018 125.959381 
L 202.673701 125.649686 
L 202.52342 125.291665 
L 202.755104 124.981971 
L 203.137069 125.030299 
L 203.368753 124.720606 
L 203.750718 124.768936 
L 203.982404 124.459244 
L 203.832125 124.101222 
L 204.063812 123.791531 
L 204.445777 123.839863 
L 204.677465 123.530174 
L 205.05943 123.578507 
L 205.291119 123.268819 
L 205.673084 123.317154 
L 205.904773 123.007467 
L 205.754498 122.649445 
L 205.986189 122.339758 
L 206.368155 122.388095 
L 206.599846 122.07841 
L 206.981811 122.126749 
L 207.213504 121.817065 
L 207.595469 121.865406 
L 207.827162 121.555723 
L 207.676891 121.1977 
L 207.908586 120.888018 
L 208.290551 120.936361 
L 208.522247 120.62668 
L 208.904212 120.675024 
L 209.135909 120.365345 
L 208.98564 120.007321 
L 209.217337 119.697643 
L 209.599303 119.745989 
L 209.831002 119.436312 
L 210.212968 119.484659 
L 210.444667 119.174983 
L 210.826632 119.223333 
L 211.058333 118.913658 
L 210.908068 118.555634 
L 211.139769 118.24596 
L 211.521735 118.294311 
L 211.753437 117.984638 
L 212.135403 118.032991 
L 212.367107 117.72332 
L 212.749072 117.771674 
L 212.980776 117.462004 
L 212.830515 117.103979 
L 213.06222 116.79431 
L 213.444187 116.842666 
L 213.675893 116.532998 
L 213.525632 116.174973 
L 213.75734 115.865305 
L 213.607079 115.50728 
L 213.22511 115.458922 
L 213.074847 115.100896 
L 213.306556 114.791228 
L 213.156293 114.433203 
L 212.774321 114.384845 
L 212.624056 114.02682 
L 212.855765 113.717152 
L 212.7055 113.359126 
L 212.323525 113.310769 
L 212.173258 112.952743 
L 212.404968 112.643075 
L 212.254701 112.285049 
L 211.872723 112.236692 
L 211.722454 111.878667 
L 211.954165 111.568998 
L 211.803896 111.210972 
L 211.421914 111.162616 
L 211.271643 110.80459 
L 211.503356 110.494921 
L 211.353084 110.136895 
L 211.584798 109.827227 
L 211.434526 109.469201 
L 211.66624 109.159533 
L 211.515968 108.801507 
L 211.747683 108.49184 
L 211.597411 108.133814 
L 211.829127 107.824147 
L 211.678854 107.466121 
L 211.910571 107.156454 
L 211.760298 106.798428 
L 211.992016 106.488762 
L 211.841743 106.130736 
L 212.073462 105.821071 
L 212.455454 105.869432 
L 212.687175 105.559768 
L 212.536902 105.201742 
L 212.768623 104.892078 
L 212.61835 104.534052 
L 212.850072 104.224389 
L 212.699799 103.866362 
L 212.931522 103.556699 
L 212.781248 103.198672 
L 213.012972 102.88901 
L 212.862698 102.530984 
L 213.094423 102.221322 
L 212.944149 101.863295 
L 213.175875 101.553634 
L 213.0256 101.195607 
L 213.257327 100.885947 
L 213.107052 100.527919 
L 213.33878 100.218259 
L 213.188505 99.860232 
L 213.420234 99.550573 
L 213.802238 99.598942 
L 214.033968 99.289284 
L 213.883694 98.931256 
L 214.115424 98.621598 
L 213.96515 98.263571 
L 214.196881 97.953914 
L 214.046606 97.595886 
L 214.278339 97.286229 
L 214.128064 96.928202 
L 214.359797 96.618546 
L 214.209521 96.260518 
L 214.441256 95.950862 
L 214.29098 95.592834 
L 214.522716 95.283179 
L 214.372439 94.925151 
L 214.604176 94.615497 
L 214.453899 94.257468 
L 214.685637 93.947814 
L 215.067652 93.99619 
L 215.29939 93.686537 
L 215.149114 93.328509 
L 214.767098 93.280133 
L 214.535359 93.589786 
L 214.153342 93.541411 
L 214.003063 93.183383 
L 213.621045 93.135009 
L 213.470764 92.776981 
L 213.088743 92.728609 
L 212.938461 92.37058 
L 212.556438 92.322209 
L 212.3247 92.631866 
L 211.942678 92.583496 
L 211.792392 92.225468 
L 211.410368 92.177098 
L 211.26008 91.819071 
L 210.878054 91.770702 
L 210.727764 91.412675 
L 210.345736 91.364307 
L 210.113999 91.673968 
L 209.731971 91.625602 
L 209.581678 91.267575 
L 209.199648 91.21921 
L 209.049354 90.861183 
L 208.667322 90.812819 
L 208.435586 91.122482 
L 208.053553 91.07412 
L 207.903256 90.716093 
L 207.521222 90.667731 
L 207.370923 90.309704 
L 206.988887 90.261344 
L 206.838586 89.903317 
L 206.456548 89.854957 
L 206.306245 89.496931 
L 205.924205 89.448572 
L 205.773901 89.090545 
L 205.39186 89.042187 
L 205.241553 88.684161 
L 205.47329 88.374492 
L 205.322983 88.016465 
L 204.940938 87.968108 
L 204.79063 87.610081 
L 205.022367 87.300412 
L 204.872058 86.942385 
L 204.490011 86.894028 
L 204.3397 86.536002 
L 204.571438 86.226332 
L 204.421127 85.868305 
L 204.039077 85.819948 
L 203.888764 85.461922 
L 203.506711 85.413566 
L 203.356397 85.055539 
L 203.588136 84.745869 
L 203.437821 84.387842 
L 203.055766 84.339487 
L 202.905449 83.98146 
L 203.137189 83.671789 
L 202.986872 83.313763 
L 202.604813 83.265407 
L 202.454495 82.907381 
L 202.072434 82.859026 
L 201.922113 82.501 
L 202.153855 82.191328 
L 202.003534 81.833301 
L 201.62147 81.784947 
L 201.471147 81.426921 
L 201.70289 81.117248 
L 201.552567 80.759222 
L 201.1705 80.710868 
L 201.020175 80.352842 
L 200.638106 80.304489 
L 200.48778 79.946462 
L 200.719523 79.636789 
L 200.569196 79.278763 
L 200.187124 79.23041 
L 200.036795 78.872384 
L 200.26854 78.56271 
L 200.118211 78.204684 
L 199.736136 78.156331 
L 199.585805 77.798305 
L 199.81755 77.488631 
L 199.667219 77.130605 
L 199.285141 77.082252 
L 199.134808 76.724226 
L 198.752728 76.675875 
L 198.602393 76.317849 
L 198.83414 76.008174 
L 198.683804 75.650147 
L 198.301721 75.601796 
L 198.151384 75.24377 
L 198.383132 74.934095 
L 198.232795 74.576069 
L 197.850708 74.527718 
L 197.700369 74.169692 
L 197.932118 73.860016 
L 197.781778 73.50199 
L 197.399689 73.453639 
L 197.249348 73.095613 
L 197.481097 72.785937 
L 197.330756 72.427911 
L 196.948663 72.379561 
L 196.79832 72.021535 
L 197.030071 71.711858 
L 196.879727 71.353832 
L 196.497631 71.305482 
L 196.347286 70.947456 
L 196.579037 70.63778 
L 196.428691 70.279753 
L 196.046592 70.231404 
L 195.896245 69.873378 
L 196.127997 69.563701 
L 195.977649 69.205675 
L 195.595547 69.157325 
L 195.445198 68.799299 
L 195.063094 68.750951 
L 194.912742 68.392925 
L 195.144496 68.083247 
L 194.994144 67.725221 
L 194.612037 67.676873 
L 194.461683 67.318847 
L 194.693438 67.009168 
L 194.543084 66.651142 
L 194.160974 66.602795 
L 194.010618 66.244769 
L 194.242374 65.93509 
L 194.092018 65.577064 
L 193.709904 65.528716 
L 193.559546 65.17069 
L 193.791303 64.861011 
L 193.640945 64.502985 
L 193.258828 64.454638 
L 193.108468 64.096612 
L 193.340226 63.786933 
L 193.189865 63.428907 
L 193.421624 63.119228 
L 193.271263 62.761202 
L 193.503023 62.451524 
L 193.352662 62.093497 
L 193.584423 61.78382 
L 193.434061 61.425793 
L 193.665823 61.116116 
L 193.515461 60.75809 
L 193.747224 60.448413 
L 193.596861 60.090386 
L 193.828625 59.78071 
L 193.678262 59.422683 
L 193.910027 59.113008 
L 193.759664 58.754981 
L 193.99143 58.445306 
L 193.841066 58.087279 
L 194.072833 57.777605 
L 193.922469 57.419578 
L 194.154237 57.109904 
L 194.003872 56.751877 
L 194.235641 56.442203 
L 194.085277 56.084176 
L 194.317046 55.774503 
L 194.166681 55.416476 
L 194.398452 55.106803 
L 194.780588 55.155159 
L 194.930951 55.513187 
L 195.313085 55.561543 
L 195.544856 55.251873 
L 195.92699 55.300231 
L 196.158762 54.990563 
L 196.540895 55.038922 
L 196.691254 55.39695 
L 197.073386 55.445311 
L 197.305159 55.135644 
L 197.68729 55.184007 
L 197.919064 54.874341 
L 198.301195 54.922705 
L 198.451549 55.280734 
L 198.833677 55.329099 
L 199.065453 55.019435 
L 199.447581 55.067802 
L 199.679357 54.75814 
L 200.061485 54.806508 
L 200.211835 55.164537 
L 200.593961 55.212906 
L 200.825738 54.903246 
L 201.207863 54.951616 
L 201.439642 54.641958 
L 201.821767 54.69033 
L 201.972112 55.048359 
L 202.354235 55.096732 
L 202.586015 54.787076 
L 202.968137 54.83545 
L 203.199917 54.525796 
L 203.58204 54.574171 
L 203.813821 54.264518 
L 204.195943 54.312895 
L 204.346282 54.670926 
L 204.728403 54.719304 
L 204.960185 54.409653 
L 205.342304 54.458033 
L 205.574087 54.148383 
L 205.956207 54.196764 
L 206.106541 54.554795 
L 206.488659 54.603177 
L 206.720443 54.293529 
L 207.10256 54.341913 
L 207.334345 54.032267 
L 207.716462 54.080652 
L 207.866792 54.438684 
L 208.248907 54.48707 
L 208.480693 54.177426 
L 208.862807 54.225814 
L 209.094594 53.916171 
L 209.476708 53.96456 
L 209.627034 54.322592 
L 210.009146 54.370982 
L 210.240934 54.061342 
L 210.623045 54.109734 
L 210.854834 53.800094 
L 211.236945 53.848488 
L 211.387267 54.20652 
L 211.769376 54.254914 
L 212.001166 53.945277 
L 212.383275 53.993673 
L 212.615066 53.684037 
L 212.997174 53.732435 
L 213.147491 54.090468 
L 213.529598 54.138866 
L 213.761389 53.829232 
L 214.143496 53.877632 
L 214.375288 53.568 
L 214.757394 53.616402 
L 214.907707 53.974435 
L 215.289811 54.022837 
L 215.521604 53.713207 
L 215.903708 53.761611 
L 216.054017 54.119644 
L 216.436119 54.168049 
L 216.667914 53.858421 
L 217.050015 53.906828 
L 217.200321 54.264862 
L 217.582421 54.313269 
L 217.814216 54.003643 
L 218.196316 54.052052 
L 218.346618 54.410086 
L 218.728716 54.458496 
L 218.960512 54.148872 
L 219.342609 54.197284 
L 219.492909 54.555318 
L 219.875004 54.60373 
L 220.025302 54.961765 
L 220.407396 55.010178 
L 220.639193 54.700557 
L 221.021286 54.748972 
L 221.17158 55.107007 
L 221.553672 55.155423 
L 221.78547 54.845804 
L 222.167561 54.894221 
L 222.317852 55.252257 
L 222.699941 55.300675 
L 222.93174 54.991058 
L 223.313829 55.039478 
L 223.464118 55.397513 
L 223.846204 55.445934 
L 224.078004 55.13632 
L 224.460091 55.184742 
L 224.610376 55.542778 
L 224.992461 55.591201 
L 225.142744 55.949237 
L 225.524827 55.997661 
L 225.756628 55.68805 
L 226.13871 55.736475 
L 226.288991 56.094511 
L 226.671071 56.142938 
L 226.902873 55.833329 
L 227.284953 55.881757 
L 227.43523 56.239793 
L 227.817309 56.288222 
L 228.049112 55.978615 
L 228.43119 56.027046 
L 228.581463 56.385082 
L 228.96354 56.433514 
L 229.195343 56.123909 
L 229.577419 56.172342 
L 229.72769 56.530379 
L 230.109764 56.578813 
L 230.260033 56.93685 
L 230.642105 56.985285 
L 230.87391 56.675683 
L 231.255981 56.724119 
L 231.406247 57.082157 
L 231.788317 57.130594 
L 232.020123 56.820995 
L 232.402192 56.869433 
L 232.552455 57.227471 
L 232.934523 57.275911 
L 233.166329 56.966313 
L 233.548397 57.014755 
L 233.698656 57.372793 
L 234.080722 57.421235 
L 234.312529 57.11164 
L 234.694594 57.160084 
L 234.844851 57.518122 
L 235.226914 57.566566 
L 235.377168 57.924605 
L 235.75923 57.97305 
L 235.991038 57.663458 
L 236.373099 57.711905 
L 236.523351 58.069944 
L 236.90541 58.118392 
L 237.137219 57.808802 
L 237.519278 57.857252 
L 237.669526 58.21529 
L 238.051584 58.263741 
L 238.283394 57.954153 
L 238.66545 58.002605 
L 238.815695 58.360644 
L 239.19775 58.409097 
L 239.429561 58.099512 
L 239.811616 58.147966 
L 239.961858 58.506006 
L 240.34391 58.554461 
L 240.575722 58.244878 
L 240.957775 58.293335 
L 241.189588 57.983753 
L 241.571639 58.032211 
L 241.721877 58.390251 
L 242.103927 58.438711 
L 242.335741 58.129131 
L 242.71779 58.177592 
L 242.868024 58.535632 
L 243.250072 58.584094 
L 243.481887 58.274516 
L 243.863934 58.32298 
L 244.09575 58.013404 
L 244.477797 58.061869 
L 244.628027 58.419909 
L 245.010072 58.468375 
L 245.241888 58.158801 
L 245.623933 58.207269 
L 245.77416 58.56531 
L 246.156203 58.613778 
L 246.38802 58.304206 
L 246.770063 58.352676 
L 247.001881 58.043105 
L 247.383923 58.091577 
L 247.534145 58.449618 
L 247.916185 58.498091 
L 248.148005 58.188522 
L 248.530045 58.236996 
L 248.680264 58.595038 
L 249.062302 58.643513 
L 249.294122 58.333947 
L 249.67616 58.382423 
L 249.826375 58.740465 
L 250.208411 58.788942 
L 250.440233 58.479378 
L 250.822268 58.527857 
L 251.05409 58.218294 
L 251.436125 58.266775 
L 251.586336 58.624817 
L 251.968369 58.673299 
L 252.200193 58.363738 
L 252.582225 58.412221 
L 252.732433 58.770264 
L 253.114464 58.818748 
L 253.346288 58.509189 
L 253.728319 58.557675 
L 253.960144 58.248118 
L 254.342174 58.296605 
L 254.492377 58.654648 
L 254.874406 58.703136 
L 255.106232 58.393581 
L 255.48826 58.44207 
L 255.63846 58.800114 
L 256.020486 58.848604 
L 256.252313 58.539051 
L 256.634338 58.587543 
L 256.866166 58.277992 
L 257.248191 58.326485 
L 257.398387 58.684529 
L 257.780411 58.733024 
L 258.012239 58.423475 
L 258.394262 58.47197 
L 258.544455 58.830015 
L 258.926476 58.878512 
L 259.158306 58.568965 
L 259.540327 58.617463 
L 259.772157 58.307917 
L 260.154178 58.356417 
L 260.304366 58.714462 
L 260.686384 58.762963 
L 260.918216 58.453419 
L 261.300234 58.501922 
L 261.450419 58.859967 
L 261.832435 58.90847 
L 262.064268 58.598929 
L 262.446283 58.647434 
L 262.596465 59.005479 
L 262.978479 59.053985 
L 263.210313 58.744446 
L 263.592326 58.792953 
L 263.824161 58.483415 
L 264.206174 58.531924 
L 264.356351 58.88997 
L 264.738362 58.93848 
L 264.970198 58.628944 
L 265.352209 58.677455 
L 265.502383 59.035502 
L 265.884392 59.084014 
L 266.116228 58.77448 
L 266.498237 58.822994 
L 266.730074 58.513462 
L 267.112082 58.561977 
L 267.262252 58.920024 
L 267.644258 58.96854 
L 267.876097 58.65901 
L 268.258103 58.707528 
L 268.408269 59.065575 
L 268.790273 59.114094 
L 269.022112 58.804566 
L 269.404116 58.853086 
L 269.635956 58.54356 
L 270.01796 58.592081 
L 270.168121 58.950129 
L 270.550123 58.998652 
L 270.781964 58.689127 
L 271.163965 58.737652 
L 271.314124 59.095699 
L 271.696123 59.144225 
L 271.927965 58.834703 
L 272.309964 58.883229 
L 272.541807 58.573709 
L 272.923805 58.622237 
L 273.07396 58.980285 
L 273.455956 59.028814 
L 273.6878 58.719296 
L 274.069796 58.767826 
L 274.219947 59.125875 
L 274.601942 59.174407 
L 274.833786 58.86489 
L 275.21578 58.913423 
L 275.447626 58.603908 
L 275.82962 58.652443 
L 275.979766 59.010492 
L 276.361758 59.059028 
L 276.593605 58.749515 
L 276.975596 58.798052 
L 277.125739 59.156102 
L 277.507729 59.20464 
L 277.739576 58.895129 
L 278.121565 58.943669 
L 278.271705 59.301718 
L 278.653693 59.350259 
L 278.885541 59.04075 
L 279.267528 59.089292 
L 279.499378 58.779785 
L 279.881364 58.828329 
L 280.0315 59.186379 
L 280.413484 59.234924 
L 280.645335 58.925419 
L 281.027319 58.973965 
L 281.177451 59.332015 
L 281.559434 59.380562 
L 281.709564 59.738613 
L 282.091545 59.787161 
L 282.323396 59.477659 
L 282.705376 59.526208 
L 282.855504 59.884259 
L 283.237482 59.93281 
L 283.469334 59.62331 
L 283.851312 59.671862 
L 284.001437 60.029913 
L 284.383413 60.078466 
L 284.533535 60.436517 
L 284.915509 60.485071 
L 285.147363 60.175574 
L 285.529337 60.224129 
L 285.679456 60.582181 
L 286.061428 60.630737 
L 286.211546 60.988789 
L 286.593516 61.037346 
L 286.82537 60.727852 
L 287.20734 60.776411 
L 287.357454 61.134463 
L 287.739422 61.183022 
L 287.971277 60.873531 
L 288.353245 60.922092 
L 288.503356 61.280144 
L 288.885322 61.328706 
L 289.035432 61.686758 
L 289.417396 61.735321 
L 289.649251 61.425833 
L 290.031215 61.474397 
L 290.181321 61.83245 
L 290.563283 61.881015 
L 290.713388 62.239068 
L 291.095348 62.287634 
L 291.327205 61.978149 
L 291.709164 62.026717 
L 291.859266 62.38477 
L 292.241223 62.433339 
L 292.473081 62.123855 
L 292.855038 62.172425 
L 293.005137 62.530479 
L 293.387092 62.57905 
L 293.537189 62.937103 
L 293.305331 63.246585 
L 293.455427 63.604638 
L 293.837379 63.65321 
L 293.987474 64.011263 
L 293.755617 64.320745 
L 293.905711 64.678798 
L 294.28766 64.72737 
L 294.437753 65.085423 
L 294.205897 65.394905 
L 294.355989 65.752958 
L 294.737935 65.80153 
L 294.888025 66.159583 
L 294.65617 66.469064 
L 294.80626 66.827118 
L 295.188203 66.87569 
L 295.338291 67.233743 
L 295.106437 67.543224 
L 295.256525 67.901277 
L 295.638464 67.94985 
L 295.78855 68.307903 
L 295.556698 68.617384 
L 295.706783 68.975437 
L 296.08872 69.02401 
L 296.238803 69.382063 
L 296.006952 69.691543 
L 296.157035 70.049596 
L 296.538968 70.09817 
L 296.68905 70.456223 
L 296.457199 70.765703 
L 296.607281 71.123756 
L 296.989211 71.17233 
L 297.13929 71.530383 
L 296.907441 71.839862 
L 297.05752 72.197916 
L 297.439447 72.246489 
L 297.589524 72.604543 
L 297.357676 72.914022 
L 297.507752 73.272075 
L 297.889676 73.320649 
L 298.039752 73.678703 
L 297.807904 73.988181 
L 297.957979 74.346235 
L 298.3399 74.394809 
L 298.489973 74.752862 
L 298.258126 75.062341 
L 298.408199 75.420394 
L 298.790116 75.468969 
L 298.940187 75.827022 
L 298.708342 76.1365 
L 298.858412 76.494554 
L 299.240327 76.543129 
L 299.390395 76.901182 
L 299.158551 77.21066 
L 299.308619 77.568713 
L 299.690531 77.617288 
L 299.840597 77.975342 
L 299.608754 78.284819 
L 299.75882 78.642872 
L 300.140728 78.691448 
L 300.290793 79.049501 
L 300.05895 79.358979 
L 300.209014 79.717032 
L 300.590919 79.765608 
L 300.740981 80.123661 
L 300.50914 80.433138 
L 300.659202 80.791191 
L 301.041104 80.839767 
L 301.191164 81.197821 
L 300.959324 81.507298 
L 301.109383 81.865351 
L 301.491282 81.913927 
L 301.64134 82.27198 
L 301.409501 82.581457 
L 301.559559 82.93951 
L 301.941454 82.988087 
L 302.09151 83.34614 
L 301.859672 83.655616 
L 302.009727 84.013669 
L 302.39162 84.062246 
L 302.541673 84.420299 
L 302.309836 84.729775 
L 302.459889 85.087829 
L 302.841779 85.136406 
L 302.99183 85.494459 
L 302.759994 85.803935 
L 302.910045 86.161988 
L 303.291931 86.210565 
L 303.441981 86.568619 
L 303.210145 86.878094 
L 303.360195 87.236147 
L 303.742077 87.284725 
L 303.892125 87.642778 
L 303.660291 87.952253 
L 303.810337 88.310306 
L 304.192217 88.358884 
L 304.342262 88.716938 
L 304.110429 89.026412 
L 304.260474 89.384465 
L 304.642351 89.433044 
L 304.792394 89.791097 
L 304.560562 90.100571 
L 304.710604 90.458624 
L 305.092478 90.507203 
L 305.242519 90.865256 
L 305.010687 91.17473 
L 305.160728 91.532784 
L 305.542598 91.581363 
L 305.692637 91.939416 
L 305.460807 92.24889 
L 305.610845 92.606943 
L 305.992712 92.655522 
L 306.142749 93.013575 
L 305.91092 93.323049 
L 306.060956 93.681102 
L 306.44282 93.729681 
L 306.592855 94.087734 
L 306.361027 94.397208 
L 306.511061 94.755261 
L 306.892921 94.803841 
L 307.042954 95.161894 
L 306.811127 95.471367 
L 306.961159 95.82942 
L 307.343016 95.878 
L 307.493047 96.236053 
L 307.261221 96.545526 
L 307.41125 96.903579 
L 307.793105 96.952159 
L 307.943133 97.310212 
L 307.711308 97.619684 
L 307.861336 97.977737 
L 308.243187 98.026318 
L 308.393213 98.384371 
L 308.161389 98.693843 
L 308.311415 99.051896 
L 308.693263 99.100477 
L 308.843287 99.45853 
L 308.611464 99.768002 
L 308.761487 100.126055 
L 308.529665 100.435527 
L 308.679688 100.79358 
L 309.061532 100.842161 
L 309.211553 101.200214 
L 308.979732 101.509686 
L 309.129753 101.867739 
L 309.511594 101.91632 
L 309.661613 102.274373 
L 309.429793 102.583844 
L 309.579812 102.941897 
L 309.961649 102.990478 
L 310.111666 103.348531 
L 309.879847 103.658003 
L 310.029864 104.016056 
L 310.411698 104.064637 
L 310.561713 104.42269 
L 310.329895 104.732161 
L 310.479909 105.090214 
L 310.86174 105.138796 
L 311.011753 105.496849 
L 310.779936 105.80632 
L 310.929949 106.164372 
L 311.311777 106.212954 
L 311.461787 106.571007 
L 311.229971 106.880478 
L 311.379982 107.238531 
L 311.761806 107.287113 
L 311.911815 107.645166 
L 311.68 107.954636 
L 311.830008 108.312689 
L 312.21183 108.361272 
L 312.361836 108.719324 
L 312.130022 109.028794 
L 312.280028 109.386847 
L 312.661847 109.43543 
L 312.811851 109.793483 
L 312.580038 110.102953 
L 312.730042 110.461005 
L 313.111857 110.509589 
L 313.261859 110.867641 
L 313.030047 111.177111 
L 313.180049 111.535163 
L 313.561861 111.583747 
L 313.711861 111.9418 
L 313.48005 112.251269 
L 313.63005 112.609321 
L 314.011859 112.657905 
L 314.161857 113.015958 
L 313.930047 113.325427 
L 314.080044 113.68348 
L 314.46185 113.732064 
L 314.611846 114.090116 
L 314.380037 114.399585 
L 314.530032 114.757638 
L 314.911835 114.806222 
L 315.061829 115.164275 
L 314.830021 115.473743 
L 314.980014 115.831795 
L 314.748207 116.141264 
L 314.8982 116.499317 
L 315.279998 116.547901 
L 315.429989 116.905953 
L 315.198184 117.215422 
L 315.348174 117.573474 
L 315.729969 117.622059 
L 315.879958 117.980111 
L 315.648153 118.289579 
L 315.798142 118.647632 
L 315.566338 118.9571 
L 315.716326 119.315153 
L 316.098117 119.363737 
L 316.248103 119.721789 
L 316.016301 120.031258 
L 316.166287 120.38931 
L 315.934485 120.698779 
L 316.084471 121.056831 
L 315.85267 121.366301 
L 316.002655 121.724353 
L 315.770856 122.033823 
L 315.92084 122.391875 
L 315.689042 122.701345 
L 315.839026 123.059397 
L 315.607229 123.368868 
L 315.757213 123.72692 
L 316.138993 123.775501 
L 316.288976 124.133553 
L 316.057179 124.443024 
L 316.207161 124.801076 
L 315.975365 125.110547 
L 316.125347 125.468598 
L 315.893552 125.77807 
L 316.043534 126.136122 
L 315.81174 126.445594 
L 315.961721 126.803645 
L 315.729928 127.113118 
L 315.879909 127.47117 
L 316.26168 127.519749 
L 316.411659 127.8778 
L 316.179868 128.187273 
L 316.329846 128.545324 
L 316.711615 128.593903 
L 316.861591 128.951955 
L 316.629801 129.261427 
L 316.779777 129.619478 
L 317.161542 129.668058 
L 317.311517 130.026109 
L 317.079727 130.335581 
L 317.229701 130.693632 
L 316.997913 131.003105 
L 317.147886 131.361156 
L 317.529647 131.409735 
L 317.679619 131.767787 
L 317.447832 132.077259 
L 317.597803 132.43531 
L 317.979561 132.483889 
L 318.129531 132.841941 
L 317.897745 133.151412 
L 318.047714 133.509464 
L 318.429469 133.558043 
L 318.579436 133.916095 
L 318.347651 134.225566 
L 318.497618 134.583617 
L 318.87937 134.632197 
L 319.029335 134.990249 
L 318.797551 135.29972 
L 318.947516 135.657771 
L 319.329264 135.706351 
L 319.479228 136.064403 
L 319.247444 136.373873 
L 319.397407 136.731925 
L 319.779153 136.780505 
L 319.929114 137.138556 
L 319.697331 137.448027 
L 319.847292 137.806078 
L 320.229034 137.854659 
L 320.378994 138.21271 
L 320.760734 138.261292 
L 320.910691 138.619343 
L 320.67891 138.928813 
L 320.828867 139.286864 
L 321.210604 139.335446 
L 321.360559 139.693497 
L 321.128779 140.002967 
L 321.278734 140.361018 
L 321.660468 140.4096 
L 321.810421 140.767651 
L 321.578641 141.07712 
L 321.728594 141.435171 
L 322.110325 141.483754 
L 322.260276 141.841805 
L 322.028497 142.151274 
L 322.178448 142.509325 
L 322.560176 142.557908 
L 322.710125 142.915959 
L 323.09185 142.964543 
L 323.241798 143.322594 
L 323.01002 143.632062 
L 323.159967 143.990113 
L 322.928191 144.299581 
L 323.078137 144.657632 
L 323.459858 144.706216 
L 323.609803 145.064267 
L 323.378028 145.373734 
L 323.527972 145.731786 
L 323.296197 146.041254 
L 323.446141 146.399305 
L 323.214368 146.708773 
L 323.364311 147.066824 
L 323.132539 147.376294 
L 323.282482 147.734344 
L 323.664196 147.782926 
L 323.814138 148.140977 
L 323.582366 148.450446 
L 323.732307 148.808497 
L 323.500537 149.117966 
L 323.650478 149.476017 
L 323.418708 149.785487 
L 323.568648 150.143538 
L 323.33688 150.453008 
L 323.48682 150.811058 
L 323.255052 151.120529 
L 323.404992 151.47858 
L 323.173226 151.788051 
L 323.323165 152.146102 
L 323.091399 152.455574 
L 323.241338 152.813624 
L 323.009574 153.123096 
L 323.159512 153.481147 
L 322.927749 153.79062 
L 323.077687 154.14867 
L 322.845924 154.458143 
L 322.995862 154.816193 
L 322.7641 155.125667 
L 322.382401 155.077092 
L 322.150641 155.386568 
L 322.300579 155.744617 
L 322.06882 156.054093 
L 322.218758 156.412143 
L 321.986999 156.721619 
L 321.605303 156.673047 
L 321.373545 156.982525 
L 321.523484 157.340574 
L 321.291728 157.650053 
L 321.441667 158.008102 
L 321.209911 158.317581 
L 320.828217 158.269011 
L 320.596462 158.578492 
L 320.746402 158.93654 
L 320.514648 159.246021 
L 320.664588 159.60407 
L 320.432835 159.913551 
L 320.051143 159.864985 
L 319.819391 160.174467 
L 319.969332 160.532516 
L 319.737581 160.841999 
L 319.887521 161.200047 
L 319.655771 161.509531 
L 319.274081 161.460967 
L 319.042333 161.770452 
L 319.192274 162.1285 
L 318.960526 162.437986 
L 319.110467 162.796033 
L 318.87872 163.105519 
L 319.028661 163.463567 
L 318.796915 163.773054 
L 318.415228 163.724494 
L 318.183484 164.033982 
L 318.333425 164.392029 
L 318.101681 164.701517 
L 318.251622 165.059565 
L 318.01988 165.369054 
L 317.638195 165.320496 
L 317.406454 165.629987 
L 317.556396 165.988034 
L 317.324655 166.297525 
L 317.474597 166.655571 
L 317.242857 166.965063 
L 316.861175 166.916508 
L 316.629436 167.226001 
L 316.779379 167.584048 
L 316.547641 167.893541 
L 316.697583 168.251587 
L 316.465846 168.561081 
L 316.084167 168.512529 
L 315.85243 168.822024 
L 316.002374 169.180071 
L 315.770639 169.489566 
L 315.920582 169.847612 
L 315.688848 170.157109 
L 315.307171 170.10856 
L 315.075437 170.418057 
L 315.225382 170.776103 
L 314.993649 171.085601 
L 315.143593 171.443647 
L 314.911862 171.753145 
L 314.530187 171.704599 
L 314.298457 172.014099 
L 314.448402 172.372144 
L 314.216672 172.681645 
L 314.366617 173.03969 
L 314.748289 173.088235 
L 314.898232 173.44628 
L 314.666504 173.75578 
L 314.816446 174.113825 
L 314.584719 174.423326 
L 314.73466 174.781371 
L 315.116328 174.829916 
L 315.266268 175.187961 
L 315.034542 175.497461 
L 315.184482 175.855506 
L 314.952757 176.165007 
L 315.102696 176.523052 
L 314.870972 176.832554 
L 315.020911 177.190599 
L 315.402573 177.239142 
L 315.55251 177.597187 
L 315.320787 177.906688 
L 315.470724 178.264733 
L 315.239002 178.574235 
L 315.388938 178.93228 
L 315.157217 179.241782 
L 315.307153 179.599826 
L 315.075433 179.909329 
L 315.225369 180.267373 
L 314.993649 180.576877 
L 314.611994 180.528336 
L 314.380276 180.837841 
L 314.530213 181.195885 
L 314.298495 181.50539 
L 313.916841 181.456852 
L 313.685125 181.766358 
L 313.835063 182.124402 
L 313.603347 182.433909 
L 313.753285 182.791953 
L 313.521571 183.10146 
L 313.139919 183.052925 
L 312.908205 183.362434 
L 313.058144 183.720477 
L 312.826431 184.029986 
L 312.976369 184.38803 
L 312.744658 184.69754 
L 312.363008 184.649007 
L 312.131298 184.958518 
L 312.281237 185.316561 
L 312.049527 185.626073 
L 312.199466 185.984116 
L 311.967758 186.293628 
L 311.58611 186.245098 
L 311.354403 186.554612 
L 311.504343 186.912654 
L 311.272636 187.222168 
L 310.89099 187.173641 
L 310.659284 187.483156 
L 310.809225 187.841199 
L 310.57752 188.150715 
L 310.727461 188.508757 
L 310.495757 188.818273 
L 310.114113 188.769748 
L 309.88241 189.079266 
L 310.032352 189.437308 
L 309.80065 189.746826 
L 309.950591 190.104868 
L 309.71889 190.414387 
L 309.337248 190.365865 
L 309.105549 190.675385 
L 309.255491 191.033427 
L 309.023792 191.342948 
L 309.173734 191.700989 
L 308.942036 192.01051 
L 309.091977 192.368552 
L 309.473615 192.417072 
L 309.623555 192.775113 
L 309.391858 193.084634 
L 309.541797 193.442675 
L 309.310101 193.752197 
L 309.46004 194.110238 
L 309.228345 194.41976 
L 309.378284 194.777801 
L 309.14659 195.087324 
L 309.296528 195.445365 
L 309.064835 195.754888 
L 309.214773 196.112928 
L 309.596402 196.161446 
L 309.746338 196.519487 
L 309.514646 196.82901 
L 309.664582 197.187051 
L 309.432891 197.496574 
L 309.582827 197.854615 
L 309.351137 198.164139 
L 309.501072 198.522179 
L 309.269383 198.831704 
L 309.419317 199.189744 
L 309.800939 199.23826 
L 309.950872 199.596301 
L 309.719184 199.905825 
L 309.869116 200.263866 
L 309.63743 200.57339 
L 309.787362 200.93143 
L 309.555676 201.240955 
L 309.705607 201.598996 
L 309.473923 201.908521 
L 309.623854 202.266561 
L 309.39217 202.576087 
L 309.542101 202.934127 
L 309.923714 202.982642 
L 310.073643 203.340682 
L 309.84196 203.650207 
L 309.991889 204.008247 
L 309.760207 204.317774 
L 309.378597 204.269261 
L 309.146916 204.578788 
L 309.296845 204.936828 
L 309.065166 205.246356 
L 309.215095 205.604396 
L 308.983416 205.913925 
L 308.601808 205.865414 
L 308.37013 206.174944 
L 308.52006 206.532984 
L 308.288383 206.842514 
L 308.438313 207.200553 
L 308.206637 207.510084 
L 307.825031 207.461577 
L 307.593356 207.77111 
L 307.743287 208.129148 
L 307.511613 208.438681 
L 307.661544 208.79672 
L 307.429871 209.106254 
L 307.048267 209.057749 
L 306.816595 209.367284 
L 306.966527 209.725322 
L 306.734855 210.034858 
L 306.884787 210.392896 
L 306.653117 210.702432 
L 306.271515 210.65393 
L 306.039846 210.963467 
L 306.189778 211.321505 
L 305.95811 211.631043 
L 305.57651 211.582543 
L 305.344842 211.892082 
L 304.963241 211.843584 
L 304.731575 212.153125 
L 304.88151 212.511162 
L 304.649844 212.820703 
L 304.268244 212.772207 
L 304.03658 213.08175 
L 303.65498 213.033255 
L 303.423316 213.342799 
L 303.573253 213.700836 
L 303.341591 214.01038 
L 302.959991 213.961888 
L 302.72833 214.271433 
L 302.878268 214.62947 
L 302.646608 214.939016 
L 302.265009 214.890526 
L 302.033349 215.200073 
L 301.65175 215.151585 
L 301.420092 215.461134 
L 301.570032 215.81917 
L 301.338375 216.128719 
L 300.956777 216.080233 
L 300.72512 216.389783 
L 300.343521 216.341299 
L 300.111866 216.650851 
L 300.261809 217.008886 
L 300.030154 217.318439 
L 299.648556 217.269956 
L 299.416903 217.57951 
L 299.035305 217.531029 
L 298.803652 217.840584 
L 298.953597 218.198619 
L 298.721946 218.508175 
L 298.340348 218.459696 
L 298.108698 218.769253 
L 297.7271 218.720776 
L 297.49545 219.030334 
L 297.645398 219.388369 
L 297.413749 219.697927 
L 297.032152 219.649452 
L 296.800504 219.959012 
L 296.950453 220.317047 
L 296.718806 220.626607 
L 296.337211 220.578135 
L 296.105565 220.887697 
L 295.723968 220.839225 
L 295.492323 221.148788 
L 295.642275 221.506822 
L 295.410631 221.816386 
L 295.029035 221.767917 
L 294.797392 222.077482 
L 294.415796 222.029015 
L 294.184154 222.338581 
L 294.334108 222.696614 
L 294.102467 223.006182 
L 294.25242 223.364215 
L 294.02078 223.673782 
L 294.170733 224.031816 
L 294.552325 224.080281 
L 294.702276 224.438315 
L 294.470637 224.747882 
L 294.620587 225.105915 
L 295.002176 225.154381 
L 295.152125 225.512414 
L 294.920487 225.821981 
L 295.070436 226.180014 
L 294.838799 226.489582 
L 294.988747 226.847615 
L 295.370331 226.89608 
L 295.520277 227.254114 
L 295.288641 227.563681 
L 295.438587 227.921714 
L 295.206952 228.231281 
L 295.356898 228.589314 
L 295.738478 228.63778 
L 295.888422 228.995813 
L 295.656788 229.30538 
L 295.806731 229.663413 
L 296.188308 229.711878 
L 296.338249 230.069911 
L 296.719824 230.118378 
L 296.869764 230.476411 
L 297.251337 230.524878 
L 297.401275 230.882911 
L 297.782846 230.93138 
L 297.932783 231.289413 
L 298.314352 231.337882 
L 298.464287 231.695915 
L 298.845854 231.744386 
L 298.995787 232.102419 
L 299.377353 232.15089 
L 299.527284 232.508923 
L 299.908848 232.557395 
L 300.058778 232.915429 
L 300.44034 232.963902 
L 300.590267 233.321935 
L 300.971827 233.370409 
L 301.121754 233.728443 
L 301.503312 233.776918 
L 301.653236 234.134951 
L 302.034793 234.183427 
L 302.184715 234.541461 
L 302.56627 234.589937 
L 302.716191 234.947971 
L 303.097744 234.996449 
L 303.247663 235.354483 
L 303.629214 235.402961 
L 303.779131 235.760995 
L 304.160681 235.809474 
L 304.310596 236.167509 
L 304.692144 236.215989 
L 304.842058 236.574023 
L 305.223603 236.622504 
L 305.373515 236.980538 
L 305.755059 237.02902 
L 305.90497 237.387055 
L 306.286512 237.435538 
L 306.43642 237.793572 
L 306.817961 237.842056 
L 306.967867 238.200091 
L 307.349406 238.248575 
L 307.499311 238.60661 
L 307.880848 238.655096 
L 308.030751 239.01313 
L 308.412286 239.061617 
L 308.562187 239.419652 
L 308.943721 239.468139 
L 309.09362 239.826174 
L 309.475152 239.874663 
L 309.62505 240.232697 
L 310.006579 240.281187 
L 310.156475 240.639222 
L 310.538003 240.687712 
L 310.687898 241.045747 
L 311.069424 241.094238 
L 311.219316 241.452273 
L 311.600841 241.500765 
L 311.750731 241.858801 
L 312.132254 241.907294 
L 312.282143 242.265329 
L 312.663664 242.313823 
L 312.813551 242.671858 
L 313.19507 242.720353 
L 313.344955 243.078389 
L 313.113323 243.387929 
L 313.263208 243.745965 
L 313.644724 243.79446 
L 313.794608 244.152495 
L 313.562977 244.462036 
L 313.71286 244.820071 
L 314.094372 244.868566 
L 314.244253 245.226602 
L 314.012623 245.536142 
L 314.162504 245.894177 
L 314.544014 245.942673 
L 314.693893 246.300708 
L 314.462264 246.610248 
L 314.612143 246.968283 
L 314.380515 247.277823 
L 313.999008 247.229329 
L 313.767381 247.538871 
L 313.917261 247.896906 
L 313.685635 248.206448 
L 313.835514 248.564483 
L 313.603889 248.874025 
L 313.222385 248.825534 
L 312.99076 249.135078 
L 313.140641 249.493112 
L 312.909018 249.802657 
L 312.527514 249.754168 
L 312.295892 250.063713 
L 312.445773 250.421748 
L 312.214152 250.731294 
L 312.364033 251.089328 
L 312.132413 251.398875 
L 311.750912 251.350389 
L 311.519293 251.659937 
L 311.669175 252.017971 
L 311.437556 252.327519 
L 311.056056 252.279035 
L 310.824439 252.588585 
L 310.974322 252.946619 
L 310.742706 253.256169 
L 310.892588 253.614203 
L 310.660973 253.923754 
L 310.279475 253.875272 
L 310.047861 254.184825 
L 310.197744 254.542858 
L 309.966131 254.852411 
L 309.584634 254.803931 
L 309.353021 255.113485 
L 309.502906 255.471518 
L 309.271295 255.781073 
L 308.889799 255.732596 
L 308.658188 256.042152 
L 308.808074 256.400185 
L 308.576464 256.709741 
L 308.72635 257.067774 
L 308.494741 257.377331 
L 308.113247 257.328856 
L 307.88164 257.638415 
L 308.031526 257.996447 
L 307.79992 258.306006 
L 307.418427 258.257534 
L 307.186821 258.567094 
L 307.336708 258.925126 
L 307.105104 259.234687 
L 307.254991 259.592718 
L 307.023387 259.90228 
L 306.641897 259.85381 
L 306.410294 260.163373 
L 306.560182 260.521405 
L 306.32858 260.830968 
L 306.478468 261.188999 
L 306.246867 261.498563 
L 306.396755 261.856594 
L 306.165155 262.166158 
L 305.783668 262.117692 
L 305.552069 262.427258 
L 305.701957 262.785289 
L 305.47036 263.094855 
L 305.620248 263.452885 
L 305.388651 263.762452 
L 305.007166 263.713989 
L 304.77557 264.023557 
L 304.925459 264.381587 
L 304.693864 264.691156 
L 304.843753 265.049186 
L 304.612159 265.358755 
L 304.230677 265.310295 
L 303.999084 265.619865 
L 304.148973 265.977895 
L 303.917381 266.287466 
L 304.067271 266.645496 
L 303.83568 266.955067 
L 303.985569 267.313097 
L 303.753979 267.622669 
L 303.3725 267.574212 
L 303.140911 267.883785 
L 303.290801 268.241815 
L 303.059213 268.551388 
L 303.209102 268.909418 
L 302.977515 269.218992 
L 302.596039 269.170538 
L 302.364453 269.480113 
L 302.514343 269.838142 
L 302.282758 270.147719 
L 302.432649 270.505747 
L 302.201064 270.815324 
L 301.81959 270.766873 
L 301.588007 271.076451 
L 301.737898 271.434479 
L 301.506316 271.744058 
L 301.656207 272.102086 
L 301.424626 272.411665 
L 301.574516 272.769694 
L 301.342936 273.079273 
L 300.961465 273.030825 
L 300.729886 273.340406 
L 300.879778 273.698434 
L 300.648199 274.008015 
L 300.798091 274.366043 
L 300.566513 274.675625 
L 300.185045 274.62718 
L 299.953469 274.936763 
L 300.103361 275.294791 
L 299.871785 275.604375 
L 300.021677 275.962402 
L 299.790103 276.271987 
L 299.939994 276.630014 
L 300.321459 276.678457 
L 300.471348 277.036485 
L 300.239775 277.346069 
L 300.389664 277.704096 
L 300.158092 278.01368 
L 300.307981 278.371708 
L 300.07641 278.681293 
L 300.226298 279.03932 
L 300.607757 279.087762 
L 300.757644 279.445789 
L 300.526073 279.755374 
L 300.67596 280.113401 
L 300.44439 280.422986 
L 300.594276 280.781013 
L 300.362708 281.090599 
L 300.512594 281.448626 
L 300.894046 281.497067 
L 301.04393 281.855094 
L 300.812363 282.164679 
L 300.962246 282.522706 
L 300.73068 282.832292 
L 300.880563 283.190319 
L 301.262011 283.23876 
L 301.411893 283.596787 
L 301.180328 283.906372 
L 301.330209 284.264399 
L 301.098644 284.573985 
L 301.248525 284.932011 
L 301.016962 285.241598 
L 301.166842 285.599624 
L 301.548284 285.648064 
L 301.698163 286.006091 
L 301.4666 286.315677 
L 301.616479 286.673704 
L 301.384917 286.983291 
L 301.534795 287.341317 
L 301.303235 287.650904 
L 300.921797 287.602466 
L 300.690237 287.912055 
L 300.840116 288.270081 
L 300.608558 288.57967 
L 300.22712 288.531234 
L 299.995563 288.840824 
L 300.145443 289.19885 
L 299.913886 289.508441 
L 300.063766 289.866467 
L 299.83221 290.176058 
L 299.450775 290.127625 
L 299.219221 290.437218 
L 299.369101 290.795243 
L 299.137548 291.104837 
L 298.756114 291.056406 
L 298.524561 291.366 
L 298.674443 291.724025 
L 298.442891 292.033621 
L 298.592772 292.391645 
L 298.361221 292.701241 
L 297.97979 292.652813 
L 297.74824 292.96241 
L 297.898122 293.320435 
L 297.666574 293.630032 
L 297.285143 293.581606 
L 297.135259 293.223582 
L 296.753826 293.175157 
L 296.522279 293.484757 
L 296.140846 293.436333 
L 295.990959 293.078309 
L 295.609524 293.029887 
L 295.377977 293.339488 
L 294.996542 293.291067 
L 294.846652 292.933044 
L 294.465215 292.884623 
L 294.233669 293.194228 
L 293.852232 293.145809 
L 293.620687 293.455414 
L 293.239249 293.406997 
L 293.089354 293.048974 
L 292.707915 293.000558 
L 292.476371 293.310165 
L 292.09493 293.261751 
L 291.945033 292.903728 
L 291.563591 292.855314 
L 291.332048 293.164924 
L 290.950605 293.116512 
L 290.800705 292.758489 
L 291.032248 292.448878 
L 290.882347 292.090855 
L 290.500901 292.042444 
L 290.350998 291.684421 
L 290.582542 291.37481 
L 290.432639 291.016787 
L 290.051191 290.968375 
L 289.901286 290.610353 
L 289.519835 290.561942 
L 289.369928 290.203919 
L 289.601474 289.894307 
L 289.451566 289.536284 
L 289.070113 289.487874 
L 288.920204 289.129851 
L 289.15175 288.820239 
L 289.001841 288.462216 
L 288.620384 288.413806 
L 288.470473 288.055783 
L 288.089015 288.007373 
L 287.939102 287.649351 
L 288.170649 287.339737 
L 288.020736 286.981714 
L 287.639274 286.933305 
L 287.489359 286.575283 
L 287.720908 286.265669 
L 287.570992 285.907646 
L 287.189528 285.859237 
L 287.039611 285.501214 
L 286.658144 285.452807 
L 286.508225 285.094784 
L 286.739774 284.785169 
L 286.589855 284.427146 
L 286.208385 284.378739 
L 286.058465 284.020716 
L 285.676993 283.972309 
L 285.52707 283.614287 
L 285.758621 283.30467 
L 285.608698 282.946648 
L 285.227223 282.898241 
L 285.077298 282.540219 
L 285.308849 282.230602 
L 285.158924 281.872579 
L 284.777446 281.824173 
L 284.627519 281.466151 
L 284.24604 281.417745 
L 284.014488 281.727364 
L 283.633008 281.67896 
L 283.483078 281.320938 
L 283.101596 281.272535 
L 282.870046 281.582155 
L 282.488563 281.533754 
L 282.33863 281.175732 
L 281.957146 281.127331 
L 281.725596 281.436954 
L 281.344112 281.388555 
L 281.194175 281.030533 
L 280.812689 280.982135 
L 280.662751 280.624114 
L 280.281262 280.575717 
L 280.049714 280.885342 
L 279.668225 280.836947 
L 279.518284 280.478925 
L 279.136793 280.430531 
L 278.905246 280.740158 
L 278.523755 280.691765 
L 278.37381 280.333744 
L 277.992318 280.285352 
L 277.760771 280.594982 
L 277.379278 280.546591 
L 277.22933 280.18857 
L 276.847835 280.140181 
L 276.616289 280.449812 
L 276.234794 280.401424 
L 276.084843 280.043404 
L 275.703346 279.995017 
L 275.471801 280.304651 
L 275.090304 280.256265 
L 274.94035 279.898245 
L 274.55885 279.84986 
L 274.408895 279.49184 
L 274.64044 279.182204 
L 274.490484 278.824183 
L 274.72203 278.514548 
L 274.572073 278.156528 
L 274.803621 277.846893 
L 274.653664 277.488872 
L 274.272159 277.440487 
L 274.1222 277.082466 
L 274.353748 276.772831 
L 274.203789 276.41481 
L 274.435338 276.105176 
L 274.285379 275.747155 
L 273.903869 275.698769 
L 273.753908 275.340748 
L 273.372397 275.292363 
L 273.222434 274.934342 
L 272.840921 274.885958 
L 272.690956 274.527938 
L 272.922506 274.218301 
L 272.772542 273.860281 
L 272.391025 273.811897 
L 272.241058 273.453876 
L 271.85954 273.405493 
L 271.709572 273.047472 
L 271.328052 272.99909 
L 271.178082 272.64107 
L 270.79656 272.592689 
L 270.565009 272.902328 
L 270.183487 272.853949 
L 269.951938 273.16359 
L 269.570415 273.115212 
L 269.420441 272.757192 
L 269.038916 272.708814 
L 268.807368 273.018458 
L 268.425843 272.970082 
L 268.194295 273.279727 
L 267.81277 273.231353 
L 267.581224 273.540999 
L 267.199698 273.492626 
L 266.968152 273.802273 
L 266.586626 273.753902 
L 266.355082 274.063551 
L 265.973555 274.015181 
L 265.742011 274.324831 
L 265.360484 274.276463 
L 265.128942 274.586114 
L 264.747414 274.537748 
L 264.597428 274.17973 
L 264.215899 274.131364 
L 263.984357 274.441017 
L 263.602827 274.392653 
L 263.371286 274.702308 
L 262.989756 274.653946 
L 262.758217 274.963602 
L 262.376686 274.915241 
L 262.145147 275.224898 
L 262.295139 275.582916 
L 262.063601 275.892574 
L 261.682071 275.844215 
L 261.450534 276.153875 
L 261.600527 276.511892 
L 261.368991 276.821552 
L 261.518984 277.179569 
L 261.287449 277.48923 
L 260.905921 277.440874 
L 260.674387 277.750535 
L 260.824381 278.108552 
L 260.592848 278.418215 
L 260.211321 278.369861 
L 259.979789 278.679524 
L 260.129784 279.037541 
L 259.898253 279.347205 
L 259.516727 279.298853 
L 259.285197 279.608519 
L 259.435193 279.966535 
L 259.203664 280.276201 
L 258.822139 280.227852 
L 258.590611 280.537519 
L 258.740607 280.895535 
L 258.50908 281.205203 
L 258.659076 281.563219 
L 258.42755 281.872887 
L 258.577546 282.230903 
L 258.346021 282.540572 
L 258.496016 282.898587 
L 258.264492 283.208257 
L 258.414487 283.566272 
L 258.182964 283.875942 
L 258.332958 284.233957 
L 258.101436 284.543628 
L 258.25143 284.901643 
L 258.019909 285.211314 
L 258.169903 285.569329 
L 257.938383 285.879 
L 258.088376 286.237016 
L 258.469889 286.285359 
L 258.61988 286.643375 
L 258.388361 286.953046 
L 258.538353 287.311061 
L 258.306834 287.620732 
L 258.456825 287.978747 
L 258.838333 288.027091 
L 258.988322 288.385106 
L 258.756805 288.694777 
L 258.906794 289.052792 
L 258.675278 289.362464 
L 258.825266 289.720478 
L 259.20677 289.768822 
L 259.356756 290.126836 
L 259.125241 290.436508 
L 259.275228 290.794523 
L 259.043713 291.104195 
L 259.193699 291.462209 
L 258.962186 291.771882 
L 258.580687 291.723541 
L 258.349174 292.033214 
L 258.499161 292.391229 
L 258.26765 292.700903 
L 258.417637 293.058917 
L 258.186126 293.368592 
L 257.804629 293.320254 
L 257.57312 293.62993 
L 257.723108 293.987944 
L 257.491599 294.29762 
L 257.110103 294.249284 
L 256.878596 294.558962 
L 257.028585 294.916976 
L 256.797078 295.226654 
L 256.415583 295.17832 
L 256.184078 295.488 
L 255.802582 295.439667 
L 255.652591 295.081654 
L 255.271093 295.033323 
L 255.039589 295.343005 
L 254.658091 295.294674 
L 254.508096 294.936662 
L 254.126597 294.888332 
L 253.895093 295.198017 
L 253.513593 295.149689 
L 253.363595 294.791676 
L 252.982094 294.743349 
L 252.750591 295.053036 
L 252.369089 295.00471 
L 252.219088 294.646698 
L 251.837584 294.598374 
L 251.606082 294.908062 
L 251.224578 294.85974 
L 251.074574 294.501727 
L 250.693067 294.453406 
L 250.461566 294.763096 
L 250.08006 294.714776 
L 249.930053 294.356764 
L 249.548544 294.308445 
L 249.317044 294.618138 
L 248.935535 294.56982 
L 248.785525 294.211808 
L 248.404014 294.163491 
L 248.172515 294.473186 
L 247.791004 294.424871 
L 247.640991 294.066859 
L 247.259478 294.018545 
L 247.02798 294.328242 
L 246.646467 294.279929 
L 246.49645 293.921918 
L 246.114935 293.873606 
L 245.964916 293.515595 
L 245.5834 293.467284 
L 245.351902 293.776984 
L 244.970385 293.728674 
L 244.820364 293.370664 
L 244.438844 293.322355 
L 244.207348 293.632057 
L 243.825829 293.58375 
L 243.675804 293.22574 
L 243.294283 293.177434 
L 243.144256 292.819423 
L 242.762733 292.771118 
L 242.531238 293.080823 
L 242.149714 293.032519 
L 241.999685 292.67451 
L 241.618159 292.626207 
L 241.468128 292.268197 
L 241.086601 292.219895 
L 240.855106 292.529603 
L 240.473579 292.481302 
L 240.323544 292.123293 
L 239.942015 292.074993 
L 239.791979 291.716984 
L 239.410447 291.668685 
L 239.178954 291.978396 
L 238.797422 291.930099 
L 238.647383 291.57209 
L 238.26585 291.523794 
L 238.115808 291.165785 
L 237.734273 291.117489 
L 237.502781 291.427204 
L 237.121245 291.37891 
L 236.971201 291.020901 
L 236.589663 290.972608 
L 236.439617 290.614599 
L 236.058078 290.566307 
L 235.826586 290.876025 
L 235.445047 290.827734 
L 235.294998 290.469726 
L 234.913456 290.421436 
L 234.763405 290.063428 
L 234.381862 290.015139 
L 234.150371 290.32486 
L 233.768828 290.276572 
L 233.618774 289.918564 
L 233.237228 289.870278 
L 233.087172 289.51227 
L 232.705625 289.463985 
L 232.474135 289.773708 
L 232.092588 289.725424 
L 231.942529 289.367417 
L 231.560979 289.319134 
L 231.410918 288.961126 
L 231.029367 288.912844 
L 230.879305 288.554837 
L 231.110795 288.245111 
L 230.960732 287.887103 
L 230.579177 287.838822 
L 230.429113 287.480814 
L 230.047557 287.432533 
L 229.89749 287.074526 
L 229.515932 287.026246 
L 229.365864 286.668239 
L 228.984304 286.61996 
L 228.834234 286.261952 
L 228.452673 286.213674 
L 228.302601 285.855667 
L 228.534092 285.545938 
L 228.38402 285.18793 
L 228.002456 285.139653 
L 227.852382 284.781645 
L 227.470815 284.733368 
L 227.32074 284.375361 
L 226.939171 284.327085 
L 226.789094 283.969078 
L 226.407524 283.920803 
L 226.257445 283.562796 
L 225.875873 283.514522 
L 225.725792 283.156515 
L 225.957284 282.846782 
L 225.807203 282.488775 
L 226.038696 282.179043 
L 225.888615 281.821035 
L 225.507039 281.772761 
L 225.356955 281.414754 
L 225.588449 281.105021 
L 225.438366 280.747014 
L 225.669861 280.437281 
L 225.519777 280.079274 
L 225.751273 279.769542 
L 225.601188 279.411535 
L 225.219606 279.363259 
L 225.06952 279.005252 
L 225.301017 278.69552 
L 225.15093 278.337513 
L 225.382429 278.027781 
L 225.232342 277.669773 
L 225.463841 277.360042 
L 225.313753 277.002035 
L 224.932165 276.953758 
L 224.782076 276.595751 
L 225.013576 276.286019 
L 224.863487 275.928011 
L 225.094988 275.61828 
L 224.944898 275.260273 
L 225.1764 274.950542 
L 225.02631 274.592534 
L 224.644716 274.544257 
L 224.494624 274.186249 
L 224.726127 273.876518 
L 224.576035 273.51851 
L 224.807539 273.20878 
L 225.189136 273.257059 
L 225.420641 272.94733 
L 225.27055 272.589322 
L 225.502056 272.279593 
L 225.351964 271.921585 
L 225.583471 271.611857 
L 225.433379 271.253849 
L 225.664887 270.944121 
L 225.514795 270.586113 
L 225.746304 270.276386 
L 226.127905 270.324668 
L 226.359415 270.014943 
L 226.209324 269.656934 
L 226.440835 269.347209 
L 226.290743 268.9892 
L 226.522255 268.679475 
L 226.372163 268.321466 
L 226.603676 268.011742 
L 226.453583 267.653733 
L 226.685097 267.34401 
L 226.535004 266.986 
L 226.766519 266.676277 
L 227.148127 266.724565 
L 227.379643 266.414843 
L 227.229551 266.056833 
L 227.461068 265.747112 
L 227.310976 265.389102 
L 227.542494 265.079382 
L 227.392401 264.721372 
L 227.62392 264.411652 
L 227.473827 264.053642 
L 227.705347 263.743922 
L 228.08696 263.792214 
L 228.31848 263.482495 
L 228.168388 263.124485 
L 228.39991 262.814767 
L 228.249818 262.456757 
L 228.481341 262.14704 
L 228.862956 262.195334 
L 229.09448 261.885618 
L 228.944388 261.527607 
L 229.175913 261.217892 
L 229.557529 261.266188 
L 229.789055 260.956474 
L 229.638965 260.598463 
L 229.870491 260.28875 
L 230.252108 260.337048 
L 230.483636 260.027336 
L 230.333547 259.669325 
L 230.565075 259.359613 
L 230.414986 259.001602 
L 230.646515 258.69189 
L 231.028135 258.740192 
L 231.259665 258.430482 
L 231.109577 258.07247 
L 231.341108 257.762761 
L 231.722729 257.811064 
L 231.954261 257.501356 
L 231.804173 257.143344 
L 232.035707 256.833637 
L 232.417328 256.881942 
L 232.648863 256.572236 
L 232.498776 256.214224 
L 232.730311 255.904518 
L 232.580224 255.546506 
L 232.811761 255.236801 
L 233.193384 255.285109 
L 233.424922 254.975406 
L 233.274836 254.617393 
L 233.506374 254.307689 
L 233.887999 254.356 
L 234.119538 254.046298 
L 233.969453 253.688285 
L 234.200993 253.378584 
L 234.050908 253.02057 
L 234.282449 252.71087 
L 234.664076 252.759183 
L 234.895618 252.449483 
L 234.745534 252.09147 
L 234.977077 251.781771 
L 234.826993 251.423757 
L 235.058537 251.114059 
L 235.440166 251.162375 
L 235.671711 250.852678 
L 235.521627 250.494664 
L 235.753174 250.184967 
L 235.603089 249.826953 
L 235.834637 249.517257 
L 236.216268 249.565576 
L 236.447816 249.255881 
L 236.297733 248.897867 
L 236.529282 248.588172 
L 236.379199 248.230158 
L 236.610749 247.920464 
L 236.992383 247.968786 
L 237.223934 247.659093 
L 237.073851 247.301078 
L 237.305403 246.991387 
L 237.15532 246.633372 
L 237.386874 246.32368 
L 237.768509 246.372005 
L 238.000064 246.062315 
L 237.849982 245.704299 
L 238.081537 245.39461 
L 237.931454 245.036595 
L 238.16301 244.726906 
L 238.544649 244.775233 
L 238.776206 244.465545 
L 238.626125 244.10753 
L 238.857682 243.797842 
L 238.707601 243.439827 
L 238.93916 243.13014 
L 239.3208 243.17847 
L 239.55236 242.868785 
L 239.40228 242.510769 
L 239.633841 242.201084 
L 239.48376 241.843068 
L 239.715322 241.533383 
L 240.096964 241.581716 
L 240.328527 241.272033 
L 240.178447 240.914017 
L 240.410011 240.604334 
L 240.259931 240.246318 
L 240.491496 239.936636 
L 240.341415 239.578619 
L 240.572981 239.268938 
L 240.954627 239.317274 
L 241.186194 239.007594 
L 241.036114 238.649577 
L 241.267682 238.339897 
L 241.117602 237.98188 
L 241.349171 237.672201 
L 241.19909 237.314184 
L 241.43066 237.004505 
L 241.280579 236.646488 
L 241.51215 236.33681 
L 241.893802 236.38515 
L 242.125373 236.075474 
L 241.975293 235.717456 
L 242.206866 235.40778 
L 242.056786 235.049762 
L 242.28836 234.740086 
L 242.138279 234.382068 
L 241.756624 234.333726 
L 241.606541 233.975708 
L 241.838116 233.666032 
L 241.688033 233.308014 
L 241.306375 233.259672 
L 241.15629 232.901654 
L 241.387866 232.591978 
L 241.237781 232.23396 
L 240.856119 232.185618 
L 240.706033 231.8276 
L 240.324369 231.77926 
L 240.174281 231.421242 
L 240.405857 231.111564 
L 240.255769 230.753546 
L 239.874102 230.705206 
L 239.724011 230.347188 
L 239.955589 230.03751 
L 239.805498 229.679492 
L 239.423828 229.631152 
L 239.273736 229.273134 
L 239.505314 228.963456 
L 239.355222 228.605438 
L 238.973548 228.557098 
L 238.823454 228.19908 
L 239.055033 227.889402 
L 238.904938 227.531384 
L 238.523262 227.483044 
L 238.373165 227.125026 
L 238.604746 226.815348 
L 238.454649 226.45733 
L 238.072969 226.40899 
L 237.92287 226.050972 
L 238.154452 225.741293 
L 238.004353 225.383275 
L 237.62267 225.334936 
L 237.472569 224.976918 
L 237.704152 224.667239 
L 237.55405 224.309221 
L 237.172365 224.260882 
L 237.022262 223.902864 
L 237.253845 223.593184 
L 237.103742 223.235166 
L 236.722053 223.186828 
L 236.571947 222.82881 
L 236.803532 222.51913 
L 236.653427 222.161112 
L 236.271735 222.112773 
L 236.121627 221.754755 
L 236.353213 221.445075 
L 236.203105 221.087057 
L 235.82141 221.038719 
L 235.6713 220.680701 
L 235.902887 220.37102 
L 235.752777 220.013002 
L 235.371079 219.964665 
L 235.220967 219.606646 
L 235.452555 219.296966 
L 235.302443 218.938947 
L 234.920741 218.89061 
L 234.770627 218.532592 
L 235.002216 218.222911 
L 234.852102 217.864892 
L 234.470397 217.816555 
L 234.320281 217.458537 
L 234.551871 217.148856 
L 234.401755 216.790838 
L 234.020047 216.742501 
L 233.869929 216.384482 
L 234.10152 216.074801 
L 233.951401 215.716782 
L 233.56969 215.668446 
L 233.338099 215.978128 
L 232.956388 215.929794 
L 232.806266 215.571775 
L 232.424553 215.523441 
L 232.192963 215.833126 
L 231.811249 215.784794 
L 231.57966 216.09448 
L 231.197946 216.046149 
L 231.04782 215.688131 
L 230.666104 215.639801 
L 230.434516 215.949489 
L 230.0528 215.901161 
L 229.821213 216.21085 
L 229.439496 216.162523 
L 229.289365 215.804506 
L 228.907647 215.75618 
L 228.67606 216.065872 
L 228.294341 216.017547 
L 228.062756 216.32724 
L 227.681037 216.278917 
L 227.530902 215.920901 
L 227.14918 215.872578 
L 226.917596 216.182274 
L 226.535875 216.133953 
L 226.304291 216.44365 
L 225.922569 216.395331 
L 225.772429 216.037314 
L 225.390706 215.988996 
L 225.159123 216.298695 
L 224.777399 216.250379 
L 224.627256 215.892363 
L 224.24553 215.844047 
L 224.013948 216.153748 
L 223.632222 216.105434 
L 223.400641 216.415136 
L 223.018915 216.366824 
L 222.868767 216.008808 
L 222.487038 215.960497 
L 222.255459 216.270201 
L 221.87373 216.221891 
L 221.642151 216.531597 
L 221.260421 216.483288 
L 221.028844 216.792995 
L 220.647114 216.744688 
L 220.415537 217.054396 
L 220.56569 217.412411 
L 220.334114 217.72212 
L 219.952385 217.673815 
L 219.720811 217.983525 
L 219.870965 218.341539 
L 219.639391 218.65125 
L 219.257663 218.602948 
L 219.02609 218.91266 
L 219.176245 219.270674 
L 218.944673 219.580386 
L 218.562946 219.532086 
L 218.331375 219.8418 
L 217.949648 219.793501 
L 217.718078 220.103216 
L 217.868235 220.461229 
L 217.636666 220.770945 
L 217.25494 220.722648 
L 217.023372 221.032365 
L 217.17353 221.390379 
L 216.941963 221.700096 
L 216.560237 221.651802 
L 216.328671 221.961521 
L 215.946945 221.913227 
L 215.71538 222.222948 
L 215.865541 222.58096 
L 215.633977 222.890681 
L 215.252252 222.84239 
L 215.020689 223.152113 
L 215.170851 223.510125 
L 214.939288 223.819848 
L 214.557564 223.771559 
L 214.326003 224.081283 
L 214.476166 224.439295 
L 214.244606 224.749019 
L 213.862882 224.700733 
L 213.631323 225.010459 
L 213.249599 224.962174 
L 213.018041 225.271901 
L 213.168207 225.629912 
L 212.936649 225.93964 
L 212.554926 225.891357 
L 212.32337 226.201086 
L 212.473536 226.559097 
L 212.241981 226.868827 
L 211.860259 226.820546 
L 211.628705 227.130277 
L 211.778872 227.488288 
L 211.547319 227.79802 
L 211.697486 228.15603 
L 211.465933 228.465762 
L 211.084214 228.417484 
L 210.852662 228.727218 
L 211.00283 229.085228 
L 210.77128 229.394962 
L 210.389561 229.346686 
L 210.158012 229.656421 
L 210.308181 230.014432 
L 210.076632 230.324167 
L 210.226801 230.682177 
L 209.995253 230.991913 
L 209.613537 230.94364 
L 209.38199 231.253378 
L 209.53216 231.611388 
L 209.300615 231.921126 
L 209.450784 232.279135 
L 209.219239 232.588874 
L 208.837525 232.540604 
L 208.605982 232.850344 
L 208.756152 233.208353 
L 208.524609 233.518093 
L 208.674779 233.876103 
L 208.443238 234.185843 
L 208.061526 234.137576 
L 207.829985 234.447318 
L 207.980156 234.805327 
L 207.748616 235.11507 
L 207.366905 235.066805 
L 207.135367 235.376549 
L 207.285539 235.734557 
L 207.054001 236.044302 
L 207.204173 236.402311 
L 206.972636 236.712056 
L 206.590927 236.663793 
L 206.359391 236.97354 
L 206.509564 237.331548 
L 206.278029 237.641295 
L 205.896322 237.593035 
L 205.664788 237.902783 
L 205.28308 237.854524 
L 205.051547 238.164274 
L 205.201722 238.522282 
L 204.97019 238.832032 
L 204.588483 238.783775 
L 204.356952 239.093527 
L 204.507128 239.451534 
L 204.275598 239.761286 
L 203.893892 239.713032 
L 203.662363 240.022785 
L 203.280656 239.974532 
L 203.049128 240.284287 
L 203.199306 240.642294 
L 202.967779 240.952049 
L 202.586074 240.903798 
L 202.354548 241.213555 
L 201.972841 241.165306 
L 201.741316 241.475064 
L 201.891497 241.83307 
L 201.659973 242.142828 
L 201.278268 242.094581 
L 201.046745 242.404341 
L 200.665039 242.356096 
L 200.433517 242.665857 
L 200.5837 243.023863 
L 200.352179 243.333624 
L 199.970474 243.285381 
L 199.738954 243.595144 
L 199.889138 243.953149 
L 199.657619 244.262913 
L 199.275915 244.214672 
L 199.044397 244.524437 
L 198.662693 244.476197 
L 198.431175 244.785963 
L 198.581362 245.143968 
L 198.349845 245.453735 
L 197.968142 245.405497 
L 197.736627 245.715265 
L 197.886814 246.07327 
L 197.6553 246.383039 
L 197.805487 246.741043 
L 197.573974 247.050812 
L 197.724161 247.408817 
L 197.492648 247.718586 
L 197.110949 247.670352 
L 196.879437 247.980123 
L 197.029625 248.338127 
L 196.798115 248.647898 
L 196.948302 249.005902 
L 196.716793 249.315674 
L 196.86698 249.673678 
L 196.635471 249.983451 
L 196.785658 250.341454 
L 196.554151 250.651227 
L 196.704337 251.009231 
L 196.47283 251.319004 
L 196.091137 251.270775 
L 195.859632 251.58055 
L 196.009819 251.938553 
L 195.778314 252.248329 
L 195.928502 252.606332 
L 195.696998 252.916108 
L 195.847185 253.274111 
L 195.615682 253.583887 
L 195.765868 253.94189 
L 195.534367 254.251667 
L 195.684553 254.60967 
L 195.453052 254.919447 
L 195.071365 254.871222 
L 194.839865 255.181001 
L 194.990052 255.539004 
L 194.758554 255.848783 
L 194.90874 256.206785 
L 194.677242 256.516565 
L 194.827429 256.874567 
L 194.595932 257.184348 
L 194.746118 257.54235 
L 194.514622 257.852131 
L 194.664807 258.210133 
L 194.433313 258.519914 
L 194.583498 258.877916 
L 194.352004 259.187698 
L 193.970325 259.139478 
L 193.738832 259.449261 
L 193.889018 259.807263 
L 193.657526 260.117047 
L 193.807712 260.475048 
L 193.576221 260.784833 
L 193.726407 261.142834 
L 193.494917 261.452619 
L 193.645102 261.81062 
L 193.413613 262.120405 
L 193.031939 262.07219 
L 192.800451 262.381976 
L 192.950637 262.739977 
L 192.71915 263.049764 
L 192.869336 263.407765 
L 192.63785 263.717553 
L 192.788035 264.075554 
L 192.55655 264.385342 
L 192.174879 264.33713 
L 191.943395 264.646919 
L 192.093582 265.004919 
L 191.862099 265.314709 
L 192.012285 265.67271 
L 191.780803 265.9825 
L 191.399134 265.934291 
L 191.167653 266.244083 
L 191.31784 266.602083 
L 191.08636 266.911875 
L 190.704693 266.863668 
L 190.473214 267.173462 
L 190.091546 267.125256 
L 189.860068 267.435051 
L 189.4784 267.386847 
L 189.246923 267.696643 
L 188.865255 267.648441 
L 188.715062 267.290442 
L 188.333392 267.24224 
L 188.101916 267.552039 
L 187.720245 267.503839 
L 187.48877 267.813639 
L 187.107099 267.76544 
L 186.875624 268.075241 
L 186.493953 268.027044 
L 186.262479 268.336847 
L 185.880807 268.288652 
L 185.649335 268.598455 
L 185.267663 268.550262 
L 185.117462 268.192263 
L 184.735787 268.144071 
L 184.504316 268.453876 
L 184.122641 268.405685 
L 183.891171 268.715492 
L 183.509496 268.667303 
L 183.278026 268.977111 
L 182.896351 268.928923 
L 182.664882 269.238733 
L 182.283207 269.190546 
L 182.051739 269.500357 
L 181.670063 269.452172 
L 181.519853 269.094175 
L 181.138175 269.045991 
L 180.906708 269.355804 
L 180.52503 269.307622 
L 180.293564 269.617436 
L 179.911885 269.569255 
L 179.68042 269.879071 
L 179.298741 269.830892 
L 179.067277 270.140709 
L 178.685597 270.092531 
L 178.454134 270.40235 
L 178.072454 270.354173 
L 177.922236 269.996177 
L 177.540554 269.948002 
L 177.390333 269.590006 
L 177.00865 269.541831 
L 176.858428 269.183835 
L 176.476742 269.135661 
L 176.326518 268.777666 
L 175.944831 268.729493 
L 175.794605 268.371497 
L 175.412916 268.323325 
L 175.262689 267.96533 
L 174.880998 267.917159 
L 174.730769 267.559163 
L 174.962232 267.249339 
L 174.812003 266.891343 
L 174.430309 266.843172 
L 174.280077 266.485177 
L 173.898382 266.437007 
L 173.748149 266.079011 
L 173.366451 266.030842 
L 173.216216 265.672847 
L 172.834517 265.624679 
L 172.68428 265.266684 
L 172.302579 265.218517 
L 172.152341 264.860522 
L 171.770638 264.812355 
L 171.620398 264.45436 
L 171.238693 264.406195 
L 171.088452 264.0482 
L 170.706745 264.000036 
L 170.556501 263.642041 
L 170.787966 263.33221 
L 170.637722 262.974215 
L 170.869187 262.664385 
L 170.718943 262.30639 
L 170.950409 261.99656 
L 170.800164 261.638565 
L 171.031631 261.328736 
L 170.881386 260.970741 
L 171.112855 260.660912 
L 170.962609 260.302917 
L 170.580894 260.25475 
L 170.430647 259.896755 
L 170.662116 259.586926 
L 170.511868 259.22893 
L 170.743339 258.919102 
L 170.593091 258.561106 
L 170.824562 258.251278 
L 170.674314 257.893283 
L 170.905786 257.583455 
L 170.755537 257.225459 
L 170.373815 257.177291 
L 170.223564 256.819296 
L 170.455037 256.509468 
L 170.304787 256.151472 
L 170.536261 255.841645 
L 170.38601 255.483649 
L 170.617485 255.173822 
L 170.467233 254.815826 
L 170.698709 254.506 
L 170.548457 254.148004 
L 170.166728 254.099834 
L 170.016474 253.741838 
L 170.247951 253.432011 
L 170.097697 253.074015 
L 170.329175 252.764189 
L 170.178921 252.406193 
L 170.4104 252.096368 
L 170.260145 251.738371 
L 170.491625 251.428546 
L 170.34137 251.07055 
L 170.572851 250.760725 
L 170.422595 250.402729 
L 170.040857 250.354557 
L 169.8906 249.99656 
L 170.122082 249.686735 
L 169.971824 249.328739 
L 170.203307 249.018914 
L 170.585048 249.067088 
L 170.816532 248.757265 
L 170.666276 248.399268 
L 170.897761 248.089445 
L 170.747504 247.731448 
L 170.97899 247.421626 
L 171.360733 247.469802 
L 171.59222 247.159982 
L 171.441964 246.801985 
L 171.673452 246.492164 
L 171.523195 246.134167 
L 171.754684 245.824347 
L 172.13643 245.872526 
L 172.36792 245.562708 
L 172.217664 245.20471 
L 172.449155 244.894893 
L 172.298899 244.536895 
L 172.530391 244.227078 
L 172.912139 244.275259 
L 173.143632 243.965443 
L 172.993377 243.607445 
L 173.224871 243.29763 
L 173.074616 242.939631 
L 173.306111 242.629817 
L 173.687861 242.678001 
L 173.919356 242.368187 
L 173.769102 242.010189 
L 174.000599 241.700376 
L 173.850344 241.342377 
L 174.081842 241.032565 
L 174.463595 241.080752 
L 174.695093 240.770941 
L 174.54484 240.412942 
L 174.77634 240.103131 
L 174.626086 239.745132 
L 174.857586 239.435322 
L 174.707332 239.077322 
L 174.938834 238.767513 
L 175.32059 238.815704 
L 175.552092 238.505895 
L 175.401839 238.147896 
L 175.633343 237.838088 
L 175.483089 237.480088 
L 175.714594 237.170281 
L 176.096352 237.218474 
L 176.327858 236.908669 
L 176.177605 236.550668 
L 176.409112 236.240863 
L 176.258859 235.882863 
L 175.877098 235.834668 
L 175.726843 235.476668 
L 175.958351 235.166863 
L 175.808095 234.808862 
L 176.039604 234.499057 
L 175.889348 234.141057 
L 175.507583 234.092862 
L 175.357326 233.734862 
L 175.588835 233.425056 
L 175.438578 233.067056 
L 175.670088 232.757251 
L 175.51983 232.399251 
L 175.13806 232.351055 
L 174.9878 231.993055 
L 175.219312 231.68325 
L 175.069052 231.325249 
L 175.300564 231.015445 
L 175.150304 230.657444 
L 175.381817 230.34764 
L 175.231557 229.989639 
L 174.849781 229.941443 
L 174.699518 229.583442 
L 174.931033 229.273638 
L 174.780769 228.915637 
L 175.012285 228.605833 
L 174.862022 228.247832 
L 174.480241 228.199636 
L 174.329976 227.841635 
L 174.561493 227.531831 
L 174.411227 227.17383 
L 174.642745 226.864026 
L 174.492479 226.506025 
L 174.110694 226.457828 
L 173.960426 226.099827 
L 174.191945 225.790023 
L 174.041677 225.432022 
L 174.273196 225.122219 
L 174.122928 224.764218 
L 174.354448 224.454415 
L 174.20418 224.096413 
L 173.822389 224.048216 
L 173.672118 223.690214 
L 173.90364 223.380411 
L 173.753369 223.02241 
L 173.984891 222.712607 
L 173.83462 222.354606 
L 173.452825 222.306407 
L 173.302552 221.948406 
L 173.534075 221.638603 
L 173.383802 221.280602 
L 173.615326 220.970799 
L 173.465053 220.612798 
L 173.696578 220.302995 
L 174.078377 220.351195 
L 174.309904 220.041395 
L 174.159631 219.683393 
L 174.391159 219.373593 
L 174.772959 219.421795 
L 175.004487 219.111996 
L 175.386287 219.1602 
L 175.617817 218.850402 
L 175.999616 218.898607 
L 176.231147 218.588811 
L 176.612946 218.637018 
L 176.844477 218.327223 
L 177.226276 218.375431 
L 177.376542 218.733434 
L 177.758338 218.781643 
L 177.989871 218.47185 
L 178.371667 218.520061 
L 178.52193 218.878064 
L 178.903725 218.926276 
L 179.135258 218.616485 
L 179.517052 218.664699 
L 179.667312 219.022702 
L 180.049104 219.070916 
L 180.280638 218.761128 
L 180.66243 218.809344 
L 180.812687 219.167347 
L 181.194477 219.215564 
L 181.426012 218.905778 
L 181.807802 218.953996 
L 181.958055 219.312 
L 182.339843 219.360219 
L 182.571379 219.050435 
L 182.421127 218.692431 
L 182.652664 218.382647 
L 183.034453 218.430868 
L 183.265991 218.121086 
L 183.64778 218.169309 
L 183.879319 217.859528 
L 183.729069 217.501523 
L 183.960609 217.191743 
L 184.342398 217.239968 
L 184.573939 216.930189 
L 184.423691 216.572184 
L 184.655233 216.262405 
L 185.037023 216.310632 
L 185.268566 216.000855 
L 185.118319 215.64285 
L 185.349862 215.333073 
L 185.731654 215.381302 
L 185.963198 215.071527 
L 186.344989 215.119758 
L 186.576535 214.809984 
L 186.42629 214.451978 
L 186.657837 214.142204 
L 187.039629 214.190437 
L 187.271176 213.880665 
L 187.120932 213.522659 
L 187.352481 213.212888 
L 187.734274 213.261123 
L 187.965823 212.951352 
L 188.347616 212.999589 
L 188.579166 212.68982 
L 188.428925 212.331814 
L 188.660476 212.022045 
L 189.04227 212.070284 
L 189.273822 211.760517 
L 189.123582 211.40251 
L 189.355135 211.092743 
L 189.736929 211.140984 
L 189.968484 210.831219 
L 189.818244 210.473212 
L 190.0498 210.163447 
L 189.89956 209.80544 
L 190.131116 209.495675 
L 189.980876 209.137668 
L 189.599077 209.089425 
L 189.448835 208.731418 
L 189.067035 208.683176 
L 188.916791 208.325169 
L 189.148349 208.015403 
L 188.998105 207.657396 
L 188.616301 207.609154 
L 188.466055 207.251147 
L 188.08425 207.202906 
L 187.934002 206.844899 
L 188.165561 206.535132 
L 188.015313 206.177125 
L 187.633505 206.128885 
L 187.483255 205.770877 
L 187.101445 205.722638 
L 186.951193 205.364631 
L 187.182753 205.054863 
L 187.032501 204.696856 
L 187.264061 204.387089 
L 187.113809 204.029081 
L 187.34537 203.719315 
L 187.195117 203.361307 
L 187.42668 203.051541 
L 187.276427 202.693534 
L 187.50799 202.383768 
L 187.357737 202.02576 
L 187.589301 201.715995 
L 187.439047 201.357988 
L 187.670613 201.048223 
L 187.520359 200.690215 
L 187.751925 200.380451 
L 187.60167 200.022443 
L 187.219848 199.974199 
L 187.069591 199.616192 
L 187.301159 199.306427 
L 187.150902 198.948419 
L 187.382471 198.638655 
L 187.232213 198.280647 
L 186.850386 198.232403 
L 186.700127 197.874395 
L 186.931697 197.564631 
L 186.781437 197.206623 
L 187.013008 196.896859 
L 186.862748 196.538851 
L 186.480917 196.490607 
L 186.330655 196.132599 
L 186.562227 195.822835 
L 186.411965 195.464827 
L 186.643537 195.155063 
L 186.493275 194.797055 
L 186.111439 194.74881 
L 185.961175 194.390802 
L 186.192749 194.081038 
L 186.042484 193.72303 
L 186.274059 193.413267 
L 186.123794 193.055258 
L 186.355369 192.745495 
L 186.205104 192.387487 
L 185.823262 192.339241 
L 185.672995 191.981233 
L 185.904572 191.67147 
L 185.754305 191.313461 
L 185.372459 191.265216 
L 185.22219 190.907207 
L 185.453768 190.597444 
L 185.303499 190.239435 
L 184.92165 190.19119 
L 184.771379 189.833182 
L 184.389529 189.784938 
L 184.239256 189.426929 
L 183.857404 189.378686 
L 183.707129 189.020678 
L 183.325276 188.972435 
L 183.174999 188.614427 
L 182.793144 188.566186 
L 182.642866 188.208177 
L 182.874444 187.898411 
L 182.724166 187.540402 
L 182.342307 187.492161 
L 182.192027 187.134153 
L 181.810166 187.085913 
L 181.659884 186.727905 
L 181.278022 186.679666 
L 181.127738 186.321658 
L 180.745874 186.273419 
L 180.595589 185.915411 
L 180.213723 185.867174 
L 180.063435 185.509166 
L 180.295015 185.199396 
L 180.144727 184.841388 
L 179.762858 184.793151 
L 179.612569 184.435143 
L 179.230698 184.386906 
L 179.080407 184.028899 
L 178.698534 183.980663 
L 178.548241 183.622656 
L 178.166367 183.574421 
L 178.016072 183.216414 
L 177.634196 183.16818 
L 177.4839 182.810173 
L 177.102022 182.76194 
L 176.951723 182.403933 
L 177.183304 182.094158 
L 177.033006 181.736151 
L 176.651125 181.687918 
L 176.500824 181.329911 
L 176.118941 181.28168 
L 175.968639 180.923672 
L 175.586754 180.875442 
L 175.43645 180.517435 
L 175.054564 180.469205 
L 174.904258 180.111198 
L 174.52237 180.06297 
L 174.372063 179.704963 
L 173.990173 179.656735 
L 173.758592 179.966515 
L 173.376701 179.918289 
L 173.226391 179.560282 
L 172.844498 179.512057 
L 172.612918 179.821839 
L 172.231026 179.773615 
L 172.080712 179.415609 
L 171.698817 179.367386 
L 171.548502 179.00938 
L 171.166606 178.961158 
L 170.935027 179.270943 
L 170.55313 179.222723 
L 170.402811 178.864717 
L 170.020913 178.816497 
L 169.789335 179.126285 
L 169.407436 179.078067 
L 169.257114 178.720061 
L 168.875213 178.671844 
L 168.72489 178.313838 
L 168.342987 178.265622 
L 168.11141 178.575413 
L 167.729507 178.527198 
L 167.57918 178.169193 
L 167.197276 178.120979 
L 167.046947 177.762974 
L 167.278525 177.453182 
L 167.128196 177.095177 
L 167.359774 176.785386 
L 167.209445 176.42738 
L 166.827536 176.379166 
L 166.677205 176.021161 
L 166.908784 175.711369 
L 166.758453 175.353364 
L 166.990033 175.043573 
L 166.839701 174.685567 
L 167.071283 174.375776 
L 166.92095 174.017771 
L 166.539035 173.969556 
L 166.388702 173.61155 
L 166.620284 173.301759 
L 166.46995 172.943754 
L 166.701533 172.633963 
L 166.551198 172.275958 
L 166.782783 171.966168 
L 166.632448 171.608162 
L 166.250527 171.559946 
L 166.10019 171.20194 
L 166.331775 170.89215 
L 166.181438 170.534144 
L 165.799514 170.485929 
L 165.649175 170.127923 
L 165.880762 169.818132 
L 165.730422 169.460126 
L 165.348495 169.411911 
L 165.198154 169.053905 
L 164.816225 169.005691 
L 164.665882 168.647685 
L 164.89747 168.337894 
L 164.747126 167.979888 
L 164.365194 167.931674 
L 164.214849 167.573668 
L 163.832915 167.525455 
L 163.682569 167.167449 
L 163.914157 166.857657 
L 163.76381 166.499651 
L 163.381873 166.451438 
L 163.231524 166.093432 
L 163.463114 165.783639 
L 163.312764 165.425634 
L 162.930824 165.377421 
L 162.780473 165.019415 
L 162.398531 164.971204 
L 162.248178 164.613198 
L 162.479769 164.303404 
L 162.329416 163.945398 
L 161.947471 163.897187 
L 161.797116 163.539182 
L 162.028707 163.229387 
L 161.878352 162.871381 
L 161.496404 162.82317 
L 161.346047 162.465165 
L 160.964096 162.416955 
L 160.813738 162.058949 
L 161.04533 161.749154 
L 160.894971 161.391148 
L 160.513018 161.342938 
L 160.362657 160.984933 
L 159.980702 160.936724 
L 159.830339 160.578718 
L 159.448382 160.530511 
L 159.298018 160.172505 
L 158.916059 160.124298 
L 158.765693 159.766293 
L 158.383733 159.718087 
L 158.233365 159.360082 
L 157.851403 159.311877 
L 157.701033 158.953872 
L 157.319069 158.905667 
L 157.168697 158.547662 
L 156.786732 158.499459 
L 156.786732 158.499459 
" clip-path="url(#p79ecea16ef)" style="fill: none; stroke: #ff0000; stroke-width: 0.7"/>
   </g>
   <g id="matplotlib.axis_1">
    <g id="xtick_1">
     <g id="line2d_1">
      <defs>
       <path id="mf793d3a7f6" d="M 0 0 
L 0 3.5 
" style="stroke: #000000; stroke-width: 0.8"/>
      </defs>
      <g>
       <use xlink:href="#mf793d3a7f6" x="148.352868" y="307.584" style="stroke: #000000; stroke-width: 0.8"/>
      </g>
     </g>
     <g id="text_1">
      <!-- 99.40 -->
      <g transform="translate(129.848962 322.182437) scale(0.1 -0.1)">
       <defs>
        <path id="DejaVuSans-2212" d="M 678 2272 
L 4684 2272 
L 4684 1741 
L 678 1741 
L 678 2272 
z
" transform="scale(0.015625)"/>
        <path id="DejaVuSans-39" d="M 703 97 
L 703 672 
Q 941 559 1184 500 
Q 1428 441 1663 441 
Q 2288 441 2617 861 
Q 2947 1281 2994 2138 
Q 2813 1869 2534 1725 
Q 2256 1581 1919 1581 
Q 1219 1581 811 2004 
Q 403 2428 403 3163 
Q 403 3881 828 4315 
Q 1253 4750 1959 4750 
Q 2769 4750 3195 4129 
Q 3622 3509 3622 2328 
Q 3622 1225 3098 567 
Q 2575 -91 1691 -91 
Q 1453 -91 1209 -44 
Q 966 3 703 97 
z
M 1959 2075 
Q 2384 2075 2632 2365 
Q 2881 2656 2881 3163 
Q 2881 3666 2632 3958 
Q 2384 4250 1959 4250 
Q 1534 4250 1286 3958 
Q 1038 3666 1038 3163 
Q 1038 2656 1286 2365 
Q 1534 2075 1959 2075 
z
" transform="scale(0.015625)"/>
        <path id="DejaVuSans-2e" d="M 684 794 
L 1344 794 
L 1344 0 
L 684 0 
L 684 794 
z
" transform="scale(0.015625)"/>
        <path id="DejaVuSans-34" d="M 2419 4116 
L 825 1625 
L 2419 1625 
L 2419 4116 
z
M 2253 4666 
L 3047 4666 
L 3047 1625 
L 3713 1625 
L 3713 1100 
L 3047 1100 
L 3047 0 
L 2419 0 
L 2419 1100 
L 313 1100 
L 313 1709 
L 2253 4666 
z
" transform="scale(0.015625)"/>
        <path id="DejaVuSans-30" d="M 2034 4250 
Q 1547 4250 1301 3770 
Q 1056 3291 1056 2328 
Q 1056 1369 1301 889 
Q 1547 409 2034 409 
Q 2525 409 2770 889 
Q 3016 1369 3016 2328 
Q 3016 3291 2770 3770 
Q 2525 4250 2034 4250 
z
M 2034 4750 
Q 2819 4750 3233 4129 
Q 3647 3509 3647 2328 
Q 3647 1150 3233 529 
Q 2819 -91 2034 -91 
Q 1250 -91 836 529 
Q 422 1150 422 2328 
Q 422 3509 836 4129 
Q 1250 4750 2034 4750 
z
" transform="scale(0.015625)"/>
       </defs>
       <use xlink:href="#DejaVuSans-2212"/>
       <use xlink:href="#DejaVuSans-39" x="83.789062"/>
       <use xlink:href="#DejaVuSans-39" x="147.412109"/>
       <use xlink:href="#DejaVuSans-2e" x="211.035156"/>
       <use xlink:href="#DejaVuSans-34" x="242.822266"/>
       <use xlink:href="#DejaVuSans-30" x="306.445312"/>
      </g>
     </g>
    </g>
    <g id="xtick_2">
     <g id="line2d_2">
      <g>
       <use xlink:href="#mf793d3a7f6" x="210.616549" y="307.584" style="stroke: #000000; stroke-width: 0.8"/>
      </g>
     </g>
     <g id="text_2">
      <!-- 99.35 -->
      <g transform="translate(192.112642 322.182437) scale(0.1 -0.1)">
       <defs>
        <path id="DejaVuSans-33" d="M 2597 2516 
Q 3050 2419 3304 2112 
Q 3559 1806 3559 1356 
Q 3559 666 3084 287 
Q 2609 -91 1734 -91 
Q 1441 -91 1130 -33 
Q 819 25 488 141 
L 488 750 
Q 750 597 1062 519 
Q 1375 441 1716 441 
Q 2309 441 2620 675 
Q 2931 909 2931 1356 
Q 2931 1769 2642 2001 
Q 2353 2234 1838 2234 
L 1294 2234 
L 1294 2753 
L 1863 2753 
Q 2328 2753 2575 2939 
Q 2822 3125 2822 3475 
Q 2822 3834 2567 4026 
Q 2313 4219 1838 4219 
Q 1578 4219 1281 4162 
Q 984 4106 628 3988 
L 628 4550 
Q 988 4650 1302 4700 
Q 1616 4750 1894 4750 
Q 2613 4750 3031 4423 
Q 3450 4097 3450 3541 
Q 3450 3153 3228 2886 
Q 3006 2619 2597 2516 
z
" transform="scale(0.015625)"/>
        <path id="DejaVuSans-35" d="M 691 4666 
L 3169 4666 
L 3169 4134 
L 1269 4134 
L 1269 2991 
Q 1406 3038 1543 3061 
Q 1681 3084 1819 3084 
Q 2600 3084 3056 2656 
Q 3513 2228 3513 1497 
Q 3513 744 3044 326 
Q 2575 -91 1722 -91 
Q 1428 -91 1123 -41 
Q 819 9 494 109 
L 494 744 
Q 775 591 1075 516 
Q 1375 441 1709 441 
Q 2250 441 2565 725 
Q 2881 1009 2881 1497 
Q 2881 1984 2565 2268 
Q 2250 2553 1709 2553 
Q 1456 2553 1204 2497 
Q 953 2441 691 2322 
L 691 4666 
z
" transform="scale(0.015625)"/>
       </defs>
       <use xlink:href="#DejaVuSans-2212"/>
       <use xlink:href="#DejaVuSans-39" x="83.789062"/>
       <use xlink:href="#DejaVuSans-39" x="147.412109"/>
       <use xlink:href="#DejaVuSans-2e" x="211.035156"/>
       <use xlink:href="#DejaVuSans-33" x="242.822266"/>
       <use xlink:href="#DejaVuSans-35" x="306.445312"/>
      </g>
     </g>
    </g>
    <g id="xtick_3">
     <g id="line2d_3">
      <g>
       <use xlink:href="#mf793d3a7f6" x="272.880229" y="307.584" style="stroke: #000000; stroke-width: 0.8"/>
      </g>
     </g>
     <g id="text_3">
      <!-- 99.30 -->
      <g transform="translate(254.376323 322.182437) scale(0.1 -0.1)">
       <use xlink:href="#DejaVuSans-2212"/>
       <use xlink:href="#DejaVuSans-39" x="83.789062"/>
       <use xlink:href="#DejaVuSans-39" x="147.412109"/>
       <use xlink:href="#DejaVuSans-2e" x="211.035156"/>
       <use xlink:href="#DejaVuSans-33" x="242.822266"/>
       <use xlink:href="#DejaVuSans-30" x="306.445312"/>
      </g>
     </g>
    </g>
   </g>
   <g id="matplotlib.axis_2">
    <g id="ytick_1">
     <g id="line2d_4">
      <defs>
       <path id="m72d13fad56" d="M 0 0 
L -3.5 0 
" style="stroke: #000000; stroke-width: 0.8"/>
      </defs>
      <g>
       <use xlink:href="#m72d13fad56" x="139.740449" y="304.84924" style="stroke: #000000; stroke-width: 0.8"/>
      </g>
     </g>
     <g id="text_4">
      <!-- 25.550 -->
      <g transform="translate(97.749824 308.648459) scale(0.1 -0.1)">
       <defs>
        <path id="DejaVuSans-32" d="M 1228 531 
L 3431 531 
L 3431 0 
L 469 0 
L 469 531 
Q 828 903 1448 1529 
Q 2069 2156 2228 2338 
Q 2531 2678 2651 2914 
Q 2772 3150 2772 3378 
Q 2772 3750 2511 3984 
Q 2250 4219 1831 4219 
Q 1534 4219 1204 4116 
Q 875 4013 500 3803 
L 500 4441 
Q 881 4594 1212 4672 
Q 1544 4750 1819 4750 
Q 2544 4750 2975 4387 
Q 3406 4025 3406 3419 
Q 3406 3131 3298 2873 
Q 3191 2616 2906 2266 
Q 2828 2175 2409 1742 
Q 1991 1309 1228 531 
z
" transform="scale(0.015625)"/>
       </defs>
       <use xlink:href="#DejaVuSans-32"/>
       <use xlink:href="#DejaVuSans-35" x="63.623047"/>
       <use xlink:href="#DejaVuSans-2e" x="127.246094"/>
       <use xlink:href="#DejaVuSans-35" x="159.033203"/>
       <use xlink:href="#DejaVuSans-35" x="222.65625"/>
       <use xlink:href="#DejaVuSans-30" x="286.279297"/>
      </g>
     </g>
    </g>
    <g id="ytick_2">
     <g id="line2d_5">
      <g>
       <use xlink:href="#m72d13fad56" x="139.740449" y="270.31578" style="stroke: #000000; stroke-width: 0.8"/>
      </g>
     </g>
     <g id="text_5">
      <!-- 25.575 -->
      <g transform="translate(97.749824 274.114998) scale(0.1 -0.1)">
       <defs>
        <path id="DejaVuSans-37" d="M 525 4666 
L 3525 4666 
L 3525 4397 
L 1831 0 
L 1172 0 
L 2766 4134 
L 525 4134 
L 525 4666 
z
" transform="scale(0.015625)"/>
       </defs>
       <use xlink:href="#DejaVuSans-32"/>
       <use xlink:href="#DejaVuSans-35" x="63.623047"/>
       <use xlink:href="#DejaVuSans-2e" x="127.246094"/>
       <use xlink:href="#DejaVuSans-35" x="159.033203"/>
       <use xlink:href="#DejaVuSans-37" x="222.65625"/>
       <use xlink:href="#DejaVuSans-35" x="286.279297"/>
      </g>
     </g>
    </g>
    <g id="ytick_3">
     <g id="line2d_6">
      <g>
       <use xlink:href="#m72d13fad56" x="139.740449" y="235.782319" style="stroke: #000000; stroke-width: 0.8"/>
      </g>
     </g>
     <g id="text_6">
      <!-- 25.600 -->
      <g transform="translate(97.749824 239.581538) scale(0.1 -0.1)">
       <defs>
        <path id="DejaVuSans-36" d="M 2113 2584 
Q 1688 2584 1439 2293 
Q 1191 2003 1191 1497 
Q 1191 994 1439 701 
Q 1688 409 2113 409 
Q 2538 409 2786 701 
Q 3034 994 3034 1497 
Q 3034 2003 2786 2293 
Q 2538 2584 2113 2584 
z
M 3366 4563 
L 3366 3988 
Q 3128 4100 2886 4159 
Q 2644 4219 2406 4219 
Q 1781 4219 1451 3797 
Q 1122 3375 1075 2522 
Q 1259 2794 1537 2939 
Q 1816 3084 2150 3084 
Q 2853 3084 3261 2657 
Q 3669 2231 3669 1497 
Q 3669 778 3244 343 
Q 2819 -91 2113 -91 
Q 1303 -91 875 529 
Q 447 1150 447 2328 
Q 447 3434 972 4092 
Q 1497 4750 2381 4750 
Q 2619 4750 2861 4703 
Q 3103 4656 3366 4563 
z
" transform="scale(0.015625)"/>
       </defs>
       <use xlink:href="#DejaVuSans-32"/>
       <use xlink:href="#DejaVuSans-35" x="63.623047"/>
       <use xlink:href="#DejaVuSans-2e" x="127.246094"/>
       <use xlink:href="#DejaVuSans-36" x="159.033203"/>
       <use xlink:href="#DejaVuSans-30" x="222.65625"/>
       <use xlink:href="#DejaVuSans-30" x="286.279297"/>
      </g>
     </g>
    </g>
    <g id="ytick_4">
     <g id="line2d_7">
      <g>
       <use xlink:href="#m72d13fad56" x="139.740449" y="201.248859" style="stroke: #000000; stroke-width: 0.8"/>
      </g>
     </g>
     <g id="text_7">
      <!-- 25.625 -->
      <g transform="translate(97.749824 205.048077) scale(0.1 -0.1)">
       <use xlink:href="#DejaVuSans-32"/>
       <use xlink:href="#DejaVuSans-35" x="63.623047"/>
       <use xlink:href="#DejaVuSans-2e" x="127.246094"/>
       <use xlink:href="#DejaVuSans-36" x="159.033203"/>
       <use xlink:href="#DejaVuSans-32" x="222.65625"/>
       <use xlink:href="#DejaVuSans-35" x="286.279297"/>
      </g>
     </g>
    </g>
    <g id="ytick_5">
     <g id="line2d_8">
      <g>
       <use xlink:href="#m72d13fad56" x="139.740449" y="166.715398" style="stroke: #000000; stroke-width: 0.8"/>
      </g>
     </g>
     <g id="text_8">
      <!-- 25.650 -->
      <g transform="translate(97.749824 170.514617) scale(0.1 -0.1)">
       <use xlink:href="#DejaVuSans-32"/>
       <use xlink:href="#DejaVuSans-35" x="63.623047"/>
       <use xlink:href="#DejaVuSans-2e" x="127.246094"/>
       <use xlink:href="#DejaVuSans-36" x="159.033203"/>
       <use xlink:href="#DejaVuSans-35" x="222.65625"/>
       <use xlink:href="#DejaVuSans-30" x="286.279297"/>
      </g>
     </g>
    </g>
    <g id="ytick_6">
     <g id="line2d_9">
      <g>
       <use xlink:href="#m72d13fad56" x="139.740449" y="132.181938" style="stroke: #000000; stroke-width: 0.8"/>
      </g>
     </g>
     <g id="text_9">
      <!-- 25.675 -->
      <g transform="translate(97.749824 135.981156) scale(0.1 -0.1)">
       <use xlink:href="#DejaVuSans-32"/>
       <use xlink:href="#DejaVuSans-35" x="63.623047"/>
       <use xlink:href="#DejaVuSans-2e" x="127.246094"/>
       <use xlink:href="#DejaVuSans-36" x="159.033203"/>
       <use xlink:href="#DejaVuSans-37" x="222.65625"/>
       <use xlink:href="#DejaVuSans-35" x="286.279297"/>
      </g>
     </g>
    </g>
    <g id="ytick_7">
     <g id="line2d_10">
      <g>
       <use xlink:href="#m72d13fad56" x="139.740449" y="97.648477" style="stroke: #000000; stroke-width: 0.8"/>
      </g>
     </g>
     <g id="text_10">
      <!-- 25.700 -->
      <g transform="translate(97.749824 101.447696) scale(0.1 -0.1)">
       <use xlink:href="#DejaVuSans-32"/>
       <use xlink:href="#DejaVuSans-35" x="63.623047"/>
       <use xlink:href="#DejaVuSans-2e" x="127.246094"/>
       <use xlink:href="#DejaVuSans-37" x="159.033203"/>
       <use xlink:href="#DejaVuSans-30" x="222.65625"/>
       <use xlink:href="#DejaVuSans-30" x="286.279297"/>
      </g>
     </g>
    </g>
    <g id="ytick_8">
     <g id="line2d_11">
      <g>
       <use xlink:href="#m72d13fad56" x="139.740449" y="63.115017" style="stroke: #000000; stroke-width: 0.8"/>
      </g>
     </g>
     <g id="text_11">
      <!-- 25.725 -->
      <g transform="translate(97.749824 66.914235) scale(0.1 -0.1)">
       <use xlink:href="#DejaVuSans-32"/>
       <use xlink:href="#DejaVuSans-35" x="63.623047"/>
       <use xlink:href="#DejaVuSans-2e" x="127.246094"/>
       <use xlink:href="#DejaVuSans-37" x="159.033203"/>
       <use xlink:href="#DejaVuSans-32" x="222.65625"/>
       <use xlink:href="#DejaVuSans-35" x="286.279297"/>
      </g>
     </g>
    </g>
   </g>
   <g id="patch_3">
    <path d="M 139.740449 307.584 
L 139.740449 41.472 
" style="fill: none; stroke: #000000; stroke-width: 0.8; stroke-linejoin: miter; stroke-linecap: square"/>
   </g>
   <g id="patch_4">
    <path d="M 332.579551 307.584 
L 332.579551 41.472 
" style="fill: none; stroke: #000000; stroke-width: 0.8; stroke-linejoin: miter; stroke-linecap: square"/>
   </g>
   <g id="patch_5">
    <path d="M 139.740449 307.584 
L 332.579551 307.584 
" style="fill: none; stroke: #000000; stroke-width: 0.8; stroke-linejoin: miter; stroke-linecap: square"/>
   </g>
   <g id="patch_6">
    <path d="M 139.740449 41.472 
L 332.579551 41.472 
" style="fill: none; stroke: #000000; stroke-width: 0.8; stroke-linejoin: miter; stroke-linecap: square"/>
   </g>
  </g>
 </g>
 <defs>
  <clipPath id="p79ecea16ef">
   <rect x="139.740449" y="41.472" width="192.839103" height="266.112"/>
  </clipPath>
 </defs>
</svg>
