<?xml version="1.0" encoding="utf-8" standalone="no"?>
<!DOCTYPE svg PUBLIC "-//W3C//DTD SVG 1.1//EN"
  "http://www.w3.org/Graphics/SVG/1.1/DTD/svg11.dtd">
<svg xmlns:xlink="http://www.w3.org/1999/xlink" width="460.8pt" height="345.6pt" viewBox="0 0 460.8 345.6" xmlns="http://www.w3.org/2000/svg" version="1.1">
 <metadata>
  <rdf:RDF xmlns:dc="http://purl.org/dc/elements/1.1/" xmlns:cc="http://creativecommons.org/ns#" xmlns:rdf="http://www.w3.org/1999/02/22-rdf-syntax-ns#">
   <cc:Work>
    <dc:type rdf:resource="http://purl.org/dc/dcmitype/StillImage"/>
    <dc:date>2023-09-07T19:52:31.678644</dc:date>
    <dc:format>image/svg+xml</dc:format>
    <dc:creator>
     <cc:Agent>
      <dc:title>Matplotlib v3.7.1, https://matplotlib.org/</dc:title>
     </cc:Agent>
    </dc:creator>
   </cc:Work>
  </rdf:RDF>
 </metadata>
 <defs>
  <style type="text/css">*{stroke-linejoin: round; stroke-linecap: butt}</style>
 </defs>
 <g id="figure_1">
  <g id="patch_1">
   <path d="M 0 345.6 
L 460.8 345.6 
L 460.8 0 
L 0 0 
z
" style="fill: #ffffff"/>
  </g>
  <g id="axes_1">
   <g id="patch_2">
    <path d="M 156.511094 307.584 
L 315.808906 307.584 
L 315.808906 41.472 
L 156.511094 41.472 
z
" style="fill: #ffffff"/>
   </g>
   <g id="PatchCollection_1">
    <path d="M 181.948663 108.01769 
L 182.391758 107.714701 
L 182.352379 107.175943 
L 182.795475 106.872955 
L 183.277949 107.108725 
L 183.317327 107.647482 
L 183.7998 107.883253 
L 184.242896 107.580265 
L 184.725368 107.816036 
L 185.168464 107.51305 
L 185.650935 107.748821 
L 185.690311 108.287578 
L 186.172782 108.52335 
L 186.615877 108.220365 
L 187.098347 108.456137 
L 187.541443 108.153152 
L 188.023912 108.388925 
L 188.467007 108.085942 
L 188.949476 108.321715 
L 189.392572 108.018732 
L 189.87504 108.254506 
L 190.318135 107.951524 
L 190.800603 108.187299 
L 191.243698 107.884318 
L 191.726165 108.120093 
L 192.169261 107.817113 
L 192.651727 108.052889 
L 193.094823 107.74991 
L 193.577288 107.985686 
L 194.020384 107.682708 
L 194.502849 107.918485 
L 194.542217 108.457241 
L 195.02468 108.693018 
L 195.467776 108.390041 
L 195.950239 108.625819 
L 196.393335 108.322842 
L 196.875797 108.558621 
L 197.318893 108.255645 
L 197.801355 108.491424 
L 198.244451 108.188449 
L 198.726912 108.424229 
L 199.170008 108.121255 
L 199.652468 108.357036 
L 200.095565 108.054062 
L 200.578024 108.289843 
L 201.02112 107.986871 
L 200.981758 107.448116 
L 201.424855 107.145144 
L 201.385493 106.60639 
L 200.903033 106.370607 
L 200.863671 105.831853 
L 200.38121 105.596071 
L 200.341847 105.057316 
L 199.859385 104.821534 
L 199.416286 105.124507 
L 198.933823 104.888726 
L 198.894459 104.349971 
L 198.411995 104.11419 
L 197.968896 104.417165 
L 197.486432 104.181384 
L 197.043333 104.484359 
L 196.560868 104.248579 
L 196.521501 103.709824 
L 196.039035 103.474045 
L 195.595936 103.777021 
L 195.113469 103.541242 
L 194.67037 103.844219 
L 194.187902 103.60844 
L 194.148533 103.069685 
L 193.666065 102.833907 
L 193.222965 103.136885 
L 192.740496 102.901107 
L 192.297397 103.204086 
L 191.814927 102.968309 
L 191.775556 102.429553 
L 191.293085 102.193777 
L 190.849985 102.496757 
L 190.367513 102.260981 
L 190.328141 101.722225 
L 189.845669 101.486449 
L 189.402568 101.78943 
L 188.920095 101.553655 
L 188.476995 101.856637 
L 187.994521 101.620862 
L 187.955147 101.082106 
L 187.472672 100.846332 
L 187.029571 101.149314 
L 186.547095 100.913541 
L 186.50772 100.374784 
L 186.025243 100.139011 
L 185.582142 100.441995 
L 185.099665 100.206222 
L 184.656564 100.509207 
L 184.174086 100.273435 
L 184.134708 99.734677 
L 183.652229 99.498906 
L 183.612851 98.960148 
L 183.130371 98.724377 
L 183.090992 98.185619 
L 182.60851 97.949848 
L 182.165408 98.252834 
L 181.682927 98.017064 
L 181.643546 97.478306 
L 181.161063 97.242536 
L 181.121683 96.703778 
L 180.639199 96.468008 
L 180.599818 95.92925 
L 180.117333 95.69348 
L 179.674229 95.996468 
L 179.191744 95.760698 
L 178.74864 96.063687 
L 178.266154 95.827918 
L 177.823051 96.130908 
L 177.862435 96.669666 
L 177.419332 96.972656 
L 177.458716 97.511414 
L 177.015614 97.814405 
L 177.054999 98.353163 
L 176.611897 98.656155 
L 176.651282 99.194913 
L 176.208181 99.497905 
L 175.725696 99.262138 
L 175.282595 99.565131 
L 174.800109 99.329365 
L 174.760723 98.790606 
L 174.278235 98.554841 
L 174.238848 98.016082 
L 174.68195 97.713089 
L 174.642563 97.17433 
L 175.085665 96.871338 
L 175.568154 97.107104 
L 176.011256 96.804112 
L 175.97187 96.265354 
L 176.414973 95.962363 
L 176.375588 95.423604 
L 176.818692 95.120613 
L 177.30118 95.356381 
L 177.744283 95.053392 
L 177.7049 94.514633 
L 178.148004 94.211644 
L 178.10862 93.672886 
L 177.626132 93.437117 
L 177.586748 92.898359 
L 178.029853 92.59537 
L 177.990469 92.056612 
L 177.507979 91.820843 
L 177.064873 92.123832 
L 176.582383 91.888064 
L 176.542997 91.349306 
L 176.060506 91.113537 
L 176.02112 90.574779 
L 175.538627 90.339011 
L 175.095521 90.642002 
L 174.613027 90.406234 
L 174.169921 90.709226 
L 174.209308 91.247985 
L 173.766202 91.550977 
L 173.283708 91.31521 
L 172.840602 91.618203 
L 172.879991 92.156962 
L 172.436885 92.459956 
L 171.954391 92.22419 
L 171.511286 92.527185 
L 171.550676 93.065944 
L 171.107571 93.368938 
L 170.625077 93.133174 
L 170.181972 93.43617 
L 170.221363 93.974929 
L 169.778259 94.277925 
L 169.295764 94.042162 
L 168.852661 94.345159 
L 168.370165 94.109397 
L 167.927062 94.412395 
L 167.444565 94.176633 
L 167.001462 94.479631 
L 166.518965 94.24387 
L 166.479571 93.70511 
L 165.997073 93.469349 
L 165.957679 92.930589 
L 165.47518 92.694829 
L 165.032076 92.997828 
L 164.549576 92.762068 
L 164.51018 92.223308 
L 164.953285 91.920308 
L 164.913889 91.381548 
L 164.431388 91.145787 
L 164.391992 90.607027 
L 163.90949 90.371267 
L 163.870094 89.832507 
L 164.3132 89.529506 
L 164.273804 88.990746 
L 163.7913 88.754986 
L 163.751904 88.216225 
L 164.195011 87.913225 
L 164.155615 87.374465 
L 164.598723 87.071466 
L 165.081227 87.307227 
L 165.120622 87.845987 
L 164.677515 88.148986 
L 164.716911 88.687746 
L 165.199413 88.923507 
L 165.238809 89.462267 
L 165.72131 89.698029 
L 165.760705 90.236789 
L 166.243206 90.47255 
L 166.2826 91.01131 
L 166.7651 91.247072 
L 167.208206 90.944074 
L 167.690705 91.179836 
L 168.13381 90.876839 
L 168.094418 90.338079 
L 168.537524 90.035082 
L 169.020022 90.270846 
L 169.463129 89.96785 
L 169.945627 90.203614 
L 170.388733 89.900619 
L 170.349343 89.361859 
L 170.79245 89.058865 
L 171.274947 89.29463 
L 171.718055 88.991636 
L 172.200552 89.227402 
L 172.643659 88.924409 
L 172.60427 88.38565 
L 172.121773 88.149884 
L 172.082384 87.611125 
L 171.599886 87.375359 
L 171.560496 86.8366 
L 171.077997 86.600834 
L 171.038606 86.062075 
L 170.556106 85.82631 
L 170.516715 85.287551 
L 170.959825 84.984557 
L 170.920435 84.445798 
L 171.363545 84.142805 
L 171.846046 84.378572 
L 171.885436 84.917331 
L 172.367936 85.153097 
L 172.407325 85.691856 
L 172.889824 85.927623 
L 172.929213 86.466381 
L 173.41171 86.702148 
L 173.451099 87.240907 
L 173.933595 87.476674 
L 174.376704 87.173683 
L 174.337317 86.634925 
L 174.780426 86.331934 
L 174.741039 85.793176 
L 175.18415 85.490186 
L 175.144763 84.951428 
L 175.587874 84.648438 
L 175.548487 84.10968 
L 175.991598 83.806691 
L 175.952212 83.267933 
L 176.395324 82.964945 
L 176.355939 82.426187 
L 175.87344 82.190417 
L 175.834053 81.651659 
L 176.277167 81.348671 
L 176.237781 80.809913 
L 176.680894 80.506925 
L 176.641509 79.968167 
L 177.084623 79.66518 
L 177.045238 79.126423 
L 177.488353 78.823436 
L 177.448968 78.284678 
L 177.892083 77.981693 
L 177.852698 77.442935 
L 178.295815 77.13995 
L 178.25643 76.601192 
L 178.699547 76.298207 
L 178.660163 75.75945 
L 179.103281 75.456465 
L 179.063897 74.917708 
L 178.581394 74.681935 
L 178.54201 74.143178 
L 178.059507 73.907405 
L 178.020122 73.368647 
L 178.463241 73.065663 
L 178.423856 72.526906 
L 177.941352 72.291132 
L 177.901966 71.752375 
L 177.419461 71.516602 
L 177.380075 70.977845 
L 176.897568 70.742072 
L 176.858182 70.203314 
L 176.375675 69.967542 
L 176.336288 69.428784 
L 175.853779 69.193012 
L 175.814392 68.654254 
L 175.331882 68.418482 
L 175.292495 67.879724 
L 174.809984 67.643952 
L 174.770596 67.105195 
L 175.213719 66.802209 
L 175.174331 66.263451 
L 174.691819 66.027679 
L 174.652431 65.488921 
L 174.169917 65.253149 
L 174.130528 64.714392 
L 173.648014 64.47862 
L 173.20489 64.781606 
L 172.722375 64.545835 
L 172.682984 64.007077 
L 172.200469 63.771306 
L 172.161078 63.232548 
L 171.678561 62.996778 
L 171.63917 62.458019 
L 171.156652 62.222249 
L 171.11726 61.683491 
L 170.634741 61.44772 
L 170.595349 60.908962 
L 170.112829 60.673192 
L 170.073436 60.134434 
L 169.590915 59.898664 
L 169.551522 59.359905 
L 169.069 59.124136 
L 169.029606 58.585377 
L 168.547083 58.349608 
L 168.507689 57.810849 
L 168.025165 57.57508 
L 167.582036 57.87807 
L 167.099511 57.642301 
L 167.060115 57.103542 
L 166.57759 56.867774 
L 166.538193 56.329015 
L 166.055667 56.093247 
L 166.01627 55.554488 
L 165.533742 55.31872 
L 165.494345 54.779961 
L 165.937476 54.47697 
L 165.898079 53.938211 
L 166.341211 53.635221 
L 166.823739 53.87099 
L 167.266871 53.568 
L 167.749399 53.803769 
L 167.788794 54.342528 
L 168.271321 54.578298 
L 168.310716 55.117056 
L 168.793241 55.352826 
L 168.832636 55.891585 
L 169.31516 56.127355 
L 169.758291 55.824367 
L 170.240815 56.060137 
L 170.280208 56.598896 
L 170.76273 56.834667 
L 170.802123 57.373425 
L 171.284645 57.609196 
L 171.324037 58.147954 
L 171.806558 58.383725 
L 171.845949 58.922483 
L 172.328469 59.158255 
L 172.771598 58.855269 
L 173.254117 59.091041 
L 173.293507 59.629799 
L 173.776025 59.865571 
L 173.815414 60.404329 
L 174.297932 60.640102 
L 174.337321 61.178859 
L 174.819837 61.414632 
L 174.859225 61.95339 
L 175.34174 62.189163 
L 175.381128 62.72792 
L 175.863642 62.963694 
L 175.90303 63.502451 
L 176.385543 63.738225 
L 176.42493 64.276982 
L 176.907442 64.512756 
L 176.946828 65.051513 
L 177.429339 65.287287 
L 177.468725 65.826044 
L 177.951235 66.061818 
L 177.990621 66.600576 
L 178.47313 66.83635 
L 178.512515 67.375107 
L 178.995023 67.610881 
L 179.034407 68.149639 
L 179.516914 68.385413 
L 179.556298 68.92417 
L 180.038804 69.159945 
L 180.078187 69.698702 
L 180.560692 69.934477 
L 180.600075 70.473234 
L 181.082579 70.709009 
L 181.525701 70.406028 
L 182.008204 70.641804 
L 182.451325 70.338824 
L 182.933828 70.574601 
L 183.376949 70.271621 
L 183.859451 70.507398 
L 183.898831 71.046155 
L 184.381332 71.281932 
L 184.420711 71.820688 
L 184.903211 72.056466 
L 184.94259 72.595222 
L 184.49947 72.898201 
L 184.538849 73.436957 
L 184.09573 73.739937 
L 183.61323 73.50416 
L 183.170111 73.80714 
L 183.209491 74.345896 
L 182.766373 74.648877 
L 182.283873 74.413101 
L 181.840754 74.716082 
L 181.880136 75.254839 
L 181.437018 75.557821 
L 181.4764 76.096578 
L 181.958899 76.332353 
L 181.99828 76.87111 
L 181.555163 77.174092 
L 181.594544 77.712849 
L 181.151428 78.015832 
L 181.19081 78.554589 
L 180.747695 78.857572 
L 180.787077 79.396329 
L 180.343962 79.699313 
L 180.383344 80.23807 
L 179.94023 80.541054 
L 179.979613 81.079812 
L 179.536499 81.382796 
L 179.575882 81.921554 
L 179.132769 82.224539 
L 179.172152 82.763297 
L 179.654648 82.999069 
L 179.694031 83.537826 
L 179.250919 83.840812 
L 179.290302 84.379569 
L 178.847191 84.682555 
L 178.886574 85.221313 
L 178.443464 85.5243 
L 178.482847 86.063057 
L 178.965341 86.298828 
L 179.004724 86.837586 
L 178.561615 87.140573 
L 178.600998 87.679331 
L 179.083491 87.915101 
L 179.122874 88.453859 
L 179.605365 88.68963 
L 179.644747 89.228388 
L 180.127238 89.464159 
L 180.16662 90.002916 
L 180.649109 90.238687 
L 180.688491 90.777445 
L 181.170979 91.013216 
L 181.21036 91.551974 
L 181.692847 91.787746 
L 182.135954 91.48476 
L 182.61844 91.720533 
L 182.65782 92.25929 
L 183.140305 92.495062 
L 183.179685 93.033819 
L 183.662169 93.269592 
L 183.701548 93.808349 
L 184.184031 94.044122 
L 184.223409 94.582879 
L 184.705892 94.818652 
L 185.148996 94.515669 
L 185.631478 94.751443 
L 185.670855 95.290199 
L 186.153336 95.525973 
L 186.192712 96.06473 
L 186.675192 96.300504 
L 187.118296 95.997522 
L 187.600775 96.233297 
L 187.64015 96.772054 
L 188.122628 97.007829 
L 188.565731 96.704848 
L 189.048208 96.940624 
L 189.087582 97.47938 
L 189.570058 97.715156 
L 190.013162 97.412176 
L 190.495637 97.647952 
L 190.93874 97.344973 
L 191.421215 97.580751 
L 191.460587 98.119506 
L 191.943061 98.355284 
L 192.386164 98.052306 
L 192.868637 98.288084 
L 193.31174 97.985107 
L 193.794212 98.220886 
L 193.833582 98.759641 
L 194.316053 98.99542 
L 194.759156 98.692444 
L 195.241627 98.928223 
L 195.280995 99.466979 
L 195.763464 99.702758 
L 196.206567 99.399783 
L 196.689036 99.635564 
L 197.132138 99.33259 
L 197.614607 99.568371 
L 197.653972 100.107126 
L 198.13644 100.342907 
L 198.579542 100.039934 
L 199.062009 100.275716 
L 199.505111 99.972744 
L 199.987577 100.208526 
L 200.02694 100.747281 
L 200.509405 100.983063 
L 200.952507 100.680092 
L 200.913144 100.141338 
L 201.356247 99.838367 
L 201.316884 99.299613 
L 201.759987 98.996643 
L 202.242452 99.232427 
L 202.685555 98.929458 
L 202.646194 98.390704 
L 203.089298 98.087735 
L 203.571762 98.323521 
L 204.014866 98.020553 
L 204.49733 98.256339 
L 204.940434 97.953372 
L 204.901075 97.414618 
L 205.344179 97.111652 
L 205.826643 97.347439 
L 206.269748 97.044473 
L 206.752211 97.280261 
L 207.195316 96.977296 
L 207.155958 96.438543 
L 207.599064 96.135578 
L 207.559706 95.596825 
L 208.002813 95.293861 
L 207.963456 94.755108 
L 208.406563 94.452145 
L 208.367206 93.913392 
L 208.810313 93.610429 
L 208.770957 93.071677 
L 209.214065 92.768714 
L 209.696529 93.004505 
L 210.139637 92.701544 
L 210.6221 92.937335 
L 211.065209 92.634374 
L 211.547671 92.870166 
L 211.99078 92.567206 
L 212.473241 92.802999 
L 212.91635 92.50004 
L 213.398811 92.735833 
L 213.438163 93.274585 
L 213.920623 93.510378 
L 213.959975 94.04913 
L 213.516867 94.352089 
L 213.556219 94.89084 
L 214.038678 95.126634 
L 214.078029 95.665385 
L 214.560487 95.901179 
L 214.599838 96.439931 
L 214.156732 96.742889 
L 214.196083 97.281641 
L 214.678539 97.517434 
L 214.71789 98.056186 
L 214.274785 98.359145 
L 214.314136 98.897896 
L 214.796591 99.133689 
L 215.239695 98.830731 
L 215.72215 99.066525 
L 215.761499 99.605276 
L 216.243952 99.84107 
L 216.283302 100.379822 
L 215.840198 100.682779 
L 215.357745 100.446986 
L 214.914642 100.749945 
L 214.953992 101.288697 
L 214.51089 101.591656 
L 214.55024 102.130408 
L 214.107139 102.433368 
L 214.146489 102.97212 
L 214.628941 103.207912 
L 214.668292 103.746664 
L 215.150743 103.982456 
L 215.190093 104.521208 
L 214.746992 104.824168 
L 214.786342 105.36292 
L 215.268792 105.598712 
L 215.308142 106.137464 
L 215.79059 106.373256 
L 215.829939 106.912008 
L 216.312387 107.1478 
L 216.351736 107.686552 
L 216.834182 107.922345 
L 216.87353 108.461096 
L 216.430433 108.764055 
L 216.469781 109.302807 
L 216.952226 109.5386 
L 216.991574 110.077351 
L 217.474019 110.313144 
L 217.513366 110.851896 
L 217.995809 111.087689 
L 218.035156 111.62644 
L 218.517598 111.862233 
L 218.556945 112.400985 
L 218.11385 112.703943 
L 218.153196 113.242695 
L 217.710102 113.545654 
L 217.22766 113.309862 
L 216.784566 113.612822 
L 216.823914 114.151574 
L 216.38082 114.454535 
L 216.420168 114.993287 
L 215.977075 115.296248 
L 216.016424 115.835 
L 215.573331 116.137961 
L 215.61268 116.676714 
L 216.09512 116.912504 
L 216.134468 117.451256 
L 216.616908 117.687047 
L 216.656255 118.225799 
L 216.213165 118.52876 
L 216.252513 119.067512 
L 216.73495 119.303303 
L 216.774298 119.842055 
L 216.331208 120.145017 
L 216.370556 120.683769 
L 216.852993 120.919559 
L 216.89234 121.458311 
L 216.449251 121.761273 
L 216.488599 122.300026 
L 216.971034 122.535815 
L 217.010381 123.074568 
L 217.492816 123.310358 
L 217.532162 123.84911 
L 218.014595 124.0849 
L 218.053941 124.623652 
L 218.536374 124.859443 
L 218.575719 125.398195 
L 219.05815 125.633985 
L 219.097495 126.172737 
L 219.579926 126.408528 
L 219.61927 126.94728 
L 220.101699 127.183071 
L 220.141043 127.721823 
L 220.623471 127.957614 
L 220.662815 128.496366 
L 221.145242 128.732157 
L 221.588326 128.429198 
L 221.548983 127.890446 
L 221.992068 127.587487 
L 221.952726 127.048736 
L 221.470298 126.812943 
L 221.430955 126.274192 
L 221.874041 125.971233 
L 221.834698 125.432482 
L 222.277785 125.129523 
L 222.238442 124.590772 
L 222.681529 124.287814 
L 222.642187 123.749063 
L 223.085275 123.446106 
L 223.567704 123.6819 
L 224.010792 123.378943 
L 224.49322 123.614738 
L 224.532561 124.153489 
L 225.014988 124.389284 
L 225.054328 124.928035 
L 224.611241 125.230991 
L 224.128814 124.995196 
L 223.685727 125.298153 
L 223.725068 125.836904 
L 223.281982 126.139861 
L 223.321323 126.678612 
L 222.878238 126.98157 
L 222.917579 127.520321 
L 223.400005 127.756115 
L 223.439346 128.294866 
L 222.996262 128.597824 
L 223.035604 129.136575 
L 223.518028 129.372368 
L 223.557369 129.911119 
L 224.039793 130.146913 
L 224.482876 129.843955 
L 224.965299 130.079749 
L 225.004639 130.6185 
L 225.487061 130.854294 
L 225.930143 130.551338 
L 226.412565 130.787133 
L 226.451903 131.325883 
L 226.934323 131.561678 
L 226.973661 132.100429 
L 227.45608 132.336224 
L 227.899162 132.033269 
L 228.381581 132.269065 
L 228.420917 132.807815 
L 227.977835 133.11077 
L 228.017172 133.649521 
L 228.499589 133.885316 
L 228.538925 134.424067 
L 229.021342 134.659863 
L 229.060677 135.198613 
L 229.543092 135.434409 
L 229.582427 135.973159 
L 230.064842 136.208956 
L 230.104176 136.747706 
L 230.586589 136.983502 
L 230.625923 137.522252 
L 231.108336 137.758049 
L 231.147669 138.296799 
L 231.63008 138.532596 
L 231.669413 139.071346 
L 231.226336 139.374299 
L 231.265669 139.91305 
L 231.748079 140.148846 
L 231.787412 140.687596 
L 232.269821 140.923393 
L 232.309153 141.462143 
L 231.866077 141.765097 
L 231.90541 142.303847 
L 232.387817 142.539643 
L 232.427149 143.078393 
L 232.909556 143.31419 
L 232.948887 143.85294 
L 233.431293 144.088737 
L 233.470624 144.627487 
L 233.953028 144.863284 
L 233.992359 145.402034 
L 234.474762 145.637831 
L 234.514092 146.176581 
L 234.996494 146.412379 
L 235.035824 146.951129 
L 235.518225 147.186926 
L 235.557554 147.725676 
L 236.039955 147.961474 
L 236.079283 148.500224 
L 236.561682 148.736022 
L 236.60101 149.274771 
L 237.083409 149.51057 
L 237.526479 149.207619 
L 238.008877 149.443418 
L 238.048204 149.982168 
L 238.5306 150.217967 
L 238.569926 150.756716 
L 239.052322 150.992516 
L 239.091648 151.531265 
L 239.574042 151.767064 
L 239.613367 152.305814 
L 240.095761 152.541613 
L 240.135085 153.080362 
L 240.617478 153.316163 
L 240.656802 153.854912 
L 241.139194 154.090712 
L 241.178517 154.629461 
L 241.660908 154.865261 
L 241.700231 155.40401 
L 242.18262 155.639811 
L 242.221943 156.17856 
L 242.704331 156.414361 
L 242.743653 156.953109 
L 243.226041 157.18891 
L 243.669107 156.885963 
L 244.151494 157.121765 
L 244.190814 157.660514 
L 244.6732 157.896316 
L 245.116265 157.59337 
L 245.598651 157.829172 
L 245.63797 158.367921 
L 246.120354 158.603723 
L 246.563419 158.300779 
L 247.045803 158.536582 
L 247.488868 158.233638 
L 247.971251 158.469442 
L 248.010568 159.00819 
L 248.492949 159.243994 
L 248.532266 159.782742 
L 249.014647 160.018547 
L 249.053963 160.557294 
L 249.536342 160.793099 
L 249.979406 160.490157 
L 250.461785 160.725962 
L 250.5011 161.26471 
L 250.983478 161.500515 
L 251.022792 162.039263 
L 251.505169 162.275069 
L 251.948232 161.972127 
L 251.908919 161.43338 
L 252.351983 161.13044 
L 252.834359 161.366247 
L 253.277423 161.063307 
L 253.759799 161.299115 
L 254.202863 160.996176 
L 254.685238 161.231984 
L 255.128302 160.929046 
L 255.610677 161.164855 
L 255.649987 161.703601 
L 256.13236 161.93941 
L 256.575424 161.636473 
L 257.057797 161.872283 
L 257.097105 162.411029 
L 257.579477 162.646839 
L 257.618786 163.185586 
L 257.175723 163.488522 
L 256.693351 163.252713 
L 256.250289 163.55565 
L 255.767917 163.319841 
L 255.324854 163.622779 
L 255.364165 164.161526 
L 254.921103 164.464464 
L 254.960413 165.003211 
L 254.517352 165.30615 
L 254.03498 165.070343 
L 253.591919 165.373283 
L 253.631231 165.91203 
L 253.18817 166.21497 
L 253.227482 166.753717 
L 252.784422 167.056658 
L 252.823735 167.595406 
L 252.380676 167.898347 
L 252.419988 168.437094 
L 252.902359 168.6729 
L 252.941671 169.211647 
L 252.498613 169.514589 
L 252.537926 170.053336 
L 253.020295 170.289142 
L 253.059607 170.827889 
L 253.541976 171.063694 
L 253.985033 170.760753 
L 254.4674 170.996559 
L 254.506711 171.535306 
L 254.989078 171.771113 
L 255.028388 172.30986 
L 255.510754 172.545666 
L 255.550063 173.084413 
L 256.032428 173.32022 
L 256.071737 173.858967 
L 256.554101 174.094774 
L 256.593409 174.633521 
L 257.075772 174.869328 
L 257.11508 175.408075 
L 257.597442 175.643882 
L 257.636749 176.182629 
L 258.11911 176.418436 
L 258.158417 176.957183 
L 258.640777 177.192991 
L 258.680083 177.731737 
L 259.162442 177.967545 
L 259.201748 178.506292 
L 259.684106 178.7421 
L 259.723411 179.280846 
L 260.205768 179.516655 
L 260.245073 180.055401 
L 260.727428 180.29121 
L 260.766733 180.829956 
L 261.249088 181.065765 
L 261.692138 180.762828 
L 262.174492 180.998637 
L 262.213795 181.537383 
L 262.696148 181.773193 
L 263.139198 181.470257 
L 263.099896 180.931512 
L 263.542947 180.628576 
L 264.0253 180.864387 
L 264.468351 180.561453 
L 264.42905 180.022707 
L 264.872101 179.719773 
L 265.354454 179.955585 
L 265.393754 180.494331 
L 265.876105 180.730143 
L 265.915405 181.268888 
L 266.397755 181.5047 
L 266.437054 182.043446 
L 266.919403 182.279258 
L 266.958702 182.818003 
L 267.44105 183.053816 
L 267.480349 183.592561 
L 267.962696 183.828374 
L 268.405745 183.525442 
L 268.888091 183.761256 
L 269.331141 183.458325 
L 269.813487 183.694139 
L 270.256536 183.391209 
L 270.21724 182.852465 
L 270.660291 182.549535 
L 271.142636 182.78535 
L 271.585686 182.482422 
L 272.068031 182.718238 
L 272.511081 182.41531 
L 272.993425 182.651126 
L 273.436476 182.348199 
L 273.918819 182.584016 
L 274.36187 182.28109 
L 274.844213 182.516908 
L 275.287264 182.213983 
L 275.769605 182.449801 
L 276.212656 182.146876 
L 276.694998 182.382696 
L 277.138049 182.079772 
L 277.620389 182.315592 
L 278.06344 182.012668 
L 278.024152 181.473925 
L 278.467203 181.171003 
L 278.949544 181.406824 
L 279.392596 181.103902 
L 279.874935 181.339724 
L 280.317987 181.036803 
L 280.2787 180.49806 
L 280.721753 180.195139 
L 281.204092 180.430962 
L 281.647145 180.128043 
L 281.607859 179.5893 
L 282.050913 179.286381 
L 282.533251 179.522205 
L 282.976305 179.219287 
L 282.93702 178.680544 
L 283.380075 178.377627 
L 283.34079 177.838884 
L 283.783845 177.535967 
L 283.744561 176.997225 
L 284.187617 176.694309 
L 284.148333 176.155567 
L 284.591389 175.852651 
L 284.552106 175.313909 
L 284.995162 175.010993 
L 284.955879 174.472251 
L 285.398937 174.169336 
L 285.881277 174.405163 
L 286.324334 174.102249 
L 286.806673 174.338077 
L 286.845955 174.876818 
L 287.328293 175.112646 
L 287.77135 174.809733 
L 288.253688 175.045562 
L 288.696745 174.742649 
L 289.179082 174.978478 
L 289.218361 175.517219 
L 289.700697 175.753049 
L 290.143754 175.450138 
L 290.626089 175.685968 
L 290.665367 176.224709 
L 291.147702 176.460539 
L 291.590758 176.157629 
L 292.073092 176.39346 
L 292.112368 176.9322 
L 292.594701 177.168031 
L 293.037757 176.865122 
L 293.520089 177.100954 
L 293.559364 177.639694 
L 294.041695 177.875526 
L 294.48475 177.572618 
L 294.96708 177.808451 
L 295.410136 177.505544 
L 295.892466 177.741377 
L 295.931739 178.280117 
L 296.414067 178.51595 
L 296.857123 178.213044 
L 297.33945 178.448878 
L 297.378722 178.987618 
L 296.935667 179.290524 
L 296.974939 179.829264 
L 297.457266 180.065098 
L 297.496537 180.603837 
L 297.053483 180.906743 
L 297.092755 181.445483 
L 297.57508 181.681317 
L 297.614352 182.220057 
L 297.171299 182.522963 
L 297.21057 183.061703 
L 297.692894 183.297536 
L 297.732165 183.836276 
L 297.289114 184.139183 
L 297.328385 184.677922 
L 296.885334 184.98083 
L 296.403011 184.744997 
L 295.95996 185.047905 
L 295.999233 185.586645 
L 295.556183 185.889554 
L 295.595456 186.428294 
L 296.077778 186.664125 
L 296.11705 187.202866 
L 295.674001 187.505774 
L 295.713274 188.044515 
L 295.270225 188.347424 
L 295.309498 188.886164 
L 295.791819 189.121995 
L 295.831092 189.660736 
L 295.388044 189.963645 
L 295.427317 190.502385 
L 295.909636 190.738216 
L 295.948909 191.276957 
L 295.505863 191.579866 
L 295.545135 192.118607 
L 296.027453 192.354437 
L 296.066725 192.893178 
L 295.62368 193.196088 
L 295.662953 193.734828 
L 296.145269 193.970658 
L 296.184541 194.509399 
L 295.741497 194.812309 
L 295.780769 195.35105 
L 296.263085 195.58688 
L 296.302356 196.12562 
L 296.784671 196.36145 
L 296.823942 196.900191 
L 296.3809 197.203101 
L 296.420171 197.741841 
L 296.902484 197.977671 
L 296.941755 198.516412 
L 296.498714 198.819322 
L 296.537985 199.358063 
L 297.020297 199.593892 
L 297.059568 200.132633 
L 297.541878 200.368463 
L 297.581148 200.907203 
L 298.063458 201.143033 
L 298.102728 201.681774 
L 297.659689 201.984684 
L 297.698959 202.523424 
L 298.181267 202.759254 
L 298.220537 203.297994 
L 297.777499 203.600905 
L 297.816769 204.139645 
L 297.373731 204.442556 
L 296.891423 204.206727 
L 296.852153 203.667987 
L 296.369844 203.432158 
L 295.926806 203.73507 
L 295.444497 203.499242 
L 295.405225 202.960501 
L 294.922915 202.724673 
L 294.479877 203.027586 
L 293.997566 202.791759 
L 293.958292 202.253018 
L 293.47598 202.017191 
L 293.032942 202.320105 
L 292.550629 202.084278 
L 292.511354 201.545537 
L 292.02904 201.309711 
L 291.586002 201.612626 
L 291.103687 201.376801 
L 290.660648 201.679717 
L 290.699925 202.218458 
L 290.256887 202.521375 
L 290.296163 203.060117 
L 289.853126 203.363034 
L 289.892403 203.901776 
L 289.449366 204.204694 
L 289.488643 204.743435 
L 289.045607 205.046354 
L 289.084885 205.585096 
L 288.641849 205.888015 
L 288.681127 206.426757 
L 288.238092 206.729676 
L 288.27737 207.268418 
L 287.834336 207.571338 
L 287.873614 208.11008 
L 287.430581 208.413001 
L 286.948268 208.177179 
L 286.505234 208.480101 
L 286.022921 208.24428 
L 285.579888 208.547202 
L 285.097574 208.311382 
L 284.65454 208.614304 
L 284.172226 208.378485 
L 284.132944 207.839742 
L 283.650628 207.603923 
L 283.207595 207.906847 
L 282.725278 207.671028 
L 282.282245 207.973953 
L 281.799928 207.738135 
L 281.356894 208.04106 
L 281.396178 208.579804 
L 280.953146 208.88273 
L 280.99243 209.421473 
L 281.474747 209.65729 
L 281.514031 210.196034 
L 281.070999 210.49896 
L 281.110283 211.037704 
L 281.592599 211.273521 
L 281.631882 211.812264 
L 282.114196 212.048081 
L 282.15348 212.586825 
L 281.71045 212.889751 
L 281.749733 213.428495 
L 282.232046 213.664311 
L 282.271329 214.203055 
L 282.753641 214.438872 
L 282.792924 214.977615 
L 282.349895 215.280542 
L 282.389178 215.819285 
L 281.94615 216.122212 
L 281.985433 216.660956 
L 281.542406 216.963883 
L 281.58169 217.502627 
L 282.064 217.738443 
L 282.103283 218.277186 
L 282.585591 218.513002 
L 282.624874 219.051746 
L 282.181848 219.354673 
L 282.221131 219.893417 
L 282.703439 220.129233 
L 282.742721 220.667976 
L 283.225027 220.903793 
L 283.264309 221.442536 
L 283.746614 221.678352 
L 283.785896 222.217096 
L 283.342872 222.520023 
L 283.382154 223.058766 
L 283.864458 223.294583 
L 283.903739 223.833326 
L 283.460717 224.136253 
L 283.499998 224.674997 
L 283.982301 224.910813 
L 284.021582 225.449556 
L 283.57856 225.752484 
L 283.617842 226.291227 
L 283.174821 226.594155 
L 283.214103 227.132899 
L 282.771083 227.435828 
L 282.810365 227.974572 
L 283.292665 228.210386 
L 283.331946 228.74913 
L 282.888928 229.052059 
L 282.928209 229.590803 
L 283.410509 229.826617 
L 283.44979 230.365361 
L 283.006772 230.66829 
L 283.046054 231.207034 
L 282.603037 231.509964 
L 282.642318 232.048708 
L 282.199302 232.351638 
L 281.717003 232.115825 
L 281.273987 232.418756 
L 280.791688 232.182943 
L 280.348672 232.485875 
L 280.387956 233.024619 
L 279.94494 233.327552 
L 279.984224 233.866296 
L 279.541209 234.169229 
L 279.580494 234.707974 
L 279.137479 235.010907 
L 279.176764 235.549652 
L 278.73375 235.852586 
L 278.773035 236.39133 
L 278.330022 236.694265 
L 277.847724 236.458455 
L 277.404711 236.761391 
L 276.922412 236.525581 
L 276.883126 235.986836 
L 276.400826 235.751027 
L 276.361539 235.212282 
L 275.879238 234.976474 
L 275.839951 234.437729 
L 275.357649 234.20192 
L 274.914635 234.504857 
L 274.953923 235.043602 
L 275.436224 235.27941 
L 275.475512 235.818156 
L 275.032499 236.121093 
L 275.071787 236.659838 
L 275.554088 236.895646 
L 275.9971 236.592709 
L 276.4794 236.828518 
L 276.518687 237.367263 
L 276.075675 237.670199 
L 276.114962 238.208945 
L 275.67195 238.511882 
L 275.711238 239.050627 
L 276.193536 239.286435 
L 276.232822 239.82518 
L 276.715119 240.060988 
L 276.754406 240.599733 
L 277.236702 240.835542 
L 277.679712 240.532605 
L 278.162007 240.768414 
L 278.201292 241.307159 
L 278.683586 241.542968 
L 279.126596 241.240033 
L 279.608889 241.475842 
L 280.051899 241.172908 
L 280.534192 241.408718 
L 280.977201 241.105784 
L 281.459493 241.341595 
L 281.498775 241.88034 
L 281.981067 242.116151 
L 282.020348 242.654895 
L 282.502638 242.890707 
L 282.541919 243.429451 
L 283.024208 243.665262 
L 283.063489 244.204007 
L 283.545777 244.439818 
L 283.988785 244.136887 
L 284.471072 244.372699 
L 284.510351 244.911443 
L 284.067344 245.214375 
L 284.106623 245.753118 
L 284.588909 245.988931 
L 284.628188 246.527675 
L 285.110473 246.763487 
L 285.149752 247.302231 
L 285.632036 247.538044 
L 286.075042 247.235113 
L 286.557325 247.470926 
L 286.596602 248.00967 
L 287.078885 248.245483 
L 287.52189 247.942554 
L 288.004172 248.178368 
L 288.043448 248.717111 
L 288.525728 248.952926 
L 288.565003 249.491669 
L 289.047283 249.727483 
L 289.086558 250.266227 
L 289.568836 250.502042 
L 290.01184 250.199113 
L 289.972567 249.66037 
L 290.415571 249.357443 
L 290.89785 249.593259 
L 290.937123 250.132002 
L 291.4194 250.367818 
L 291.862404 250.064891 
L 292.344681 250.300708 
L 292.787685 249.997783 
L 293.269961 250.2336 
L 293.712966 249.930675 
L 293.673695 249.391933 
L 294.1167 249.089008 
L 294.598976 249.324827 
L 295.041981 249.021903 
L 295.524256 249.257723 
L 295.563525 249.796465 
L 296.045799 250.032284 
L 296.488804 249.729362 
L 296.971077 249.965182 
L 297.414082 249.66226 
L 297.896354 249.898081 
L 298.33936 249.59516 
L 298.300093 249.056418 
L 298.743099 248.753498 
L 299.225371 248.98932 
L 299.668377 248.6864 
L 299.629112 248.147659 
L 300.072118 247.84474 
L 300.55439 248.080563 
L 300.593655 248.619304 
L 301.075925 248.855127 
L 301.115189 249.393868 
L 300.672183 249.696787 
L 300.711448 250.235528 
L 300.268443 250.538447 
L 300.307707 251.077188 
L 300.789976 251.31301 
L 300.829241 251.851751 
L 300.386237 252.15467 
L 300.425501 252.693412 
L 300.907769 252.929234 
L 300.947033 253.467975 
L 301.429299 253.703797 
L 301.468563 254.242539 
L 301.950828 254.478361 
L 302.393831 254.175443 
L 302.876095 254.411266 
L 303.319098 254.108348 
L 303.801362 254.344172 
L 304.244365 254.041256 
L 304.726628 254.27708 
L 305.169631 253.974164 
L 305.130371 253.435424 
L 305.573375 253.132508 
L 306.055638 253.368334 
L 306.498641 253.065419 
L 306.980904 253.301245 
L 307.423907 252.998332 
L 307.906169 253.234159 
L 307.945427 253.772899 
L 308.427687 254.008726 
L 308.466945 254.547466 
L 308.023942 254.850379 
L 308.063199 255.389119 
L 307.620197 255.692032 
L 307.137937 255.456206 
L 307.098679 254.917466 
L 306.616418 254.68164 
L 306.173415 254.984555 
L 306.212675 255.523295 
L 305.769673 255.826211 
L 305.808932 256.364951 
L 305.365931 256.667867 
L 304.88367 256.432042 
L 304.440669 256.734959 
L 303.958407 256.499135 
L 303.515406 256.802053 
L 303.033144 256.56623 
L 302.590143 256.869148 
L 302.107879 256.633326 
L 301.664879 256.936245 
L 301.182615 256.700423 
L 300.739614 257.003343 
L 300.778878 257.542084 
L 300.335878 257.845004 
L 299.853614 257.609184 
L 299.410614 257.912105 
L 298.928349 257.676285 
L 298.889084 257.137543 
L 298.406818 256.901723 
L 298.367552 256.362981 
L 298.810553 256.06006 
L 298.771287 255.521318 
L 298.28902 255.285498 
L 298.249753 254.746756 
L 297.767485 254.510936 
L 297.728218 253.972194 
L 297.245949 253.736375 
L 296.802947 254.039297 
L 296.320677 253.803478 
L 295.877674 254.106402 
L 295.916943 254.645144 
L 295.473941 254.948068 
L 295.51321 255.48681 
L 295.070209 255.789735 
L 294.587939 255.553917 
L 294.144938 255.856842 
L 294.184208 256.395585 
L 293.741208 256.698511 
L 293.258937 256.462694 
L 292.815937 256.765621 
L 292.333666 256.529805 
L 291.890666 256.832732 
L 291.929938 257.371475 
L 292.412209 257.607291 
L 292.45148 258.146034 
L 292.93375 258.381849 
L 292.973021 258.920592 
L 293.455289 259.156408 
L 293.898288 258.853481 
L 294.380556 259.089298 
L 294.419825 259.62804 
L 294.902092 259.863857 
L 294.941361 260.402599 
L 295.423627 260.638416 
L 295.462896 261.177158 
L 295.945161 261.412975 
L 295.984429 261.951718 
L 296.466693 262.187535 
L 296.50596 262.726277 
L 296.988223 262.962095 
L 297.02749 263.500837 
L 297.509752 263.736655 
L 297.549018 264.275397 
L 297.106023 264.578321 
L 297.14529 265.117064 
L 297.627551 265.352881 
L 297.666817 265.891623 
L 298.149077 266.127441 
L 298.188342 266.666183 
L 298.670601 266.902001 
L 298.709866 267.440743 
L 299.192124 267.676561 
L 299.231388 268.215303 
L 299.713645 268.451121 
L 299.752909 268.989863 
L 299.309917 269.292787 
L 299.349181 269.831529 
L 299.831437 270.067347 
L 299.8707 270.606089 
L 300.352955 270.841907 
L 300.392218 271.380649 
L 300.874471 271.616467 
L 300.913734 272.155209 
L 300.470745 272.458132 
L 300.510008 272.996874 
L 300.99226 273.232693 
L 301.031522 273.771434 
L 300.588534 274.074358 
L 300.106282 273.83854 
L 299.663294 274.141465 
L 299.181041 273.905648 
L 298.738053 274.208573 
L 298.777318 274.747316 
L 298.33433 275.050242 
L 298.373595 275.588984 
L 298.855847 275.8248 
L 298.895111 276.363542 
L 299.377362 276.599359 
L 299.416626 277.138101 
L 299.898875 277.373918 
L 299.938138 277.91266 
L 300.420387 278.148477 
L 300.863373 277.845552 
L 301.345621 278.081369 
L 301.384883 278.620111 
L 300.941898 278.923036 
L 300.98116 279.461778 
L 300.538175 279.764703 
L 300.055928 279.528886 
L 300.016665 278.990144 
L 299.534417 278.754328 
L 299.495153 278.215585 
L 299.012904 277.979769 
L 298.97364 277.441027 
L 298.491389 277.205211 
L 298.048403 277.508138 
L 297.566152 277.272322 
L 297.123167 277.57525 
L 297.162432 278.113992 
L 296.719447 278.416921 
L 296.237196 278.181106 
L 295.794211 278.484035 
L 295.833478 279.022778 
L 295.390494 279.325708 
L 294.908242 279.089894 
L 294.465258 279.392825 
L 294.504526 279.931568 
L 294.061542 280.234499 
L 294.10081 280.773242 
L 293.657828 281.076173 
L 293.697096 281.614916 
L 293.254114 281.917848 
L 293.293383 282.456592 
L 293.775633 282.692403 
L 294.218615 282.389471 
L 294.700865 282.625284 
L 294.740133 283.164027 
L 294.297151 283.466958 
L 294.336419 284.005701 
L 293.893438 284.308633 
L 293.932707 284.847376 
L 294.414955 285.083188 
L 294.454223 285.621931 
L 294.93647 285.857743 
L 294.975737 286.396486 
L 294.532758 286.699418 
L 294.572025 287.238161 
L 294.129047 287.541093 
L 294.168315 288.079837 
L 294.65056 288.315648 
L 294.689828 288.854391 
L 294.24685 289.157324 
L 294.286118 289.696067 
L 294.768362 289.931878 
L 294.807629 290.470621 
L 295.289872 290.706432 
L 295.329139 291.245175 
L 295.811381 291.480986 
L 295.850647 292.01973 
L 296.332888 292.255541 
L 296.775863 291.952609 
L 297.258104 292.188421 
L 297.701079 291.885491 
L 298.183319 292.121303 
L 298.626295 291.818373 
L 298.587031 291.279631 
L 299.030007 290.976701 
L 299.512246 291.212515 
L 299.955223 290.909586 
L 299.91596 290.370844 
L 299.433721 290.13503 
L 299.394458 289.596287 
L 299.837435 289.293359 
L 299.798172 288.754617 
L 300.24115 288.451689 
L 300.201888 287.912946 
L 300.644867 287.610019 
L 300.605605 287.071277 
L 301.048584 286.76835 
L 301.530825 287.004166 
L 301.973804 286.70124 
L 301.934543 286.162498 
L 302.377523 285.859573 
L 302.859764 286.09539 
L 303.302744 285.792465 
L 303.263484 285.253724 
L 303.706465 284.9508 
L 304.188705 285.186618 
L 304.631686 284.883694 
L 304.592428 284.344953 
L 305.035409 284.04203 
L 305.517649 284.277849 
L 305.556907 284.816591 
L 306.039146 285.05241 
L 306.482127 284.749488 
L 306.964365 284.985308 
L 307.003622 285.52405 
L 307.485859 285.75987 
L 307.525115 286.298611 
L 308.007351 286.534431 
L 308.046606 287.073172 
L 308.528841 287.308993 
L 308.568096 287.847734 
L 308.125117 288.150654 
L 307.642882 287.914834 
L 307.603627 287.376093 
L 307.121391 287.140273 
L 306.678411 287.443194 
L 306.196175 287.207375 
L 306.156918 286.668634 
L 305.67468 286.432815 
L 305.635422 285.894073 
L 305.153184 285.658255 
L 304.710204 285.961177 
L 304.227964 285.725359 
L 303.784984 286.028283 
L 303.824243 286.567025 
L 303.381264 286.869949 
L 302.899024 286.634132 
L 302.456044 286.937057 
L 302.495305 287.475799 
L 302.052326 287.778724 
L 302.091587 288.317466 
L 301.648608 288.620392 
L 301.687869 289.159135 
L 301.244892 289.462061 
L 301.284153 290.000803 
L 300.841176 290.303731 
L 300.880438 290.842473 
L 300.437461 291.145401 
L 300.476723 291.684143 
L 300.033747 291.987071 
L 300.07301 292.525814 
L 299.630035 292.828743 
L 299.669297 293.367485 
L 299.226323 293.670415 
L 299.265586 294.209157 
L 298.822612 294.512087 
L 298.340374 294.276275 
L 297.8974 294.579205 
L 297.415162 294.343393 
L 296.972189 294.646325 
L 297.011454 295.185068 
L 296.568481 295.488 
L 296.086242 295.252189 
L 296.046977 294.713446 
L 295.564737 294.477635 
L 295.121764 294.780568 
L 294.639524 294.544758 
L 294.600257 294.006015 
L 294.118015 293.770205 
L 294.078748 293.231462 
L 293.596506 292.995652 
L 293.153532 293.298587 
L 292.671289 293.062778 
L 292.63202 292.524034 
L 292.149776 292.288225 
L 292.110507 291.749481 
L 291.628262 291.513673 
L 291.588992 290.974929 
L 292.031968 290.671993 
L 291.992698 290.13325 
L 291.510452 289.897441 
L 291.471182 289.358697 
L 290.988935 289.122888 
L 290.949664 288.584144 
L 291.392641 288.281209 
L 291.353371 287.742465 
L 290.871122 287.506656 
L 290.831852 286.967912 
L 290.349602 286.732104 
L 290.310331 286.19336 
L 290.75331 285.890425 
L 290.714039 285.351681 
L 290.231788 285.115872 
L 290.192516 284.577128 
L 289.710264 284.341319 
L 289.670992 283.802575 
L 290.113973 283.49964 
L 290.074701 282.960896 
L 290.517683 282.657961 
L 290.478411 282.119217 
L 289.996158 281.883408 
L 289.956886 281.344664 
L 290.399868 281.041729 
L 290.360596 280.502985 
L 290.803579 280.200051 
L 290.764308 279.661308 
L 290.282053 279.425498 
L 290.242781 278.886754 
L 289.760525 278.650944 
L 289.317541 278.953879 
L 288.835284 278.71807 
L 288.3923 279.021005 
L 287.910042 278.785196 
L 287.467058 279.088133 
L 286.9848 278.852325 
L 286.541816 279.155262 
L 286.581092 279.694006 
L 286.138109 279.996944 
L 285.65585 279.761137 
L 285.212867 280.064076 
L 284.730608 279.82827 
L 284.691331 279.289525 
L 284.20907 279.053719 
L 283.766087 279.356658 
L 283.283826 279.120853 
L 282.840843 279.423793 
L 282.358581 279.187989 
L 281.915598 279.49093 
L 281.433336 279.255126 
L 281.394056 278.71638 
L 280.911792 278.480577 
L 280.468809 278.783519 
L 279.986545 278.547716 
L 279.543562 278.850659 
L 279.061297 278.614856 
L 279.022015 278.076111 
L 278.539749 277.840308 
L 278.096765 278.143252 
L 277.614499 277.907451 
L 277.575215 277.368705 
L 277.092948 277.132903 
L 276.649964 277.435849 
L 276.167695 277.200048 
L 276.128411 276.661302 
L 275.646142 276.425501 
L 275.203157 276.728447 
L 274.720887 276.492647 
L 274.277903 276.795594 
L 273.795632 276.559795 
L 273.756346 276.021049 
L 273.274074 275.78525 
L 272.831089 276.088198 
L 272.348817 275.852399 
L 272.309529 275.313652 
L 271.827255 275.077854 
L 271.38427 275.380803 
L 270.901996 275.145006 
L 270.862707 274.606259 
L 270.380432 274.370461 
L 269.937446 274.673412 
L 269.455171 274.437615 
L 269.41588 273.898868 
L 268.933603 273.663071 
L 268.894312 273.124324 
L 268.412034 272.888528 
L 267.969048 273.191479 
L 267.486769 272.955684 
L 267.447476 272.416936 
L 266.965197 272.181141 
L 266.925904 271.642393 
L 266.443623 271.406598 
L 266.000636 271.709551 
L 265.518355 271.473756 
L 265.47906 270.935008 
L 264.996778 270.699214 
L 264.957483 270.160466 
L 264.4752 269.924672 
L 264.032212 270.227626 
L 263.549928 269.991832 
L 263.510632 269.453084 
L 263.028347 269.217291 
L 262.98905 268.678543 
L 262.506764 268.442749 
L 262.063775 268.745705 
L 261.581488 268.509913 
L 261.1385 268.812869 
L 260.656212 268.577077 
L 260.616913 268.038329 
L 260.134625 267.802537 
L 259.691636 268.105495 
L 259.209347 267.869704 
L 258.766358 268.172662 
L 258.284068 267.936872 
L 257.841079 268.239831 
L 257.358789 268.004042 
L 256.9158 268.307002 
L 256.433509 268.071213 
L 255.99052 268.374173 
L 255.508228 268.138385 
L 255.468925 267.599635 
L 254.986632 267.363847 
L 254.947328 266.825098 
L 254.465034 266.58931 
L 254.022044 266.892272 
L 253.53975 266.656485 
L 253.500444 266.117735 
L 253.018149 265.881948 
L 252.978843 265.343198 
L 252.496546 265.107411 
L 252.053556 265.410374 
L 251.571259 265.174588 
L 251.531951 264.635838 
L 251.049653 264.400052 
L 251.010345 263.861301 
L 250.528046 263.625516 
L 250.488737 263.086765 
L 250.006437 262.85098 
L 249.967128 262.312229 
L 249.484827 262.076444 
L 249.445518 261.537693 
L 248.963215 261.301908 
L 248.923905 260.763158 
L 248.441602 260.527373 
L 248.402291 259.988622 
L 247.919987 259.752837 
L 247.880676 259.214086 
L 247.398371 258.978302 
L 247.359059 258.439551 
L 246.876753 258.203767 
L 246.837441 257.665016 
L 246.355134 257.429232 
L 245.912138 257.732199 
L 245.42983 257.496415 
L 245.390517 256.957664 
L 245.833513 256.654697 
L 245.7942 256.115946 
L 245.31189 255.880162 
L 245.272577 255.341411 
L 244.790266 255.105627 
L 244.750952 254.566876 
L 244.268641 254.331093 
L 244.229326 253.792342 
L 243.747014 253.556558 
L 243.707699 253.017807 
L 243.225385 252.782024 
L 243.18607 252.243273 
L 242.703755 252.00749 
L 242.664439 251.468739 
L 243.107438 251.16577 
L 243.068123 250.627019 
L 242.585807 250.391236 
L 242.546491 249.852485 
L 242.064174 249.616702 
L 242.024857 249.07795 
L 241.542539 248.842168 
L 241.503222 248.303416 
L 241.020903 248.067634 
L 240.981585 247.528882 
L 241.424587 247.225913 
L 241.385269 246.687162 
L 240.902949 246.451379 
L 240.863631 245.912628 
L 240.38131 245.676845 
L 240.341991 245.138094 
L 239.859669 244.902311 
L 239.82035 244.36356 
L 239.338027 244.127778 
L 239.298707 243.589026 
L 239.741712 243.286056 
L 239.702393 242.747305 
L 239.220068 242.511523 
L 239.180748 241.972771 
L 238.698422 241.736989 
L 238.255417 242.039959 
L 237.773091 241.804178 
L 237.733769 241.265426 
L 237.251442 241.029645 
L 237.212121 240.490892 
L 236.729792 240.255112 
L 236.69047 239.716359 
L 236.208141 239.480579 
L 236.168818 238.941827 
L 235.686488 238.706046 
L 235.24348 239.009018 
L 234.761149 238.773238 
L 234.721825 238.234486 
L 234.239493 237.998706 
L 234.200169 237.459954 
L 233.717835 237.224174 
L 233.67851 236.685422 
L 233.196176 236.449642 
L 232.753167 236.752616 
L 232.270833 236.516838 
L 232.231506 235.978085 
L 232.674516 235.675111 
L 232.63519 235.136358 
L 232.152853 234.900579 
L 232.113527 234.361827 
L 231.63119 234.126048 
L 231.591863 233.587295 
L 231.109524 233.351517 
L 231.070197 232.812764 
L 230.587858 232.576986 
L 230.54853 232.038233 
L 230.066189 231.802455 
L 230.026861 231.263701 
L 229.54452 231.027924 
L 229.50519 230.489171 
L 229.022848 230.253393 
L 228.983519 229.71464 
L 228.501175 229.478862 
L 228.461845 228.940109 
L 227.979501 228.704332 
L 227.94017 228.165579 
L 228.383185 227.862603 
L 228.343854 227.323849 
L 227.861509 227.088072 
L 227.822178 226.549319 
L 227.339831 226.313542 
L 227.3005 225.774788 
L 226.818152 225.539011 
L 226.77882 225.000258 
L 226.296472 224.764481 
L 226.257139 224.225727 
L 225.77479 223.989951 
L 225.735457 223.451197 
L 225.253106 223.215421 
L 225.213773 222.676667 
L 225.656791 222.37369 
L 225.617458 221.834937 
L 225.135106 221.59916 
L 225.095772 221.060406 
L 224.613419 220.82463 
L 224.574085 220.285876 
L 225.017104 219.982899 
L 224.977771 219.444146 
L 224.495416 219.208369 
L 224.456082 218.669615 
L 223.973726 218.433839 
L 223.934392 217.895085 
L 223.452035 217.659309 
L 223.4127 217.120555 
L 223.855722 216.817578 
L 223.816387 216.278824 
L 223.334029 216.043048 
L 223.294693 215.504294 
L 222.812334 215.268518 
L 222.772998 214.729764 
L 222.290639 214.493988 
L 221.847615 214.796966 
L 221.365255 214.561191 
L 221.325917 214.022436 
L 220.843556 213.786661 
L 220.804218 213.247907 
L 220.321855 213.012132 
L 220.282517 212.473378 
L 219.800154 212.237603 
L 219.357129 212.540583 
L 218.874765 212.304809 
L 218.835425 211.766055 
L 218.35306 211.530281 
L 218.313719 210.991526 
L 218.756745 210.688546 
L 218.717405 210.149791 
L 218.235038 209.914017 
L 218.195698 209.375263 
L 218.638725 209.072282 
L 218.599384 208.533528 
L 218.117017 208.297754 
L 218.077676 207.758999 
L 218.520704 207.456019 
L 218.481363 206.917265 
L 217.998994 206.68149 
L 217.959653 206.142736 
L 218.402682 205.839756 
L 218.363342 205.301002 
L 218.806371 204.998023 
L 218.767031 204.459268 
L 219.210061 204.15629 
L 219.170721 203.617536 
L 219.613752 203.314558 
L 219.574413 202.775804 
L 220.017444 202.472826 
L 219.978105 201.934072 
L 220.421137 201.631095 
L 220.381798 201.092341 
L 220.824831 200.789365 
L 220.785492 200.250611 
L 221.228526 199.947635 
L 221.189187 199.408882 
L 221.632221 199.105906 
L 221.592883 198.567153 
L 222.035918 198.264178 
L 221.99658 197.725424 
L 221.514207 197.489645 
L 221.474868 196.950892 
L 220.992494 196.715113 
L 220.953155 196.17636 
L 220.470779 195.940581 
L 220.43144 195.401828 
L 219.949063 195.166049 
L 219.909724 194.627296 
L 219.427346 194.391518 
L 218.984309 194.694494 
L 218.501931 194.458717 
L 218.058893 194.761694 
L 217.576515 194.525917 
L 217.537172 193.987163 
L 217.054793 193.751386 
L 216.611755 194.054364 
L 216.129374 193.818589 
L 216.090031 193.279834 
L 215.607649 193.044059 
L 215.164612 193.347038 
L 214.682229 193.111263 
L 214.642885 192.572508 
L 214.160501 192.336733 
L 213.717463 192.639714 
L 213.235079 192.40394 
L 213.195733 191.865185 
L 212.713348 191.629411 
L 212.270309 191.932392 
L 211.787923 191.696619 
L 211.344885 191.999601 
L 210.862499 191.763829 
L 210.82315 191.225073 
L 211.266189 190.922091 
L 211.226841 190.383336 
L 210.744454 190.147563 
L 210.705105 189.608808 
L 210.222716 189.373035 
L 210.183367 188.83428 
L 209.700978 188.598507 
L 209.257937 188.901491 
L 208.775547 188.665719 
L 208.736196 188.126963 
L 209.179237 187.82398 
L 209.139887 187.285224 
L 208.657496 187.049452 
L 208.618145 186.510697 
L 209.061187 186.207713 
L 209.021837 185.668958 
L 209.46488 185.365975 
L 209.947272 185.601748 
L 210.390315 185.298766 
L 210.350966 184.760011 
L 210.794009 184.45703 
L 210.754661 183.918275 
L 211.197705 183.615294 
L 211.158356 183.076539 
L 211.601401 182.773558 
L 211.562053 182.234804 
L 212.005098 181.931824 
L 211.965751 181.393069 
L 212.408797 181.09009 
L 212.369449 180.551335 
L 212.812496 180.248356 
L 212.773148 179.709602 
L 213.216196 179.406623 
L 213.176849 178.867869 
L 212.694454 178.632093 
L 212.655106 178.093338 
L 212.17271 177.857562 
L 212.133362 177.318807 
L 211.650965 177.083031 
L 211.611617 176.544277 
L 211.129219 176.308501 
L 211.08987 175.769746 
L 210.607471 175.53397 
L 210.164421 175.83695 
L 209.682021 175.601175 
L 209.238972 175.904155 
L 208.756571 175.668381 
L 208.313522 175.971362 
L 207.83112 175.735589 
L 207.791768 175.196833 
L 207.309366 174.96106 
L 207.270014 174.422305 
L 206.787611 174.186531 
L 206.748258 173.647776 
L 206.265853 173.412003 
L 206.2265 172.873247 
L 205.744095 172.637475 
L 205.704741 172.098719 
L 205.222334 171.862946 
L 205.18298 171.324191 
L 205.626032 171.021208 
L 205.586678 170.482452 
L 205.104271 170.24668 
L 205.064916 169.707924 
L 204.582507 169.472151 
L 204.543152 168.933396 
L 204.060742 168.697623 
L 204.021387 168.158867 
L 204.464441 167.855884 
L 204.425086 167.317129 
L 203.942675 167.081356 
L 203.903319 166.5426 
L 203.420907 166.306828 
L 203.381551 165.768072 
L 202.899138 165.5323 
L 202.859781 164.993544 
L 203.302837 164.69056 
L 203.263481 164.151805 
L 202.781066 163.916032 
L 202.741709 163.377276 
L 202.259294 163.141504 
L 202.219936 162.602748 
L 201.73752 162.366976 
L 201.698162 161.82822 
L 202.14122 161.525236 
L 202.101863 160.98648 
L 201.619445 160.750708 
L 201.580086 160.211952 
L 201.097668 159.97618 
L 201.058309 159.437424 
L 201.501369 159.13444 
L 201.462011 158.595684 
L 200.979591 158.359912 
L 200.940231 157.821156 
L 200.45781 157.585384 
L 200.418451 157.046628 
L 200.861513 156.743644 
L 200.822154 156.204888 
L 201.265216 155.901905 
L 201.225857 155.363149 
L 201.668921 155.060166 
L 201.629562 154.521411 
L 201.147139 154.285637 
L 201.10778 153.746882 
L 201.550844 153.443899 
L 201.511485 152.905143 
L 201.029061 152.66937 
L 200.989701 152.130614 
L 201.432767 151.827632 
L 201.393408 151.288876 
L 200.910982 151.053103 
L 200.871623 150.514347 
L 200.389196 150.278573 
L 200.349836 149.739817 
L 199.867408 149.504044 
L 199.828047 148.965288 
L 199.345619 148.729515 
L 198.902551 149.032498 
L 198.420121 148.796726 
L 197.977054 149.09971 
L 197.494624 148.863938 
L 197.455261 148.325182 
L 196.97283 148.089411 
L 196.529762 148.392396 
L 196.04733 148.156625 
L 196.007966 147.617868 
L 195.525533 147.382098 
L 195.486168 146.843341 
L 195.929237 146.540355 
L 195.889873 146.001599 
L 195.407439 145.765828 
L 195.368074 145.227071 
L 194.885638 144.9913 
L 194.846273 144.452544 
L 195.289344 144.149558 
L 195.249978 143.610801 
L 194.767542 143.37503 
L 194.728176 142.836274 
L 195.171248 142.533288 
L 195.131883 141.994532 
L 195.574955 141.691547 
L 195.53559 141.15279 
L 195.978663 140.849806 
L 195.939298 140.31105 
L 195.45686 140.075278 
L 195.013786 140.378262 
L 194.531347 140.142491 
L 194.491981 139.603734 
L 194.009541 139.367963 
L 193.970174 138.829206 
L 193.487733 138.593435 
L 193.044659 138.896422 
L 192.562217 138.660651 
L 192.522849 138.121894 
L 192.040406 137.886124 
L 192.001037 137.347367 
L 191.518593 137.111597 
L 191.075518 137.414585 
L 190.593074 137.178815 
L 190.553704 136.640058 
L 190.071258 136.404289 
L 190.031888 135.865532 
L 189.549441 135.629763 
L 189.51007 135.091006 
L 189.027623 134.855237 
L 188.988252 134.31648 
L 189.431329 134.013491 
L 189.391958 133.474734 
L 188.909509 133.238965 
L 188.870137 132.700208 
L 188.387687 132.464439 
L 188.348315 131.925681 
L 187.865864 131.689913 
L 187.826492 131.151156 
L 188.269571 130.848167 
L 188.230199 130.309409 
L 187.747746 130.073641 
L 187.708373 129.534883 
L 188.151454 129.231895 
L 188.112081 128.693137 
L 187.629628 128.457368 
L 187.590255 127.918611 
L 188.033336 127.615623 
L 187.993964 127.076865 
L 188.437046 126.773877 
L 188.397674 126.23512 
L 188.840756 125.932133 
L 188.801384 125.393376 
L 188.318929 125.157606 
L 188.279556 124.618849 
L 188.72264 124.315862 
L 189.205096 124.551632 
L 189.64818 124.248646 
L 189.608809 123.709889 
L 190.051893 123.406903 
L 190.534349 123.642675 
L 190.977434 123.33969 
L 190.938064 122.800933 
L 191.381149 122.497949 
L 191.863604 122.733722 
L 192.30669 122.430738 
L 192.267321 121.891982 
L 192.710407 121.588999 
L 193.192862 121.824773 
L 193.635948 121.521791 
L 193.59658 120.983034 
L 194.039667 120.680053 
L 194.0003 120.141297 
L 194.443387 119.838316 
L 194.40402 119.29956 
L 194.847108 118.996579 
L 195.329563 119.232355 
L 195.772652 118.929375 
L 195.733285 118.390619 
L 196.176374 118.08764 
L 196.137008 117.548885 
L 196.580098 117.245906 
L 196.540732 116.70715 
L 196.983823 116.404172 
L 196.944457 115.865417 
L 196.462001 115.629639 
L 196.422635 115.090884 
L 196.865726 114.787906 
L 196.826361 114.249151 
L 196.343903 114.013373 
L 196.304537 113.474618 
L 195.822078 113.23884 
L 195.782712 112.700084 
L 195.300252 112.464307 
L 195.260885 111.925552 
L 194.778424 111.689774 
L 194.739056 111.151019 
L 194.256594 110.915242 
L 193.8135 111.218221 
L 193.331038 110.982445 
L 192.887944 111.285425 
L 192.405481 111.049649 
L 191.962387 111.35263 
L 191.479923 111.116855 
L 191.03683 111.419837 
L 190.554365 111.184063 
L 190.111272 111.487045 
L 189.628806 111.251271 
L 189.589434 110.712515 
L 189.106968 110.476742 
L 188.663874 110.779725 
L 188.181407 110.543952 
L 187.738313 110.846937 
L 187.255845 110.611164 
L 186.812752 110.91415 
L 186.330284 110.678378 
L 185.88719 110.981364 
L 185.404721 110.745593 
L 184.961628 111.04858 
L 184.479158 110.81281 
L 184.036065 111.115798 
L 183.553594 110.880028 
L 183.514217 110.34127 
L 183.031745 110.105501 
L 182.588652 110.40849 
L 182.10618 110.172721 
L 182.0668 109.633963 
L 181.584327 109.398195 
L 181.544948 108.859437 
L 181.062473 108.623669 
L 181.023093 108.084911 
L 181.466188 107.781921 
L 181.948663 108.01769 
L 181.948663 108.01769 
" clip-path="url(#pe60a85967c)" style="fill: none; stroke: #ff0000; stroke-width: 0.7"/>
   </g>
   <g id="matplotlib.axis_1">
    <g id="xtick_1">
     <g id="line2d_1">
      <defs>
       <path id="mdd3bae884f" d="M 0 0 
L 0 3.5 
" style="stroke: #000000; stroke-width: 0.8"/>
      </defs>
      <g>
       <use xlink:href="#mdd3bae884f" x="190.525634" y="307.584" style="stroke: #000000; stroke-width: 0.8"/>
      </g>
     </g>
     <g id="text_1">
      <!-- 0.05 -->
      <g transform="translate(175.202977 322.182437) scale(0.1 -0.1)">
       <defs>
        <path id="DejaVuSans-2212" d="M 678 2272 
L 4684 2272 
L 4684 1741 
L 678 1741 
L 678 2272 
z
" transform="scale(0.015625)"/>
        <path id="DejaVuSans-30" d="M 2034 4250 
Q 1547 4250 1301 3770 
Q 1056 3291 1056 2328 
Q 1056 1369 1301 889 
Q 1547 409 2034 409 
Q 2525 409 2770 889 
Q 3016 1369 3016 2328 
Q 3016 3291 2770 3770 
Q 2525 4250 2034 4250 
z
M 2034 4750 
Q 2819 4750 3233 4129 
Q 3647 3509 3647 2328 
Q 3647 1150 3233 529 
Q 2819 -91 2034 -91 
Q 1250 -91 836 529 
Q 422 1150 422 2328 
Q 422 3509 836 4129 
Q 1250 4750 2034 4750 
z
" transform="scale(0.015625)"/>
        <path id="DejaVuSans-2e" d="M 684 794 
L 1344 794 
L 1344 0 
L 684 0 
L 684 794 
z
" transform="scale(0.015625)"/>
        <path id="DejaVuSans-35" d="M 691 4666 
L 3169 4666 
L 3169 4134 
L 1269 4134 
L 1269 2991 
Q 1406 3038 1543 3061 
Q 1681 3084 1819 3084 
Q 2600 3084 3056 2656 
Q 3513 2228 3513 1497 
Q 3513 744 3044 326 
Q 2575 -91 1722 -91 
Q 1428 -91 1123 -41 
Q 819 9 494 109 
L 494 744 
Q 775 591 1075 516 
Q 1375 441 1709 441 
Q 2250 441 2565 725 
Q 2881 1009 2881 1497 
Q 2881 1984 2565 2268 
Q 2250 2553 1709 2553 
Q 1456 2553 1204 2497 
Q 953 2441 691 2322 
L 691 4666 
z
" transform="scale(0.015625)"/>
       </defs>
       <use xlink:href="#DejaVuSans-2212"/>
       <use xlink:href="#DejaVuSans-30" x="83.789062"/>
       <use xlink:href="#DejaVuSans-2e" x="147.412109"/>
       <use xlink:href="#DejaVuSans-30" x="179.199219"/>
       <use xlink:href="#DejaVuSans-35" x="242.822266"/>
      </g>
     </g>
    </g>
    <g id="xtick_2">
     <g id="line2d_2">
      <g>
       <use xlink:href="#mdd3bae884f" x="236.330779" y="307.584" style="stroke: #000000; stroke-width: 0.8"/>
      </g>
     </g>
     <g id="text_2">
      <!-- 0.04 -->
      <g transform="translate(221.008122 322.182437) scale(0.1 -0.1)">
       <defs>
        <path id="DejaVuSans-34" d="M 2419 4116 
L 825 1625 
L 2419 1625 
L 2419 4116 
z
M 2253 4666 
L 3047 4666 
L 3047 1625 
L 3713 1625 
L 3713 1100 
L 3047 1100 
L 3047 0 
L 2419 0 
L 2419 1100 
L 313 1100 
L 313 1709 
L 2253 4666 
z
" transform="scale(0.015625)"/>
       </defs>
       <use xlink:href="#DejaVuSans-2212"/>
       <use xlink:href="#DejaVuSans-30" x="83.789062"/>
       <use xlink:href="#DejaVuSans-2e" x="147.412109"/>
       <use xlink:href="#DejaVuSans-30" x="179.199219"/>
       <use xlink:href="#DejaVuSans-34" x="242.822266"/>
      </g>
     </g>
    </g>
    <g id="xtick_3">
     <g id="line2d_3">
      <g>
       <use xlink:href="#mdd3bae884f" x="282.135924" y="307.584" style="stroke: #000000; stroke-width: 0.8"/>
      </g>
     </g>
     <g id="text_3">
      <!-- 0.03 -->
      <g transform="translate(266.813268 322.182437) scale(0.1 -0.1)">
       <defs>
        <path id="DejaVuSans-33" d="M 2597 2516 
Q 3050 2419 3304 2112 
Q 3559 1806 3559 1356 
Q 3559 666 3084 287 
Q 2609 -91 1734 -91 
Q 1441 -91 1130 -33 
Q 819 25 488 141 
L 488 750 
Q 750 597 1062 519 
Q 1375 441 1716 441 
Q 2309 441 2620 675 
Q 2931 909 2931 1356 
Q 2931 1769 2642 2001 
Q 2353 2234 1838 2234 
L 1294 2234 
L 1294 2753 
L 1863 2753 
Q 2328 2753 2575 2939 
Q 2822 3125 2822 3475 
Q 2822 3834 2567 4026 
Q 2313 4219 1838 4219 
Q 1578 4219 1281 4162 
Q 984 4106 628 3988 
L 628 4550 
Q 988 4650 1302 4700 
Q 1616 4750 1894 4750 
Q 2613 4750 3031 4423 
Q 3450 4097 3450 3541 
Q 3450 3153 3228 2886 
Q 3006 2619 2597 2516 
z
" transform="scale(0.015625)"/>
       </defs>
       <use xlink:href="#DejaVuSans-2212"/>
       <use xlink:href="#DejaVuSans-30" x="83.789062"/>
       <use xlink:href="#DejaVuSans-2e" x="147.412109"/>
       <use xlink:href="#DejaVuSans-30" x="179.199219"/>
       <use xlink:href="#DejaVuSans-33" x="242.822266"/>
      </g>
     </g>
    </g>
    <g id="text_4">
     <!-- 1.001e2 -->
     <g transform="translate(266.285468 334.860562) scale(0.1 -0.1)">
      <defs>
       <path id="DejaVuSans-31" d="M 794 531 
L 1825 531 
L 1825 4091 
L 703 3866 
L 703 4441 
L 1819 4666 
L 2450 4666 
L 2450 531 
L 3481 531 
L 3481 0 
L 794 0 
L 794 531 
z
" transform="scale(0.015625)"/>
       <path id="DejaVuSans-65" d="M 3597 1894 
L 3597 1613 
L 953 1613 
Q 991 1019 1311 708 
Q 1631 397 2203 397 
Q 2534 397 2845 478 
Q 3156 559 3463 722 
L 3463 178 
Q 3153 47 2828 -22 
Q 2503 -91 2169 -91 
Q 1331 -91 842 396 
Q 353 884 353 1716 
Q 353 2575 817 3079 
Q 1281 3584 2069 3584 
Q 2775 3584 3186 3129 
Q 3597 2675 3597 1894 
z
M 3022 2063 
Q 3016 2534 2758 2815 
Q 2500 3097 2075 3097 
Q 1594 3097 1305 2825 
Q 1016 2553 972 2059 
L 3022 2063 
z
" transform="scale(0.015625)"/>
       <path id="DejaVuSans-32" d="M 1228 531 
L 3431 531 
L 3431 0 
L 469 0 
L 469 531 
Q 828 903 1448 1529 
Q 2069 2156 2228 2338 
Q 2531 2678 2651 2914 
Q 2772 3150 2772 3378 
Q 2772 3750 2511 3984 
Q 2250 4219 1831 4219 
Q 1534 4219 1204 4116 
Q 875 4013 500 3803 
L 500 4441 
Q 881 4594 1212 4672 
Q 1544 4750 1819 4750 
Q 2544 4750 2975 4387 
Q 3406 4025 3406 3419 
Q 3406 3131 3298 2873 
Q 3191 2616 2906 2266 
Q 2828 2175 2409 1742 
Q 1991 1309 1228 531 
z
" transform="scale(0.015625)"/>
      </defs>
      <use xlink:href="#DejaVuSans-2212"/>
      <use xlink:href="#DejaVuSans-31" x="83.789062"/>
      <use xlink:href="#DejaVuSans-2e" x="147.412109"/>
      <use xlink:href="#DejaVuSans-30" x="179.199219"/>
      <use xlink:href="#DejaVuSans-30" x="242.822266"/>
      <use xlink:href="#DejaVuSans-31" x="306.445312"/>
      <use xlink:href="#DejaVuSans-65" x="370.068359"/>
      <use xlink:href="#DejaVuSans-32" x="431.591797"/>
     </g>
    </g>
   </g>
   <g id="matplotlib.axis_2">
    <g id="ytick_1">
     <g id="line2d_4">
      <defs>
       <path id="mefd9730b51" d="M 0 0 
L -3.5 0 
" style="stroke: #000000; stroke-width: 0.8"/>
      </defs>
      <g>
       <use xlink:href="#mefd9730b51" x="156.511094" y="266.344507" style="stroke: #000000; stroke-width: 0.8"/>
      </g>
     </g>
     <g id="text_5">
      <!-- 25.41 -->
      <g transform="translate(120.882969 270.143726) scale(0.1 -0.1)">
       <use xlink:href="#DejaVuSans-32"/>
       <use xlink:href="#DejaVuSans-35" x="63.623047"/>
       <use xlink:href="#DejaVuSans-2e" x="127.246094"/>
       <use xlink:href="#DejaVuSans-34" x="159.033203"/>
       <use xlink:href="#DejaVuSans-31" x="222.65625"/>
      </g>
     </g>
    </g>
    <g id="ytick_2">
     <g id="line2d_5">
      <g>
       <use xlink:href="#mefd9730b51" x="156.511094" y="215.625996" style="stroke: #000000; stroke-width: 0.8"/>
      </g>
     </g>
     <g id="text_6">
      <!-- 25.42 -->
      <g transform="translate(120.882969 219.425215) scale(0.1 -0.1)">
       <use xlink:href="#DejaVuSans-32"/>
       <use xlink:href="#DejaVuSans-35" x="63.623047"/>
       <use xlink:href="#DejaVuSans-2e" x="127.246094"/>
       <use xlink:href="#DejaVuSans-34" x="159.033203"/>
       <use xlink:href="#DejaVuSans-32" x="222.65625"/>
      </g>
     </g>
    </g>
    <g id="ytick_3">
     <g id="line2d_6">
      <g>
       <use xlink:href="#mefd9730b51" x="156.511094" y="164.907485" style="stroke: #000000; stroke-width: 0.8"/>
      </g>
     </g>
     <g id="text_7">
      <!-- 25.43 -->
      <g transform="translate(120.882969 168.706703) scale(0.1 -0.1)">
       <use xlink:href="#DejaVuSans-32"/>
       <use xlink:href="#DejaVuSans-35" x="63.623047"/>
       <use xlink:href="#DejaVuSans-2e" x="127.246094"/>
       <use xlink:href="#DejaVuSans-34" x="159.033203"/>
       <use xlink:href="#DejaVuSans-33" x="222.65625"/>
      </g>
     </g>
    </g>
    <g id="ytick_4">
     <g id="line2d_7">
      <g>
       <use xlink:href="#mefd9730b51" x="156.511094" y="114.188973" style="stroke: #000000; stroke-width: 0.8"/>
      </g>
     </g>
     <g id="text_8">
      <!-- 25.44 -->
      <g transform="translate(120.882969 117.988192) scale(0.1 -0.1)">
       <use xlink:href="#DejaVuSans-32"/>
       <use xlink:href="#DejaVuSans-35" x="63.623047"/>
       <use xlink:href="#DejaVuSans-2e" x="127.246094"/>
       <use xlink:href="#DejaVuSans-34" x="159.033203"/>
       <use xlink:href="#DejaVuSans-34" x="222.65625"/>
      </g>
     </g>
    </g>
    <g id="ytick_5">
     <g id="line2d_8">
      <g>
       <use xlink:href="#mefd9730b51" x="156.511094" y="63.470462" style="stroke: #000000; stroke-width: 0.8"/>
      </g>
     </g>
     <g id="text_9">
      <!-- 25.45 -->
      <g transform="translate(120.882969 67.269681) scale(0.1 -0.1)">
       <use xlink:href="#DejaVuSans-32"/>
       <use xlink:href="#DejaVuSans-35" x="63.623047"/>
       <use xlink:href="#DejaVuSans-2e" x="127.246094"/>
       <use xlink:href="#DejaVuSans-34" x="159.033203"/>
       <use xlink:href="#DejaVuSans-35" x="222.65625"/>
      </g>
     </g>
    </g>
   </g>
   <g id="patch_3">
    <path d="M 156.511094 307.584 
L 156.511094 41.472 
" style="fill: none; stroke: #000000; stroke-width: 0.8; stroke-linejoin: miter; stroke-linecap: square"/>
   </g>
   <g id="patch_4">
    <path d="M 315.808906 307.584 
L 315.808906 41.472 
" style="fill: none; stroke: #000000; stroke-width: 0.8; stroke-linejoin: miter; stroke-linecap: square"/>
   </g>
   <g id="patch_5">
    <path d="M 156.511094 307.584 
L 315.808906 307.584 
" style="fill: none; stroke: #000000; stroke-width: 0.8; stroke-linejoin: miter; stroke-linecap: square"/>
   </g>
   <g id="patch_6">
    <path d="M 156.511094 41.472 
L 315.808906 41.472 
" style="fill: none; stroke: #000000; stroke-width: 0.8; stroke-linejoin: miter; stroke-linecap: square"/>
   </g>
  </g>
 </g>
 <defs>
  <clipPath id="pe60a85967c">
   <rect x="156.511094" y="41.472" width="159.297812" height="266.112"/>
  </clipPath>
 </defs>
</svg>
