<?xml version="1.0" encoding="utf-8" standalone="no"?>
<!DOCTYPE svg PUBLIC "-//W3C//DTD SVG 1.1//EN"
  "http://www.w3.org/Graphics/SVG/1.1/DTD/svg11.dtd">
<svg xmlns:xlink="http://www.w3.org/1999/xlink" width="1517.140625pt" height="711.126562pt" viewBox="0 0 1517.140625 711.126562" xmlns="http://www.w3.org/2000/svg" version="1.1">
 <metadata>
  <rdf:RDF xmlns:dc="http://purl.org/dc/elements/1.1/" xmlns:cc="http://creativecommons.org/ns#" xmlns:rdf="http://www.w3.org/1999/02/22-rdf-syntax-ns#">
   <cc:Work>
    <dc:type rdf:resource="http://purl.org/dc/dcmitype/StillImage"/>
    <dc:date>2022-08-15T15:24:24.841120</dc:date>
    <dc:format>image/svg+xml</dc:format>
    <dc:creator>
     <cc:Agent>
      <dc:title>Matplotlib v3.5.2, https://matplotlib.org/</dc:title>
     </cc:Agent>
    </dc:creator>
   </cc:Work>
  </rdf:RDF>
 </metadata>
 <defs>
  <style type="text/css">*{stroke-linejoin: round; stroke-linecap: butt}</style>
 </defs>
 <g id="figure_1">
  <g id="patch_1">
   <path d="M 0 711.126562 
L 1517.140625 711.126562 
L 1517.140625 0 
L 0 0 
L 0 711.126562 
z
" style="fill: none"/>
  </g>
  <g id="axes_1">
   <g id="patch_2">
    <path d="M 34.240625 673.292187 
L 1410.076875 673.292187 
L 1410.076875 17.798437 
L 34.240625 17.798437 
z
" style="fill: #ffffff"/>
   </g>
   <g id="matplotlib.axis_1">
    <g id="xtick_1">
     <g id="line2d_1">
      <defs>
       <path id="m9e9b975c6b" d="M 0 0 
L 0 3.5 
" style="stroke: #000000; stroke-width: 0.8"/>
      </defs>
      <g>
       <use xlink:href="#m9e9b975c6b" x="78.164591" y="673.292187" style="stroke: #000000; stroke-width: 0.8"/>
      </g>
     </g>
     <g id="text_1">
      <!-- −5000 -->
      <g transform="translate(61.249747 687.890625)scale(0.1 -0.1)">
       <defs>
        <path id="DejaVuSans-2212" d="M 678 2272 
L 4684 2272 
L 4684 1741 
L 678 1741 
L 678 2272 
z
" transform="scale(0.015625)"/>
        <path id="DejaVuSans-35" d="M 691 4666 
L 3169 4666 
L 3169 4134 
L 1269 4134 
L 1269 2991 
Q 1406 3038 1543 3061 
Q 1681 3084 1819 3084 
Q 2600 3084 3056 2656 
Q 3513 2228 3513 1497 
Q 3513 744 3044 326 
Q 2575 -91 1722 -91 
Q 1428 -91 1123 -41 
Q 819 9 494 109 
L 494 744 
Q 775 591 1075 516 
Q 1375 441 1709 441 
Q 2250 441 2565 725 
Q 2881 1009 2881 1497 
Q 2881 1984 2565 2268 
Q 2250 2553 1709 2553 
Q 1456 2553 1204 2497 
Q 953 2441 691 2322 
L 691 4666 
z
" transform="scale(0.015625)"/>
        <path id="DejaVuSans-30" d="M 2034 4250 
Q 1547 4250 1301 3770 
Q 1056 3291 1056 2328 
Q 1056 1369 1301 889 
Q 1547 409 2034 409 
Q 2525 409 2770 889 
Q 3016 1369 3016 2328 
Q 3016 3291 2770 3770 
Q 2525 4250 2034 4250 
z
M 2034 4750 
Q 2819 4750 3233 4129 
Q 3647 3509 3647 2328 
Q 3647 1150 3233 529 
Q 2819 -91 2034 -91 
Q 1250 -91 836 529 
Q 422 1150 422 2328 
Q 422 3509 836 4129 
Q 1250 4750 2034 4750 
z
" transform="scale(0.015625)"/>
       </defs>
       <use xlink:href="#DejaVuSans-2212"/>
       <use xlink:href="#DejaVuSans-35" x="83.789062"/>
       <use xlink:href="#DejaVuSans-30" x="147.412109"/>
       <use xlink:href="#DejaVuSans-30" x="211.035156"/>
       <use xlink:href="#DejaVuSans-30" x="274.658203"/>
      </g>
     </g>
    </g>
    <g id="xtick_2">
     <g id="line2d_2">
      <g>
       <use xlink:href="#m9e9b975c6b" x="328.181735" y="673.292187" style="stroke: #000000; stroke-width: 0.8"/>
      </g>
     </g>
     <g id="text_2">
      <!-- 0 -->
      <g transform="translate(325.000485 687.890625)scale(0.1 -0.1)">
       <use xlink:href="#DejaVuSans-30"/>
      </g>
     </g>
    </g>
    <g id="xtick_3">
     <g id="line2d_3">
      <g>
       <use xlink:href="#m9e9b975c6b" x="578.198878" y="673.292187" style="stroke: #000000; stroke-width: 0.8"/>
      </g>
     </g>
     <g id="text_3">
      <!-- 5000 -->
      <g transform="translate(565.473878 687.890625)scale(0.1 -0.1)">
       <use xlink:href="#DejaVuSans-35"/>
       <use xlink:href="#DejaVuSans-30" x="63.623047"/>
       <use xlink:href="#DejaVuSans-30" x="127.246094"/>
       <use xlink:href="#DejaVuSans-30" x="190.869141"/>
      </g>
     </g>
    </g>
    <g id="xtick_4">
     <g id="line2d_4">
      <g>
       <use xlink:href="#m9e9b975c6b" x="828.216022" y="673.292187" style="stroke: #000000; stroke-width: 0.8"/>
      </g>
     </g>
     <g id="text_4">
      <!-- 10000 -->
      <g transform="translate(812.309772 687.890625)scale(0.1 -0.1)">
       <defs>
        <path id="DejaVuSans-31" d="M 794 531 
L 1825 531 
L 1825 4091 
L 703 3866 
L 703 4441 
L 1819 4666 
L 2450 4666 
L 2450 531 
L 3481 531 
L 3481 0 
L 794 0 
L 794 531 
z
" transform="scale(0.015625)"/>
       </defs>
       <use xlink:href="#DejaVuSans-31"/>
       <use xlink:href="#DejaVuSans-30" x="63.623047"/>
       <use xlink:href="#DejaVuSans-30" x="127.246094"/>
       <use xlink:href="#DejaVuSans-30" x="190.869141"/>
       <use xlink:href="#DejaVuSans-30" x="254.492188"/>
      </g>
     </g>
    </g>
    <g id="xtick_5">
     <g id="line2d_5">
      <g>
       <use xlink:href="#m9e9b975c6b" x="1078.233166" y="673.292187" style="stroke: #000000; stroke-width: 0.8"/>
      </g>
     </g>
     <g id="text_5">
      <!-- 15000 -->
      <g transform="translate(1062.326916 687.890625)scale(0.1 -0.1)">
       <use xlink:href="#DejaVuSans-31"/>
       <use xlink:href="#DejaVuSans-35" x="63.623047"/>
       <use xlink:href="#DejaVuSans-30" x="127.246094"/>
       <use xlink:href="#DejaVuSans-30" x="190.869141"/>
       <use xlink:href="#DejaVuSans-30" x="254.492188"/>
      </g>
     </g>
    </g>
    <g id="xtick_6">
     <g id="line2d_6">
      <g>
       <use xlink:href="#m9e9b975c6b" x="1328.25031" y="673.292187" style="stroke: #000000; stroke-width: 0.8"/>
      </g>
     </g>
     <g id="text_6">
      <!-- 20000 -->
      <g transform="translate(1312.34406 687.890625)scale(0.1 -0.1)">
       <defs>
        <path id="DejaVuSans-32" d="M 1228 531 
L 3431 531 
L 3431 0 
L 469 0 
L 469 531 
Q 828 903 1448 1529 
Q 2069 2156 2228 2338 
Q 2531 2678 2651 2914 
Q 2772 3150 2772 3378 
Q 2772 3750 2511 3984 
Q 2250 4219 1831 4219 
Q 1534 4219 1204 4116 
Q 875 4013 500 3803 
L 500 4441 
Q 881 4594 1212 4672 
Q 1544 4750 1819 4750 
Q 2544 4750 2975 4387 
Q 3406 4025 3406 3419 
Q 3406 3131 3298 2873 
Q 3191 2616 2906 2266 
Q 2828 2175 2409 1742 
Q 1991 1309 1228 531 
z
" transform="scale(0.015625)"/>
       </defs>
       <use xlink:href="#DejaVuSans-32"/>
       <use xlink:href="#DejaVuSans-30" x="63.623047"/>
       <use xlink:href="#DejaVuSans-30" x="127.246094"/>
       <use xlink:href="#DejaVuSans-30" x="190.869141"/>
       <use xlink:href="#DejaVuSans-30" x="254.492188"/>
      </g>
     </g>
    </g>
    <g id="text_7">
     <!-- T_Pob_10_20 -->
     <g transform="translate(689.812656 701.56875)scale(0.1 -0.1)">
      <defs>
       <path id="DejaVuSans-54" d="M -19 4666 
L 3928 4666 
L 3928 4134 
L 2272 4134 
L 2272 0 
L 1638 0 
L 1638 4134 
L -19 4134 
L -19 4666 
z
" transform="scale(0.015625)"/>
       <path id="DejaVuSans-5f" d="M 3263 -1063 
L 3263 -1509 
L -63 -1509 
L -63 -1063 
L 3263 -1063 
z
" transform="scale(0.015625)"/>
       <path id="DejaVuSans-50" d="M 1259 4147 
L 1259 2394 
L 2053 2394 
Q 2494 2394 2734 2622 
Q 2975 2850 2975 3272 
Q 2975 3691 2734 3919 
Q 2494 4147 2053 4147 
L 1259 4147 
z
M 628 4666 
L 2053 4666 
Q 2838 4666 3239 4311 
Q 3641 3956 3641 3272 
Q 3641 2581 3239 2228 
Q 2838 1875 2053 1875 
L 1259 1875 
L 1259 0 
L 628 0 
L 628 4666 
z
" transform="scale(0.015625)"/>
       <path id="DejaVuSans-6f" d="M 1959 3097 
Q 1497 3097 1228 2736 
Q 959 2375 959 1747 
Q 959 1119 1226 758 
Q 1494 397 1959 397 
Q 2419 397 2687 759 
Q 2956 1122 2956 1747 
Q 2956 2369 2687 2733 
Q 2419 3097 1959 3097 
z
M 1959 3584 
Q 2709 3584 3137 3096 
Q 3566 2609 3566 1747 
Q 3566 888 3137 398 
Q 2709 -91 1959 -91 
Q 1206 -91 779 398 
Q 353 888 353 1747 
Q 353 2609 779 3096 
Q 1206 3584 1959 3584 
z
" transform="scale(0.015625)"/>
       <path id="DejaVuSans-62" d="M 3116 1747 
Q 3116 2381 2855 2742 
Q 2594 3103 2138 3103 
Q 1681 3103 1420 2742 
Q 1159 2381 1159 1747 
Q 1159 1113 1420 752 
Q 1681 391 2138 391 
Q 2594 391 2855 752 
Q 3116 1113 3116 1747 
z
M 1159 2969 
Q 1341 3281 1617 3432 
Q 1894 3584 2278 3584 
Q 2916 3584 3314 3078 
Q 3713 2572 3713 1747 
Q 3713 922 3314 415 
Q 2916 -91 2278 -91 
Q 1894 -91 1617 61 
Q 1341 213 1159 525 
L 1159 0 
L 581 0 
L 581 4863 
L 1159 4863 
L 1159 2969 
z
" transform="scale(0.015625)"/>
      </defs>
      <use xlink:href="#DejaVuSans-54"/>
      <use xlink:href="#DejaVuSans-5f" x="61.083984"/>
      <use xlink:href="#DejaVuSans-50" x="111.083984"/>
      <use xlink:href="#DejaVuSans-6f" x="167.761719"/>
      <use xlink:href="#DejaVuSans-62" x="228.943359"/>
      <use xlink:href="#DejaVuSans-5f" x="292.419922"/>
      <use xlink:href="#DejaVuSans-31" x="342.419922"/>
      <use xlink:href="#DejaVuSans-30" x="406.042969"/>
      <use xlink:href="#DejaVuSans-5f" x="469.666016"/>
      <use xlink:href="#DejaVuSans-32" x="519.666016"/>
      <use xlink:href="#DejaVuSans-30" x="583.289062"/>
     </g>
    </g>
   </g>
   <g id="matplotlib.axis_2">
    <g id="ytick_1">
     <g id="line2d_7">
      <defs>
       <path id="m86e4058383" d="M 0 0 
L -3.5 0 
" style="stroke: #000000; stroke-width: 0.8"/>
      </defs>
      <g>
       <use xlink:href="#m86e4058383" x="34.240625" y="673.292187" style="stroke: #000000; stroke-width: 0.8"/>
      </g>
     </g>
     <g id="text_8">
      <!-- 0 -->
      <g transform="translate(20.878125 677.091406)scale(0.1 -0.1)">
       <use xlink:href="#DejaVuSans-30"/>
      </g>
     </g>
    </g>
    <g id="ytick_2">
     <g id="line2d_8">
      <g>
       <use xlink:href="#m86e4058383" x="34.240625" y="587.998543" style="stroke: #000000; stroke-width: 0.8"/>
      </g>
     </g>
     <g id="text_9">
      <!-- 1 -->
      <g transform="translate(20.878125 591.797762)scale(0.1 -0.1)">
       <use xlink:href="#DejaVuSans-31"/>
      </g>
     </g>
    </g>
    <g id="ytick_3">
     <g id="line2d_9">
      <g>
       <use xlink:href="#m86e4058383" x="34.240625" y="502.704898" style="stroke: #000000; stroke-width: 0.8"/>
      </g>
     </g>
     <g id="text_10">
      <!-- 2 -->
      <g transform="translate(20.878125 506.504117)scale(0.1 -0.1)">
       <use xlink:href="#DejaVuSans-32"/>
      </g>
     </g>
    </g>
    <g id="ytick_4">
     <g id="line2d_10">
      <g>
       <use xlink:href="#m86e4058383" x="34.240625" y="417.411253" style="stroke: #000000; stroke-width: 0.8"/>
      </g>
     </g>
     <g id="text_11">
      <!-- 3 -->
      <g transform="translate(20.878125 421.210472)scale(0.1 -0.1)">
       <defs>
        <path id="DejaVuSans-33" d="M 2597 2516 
Q 3050 2419 3304 2112 
Q 3559 1806 3559 1356 
Q 3559 666 3084 287 
Q 2609 -91 1734 -91 
Q 1441 -91 1130 -33 
Q 819 25 488 141 
L 488 750 
Q 750 597 1062 519 
Q 1375 441 1716 441 
Q 2309 441 2620 675 
Q 2931 909 2931 1356 
Q 2931 1769 2642 2001 
Q 2353 2234 1838 2234 
L 1294 2234 
L 1294 2753 
L 1863 2753 
Q 2328 2753 2575 2939 
Q 2822 3125 2822 3475 
Q 2822 3834 2567 4026 
Q 2313 4219 1838 4219 
Q 1578 4219 1281 4162 
Q 984 4106 628 3988 
L 628 4550 
Q 988 4650 1302 4700 
Q 1616 4750 1894 4750 
Q 2613 4750 3031 4423 
Q 3450 4097 3450 3541 
Q 3450 3153 3228 2886 
Q 3006 2619 2597 2516 
z
" transform="scale(0.015625)"/>
       </defs>
       <use xlink:href="#DejaVuSans-33"/>
      </g>
     </g>
    </g>
    <g id="ytick_5">
     <g id="line2d_11">
      <g>
       <use xlink:href="#m86e4058383" x="34.240625" y="332.117609" style="stroke: #000000; stroke-width: 0.8"/>
      </g>
     </g>
     <g id="text_12">
      <!-- 4 -->
      <g transform="translate(20.878125 335.916828)scale(0.1 -0.1)">
       <defs>
        <path id="DejaVuSans-34" d="M 2419 4116 
L 825 1625 
L 2419 1625 
L 2419 4116 
z
M 2253 4666 
L 3047 4666 
L 3047 1625 
L 3713 1625 
L 3713 1100 
L 3047 1100 
L 3047 0 
L 2419 0 
L 2419 1100 
L 313 1100 
L 313 1709 
L 2253 4666 
z
" transform="scale(0.015625)"/>
       </defs>
       <use xlink:href="#DejaVuSans-34"/>
      </g>
     </g>
    </g>
    <g id="ytick_6">
     <g id="line2d_12">
      <g>
       <use xlink:href="#m86e4058383" x="34.240625" y="246.823964" style="stroke: #000000; stroke-width: 0.8"/>
      </g>
     </g>
     <g id="text_13">
      <!-- 5 -->
      <g transform="translate(20.878125 250.623183)scale(0.1 -0.1)">
       <use xlink:href="#DejaVuSans-35"/>
      </g>
     </g>
    </g>
    <g id="ytick_7">
     <g id="line2d_13">
      <g>
       <use xlink:href="#m86e4058383" x="34.240625" y="161.530319" style="stroke: #000000; stroke-width: 0.8"/>
      </g>
     </g>
     <g id="text_14">
      <!-- 6 -->
      <g transform="translate(20.878125 165.329538)scale(0.1 -0.1)">
       <defs>
        <path id="DejaVuSans-36" d="M 2113 2584 
Q 1688 2584 1439 2293 
Q 1191 2003 1191 1497 
Q 1191 994 1439 701 
Q 1688 409 2113 409 
Q 2538 409 2786 701 
Q 3034 994 3034 1497 
Q 3034 2003 2786 2293 
Q 2538 2584 2113 2584 
z
M 3366 4563 
L 3366 3988 
Q 3128 4100 2886 4159 
Q 2644 4219 2406 4219 
Q 1781 4219 1451 3797 
Q 1122 3375 1075 2522 
Q 1259 2794 1537 2939 
Q 1816 3084 2150 3084 
Q 2853 3084 3261 2657 
Q 3669 2231 3669 1497 
Q 3669 778 3244 343 
Q 2819 -91 2113 -91 
Q 1303 -91 875 529 
Q 447 1150 447 2328 
Q 447 3434 972 4092 
Q 1497 4750 2381 4750 
Q 2619 4750 2861 4703 
Q 3103 4656 3366 4563 
z
" transform="scale(0.015625)"/>
       </defs>
       <use xlink:href="#DejaVuSans-36"/>
      </g>
     </g>
    </g>
    <g id="ytick_8">
     <g id="line2d_14">
      <g>
       <use xlink:href="#m86e4058383" x="34.240625" y="76.236675" style="stroke: #000000; stroke-width: 0.8"/>
      </g>
     </g>
     <g id="text_15">
      <!-- 7 -->
      <g transform="translate(20.878125 80.035894)scale(0.1 -0.1)">
       <defs>
        <path id="DejaVuSans-37" d="M 525 4666 
L 3525 4666 
L 3525 4397 
L 1831 0 
L 1172 0 
L 2766 4134 
L 525 4134 
L 525 4666 
z
" transform="scale(0.015625)"/>
       </defs>
       <use xlink:href="#DejaVuSans-37"/>
      </g>
     </g>
    </g>
    <g id="text_16">
     <!-- Density -->
     <g transform="translate(14.798438 364.553906)rotate(-90)scale(0.1 -0.1)">
      <defs>
       <path id="DejaVuSans-44" d="M 1259 4147 
L 1259 519 
L 2022 519 
Q 2988 519 3436 956 
Q 3884 1394 3884 2338 
Q 3884 3275 3436 3711 
Q 2988 4147 2022 4147 
L 1259 4147 
z
M 628 4666 
L 1925 4666 
Q 3281 4666 3915 4102 
Q 4550 3538 4550 2338 
Q 4550 1131 3912 565 
Q 3275 0 1925 0 
L 628 0 
L 628 4666 
z
" transform="scale(0.015625)"/>
       <path id="DejaVuSans-65" d="M 3597 1894 
L 3597 1613 
L 953 1613 
Q 991 1019 1311 708 
Q 1631 397 2203 397 
Q 2534 397 2845 478 
Q 3156 559 3463 722 
L 3463 178 
Q 3153 47 2828 -22 
Q 2503 -91 2169 -91 
Q 1331 -91 842 396 
Q 353 884 353 1716 
Q 353 2575 817 3079 
Q 1281 3584 2069 3584 
Q 2775 3584 3186 3129 
Q 3597 2675 3597 1894 
z
M 3022 2063 
Q 3016 2534 2758 2815 
Q 2500 3097 2075 3097 
Q 1594 3097 1305 2825 
Q 1016 2553 972 2059 
L 3022 2063 
z
" transform="scale(0.015625)"/>
       <path id="DejaVuSans-6e" d="M 3513 2113 
L 3513 0 
L 2938 0 
L 2938 2094 
Q 2938 2591 2744 2837 
Q 2550 3084 2163 3084 
Q 1697 3084 1428 2787 
Q 1159 2491 1159 1978 
L 1159 0 
L 581 0 
L 581 3500 
L 1159 3500 
L 1159 2956 
Q 1366 3272 1645 3428 
Q 1925 3584 2291 3584 
Q 2894 3584 3203 3211 
Q 3513 2838 3513 2113 
z
" transform="scale(0.015625)"/>
       <path id="DejaVuSans-73" d="M 2834 3397 
L 2834 2853 
Q 2591 2978 2328 3040 
Q 2066 3103 1784 3103 
Q 1356 3103 1142 2972 
Q 928 2841 928 2578 
Q 928 2378 1081 2264 
Q 1234 2150 1697 2047 
L 1894 2003 
Q 2506 1872 2764 1633 
Q 3022 1394 3022 966 
Q 3022 478 2636 193 
Q 2250 -91 1575 -91 
Q 1294 -91 989 -36 
Q 684 19 347 128 
L 347 722 
Q 666 556 975 473 
Q 1284 391 1588 391 
Q 1994 391 2212 530 
Q 2431 669 2431 922 
Q 2431 1156 2273 1281 
Q 2116 1406 1581 1522 
L 1381 1569 
Q 847 1681 609 1914 
Q 372 2147 372 2553 
Q 372 3047 722 3315 
Q 1072 3584 1716 3584 
Q 2034 3584 2315 3537 
Q 2597 3491 2834 3397 
z
" transform="scale(0.015625)"/>
       <path id="DejaVuSans-69" d="M 603 3500 
L 1178 3500 
L 1178 0 
L 603 0 
L 603 3500 
z
M 603 4863 
L 1178 4863 
L 1178 4134 
L 603 4134 
L 603 4863 
z
" transform="scale(0.015625)"/>
       <path id="DejaVuSans-74" d="M 1172 4494 
L 1172 3500 
L 2356 3500 
L 2356 3053 
L 1172 3053 
L 1172 1153 
Q 1172 725 1289 603 
Q 1406 481 1766 481 
L 2356 481 
L 2356 0 
L 1766 0 
Q 1100 0 847 248 
Q 594 497 594 1153 
L 594 3053 
L 172 3053 
L 172 3500 
L 594 3500 
L 594 4494 
L 1172 4494 
z
" transform="scale(0.015625)"/>
       <path id="DejaVuSans-79" d="M 2059 -325 
Q 1816 -950 1584 -1140 
Q 1353 -1331 966 -1331 
L 506 -1331 
L 506 -850 
L 844 -850 
Q 1081 -850 1212 -737 
Q 1344 -625 1503 -206 
L 1606 56 
L 191 3500 
L 800 3500 
L 1894 763 
L 2988 3500 
L 3597 3500 
L 2059 -325 
z
" transform="scale(0.015625)"/>
      </defs>
      <use xlink:href="#DejaVuSans-44"/>
      <use xlink:href="#DejaVuSans-65" x="77.001953"/>
      <use xlink:href="#DejaVuSans-6e" x="138.525391"/>
      <use xlink:href="#DejaVuSans-73" x="201.904297"/>
      <use xlink:href="#DejaVuSans-69" x="254.003906"/>
      <use xlink:href="#DejaVuSans-74" x="281.787109"/>
      <use xlink:href="#DejaVuSans-79" x="320.996094"/>
     </g>
    </g>
    <g id="text_17">
     <!-- 1e−5 -->
     <g transform="translate(34.240625 14.798437)scale(0.1 -0.1)">
      <use xlink:href="#DejaVuSans-31"/>
      <use xlink:href="#DejaVuSans-65" x="63.623047"/>
      <use xlink:href="#DejaVuSans-2212" x="125.146484"/>
      <use xlink:href="#DejaVuSans-35" x="208.935547"/>
     </g>
    </g>
   </g>
   <g id="line2d_15">
    <path d="M 167.814723 672.785245 
L 171.474392 672.445069 
L 175.13406 671.910498 
L 178.793728 671.091916 
L 180.623563 670.540177 
L 182.453397 669.870232 
L 184.283231 669.061919 
L 186.113065 668.092821 
L 187.942899 666.938257 
L 189.772733 665.571328 
L 191.602568 663.963028 
L 193.432402 662.082419 
L 195.262236 659.89688 
L 197.09207 657.372436 
L 198.921904 654.474155 
L 200.751738 651.166634 
L 202.581572 647.414535 
L 204.411407 643.183196 
L 206.241241 638.439292 
L 208.071075 633.151518 
L 209.900909 627.291313 
L 211.730743 620.833572 
L 213.560577 613.757349 
L 215.390412 606.046521 
L 217.220246 597.690403 
L 219.05008 588.684283 
L 220.879914 579.029872 
L 224.539582 557.817074 
L 228.199251 534.204157 
L 231.858919 508.454961 
L 235.518587 480.937152 
L 241.00809 437.357672 
L 251.987095 348.533751 
L 255.646763 320.364607 
L 259.306432 293.643626 
L 262.9661 268.664946 
L 266.625768 245.609081 
L 270.285437 224.548497 
L 273.945105 205.468864 
L 277.604773 188.304631 
L 281.264441 172.984968 
L 283.094276 166.005624 
L 284.92411 159.483781 
L 286.753944 153.43075 
L 288.583778 147.86578 
L 290.413612 142.816687 
L 292.243446 138.320119 
L 294.073281 134.421423 
L 295.903115 131.174078 
L 297.732949 128.638716 
L 299.562783 126.88172 
L 301.392617 125.973446 
L 303.222451 125.986114 
L 305.052286 126.991433 
L 306.88212 129.058038 
L 308.711954 132.24883 
L 310.541788 136.618319 
L 312.371622 142.210066 
L 314.201456 149.054332 
L 316.031291 157.166022 
L 317.861125 166.543009 
L 319.690959 177.164919 
L 321.520793 188.992425 
L 323.350627 201.967086 
L 325.180461 216.011749 
L 328.84013 246.91517 
L 332.499798 280.760292 
L 337.989301 334.539979 
L 343.478803 388.237137 
L 347.138471 422.031756 
L 350.79814 453.074116 
L 352.627974 467.326244 
L 354.457808 480.639433 
L 356.287642 492.966223 
L 358.117476 504.277187 
L 359.947311 514.560692 
L 361.777145 523.822317 
L 363.606979 532.083938 
L 365.436813 539.382538 
L 367.266647 545.768746 
L 369.096481 551.305174 
L 370.926315 556.064562 
L 372.75615 560.127796 
L 374.585984 563.581818 
L 376.415818 566.517486 
L 378.245652 569.027426 
L 380.075486 571.203909 
L 383.735155 574.911729 
L 389.224657 580.044535 
L 392.884325 583.909038 
L 394.71416 586.101112 
L 396.543994 588.497229 
L 398.373828 591.106768 
L 402.033496 596.952011 
L 405.693165 603.517434 
L 411.182667 614.169241 
L 416.67217 624.79646 
L 420.331838 631.297661 
L 422.161672 634.259535 
L 423.991506 636.988179 
L 425.82134 639.459701 
L 427.651175 641.656094 
L 429.481009 643.565492 
L 431.310843 645.18227 
L 433.140677 646.506983 
L 434.970511 647.546163 
L 436.800345 648.311994 
L 438.63018 648.821859 
L 440.460014 649.097789 
L 442.289848 649.165832 
L 444.119682 649.055332 
L 445.949516 648.798165 
L 449.609185 647.979113 
L 456.928521 646.072376 
L 460.588189 645.473047 
L 462.418024 645.345997 
L 464.247858 645.35559 
L 466.077692 645.512391 
L 467.907526 645.822371 
L 469.73736 646.286976 
L 471.567194 646.903323 
L 473.397029 647.66453 
L 477.056697 649.576631 
L 480.716365 651.906467 
L 486.205868 655.861441 
L 493.525204 661.203029 
L 497.184873 663.621252 
L 500.844541 665.760992 
L 504.504209 667.58306 
L 508.163878 669.079317 
L 511.823546 670.266083 
L 515.483214 671.176339 
L 519.142883 671.852137 
L 522.802551 672.338157 
L 528.292054 672.803102 
L 531.951722 672.98929 
L 531.951722 672.98929 
" clip-path="url(#pae44a9752f)" style="fill: none; stroke: #e377c2; stroke-width: 1.5; stroke-linecap: square"/>
   </g>
   <g id="line2d_16">
    <path d="M 156.973362 672.85693 
L 160.42802 672.464673 
L 163.882678 671.793098 
L 166.185784 671.12307 
L 168.488889 670.219311 
L 170.791994 669.029411 
L 173.0951 667.500239 
L 175.398205 665.581965 
L 177.70131 663.232663 
L 180.004415 660.422885 
L 182.307521 657.139387 
L 184.610626 653.387105 
L 186.913731 649.188553 
L 189.216837 644.580127 
L 192.671495 636.993655 
L 196.126153 628.707523 
L 199.580811 619.755092 
L 203.035469 610.014511 
L 205.338574 602.943252 
L 207.641679 595.269507 
L 209.944784 586.854225 
L 212.24789 577.557695 
L 214.550995 567.254652 
L 216.8541 555.846985 
L 219.157206 543.271666 
L 221.460311 529.502429 
L 223.763416 514.545117 
L 226.066522 498.428014 
L 229.52118 472.162228 
L 232.975838 443.492627 
L 236.430495 412.500554 
L 239.885153 379.273285 
L 243.339811 344.0275 
L 249.097575 282.35772 
L 253.703785 233.317937 
L 257.158443 199.125779 
L 259.461549 178.50995 
L 261.764654 160.160634 
L 264.067759 144.414735 
L 265.219312 137.585777 
L 266.370864 131.468995 
L 267.522417 126.063183 
L 268.67397 121.356271 
L 269.825522 117.325483 
L 270.977075 113.937765 
L 272.128628 111.150463 
L 273.28018 108.912232 
L 274.431733 107.164153 
L 275.583286 105.841015 
L 276.734838 104.872741 
L 277.886391 104.185898 
L 279.037944 103.705273 
L 283.644154 102.366878 
L 284.795707 101.836506 
L 285.94726 101.109964 
L 287.098812 100.141152 
L 288.250365 98.892917 
L 289.401918 97.337838 
L 290.55347 95.458857 
L 291.705023 93.249755 
L 292.856575 90.715468 
L 295.159681 84.747723 
L 297.462786 77.820873 
L 303.220549 59.568495 
L 304.372102 56.434263 
L 305.523655 53.705162 
L 306.675207 51.489399 
L 307.82676 49.896448 
L 308.978313 49.035211 
L 310.129865 49.01207 
L 311.281418 49.928863 
L 312.432971 51.880835 
L 313.584523 54.954585 
L 314.736076 59.226088 
L 315.887629 64.758825 
L 317.039181 71.602089 
L 318.190734 79.789513 
L 319.342287 89.33789 
L 320.493839 100.246309 
L 321.645392 112.495659 
L 323.948497 140.849526 
L 326.251602 173.889043 
L 328.554708 210.848315 
L 332.009366 271.478833 
L 340.070234 417.55681 
L 342.37334 455.793376 
L 344.676445 491.030704 
L 346.97955 522.809244 
L 349.282655 550.87959 
L 351.585761 575.183542 
L 353.888866 595.823746 
L 356.191971 613.0271 
L 357.343524 620.435431 
L 358.495077 627.106662 
L 359.646629 633.087515 
L 360.798182 638.425879 
L 361.949735 643.169991 
L 363.101287 647.367725 
L 364.25284 651.065975 
L 365.404393 654.310157 
L 366.555945 657.143798 
L 367.707498 659.608224 
L 368.859051 661.742336 
L 370.010603 663.582448 
L 371.162156 665.16221 
L 372.313709 666.512576 
L 373.465261 667.661822 
L 374.616814 668.635612 
L 376.919919 670.146999 
L 379.223024 671.203885 
L 381.52613 671.929639 
L 383.829235 672.418876 
L 386.13234 672.742528 
L 386.13234 672.742528 
" clip-path="url(#pae44a9752f)" style="fill: none; stroke: #8c564b; stroke-width: 1.5; stroke-linecap: square"/>
   </g>
   <g id="line2d_17">
    <path d="M 96.778636 672.810776 
L 109.349091 672.397277 
L 121.919545 671.68201 
L 128.204773 671.158581 
L 134.49 670.487909 
L 140.775227 669.636261 
L 147.060455 668.564526 
L 153.345682 667.228014 
L 159.630909 665.57646 
L 165.916136 663.554264 
L 172.201364 661.101042 
L 178.486591 658.152529 
L 184.771818 654.641867 
L 191.057045 650.501318 
L 197.342273 645.664403 
L 203.6275 640.068444 
L 209.912727 633.657463 
L 216.197955 626.385362 
L 222.483182 618.219274 
L 228.768409 609.142926 
L 235.053636 599.159867 
L 241.338864 588.29635 
L 247.624091 576.603695 
L 253.909318 564.159904 
L 260.194545 551.070388 
L 266.479773 537.467626 
L 279.050227 509.37747 
L 291.620682 481.40413 
L 297.905909 467.999125 
L 304.191136 455.279649 
L 310.476364 443.46397 
L 316.761591 432.757815 
L 323.046818 423.347527 
L 329.332045 415.393792 
L 335.617273 409.026289 
L 341.9025 404.339501 
L 348.187727 401.38991 
L 354.472955 400.19471 
L 360.758182 400.732072 
L 367.043409 402.942927 
L 373.328636 406.734138 
L 379.613864 411.982859 
L 385.899091 418.541832 
L 392.184318 426.245321 
L 398.469545 434.91536 
L 404.754773 444.36802 
L 411.04 454.419383 
L 417.325227 464.890975 
L 442.466136 507.838251 
L 448.751364 518.201561 
L 455.036591 528.226374 
L 461.321818 537.85151 
L 467.607045 547.033211 
L 473.892273 555.743336 
L 480.1775 563.967272 
L 486.462727 571.701691 
L 492.747955 578.952321 
L 499.033182 585.731815 
L 505.318409 592.057817 
L 511.603636 597.95129 
L 517.888864 603.435126 
L 524.174091 608.533063 
L 530.459318 613.268884 
L 536.744545 617.665874 
L 543.029773 621.746499 
L 549.315 625.532258 
L 555.600227 629.043658 
L 561.885455 632.300264 
L 568.170682 635.320786 
L 574.455909 638.123169 
L 580.741136 640.724651 
L 587.026364 643.14179 
L 593.311591 645.39043 
L 599.596818 647.48564 
L 605.882045 649.441598 
L 618.4525 652.987252 
L 631.022955 656.118115 
L 643.593409 658.90323 
L 656.163864 661.389065 
L 668.734318 663.601883 
L 681.304773 665.553024 
L 693.875227 667.245865 
L 706.445682 668.682757 
L 719.016136 669.870466 
L 731.586591 670.823171 
L 744.157045 671.562905 
L 756.7275 672.117907 
L 775.583182 672.67333 
L 794.438864 672.989291 
L 819.579773 673.188293 
L 863.576364 673.279608 
L 938.999091 673.220857 
L 970.425227 673.016255 
L 989.280909 672.733028 
L 1008.136591 672.245794 
L 1026.992273 671.483889 
L 1045.847955 670.406431 
L 1064.703636 669.039497 
L 1108.700227 665.581249 
L 1121.270682 664.851795 
L 1133.841136 664.374615 
L 1146.411591 664.198096 
L 1158.982045 664.340588 
L 1171.5525 664.787261 
L 1184.122955 665.492645 
L 1202.978636 666.882369 
L 1240.69 669.883069 
L 1259.545682 671.085901 
L 1278.401364 671.973639 
L 1297.257045 672.5645 
L 1316.112727 672.921329 
L 1341.253636 673.158807 
L 1347.538864 673.191156 
L 1347.538864 673.191156 
" clip-path="url(#pae44a9752f)" style="fill: none; stroke: #9467bd; stroke-width: 1.5; stroke-linecap: square"/>
   </g>
   <g id="line2d_18">
    <path d="M 139.932733 672.820577 
L 146.078966 672.319978 
L 150.176455 671.758335 
L 154.273944 670.92217 
L 158.371433 669.705092 
L 160.420178 668.912949 
L 162.468922 667.973035 
L 164.517666 666.864041 
L 166.566411 665.562877 
L 168.615155 664.044785 
L 170.6639 662.283493 
L 172.712644 660.25144 
L 174.761389 657.920064 
L 176.810133 655.26015 
L 178.858877 652.242251 
L 180.907622 648.83716 
L 182.956366 645.016445 
L 185.005111 640.75302 
L 187.053855 636.021757 
L 189.1026 630.800104 
L 191.151344 625.068712 
L 193.200088 618.81204 
L 195.248833 612.018919 
L 197.297577 604.683051 
L 199.346322 596.803438 
L 201.395066 588.3847 
L 203.443811 579.437283 
L 207.541299 560.027641 
L 211.638788 538.774009 
L 215.736277 515.959517 
L 219.833766 491.934058 
L 225.979999 454.491927 
L 236.223722 391.715378 
L 240.32121 367.548613 
L 244.418699 344.382047 
L 248.516188 322.465843 
L 252.613677 302.020706 
L 256.711166 283.251939 
L 258.75991 274.559502 
L 260.808655 266.362814 
L 262.857399 258.688501 
L 264.906144 251.563884 
L 266.954888 245.016905 
L 269.003632 239.075929 
L 271.052377 233.769456 
L 273.101121 229.125729 
L 275.149866 225.17228 
L 277.19861 221.935415 
L 279.247355 219.439673 
L 281.296099 217.707268 
L 283.344844 216.757537 
L 285.393588 216.606412 
L 287.442332 217.265925 
L 289.491077 218.743756 
L 291.539821 221.042834 
L 293.588566 224.16099 
L 295.63731 228.090671 
L 297.686055 232.81871 
L 299.734799 238.326149 
L 301.783543 244.588133 
L 303.832288 251.573852 
L 305.881032 259.246565 
L 307.929777 267.563682 
L 309.978521 276.476931 
L 314.07601 295.871984 
L 318.173499 316.944187 
L 324.319732 350.479553 
L 332.51471 395.669214 
L 336.612199 417.178748 
L 340.709688 437.316435 
L 344.807177 455.729576 
L 346.855921 464.215958 
L 348.904665 472.201149 
L 350.95341 479.680821 
L 353.002154 486.659547 
L 355.050899 493.150305 
L 357.099643 499.173761 
L 359.148388 504.757379 
L 361.197132 509.934356 
L 363.245876 514.742449 
L 365.294621 519.222717 
L 369.39211 527.372749 
L 373.489599 534.730214 
L 379.635832 544.965295 
L 391.928298 565.090988 
L 406.26951 589.017175 
L 410.366998 595.455792 
L 414.464487 601.498944 
L 418.561976 607.055296 
L 422.659465 612.065413 
L 426.756954 616.504486 
L 430.854443 620.381184 
L 434.951932 623.733879 
L 439.04942 626.625379 
L 443.146909 629.136959 
L 447.244398 631.362061 
L 453.390632 634.379186 
L 463.634354 639.320818 
L 469.780587 642.610522 
L 475.92682 646.261692 
L 482.073054 650.216274 
L 494.36552 658.299381 
L 498.463009 660.793078 
L 502.560498 663.083154 
L 506.657987 665.127609 
L 510.755476 666.90205 
L 514.852965 668.3996 
L 518.950453 669.628848 
L 523.047942 670.610479 
L 527.145431 671.373299 
L 531.24292 671.950294 
L 537.389153 672.540739 
L 543.535387 672.892828 
L 547.632875 673.037701 
L 547.632875 673.037701 
" clip-path="url(#pae44a9752f)" style="fill: none; stroke: #d62728; stroke-width: 1.5; stroke-linecap: square"/>
   </g>
   <g id="line2d_19">
    <path d="M 148.786361 673.056039 
L 161.143231 672.736555 
L 169.381144 672.337328 
L 177.619057 671.688449 
L 181.738013 671.23149 
L 185.85697 670.659356 
L 189.975926 669.947459 
L 194.094883 669.067186 
L 198.213839 667.985567 
L 202.332796 666.664996 
L 206.451753 665.06304 
L 210.570709 663.132375 
L 214.689666 660.820861 
L 218.808622 658.071828 
L 222.927579 654.824572 
L 227.046535 651.01512 
L 231.165492 646.577284 
L 235.284448 641.444021 
L 239.403405 635.54911 
L 243.522361 628.829143 
L 247.641318 621.225798 
L 251.760274 612.688361 
L 255.879231 603.176434 
L 259.998187 592.662728 
L 264.117144 581.135862 
L 268.236101 568.603033 
L 272.355057 555.092423 
L 276.474014 540.65522 
L 280.59297 525.367093 
L 284.711927 509.329013 
L 288.830883 492.667301 
L 297.068796 458.099186 
L 305.306709 423.126502 
L 309.425666 406.020628 
L 313.544622 389.472639 
L 317.663579 373.71423 
L 321.782535 358.972923 
L 325.901492 345.466081 
L 330.020449 333.395069 
L 334.139405 322.939773 
L 338.258362 314.253721 
L 342.377318 307.459989 
L 346.496275 302.64807 
L 350.615231 299.871805 
L 354.734188 299.148469 
L 358.853144 300.458997 
L 362.972101 303.749329 
L 367.091057 308.932776 
L 371.210014 315.89328 
L 375.32897 324.489387 
L 379.447927 334.558762 
L 383.566883 345.923024 
L 387.68584 358.392712 
L 391.804797 371.772175 
L 395.923753 385.864228 
L 404.161666 415.414752 
L 416.518536 460.496787 
L 420.637492 475.106062 
L 424.756449 489.292558 
L 428.875405 502.952578 
L 432.994362 515.998793 
L 437.113318 528.35977 
L 441.232275 539.979274 
L 445.351231 550.815402 
L 449.470188 560.839636 
L 453.589145 570.035865 
L 457.708101 578.399421 
L 461.827058 585.936153 
L 465.946014 592.661551 
L 470.064971 598.599918 
L 474.183927 603.783578 
L 478.302884 608.252093 
L 482.42184 612.05147 
L 486.540797 615.233328 
L 490.659753 617.854006 
L 494.77871 619.973591 
L 498.897666 621.654868 
L 503.016623 622.962179 
L 507.135579 623.960228 
L 511.254536 624.71283 
L 515.373493 625.281664 
L 523.611406 626.09684 
L 535.968275 627.233687 
L 544.206188 628.340665 
L 548.325145 629.05981 
L 552.444101 629.899759 
L 556.563058 630.860275 
L 564.800971 633.115704 
L 573.038884 635.732986 
L 585.395754 640.0499 
L 601.87158 645.883608 
L 614.228449 649.975161 
L 626.585319 653.741317 
L 638.942189 657.216762 
L 651.299058 660.435212 
L 663.655928 663.372829 
L 671.893841 665.135877 
L 680.131754 666.705728 
L 688.369667 668.051172 
L 696.60758 669.146211 
L 704.845493 669.972171 
L 713.083406 670.517802 
L 721.321319 670.778188 
L 729.559232 670.753569 
L 737.797145 670.449103 
L 746.035058 669.876137 
L 754.272971 669.054959 
L 762.510885 668.018359 
L 774.867754 666.170476 
L 795.462537 662.937447 
L 803.70045 661.858852 
L 811.938363 661.040527 
L 820.176276 660.553957 
L 828.414189 660.443163 
L 836.652102 660.718669 
L 844.890015 661.35618 
L 853.127928 662.300301 
L 861.365841 663.472581 
L 877.841667 666.138002 
L 890.198537 668.082902 
L 898.43645 669.233068 
L 906.674363 670.223926 
L 914.912276 671.042306 
L 923.150189 671.691769 
L 935.507059 672.385188 
L 947.863929 672.812127 
L 964.339755 673.107387 
L 968.458711 673.14936 
L 968.458711 673.14936 
" clip-path="url(#pae44a9752f)" style="fill: none; stroke: #2ca02c; stroke-width: 1.5; stroke-linecap: square"/>
   </g>
   <g id="line2d_20">
    <path d="M 141.392795 673.000442 
L 148.554124 672.625933 
L 153.328343 672.184578 
L 158.102563 671.511663 
L 162.876782 670.523927 
L 167.651002 669.128727 
L 170.038111 668.249013 
L 172.425221 667.23337 
L 174.812331 666.07248 
L 177.199441 664.758958 
L 179.58655 663.287939 
L 181.97366 661.657661 
L 184.36077 659.869996 
L 189.134989 655.850798 
L 193.909209 651.332149 
L 201.070538 644.015001 
L 205.844757 639.133393 
L 210.618977 634.561939 
L 213.006087 632.469001 
L 215.393196 630.536363 
L 217.780306 628.779114 
L 220.167416 627.203302 
L 222.554526 625.80443 
L 224.941635 624.566191 
L 229.715855 622.442195 
L 234.490074 620.43991 
L 236.877184 619.305939 
L 239.264294 617.965627 
L 241.651403 616.319567 
L 244.038513 614.262396 
L 246.425623 611.685721 
L 248.812733 608.481386 
L 251.199842 604.544981 
L 253.586952 599.779478 
L 255.974062 594.098839 
L 258.361172 587.43147 
L 260.748281 579.723335 
L 263.135391 570.940606 
L 265.522501 561.071675 
L 267.90961 550.128424 
L 270.29672 538.146624 
L 272.68383 525.18542 
L 275.07094 511.32586 
L 279.845159 481.330115 
L 284.619379 449.134306 
L 298.942037 350.009111 
L 303.716256 319.00453 
L 308.490476 289.820574 
L 313.264695 262.564561 
L 318.038915 237.236591 
L 322.813134 213.891577 
L 325.200244 203.03398 
L 327.587354 192.794717 
L 329.974464 183.256821 
L 332.361573 174.524741 
L 334.748683 166.722449 
L 337.135793 159.989903 
L 339.522902 154.47806 
L 341.910012 150.342645 
L 344.297122 147.737042 
L 346.684232 146.804685 
L 349.071341 147.671386 
L 351.458451 150.438058 
L 353.845561 155.174244 
L 356.232671 161.912841 
L 358.61978 170.646336 
L 361.00689 181.324774 
L 363.394 193.855586 
L 365.78111 208.1053 
L 368.168219 223.903045 
L 370.555329 241.045668 
L 372.942439 259.304199 
L 377.716658 298.169483 
L 387.265097 378.182362 
L 392.039317 415.739861 
L 394.426426 433.318888 
L 396.813536 449.960835 
L 399.200646 465.605548 
L 401.587755 480.225431 
L 403.974865 493.822617 
L 406.361975 506.42517 
L 408.749085 518.082556 
L 411.136194 528.860684 
L 413.523304 538.836764 
L 415.910414 548.09428 
L 418.297524 556.718282 
L 420.684633 564.791223 
L 423.071743 572.38948 
L 427.845963 586.421746 
L 432.620182 599.22314 
L 437.394401 611.017306 
L 442.168621 621.865682 
L 444.555731 626.922096 
L 446.94284 631.717609 
L 449.32995 636.238272 
L 451.71706 640.470404 
L 454.10417 644.401948 
L 456.491279 648.023496 
L 458.878389 651.328974 
L 461.265499 654.315999 
L 463.652609 656.985926 
L 466.039718 659.343624 
L 468.426828 661.397066 
L 470.813938 663.156748 
L 473.201047 664.635052 
L 475.588157 665.845569 
L 477.975267 666.802469 
L 480.362377 667.519952 
L 482.749486 668.011806 
L 485.136596 668.291125 
L 487.523706 668.370168 
L 489.910816 668.260386 
L 492.297925 667.972583 
L 494.685035 667.517225 
L 497.072145 666.904824 
L 499.459255 666.146412 
L 501.846364 665.254019 
L 506.620584 663.123193 
L 511.394803 660.644749 
L 523.330352 654.119448 
L 528.104571 651.945756 
L 530.491681 651.06144 
L 532.878791 650.343034 
L 535.265901 649.809176 
L 537.65301 649.473964 
L 540.04012 649.346379 
L 542.42723 649.429925 
L 544.814339 649.722488 
L 547.201449 650.216442 
L 549.588559 650.898998 
L 551.975669 651.752755 
L 554.362778 652.756448 
L 559.136998 655.114645 
L 566.298327 659.12601 
L 573.459656 663.097223 
L 578.233876 665.459203 
L 583.008095 667.483236 
L 587.782315 669.134066 
L 592.556534 670.419254 
L 597.330754 671.376243 
L 602.104973 672.058887 
L 606.879193 672.525913 
L 614.040522 672.941003 
L 616.427631 673.026176 
L 616.427631 673.026176 
" clip-path="url(#pae44a9752f)" style="fill: none; stroke: #ff7f0e; stroke-width: 1.5; stroke-linecap: square"/>
   </g>
   <g id="line2d_21">
    <path d="M 216.831465 672.613724 
L 219.858158 672.244282 
L 222.88485 671.705012 
L 225.911543 670.934555 
L 228.938236 669.857198 
L 231.964928 668.382746 
L 233.478275 667.464737 
L 234.991621 666.407771 
L 236.504967 665.197337 
L 238.018314 663.818571 
L 239.53166 662.256447 
L 241.045006 660.496006 
L 242.558353 658.522591 
L 244.071699 656.322117 
L 245.585045 653.881333 
L 247.098392 651.188097 
L 248.611738 648.231638 
L 250.125084 645.002802 
L 251.638431 641.494261 
L 254.665123 633.618894 
L 257.691816 624.588722 
L 260.718509 614.421143 
L 263.745201 603.16384 
L 266.771894 590.886078 
L 269.798586 577.665941 
L 272.825279 563.575154 
L 275.851972 548.663876 
L 278.878664 532.948305 
L 281.905357 516.403834 
L 284.93205 498.965955 
L 287.958742 480.539949 
L 290.985435 461.018975 
L 294.012128 440.308626 
L 297.03882 418.354672 
L 300.065513 395.169874 
L 304.605552 358.334185 
L 310.658937 306.710213 
L 316.712323 255.167478 
L 319.739015 230.674819 
L 322.765708 207.731952 
L 325.7924 186.82939 
L 328.819093 168.403446 
L 330.332439 160.237004 
L 331.845786 152.821774 
L 333.359132 146.191955 
L 334.872478 140.377049 
L 336.385825 135.401996 
L 337.899171 131.287353 
L 339.412517 128.049481 
L 340.925864 125.700742 
L 342.43921 124.249656 
L 343.952556 123.701031 
L 345.465903 124.056027 
L 346.979249 125.312167 
L 348.492595 127.46329 
L 350.005942 130.499444 
L 351.519288 134.406732 
L 353.032634 139.167126 
L 354.545981 144.758271 
L 356.059327 151.153284 
L 357.572673 158.320582 
L 359.08602 166.223751 
L 360.599366 174.821481 
L 363.626059 193.911063 
L 366.652751 215.163722 
L 369.679444 238.086442 
L 374.219483 274.399106 
L 381.786214 335.24105 
L 384.812907 358.078083 
L 387.8396 379.349478 
L 390.866292 398.698714 
L 393.892985 415.873511 
L 395.406331 423.597172 
L 396.919678 430.733466 
L 398.433024 437.282525 
L 399.94637 443.251291 
L 401.459717 448.653231 
L 402.973063 453.50798 
L 404.486409 457.840905 
L 405.999756 461.682617 
L 407.513102 465.068422 
L 409.026448 468.037731 
L 410.539795 470.633437 
L 412.053141 472.901264 
L 413.566487 474.889095 
L 415.079834 476.646299 
L 418.106526 479.669673 
L 425.673258 486.642004 
L 427.186604 488.293932 
L 428.699951 490.121034 
L 430.213297 492.154119 
L 431.726643 494.419637 
L 433.23999 496.939449 
L 434.753336 499.730647 
L 436.266682 502.805453 
L 437.780029 506.171174 
L 439.293375 509.830227 
L 442.320067 518.01418 
L 445.34676 527.283989 
L 448.373453 537.5005 
L 451.400145 548.470116 
L 455.940184 565.817946 
L 463.506916 594.938656 
L 466.533609 605.928095 
L 469.560301 616.224629 
L 472.586994 625.67382 
L 475.613687 634.169468 
L 478.640379 641.654228 
L 481.667072 648.116678 
L 483.180418 650.972141 
L 484.693765 653.585518 
L 486.207111 655.965387 
L 487.720457 658.121797 
L 489.233804 660.065989 
L 490.74715 661.810113 
L 492.260496 663.366962 
L 493.773843 664.749723 
L 495.287189 665.971747 
L 498.313882 667.986582 
L 501.340574 669.514295 
L 504.367267 670.649762 
L 507.393959 671.477 
L 510.420652 672.067745 
L 514.960691 672.636781 
L 517.987384 672.869999 
L 517.987384 672.869999 
" clip-path="url(#pae44a9752f)" style="fill: none; stroke: #1f77b4; stroke-width: 1.5; stroke-linecap: square"/>
   </g>
   <g id="line2d_22">
    <path d="M 328.181735 673.292187 
L 328.181735 17.798437 
" clip-path="url(#pae44a9752f)" style="fill: none; stroke-dasharray: 3.7,1.6; stroke-dashoffset: 0; stroke: #000000"/>
   </g>
   <g id="patch_3">
    <path d="M 34.240625 673.292187 
L 34.240625 17.798437 
" style="fill: none; stroke: #000000; stroke-width: 0.8; stroke-linejoin: miter; stroke-linecap: square"/>
   </g>
   <g id="patch_4">
    <path d="M 34.240625 673.292187 
L 1410.076875 673.292187 
" style="fill: none; stroke: #000000; stroke-width: 0.8; stroke-linejoin: miter; stroke-linecap: square"/>
   </g>
  </g>
  <g id="legend_1">
   <g id="text_18">
    <!-- time_group -->
    <g transform="translate(1444.353125 305.836719)scale(0.1 -0.1)">
     <defs>
      <path id="DejaVuSans-6d" d="M 3328 2828 
Q 3544 3216 3844 3400 
Q 4144 3584 4550 3584 
Q 5097 3584 5394 3201 
Q 5691 2819 5691 2113 
L 5691 0 
L 5113 0 
L 5113 2094 
Q 5113 2597 4934 2840 
Q 4756 3084 4391 3084 
Q 3944 3084 3684 2787 
Q 3425 2491 3425 1978 
L 3425 0 
L 2847 0 
L 2847 2094 
Q 2847 2600 2669 2842 
Q 2491 3084 2119 3084 
Q 1678 3084 1418 2786 
Q 1159 2488 1159 1978 
L 1159 0 
L 581 0 
L 581 3500 
L 1159 3500 
L 1159 2956 
Q 1356 3278 1631 3431 
Q 1906 3584 2284 3584 
Q 2666 3584 2933 3390 
Q 3200 3197 3328 2828 
z
" transform="scale(0.015625)"/>
      <path id="DejaVuSans-67" d="M 2906 1791 
Q 2906 2416 2648 2759 
Q 2391 3103 1925 3103 
Q 1463 3103 1205 2759 
Q 947 2416 947 1791 
Q 947 1169 1205 825 
Q 1463 481 1925 481 
Q 2391 481 2648 825 
Q 2906 1169 2906 1791 
z
M 3481 434 
Q 3481 -459 3084 -895 
Q 2688 -1331 1869 -1331 
Q 1566 -1331 1297 -1286 
Q 1028 -1241 775 -1147 
L 775 -588 
Q 1028 -725 1275 -790 
Q 1522 -856 1778 -856 
Q 2344 -856 2625 -561 
Q 2906 -266 2906 331 
L 2906 616 
Q 2728 306 2450 153 
Q 2172 0 1784 0 
Q 1141 0 747 490 
Q 353 981 353 1791 
Q 353 2603 747 3093 
Q 1141 3584 1784 3584 
Q 2172 3584 2450 3431 
Q 2728 3278 2906 2969 
L 2906 3500 
L 3481 3500 
L 3481 434 
z
" transform="scale(0.015625)"/>
      <path id="DejaVuSans-72" d="M 2631 2963 
Q 2534 3019 2420 3045 
Q 2306 3072 2169 3072 
Q 1681 3072 1420 2755 
Q 1159 2438 1159 1844 
L 1159 0 
L 581 0 
L 581 3500 
L 1159 3500 
L 1159 2956 
Q 1341 3275 1631 3429 
Q 1922 3584 2338 3584 
Q 2397 3584 2469 3576 
Q 2541 3569 2628 3553 
L 2631 2963 
z
" transform="scale(0.015625)"/>
      <path id="DejaVuSans-75" d="M 544 1381 
L 544 3500 
L 1119 3500 
L 1119 1403 
Q 1119 906 1312 657 
Q 1506 409 1894 409 
Q 2359 409 2629 706 
Q 2900 1003 2900 1516 
L 2900 3500 
L 3475 3500 
L 3475 0 
L 2900 0 
L 2900 538 
Q 2691 219 2414 64 
Q 2138 -91 1772 -91 
Q 1169 -91 856 284 
Q 544 659 544 1381 
z
M 1991 3584 
L 1991 3584 
z
" transform="scale(0.015625)"/>
      <path id="DejaVuSans-70" d="M 1159 525 
L 1159 -1331 
L 581 -1331 
L 581 3500 
L 1159 3500 
L 1159 2969 
Q 1341 3281 1617 3432 
Q 1894 3584 2278 3584 
Q 2916 3584 3314 3078 
Q 3713 2572 3713 1747 
Q 3713 922 3314 415 
Q 2916 -91 2278 -91 
Q 1894 -91 1617 61 
Q 1341 213 1159 525 
z
M 3116 1747 
Q 3116 2381 2855 2742 
Q 2594 3103 2138 3103 
Q 1681 3103 1420 2742 
Q 1159 2381 1159 1747 
Q 1159 1113 1420 752 
Q 1681 391 2138 391 
Q 2594 391 2855 752 
Q 3116 1113 3116 1747 
z
" transform="scale(0.015625)"/>
     </defs>
     <use xlink:href="#DejaVuSans-74"/>
     <use xlink:href="#DejaVuSans-69" x="39.208984"/>
     <use xlink:href="#DejaVuSans-6d" x="66.992188"/>
     <use xlink:href="#DejaVuSans-65" x="164.404297"/>
     <use xlink:href="#DejaVuSans-5f" x="225.927734"/>
     <use xlink:href="#DejaVuSans-67" x="275.927734"/>
     <use xlink:href="#DejaVuSans-72" x="339.404297"/>
     <use xlink:href="#DejaVuSans-6f" x="378.267578"/>
     <use xlink:href="#DejaVuSans-75" x="439.449219"/>
     <use xlink:href="#DejaVuSans-70" x="502.828125"/>
    </g>
   </g>
   <g id="line2d_23">
    <path d="M 1437.196875 317.292969 
L 1447.196875 317.292969 
L 1457.196875 317.292969 
" style="fill: none; stroke: #1f77b4; stroke-width: 1.5; stroke-linecap: square"/>
   </g>
   <g id="text_19">
    <!-- 120_min -->
    <g transform="translate(1465.196875 320.792969)scale(0.1 -0.1)">
     <use xlink:href="#DejaVuSans-31"/>
     <use xlink:href="#DejaVuSans-32" x="63.623047"/>
     <use xlink:href="#DejaVuSans-30" x="127.246094"/>
     <use xlink:href="#DejaVuSans-5f" x="190.869141"/>
     <use xlink:href="#DejaVuSans-6d" x="240.869141"/>
     <use xlink:href="#DejaVuSans-69" x="338.28125"/>
     <use xlink:href="#DejaVuSans-6e" x="366.064453"/>
    </g>
   </g>
   <g id="line2d_24">
    <path d="M 1437.196875 332.249219 
L 1447.196875 332.249219 
L 1457.196875 332.249219 
" style="fill: none; stroke: #ff7f0e; stroke-width: 1.5; stroke-linecap: square"/>
   </g>
   <g id="text_20">
    <!-- 60_min -->
    <g transform="translate(1465.196875 335.749219)scale(0.1 -0.1)">
     <use xlink:href="#DejaVuSans-36"/>
     <use xlink:href="#DejaVuSans-30" x="63.623047"/>
     <use xlink:href="#DejaVuSans-5f" x="127.246094"/>
     <use xlink:href="#DejaVuSans-6d" x="177.246094"/>
     <use xlink:href="#DejaVuSans-69" x="274.658203"/>
     <use xlink:href="#DejaVuSans-6e" x="302.441406"/>
    </g>
   </g>
   <g id="line2d_25">
    <path d="M 1437.196875 347.205469 
L 1447.196875 347.205469 
L 1457.196875 347.205469 
" style="fill: none; stroke: #2ca02c; stroke-width: 1.5; stroke-linecap: square"/>
   </g>
   <g id="text_21">
    <!-- 180_min -->
    <g transform="translate(1465.196875 350.705469)scale(0.1 -0.1)">
     <defs>
      <path id="DejaVuSans-38" d="M 2034 2216 
Q 1584 2216 1326 1975 
Q 1069 1734 1069 1313 
Q 1069 891 1326 650 
Q 1584 409 2034 409 
Q 2484 409 2743 651 
Q 3003 894 3003 1313 
Q 3003 1734 2745 1975 
Q 2488 2216 2034 2216 
z
M 1403 2484 
Q 997 2584 770 2862 
Q 544 3141 544 3541 
Q 544 4100 942 4425 
Q 1341 4750 2034 4750 
Q 2731 4750 3128 4425 
Q 3525 4100 3525 3541 
Q 3525 3141 3298 2862 
Q 3072 2584 2669 2484 
Q 3125 2378 3379 2068 
Q 3634 1759 3634 1313 
Q 3634 634 3220 271 
Q 2806 -91 2034 -91 
Q 1263 -91 848 271 
Q 434 634 434 1313 
Q 434 1759 690 2068 
Q 947 2378 1403 2484 
z
M 1172 3481 
Q 1172 3119 1398 2916 
Q 1625 2713 2034 2713 
Q 2441 2713 2670 2916 
Q 2900 3119 2900 3481 
Q 2900 3844 2670 4047 
Q 2441 4250 2034 4250 
Q 1625 4250 1398 4047 
Q 1172 3844 1172 3481 
z
" transform="scale(0.015625)"/>
     </defs>
     <use xlink:href="#DejaVuSans-31"/>
     <use xlink:href="#DejaVuSans-38" x="63.623047"/>
     <use xlink:href="#DejaVuSans-30" x="127.246094"/>
     <use xlink:href="#DejaVuSans-5f" x="190.869141"/>
     <use xlink:href="#DejaVuSans-6d" x="240.869141"/>
     <use xlink:href="#DejaVuSans-69" x="338.28125"/>
     <use xlink:href="#DejaVuSans-6e" x="366.064453"/>
    </g>
   </g>
   <g id="line2d_26">
    <path d="M 1437.196875 362.161719 
L 1447.196875 362.161719 
L 1457.196875 362.161719 
" style="fill: none; stroke: #d62728; stroke-width: 1.5; stroke-linecap: square"/>
   </g>
   <g id="text_22">
    <!-- 20_min -->
    <g transform="translate(1465.196875 365.661719)scale(0.1 -0.1)">
     <use xlink:href="#DejaVuSans-32"/>
     <use xlink:href="#DejaVuSans-30" x="63.623047"/>
     <use xlink:href="#DejaVuSans-5f" x="127.246094"/>
     <use xlink:href="#DejaVuSans-6d" x="177.246094"/>
     <use xlink:href="#DejaVuSans-69" x="274.658203"/>
     <use xlink:href="#DejaVuSans-6e" x="302.441406"/>
    </g>
   </g>
   <g id="line2d_27">
    <path d="M 1437.196875 377.117969 
L 1447.196875 377.117969 
L 1457.196875 377.117969 
" style="fill: none; stroke: #9467bd; stroke-width: 1.5; stroke-linecap: square"/>
   </g>
   <g id="text_23">
    <!-- 270_min -->
    <g transform="translate(1465.196875 380.617969)scale(0.1 -0.1)">
     <use xlink:href="#DejaVuSans-32"/>
     <use xlink:href="#DejaVuSans-37" x="63.623047"/>
     <use xlink:href="#DejaVuSans-30" x="127.246094"/>
     <use xlink:href="#DejaVuSans-5f" x="190.869141"/>
     <use xlink:href="#DejaVuSans-6d" x="240.869141"/>
     <use xlink:href="#DejaVuSans-69" x="338.28125"/>
     <use xlink:href="#DejaVuSans-6e" x="366.064453"/>
    </g>
   </g>
   <g id="line2d_28">
    <path d="M 1437.196875 392.074219 
L 1447.196875 392.074219 
L 1457.196875 392.074219 
" style="fill: none; stroke: #8c564b; stroke-width: 1.5; stroke-linecap: square"/>
   </g>
   <g id="text_24">
    <!-- 10_min -->
    <g transform="translate(1465.196875 395.574219)scale(0.1 -0.1)">
     <use xlink:href="#DejaVuSans-31"/>
     <use xlink:href="#DejaVuSans-30" x="63.623047"/>
     <use xlink:href="#DejaVuSans-5f" x="127.246094"/>
     <use xlink:href="#DejaVuSans-6d" x="177.246094"/>
     <use xlink:href="#DejaVuSans-69" x="274.658203"/>
     <use xlink:href="#DejaVuSans-6e" x="302.441406"/>
    </g>
   </g>
   <g id="line2d_29">
    <path d="M 1437.196875 407.030469 
L 1447.196875 407.030469 
L 1457.196875 407.030469 
" style="fill: none; stroke: #e377c2; stroke-width: 1.5; stroke-linecap: square"/>
   </g>
   <g id="text_25">
    <!-- 30_min -->
    <g transform="translate(1465.196875 410.530469)scale(0.1 -0.1)">
     <use xlink:href="#DejaVuSans-33"/>
     <use xlink:href="#DejaVuSans-30" x="63.623047"/>
     <use xlink:href="#DejaVuSans-5f" x="127.246094"/>
     <use xlink:href="#DejaVuSans-6d" x="177.246094"/>
     <use xlink:href="#DejaVuSans-69" x="274.658203"/>
     <use xlink:href="#DejaVuSans-6e" x="302.441406"/>
    </g>
   </g>
  </g>
 </g>
 <defs>
  <clipPath id="pae44a9752f">
   <rect x="34.240625" y="17.798437" width="1375.83625" height="655.49375"/>
  </clipPath>
 </defs>
</svg>
