<?xml version="1.0" encoding="utf-8" standalone="no"?>
<!DOCTYPE svg PUBLIC "-//W3C//DTD SVG 1.1//EN"
  "http://www.w3.org/Graphics/SVG/1.1/DTD/svg11.dtd">
<svg xmlns:xlink="http://www.w3.org/1999/xlink" width="1517.50625pt" height="711.528125pt" viewBox="0 0 1517.50625 711.528125" xmlns="http://www.w3.org/2000/svg" version="1.1">
 <metadata>
  <rdf:RDF xmlns:dc="http://purl.org/dc/elements/1.1/" xmlns:cc="http://creativecommons.org/ns#" xmlns:rdf="http://www.w3.org/1999/02/22-rdf-syntax-ns#">
   <cc:Work>
    <dc:type rdf:resource="http://purl.org/dc/dcmitype/StillImage"/>
    <dc:date>2022-08-03T23:04:59.693907</dc:date>
    <dc:format>image/svg+xml</dc:format>
    <dc:creator>
     <cc:Agent>
      <dc:title>Matplotlib v3.5.2, https://matplotlib.org/</dc:title>
     </cc:Agent>
    </dc:creator>
   </cc:Work>
  </rdf:RDF>
 </metadata>
 <defs>
  <style type="text/css">*{stroke-linejoin: round; stroke-linecap: butt}</style>
 </defs>
 <g id="figure_1">
  <g id="patch_1">
   <path d="M 0 711.528125 
L 1517.50625 711.528125 
L 1517.50625 0 
L 0 0 
L 0 711.528125 
z
" style="fill: none"/>
  </g>
  <g id="axes_1">
   <g id="patch_2">
    <path d="M 69.23125 673.69375 
L 1410.4425 673.69375 
L 1410.4425 7.2 
L 69.23125 7.2 
z
" style="fill: #ffffff"/>
   </g>
   <g id="matplotlib.axis_1">
    <g id="xtick_1">
     <g id="line2d_1">
      <defs>
       <path id="m9cb84a2421" d="M 0 0 
L 0 3.5 
" style="stroke: #000000; stroke-width: 0.8"/>
      </defs>
      <g>
       <use xlink:href="#m9cb84a2421" x="162.850795" y="673.69375" style="stroke: #000000; stroke-width: 0.8"/>
      </g>
     </g>
     <g id="text_1">
      <!-- −5000 -->
      <g transform="translate(145.935951 688.292187)scale(0.1 -0.1)">
       <defs>
        <path id="DejaVuSans-2212" d="M 678 2272 
L 4684 2272 
L 4684 1741 
L 678 1741 
L 678 2272 
z
" transform="scale(0.015625)"/>
        <path id="DejaVuSans-35" d="M 691 4666 
L 3169 4666 
L 3169 4134 
L 1269 4134 
L 1269 2991 
Q 1406 3038 1543 3061 
Q 1681 3084 1819 3084 
Q 2600 3084 3056 2656 
Q 3513 2228 3513 1497 
Q 3513 744 3044 326 
Q 2575 -91 1722 -91 
Q 1428 -91 1123 -41 
Q 819 9 494 109 
L 494 744 
Q 775 591 1075 516 
Q 1375 441 1709 441 
Q 2250 441 2565 725 
Q 2881 1009 2881 1497 
Q 2881 1984 2565 2268 
Q 2250 2553 1709 2553 
Q 1456 2553 1204 2497 
Q 953 2441 691 2322 
L 691 4666 
z
" transform="scale(0.015625)"/>
        <path id="DejaVuSans-30" d="M 2034 4250 
Q 1547 4250 1301 3770 
Q 1056 3291 1056 2328 
Q 1056 1369 1301 889 
Q 1547 409 2034 409 
Q 2525 409 2770 889 
Q 3016 1369 3016 2328 
Q 3016 3291 2770 3770 
Q 2525 4250 2034 4250 
z
M 2034 4750 
Q 2819 4750 3233 4129 
Q 3647 3509 3647 2328 
Q 3647 1150 3233 529 
Q 2819 -91 2034 -91 
Q 1250 -91 836 529 
Q 422 1150 422 2328 
Q 422 3509 836 4129 
Q 1250 4750 2034 4750 
z
" transform="scale(0.015625)"/>
       </defs>
       <use xlink:href="#DejaVuSans-2212"/>
       <use xlink:href="#DejaVuSans-35" x="83.789062"/>
       <use xlink:href="#DejaVuSans-30" x="147.412109"/>
       <use xlink:href="#DejaVuSans-30" x="211.035156"/>
       <use xlink:href="#DejaVuSans-30" x="274.658203"/>
      </g>
     </g>
    </g>
    <g id="xtick_2">
     <g id="line2d_2">
      <g>
       <use xlink:href="#m9cb84a2421" x="457.411792" y="673.69375" style="stroke: #000000; stroke-width: 0.8"/>
      </g>
     </g>
     <g id="text_2">
      <!-- 0 -->
      <g transform="translate(454.230542 688.292187)scale(0.1 -0.1)">
       <use xlink:href="#DejaVuSans-30"/>
      </g>
     </g>
    </g>
    <g id="xtick_3">
     <g id="line2d_3">
      <g>
       <use xlink:href="#m9cb84a2421" x="751.972788" y="673.69375" style="stroke: #000000; stroke-width: 0.8"/>
      </g>
     </g>
     <g id="text_3">
      <!-- 5000 -->
      <g transform="translate(739.247788 688.292187)scale(0.1 -0.1)">
       <use xlink:href="#DejaVuSans-35"/>
       <use xlink:href="#DejaVuSans-30" x="63.623047"/>
       <use xlink:href="#DejaVuSans-30" x="127.246094"/>
       <use xlink:href="#DejaVuSans-30" x="190.869141"/>
      </g>
     </g>
    </g>
    <g id="xtick_4">
     <g id="line2d_4">
      <g>
       <use xlink:href="#m9cb84a2421" x="1046.533785" y="673.69375" style="stroke: #000000; stroke-width: 0.8"/>
      </g>
     </g>
     <g id="text_4">
      <!-- 10000 -->
      <g transform="translate(1030.627535 688.292187)scale(0.1 -0.1)">
       <defs>
        <path id="DejaVuSans-31" d="M 794 531 
L 1825 531 
L 1825 4091 
L 703 3866 
L 703 4441 
L 1819 4666 
L 2450 4666 
L 2450 531 
L 3481 531 
L 3481 0 
L 794 0 
L 794 531 
z
" transform="scale(0.015625)"/>
       </defs>
       <use xlink:href="#DejaVuSans-31"/>
       <use xlink:href="#DejaVuSans-30" x="63.623047"/>
       <use xlink:href="#DejaVuSans-30" x="127.246094"/>
       <use xlink:href="#DejaVuSans-30" x="190.869141"/>
       <use xlink:href="#DejaVuSans-30" x="254.492188"/>
      </g>
     </g>
    </g>
    <g id="xtick_5">
     <g id="line2d_5">
      <g>
       <use xlink:href="#m9cb84a2421" x="1341.094781" y="673.69375" style="stroke: #000000; stroke-width: 0.8"/>
      </g>
     </g>
     <g id="text_5">
      <!-- 15000 -->
      <g transform="translate(1325.188531 688.292187)scale(0.1 -0.1)">
       <use xlink:href="#DejaVuSans-31"/>
       <use xlink:href="#DejaVuSans-35" x="63.623047"/>
       <use xlink:href="#DejaVuSans-30" x="127.246094"/>
       <use xlink:href="#DejaVuSans-30" x="190.869141"/>
       <use xlink:href="#DejaVuSans-30" x="254.492188"/>
      </g>
     </g>
    </g>
    <g id="text_6">
     <!-- T_Pob_10_20 -->
     <g transform="translate(707.490781 701.970312)scale(0.1 -0.1)">
      <defs>
       <path id="DejaVuSans-54" d="M -19 4666 
L 3928 4666 
L 3928 4134 
L 2272 4134 
L 2272 0 
L 1638 0 
L 1638 4134 
L -19 4134 
L -19 4666 
z
" transform="scale(0.015625)"/>
       <path id="DejaVuSans-5f" d="M 3263 -1063 
L 3263 -1509 
L -63 -1509 
L -63 -1063 
L 3263 -1063 
z
" transform="scale(0.015625)"/>
       <path id="DejaVuSans-50" d="M 1259 4147 
L 1259 2394 
L 2053 2394 
Q 2494 2394 2734 2622 
Q 2975 2850 2975 3272 
Q 2975 3691 2734 3919 
Q 2494 4147 2053 4147 
L 1259 4147 
z
M 628 4666 
L 2053 4666 
Q 2838 4666 3239 4311 
Q 3641 3956 3641 3272 
Q 3641 2581 3239 2228 
Q 2838 1875 2053 1875 
L 1259 1875 
L 1259 0 
L 628 0 
L 628 4666 
z
" transform="scale(0.015625)"/>
       <path id="DejaVuSans-6f" d="M 1959 3097 
Q 1497 3097 1228 2736 
Q 959 2375 959 1747 
Q 959 1119 1226 758 
Q 1494 397 1959 397 
Q 2419 397 2687 759 
Q 2956 1122 2956 1747 
Q 2956 2369 2687 2733 
Q 2419 3097 1959 3097 
z
M 1959 3584 
Q 2709 3584 3137 3096 
Q 3566 2609 3566 1747 
Q 3566 888 3137 398 
Q 2709 -91 1959 -91 
Q 1206 -91 779 398 
Q 353 888 353 1747 
Q 353 2609 779 3096 
Q 1206 3584 1959 3584 
z
" transform="scale(0.015625)"/>
       <path id="DejaVuSans-62" d="M 3116 1747 
Q 3116 2381 2855 2742 
Q 2594 3103 2138 3103 
Q 1681 3103 1420 2742 
Q 1159 2381 1159 1747 
Q 1159 1113 1420 752 
Q 1681 391 2138 391 
Q 2594 391 2855 752 
Q 3116 1113 3116 1747 
z
M 1159 2969 
Q 1341 3281 1617 3432 
Q 1894 3584 2278 3584 
Q 2916 3584 3314 3078 
Q 3713 2572 3713 1747 
Q 3713 922 3314 415 
Q 2916 -91 2278 -91 
Q 1894 -91 1617 61 
Q 1341 213 1159 525 
L 1159 0 
L 581 0 
L 581 4863 
L 1159 4863 
L 1159 2969 
z
" transform="scale(0.015625)"/>
       <path id="DejaVuSans-32" d="M 1228 531 
L 3431 531 
L 3431 0 
L 469 0 
L 469 531 
Q 828 903 1448 1529 
Q 2069 2156 2228 2338 
Q 2531 2678 2651 2914 
Q 2772 3150 2772 3378 
Q 2772 3750 2511 3984 
Q 2250 4219 1831 4219 
Q 1534 4219 1204 4116 
Q 875 4013 500 3803 
L 500 4441 
Q 881 4594 1212 4672 
Q 1544 4750 1819 4750 
Q 2544 4750 2975 4387 
Q 3406 4025 3406 3419 
Q 3406 3131 3298 2873 
Q 3191 2616 2906 2266 
Q 2828 2175 2409 1742 
Q 1991 1309 1228 531 
z
" transform="scale(0.015625)"/>
      </defs>
      <use xlink:href="#DejaVuSans-54"/>
      <use xlink:href="#DejaVuSans-5f" x="61.083984"/>
      <use xlink:href="#DejaVuSans-50" x="111.083984"/>
      <use xlink:href="#DejaVuSans-6f" x="167.761719"/>
      <use xlink:href="#DejaVuSans-62" x="228.943359"/>
      <use xlink:href="#DejaVuSans-5f" x="292.419922"/>
      <use xlink:href="#DejaVuSans-31" x="342.419922"/>
      <use xlink:href="#DejaVuSans-30" x="406.042969"/>
      <use xlink:href="#DejaVuSans-5f" x="469.666016"/>
      <use xlink:href="#DejaVuSans-32" x="519.666016"/>
      <use xlink:href="#DejaVuSans-30" x="583.289062"/>
     </g>
    </g>
   </g>
   <g id="matplotlib.axis_2">
    <g id="ytick_1">
     <g id="line2d_6">
      <defs>
       <path id="mc546ffdcc0" d="M 0 0 
L -3.5 0 
" style="stroke: #000000; stroke-width: 0.8"/>
      </defs>
      <g>
       <use xlink:href="#mc546ffdcc0" x="69.23125" y="673.69375" style="stroke: #000000; stroke-width: 0.8"/>
      </g>
     </g>
     <g id="text_7">
      <!-- 0.00000 -->
      <g transform="translate(20.878125 677.492969)scale(0.1 -0.1)">
       <defs>
        <path id="DejaVuSans-2e" d="M 684 794 
L 1344 794 
L 1344 0 
L 684 0 
L 684 794 
z
" transform="scale(0.015625)"/>
       </defs>
       <use xlink:href="#DejaVuSans-30"/>
       <use xlink:href="#DejaVuSans-2e" x="63.623047"/>
       <use xlink:href="#DejaVuSans-30" x="95.410156"/>
       <use xlink:href="#DejaVuSans-30" x="159.033203"/>
       <use xlink:href="#DejaVuSans-30" x="222.65625"/>
       <use xlink:href="#DejaVuSans-30" x="286.279297"/>
       <use xlink:href="#DejaVuSans-30" x="349.902344"/>
      </g>
     </g>
    </g>
    <g id="ytick_2">
     <g id="line2d_7">
      <g>
       <use xlink:href="#mc546ffdcc0" x="69.23125" y="573.57814" style="stroke: #000000; stroke-width: 0.8"/>
      </g>
     </g>
     <g id="text_8">
      <!-- 0.00002 -->
      <g transform="translate(20.878125 577.377358)scale(0.1 -0.1)">
       <use xlink:href="#DejaVuSans-30"/>
       <use xlink:href="#DejaVuSans-2e" x="63.623047"/>
       <use xlink:href="#DejaVuSans-30" x="95.410156"/>
       <use xlink:href="#DejaVuSans-30" x="159.033203"/>
       <use xlink:href="#DejaVuSans-30" x="222.65625"/>
       <use xlink:href="#DejaVuSans-30" x="286.279297"/>
       <use xlink:href="#DejaVuSans-32" x="349.902344"/>
      </g>
     </g>
    </g>
    <g id="ytick_3">
     <g id="line2d_8">
      <g>
       <use xlink:href="#mc546ffdcc0" x="69.23125" y="473.462529" style="stroke: #000000; stroke-width: 0.8"/>
      </g>
     </g>
     <g id="text_9">
      <!-- 0.00004 -->
      <g transform="translate(20.878125 477.261748)scale(0.1 -0.1)">
       <defs>
        <path id="DejaVuSans-34" d="M 2419 4116 
L 825 1625 
L 2419 1625 
L 2419 4116 
z
M 2253 4666 
L 3047 4666 
L 3047 1625 
L 3713 1625 
L 3713 1100 
L 3047 1100 
L 3047 0 
L 2419 0 
L 2419 1100 
L 313 1100 
L 313 1709 
L 2253 4666 
z
" transform="scale(0.015625)"/>
       </defs>
       <use xlink:href="#DejaVuSans-30"/>
       <use xlink:href="#DejaVuSans-2e" x="63.623047"/>
       <use xlink:href="#DejaVuSans-30" x="95.410156"/>
       <use xlink:href="#DejaVuSans-30" x="159.033203"/>
       <use xlink:href="#DejaVuSans-30" x="222.65625"/>
       <use xlink:href="#DejaVuSans-30" x="286.279297"/>
       <use xlink:href="#DejaVuSans-34" x="349.902344"/>
      </g>
     </g>
    </g>
    <g id="ytick_4">
     <g id="line2d_9">
      <g>
       <use xlink:href="#mc546ffdcc0" x="69.23125" y="373.346919" style="stroke: #000000; stroke-width: 0.8"/>
      </g>
     </g>
     <g id="text_10">
      <!-- 0.00006 -->
      <g transform="translate(20.878125 377.146138)scale(0.1 -0.1)">
       <defs>
        <path id="DejaVuSans-36" d="M 2113 2584 
Q 1688 2584 1439 2293 
Q 1191 2003 1191 1497 
Q 1191 994 1439 701 
Q 1688 409 2113 409 
Q 2538 409 2786 701 
Q 3034 994 3034 1497 
Q 3034 2003 2786 2293 
Q 2538 2584 2113 2584 
z
M 3366 4563 
L 3366 3988 
Q 3128 4100 2886 4159 
Q 2644 4219 2406 4219 
Q 1781 4219 1451 3797 
Q 1122 3375 1075 2522 
Q 1259 2794 1537 2939 
Q 1816 3084 2150 3084 
Q 2853 3084 3261 2657 
Q 3669 2231 3669 1497 
Q 3669 778 3244 343 
Q 2819 -91 2113 -91 
Q 1303 -91 875 529 
Q 447 1150 447 2328 
Q 447 3434 972 4092 
Q 1497 4750 2381 4750 
Q 2619 4750 2861 4703 
Q 3103 4656 3366 4563 
z
" transform="scale(0.015625)"/>
       </defs>
       <use xlink:href="#DejaVuSans-30"/>
       <use xlink:href="#DejaVuSans-2e" x="63.623047"/>
       <use xlink:href="#DejaVuSans-30" x="95.410156"/>
       <use xlink:href="#DejaVuSans-30" x="159.033203"/>
       <use xlink:href="#DejaVuSans-30" x="222.65625"/>
       <use xlink:href="#DejaVuSans-30" x="286.279297"/>
       <use xlink:href="#DejaVuSans-36" x="349.902344"/>
      </g>
     </g>
    </g>
    <g id="ytick_5">
     <g id="line2d_10">
      <g>
       <use xlink:href="#mc546ffdcc0" x="69.23125" y="273.231308" style="stroke: #000000; stroke-width: 0.8"/>
      </g>
     </g>
     <g id="text_11">
      <!-- 0.00008 -->
      <g transform="translate(20.878125 277.030527)scale(0.1 -0.1)">
       <defs>
        <path id="DejaVuSans-38" d="M 2034 2216 
Q 1584 2216 1326 1975 
Q 1069 1734 1069 1313 
Q 1069 891 1326 650 
Q 1584 409 2034 409 
Q 2484 409 2743 651 
Q 3003 894 3003 1313 
Q 3003 1734 2745 1975 
Q 2488 2216 2034 2216 
z
M 1403 2484 
Q 997 2584 770 2862 
Q 544 3141 544 3541 
Q 544 4100 942 4425 
Q 1341 4750 2034 4750 
Q 2731 4750 3128 4425 
Q 3525 4100 3525 3541 
Q 3525 3141 3298 2862 
Q 3072 2584 2669 2484 
Q 3125 2378 3379 2068 
Q 3634 1759 3634 1313 
Q 3634 634 3220 271 
Q 2806 -91 2034 -91 
Q 1263 -91 848 271 
Q 434 634 434 1313 
Q 434 1759 690 2068 
Q 947 2378 1403 2484 
z
M 1172 3481 
Q 1172 3119 1398 2916 
Q 1625 2713 2034 2713 
Q 2441 2713 2670 2916 
Q 2900 3119 2900 3481 
Q 2900 3844 2670 4047 
Q 2441 4250 2034 4250 
Q 1625 4250 1398 4047 
Q 1172 3844 1172 3481 
z
" transform="scale(0.015625)"/>
       </defs>
       <use xlink:href="#DejaVuSans-30"/>
       <use xlink:href="#DejaVuSans-2e" x="63.623047"/>
       <use xlink:href="#DejaVuSans-30" x="95.410156"/>
       <use xlink:href="#DejaVuSans-30" x="159.033203"/>
       <use xlink:href="#DejaVuSans-30" x="222.65625"/>
       <use xlink:href="#DejaVuSans-30" x="286.279297"/>
       <use xlink:href="#DejaVuSans-38" x="349.902344"/>
      </g>
     </g>
    </g>
    <g id="ytick_6">
     <g id="line2d_11">
      <g>
       <use xlink:href="#mc546ffdcc0" x="69.23125" y="173.115698" style="stroke: #000000; stroke-width: 0.8"/>
      </g>
     </g>
     <g id="text_12">
      <!-- 0.00010 -->
      <g transform="translate(20.878125 176.914917)scale(0.1 -0.1)">
       <use xlink:href="#DejaVuSans-30"/>
       <use xlink:href="#DejaVuSans-2e" x="63.623047"/>
       <use xlink:href="#DejaVuSans-30" x="95.410156"/>
       <use xlink:href="#DejaVuSans-30" x="159.033203"/>
       <use xlink:href="#DejaVuSans-30" x="222.65625"/>
       <use xlink:href="#DejaVuSans-31" x="286.279297"/>
       <use xlink:href="#DejaVuSans-30" x="349.902344"/>
      </g>
     </g>
    </g>
    <g id="ytick_7">
     <g id="line2d_12">
      <g>
       <use xlink:href="#mc546ffdcc0" x="69.23125" y="73.000088" style="stroke: #000000; stroke-width: 0.8"/>
      </g>
     </g>
     <g id="text_13">
      <!-- 0.00012 -->
      <g transform="translate(20.878125 76.799306)scale(0.1 -0.1)">
       <use xlink:href="#DejaVuSans-30"/>
       <use xlink:href="#DejaVuSans-2e" x="63.623047"/>
       <use xlink:href="#DejaVuSans-30" x="95.410156"/>
       <use xlink:href="#DejaVuSans-30" x="159.033203"/>
       <use xlink:href="#DejaVuSans-30" x="222.65625"/>
       <use xlink:href="#DejaVuSans-31" x="286.279297"/>
       <use xlink:href="#DejaVuSans-32" x="349.902344"/>
      </g>
     </g>
    </g>
    <g id="text_14">
     <!-- Density -->
     <g transform="translate(14.798438 359.455469)rotate(-90)scale(0.1 -0.1)">
      <defs>
       <path id="DejaVuSans-44" d="M 1259 4147 
L 1259 519 
L 2022 519 
Q 2988 519 3436 956 
Q 3884 1394 3884 2338 
Q 3884 3275 3436 3711 
Q 2988 4147 2022 4147 
L 1259 4147 
z
M 628 4666 
L 1925 4666 
Q 3281 4666 3915 4102 
Q 4550 3538 4550 2338 
Q 4550 1131 3912 565 
Q 3275 0 1925 0 
L 628 0 
L 628 4666 
z
" transform="scale(0.015625)"/>
       <path id="DejaVuSans-65" d="M 3597 1894 
L 3597 1613 
L 953 1613 
Q 991 1019 1311 708 
Q 1631 397 2203 397 
Q 2534 397 2845 478 
Q 3156 559 3463 722 
L 3463 178 
Q 3153 47 2828 -22 
Q 2503 -91 2169 -91 
Q 1331 -91 842 396 
Q 353 884 353 1716 
Q 353 2575 817 3079 
Q 1281 3584 2069 3584 
Q 2775 3584 3186 3129 
Q 3597 2675 3597 1894 
z
M 3022 2063 
Q 3016 2534 2758 2815 
Q 2500 3097 2075 3097 
Q 1594 3097 1305 2825 
Q 1016 2553 972 2059 
L 3022 2063 
z
" transform="scale(0.015625)"/>
       <path id="DejaVuSans-6e" d="M 3513 2113 
L 3513 0 
L 2938 0 
L 2938 2094 
Q 2938 2591 2744 2837 
Q 2550 3084 2163 3084 
Q 1697 3084 1428 2787 
Q 1159 2491 1159 1978 
L 1159 0 
L 581 0 
L 581 3500 
L 1159 3500 
L 1159 2956 
Q 1366 3272 1645 3428 
Q 1925 3584 2291 3584 
Q 2894 3584 3203 3211 
Q 3513 2838 3513 2113 
z
" transform="scale(0.015625)"/>
       <path id="DejaVuSans-73" d="M 2834 3397 
L 2834 2853 
Q 2591 2978 2328 3040 
Q 2066 3103 1784 3103 
Q 1356 3103 1142 2972 
Q 928 2841 928 2578 
Q 928 2378 1081 2264 
Q 1234 2150 1697 2047 
L 1894 2003 
Q 2506 1872 2764 1633 
Q 3022 1394 3022 966 
Q 3022 478 2636 193 
Q 2250 -91 1575 -91 
Q 1294 -91 989 -36 
Q 684 19 347 128 
L 347 722 
Q 666 556 975 473 
Q 1284 391 1588 391 
Q 1994 391 2212 530 
Q 2431 669 2431 922 
Q 2431 1156 2273 1281 
Q 2116 1406 1581 1522 
L 1381 1569 
Q 847 1681 609 1914 
Q 372 2147 372 2553 
Q 372 3047 722 3315 
Q 1072 3584 1716 3584 
Q 2034 3584 2315 3537 
Q 2597 3491 2834 3397 
z
" transform="scale(0.015625)"/>
       <path id="DejaVuSans-69" d="M 603 3500 
L 1178 3500 
L 1178 0 
L 603 0 
L 603 3500 
z
M 603 4863 
L 1178 4863 
L 1178 4134 
L 603 4134 
L 603 4863 
z
" transform="scale(0.015625)"/>
       <path id="DejaVuSans-74" d="M 1172 4494 
L 1172 3500 
L 2356 3500 
L 2356 3053 
L 1172 3053 
L 1172 1153 
Q 1172 725 1289 603 
Q 1406 481 1766 481 
L 2356 481 
L 2356 0 
L 1766 0 
Q 1100 0 847 248 
Q 594 497 594 1153 
L 594 3053 
L 172 3053 
L 172 3500 
L 594 3500 
L 594 4494 
L 1172 4494 
z
" transform="scale(0.015625)"/>
       <path id="DejaVuSans-79" d="M 2059 -325 
Q 1816 -950 1584 -1140 
Q 1353 -1331 966 -1331 
L 506 -1331 
L 506 -850 
L 844 -850 
Q 1081 -850 1212 -737 
Q 1344 -625 1503 -206 
L 1606 56 
L 191 3500 
L 800 3500 
L 1894 763 
L 2988 3500 
L 3597 3500 
L 2059 -325 
z
" transform="scale(0.015625)"/>
      </defs>
      <use xlink:href="#DejaVuSans-44"/>
      <use xlink:href="#DejaVuSans-65" x="77.001953"/>
      <use xlink:href="#DejaVuSans-6e" x="138.525391"/>
      <use xlink:href="#DejaVuSans-73" x="201.904297"/>
      <use xlink:href="#DejaVuSans-69" x="254.003906"/>
      <use xlink:href="#DejaVuSans-74" x="281.787109"/>
      <use xlink:href="#DejaVuSans-79" x="320.996094"/>
     </g>
    </g>
   </g>
   <g id="line2d_13">
    <path d="M 297.96136 673.39998 
L 302.396787 673.041953 
L 305.353739 672.630739 
L 308.31069 672.017296 
L 311.267641 671.13656 
L 314.224592 669.92007 
L 317.181544 668.304328 
L 320.138495 666.241655 
L 323.095446 663.712023 
L 326.052397 660.73344 
L 329.009349 657.368123 
L 333.444776 651.836904 
L 339.358678 644.350836 
L 342.315629 640.917068 
L 345.272581 637.863136 
L 348.229532 635.266007 
L 351.186483 633.148609 
L 354.143434 631.477557 
L 357.100386 630.164739 
L 365.97124 626.715377 
L 367.449715 625.900861 
L 368.928191 624.917237 
L 370.406666 623.71965 
L 371.885142 622.260384 
L 373.363618 620.489128 
L 374.842093 618.353278 
L 376.320569 615.798261 
L 377.799045 612.767834 
L 379.27752 609.204348 
L 380.755996 605.048934 
L 382.234471 600.241621 
L 383.712947 594.721379 
L 385.191423 588.426131 
L 386.669898 581.29278 
L 388.148374 573.25734 
L 389.62685 564.255246 
L 391.105325 554.221982 
L 392.583801 543.094099 
L 394.062277 530.810744 
L 395.540752 517.315763 
L 397.019228 502.560405 
L 398.497703 486.506615 
L 399.976179 469.130846 
L 402.93313 430.416986 
L 405.890082 386.681975 
L 408.847033 338.683759 
L 413.28246 261.774871 
L 417.717887 185.260236 
L 420.674838 138.739627 
L 422.153314 117.827335 
L 423.631789 98.893886 
L 425.110265 82.212563 
L 426.58874 68.016546 
L 428.067216 56.491748 
L 429.545692 47.77154 
L 431.024167 41.933639 
L 432.502643 38.999293 
L 433.981119 38.93476 
L 435.459594 41.65493 
L 436.93807 47.028819 
L 438.416545 54.886556 
L 439.895021 65.027416 
L 441.373497 77.228393 
L 442.851972 91.252836 
L 444.330448 106.858659 
L 447.287399 141.862241 
L 450.244351 180.445449 
L 456.158253 262.503589 
L 462.072156 344.205175 
L 466.507583 401.934024 
L 469.464534 437.80812 
L 472.421485 471.130289 
L 475.378436 501.579554 
L 478.335388 528.915879 
L 481.292339 552.991184 
L 482.770814 563.785724 
L 484.24929 573.752255 
L 485.727766 582.898032 
L 487.206241 591.235255 
L 488.684717 598.780706 
L 490.163193 605.555418 
L 491.641668 611.584399 
L 493.120144 616.896396 
L 494.59862 621.523706 
L 496.077095 625.502009 
L 497.555571 628.870186 
L 499.034046 631.670099 
L 500.512522 633.946296 
L 501.990998 635.745612 
L 503.469473 637.116659 
L 504.947949 638.10919 
L 506.426425 638.773357 
L 507.9049 639.15888 
L 509.383376 639.314172 
L 510.861851 639.285461 
L 513.818803 638.845176 
L 518.25423 637.75351 
L 522.689657 636.735709 
L 525.646608 636.285483 
L 528.603559 636.081526 
L 531.56051 636.15828 
L 534.517462 636.553706 
L 537.474413 637.317268 
L 540.431364 638.505115 
L 543.388315 640.165044 
L 546.345267 642.317216 
L 549.302218 644.937792 
L 552.259169 647.951464 
L 556.694596 652.931654 
L 562.608499 659.595663 
L 565.56545 662.597436 
L 568.522401 665.233207 
L 571.479352 667.448567 
L 574.436304 669.232945 
L 577.393255 670.611643 
L 580.350206 671.634384 
L 583.307157 672.363342 
L 586.264109 672.86287 
L 590.699536 673.308972 
L 592.178011 673.401082 
L 592.178011 673.401082 
" clip-path="url(#p26173ef2c1)" style="fill: none; stroke: #e377c2; stroke-width: 1.5; stroke-linecap: square"/>
   </g>
   <g id="line2d_14">
    <path d="M 205.689788 673.497754 
L 214.291166 673.151135 
L 220.7422 672.624614 
L 225.042889 672.080442 
L 229.343578 671.337218 
L 233.644267 670.361652 
L 237.944957 669.13258 
L 242.245646 667.648867 
L 246.546335 665.936428 
L 252.997368 663.072426 
L 261.598747 659.223859 
L 265.899436 657.555571 
L 270.200125 656.205047 
L 274.500814 655.243889 
L 278.801503 654.694346 
L 283.102192 654.522525 
L 287.402881 654.641591 
L 300.304949 655.403772 
L 304.605638 655.338769 
L 308.906327 654.948625 
L 313.207016 654.185724 
L 317.507705 653.02388 
L 321.808394 651.433751 
L 323.958739 650.460633 
L 326.109084 649.352729 
L 328.259428 648.092378 
L 330.409773 646.656819 
L 332.560117 645.017987 
L 334.710462 643.142621 
L 336.860806 640.992711 
L 339.011151 638.526291 
L 341.161495 635.698562 
L 343.31184 632.463311 
L 345.462185 628.774582 
L 347.612529 624.58851 
L 349.762874 619.86525 
L 351.913218 614.570896 
L 354.063563 608.679277 
L 356.213907 602.173545 
L 358.364252 595.047438 
L 360.514596 587.306141 
L 362.664941 578.966681 
L 364.815286 570.057794 
L 369.115975 550.700787 
L 373.416664 529.661796 
L 377.717353 507.464789 
L 394.920109 417.032117 
L 399.220799 395.701903 
L 403.521488 375.258051 
L 407.822177 355.890102 
L 412.122866 337.911101 
L 414.27321 329.587308 
L 416.423555 321.807715 
L 418.5739 314.660719 
L 420.724244 308.242837 
L 422.874589 302.655799 
L 425.024933 298.002986 
L 427.175278 294.385393 
L 429.325622 291.89735 
L 431.475967 290.622222 
L 433.626311 290.628352 
L 435.776656 291.965444 
L 437.927001 294.661625 
L 440.077345 298.721306 
L 442.22769 304.123991 
L 444.378034 310.82407 
L 446.528379 318.751601 
L 448.678723 327.81404 
L 450.829068 337.89882 
L 452.979413 348.876625 
L 457.280102 372.933593 
L 461.580791 398.767914 
L 470.182169 451.005475 
L 474.482858 475.418715 
L 478.783547 497.775916 
L 480.933892 508.065321 
L 483.084236 517.732163 
L 485.234581 526.772699 
L 487.384925 535.195967 
L 489.53527 543.021772 
L 491.685615 550.278557 
L 493.835959 557.001245 
L 495.986304 563.229148 
L 498.136648 569.003998 
L 500.286993 574.368181 
L 502.437337 579.363197 
L 504.587682 584.028397 
L 506.738027 588.399993 
L 511.038716 596.387643 
L 515.339405 603.533395 
L 519.640094 609.976546 
L 523.940783 615.799053 
L 528.241472 621.043968 
L 532.542161 625.736746 
L 536.84285 629.904882 
L 541.143539 633.592306 
L 545.444229 636.866254 
L 549.744918 639.815888 
L 556.195951 643.856502 
L 575.549052 655.638165 
L 584.150431 660.858299 
L 588.45112 663.265637 
L 592.751809 665.447116 
L 597.052498 667.353964 
L 601.353187 668.960384 
L 605.653876 670.264258 
L 609.954565 671.283866 
L 614.255254 672.05214 
L 618.555944 672.610076 
L 625.006977 673.146097 
L 631.458011 673.4362 
L 633.608356 673.49666 
L 633.608356 673.49666 
" clip-path="url(#p26173ef2c1)" style="fill: none; stroke: #8c564b; stroke-width: 1.5; stroke-linecap: square"/>
   </g>
   <g id="line2d_15">
    <path d="M 241.388356 673.290439 
L 249.75958 672.863793 
L 255.340396 672.390793 
L 260.921212 671.696307 
L 266.502028 670.702767 
L 272.082844 669.317592 
L 274.873252 668.445549 
L 277.66366 667.43516 
L 280.454068 666.271848 
L 283.244476 664.94084 
L 286.034884 663.427409 
L 288.825292 661.717136 
L 291.6157 659.796195 
L 294.406108 657.651642 
L 297.196516 655.271713 
L 299.986924 652.646111 
L 302.777332 649.766275 
L 305.56774 646.625623 
L 308.358148 643.219762 
L 311.148556 639.546643 
L 313.938964 635.606676 
L 316.729372 631.40278 
L 319.51978 626.940377 
L 322.310188 622.227328 
L 325.100596 617.273802 
L 330.681412 606.696438 
L 336.262228 595.327897 
L 341.843044 583.308868 
L 347.42386 570.790594 
L 355.795084 551.404962 
L 380.908756 492.646203 
L 389.27998 473.796575 
L 394.860796 461.660209 
L 400.441612 450.022215 
L 406.022428 439.08471 
L 408.812836 433.962318 
L 411.603244 429.125131 
L 414.393652 424.619468 
L 417.18406 420.495393 
L 419.974468 416.805787 
L 422.764876 413.605162 
L 425.555284 410.948228 
L 428.345692 408.888283 
L 431.1361 407.475458 
L 433.926508 406.754896 
L 436.716916 406.764946 
L 439.507324 407.535446 
L 442.297732 409.086179 
L 445.08814 411.425595 
L 447.878548 414.549842 
L 450.668956 418.442197 
L 453.459364 423.072907 
L 456.249772 428.399489 
L 459.04018 434.367466 
L 461.830588 440.911548 
L 464.620996 447.957183 
L 467.411404 455.422453 
L 472.99222 471.260446 
L 486.94426 512.040573 
L 492.525076 527.225837 
L 495.315484 534.357232 
L 498.105892 541.140334 
L 500.8963 547.558726 
L 503.686708 553.606781 
L 506.477116 559.288813 
L 509.267524 564.617937 
L 512.057932 569.614714 
L 514.84834 574.305634 
L 517.638748 578.721522 
L 520.429156 582.895922 
L 526.009972 590.658702 
L 531.590788 597.859912 
L 539.962012 608.078768 
L 551.123644 621.220894 
L 559.494868 630.722652 
L 565.075684 636.726197 
L 570.6565 642.315504 
L 576.237316 647.360097 
L 579.027724 649.64183 
L 581.818132 651.747273 
L 584.60854 653.667169 
L 587.398948 655.394631 
L 590.189356 656.92523 
L 592.979764 658.257012 
L 595.770172 659.390452 
L 598.56058 660.328358 
L 601.350988 661.075722 
L 604.141396 661.639551 
L 606.931804 662.028665 
L 609.722212 662.253481 
L 612.51262 662.32579 
L 615.303028 662.258525 
L 620.883844 661.761368 
L 626.46466 660.879837 
L 632.045476 659.736147 
L 651.578332 655.335215 
L 657.159148 654.367974 
L 662.739964 653.66388 
L 668.32078 653.26759 
L 673.901596 653.205578 
L 679.482412 653.48651 
L 685.063228 654.102013 
L 690.644044 655.027813 
L 696.22486 656.225366 
L 701.805676 657.644127 
L 710.1769 660.05529 
L 729.709756 665.88097 
L 738.08098 668.017641 
L 743.661796 669.234165 
L 749.242612 670.269927 
L 754.823428 671.126119 
L 760.404244 671.813525 
L 768.775468 672.567713 
L 777.146692 673.05553 
L 788.308324 673.419285 
L 796.679548 673.557272 
L 796.679548 673.557272 
" clip-path="url(#p26173ef2c1)" style="fill: none; stroke: #9467bd; stroke-width: 1.5; stroke-linecap: square"/>
   </g>
   <g id="line2d_16">
    <path d="M 200.532455 673.545874 
L 220.294687 673.295091 
L 235.116362 672.898108 
L 244.997478 672.462368 
L 254.878595 671.822835 
L 264.759711 670.901564 
L 274.640827 669.598558 
L 279.581386 668.765887 
L 284.521944 667.788859 
L 289.462502 666.64768 
L 294.40306 665.32091 
L 299.343618 663.785549 
L 304.284176 662.017204 
L 309.224735 659.990322 
L 314.165293 657.678514 
L 319.105851 655.054985 
L 324.046409 652.093055 
L 328.986967 648.766796 
L 333.927526 645.051774 
L 338.868084 640.925896 
L 343.808642 636.37034 
L 348.7492 631.370564 
L 353.689758 625.917359 
L 358.630316 620.007913 
L 363.570875 613.646857 
L 368.511433 606.847234 
L 373.451991 599.631361 
L 378.392549 592.031515 
L 383.333107 584.090403 
L 388.273666 575.861375 
L 398.154782 558.805237 
L 412.976456 532.96825 
L 417.917015 524.671933 
L 422.857573 516.707093 
L 427.798131 509.179735 
L 432.738689 502.193727 
L 437.679247 495.848243 
L 442.619806 490.235232 
L 447.560364 485.437006 
L 452.500922 481.524038 
L 457.44148 478.553062 
L 462.382038 476.565553 
L 467.322596 475.586635 
L 472.263155 475.624469 
L 477.203713 476.670142 
L 482.144271 478.698053 
L 487.084829 481.666782 
L 492.025387 485.520386 
L 496.965945 490.190088 
L 501.906504 495.596256 
L 506.847062 501.650623 
L 511.78762 508.258629 
L 516.728178 515.321815 
L 521.668736 522.74018 
L 531.549853 538.247945 
L 546.371527 561.815716 
L 551.312085 569.432742 
L 556.252644 576.820277 
L 561.193202 583.925673 
L 566.13376 590.705342 
L 571.074318 597.124529 
L 576.014876 603.156873 
L 580.955435 608.783831 
L 585.895993 613.993976 
L 590.836551 618.782226 
L 595.777109 623.149048 
L 600.717667 627.099663 
L 605.658225 630.64328 
L 610.598784 633.792397 
L 615.539342 636.56216 
L 620.4799 638.969817 
L 625.420458 641.034259 
L 630.361016 642.775634 
L 635.301575 644.215063 
L 640.242133 645.374405 
L 645.182691 646.276095 
L 650.123249 646.943019 
L 655.063807 647.398417 
L 660.004365 647.665806 
L 664.944924 647.76889 
L 669.885482 647.731472 
L 679.766598 647.330073 
L 689.647714 646.648719 
L 709.409947 645.141212 
L 719.291064 644.611972 
L 729.17218 644.380651 
L 739.053296 644.512181 
L 748.934413 645.031802 
L 758.815529 645.927505 
L 768.696645 647.156294 
L 778.577762 648.653271 
L 793.399436 651.233725 
L 832.923902 658.425543 
L 847.745576 660.788392 
L 862.567251 662.840622 
L 872.448367 664.013087 
L 882.329483 665.014649 
L 892.2106 665.83456 
L 902.091716 666.46546 
L 911.972833 666.906121 
L 921.853949 667.164179 
L 936.675623 667.252357 
L 951.497298 667.082637 
L 986.081205 666.557234 
L 1000.90288 666.631534 
L 1015.724554 667.005904 
L 1030.546229 667.669967 
L 1050.308462 668.874484 
L 1084.892369 671.128072 
L 1104.654602 672.137417 
L 1119.476276 672.693434 
L 1139.238509 673.186464 
L 1163.9413 673.50581 
L 1183.703532 673.618083 
L 1183.703532 673.618083 
" clip-path="url(#p26173ef2c1)" style="fill: none; stroke: #d62728; stroke-width: 1.5; stroke-linecap: square"/>
   </g>
   <g id="line2d_17">
    <path d="M 174.125346 673.558953 
L 188.830591 673.34687 
L 199.859525 673.026476 
L 210.888459 672.46756 
L 218.241082 671.899336 
L 225.593705 671.118486 
L 232.946328 670.067858 
L 240.29895 668.683388 
L 247.651573 666.896122 
L 251.327884 665.829271 
L 255.004196 664.635208 
L 258.680507 663.305428 
L 262.356819 661.831841 
L 266.03313 660.20694 
L 269.709441 658.423962 
L 273.385753 656.477055 
L 277.062064 654.36145 
L 280.738375 652.073609 
L 284.414687 649.611385 
L 288.090998 646.974145 
L 291.767309 644.162891 
L 295.443621 641.180345 
L 299.119932 638.031013 
L 302.796244 634.721217 
L 310.148866 627.654533 
L 317.501489 620.066086 
L 324.854112 612.066541 
L 335.883046 599.584135 
L 350.588291 582.786667 
L 357.940914 574.628276 
L 365.293537 566.781318 
L 372.64616 559.32665 
L 379.998782 552.314785 
L 387.351405 545.766794 
L 394.704028 539.679212 
L 402.05665 534.032407 
L 409.409273 528.801241 
L 416.761896 523.966487 
L 424.114519 519.52523 
L 431.467141 515.498689 
L 435.143453 513.655254 
L 438.819764 511.936278 
L 442.496075 510.352299 
L 446.172387 508.915354 
L 449.848698 507.638743 
L 453.52501 506.536758 
L 457.201321 505.624361 
L 460.877632 504.916843 
L 464.553944 504.42946 
L 468.230255 504.177063 
L 471.906566 504.173724 
L 475.582878 504.432378 
L 479.259189 504.964477 
L 482.935501 505.779672 
L 486.611812 506.885523 
L 490.288123 508.287244 
L 493.964435 509.987489 
L 497.640746 511.98618 
L 501.317057 514.280384 
L 504.993369 516.864234 
L 508.66968 519.728912 
L 512.345991 522.86267 
L 516.022303 526.250916 
L 519.698614 529.876351 
L 523.374926 533.719151 
L 527.051237 537.757204 
L 534.40386 546.32092 
L 541.756482 555.356521 
L 563.814351 583.038257 
L 571.166973 591.745968 
L 578.519596 599.899756 
L 582.195907 603.729435 
L 585.872219 607.378653 
L 589.54853 610.839166 
L 593.224842 614.105507 
L 596.901153 617.174915 
L 600.577464 620.047205 
L 604.253776 622.724593 
L 607.930087 625.211479 
L 611.606398 627.514194 
L 615.28271 629.640712 
L 618.959021 631.600344 
L 622.635332 633.403423 
L 626.311644 635.060977 
L 629.987955 636.584407 
L 637.340578 639.274604 
L 644.693201 641.561902 
L 652.045823 643.523918 
L 659.398446 645.223548 
L 666.751069 646.707632 
L 674.103692 648.008568 
L 685.132626 649.662806 
L 696.16156 651.009781 
L 707.190494 652.116289 
L 743.953608 655.506739 
L 754.982542 656.901762 
L 766.011476 658.586895 
L 777.04041 660.526044 
L 817.479835 667.992556 
L 828.508769 669.597534 
L 839.537703 670.886203 
L 850.566637 671.86028 
L 861.595571 672.554049 
L 872.624505 673.019969 
L 887.329751 673.384896 
L 905.711308 673.591368 
L 905.711308 673.591368 
" clip-path="url(#p26173ef2c1)" style="fill: none; stroke: #2ca02c; stroke-width: 1.5; stroke-linecap: square"/>
   </g>
   <g id="line2d_18">
    <path d="M 130.195398 673.62317 
L 166.957698 673.387516 
L 185.338848 673.099769 
L 203.719998 672.588829 
L 215.974098 672.057156 
L 228.228198 671.30628 
L 240.482298 670.25965 
L 246.609348 669.595693 
L 252.736398 668.819109 
L 258.863448 667.913716 
L 264.990498 666.861653 
L 271.117548 665.643389 
L 277.244598 664.237796 
L 283.371648 662.622295 
L 289.498698 660.773101 
L 295.625748 658.665569 
L 301.752798 656.274651 
L 307.879848 653.575486 
L 314.006898 650.544105 
L 320.133948 647.158259 
L 326.260998 643.398351 
L 332.388048 639.248461 
L 338.515099 634.697424 
L 344.642149 629.739927 
L 350.769199 624.377588 
L 356.896249 618.619959 
L 363.023299 612.4854 
L 369.150349 606.001763 
L 375.277399 599.206853 
L 381.404449 592.14858 
L 393.658549 577.482812 
L 412.039699 555.240534 
L 418.166749 548.108352 
L 424.293799 541.272346 
L 430.420849 534.825947 
L 436.547899 528.85944 
L 442.674949 523.457548 
L 448.801999 518.697108 
L 454.929049 514.644954 
L 461.056099 511.356077 
L 467.183149 508.872151 
L 473.310199 507.220478 
L 479.437249 506.413401 
L 485.564299 506.448196 
L 491.691349 507.307451 
L 497.818399 508.959895 
L 503.945449 511.361642 
L 510.072499 514.457784 
L 516.199549 518.184252 
L 522.326599 522.469875 
L 528.453649 527.238533 
L 534.580699 532.411324 
L 540.707749 537.908662 
L 546.834799 543.652232 
L 559.088899 555.5814 
L 577.470049 573.609622 
L 583.597099 579.443538 
L 589.724149 585.123378 
L 595.851199 590.620549 
L 601.978249 595.913468 
L 608.1053 600.986998 
L 614.23235 605.83177 
L 620.3594 610.443417 
L 626.48645 614.821784 
L 632.6135 618.970112 
L 638.74055 622.894266 
L 644.8676 626.602001 
L 650.99465 630.102304 
L 657.1217 633.404814 
L 663.24875 636.519339 
L 669.3758 639.455459 
L 675.50285 642.222235 
L 681.6299 644.827997 
L 687.75695 647.280219 
L 693.884 649.585467 
L 700.01105 651.749404 
L 706.1381 653.77685 
L 712.26515 655.671874 
L 718.3922 657.437908 
L 724.51925 659.07788 
L 730.6463 660.594343 
L 736.77335 661.989602 
L 742.9004 663.265824 
L 749.02745 664.425136 
L 761.28155 666.401761 
L 773.53565 667.938025 
L 785.78975 669.054673 
L 798.04385 669.774839 
L 810.29795 670.124073 
L 822.55205 670.130774 
L 834.80615 669.827341 
L 847.06025 669.25202 
L 859.31435 668.451016 
L 877.695501 666.951233 
L 914.457801 663.758996 
L 926.711901 662.917548 
L 938.966001 662.297157 
L 951.220101 661.937499 
L 963.474201 661.852713 
L 975.728301 662.029473 
L 987.982401 662.428916 
L 1006.363551 663.313881 
L 1043.125851 665.263066 
L 1061.507001 665.977674 
L 1079.888151 666.451242 
L 1116.650451 667.033375 
L 1141.158651 667.560829 
L 1159.539802 668.167837 
L 1184.048002 669.237419 
L 1239.191452 671.803239 
L 1263.699652 672.611595 
L 1288.207852 673.139487 
L 1312.716052 673.439875 
L 1349.478352 673.629956 
L 1349.478352 673.629956 
" clip-path="url(#p26173ef2c1)" style="fill: none; stroke: #ff7f0e; stroke-width: 1.5; stroke-linecap: square"/>
   </g>
   <g id="line2d_19">
    <path d="M 213.849734 673.478248 
L 227.352451 673.218342 
L 240.855168 672.703224 
L 249.856979 672.127346 
L 258.85879 671.276181 
L 267.860601 670.050288 
L 272.361507 669.259909 
L 276.862413 668.32894 
L 281.363318 667.239131 
L 285.864224 665.971151 
L 290.36513 664.504738 
L 294.866035 662.818902 
L 299.366941 660.892164 
L 303.867846 658.702828 
L 308.368752 656.229301 
L 312.869658 653.450447 
L 317.370563 650.345976 
L 321.871469 646.896867 
L 326.372374 643.085819 
L 330.87328 638.897738 
L 335.374186 634.320241 
L 339.875091 629.344189 
L 344.375997 623.964234 
L 348.876903 618.179373 
L 353.377808 611.993513 
L 357.878714 605.41602 
L 362.379619 598.462244 
L 366.880525 591.154014 
L 371.381431 583.520055 
L 375.882336 575.596329 
L 384.884147 559.060821 
L 407.388675 516.586789 
L 411.889581 508.504475 
L 416.390487 500.760379 
L 420.891392 493.444204 
L 425.392298 486.644416 
L 429.893204 480.44631 
L 434.394109 474.930013 
L 438.895015 470.168511 
L 443.39592 466.225761 
L 447.896826 463.154974 
L 452.397732 460.997131 
L 456.898637 459.779804 
L 461.399543 459.51633 
L 465.900448 460.205384 
L 470.401354 461.830961 
L 474.90226 464.362786 
L 479.403165 467.757123 
L 483.904071 471.957961 
L 488.404977 476.898512 
L 492.905882 482.502982 
L 497.406788 488.688519 
L 501.907693 495.367276 
L 506.408599 502.448505 
L 510.909505 509.840605 
L 519.911316 525.198218 
L 533.414033 548.426875 
L 537.914938 555.932231 
L 542.415844 563.220075 
L 546.916749 570.243372 
L 551.417655 576.963382 
L 555.918561 583.349506 
L 560.419466 589.378978 
L 564.920372 595.036435 
L 569.421278 600.313398 
L 573.922183 605.207698 
L 578.423089 609.722859 
L 582.923994 613.867468 
L 587.4249 617.654546 
L 591.925806 621.100916 
L 596.426711 624.226589 
L 600.927617 627.054162 
L 605.428522 629.608224 
L 609.929428 631.914782 
L 614.430334 634.000692 
L 618.931239 635.893112 
L 623.432145 637.618961 
L 632.433956 640.674391 
L 641.435767 643.35884 
L 654.938484 647.025886 
L 686.444824 655.207414 
L 699.94754 658.499525 
L 708.949352 660.472289 
L 717.951163 662.184115 
L 726.952974 663.580028 
L 735.954785 664.629954 
L 744.956596 665.333499 
L 753.958408 665.720215 
L 762.960219 665.845666 
L 776.462936 665.709142 
L 803.468369 665.258868 
L 816.971086 665.33978 
L 830.473803 665.694705 
L 870.981954 667.103751 
L 884.484671 667.155407 
L 897.987387 666.893978 
L 915.99101 666.240659 
L 933.994632 665.648613 
L 942.996443 665.521596 
L 951.998255 665.563947 
L 961.000066 665.794713 
L 970.001877 666.211665 
L 983.504594 667.133921 
L 1001.508216 668.698635 
L 1024.012745 670.664639 
L 1037.515461 671.634703 
L 1051.018178 672.381755 
L 1064.520895 672.910183 
L 1082.524517 673.337442 
L 1105.029046 673.580606 
L 1109.529951 673.605725 
L 1109.529951 673.605725 
" clip-path="url(#p26173ef2c1)" style="fill: none; stroke: #1f77b4; stroke-width: 1.5; stroke-linecap: square"/>
   </g>
   <g id="line2d_20">
    <path d="M 457.411792 673.69375 
L 457.411792 7.2 
" clip-path="url(#p26173ef2c1)" style="fill: none; stroke-dasharray: 3.7,1.6; stroke-dashoffset: 0; stroke: #000000"/>
   </g>
   <g id="patch_3">
    <path d="M 69.23125 673.69375 
L 69.23125 7.2 
" style="fill: none; stroke: #000000; stroke-width: 0.8; stroke-linejoin: miter; stroke-linecap: square"/>
   </g>
   <g id="patch_4">
    <path d="M 69.23125 673.69375 
L 1410.4425 673.69375 
" style="fill: none; stroke: #000000; stroke-width: 0.8; stroke-linejoin: miter; stroke-linecap: square"/>
   </g>
  </g>
  <g id="legend_1">
   <g id="text_15">
    <!-- time_group -->
    <g transform="translate(1444.71875 306.0375)scale(0.1 -0.1)">
     <defs>
      <path id="DejaVuSans-6d" d="M 3328 2828 
Q 3544 3216 3844 3400 
Q 4144 3584 4550 3584 
Q 5097 3584 5394 3201 
Q 5691 2819 5691 2113 
L 5691 0 
L 5113 0 
L 5113 2094 
Q 5113 2597 4934 2840 
Q 4756 3084 4391 3084 
Q 3944 3084 3684 2787 
Q 3425 2491 3425 1978 
L 3425 0 
L 2847 0 
L 2847 2094 
Q 2847 2600 2669 2842 
Q 2491 3084 2119 3084 
Q 1678 3084 1418 2786 
Q 1159 2488 1159 1978 
L 1159 0 
L 581 0 
L 581 3500 
L 1159 3500 
L 1159 2956 
Q 1356 3278 1631 3431 
Q 1906 3584 2284 3584 
Q 2666 3584 2933 3390 
Q 3200 3197 3328 2828 
z
" transform="scale(0.015625)"/>
      <path id="DejaVuSans-67" d="M 2906 1791 
Q 2906 2416 2648 2759 
Q 2391 3103 1925 3103 
Q 1463 3103 1205 2759 
Q 947 2416 947 1791 
Q 947 1169 1205 825 
Q 1463 481 1925 481 
Q 2391 481 2648 825 
Q 2906 1169 2906 1791 
z
M 3481 434 
Q 3481 -459 3084 -895 
Q 2688 -1331 1869 -1331 
Q 1566 -1331 1297 -1286 
Q 1028 -1241 775 -1147 
L 775 -588 
Q 1028 -725 1275 -790 
Q 1522 -856 1778 -856 
Q 2344 -856 2625 -561 
Q 2906 -266 2906 331 
L 2906 616 
Q 2728 306 2450 153 
Q 2172 0 1784 0 
Q 1141 0 747 490 
Q 353 981 353 1791 
Q 353 2603 747 3093 
Q 1141 3584 1784 3584 
Q 2172 3584 2450 3431 
Q 2728 3278 2906 2969 
L 2906 3500 
L 3481 3500 
L 3481 434 
z
" transform="scale(0.015625)"/>
      <path id="DejaVuSans-72" d="M 2631 2963 
Q 2534 3019 2420 3045 
Q 2306 3072 2169 3072 
Q 1681 3072 1420 2755 
Q 1159 2438 1159 1844 
L 1159 0 
L 581 0 
L 581 3500 
L 1159 3500 
L 1159 2956 
Q 1341 3275 1631 3429 
Q 1922 3584 2338 3584 
Q 2397 3584 2469 3576 
Q 2541 3569 2628 3553 
L 2631 2963 
z
" transform="scale(0.015625)"/>
      <path id="DejaVuSans-75" d="M 544 1381 
L 544 3500 
L 1119 3500 
L 1119 1403 
Q 1119 906 1312 657 
Q 1506 409 1894 409 
Q 2359 409 2629 706 
Q 2900 1003 2900 1516 
L 2900 3500 
L 3475 3500 
L 3475 0 
L 2900 0 
L 2900 538 
Q 2691 219 2414 64 
Q 2138 -91 1772 -91 
Q 1169 -91 856 284 
Q 544 659 544 1381 
z
M 1991 3584 
L 1991 3584 
z
" transform="scale(0.015625)"/>
      <path id="DejaVuSans-70" d="M 1159 525 
L 1159 -1331 
L 581 -1331 
L 581 3500 
L 1159 3500 
L 1159 2969 
Q 1341 3281 1617 3432 
Q 1894 3584 2278 3584 
Q 2916 3584 3314 3078 
Q 3713 2572 3713 1747 
Q 3713 922 3314 415 
Q 2916 -91 2278 -91 
Q 1894 -91 1617 61 
Q 1341 213 1159 525 
z
M 3116 1747 
Q 3116 2381 2855 2742 
Q 2594 3103 2138 3103 
Q 1681 3103 1420 2742 
Q 1159 2381 1159 1747 
Q 1159 1113 1420 752 
Q 1681 391 2138 391 
Q 2594 391 2855 752 
Q 3116 1113 3116 1747 
z
" transform="scale(0.015625)"/>
     </defs>
     <use xlink:href="#DejaVuSans-74"/>
     <use xlink:href="#DejaVuSans-69" x="39.208984"/>
     <use xlink:href="#DejaVuSans-6d" x="66.992188"/>
     <use xlink:href="#DejaVuSans-65" x="164.404297"/>
     <use xlink:href="#DejaVuSans-5f" x="225.927734"/>
     <use xlink:href="#DejaVuSans-67" x="275.927734"/>
     <use xlink:href="#DejaVuSans-72" x="339.404297"/>
     <use xlink:href="#DejaVuSans-6f" x="378.267578"/>
     <use xlink:href="#DejaVuSans-75" x="439.449219"/>
     <use xlink:href="#DejaVuSans-70" x="502.828125"/>
    </g>
   </g>
   <g id="line2d_21">
    <path d="M 1437.5625 317.49375 
L 1447.5625 317.49375 
L 1457.5625 317.49375 
" style="fill: none; stroke: #1f77b4; stroke-width: 1.5; stroke-linecap: square"/>
   </g>
   <g id="text_16">
    <!-- 120_min -->
    <g transform="translate(1465.5625 320.99375)scale(0.1 -0.1)">
     <use xlink:href="#DejaVuSans-31"/>
     <use xlink:href="#DejaVuSans-32" x="63.623047"/>
     <use xlink:href="#DejaVuSans-30" x="127.246094"/>
     <use xlink:href="#DejaVuSans-5f" x="190.869141"/>
     <use xlink:href="#DejaVuSans-6d" x="240.869141"/>
     <use xlink:href="#DejaVuSans-69" x="338.28125"/>
     <use xlink:href="#DejaVuSans-6e" x="366.064453"/>
    </g>
   </g>
   <g id="line2d_22">
    <path d="M 1437.5625 332.45 
L 1447.5625 332.45 
L 1457.5625 332.45 
" style="fill: none; stroke: #ff7f0e; stroke-width: 1.5; stroke-linecap: square"/>
   </g>
   <g id="text_17">
    <!-- 180_min -->
    <g transform="translate(1465.5625 335.95)scale(0.1 -0.1)">
     <use xlink:href="#DejaVuSans-31"/>
     <use xlink:href="#DejaVuSans-38" x="63.623047"/>
     <use xlink:href="#DejaVuSans-30" x="127.246094"/>
     <use xlink:href="#DejaVuSans-5f" x="190.869141"/>
     <use xlink:href="#DejaVuSans-6d" x="240.869141"/>
     <use xlink:href="#DejaVuSans-69" x="338.28125"/>
     <use xlink:href="#DejaVuSans-6e" x="366.064453"/>
    </g>
   </g>
   <g id="line2d_23">
    <path d="M 1437.5625 347.40625 
L 1447.5625 347.40625 
L 1457.5625 347.40625 
" style="fill: none; stroke: #2ca02c; stroke-width: 1.5; stroke-linecap: square"/>
   </g>
   <g id="text_18">
    <!-- 60_min -->
    <g transform="translate(1465.5625 350.90625)scale(0.1 -0.1)">
     <use xlink:href="#DejaVuSans-36"/>
     <use xlink:href="#DejaVuSans-30" x="63.623047"/>
     <use xlink:href="#DejaVuSans-5f" x="127.246094"/>
     <use xlink:href="#DejaVuSans-6d" x="177.246094"/>
     <use xlink:href="#DejaVuSans-69" x="274.658203"/>
     <use xlink:href="#DejaVuSans-6e" x="302.441406"/>
    </g>
   </g>
   <g id="line2d_24">
    <path d="M 1437.5625 362.3625 
L 1447.5625 362.3625 
L 1457.5625 362.3625 
" style="fill: none; stroke: #d62728; stroke-width: 1.5; stroke-linecap: square"/>
   </g>
   <g id="text_19">
    <!-- 270_min -->
    <g transform="translate(1465.5625 365.8625)scale(0.1 -0.1)">
     <defs>
      <path id="DejaVuSans-37" d="M 525 4666 
L 3525 4666 
L 3525 4397 
L 1831 0 
L 1172 0 
L 2766 4134 
L 525 4134 
L 525 4666 
z
" transform="scale(0.015625)"/>
     </defs>
     <use xlink:href="#DejaVuSans-32"/>
     <use xlink:href="#DejaVuSans-37" x="63.623047"/>
     <use xlink:href="#DejaVuSans-30" x="127.246094"/>
     <use xlink:href="#DejaVuSans-5f" x="190.869141"/>
     <use xlink:href="#DejaVuSans-6d" x="240.869141"/>
     <use xlink:href="#DejaVuSans-69" x="338.28125"/>
     <use xlink:href="#DejaVuSans-6e" x="366.064453"/>
    </g>
   </g>
   <g id="line2d_25">
    <path d="M 1437.5625 377.31875 
L 1447.5625 377.31875 
L 1457.5625 377.31875 
" style="fill: none; stroke: #9467bd; stroke-width: 1.5; stroke-linecap: square"/>
   </g>
   <g id="text_20">
    <!-- 30_min -->
    <g transform="translate(1465.5625 380.81875)scale(0.1 -0.1)">
     <defs>
      <path id="DejaVuSans-33" d="M 2597 2516 
Q 3050 2419 3304 2112 
Q 3559 1806 3559 1356 
Q 3559 666 3084 287 
Q 2609 -91 1734 -91 
Q 1441 -91 1130 -33 
Q 819 25 488 141 
L 488 750 
Q 750 597 1062 519 
Q 1375 441 1716 441 
Q 2309 441 2620 675 
Q 2931 909 2931 1356 
Q 2931 1769 2642 2001 
Q 2353 2234 1838 2234 
L 1294 2234 
L 1294 2753 
L 1863 2753 
Q 2328 2753 2575 2939 
Q 2822 3125 2822 3475 
Q 2822 3834 2567 4026 
Q 2313 4219 1838 4219 
Q 1578 4219 1281 4162 
Q 984 4106 628 3988 
L 628 4550 
Q 988 4650 1302 4700 
Q 1616 4750 1894 4750 
Q 2613 4750 3031 4423 
Q 3450 4097 3450 3541 
Q 3450 3153 3228 2886 
Q 3006 2619 2597 2516 
z
" transform="scale(0.015625)"/>
     </defs>
     <use xlink:href="#DejaVuSans-33"/>
     <use xlink:href="#DejaVuSans-30" x="63.623047"/>
     <use xlink:href="#DejaVuSans-5f" x="127.246094"/>
     <use xlink:href="#DejaVuSans-6d" x="177.246094"/>
     <use xlink:href="#DejaVuSans-69" x="274.658203"/>
     <use xlink:href="#DejaVuSans-6e" x="302.441406"/>
    </g>
   </g>
   <g id="line2d_26">
    <path d="M 1437.5625 392.275 
L 1447.5625 392.275 
L 1457.5625 392.275 
" style="fill: none; stroke: #8c564b; stroke-width: 1.5; stroke-linecap: square"/>
   </g>
   <g id="text_21">
    <!-- 20_min -->
    <g transform="translate(1465.5625 395.775)scale(0.1 -0.1)">
     <use xlink:href="#DejaVuSans-32"/>
     <use xlink:href="#DejaVuSans-30" x="63.623047"/>
     <use xlink:href="#DejaVuSans-5f" x="127.246094"/>
     <use xlink:href="#DejaVuSans-6d" x="177.246094"/>
     <use xlink:href="#DejaVuSans-69" x="274.658203"/>
     <use xlink:href="#DejaVuSans-6e" x="302.441406"/>
    </g>
   </g>
   <g id="line2d_27">
    <path d="M 1437.5625 407.23125 
L 1447.5625 407.23125 
L 1457.5625 407.23125 
" style="fill: none; stroke: #e377c2; stroke-width: 1.5; stroke-linecap: square"/>
   </g>
   <g id="text_22">
    <!-- 10_min -->
    <g transform="translate(1465.5625 410.73125)scale(0.1 -0.1)">
     <use xlink:href="#DejaVuSans-31"/>
     <use xlink:href="#DejaVuSans-30" x="63.623047"/>
     <use xlink:href="#DejaVuSans-5f" x="127.246094"/>
     <use xlink:href="#DejaVuSans-6d" x="177.246094"/>
     <use xlink:href="#DejaVuSans-69" x="274.658203"/>
     <use xlink:href="#DejaVuSans-6e" x="302.441406"/>
    </g>
   </g>
  </g>
 </g>
 <defs>
  <clipPath id="p26173ef2c1">
   <rect x="69.23125" y="7.2" width="1341.21125" height="666.49375"/>
  </clipPath>
 </defs>
</svg>
