<?xml version="1.0" encoding="utf-8" standalone="no"?>
<!DOCTYPE svg PUBLIC "-//W3C//DTD SVG 1.1//EN"
  "http://www.w3.org/Graphics/SVG/1.1/DTD/svg11.dtd">
<svg xmlns:xlink="http://www.w3.org/1999/xlink" width="1517.63125pt" height="711.528125pt" viewBox="0 0 1517.63125 711.528125" xmlns="http://www.w3.org/2000/svg" version="1.1">
 <metadata>
  <rdf:RDF xmlns:dc="http://purl.org/dc/elements/1.1/" xmlns:cc="http://creativecommons.org/ns#" xmlns:rdf="http://www.w3.org/1999/02/22-rdf-syntax-ns#">
   <cc:Work>
    <dc:type rdf:resource="http://purl.org/dc/dcmitype/StillImage"/>
    <dc:date>2022-08-15T15:11:22.520501</dc:date>
    <dc:format>image/svg+xml</dc:format>
    <dc:creator>
     <cc:Agent>
      <dc:title>Matplotlib v3.5.2, https://matplotlib.org/</dc:title>
     </cc:Agent>
    </dc:creator>
   </cc:Work>
  </rdf:RDF>
 </metadata>
 <defs>
  <style type="text/css">*{stroke-linejoin: round; stroke-linecap: butt}</style>
 </defs>
 <g id="figure_1">
  <g id="patch_1">
   <path d="M 0 711.528125 
L 1517.63125 711.528125 
L 1517.63125 0 
L 0 0 
L 0 711.528125 
z
" style="fill: none"/>
  </g>
  <g id="axes_1">
   <g id="patch_2">
    <path d="M 69.23125 673.69375 
L 1410.5675 673.69375 
L 1410.5675 7.2 
L 69.23125 7.2 
z
" style="fill: #ffffff"/>
   </g>
   <g id="matplotlib.axis_1">
    <g id="xtick_1">
     <g id="line2d_1">
      <defs>
       <path id="m50d0f57dcc" d="M 0 0 
L 0 3.5 
" style="stroke: #000000; stroke-width: 0.8"/>
      </defs>
      <g>
       <use xlink:href="#m50d0f57dcc" x="180.673803" y="673.69375" style="stroke: #000000; stroke-width: 0.8"/>
      </g>
     </g>
     <g id="text_1">
      <!-- −5000 -->
      <g transform="translate(163.758959 688.292187)scale(0.1 -0.1)">
       <defs>
        <path id="DejaVuSans-2212" d="M 678 2272 
L 4684 2272 
L 4684 1741 
L 678 1741 
L 678 2272 
z
" transform="scale(0.015625)"/>
        <path id="DejaVuSans-35" d="M 691 4666 
L 3169 4666 
L 3169 4134 
L 1269 4134 
L 1269 2991 
Q 1406 3038 1543 3061 
Q 1681 3084 1819 3084 
Q 2600 3084 3056 2656 
Q 3513 2228 3513 1497 
Q 3513 744 3044 326 
Q 2575 -91 1722 -91 
Q 1428 -91 1123 -41 
Q 819 9 494 109 
L 494 744 
Q 775 591 1075 516 
Q 1375 441 1709 441 
Q 2250 441 2565 725 
Q 2881 1009 2881 1497 
Q 2881 1984 2565 2268 
Q 2250 2553 1709 2553 
Q 1456 2553 1204 2497 
Q 953 2441 691 2322 
L 691 4666 
z
" transform="scale(0.015625)"/>
        <path id="DejaVuSans-30" d="M 2034 4250 
Q 1547 4250 1301 3770 
Q 1056 3291 1056 2328 
Q 1056 1369 1301 889 
Q 1547 409 2034 409 
Q 2525 409 2770 889 
Q 3016 1369 3016 2328 
Q 3016 3291 2770 3770 
Q 2525 4250 2034 4250 
z
M 2034 4750 
Q 2819 4750 3233 4129 
Q 3647 3509 3647 2328 
Q 3647 1150 3233 529 
Q 2819 -91 2034 -91 
Q 1250 -91 836 529 
Q 422 1150 422 2328 
Q 422 3509 836 4129 
Q 1250 4750 2034 4750 
z
" transform="scale(0.015625)"/>
       </defs>
       <use xlink:href="#DejaVuSans-2212"/>
       <use xlink:href="#DejaVuSans-35" x="83.789062"/>
       <use xlink:href="#DejaVuSans-30" x="147.412109"/>
       <use xlink:href="#DejaVuSans-30" x="211.035156"/>
       <use xlink:href="#DejaVuSans-30" x="274.658203"/>
      </g>
     </g>
    </g>
    <g id="xtick_2">
     <g id="line2d_2">
      <g>
       <use xlink:href="#m50d0f57dcc" x="429.483899" y="673.69375" style="stroke: #000000; stroke-width: 0.8"/>
      </g>
     </g>
     <g id="text_2">
      <!-- 0 -->
      <g transform="translate(426.302649 688.292187)scale(0.1 -0.1)">
       <use xlink:href="#DejaVuSans-30"/>
      </g>
     </g>
    </g>
    <g id="xtick_3">
     <g id="line2d_3">
      <g>
       <use xlink:href="#m50d0f57dcc" x="678.293995" y="673.69375" style="stroke: #000000; stroke-width: 0.8"/>
      </g>
     </g>
     <g id="text_3">
      <!-- 5000 -->
      <g transform="translate(665.568995 688.292187)scale(0.1 -0.1)">
       <use xlink:href="#DejaVuSans-35"/>
       <use xlink:href="#DejaVuSans-30" x="63.623047"/>
       <use xlink:href="#DejaVuSans-30" x="127.246094"/>
       <use xlink:href="#DejaVuSans-30" x="190.869141"/>
      </g>
     </g>
    </g>
    <g id="xtick_4">
     <g id="line2d_4">
      <g>
       <use xlink:href="#m50d0f57dcc" x="927.104091" y="673.69375" style="stroke: #000000; stroke-width: 0.8"/>
      </g>
     </g>
     <g id="text_4">
      <!-- 10000 -->
      <g transform="translate(911.197841 688.292187)scale(0.1 -0.1)">
       <defs>
        <path id="DejaVuSans-31" d="M 794 531 
L 1825 531 
L 1825 4091 
L 703 3866 
L 703 4441 
L 1819 4666 
L 2450 4666 
L 2450 531 
L 3481 531 
L 3481 0 
L 794 0 
L 794 531 
z
" transform="scale(0.015625)"/>
       </defs>
       <use xlink:href="#DejaVuSans-31"/>
       <use xlink:href="#DejaVuSans-30" x="63.623047"/>
       <use xlink:href="#DejaVuSans-30" x="127.246094"/>
       <use xlink:href="#DejaVuSans-30" x="190.869141"/>
       <use xlink:href="#DejaVuSans-30" x="254.492188"/>
      </g>
     </g>
    </g>
    <g id="xtick_5">
     <g id="line2d_5">
      <g>
       <use xlink:href="#m50d0f57dcc" x="1175.914188" y="673.69375" style="stroke: #000000; stroke-width: 0.8"/>
      </g>
     </g>
     <g id="text_5">
      <!-- 15000 -->
      <g transform="translate(1160.007938 688.292187)scale(0.1 -0.1)">
       <use xlink:href="#DejaVuSans-31"/>
       <use xlink:href="#DejaVuSans-35" x="63.623047"/>
       <use xlink:href="#DejaVuSans-30" x="127.246094"/>
       <use xlink:href="#DejaVuSans-30" x="190.869141"/>
       <use xlink:href="#DejaVuSans-30" x="254.492188"/>
      </g>
     </g>
    </g>
    <g id="text_6">
     <!-- T_Pob_10_20 -->
     <g transform="translate(707.553281 701.970312)scale(0.1 -0.1)">
      <defs>
       <path id="DejaVuSans-54" d="M -19 4666 
L 3928 4666 
L 3928 4134 
L 2272 4134 
L 2272 0 
L 1638 0 
L 1638 4134 
L -19 4134 
L -19 4666 
z
" transform="scale(0.015625)"/>
       <path id="DejaVuSans-5f" d="M 3263 -1063 
L 3263 -1509 
L -63 -1509 
L -63 -1063 
L 3263 -1063 
z
" transform="scale(0.015625)"/>
       <path id="DejaVuSans-50" d="M 1259 4147 
L 1259 2394 
L 2053 2394 
Q 2494 2394 2734 2622 
Q 2975 2850 2975 3272 
Q 2975 3691 2734 3919 
Q 2494 4147 2053 4147 
L 1259 4147 
z
M 628 4666 
L 2053 4666 
Q 2838 4666 3239 4311 
Q 3641 3956 3641 3272 
Q 3641 2581 3239 2228 
Q 2838 1875 2053 1875 
L 1259 1875 
L 1259 0 
L 628 0 
L 628 4666 
z
" transform="scale(0.015625)"/>
       <path id="DejaVuSans-6f" d="M 1959 3097 
Q 1497 3097 1228 2736 
Q 959 2375 959 1747 
Q 959 1119 1226 758 
Q 1494 397 1959 397 
Q 2419 397 2687 759 
Q 2956 1122 2956 1747 
Q 2956 2369 2687 2733 
Q 2419 3097 1959 3097 
z
M 1959 3584 
Q 2709 3584 3137 3096 
Q 3566 2609 3566 1747 
Q 3566 888 3137 398 
Q 2709 -91 1959 -91 
Q 1206 -91 779 398 
Q 353 888 353 1747 
Q 353 2609 779 3096 
Q 1206 3584 1959 3584 
z
" transform="scale(0.015625)"/>
       <path id="DejaVuSans-62" d="M 3116 1747 
Q 3116 2381 2855 2742 
Q 2594 3103 2138 3103 
Q 1681 3103 1420 2742 
Q 1159 2381 1159 1747 
Q 1159 1113 1420 752 
Q 1681 391 2138 391 
Q 2594 391 2855 752 
Q 3116 1113 3116 1747 
z
M 1159 2969 
Q 1341 3281 1617 3432 
Q 1894 3584 2278 3584 
Q 2916 3584 3314 3078 
Q 3713 2572 3713 1747 
Q 3713 922 3314 415 
Q 2916 -91 2278 -91 
Q 1894 -91 1617 61 
Q 1341 213 1159 525 
L 1159 0 
L 581 0 
L 581 4863 
L 1159 4863 
L 1159 2969 
z
" transform="scale(0.015625)"/>
       <path id="DejaVuSans-32" d="M 1228 531 
L 3431 531 
L 3431 0 
L 469 0 
L 469 531 
Q 828 903 1448 1529 
Q 2069 2156 2228 2338 
Q 2531 2678 2651 2914 
Q 2772 3150 2772 3378 
Q 2772 3750 2511 3984 
Q 2250 4219 1831 4219 
Q 1534 4219 1204 4116 
Q 875 4013 500 3803 
L 500 4441 
Q 881 4594 1212 4672 
Q 1544 4750 1819 4750 
Q 2544 4750 2975 4387 
Q 3406 4025 3406 3419 
Q 3406 3131 3298 2873 
Q 3191 2616 2906 2266 
Q 2828 2175 2409 1742 
Q 1991 1309 1228 531 
z
" transform="scale(0.015625)"/>
      </defs>
      <use xlink:href="#DejaVuSans-54"/>
      <use xlink:href="#DejaVuSans-5f" x="61.083984"/>
      <use xlink:href="#DejaVuSans-50" x="111.083984"/>
      <use xlink:href="#DejaVuSans-6f" x="167.761719"/>
      <use xlink:href="#DejaVuSans-62" x="228.943359"/>
      <use xlink:href="#DejaVuSans-5f" x="292.419922"/>
      <use xlink:href="#DejaVuSans-31" x="342.419922"/>
      <use xlink:href="#DejaVuSans-30" x="406.042969"/>
      <use xlink:href="#DejaVuSans-5f" x="469.666016"/>
      <use xlink:href="#DejaVuSans-32" x="519.666016"/>
      <use xlink:href="#DejaVuSans-30" x="583.289062"/>
     </g>
    </g>
   </g>
   <g id="matplotlib.axis_2">
    <g id="ytick_1">
     <g id="line2d_6">
      <defs>
       <path id="m3730bfc236" d="M 0 0 
L -3.5 0 
" style="stroke: #000000; stroke-width: 0.8"/>
      </defs>
      <g>
       <use xlink:href="#m3730bfc236" x="69.23125" y="673.69375" style="stroke: #000000; stroke-width: 0.8"/>
      </g>
     </g>
     <g id="text_7">
      <!-- 0.00000 -->
      <g transform="translate(20.878125 677.492969)scale(0.1 -0.1)">
       <defs>
        <path id="DejaVuSans-2e" d="M 684 794 
L 1344 794 
L 1344 0 
L 684 0 
L 684 794 
z
" transform="scale(0.015625)"/>
       </defs>
       <use xlink:href="#DejaVuSans-30"/>
       <use xlink:href="#DejaVuSans-2e" x="63.623047"/>
       <use xlink:href="#DejaVuSans-30" x="95.410156"/>
       <use xlink:href="#DejaVuSans-30" x="159.033203"/>
       <use xlink:href="#DejaVuSans-30" x="222.65625"/>
       <use xlink:href="#DejaVuSans-30" x="286.279297"/>
       <use xlink:href="#DejaVuSans-30" x="349.902344"/>
      </g>
     </g>
    </g>
    <g id="ytick_2">
     <g id="line2d_7">
      <g>
       <use xlink:href="#m3730bfc236" x="69.23125" y="547.52355" style="stroke: #000000; stroke-width: 0.8"/>
      </g>
     </g>
     <g id="text_8">
      <!-- 0.00002 -->
      <g transform="translate(20.878125 551.322769)scale(0.1 -0.1)">
       <use xlink:href="#DejaVuSans-30"/>
       <use xlink:href="#DejaVuSans-2e" x="63.623047"/>
       <use xlink:href="#DejaVuSans-30" x="95.410156"/>
       <use xlink:href="#DejaVuSans-30" x="159.033203"/>
       <use xlink:href="#DejaVuSans-30" x="222.65625"/>
       <use xlink:href="#DejaVuSans-30" x="286.279297"/>
       <use xlink:href="#DejaVuSans-32" x="349.902344"/>
      </g>
     </g>
    </g>
    <g id="ytick_3">
     <g id="line2d_8">
      <g>
       <use xlink:href="#m3730bfc236" x="69.23125" y="421.35335" style="stroke: #000000; stroke-width: 0.8"/>
      </g>
     </g>
     <g id="text_9">
      <!-- 0.00004 -->
      <g transform="translate(20.878125 425.152568)scale(0.1 -0.1)">
       <defs>
        <path id="DejaVuSans-34" d="M 2419 4116 
L 825 1625 
L 2419 1625 
L 2419 4116 
z
M 2253 4666 
L 3047 4666 
L 3047 1625 
L 3713 1625 
L 3713 1100 
L 3047 1100 
L 3047 0 
L 2419 0 
L 2419 1100 
L 313 1100 
L 313 1709 
L 2253 4666 
z
" transform="scale(0.015625)"/>
       </defs>
       <use xlink:href="#DejaVuSans-30"/>
       <use xlink:href="#DejaVuSans-2e" x="63.623047"/>
       <use xlink:href="#DejaVuSans-30" x="95.410156"/>
       <use xlink:href="#DejaVuSans-30" x="159.033203"/>
       <use xlink:href="#DejaVuSans-30" x="222.65625"/>
       <use xlink:href="#DejaVuSans-30" x="286.279297"/>
       <use xlink:href="#DejaVuSans-34" x="349.902344"/>
      </g>
     </g>
    </g>
    <g id="ytick_4">
     <g id="line2d_9">
      <g>
       <use xlink:href="#m3730bfc236" x="69.23125" y="295.18315" style="stroke: #000000; stroke-width: 0.8"/>
      </g>
     </g>
     <g id="text_10">
      <!-- 0.00006 -->
      <g transform="translate(20.878125 298.982368)scale(0.1 -0.1)">
       <defs>
        <path id="DejaVuSans-36" d="M 2113 2584 
Q 1688 2584 1439 2293 
Q 1191 2003 1191 1497 
Q 1191 994 1439 701 
Q 1688 409 2113 409 
Q 2538 409 2786 701 
Q 3034 994 3034 1497 
Q 3034 2003 2786 2293 
Q 2538 2584 2113 2584 
z
M 3366 4563 
L 3366 3988 
Q 3128 4100 2886 4159 
Q 2644 4219 2406 4219 
Q 1781 4219 1451 3797 
Q 1122 3375 1075 2522 
Q 1259 2794 1537 2939 
Q 1816 3084 2150 3084 
Q 2853 3084 3261 2657 
Q 3669 2231 3669 1497 
Q 3669 778 3244 343 
Q 2819 -91 2113 -91 
Q 1303 -91 875 529 
Q 447 1150 447 2328 
Q 447 3434 972 4092 
Q 1497 4750 2381 4750 
Q 2619 4750 2861 4703 
Q 3103 4656 3366 4563 
z
" transform="scale(0.015625)"/>
       </defs>
       <use xlink:href="#DejaVuSans-30"/>
       <use xlink:href="#DejaVuSans-2e" x="63.623047"/>
       <use xlink:href="#DejaVuSans-30" x="95.410156"/>
       <use xlink:href="#DejaVuSans-30" x="159.033203"/>
       <use xlink:href="#DejaVuSans-30" x="222.65625"/>
       <use xlink:href="#DejaVuSans-30" x="286.279297"/>
       <use xlink:href="#DejaVuSans-36" x="349.902344"/>
      </g>
     </g>
    </g>
    <g id="ytick_5">
     <g id="line2d_10">
      <g>
       <use xlink:href="#m3730bfc236" x="69.23125" y="169.012949" style="stroke: #000000; stroke-width: 0.8"/>
      </g>
     </g>
     <g id="text_11">
      <!-- 0.00008 -->
      <g transform="translate(20.878125 172.812168)scale(0.1 -0.1)">
       <defs>
        <path id="DejaVuSans-38" d="M 2034 2216 
Q 1584 2216 1326 1975 
Q 1069 1734 1069 1313 
Q 1069 891 1326 650 
Q 1584 409 2034 409 
Q 2484 409 2743 651 
Q 3003 894 3003 1313 
Q 3003 1734 2745 1975 
Q 2488 2216 2034 2216 
z
M 1403 2484 
Q 997 2584 770 2862 
Q 544 3141 544 3541 
Q 544 4100 942 4425 
Q 1341 4750 2034 4750 
Q 2731 4750 3128 4425 
Q 3525 4100 3525 3541 
Q 3525 3141 3298 2862 
Q 3072 2584 2669 2484 
Q 3125 2378 3379 2068 
Q 3634 1759 3634 1313 
Q 3634 634 3220 271 
Q 2806 -91 2034 -91 
Q 1263 -91 848 271 
Q 434 634 434 1313 
Q 434 1759 690 2068 
Q 947 2378 1403 2484 
z
M 1172 3481 
Q 1172 3119 1398 2916 
Q 1625 2713 2034 2713 
Q 2441 2713 2670 2916 
Q 2900 3119 2900 3481 
Q 2900 3844 2670 4047 
Q 2441 4250 2034 4250 
Q 1625 4250 1398 4047 
Q 1172 3844 1172 3481 
z
" transform="scale(0.015625)"/>
       </defs>
       <use xlink:href="#DejaVuSans-30"/>
       <use xlink:href="#DejaVuSans-2e" x="63.623047"/>
       <use xlink:href="#DejaVuSans-30" x="95.410156"/>
       <use xlink:href="#DejaVuSans-30" x="159.033203"/>
       <use xlink:href="#DejaVuSans-30" x="222.65625"/>
       <use xlink:href="#DejaVuSans-30" x="286.279297"/>
       <use xlink:href="#DejaVuSans-38" x="349.902344"/>
      </g>
     </g>
    </g>
    <g id="ytick_6">
     <g id="line2d_11">
      <g>
       <use xlink:href="#m3730bfc236" x="69.23125" y="42.842749" style="stroke: #000000; stroke-width: 0.8"/>
      </g>
     </g>
     <g id="text_12">
      <!-- 0.00010 -->
      <g transform="translate(20.878125 46.641968)scale(0.1 -0.1)">
       <use xlink:href="#DejaVuSans-30"/>
       <use xlink:href="#DejaVuSans-2e" x="63.623047"/>
       <use xlink:href="#DejaVuSans-30" x="95.410156"/>
       <use xlink:href="#DejaVuSans-30" x="159.033203"/>
       <use xlink:href="#DejaVuSans-30" x="222.65625"/>
       <use xlink:href="#DejaVuSans-31" x="286.279297"/>
       <use xlink:href="#DejaVuSans-30" x="349.902344"/>
      </g>
     </g>
    </g>
    <g id="text_13">
     <!-- Density -->
     <g transform="translate(14.798438 359.455469)rotate(-90)scale(0.1 -0.1)">
      <defs>
       <path id="DejaVuSans-44" d="M 1259 4147 
L 1259 519 
L 2022 519 
Q 2988 519 3436 956 
Q 3884 1394 3884 2338 
Q 3884 3275 3436 3711 
Q 2988 4147 2022 4147 
L 1259 4147 
z
M 628 4666 
L 1925 4666 
Q 3281 4666 3915 4102 
Q 4550 3538 4550 2338 
Q 4550 1131 3912 565 
Q 3275 0 1925 0 
L 628 0 
L 628 4666 
z
" transform="scale(0.015625)"/>
       <path id="DejaVuSans-65" d="M 3597 1894 
L 3597 1613 
L 953 1613 
Q 991 1019 1311 708 
Q 1631 397 2203 397 
Q 2534 397 2845 478 
Q 3156 559 3463 722 
L 3463 178 
Q 3153 47 2828 -22 
Q 2503 -91 2169 -91 
Q 1331 -91 842 396 
Q 353 884 353 1716 
Q 353 2575 817 3079 
Q 1281 3584 2069 3584 
Q 2775 3584 3186 3129 
Q 3597 2675 3597 1894 
z
M 3022 2063 
Q 3016 2534 2758 2815 
Q 2500 3097 2075 3097 
Q 1594 3097 1305 2825 
Q 1016 2553 972 2059 
L 3022 2063 
z
" transform="scale(0.015625)"/>
       <path id="DejaVuSans-6e" d="M 3513 2113 
L 3513 0 
L 2938 0 
L 2938 2094 
Q 2938 2591 2744 2837 
Q 2550 3084 2163 3084 
Q 1697 3084 1428 2787 
Q 1159 2491 1159 1978 
L 1159 0 
L 581 0 
L 581 3500 
L 1159 3500 
L 1159 2956 
Q 1366 3272 1645 3428 
Q 1925 3584 2291 3584 
Q 2894 3584 3203 3211 
Q 3513 2838 3513 2113 
z
" transform="scale(0.015625)"/>
       <path id="DejaVuSans-73" d="M 2834 3397 
L 2834 2853 
Q 2591 2978 2328 3040 
Q 2066 3103 1784 3103 
Q 1356 3103 1142 2972 
Q 928 2841 928 2578 
Q 928 2378 1081 2264 
Q 1234 2150 1697 2047 
L 1894 2003 
Q 2506 1872 2764 1633 
Q 3022 1394 3022 966 
Q 3022 478 2636 193 
Q 2250 -91 1575 -91 
Q 1294 -91 989 -36 
Q 684 19 347 128 
L 347 722 
Q 666 556 975 473 
Q 1284 391 1588 391 
Q 1994 391 2212 530 
Q 2431 669 2431 922 
Q 2431 1156 2273 1281 
Q 2116 1406 1581 1522 
L 1381 1569 
Q 847 1681 609 1914 
Q 372 2147 372 2553 
Q 372 3047 722 3315 
Q 1072 3584 1716 3584 
Q 2034 3584 2315 3537 
Q 2597 3491 2834 3397 
z
" transform="scale(0.015625)"/>
       <path id="DejaVuSans-69" d="M 603 3500 
L 1178 3500 
L 1178 0 
L 603 0 
L 603 3500 
z
M 603 4863 
L 1178 4863 
L 1178 4134 
L 603 4134 
L 603 4863 
z
" transform="scale(0.015625)"/>
       <path id="DejaVuSans-74" d="M 1172 4494 
L 1172 3500 
L 2356 3500 
L 2356 3053 
L 1172 3053 
L 1172 1153 
Q 1172 725 1289 603 
Q 1406 481 1766 481 
L 2356 481 
L 2356 0 
L 1766 0 
Q 1100 0 847 248 
Q 594 497 594 1153 
L 594 3053 
L 172 3053 
L 172 3500 
L 594 3500 
L 594 4494 
L 1172 4494 
z
" transform="scale(0.015625)"/>
       <path id="DejaVuSans-79" d="M 2059 -325 
Q 1816 -950 1584 -1140 
Q 1353 -1331 966 -1331 
L 506 -1331 
L 506 -850 
L 844 -850 
Q 1081 -850 1212 -737 
Q 1344 -625 1503 -206 
L 1606 56 
L 191 3500 
L 800 3500 
L 1894 763 
L 2988 3500 
L 3597 3500 
L 2059 -325 
z
" transform="scale(0.015625)"/>
      </defs>
      <use xlink:href="#DejaVuSans-44"/>
      <use xlink:href="#DejaVuSans-65" x="77.001953"/>
      <use xlink:href="#DejaVuSans-6e" x="138.525391"/>
      <use xlink:href="#DejaVuSans-73" x="201.904297"/>
      <use xlink:href="#DejaVuSans-69" x="254.003906"/>
      <use xlink:href="#DejaVuSans-74" x="281.787109"/>
      <use xlink:href="#DejaVuSans-79" x="320.996094"/>
     </g>
    </g>
   </g>
   <g id="line2d_12">
    <path d="M 279.603532 673.401615 
L 286.015245 673.030519 
L 290.289721 672.588771 
L 294.564196 671.904489 
L 298.838672 670.876614 
L 300.975909 670.19536 
L 303.113147 669.37895 
L 305.250385 668.407906 
L 307.387623 667.261538 
L 309.52486 665.918195 
L 311.662098 664.355574 
L 313.799336 662.551089 
L 315.936574 660.482292 
L 318.073811 658.127338 
L 320.211049 655.465473 
L 322.348287 652.477533 
L 324.485524 649.146428 
L 326.622762 645.457597 
L 328.76 641.399401 
L 330.897238 636.963438 
L 333.034475 632.144765 
L 335.171713 626.941999 
L 337.308951 621.357297 
L 339.446189 615.396205 
L 341.583426 609.067378 
L 345.857902 595.354212 
L 350.132377 580.331881 
L 354.406853 564.130849 
L 358.681328 546.879026 
L 362.955804 528.687147 
L 367.230279 509.6428 
L 371.504755 489.815874 
L 377.916468 458.766281 
L 384.328181 426.495194 
L 395.01437 372.229931 
L 399.288845 351.557355 
L 403.56332 332.308429 
L 405.700558 323.413417 
L 407.837796 315.109229 
L 409.975034 307.471087 
L 412.112271 300.569347 
L 414.249509 294.467646 
L 416.386747 289.221212 
L 418.523985 284.875446 
L 420.661222 281.46482 
L 422.79846 279.012189 
L 424.935698 277.52854 
L 427.072936 277.013208 
L 429.210173 277.454556 
L 431.347411 278.831088 
L 433.484649 281.112934 
L 435.621886 284.26362 
L 437.759124 288.24203 
L 439.896362 293.004423 
L 442.0336 298.506383 
L 444.170837 304.704581 
L 446.308075 311.558222 
L 448.445313 319.030081 
L 450.582551 327.087066 
L 452.719788 335.700263 
L 454.857026 344.84446 
L 459.131501 364.637426 
L 463.405977 386.293033 
L 467.680452 409.604934 
L 471.954928 434.278388 
L 478.366641 472.879781 
L 484.778354 511.583281 
L 489.05283 536.261671 
L 493.327305 559.209365 
L 495.464543 569.837723 
L 497.601781 579.81649 
L 499.739018 589.096193 
L 501.876256 597.640836 
L 504.013494 605.428573 
L 506.150732 612.451875 
L 508.287969 618.717197 
L 510.425207 624.244197 
L 512.562445 629.06455 
L 514.699682 633.220425 
L 516.83692 636.762722 
L 518.974158 639.749116 
L 521.111396 642.242038 
L 523.248633 644.306622 
L 525.385871 646.008733 
L 527.523109 647.413116 
L 529.660347 648.581733 
L 531.797584 649.572319 
L 536.07206 651.222431 
L 544.621011 654.239881 
L 548.895486 655.946295 
L 555.307199 658.838429 
L 565.993388 663.855804 
L 570.267863 665.588418 
L 574.542339 666.998989 
L 578.816814 668.006727 
L 580.954052 668.341533 
L 583.09129 668.557352 
L 585.228528 668.651503 
L 587.365765 668.622894 
L 589.503003 668.472019 
L 591.640241 668.200977 
L 595.914716 667.315091 
L 600.189192 666.016178 
L 604.463667 664.384581 
L 610.87538 661.562074 
L 617.287094 658.722453 
L 621.561569 657.086117 
L 625.836044 655.83242 
L 627.973282 655.388367 
L 630.11052 655.081933 
L 632.247758 654.920926 
L 634.384995 654.909601 
L 636.522233 655.048524 
L 638.659471 655.334573 
L 640.796709 655.761084 
L 642.933946 656.318131 
L 647.208422 657.770327 
L 651.482897 659.564026 
L 660.031848 663.593827 
L 666.443561 666.479481 
L 670.718037 668.156839 
L 674.992512 669.579066 
L 679.266988 670.733018 
L 683.541463 671.630958 
L 687.815939 672.30218 
L 692.090414 672.784782 
L 698.502127 673.242048 
L 704.91384 673.484993 
L 704.91384 673.484993 
" clip-path="url(#pf9b41fcaa8)" style="fill: none; stroke: #e377c2; stroke-width: 1.5; stroke-linecap: square"/>
   </g>
   <g id="line2d_13">
    <path d="M 273.082113 673.317428 
L 280.561412 672.883418 
L 285.547612 672.386871 
L 290.533811 671.641074 
L 295.520011 670.552976 
L 298.01311 669.846275 
L 300.50621 669.01069 
L 302.99931 668.029767 
L 305.49241 666.886399 
L 307.98551 665.563065 
L 310.478609 664.042124 
L 312.971709 662.306125 
L 315.464809 660.338143 
L 317.957909 658.122112 
L 320.451008 655.64315 
L 322.944108 652.887846 
L 325.437208 649.844503 
L 327.930308 646.503306 
L 330.423407 642.856411 
L 332.916507 638.897941 
L 335.409607 634.623878 
L 337.902707 630.031862 
L 340.395806 625.120898 
L 342.888906 619.890993 
L 345.382006 614.342742 
L 347.875106 608.476903 
L 350.368205 602.293993 
L 352.861305 595.793945 
L 357.847505 581.837977 
L 362.833704 566.591681 
L 367.819904 550.030832 
L 372.806103 532.143728 
L 377.792303 512.962582 
L 382.778502 492.601853 
L 387.764702 471.295373 
L 402.7233 406.23902 
L 407.7095 386.349651 
L 410.202599 377.170411 
L 412.695699 368.629162 
L 415.188799 360.815527 
L 417.681899 353.81149 
L 420.174998 347.689384 
L 422.668098 342.510182 
L 425.161198 338.322159 
L 427.654298 335.159974 
L 430.147397 333.04419 
L 432.640497 331.981225 
L 435.133597 331.963729 
L 437.626697 332.971339 
L 440.119796 334.971753 
L 442.612896 337.922073 
L 445.105996 341.770332 
L 447.599096 346.457141 
L 450.092195 351.917376 
L 452.585295 358.081856 
L 455.078395 364.878932 
L 457.571495 372.235969 
L 460.064594 380.080653 
L 465.050794 396.951972 
L 470.036994 414.959188 
L 477.516293 443.076912 
L 487.488692 480.663073 
L 492.474891 498.846947 
L 497.461091 516.332798 
L 502.44729 532.947886 
L 507.43349 548.545316 
L 512.419689 562.998476 
L 514.912789 569.761484 
L 517.405889 576.199544 
L 519.898989 582.302518 
L 522.392088 588.061924 
L 524.885188 593.471162 
L 527.378288 598.525738 
L 529.871388 603.2235 
L 532.364487 607.564834 
L 534.857587 611.552847 
L 537.350687 615.193484 
L 539.843787 618.495598 
L 542.336886 621.470955 
L 544.829986 624.134163 
L 547.323086 626.502532 
L 549.816186 628.59586 
L 552.309285 630.436153 
L 554.802385 632.047281 
L 557.295485 633.454579 
L 559.788585 634.684409 
L 562.281684 635.763682 
L 567.267884 637.578014 
L 572.254083 639.105183 
L 584.719582 642.79516 
L 589.705782 644.524565 
L 594.691981 646.471915 
L 599.678181 648.617778 
L 619.622979 657.536284 
L 624.609178 659.294837 
L 629.595378 660.663341 
L 632.088477 661.182358 
L 634.581577 661.585832 
L 637.074677 661.87295 
L 642.060877 662.108158 
L 647.047076 661.933874 
L 652.033276 661.433783 
L 659.512575 660.325908 
L 666.991874 659.187673 
L 671.978074 658.626808 
L 676.964273 658.345656 
L 681.950473 658.410938 
L 686.936672 658.849514 
L 691.922872 659.647969 
L 696.909071 660.757377 
L 701.895271 662.102272 
L 711.86767 665.133552 
L 719.346969 667.359091 
L 724.333168 668.690624 
L 729.319368 669.852307 
L 734.305567 670.826452 
L 739.291767 671.613234 
L 744.277966 672.226224 
L 751.757266 672.869286 
L 759.236565 673.259129 
L 769.208964 673.52612 
L 769.208964 673.52612 
" clip-path="url(#pf9b41fcaa8)" style="fill: none; stroke: #8c564b; stroke-width: 1.5; stroke-linecap: square"/>
   </g>
   <g id="line2d_14">
    <path d="M 138.275923 673.570709 
L 155.547627 673.289803 
L 165.910649 672.936026 
L 176.273672 672.358325 
L 186.636694 671.480227 
L 193.545376 670.695362 
L 200.454057 669.736766 
L 207.362739 668.60252 
L 214.27142 667.301494 
L 224.634442 665.082105 
L 234.997465 662.628573 
L 252.269169 658.262468 
L 266.086532 654.533319 
L 272.995213 652.48071 
L 279.903895 650.18832 
L 286.812576 647.535613 
L 290.266917 646.029741 
L 293.721258 644.377828 
L 297.175598 642.558667 
L 300.629939 640.55008 
L 304.08428 638.329078 
L 307.538621 635.872041 
L 310.992962 633.154915 
L 314.447302 630.153452 
L 317.901643 626.843495 
L 321.355984 623.201324 
L 324.810325 619.20408 
L 328.264665 614.83026 
L 331.719006 610.060322 
L 335.173347 604.877371 
L 338.627688 599.267939 
L 342.082028 593.22285 
L 345.536369 586.738146 
L 348.99071 579.816045 
L 352.445051 572.465906 
L 355.899391 564.705148 
L 359.353732 556.560076 
L 362.808073 548.066565 
L 369.716755 530.228197 
L 390.442799 475.147958 
L 393.89714 466.710245 
L 397.351481 458.759924 
L 400.805821 451.39897 
L 404.260162 444.723559 
L 407.714503 438.821397 
L 411.168844 433.769189 
L 414.623184 429.630372 
L 418.077525 426.453213 
L 421.531866 424.269359 
L 424.986207 423.092913 
L 428.440547 422.920081 
L 431.894888 423.729414 
L 435.349229 425.482641 
L 438.80357 428.126054 
L 442.257911 431.59239 
L 445.712251 435.80313 
L 449.166592 440.671107 
L 452.620933 446.103309 
L 456.075274 452.00377 
L 459.529614 458.276403 
L 466.438296 471.569076 
L 483.71 505.600586 
L 490.618681 518.438842 
L 497.527363 530.542383 
L 504.436044 541.896231 
L 511.344726 552.55998 
L 518.253407 562.620462 
L 525.162089 572.152704 
L 532.07077 581.195374 
L 538.979452 589.742969 
L 545.888133 597.753032 
L 552.796815 605.163604 
L 556.251156 608.624649 
L 559.705496 611.914499 
L 563.159837 615.029 
L 566.614178 617.966084 
L 570.068519 620.725904 
L 573.52286 623.310832 
L 576.9772 625.725297 
L 580.431541 627.975511 
L 583.885882 630.069098 
L 587.340223 632.014667 
L 590.794563 633.821352 
L 597.703245 637.054636 
L 604.611926 639.837019 
L 611.520608 642.22313 
L 618.429289 644.251333 
L 625.337971 645.946997 
L 632.246653 647.330131 
L 639.155334 648.424655 
L 646.064016 649.266392 
L 652.972697 649.907548 
L 666.79006 650.873636 
L 677.153082 651.644004 
L 684.061764 652.323338 
L 690.970445 653.200339 
L 697.879127 654.303958 
L 704.787809 655.636282 
L 711.69649 657.173515 
L 722.059512 659.759398 
L 742.785557 665.13295 
L 749.694238 666.748106 
L 756.60292 668.194845 
L 763.511602 669.447905 
L 770.420283 670.498062 
L 777.328965 671.350115 
L 784.237646 672.019668 
L 794.600668 672.732475 
L 804.963691 673.174416 
L 818.781054 673.486183 
L 825.689735 673.567874 
L 825.689735 673.567874 
" clip-path="url(#pf9b41fcaa8)" style="fill: none; stroke: #9467bd; stroke-width: 1.5; stroke-linecap: square"/>
   </g>
   <g id="line2d_15">
    <path d="M 309.571507 673.37296 
L 313.709832 673.015745 
L 316.468716 672.615764 
L 319.227599 672.027048 
L 321.986483 671.187229 
L 324.745366 670.026208 
L 327.50425 668.47084 
L 330.263133 666.451818 
L 333.022017 663.912262 
L 335.780901 660.816859 
L 338.539784 657.15988 
L 341.298668 652.969996 
L 344.057551 648.309823 
L 346.816435 643.268582 
L 350.95476 635.210875 
L 356.472527 623.915046 
L 360.610852 614.952168 
L 363.369736 608.449973 
L 366.128619 601.167953 
L 367.508061 597.106255 
L 368.887503 592.685473 
L 370.266945 587.842358 
L 371.646386 582.512084 
L 373.025828 576.63001 
L 374.40527 570.133584 
L 375.784712 562.964315 
L 377.164154 555.069743 
L 378.543595 546.405316 
L 379.923037 536.936102 
L 381.302479 526.638253 
L 384.061362 503.523069 
L 386.820246 477.123606 
L 389.579129 447.709851 
L 392.338013 415.731522 
L 396.476338 364.241237 
L 410.270756 187.074787 
L 413.029639 154.641116 
L 415.788523 124.477038 
L 418.547407 97.333166 
L 419.926848 85.174979 
L 421.30629 74.129082 
L 422.685732 64.332209 
L 424.065174 55.92521 
L 425.444615 49.049345 
L 426.824057 43.841986 
L 428.203499 40.431902 
L 429.582941 38.934335 
L 430.962382 39.446105 
L 432.341824 42.040991 
L 433.721266 46.765605 
L 435.100708 53.636008 
L 436.480149 62.635229 
L 437.859591 73.711859 
L 439.239033 86.779815 
L 440.618475 101.719308 
L 441.997917 118.379029 
L 444.7568 156.117197 
L 447.515684 198.303231 
L 458.551218 374.620944 
L 461.310101 413.070024 
L 464.068985 447.593349 
L 466.827868 478.09366 
L 469.586752 504.795601 
L 472.345635 528.127782 
L 475.104519 548.601042 
L 477.863402 566.704047 
L 480.622286 582.830424 
L 483.38117 597.242841 
L 486.140053 610.071207 
L 488.898937 621.336158 
L 491.65782 630.986355 
L 493.037262 635.180174 
L 494.416704 638.938701 
L 495.796145 642.252366 
L 497.175587 645.113536 
L 498.555029 647.5171 
L 499.934471 649.460939 
L 501.313913 650.946276 
L 502.693354 651.977946 
L 504.072796 652.564603 
L 505.452238 652.718898 
L 506.83168 652.457612 
L 508.211121 651.801787 
L 509.590563 650.77682 
L 510.970005 649.412521 
L 512.349447 647.743122 
L 513.728888 645.8072 
L 516.487772 641.310635 
L 524.764423 626.516817 
L 526.143864 624.433112 
L 527.523306 622.596594 
L 528.902748 621.050489 
L 530.28219 619.831773 
L 531.661631 618.970145 
L 533.041073 618.487196 
L 534.420515 618.395823 
L 535.799957 618.699924 
L 537.179398 619.394384 
L 538.55884 620.465369 
L 539.938282 621.890907 
L 541.317724 623.641739 
L 542.697165 625.68239 
L 545.456049 630.467832 
L 548.214933 635.889321 
L 555.112141 649.877619 
L 557.871025 654.877688 
L 560.629908 659.253643 
L 563.388792 662.929219 
L 564.768234 664.500357 
L 566.147676 665.899005 
L 567.527117 667.132702 
L 568.906559 668.21111 
L 571.665443 669.947838 
L 574.424326 671.207731 
L 577.18321 672.091136 
L 579.942093 672.69022 
L 582.700977 673.083361 
L 584.080418 673.222869 
L 584.080418 673.222869 
" clip-path="url(#pf9b41fcaa8)" style="fill: none; stroke: #d62728; stroke-width: 1.5; stroke-linecap: square"/>
   </g>
   <g id="line2d_16">
    <path d="M 136.119987 673.510909 
L 145.718981 673.198084 
L 152.918227 672.728877 
L 157.717724 672.246995 
L 162.517221 671.591048 
L 167.316718 670.731502 
L 172.116215 669.648635 
L 176.915712 668.339319 
L 181.715209 666.823364 
L 188.914454 664.272891 
L 198.513448 660.813539 
L 203.312945 659.309039 
L 208.112442 658.105012 
L 212.91194 657.289571 
L 215.311688 657.044999 
L 220.111185 656.8911 
L 224.910682 657.157929 
L 229.710179 657.769528 
L 236.909425 659.0661 
L 244.10867 660.371243 
L 248.908167 661.004487 
L 253.707664 661.318074 
L 258.507161 661.250359 
L 263.306658 660.791094 
L 268.106155 659.978342 
L 272.905652 658.8867 
L 280.104898 656.927123 
L 292.10364 653.351716 
L 296.903137 651.807146 
L 301.702634 650.060759 
L 306.502131 647.949778 
L 308.90188 646.698841 
L 311.301628 645.285601 
L 313.701377 643.687349 
L 316.101125 641.883554 
L 318.500874 639.856691 
L 320.900622 637.59289 
L 323.300371 635.082368 
L 325.700119 632.319586 
L 328.099868 629.303117 
L 330.499616 626.035198 
L 332.899365 622.520988 
L 335.299114 618.767542 
L 337.698862 614.782566 
L 342.498359 606.143515 
L 347.297856 596.623352 
L 352.097353 586.161184 
L 354.497102 580.527784 
L 356.89685 574.584915 
L 359.296599 568.292711 
L 361.696347 561.60538 
L 364.096096 554.472863 
L 366.495844 546.843011 
L 368.895593 538.664219 
L 371.295341 529.888433 
L 373.69509 520.474406 
L 376.094838 510.391081 
L 378.494587 499.620926 
L 380.894335 488.16309 
L 383.294084 476.036197 
L 388.093581 449.960186 
L 392.893078 422.00112 
L 402.492072 364.726101 
L 404.89182 351.158238 
L 407.291569 338.292528 
L 409.691317 326.33494 
L 412.091066 315.485103 
L 414.490814 305.930288 
L 416.890563 297.839549 
L 419.290311 291.358258 
L 421.69006 286.60327 
L 424.089808 283.658917 
L 426.489557 282.574025 
L 428.889305 283.360095 
L 431.289054 285.990721 
L 433.688802 290.402325 
L 436.088551 296.496145 
L 438.488299 304.141442 
L 440.888048 313.17977 
L 443.287796 323.430141 
L 445.687545 334.69486 
L 448.087293 346.765794 
L 452.886791 372.480005 
L 460.086036 411.989832 
L 464.885533 437.000623 
L 467.285282 448.739243 
L 469.68503 459.863405 
L 472.084779 470.328249 
L 474.484527 480.113438 
L 476.884276 489.220929 
L 479.284024 497.672142 
L 481.683773 505.504687 
L 484.083521 512.768842 
L 486.48327 519.523947 
L 488.883018 525.834893 
L 491.282767 531.768826 
L 496.082264 542.768266 
L 500.881761 553.003547 
L 508.081006 567.711318 
L 524.879246 601.431057 
L 529.678743 610.744592 
L 534.47824 619.675311 
L 539.277737 628.076495 
L 544.077234 635.820763 
L 548.876731 642.810482 
L 551.276479 646.001411 
L 553.676228 648.983117 
L 556.075976 651.753499 
L 558.475725 654.312655 
L 560.875473 656.662769 
L 563.275222 658.807971 
L 565.67497 660.754158 
L 568.074719 662.5088 
L 570.474467 664.080715 
L 572.874216 665.479844 
L 575.273965 666.717004 
L 577.673713 667.803644 
L 580.073462 668.751611 
L 584.872959 670.279526 
L 589.672456 671.395166 
L 594.471953 672.186697 
L 599.27145 672.732057 
L 606.470695 673.228323 
L 613.669941 673.482384 
L 613.669941 673.482384 
" clip-path="url(#pf9b41fcaa8)" style="fill: none; stroke: #2ca02c; stroke-width: 1.5; stroke-linecap: square"/>
   </g>
   <g id="line2d_17">
    <path d="M 130.20108 673.60146 
L 154.711564 673.418383 
L 173.094427 673.107952 
L 185.349669 672.75231 
L 197.604911 672.213136 
L 209.860153 671.412291 
L 222.115395 670.245627 
L 228.243017 669.484081 
L 234.370638 668.57743 
L 240.498259 667.502956 
L 246.62588 666.235442 
L 252.753501 664.747159 
L 258.881122 663.007943 
L 265.008743 660.985375 
L 271.136364 658.645105 
L 277.263985 655.951321 
L 283.391606 652.867409 
L 289.519227 649.356796 
L 295.646848 645.384005 
L 301.774469 640.915906 
L 307.90209 635.92316 
L 314.029711 630.381824 
L 320.157332 624.275072 
L 326.284953 617.594984 
L 332.412575 610.344324 
L 338.540196 602.538221 
L 344.667817 594.205657 
L 350.795438 585.390681 
L 356.923059 576.153216 
L 363.05068 566.569404 
L 375.305922 546.746474 
L 387.561164 526.831539 
L 393.688785 517.175491 
L 399.816406 507.914475 
L 405.944027 499.197264 
L 412.071648 491.170406 
L 418.199269 483.97402 
L 424.32689 477.7376 
L 430.454511 472.576006 
L 436.582133 468.585814 
L 442.709754 465.8422 
L 448.837375 464.396475 
L 454.964996 464.274411 
L 461.092617 465.475403 
L 467.220238 467.972527 
L 473.347859 471.713473 
L 479.47548 476.622298 
L 485.603101 482.601933 
L 491.730722 489.537316 
L 497.858343 497.299001 
L 503.985964 505.747102 
L 510.113585 514.735395 
L 516.241206 524.115416 
L 540.751691 562.716563 
L 546.879312 572.006037 
L 553.006933 580.943538 
L 559.134554 589.452003 
L 565.262175 597.470737 
L 571.389796 604.955253 
L 577.517417 611.876641 
L 583.645038 618.220522 
L 589.772659 623.985692 
L 595.90028 629.182525 
L 602.027901 633.831221 
L 608.155522 637.959991 
L 614.283143 641.603235 
L 620.410764 644.79979 
L 626.538385 647.591284 
L 632.666006 650.020651 
L 638.793628 652.130818 
L 644.921249 653.963594 
L 651.04887 655.558761 
L 657.176491 656.953358 
L 663.304112 658.181164 
L 675.559354 660.253316 
L 687.814596 661.970978 
L 700.069838 663.47044 
L 718.452701 665.480067 
L 736.835564 667.285349 
L 755.218428 668.863375 
L 767.47367 669.750659 
L 779.728912 670.476597 
L 791.984154 671.020438 
L 804.239396 671.368375 
L 816.494638 671.514766 
L 828.74988 671.462774 
L 841.005122 671.22492 
L 859.387986 670.571629 
L 883.89847 669.34549 
L 908.408954 668.088113 
L 926.791817 667.388897 
L 939.047059 667.120318 
L 951.302302 667.034317 
L 963.557544 667.127457 
L 981.940407 667.540912 
L 1030.961375 668.944775 
L 1043.216617 669.060407 
L 1055.47186 669.018018 
L 1073.854723 668.678646 
L 1104.492828 667.716064 
L 1122.875691 667.227324 
L 1135.130933 667.059265 
L 1147.386175 667.06217 
L 1159.641418 667.251175 
L 1171.89666 667.619421 
L 1190.279523 668.446004 
L 1220.917628 670.182604 
L 1245.428112 671.489009 
L 1263.810976 672.264218 
L 1282.193839 672.83152 
L 1300.576702 673.20999 
L 1325.087186 673.493726 
L 1349.59767 673.62103 
L 1349.59767 673.62103 
" clip-path="url(#pf9b41fcaa8)" style="fill: none; stroke: #ff7f0e; stroke-width: 1.5; stroke-linecap: square"/>
   </g>
   <g id="line2d_18">
    <path d="M 201.424249 673.540735 
L 212.404914 673.296351 
L 220.640413 672.93739 
L 228.875911 672.339811 
L 234.366244 671.763827 
L 239.856576 671.015132 
L 245.346909 670.072437 
L 250.837241 668.922881 
L 256.327574 667.565416 
L 261.817906 666.013149 
L 270.053405 663.383976 
L 281.03407 659.551708 
L 294.759901 654.76072 
L 313.976064 648.218262 
L 319.466397 646.011686 
L 322.211563 644.756049 
L 324.956729 643.362615 
L 327.701895 641.800884 
L 330.447062 640.037958 
L 333.192228 638.038856 
L 335.937394 635.766904 
L 338.68256 633.184214 
L 341.427727 630.252259 
L 344.172893 626.932546 
L 346.918059 623.187378 
L 349.663225 618.980711 
L 352.408391 614.279094 
L 355.153558 609.052675 
L 357.898724 603.27625 
L 360.64389 596.930346 
L 363.389056 590.002294 
L 366.134223 582.487262 
L 368.879389 574.389226 
L 371.624555 565.721822 
L 374.369721 556.509054 
L 377.114887 546.785825 
L 382.60522 526.003633 
L 388.095552 503.877479 
L 401.821383 447.385564 
L 404.56655 436.738804 
L 407.311716 426.573248 
L 410.056882 416.999023 
L 412.802048 408.120475 
L 415.547215 400.033835 
L 418.292381 392.825019 
L 421.037547 386.567653 
L 423.782713 381.321382 
L 426.52788 377.13054 
L 429.273046 374.023222 
L 432.018212 372.010812 
L 434.763378 371.087964 
L 437.508544 371.233069 
L 440.253711 372.409171 
L 442.998877 374.565301 
L 445.744043 377.63819 
L 448.489209 381.554278 
L 451.234376 386.231954 
L 453.979542 391.583925 
L 456.724708 397.519643 
L 459.469874 403.94768 
L 462.21504 410.777971 
L 467.705373 425.303851 
L 475.940872 448.138678 
L 484.17637 470.872811 
L 489.666703 485.498487 
L 495.157035 499.535297 
L 500.647368 512.930189 
L 506.1377 525.669625 
L 511.628032 537.749057 
L 517.118365 549.152102 
L 522.608697 559.841498 
L 528.09903 569.761224 
L 533.589362 578.846961 
L 536.334529 583.058331 
L 539.079695 587.040862 
L 541.824861 590.79078 
L 544.570027 594.3064 
L 547.315193 597.58836 
L 550.06036 600.639753 
L 552.805526 603.466144 
L 555.550692 606.075504 
L 558.295858 608.478034 
L 561.041025 610.68592 
L 563.786191 612.713012 
L 566.531357 614.574468 
L 569.276523 616.286355 
L 574.766856 619.327825 
L 580.257188 621.96909 
L 585.747521 624.332433 
L 593.983019 627.578793 
L 621.434681 638.071708 
L 632.415346 642.521441 
L 643.396011 647.175671 
L 659.867009 654.465792 
L 670.847674 659.267333 
L 679.083172 662.60834 
L 684.573505 664.628563 
L 690.063837 666.441119 
L 695.55417 668.022808 
L 701.044502 669.36393 
L 706.534834 670.468121 
L 712.025167 671.350508 
L 717.515499 672.034727 
L 723.005832 672.549468 
L 731.24133 673.070107 
L 739.476829 673.373829 
L 747.712328 673.539385 
L 747.712328 673.539385 
" clip-path="url(#pf9b41fcaa8)" style="fill: none; stroke: #1f77b4; stroke-width: 1.5; stroke-linecap: square"/>
   </g>
   <g id="line2d_19">
    <path d="M 429.483899 673.69375 
L 429.483899 7.2 
" clip-path="url(#pf9b41fcaa8)" style="fill: none; stroke-dasharray: 3.7,1.6; stroke-dashoffset: 0; stroke: #000000"/>
   </g>
   <g id="patch_3">
    <path d="M 69.23125 673.69375 
L 69.23125 7.2 
" style="fill: none; stroke: #000000; stroke-width: 0.8; stroke-linejoin: miter; stroke-linecap: square"/>
   </g>
   <g id="patch_4">
    <path d="M 69.23125 673.69375 
L 1410.5675 673.69375 
" style="fill: none; stroke: #000000; stroke-width: 0.8; stroke-linejoin: miter; stroke-linecap: square"/>
   </g>
  </g>
  <g id="legend_1">
   <g id="text_14">
    <!-- time_group -->
    <g transform="translate(1444.84375 306.0375)scale(0.1 -0.1)">
     <defs>
      <path id="DejaVuSans-6d" d="M 3328 2828 
Q 3544 3216 3844 3400 
Q 4144 3584 4550 3584 
Q 5097 3584 5394 3201 
Q 5691 2819 5691 2113 
L 5691 0 
L 5113 0 
L 5113 2094 
Q 5113 2597 4934 2840 
Q 4756 3084 4391 3084 
Q 3944 3084 3684 2787 
Q 3425 2491 3425 1978 
L 3425 0 
L 2847 0 
L 2847 2094 
Q 2847 2600 2669 2842 
Q 2491 3084 2119 3084 
Q 1678 3084 1418 2786 
Q 1159 2488 1159 1978 
L 1159 0 
L 581 0 
L 581 3500 
L 1159 3500 
L 1159 2956 
Q 1356 3278 1631 3431 
Q 1906 3584 2284 3584 
Q 2666 3584 2933 3390 
Q 3200 3197 3328 2828 
z
" transform="scale(0.015625)"/>
      <path id="DejaVuSans-67" d="M 2906 1791 
Q 2906 2416 2648 2759 
Q 2391 3103 1925 3103 
Q 1463 3103 1205 2759 
Q 947 2416 947 1791 
Q 947 1169 1205 825 
Q 1463 481 1925 481 
Q 2391 481 2648 825 
Q 2906 1169 2906 1791 
z
M 3481 434 
Q 3481 -459 3084 -895 
Q 2688 -1331 1869 -1331 
Q 1566 -1331 1297 -1286 
Q 1028 -1241 775 -1147 
L 775 -588 
Q 1028 -725 1275 -790 
Q 1522 -856 1778 -856 
Q 2344 -856 2625 -561 
Q 2906 -266 2906 331 
L 2906 616 
Q 2728 306 2450 153 
Q 2172 0 1784 0 
Q 1141 0 747 490 
Q 353 981 353 1791 
Q 353 2603 747 3093 
Q 1141 3584 1784 3584 
Q 2172 3584 2450 3431 
Q 2728 3278 2906 2969 
L 2906 3500 
L 3481 3500 
L 3481 434 
z
" transform="scale(0.015625)"/>
      <path id="DejaVuSans-72" d="M 2631 2963 
Q 2534 3019 2420 3045 
Q 2306 3072 2169 3072 
Q 1681 3072 1420 2755 
Q 1159 2438 1159 1844 
L 1159 0 
L 581 0 
L 581 3500 
L 1159 3500 
L 1159 2956 
Q 1341 3275 1631 3429 
Q 1922 3584 2338 3584 
Q 2397 3584 2469 3576 
Q 2541 3569 2628 3553 
L 2631 2963 
z
" transform="scale(0.015625)"/>
      <path id="DejaVuSans-75" d="M 544 1381 
L 544 3500 
L 1119 3500 
L 1119 1403 
Q 1119 906 1312 657 
Q 1506 409 1894 409 
Q 2359 409 2629 706 
Q 2900 1003 2900 1516 
L 2900 3500 
L 3475 3500 
L 3475 0 
L 2900 0 
L 2900 538 
Q 2691 219 2414 64 
Q 2138 -91 1772 -91 
Q 1169 -91 856 284 
Q 544 659 544 1381 
z
M 1991 3584 
L 1991 3584 
z
" transform="scale(0.015625)"/>
      <path id="DejaVuSans-70" d="M 1159 525 
L 1159 -1331 
L 581 -1331 
L 581 3500 
L 1159 3500 
L 1159 2969 
Q 1341 3281 1617 3432 
Q 1894 3584 2278 3584 
Q 2916 3584 3314 3078 
Q 3713 2572 3713 1747 
Q 3713 922 3314 415 
Q 2916 -91 2278 -91 
Q 1894 -91 1617 61 
Q 1341 213 1159 525 
z
M 3116 1747 
Q 3116 2381 2855 2742 
Q 2594 3103 2138 3103 
Q 1681 3103 1420 2742 
Q 1159 2381 1159 1747 
Q 1159 1113 1420 752 
Q 1681 391 2138 391 
Q 2594 391 2855 752 
Q 3116 1113 3116 1747 
z
" transform="scale(0.015625)"/>
     </defs>
     <use xlink:href="#DejaVuSans-74"/>
     <use xlink:href="#DejaVuSans-69" x="39.208984"/>
     <use xlink:href="#DejaVuSans-6d" x="66.992188"/>
     <use xlink:href="#DejaVuSans-65" x="164.404297"/>
     <use xlink:href="#DejaVuSans-5f" x="225.927734"/>
     <use xlink:href="#DejaVuSans-67" x="275.927734"/>
     <use xlink:href="#DejaVuSans-72" x="339.404297"/>
     <use xlink:href="#DejaVuSans-6f" x="378.267578"/>
     <use xlink:href="#DejaVuSans-75" x="439.449219"/>
     <use xlink:href="#DejaVuSans-70" x="502.828125"/>
    </g>
   </g>
   <g id="line2d_20">
    <path d="M 1437.6875 317.49375 
L 1447.6875 317.49375 
L 1457.6875 317.49375 
" style="fill: none; stroke: #1f77b4; stroke-width: 1.5; stroke-linecap: square"/>
   </g>
   <g id="text_15">
    <!-- 180_min -->
    <g transform="translate(1465.6875 320.99375)scale(0.1 -0.1)">
     <use xlink:href="#DejaVuSans-31"/>
     <use xlink:href="#DejaVuSans-38" x="63.623047"/>
     <use xlink:href="#DejaVuSans-30" x="127.246094"/>
     <use xlink:href="#DejaVuSans-5f" x="190.869141"/>
     <use xlink:href="#DejaVuSans-6d" x="240.869141"/>
     <use xlink:href="#DejaVuSans-69" x="338.28125"/>
     <use xlink:href="#DejaVuSans-6e" x="366.064453"/>
    </g>
   </g>
   <g id="line2d_21">
    <path d="M 1437.6875 332.45 
L 1447.6875 332.45 
L 1457.6875 332.45 
" style="fill: none; stroke: #ff7f0e; stroke-width: 1.5; stroke-linecap: square"/>
   </g>
   <g id="text_16">
    <!-- 270_min -->
    <g transform="translate(1465.6875 335.95)scale(0.1 -0.1)">
     <defs>
      <path id="DejaVuSans-37" d="M 525 4666 
L 3525 4666 
L 3525 4397 
L 1831 0 
L 1172 0 
L 2766 4134 
L 525 4134 
L 525 4666 
z
" transform="scale(0.015625)"/>
     </defs>
     <use xlink:href="#DejaVuSans-32"/>
     <use xlink:href="#DejaVuSans-37" x="63.623047"/>
     <use xlink:href="#DejaVuSans-30" x="127.246094"/>
     <use xlink:href="#DejaVuSans-5f" x="190.869141"/>
     <use xlink:href="#DejaVuSans-6d" x="240.869141"/>
     <use xlink:href="#DejaVuSans-69" x="338.28125"/>
     <use xlink:href="#DejaVuSans-6e" x="366.064453"/>
    </g>
   </g>
   <g id="line2d_22">
    <path d="M 1437.6875 347.40625 
L 1447.6875 347.40625 
L 1457.6875 347.40625 
" style="fill: none; stroke: #2ca02c; stroke-width: 1.5; stroke-linecap: square"/>
   </g>
   <g id="text_17">
    <!-- 30_min -->
    <g transform="translate(1465.6875 350.90625)scale(0.1 -0.1)">
     <defs>
      <path id="DejaVuSans-33" d="M 2597 2516 
Q 3050 2419 3304 2112 
Q 3559 1806 3559 1356 
Q 3559 666 3084 287 
Q 2609 -91 1734 -91 
Q 1441 -91 1130 -33 
Q 819 25 488 141 
L 488 750 
Q 750 597 1062 519 
Q 1375 441 1716 441 
Q 2309 441 2620 675 
Q 2931 909 2931 1356 
Q 2931 1769 2642 2001 
Q 2353 2234 1838 2234 
L 1294 2234 
L 1294 2753 
L 1863 2753 
Q 2328 2753 2575 2939 
Q 2822 3125 2822 3475 
Q 2822 3834 2567 4026 
Q 2313 4219 1838 4219 
Q 1578 4219 1281 4162 
Q 984 4106 628 3988 
L 628 4550 
Q 988 4650 1302 4700 
Q 1616 4750 1894 4750 
Q 2613 4750 3031 4423 
Q 3450 4097 3450 3541 
Q 3450 3153 3228 2886 
Q 3006 2619 2597 2516 
z
" transform="scale(0.015625)"/>
     </defs>
     <use xlink:href="#DejaVuSans-33"/>
     <use xlink:href="#DejaVuSans-30" x="63.623047"/>
     <use xlink:href="#DejaVuSans-5f" x="127.246094"/>
     <use xlink:href="#DejaVuSans-6d" x="177.246094"/>
     <use xlink:href="#DejaVuSans-69" x="274.658203"/>
     <use xlink:href="#DejaVuSans-6e" x="302.441406"/>
    </g>
   </g>
   <g id="line2d_23">
    <path d="M 1437.6875 362.3625 
L 1447.6875 362.3625 
L 1457.6875 362.3625 
" style="fill: none; stroke: #d62728; stroke-width: 1.5; stroke-linecap: square"/>
   </g>
   <g id="text_18">
    <!-- 60_min -->
    <g transform="translate(1465.6875 365.8625)scale(0.1 -0.1)">
     <use xlink:href="#DejaVuSans-36"/>
     <use xlink:href="#DejaVuSans-30" x="63.623047"/>
     <use xlink:href="#DejaVuSans-5f" x="127.246094"/>
     <use xlink:href="#DejaVuSans-6d" x="177.246094"/>
     <use xlink:href="#DejaVuSans-69" x="274.658203"/>
     <use xlink:href="#DejaVuSans-6e" x="302.441406"/>
    </g>
   </g>
   <g id="line2d_24">
    <path d="M 1437.6875 377.31875 
L 1447.6875 377.31875 
L 1457.6875 377.31875 
" style="fill: none; stroke: #9467bd; stroke-width: 1.5; stroke-linecap: square"/>
   </g>
   <g id="text_19">
    <!-- 10_min -->
    <g transform="translate(1465.6875 380.81875)scale(0.1 -0.1)">
     <use xlink:href="#DejaVuSans-31"/>
     <use xlink:href="#DejaVuSans-30" x="63.623047"/>
     <use xlink:href="#DejaVuSans-5f" x="127.246094"/>
     <use xlink:href="#DejaVuSans-6d" x="177.246094"/>
     <use xlink:href="#DejaVuSans-69" x="274.658203"/>
     <use xlink:href="#DejaVuSans-6e" x="302.441406"/>
    </g>
   </g>
   <g id="line2d_25">
    <path d="M 1437.6875 392.275 
L 1447.6875 392.275 
L 1457.6875 392.275 
" style="fill: none; stroke: #8c564b; stroke-width: 1.5; stroke-linecap: square"/>
   </g>
   <g id="text_20">
    <!-- 120_min -->
    <g transform="translate(1465.6875 395.775)scale(0.1 -0.1)">
     <use xlink:href="#DejaVuSans-31"/>
     <use xlink:href="#DejaVuSans-32" x="63.623047"/>
     <use xlink:href="#DejaVuSans-30" x="127.246094"/>
     <use xlink:href="#DejaVuSans-5f" x="190.869141"/>
     <use xlink:href="#DejaVuSans-6d" x="240.869141"/>
     <use xlink:href="#DejaVuSans-69" x="338.28125"/>
     <use xlink:href="#DejaVuSans-6e" x="366.064453"/>
    </g>
   </g>
   <g id="line2d_26">
    <path d="M 1437.6875 407.23125 
L 1447.6875 407.23125 
L 1457.6875 407.23125 
" style="fill: none; stroke: #e377c2; stroke-width: 1.5; stroke-linecap: square"/>
   </g>
   <g id="text_21">
    <!-- 20_min -->
    <g transform="translate(1465.6875 410.73125)scale(0.1 -0.1)">
     <use xlink:href="#DejaVuSans-32"/>
     <use xlink:href="#DejaVuSans-30" x="63.623047"/>
     <use xlink:href="#DejaVuSans-5f" x="127.246094"/>
     <use xlink:href="#DejaVuSans-6d" x="177.246094"/>
     <use xlink:href="#DejaVuSans-69" x="274.658203"/>
     <use xlink:href="#DejaVuSans-6e" x="302.441406"/>
    </g>
   </g>
  </g>
 </g>
 <defs>
  <clipPath id="pf9b41fcaa8">
   <rect x="69.23125" y="7.2" width="1341.33625" height="666.49375"/>
  </clipPath>
 </defs>
</svg>
