<?xml version="1.0" encoding="utf-8" standalone="no"?>
<!DOCTYPE svg PUBLIC "-//W3C//DTD SVG 1.1//EN"
  "http://www.w3.org/Graphics/SVG/1.1/DTD/svg11.dtd">
<svg xmlns:xlink="http://www.w3.org/1999/xlink" width="460.8pt" height="345.6pt" viewBox="0 0 460.8 345.6" xmlns="http://www.w3.org/2000/svg" version="1.1">
 <metadata>
  <rdf:RDF xmlns:dc="http://purl.org/dc/elements/1.1/" xmlns:cc="http://creativecommons.org/ns#" xmlns:rdf="http://www.w3.org/1999/02/22-rdf-syntax-ns#">
   <cc:Work>
    <dc:type rdf:resource="http://purl.org/dc/dcmitype/StillImage"/>
    <dc:date>2023-09-12T19:00:24.501375</dc:date>
    <dc:format>image/svg+xml</dc:format>
    <dc:creator>
     <cc:Agent>
      <dc:title>Matplotlib v3.7.1, https://matplotlib.org/</dc:title>
     </cc:Agent>
    </dc:creator>
   </cc:Work>
  </rdf:RDF>
 </metadata>
 <defs>
  <style type="text/css">*{stroke-linejoin: round; stroke-linecap: butt}</style>
 </defs>
 <g id="figure_1">
  <g id="patch_1">
   <path d="M 0 345.6 
L 460.8 345.6 
L 460.8 0 
L 0 0 
z
" style="fill: #ffffff"/>
  </g>
  <g id="axes_1">
   <g id="patch_2">
    <path d="M 159.397421 307.584 
L 312.922579 307.584 
L 312.922579 41.472 
L 159.397421 41.472 
z
" style="fill: #ffffff"/>
   </g>
   <g id="PatchCollection_1">
    <path d="M 189.743741 135.750596 
L 189.211925 135.490693 
L 189.168531 134.896795 
L 189.656954 134.5628 
L 189.61356 133.968903 
L 190.101984 133.634908 
L 190.058591 133.04101 
L 189.526772 132.781107 
L 189.483378 132.187209 
L 189.971804 131.853215 
L 189.92841 131.259317 
L 189.39659 130.999413 
L 188.908164 131.333408 
L 188.376344 131.073505 
L 188.332949 130.479607 
L 187.801127 130.219704 
L 187.312701 130.5537 
L 186.780878 130.293798 
L 186.737481 129.6999 
L 186.205658 129.439998 
L 186.162261 128.846099 
L 185.630436 128.586198 
L 185.142009 128.920195 
L 184.610183 128.660294 
L 184.566785 128.066396 
L 184.034958 127.806495 
L 183.991559 127.212596 
L 183.459731 126.952696 
L 183.416331 126.358797 
L 183.90476 126.024799 
L 183.861361 125.4309 
L 183.329531 125.171 
L 183.286131 124.577101 
L 182.754301 124.317201 
L 182.7109 123.723302 
L 182.179069 123.463402 
L 182.135668 122.869503 
L 181.603835 122.609603 
L 181.560434 122.015704 
L 182.048865 121.681705 
L 182.005464 121.087806 
L 182.493896 120.753808 
L 182.450495 120.15991 
L 181.918661 119.900009 
L 181.875259 119.30611 
L 182.363693 118.972112 
L 182.320292 118.378214 
L 182.808726 118.044216 
L 182.765325 117.450318 
L 182.233489 117.190416 
L 182.190088 116.596518 
L 182.678523 116.262521 
L 182.635122 115.668622 
L 183.123559 115.334626 
L 183.655396 115.594528 
L 184.143832 115.260533 
L 184.100432 114.666635 
L 184.588869 114.33264 
L 185.120706 114.592543 
L 185.609143 114.258549 
L 186.140979 114.518454 
L 186.629417 114.184461 
L 186.586019 113.590563 
L 187.074457 113.25657 
L 187.03106 112.662673 
L 187.519498 112.328681 
L 187.476101 111.734783 
L 187.964541 111.400792 
L 188.496377 111.660698 
L 188.984817 111.326708 
L 188.941421 110.732811 
L 189.429861 110.398821 
L 189.386466 109.804924 
L 189.874907 109.470934 
L 189.831512 108.877037 
L 190.319954 108.543049 
L 190.85179 108.802957 
L 191.340232 108.46897 
L 191.296838 107.875073 
L 191.785281 107.541086 
L 191.741887 106.947189 
L 192.23033 106.613202 
L 192.186937 106.019306 
L 191.6551 105.759396 
L 191.611706 105.165499 
L 192.100151 104.831513 
L 192.056757 104.237616 
L 191.524918 103.977706 
L 191.481524 103.383809 
L 191.96997 103.049823 
L 191.926576 102.455927 
L 191.394736 102.196016 
L 191.351342 101.602119 
L 190.8195 101.342209 
L 190.776105 100.748312 
L 190.244263 100.488402 
L 190.200867 99.894505 
L 189.669024 99.634595 
L 189.180576 99.968583 
L 188.648731 99.708673 
L 188.605334 99.114776 
L 188.073489 98.854867 
L 187.58504 99.188856 
L 187.053194 98.928948 
L 186.564745 99.262937 
L 186.032898 99.003029 
L 185.54445 99.337019 
L 185.012602 99.077113 
L 184.524154 99.411104 
L 183.992305 99.151198 
L 183.948904 98.5573 
L 184.437353 98.223308 
L 184.393952 97.629411 
L 184.882402 97.29542 
L 185.414251 97.555327 
L 185.457651 98.149224 
L 185.989499 98.409132 
L 186.477948 98.075142 
L 187.009795 98.33505 
L 187.498244 98.001062 
L 188.030091 98.26097 
L 188.51854 97.926982 
L 189.050386 98.186892 
L 189.538836 97.852905 
L 190.070681 98.112815 
L 190.55913 97.778829 
L 191.090975 98.03874 
L 191.134369 98.632637 
L 191.666213 98.892548 
L 192.154662 98.558563 
L 192.686504 98.818475 
L 193.174953 98.484491 
L 193.706795 98.744403 
L 194.195245 98.41042 
L 194.727086 98.670334 
L 195.215535 98.336352 
L 195.172144 97.742456 
L 195.660594 97.408474 
L 196.192435 97.668389 
L 196.680885 97.334408 
L 196.637495 96.740512 
L 197.125946 96.406532 
L 197.082557 95.812637 
L 196.550715 95.552721 
L 196.507325 94.958826 
L 195.975483 94.698911 
L 195.932092 94.105015 
L 195.400249 93.8451 
L 195.356857 93.251205 
L 194.825013 92.99129 
L 194.781621 92.397394 
L 194.249775 92.13748 
L 193.761321 92.471461 
L 193.229475 92.211547 
L 192.741021 92.54553 
L 192.209174 92.285617 
L 192.16578 91.691721 
L 191.633931 91.431808 
L 191.590536 90.837911 
L 191.058687 90.577999 
L 190.570232 90.911983 
L 190.038382 90.652071 
L 189.549928 90.986056 
L 189.018076 90.726145 
L 188.529622 91.06013 
L 187.99777 90.80022 
L 187.954372 90.206323 
L 187.422519 89.946413 
L 186.934065 90.2804 
L 186.402211 90.02049 
L 185.913756 90.354478 
L 185.381902 90.094569 
L 185.338501 89.500672 
L 184.806646 89.240763 
L 184.318191 89.574752 
L 183.786334 89.314844 
L 183.29788 89.648834 
L 182.766023 89.388927 
L 182.72262 88.795029 
L 182.190761 88.535122 
L 181.702306 88.869114 
L 181.170447 88.609207 
L 180.681992 88.943199 
L 180.150132 88.683294 
L 179.661677 89.017287 
L 179.129817 88.757382 
L 179.086411 88.163484 
L 178.554549 87.903579 
L 178.511143 87.309681 
L 177.97928 87.049776 
L 177.490824 87.383771 
L 176.95896 87.123867 
L 176.915552 86.529969 
L 176.383687 86.270065 
L 176.340279 85.676166 
L 175.808413 85.416263 
L 175.319956 85.750259 
L 174.78809 85.490357 
L 174.744679 84.896458 
L 174.212812 84.636555 
L 174.169401 84.042656 
L 173.637532 83.782754 
L 173.594121 83.188855 
L 173.062251 82.928953 
L 173.018839 82.335054 
L 172.486968 82.075153 
L 172.443556 81.481253 
L 171.911684 81.221352 
L 171.868271 80.627453 
L 171.336397 80.367551 
L 171.292984 79.773652 
L 170.761109 79.513751 
L 170.717695 78.919852 
L 170.18582 78.659951 
L 169.697359 78.99395 
L 169.165482 78.73405 
L 169.122067 78.140151 
L 168.59019 77.880251 
L 168.546773 77.286351 
L 168.014895 77.026452 
L 167.971478 76.432552 
L 167.439599 76.172652 
L 166.951136 76.506654 
L 166.419256 76.246755 
L 166.375837 75.652855 
L 166.8643 75.318853 
L 166.820883 74.724953 
L 167.309346 74.390953 
L 167.265929 73.797053 
L 167.754394 73.463052 
L 167.710976 72.869153 
L 168.199442 72.535153 
L 168.156025 71.941253 
L 167.624142 71.681353 
L 167.580724 71.087453 
L 168.069191 70.753454 
L 168.025774 70.159554 
L 168.514241 69.825555 
L 168.470824 69.231656 
L 168.959292 68.897658 
L 168.915876 68.303758 
L 169.404344 67.969761 
L 169.360928 67.375861 
L 169.849398 67.041864 
L 170.381282 67.301767 
L 170.424697 67.895666 
L 169.936229 68.229663 
L 169.979644 68.823562 
L 170.511527 69.083465 
L 170.554942 69.677364 
L 170.066475 70.011361 
L 170.10989 70.60526 
L 169.621423 70.939258 
L 169.664839 71.533157 
L 169.176373 71.867155 
L 169.219789 72.461055 
L 169.75167 72.720956 
L 169.795085 73.314855 
L 169.30662 73.648854 
L 169.350036 74.242753 
L 169.881916 74.502654 
L 169.925331 75.096554 
L 169.436867 75.430553 
L 169.480283 76.024452 
L 170.012161 76.284353 
L 170.055576 76.878252 
L 170.587453 77.138153 
L 170.630867 77.732053 
L 171.162743 77.991954 
L 171.206157 78.585853 
L 171.738031 78.845755 
L 171.781445 79.439654 
L 172.313318 79.699556 
L 172.801779 79.365558 
L 173.333652 79.625461 
L 173.377064 80.21936 
L 173.908935 80.479262 
L 173.952347 81.073161 
L 174.484217 81.333064 
L 174.527628 81.926963 
L 175.059497 82.186866 
L 175.102907 82.780765 
L 175.634776 83.040668 
L 176.123234 82.706673 
L 176.655102 82.966577 
L 176.698511 83.560475 
L 177.230377 83.82038 
L 177.273785 84.414278 
L 177.805651 84.674183 
L 178.294108 84.340189 
L 178.825973 84.600094 
L 179.314431 84.266101 
L 179.846295 84.526007 
L 179.8897 85.119905 
L 180.421563 85.379811 
L 180.464968 85.973709 
L 180.99683 86.233616 
L 181.485287 85.899624 
L 182.017148 86.159531 
L 182.060551 86.753429 
L 182.592411 87.013336 
L 183.080868 86.679346 
L 183.612727 86.939254 
L 184.101183 86.605265 
L 184.633042 86.865174 
L 184.676443 87.459071 
L 185.2083 87.71898 
L 185.696756 87.384992 
L 186.228613 87.644902 
L 186.717069 87.310915 
L 187.248925 87.570825 
L 187.292323 88.164722 
L 187.824178 88.424633 
L 188.312634 88.090647 
L 188.844488 88.350558 
L 189.332944 88.016573 
L 189.864797 88.276485 
L 190.353253 87.942501 
L 190.885105 88.202414 
L 190.928501 88.79631 
L 191.460352 89.056223 
L 191.948808 88.72224 
L 192.480658 88.982154 
L 192.524052 89.57605 
L 193.055901 89.835964 
L 193.544357 89.501982 
L 194.076205 89.761897 
L 194.564661 89.427916 
L 195.096509 89.687831 
L 195.1399 90.281727 
L 195.671747 90.541642 
L 196.160202 90.207663 
L 196.692048 90.467579 
L 196.735438 91.061474 
L 197.267283 91.321391 
L 197.310672 91.915286 
L 197.842516 92.175203 
L 198.33097 91.841224 
L 198.862813 92.101142 
L 198.906201 92.695037 
L 199.438043 92.954955 
L 199.926497 92.620978 
L 200.458338 92.880896 
L 200.946792 92.54692 
L 201.478632 92.806839 
L 201.967086 92.472864 
L 201.923701 91.87897 
L 201.39186 91.61905 
L 201.348474 91.025156 
L 200.816632 90.765236 
L 200.773246 90.171342 
L 200.241403 89.911423 
L 200.198016 89.317528 
L 199.666172 89.057609 
L 199.622785 88.463714 
L 199.09094 88.203796 
L 199.047551 87.609901 
L 199.536009 87.275925 
L 200.067854 87.535844 
L 200.556312 87.201869 
L 201.088157 87.461789 
L 201.576615 87.127815 
L 201.533228 86.53392 
L 202.021687 86.199947 
L 201.978301 85.606052 
L 202.466761 85.272079 
L 202.423375 84.678185 
L 202.911835 84.344213 
L 203.44368 84.604135 
L 203.93214 84.270163 
L 204.463984 84.530086 
L 204.507368 85.12398 
L 205.039211 85.383903 
L 205.527671 85.049932 
L 206.059513 85.309856 
L 206.102895 85.903749 
L 206.634736 86.163673 
L 207.123195 85.829704 
L 207.079814 85.235811 
L 206.547973 84.975886 
L 206.504591 84.381993 
L 205.972748 84.122069 
L 205.929366 83.528175 
L 205.397522 83.268252 
L 205.354139 82.674358 
L 205.842601 82.340389 
L 205.799218 81.746495 
L 206.287681 81.412526 
L 206.819525 81.672451 
L 207.307988 81.338483 
L 207.839831 81.598409 
L 207.883212 82.192302 
L 208.415055 82.452228 
L 208.458435 83.046121 
L 208.990276 83.306047 
L 209.033656 83.89994 
L 209.565496 84.159866 
L 209.608875 84.753759 
L 209.120415 85.087725 
L 209.163794 85.681618 
L 208.675335 86.015586 
L 208.718715 86.609479 
L 209.250553 86.869404 
L 209.293932 87.463297 
L 209.82577 87.723223 
L 209.869148 88.317116 
L 209.38069 88.651083 
L 209.424069 89.244976 
L 208.935612 89.578944 
L 208.978991 90.172838 
L 208.490535 90.506806 
L 208.533915 91.100699 
L 208.045459 91.434668 
L 207.513623 91.174745 
L 207.025167 91.508715 
L 207.068548 92.102608 
L 207.600384 92.362531 
L 207.643764 92.956425 
L 208.175599 93.216349 
L 208.218978 93.810242 
L 208.750812 94.070166 
L 209.239266 93.736197 
L 209.771098 93.996121 
L 209.814476 94.590014 
L 210.346308 94.849939 
L 210.389686 95.443832 
L 209.901233 95.777801 
L 209.944611 96.371694 
L 210.476441 96.631618 
L 210.519818 97.225511 
L 210.031367 97.55948 
L 210.074744 98.153373 
L 210.606573 98.413297 
L 211.095024 98.079329 
L 211.626852 98.339254 
L 211.670228 98.933147 
L 212.202055 99.193072 
L 212.24543 99.786965 
L 211.75698 100.120933 
L 211.800357 100.714826 
L 212.332182 100.974751 
L 212.375557 101.568644 
L 211.887109 101.902612 
L 211.355284 101.642687 
L 210.866835 101.976656 
L 210.910212 102.570549 
L 210.421764 102.904519 
L 210.465141 103.498412 
L 209.976694 103.832383 
L 210.020072 104.426276 
L 209.531625 104.760247 
L 209.575003 105.35414 
L 210.106826 105.614063 
L 210.150204 106.207956 
L 210.682026 106.467879 
L 210.725403 107.061772 
L 210.236958 107.395743 
L 210.280335 107.989637 
L 210.812156 108.249559 
L 210.855532 108.843452 
L 210.367089 109.177423 
L 210.410465 109.771317 
L 209.922023 110.105289 
L 209.9654 110.699182 
L 210.497219 110.959104 
L 210.540595 111.552997 
L 210.052154 111.886969 
L 210.095531 112.480863 
L 210.627348 112.740785 
L 210.670725 113.334678 
L 211.202541 113.5946 
L 211.245917 114.188493 
L 211.777732 114.448415 
L 211.821107 115.042309 
L 212.352921 115.302231 
L 212.396296 115.896124 
L 212.928109 116.156046 
L 212.971483 116.74994 
L 213.503295 117.009862 
L 213.546668 117.603755 
L 214.078479 117.863678 
L 214.121852 118.457571 
L 214.653662 118.717495 
L 214.697034 119.311388 
L 215.228842 119.571311 
L 215.272214 120.165204 
L 215.804022 120.425127 
L 216.292458 120.091158 
L 216.824264 120.351083 
L 216.867635 120.944975 
L 217.39944 121.2049 
L 217.887876 120.870932 
L 218.41968 121.130857 
L 218.908116 120.79689 
L 219.43992 121.056816 
L 219.928356 120.72285 
L 220.460159 120.982777 
L 220.503526 121.576669 
L 221.035328 121.836596 
L 221.078695 122.430488 
L 221.610496 122.690415 
L 221.653862 123.284307 
L 222.185662 123.544234 
L 222.674096 123.21027 
L 223.205895 123.470198 
L 223.24926 124.06409 
L 223.781058 124.324018 
L 223.824421 124.91791 
L 224.356218 125.177838 
L 224.399582 125.77173 
L 224.931377 126.031658 
L 224.97474 126.62555 
L 225.506535 126.885479 
L 225.549897 127.47937 
L 226.08169 127.739299 
L 226.125052 128.333191 
L 226.656844 128.59312 
L 226.700205 129.187011 
L 227.231997 129.446941 
L 227.275357 130.040832 
L 227.807147 130.300762 
L 227.850507 130.894653 
L 227.362078 131.228614 
L 227.405438 131.822505 
L 227.937227 132.082435 
L 227.980586 132.676326 
L 227.492158 133.010288 
L 227.535518 133.604179 
L 228.067305 133.864108 
L 228.110665 134.457999 
L 228.642451 134.717929 
L 228.68581 135.31182 
L 229.217595 135.57175 
L 229.260953 136.165641 
L 229.792737 136.425571 
L 229.836095 137.019462 
L 230.367878 137.279392 
L 230.411235 137.873283 
L 230.943016 138.133213 
L 230.986373 138.727104 
L 231.518153 138.987035 
L 231.561509 139.580926 
L 232.093289 139.840856 
L 232.136644 140.434747 
L 232.668423 140.694678 
L 232.711777 141.288569 
L 233.243555 141.5485 
L 233.286909 142.142391 
L 233.818685 142.402322 
L 233.862039 142.996213 
L 234.393814 143.256144 
L 234.437167 143.850035 
L 234.968941 144.109967 
L 235.457362 143.776009 
L 235.989135 144.035942 
L 236.032486 144.629832 
L 236.564258 144.889765 
L 236.607609 145.483655 
L 237.13938 145.743588 
L 237.182731 146.337478 
L 237.714501 146.597412 
L 237.757851 147.191301 
L 238.289619 147.451235 
L 238.332969 148.045125 
L 237.84455 148.379081 
L 237.8879 148.972971 
L 238.419667 149.232904 
L 238.463016 149.826794 
L 238.994782 150.086728 
L 239.038131 150.680617 
L 239.569896 150.940551 
L 239.613244 151.534441 
L 240.145008 151.794375 
L 240.188355 152.388265 
L 240.720118 152.648199 
L 241.208533 152.314244 
L 241.740295 152.574179 
L 242.228711 152.240226 
L 242.760472 152.500161 
L 243.248888 152.166209 
L 243.780648 152.426145 
L 243.823992 153.020034 
L 244.355751 153.279971 
L 244.844167 152.946019 
L 245.375925 153.205956 
L 245.419268 153.799845 
L 245.951025 154.059783 
L 245.994368 154.653671 
L 246.526124 154.913609 
L 246.569465 155.507498 
L 247.10122 155.767436 
L 247.589634 155.433486 
L 248.121389 155.693425 
L 248.164729 156.287313 
L 248.696482 156.547252 
L 248.739822 157.14114 
L 249.271574 157.40108 
L 249.314913 157.994968 
L 249.846664 158.254907 
L 250.335076 157.920959 
L 250.866826 158.180899 
L 251.355239 157.846952 
L 251.886988 158.106893 
L 252.375401 157.772947 
L 252.332064 157.179059 
L 252.820478 156.845114 
L 253.352227 157.105056 
L 253.84064 156.771111 
L 254.372388 157.031054 
L 254.415723 157.624941 
L 253.92731 157.958885 
L 253.970645 158.552773 
L 253.482233 158.886718 
L 253.525568 159.480605 
L 253.037156 159.814551 
L 253.080492 160.408439 
L 252.592081 160.742385 
L 252.635417 161.336273 
L 252.147007 161.670219 
L 251.61526 161.410279 
L 251.12685 161.744227 
L 251.170187 162.338115 
L 250.681778 162.672063 
L 250.150031 162.412124 
L 249.661622 162.746073 
L 249.70496 163.339961 
L 250.236707 163.5999 
L 250.280045 164.193788 
L 250.81179 164.453727 
L 250.855127 165.047615 
L 251.386872 165.307554 
L 251.430208 165.901442 
L 251.961952 166.161382 
L 252.005288 166.75527 
L 252.53703 167.015209 
L 252.580365 167.609097 
L 253.112106 167.869037 
L 253.155441 168.462925 
L 253.687181 168.722865 
L 254.175586 168.388918 
L 254.707325 168.648859 
L 254.750659 169.242746 
L 255.282397 169.502687 
L 255.32573 170.096575 
L 255.857467 170.356516 
L 255.900799 170.950403 
L 256.432535 171.210345 
L 256.475866 171.804232 
L 257.007601 172.064174 
L 257.050932 172.658061 
L 257.582666 172.918003 
L 257.625996 173.51189 
L 258.157729 173.771832 
L 258.201059 174.365719 
L 258.73279 174.625662 
L 258.776119 175.219549 
L 259.30785 175.479492 
L 259.351178 176.073378 
L 259.882908 176.333321 
L 259.926236 176.927208 
L 260.457964 177.187151 
L 260.946364 176.853208 
L 261.478091 177.113152 
L 261.521418 177.707038 
L 262.053144 177.966983 
L 262.09647 178.560869 
L 262.628195 178.820813 
L 262.671521 179.4147 
L 263.203244 179.674644 
L 263.691643 179.340703 
L 263.648318 178.746817 
L 264.136717 178.412876 
L 264.66844 178.672821 
L 265.15684 178.338882 
L 265.113516 177.744996 
L 265.601916 177.411056 
L 266.133639 177.671003 
L 266.176962 178.264889 
L 266.708683 178.524836 
L 266.752006 179.118722 
L 267.283726 179.378669 
L 267.327048 179.972555 
L 267.858767 180.232502 
L 267.902088 180.826388 
L 268.433807 181.086336 
L 268.922205 180.752398 
L 269.453922 181.012347 
L 269.94232 180.678411 
L 270.474037 180.93836 
L 270.962436 180.604424 
L 271.494152 180.864374 
L 271.98255 180.53044 
L 272.514265 180.79039 
L 273.002664 180.456457 
L 272.959347 179.862572 
L 273.447746 179.528639 
L 273.979462 179.788591 
L 274.467861 179.454659 
L 274.999575 179.714611 
L 275.487974 179.38068 
L 276.019688 179.640633 
L 276.508087 179.306703 
L 277.0398 179.566657 
L 277.5282 179.232728 
L 278.059912 179.492682 
L 278.548312 179.158754 
L 279.080023 179.418709 
L 279.568423 179.084781 
L 280.100133 179.344737 
L 280.588533 179.010811 
L 281.120243 179.270768 
L 281.608643 178.936842 
L 281.565334 178.342959 
L 282.053735 178.009033 
L 282.585445 178.268991 
L 283.073846 177.935067 
L 283.030538 177.341184 
L 283.51894 177.00726 
L 284.050649 177.267219 
L 284.539051 176.933296 
L 284.495744 176.339414 
L 284.984147 176.005492 
L 285.515855 176.265452 
L 286.004258 175.931531 
L 285.960953 175.337648 
L 286.449356 175.003727 
L 286.981064 175.263689 
L 287.469468 174.929769 
L 287.426164 174.335887 
L 287.914568 174.001968 
L 287.871265 173.408086 
L 288.35967 173.074167 
L 288.316367 172.480285 
L 288.804772 172.146367 
L 288.761469 171.552486 
L 289.249876 171.218568 
L 289.206573 170.624686 
L 289.69498 170.290769 
L 290.226689 170.550734 
L 290.715096 170.216818 
L 291.246805 170.476783 
L 291.290105 171.070665 
L 291.821813 171.33063 
L 292.310219 170.996715 
L 292.841926 171.256682 
L 292.885225 171.850563 
L 293.41693 172.110529 
L 293.905337 171.776616 
L 294.437041 172.036583 
L 294.480339 172.630464 
L 295.012042 172.890431 
L 295.500448 172.556519 
L 296.032151 172.816487 
L 296.520557 172.482575 
L 297.052259 172.742544 
L 297.095554 173.336425 
L 297.627255 173.596394 
L 298.115661 173.262483 
L 298.647361 173.522453 
L 298.690655 174.116333 
L 299.222354 174.376303 
L 299.710759 174.042394 
L 300.242457 174.302365 
L 300.28575 174.896245 
L 299.797345 175.230154 
L 299.840638 175.824033 
L 300.372334 176.084004 
L 300.415626 176.677884 
L 299.927223 177.011793 
L 299.970515 177.605673 
L 300.502211 177.865643 
L 300.545503 178.459523 
L 300.0571 178.793433 
L 300.100393 179.387312 
L 299.611991 179.721223 
L 299.655284 180.315103 
L 300.186977 180.575072 
L 300.230269 181.168952 
L 299.741869 181.502862 
L 299.785161 182.096742 
L 299.296762 182.430653 
L 299.340055 183.024534 
L 298.851656 183.358445 
L 298.894949 183.952325 
L 298.406551 184.286238 
L 298.449844 184.880118 
L 297.961446 185.214031 
L 298.00474 185.807911 
L 297.516343 186.141824 
L 297.559638 186.735705 
L 298.091328 186.995672 
L 298.134621 187.589552 
L 297.646226 187.923466 
L 297.68952 188.517346 
L 298.221208 188.777313 
L 298.264502 189.371194 
L 298.796189 189.631161 
L 298.839482 190.225041 
L 298.351088 190.558955 
L 298.394381 191.152835 
L 298.926067 191.412802 
L 298.96936 192.006682 
L 298.480967 192.340596 
L 298.52426 192.934477 
L 299.055945 193.194443 
L 299.099237 193.788324 
L 299.63092 194.04829 
L 299.674212 194.642171 
L 300.205894 194.902137 
L 300.249186 195.496018 
L 299.760795 195.829931 
L 299.804087 196.423812 
L 300.335768 196.683778 
L 300.379059 197.277659 
L 299.89067 197.611573 
L 299.933961 198.205453 
L 300.465641 198.465419 
L 300.508931 199.0593 
L 300.020544 199.393214 
L 300.063835 199.987094 
L 300.595513 200.24706 
L 300.638803 200.840941 
L 300.150417 201.174855 
L 299.618739 200.91489 
L 299.575448 200.321009 
L 299.043769 200.061044 
L 298.555382 200.394959 
L 298.023703 200.134995 
L 297.535316 200.468911 
L 297.003636 200.208947 
L 296.960342 199.615066 
L 296.428661 199.355102 
L 295.940273 199.68902 
L 295.408591 199.429057 
L 295.365296 198.835176 
L 294.833613 198.575213 
L 294.345225 198.909132 
L 293.813541 198.64917 
L 293.325154 198.98309 
L 292.793469 198.723128 
L 292.305082 199.057049 
L 292.34838 199.650931 
L 292.880064 199.910892 
L 292.923362 200.504774 
L 292.434976 200.838695 
L 292.478274 201.432576 
L 291.989888 201.766498 
L 292.033186 202.36038 
L 291.544802 202.694302 
L 291.5881 203.288184 
L 291.099716 203.622107 
L 291.143015 204.215989 
L 290.654632 204.549913 
L 290.697931 205.143795 
L 290.209548 205.477719 
L 290.252848 206.071601 
L 289.764466 206.405526 
L 289.232784 206.145568 
L 288.744402 206.479494 
L 288.21272 206.219537 
L 287.724338 206.553463 
L 287.192655 206.293507 
L 287.149352 205.699624 
L 286.617668 205.439668 
L 286.129286 205.773596 
L 285.597601 205.513641 
L 285.109219 205.847569 
L 284.577533 205.587615 
L 284.089151 205.921544 
L 283.557464 205.66159 
L 283.069083 205.995521 
L 283.112389 206.589404 
L 282.624008 206.923335 
L 282.667314 207.517219 
L 282.178934 207.85115 
L 282.22224 208.445034 
L 282.753926 208.704986 
L 282.797232 209.29887 
L 282.308853 209.632802 
L 282.352159 210.226685 
L 282.883843 210.486637 
L 282.927149 211.080521 
L 283.458832 211.340473 
L 283.502137 211.934357 
L 283.01376 212.268289 
L 283.057066 212.862173 
L 283.588747 213.122125 
L 283.632052 213.716008 
L 283.143676 214.04994 
L 283.186982 214.643824 
L 283.718662 214.903776 
L 283.761967 215.49766 
L 283.273592 215.831592 
L 282.741912 215.571641 
L 282.253538 215.905574 
L 282.296843 216.499458 
L 282.828523 216.759409 
L 282.871828 217.353293 
L 282.383455 217.687226 
L 282.426761 218.28111 
L 281.938388 218.615044 
L 281.981694 219.208928 
L 282.513372 219.468878 
L 282.556677 220.062762 
L 283.088354 220.322713 
L 283.131659 220.916597 
L 283.663334 221.176547 
L 283.706639 221.770431 
L 284.238313 222.030382 
L 284.281617 222.624266 
L 284.81329 222.884217 
L 284.856593 223.4781 
L 285.388265 223.738051 
L 285.431568 224.331935 
L 285.963239 224.591887 
L 286.006541 225.18577 
L 285.518173 225.519703 
L 285.561475 226.113586 
L 285.073108 226.447519 
L 285.116411 227.041403 
L 284.628044 227.375337 
L 284.671347 227.969221 
L 284.182981 228.303155 
L 284.226285 228.897039 
L 283.737919 229.230974 
L 283.781223 229.824858 
L 284.312891 230.084807 
L 284.356194 230.678692 
L 284.887861 230.938641 
L 284.931164 231.532525 
L 284.4428 231.86646 
L 284.486103 232.460344 
L 283.997741 232.794279 
L 284.041044 233.388164 
L 283.552682 233.722099 
L 283.021016 233.462152 
L 282.977712 232.868267 
L 282.446045 232.608319 
L 281.957682 232.942257 
L 282.000987 233.536141 
L 281.512626 233.870079 
L 281.555931 234.463964 
L 282.087597 234.72391 
L 282.130902 235.317795 
L 281.642542 235.651733 
L 281.685847 236.245618 
L 281.197487 236.579556 
L 280.665822 236.319611 
L 280.177462 236.65355 
L 280.220768 237.247435 
L 279.732409 237.581375 
L 279.200743 237.321431 
L 279.157436 236.727546 
L 278.625769 236.467601 
L 278.582461 235.873716 
L 278.050793 235.613772 
L 277.562433 235.947713 
L 277.030764 235.68777 
L 276.542404 236.021713 
L 276.010734 235.76177 
L 275.522375 236.095713 
L 275.565685 236.689599 
L 276.097355 236.949541 
L 276.140665 237.543427 
L 276.672333 237.803369 
L 276.715643 238.397255 
L 276.227285 238.731199 
L 276.270595 239.325084 
L 275.782237 239.659028 
L 275.825548 240.252914 
L 276.357214 240.512856 
L 276.400524 241.106742 
L 276.932189 241.366684 
L 276.975498 241.960569 
L 277.507162 242.220511 
L 277.550471 242.814397 
L 278.082134 243.074339 
L 278.570489 242.740397 
L 279.102151 243.00034 
L 279.145458 243.594225 
L 279.67712 243.854169 
L 279.720426 244.448054 
L 280.252086 244.707997 
L 280.74044 244.374056 
L 281.2721 244.634 
L 281.760454 244.30006 
L 282.292112 244.560005 
L 282.335416 245.15389 
L 282.867074 245.413835 
L 282.910377 246.00772 
L 283.442034 246.267665 
L 283.930387 245.933726 
L 284.462042 246.193673 
L 284.505344 246.787557 
L 285.036999 247.047503 
L 285.0803 247.641388 
L 285.611954 247.901335 
L 285.655255 248.495219 
L 286.186907 248.755166 
L 286.230207 249.34905 
L 286.761858 249.608997 
L 286.805158 250.202881 
L 287.336808 250.462829 
L 287.380107 251.056713 
L 287.911756 251.31666 
L 288.400106 250.982724 
L 288.931754 251.242672 
L 288.975052 251.836556 
L 289.506699 252.096505 
L 289.549996 252.690388 
L 290.081642 252.950337 
L 290.569991 252.616403 
L 291.101636 252.876352 
L 291.144932 253.470235 
L 291.676576 253.730185 
L 292.164925 253.396252 
L 292.696568 253.656202 
L 293.184917 253.322269 
L 293.716559 253.58222 
L 293.759852 254.176104 
L 294.291494 254.436055 
L 294.779842 254.102123 
L 295.311483 254.362075 
L 295.799831 254.028145 
L 296.331471 254.288098 
L 296.81982 253.954168 
L 297.351459 254.214121 
L 297.839808 253.880193 
L 298.371446 254.140147 
L 298.859795 253.806219 
L 299.391432 254.066174 
L 299.879781 253.732247 
L 300.411418 253.992202 
L 300.899767 253.658276 
L 301.431403 253.918233 
L 301.47469 254.512114 
L 302.006325 254.772071 
L 302.494674 254.438146 
L 303.026308 254.698103 
L 303.514657 254.364179 
L 304.04629 254.624137 
L 304.089574 255.218019 
L 303.601226 255.551942 
L 303.64451 256.145824 
L 304.176142 256.405781 
L 304.219426 256.999663 
L 303.731079 257.333587 
L 303.774363 257.927468 
L 304.305993 258.187425 
L 304.349277 258.781307 
L 304.880906 259.041264 
L 305.369252 258.707341 
L 305.900881 258.967299 
L 305.944163 259.561181 
L 305.455817 259.895104 
L 304.924189 259.635146 
L 304.435844 259.96907 
L 303.904215 259.709113 
L 303.860931 259.115231 
L 303.329301 258.855274 
L 303.286016 258.261393 
L 302.754385 258.001436 
L 302.7111 257.407554 
L 302.179468 257.147598 
L 301.691121 257.481524 
L 301.159488 257.221568 
L 300.671141 257.555494 
L 300.139507 257.295539 
L 299.651161 257.629467 
L 299.119526 257.369513 
L 298.63118 257.703441 
L 298.674468 258.297323 
L 298.186122 258.631252 
L 298.229412 259.225135 
L 297.741066 259.559064 
L 297.209432 259.299112 
L 296.721087 259.633042 
L 296.189451 259.37309 
L 295.701107 259.707022 
L 295.169471 259.44707 
L 294.681126 259.781003 
L 294.724418 260.374886 
L 294.236074 260.708818 
L 294.279366 261.302702 
L 294.811002 261.562652 
L 294.854294 262.156535 
L 295.385928 262.416486 
L 295.429219 263.010369 
L 295.960853 263.270319 
L 296.449195 262.936387 
L 296.980827 263.196339 
L 297.024117 263.790222 
L 297.555748 264.050173 
L 297.599038 264.644056 
L 298.130668 264.904008 
L 298.173957 265.497891 
L 298.705586 265.757843 
L 298.748874 266.351725 
L 299.280502 266.611678 
L 299.323789 267.20556 
L 299.855416 267.465513 
L 299.898703 268.059395 
L 300.430329 268.319348 
L 300.473615 268.91323 
L 299.985277 269.24716 
L 300.028564 269.841042 
L 300.560188 270.100995 
L 300.603474 270.694877 
L 301.135097 270.95483 
L 301.178383 271.548712 
L 300.690046 271.882642 
L 300.733332 272.476524 
L 301.264954 272.736477 
L 301.308239 273.330359 
L 301.83986 273.590312 
L 301.883145 274.184194 
L 301.39481 274.518124 
L 301.438095 275.112006 
L 301.969714 275.371959 
L 302.012999 275.965841 
L 302.544617 276.225794 
L 302.587901 276.819676 
L 303.119517 277.079629 
L 303.162801 277.673511 
L 302.674468 278.00744 
L 302.717752 278.601323 
L 302.22942 278.935253 
L 302.272705 279.529135 
L 301.784373 279.863066 
L 301.827658 280.456948 
L 301.339328 280.790879 
L 301.382612 281.384762 
L 301.914227 281.644713 
L 301.957511 282.238596 
L 301.469182 282.572527 
L 301.512466 283.16641 
L 301.024138 283.500342 
L 300.492524 283.240391 
L 300.004196 283.574324 
L 299.472582 283.314375 
L 298.984253 283.648309 
L 299.02754 284.242192 
L 298.539213 284.576126 
L 298.007598 284.316178 
L 297.51927 284.650113 
L 297.562558 285.243997 
L 297.074232 285.577932 
L 297.11752 286.171816 
L 296.629194 286.505752 
L 296.672483 287.099636 
L 296.184158 287.433573 
L 296.227447 288.027457 
L 295.739122 288.361394 
L 295.782411 288.955278 
L 295.294087 289.289216 
L 295.337377 289.8831 
L 295.86899 290.143046 
L 295.912279 290.736929 
L 296.44389 290.996875 
L 296.487179 291.590759 
L 297.018789 291.850705 
L 297.062077 292.444588 
L 296.573756 292.778526 
L 296.617044 293.37241 
L 297.148653 293.632356 
L 297.191941 294.226239 
L 296.703621 294.560177 
L 296.746909 295.154061 
L 296.258589 295.488 
L 295.726981 295.228055 
L 295.683692 294.634171 
L 295.152082 294.374227 
L 295.108793 293.780343 
L 294.577182 293.520399 
L 294.533892 292.926515 
L 295.022214 292.592575 
L 294.978924 291.998691 
L 294.447312 291.738747 
L 294.404021 291.144863 
L 293.872408 290.884918 
L 293.829117 290.291034 
L 294.317441 289.957094 
L 294.27415 289.36321 
L 294.762474 289.029271 
L 294.719183 288.435387 
L 294.187569 288.175442 
L 294.144278 287.581558 
L 294.632603 287.24762 
L 294.589312 286.653736 
L 295.077638 286.319797 
L 295.034348 285.725914 
L 294.502731 285.465968 
L 294.45944 284.872084 
L 294.947767 284.538146 
L 294.904477 283.944262 
L 295.392805 283.610325 
L 295.349514 283.016441 
L 295.837843 282.682504 
L 295.794553 282.088621 
L 295.262934 281.828674 
L 295.219644 281.23479 
L 294.688024 280.974843 
L 294.644733 280.38096 
L 294.113112 280.121013 
L 293.624782 280.454951 
L 293.09316 280.195005 
L 292.60483 280.528944 
L 292.073208 280.268999 
L 292.029914 279.675115 
L 291.498291 279.41517 
L 291.454997 278.821286 
L 290.923372 278.561341 
L 290.880078 277.967457 
L 290.348452 277.707512 
L 290.305157 277.113628 
L 289.77353 276.853684 
L 289.285198 277.187625 
L 288.75357 276.927681 
L 288.710273 276.333797 
L 288.178644 276.073853 
L 287.690312 276.407795 
L 287.158682 276.147853 
L 286.67035 276.481796 
L 286.13872 276.221854 
L 285.650388 276.555798 
L 285.118756 276.295857 
L 284.630424 276.629801 
L 284.098792 276.369861 
L 283.610461 276.703806 
L 283.078828 276.443867 
L 282.590496 276.777813 
L 282.633798 277.371699 
L 282.145467 277.705646 
L 281.613834 277.445707 
L 281.125503 277.779655 
L 280.593869 277.519718 
L 280.550566 276.925832 
L 280.01893 276.665894 
L 279.975626 276.072008 
L 279.44399 275.812071 
L 279.400685 275.218184 
L 278.869048 274.958247 
L 278.380716 275.292197 
L 277.849077 275.032261 
L 277.360745 275.366211 
L 277.404052 275.960098 
L 276.91572 276.294049 
L 276.384082 276.034114 
L 276.340774 275.440227 
L 275.809135 275.180292 
L 275.320803 275.514245 
L 274.789163 275.25431 
L 274.300831 275.588264 
L 274.34414 276.182151 
L 273.855809 276.516105 
L 273.899119 277.109992 
L 273.410788 277.443946 
L 272.879148 277.184014 
L 272.835837 276.590126 
L 272.304196 276.330194 
L 271.815865 276.66415 
L 271.284223 276.404218 
L 270.795892 276.738175 
L 270.264249 276.478244 
L 269.775919 276.812201 
L 269.244275 276.552271 
L 268.755944 276.886229 
L 268.2243 276.6263 
L 268.180985 276.032412 
L 267.649339 275.772482 
L 267.606024 275.178594 
L 267.074377 274.918665 
L 267.031061 274.324777 
L 266.499413 274.064848 
L 266.456097 273.47096 
L 266.944429 273.137 
L 266.901113 272.543112 
L 267.389447 272.209153 
L 267.346131 271.615264 
L 266.814481 271.355335 
L 266.771165 270.761447 
L 266.239514 270.501517 
L 266.196197 269.907629 
L 265.664545 269.6477 
L 265.17621 269.98166 
L 264.644557 269.721731 
L 264.156222 270.055692 
L 264.199541 270.649581 
L 264.731194 270.909509 
L 264.774512 271.503398 
L 264.286178 271.837359 
L 264.329497 272.431247 
L 263.841164 272.765209 
L 263.309512 272.505282 
L 262.82118 272.839245 
L 262.289527 272.579318 
L 262.246207 271.985429 
L 261.714553 271.725503 
L 261.671232 271.131614 
L 261.139578 270.871688 
L 261.096256 270.277799 
L 260.5646 270.017874 
L 260.521278 269.423984 
L 259.989621 269.164059 
L 259.501287 269.498024 
L 258.969629 269.238099 
L 258.481294 269.572065 
L 257.949636 269.312141 
L 257.906311 268.718251 
L 257.374652 268.458327 
L 257.331327 267.864437 
L 256.799666 267.604514 
L 256.311331 267.938481 
L 255.779669 267.678558 
L 255.736343 267.084668 
L 255.20468 266.824746 
L 254.716344 267.158714 
L 254.184681 266.898792 
L 253.696345 267.232761 
L 253.739673 267.826652 
L 253.251338 268.160621 
L 252.719674 267.900701 
L 252.676345 267.30681 
L 252.14468 267.04689 
L 252.101351 266.452999 
L 251.569685 266.193079 
L 251.526354 265.599188 
L 250.994687 265.339268 
L 250.506351 265.67324 
L 249.974683 265.413321 
L 249.931351 264.81943 
L 249.399682 264.559511 
L 249.35635 263.96562 
L 248.824679 263.705701 
L 248.781347 263.11181 
L 248.249675 262.851891 
L 248.206342 262.258 
L 247.674669 261.998082 
L 247.631335 261.40419 
L 247.099662 261.144272 
L 247.056327 260.550381 
L 246.524653 260.290463 
L 246.036313 260.624437 
L 245.504638 260.36452 
L 245.461302 259.770628 
L 244.929625 259.510711 
L 244.441285 259.844687 
L 243.909608 259.584771 
L 243.86627 258.990879 
L 244.354611 258.656903 
L 244.311274 258.063011 
L 244.799615 257.729036 
L 244.756278 257.135144 
L 244.224599 256.875227 
L 244.181262 256.281335 
L 243.649582 256.021419 
L 243.606244 255.427527 
L 243.074562 255.16761 
L 242.586219 255.501586 
L 242.054537 255.241671 
L 242.011198 254.647779 
L 242.499541 254.313802 
L 242.456202 253.71991 
L 242.944546 253.385934 
L 242.901208 252.792042 
L 242.369524 252.532126 
L 242.326184 251.938234 
L 242.81453 251.604258 
L 242.771191 251.010366 
L 242.239506 250.75045 
L 242.196166 250.156558 
L 241.66448 249.896641 
L 241.621139 249.302749 
L 241.089452 249.042833 
L 241.046111 248.448941 
L 241.534459 248.114965 
L 241.491119 247.521073 
L 240.95943 247.261156 
L 240.916089 246.667264 
L 240.384398 246.407348 
L 239.896049 246.741324 
L 239.364358 246.481409 
L 239.321016 245.887516 
L 238.789324 245.627601 
L 238.300975 245.961578 
L 237.769282 245.701664 
L 237.725938 245.107771 
L 237.194244 244.847857 
L 237.150899 244.253964 
L 237.63925 243.919986 
L 237.595906 243.326093 
L 237.06421 243.066178 
L 237.020866 242.472286 
L 236.489169 242.212371 
L 236.000818 242.54635 
L 235.46912 242.286436 
L 235.425774 241.692543 
L 234.894076 241.43263 
L 234.850729 240.838737 
L 234.319029 240.578824 
L 234.275682 239.98493 
L 233.743981 239.725017 
L 233.255628 240.058998 
L 232.723927 239.799086 
L 232.680578 239.205192 
L 232.148875 238.94528 
L 232.105526 238.351387 
L 232.59388 238.017406 
L 232.550531 237.423512 
L 232.018827 237.1636 
L 231.975478 236.569706 
L 231.443773 236.309794 
L 231.400423 235.715901 
L 230.868716 235.455989 
L 230.825366 234.862095 
L 230.293658 234.602184 
L 230.250307 234.00829 
L 229.718599 233.748378 
L 229.675247 233.154485 
L 229.143537 232.894573 
L 229.100185 232.30068 
L 228.568474 232.040769 
L 228.525121 231.446875 
L 227.993409 231.186964 
L 227.950056 230.59307 
L 227.418343 230.33316 
L 227.374989 229.739265 
L 226.843274 229.479355 
L 226.79992 228.885461 
L 226.268205 228.625551 
L 226.224849 228.031657 
L 226.71321 227.697673 
L 226.669856 227.103779 
L 226.138139 226.843868 
L 226.094783 226.249974 
L 225.563066 225.990064 
L 225.51971 225.39617 
L 224.987991 225.13626 
L 224.944634 224.542366 
L 224.412914 224.282456 
L 224.369557 223.688562 
L 223.837836 223.428652 
L 223.794478 222.834758 
L 224.282843 222.500773 
L 224.239485 221.906878 
L 223.707763 221.646969 
L 223.664405 221.053074 
L 223.132681 220.793165 
L 223.089322 220.19927 
L 222.557597 219.939361 
L 222.514238 219.345466 
L 221.982512 219.085558 
L 221.939153 218.491663 
L 221.407426 218.231754 
L 221.364065 217.637859 
L 221.852433 217.303873 
L 221.809074 216.709979 
L 221.277345 216.45007 
L 221.233985 215.856175 
L 220.702255 215.596266 
L 220.658894 215.002371 
L 220.127163 214.742463 
L 220.083801 214.148568 
L 219.552069 213.88866 
L 219.508707 213.294765 
L 218.976974 213.034857 
L 218.933612 212.440962 
L 218.401877 212.181054 
L 217.913506 212.515041 
L 217.381771 212.255134 
L 217.338407 211.661239 
L 217.826779 211.327251 
L 217.783415 210.733356 
L 217.251679 210.473448 
L 217.208314 209.879553 
L 216.676577 209.619646 
L 216.633212 209.025751 
L 217.121585 208.691763 
L 217.078221 208.097867 
L 217.566595 207.76388 
L 217.523231 207.169985 
L 218.011606 206.835998 
L 217.968242 206.242103 
L 218.456617 205.908117 
L 218.413254 205.314222 
L 217.881514 205.054313 
L 217.838149 204.460418 
L 217.306408 204.200509 
L 217.263044 203.606614 
L 216.731301 203.346706 
L 216.687936 202.752811 
L 217.176314 202.418824 
L 217.708057 202.678733 
L 218.196435 202.344747 
L 218.153071 201.750853 
L 218.641449 201.416868 
L 218.598086 200.822973 
L 218.066342 200.563063 
L 218.022978 199.969168 
L 218.511358 199.635183 
L 218.467994 199.041289 
L 218.956375 198.707304 
L 218.913011 198.11341 
L 218.381266 197.853499 
L 218.337902 197.259604 
L 218.826284 196.925621 
L 218.78292 196.331726 
L 218.251173 196.071815 
L 218.207809 195.47792 
L 218.696192 195.143937 
L 218.652828 194.550042 
L 219.141212 194.216059 
L 219.097849 193.622165 
L 218.5661 193.362253 
L 218.522736 192.768359 
L 217.990986 192.508447 
L 217.947621 191.914553 
L 217.41587 191.654641 
L 216.927485 191.988625 
L 216.395733 191.728715 
L 216.352367 191.13482 
L 215.820614 190.87491 
L 215.332228 191.208895 
L 214.800475 190.948985 
L 214.757107 190.35509 
L 214.225353 190.095181 
L 213.736966 190.429167 
L 213.205211 190.169259 
L 213.161842 189.575363 
L 212.630085 189.315455 
L 212.141699 189.649442 
L 211.609941 189.389535 
L 211.566571 188.795639 
L 211.034812 188.535732 
L 210.546425 188.869721 
L 210.014666 188.609814 
L 209.971294 188.015918 
L 209.439534 187.756011 
L 208.951146 188.090001 
L 208.419385 187.830096 
L 208.376012 187.236199 
L 207.84425 186.976294 
L 207.800875 186.382398 
L 207.269112 186.122492 
L 207.225737 185.528596 
L 207.714127 185.194605 
L 207.670752 184.600709 
L 207.138988 184.340804 
L 207.095612 183.746907 
L 206.563847 183.487002 
L 206.520471 182.893106 
L 207.008862 182.559115 
L 207.540628 182.819021 
L 208.02902 182.485031 
L 207.985645 181.891135 
L 208.474037 181.557145 
L 208.430663 180.963249 
L 207.898896 180.703342 
L 207.855522 180.109446 
L 207.323754 179.84954 
L 207.280379 179.255644 
L 207.768772 178.921654 
L 207.725397 178.327758 
L 208.213792 177.99377 
L 208.74556 178.253677 
L 209.233955 177.919689 
L 209.190581 177.325794 
L 209.678977 176.991806 
L 209.635603 176.397911 
L 209.103834 176.138002 
L 209.06046 175.544106 
L 209.548857 175.210119 
L 209.505483 174.616224 
L 208.973712 174.356315 
L 208.930338 173.762419 
L 208.398567 173.502511 
L 208.355192 172.908615 
L 207.823419 172.648707 
L 207.780044 172.054811 
L 207.24827 171.794903 
L 207.204894 171.201007 
L 206.673118 170.941099 
L 206.184719 171.275088 
L 205.652943 171.015181 
L 205.609566 170.421285 
L 205.077789 170.161378 
L 205.034411 169.567481 
L 204.502633 169.307575 
L 204.459254 168.713679 
L 203.927475 168.453772 
L 203.439074 168.787762 
L 202.907294 168.527857 
L 202.418893 168.861848 
L 201.887112 168.601943 
L 201.843732 168.008046 
L 202.332133 167.674055 
L 202.288753 167.080158 
L 201.75697 166.820253 
L 201.713589 166.226356 
L 201.181806 165.966451 
L 201.138424 165.372554 
L 200.60664 165.11265 
L 200.563257 164.518753 
L 200.031472 164.258848 
L 199.988089 163.664951 
L 199.456302 163.405047 
L 199.412919 162.81115 
L 198.881131 162.551246 
L 198.837747 161.957349 
L 199.326152 161.623356 
L 199.282769 161.029459 
L 198.750979 160.769555 
L 198.707595 160.175657 
L 199.196002 159.841665 
L 199.152618 159.247768 
L 198.620827 158.987863 
L 198.577443 158.393966 
L 198.045651 158.134062 
L 198.002266 157.540165 
L 197.470473 157.280261 
L 197.427087 156.686364 
L 197.915496 156.352371 
L 197.872111 155.758474 
L 197.340317 155.498569 
L 197.296931 154.904672 
L 197.785341 154.57068 
L 197.741956 153.976783 
L 197.21016 153.716878 
L 197.166774 153.122981 
L 196.634976 152.863076 
L 196.59159 152.269179 
L 196.059792 152.009275 
L 196.016405 151.415378 
L 196.504817 151.081385 
L 196.46143 150.487488 
L 196.949843 150.153495 
L 196.906457 149.559598 
L 197.394871 149.225607 
L 197.351485 148.63171 
L 196.819684 148.371804 
L 196.776298 147.777907 
L 197.264713 147.443916 
L 197.221327 146.850019 
L 196.689525 146.590113 
L 196.646138 145.996216 
L 197.134554 145.662225 
L 197.091168 145.068328 
L 196.559364 144.808422 
L 196.515977 144.214525 
L 195.984173 143.95462 
L 195.940785 143.360723 
L 195.408979 143.100817 
L 195.365591 142.50692 
L 194.833784 142.247015 
L 194.345366 142.581007 
L 193.813558 142.321103 
L 193.770169 141.727205 
L 194.258588 141.393213 
L 194.215199 140.799315 
L 193.683389 140.539411 
L 193.19497 140.873403 
L 192.66316 140.613499 
L 192.174741 140.947493 
L 191.64293 140.68759 
L 191.599538 140.093692 
L 191.067727 139.833789 
L 191.024335 139.239891 
L 190.492522 138.979988 
L 190.449129 138.38609 
L 189.917315 138.126188 
L 189.873922 137.53229 
L 190.362343 137.198295 
L 190.31895 136.604397 
L 189.787135 136.344494 
L 189.743741 135.750596 
M 200.294581 111.699682 
L 200.337967 112.293577 
L 199.849527 112.627558 
L 199.892913 113.221453 
L 200.424738 113.481368 
L 200.468123 114.075263 
L 200.999947 114.335177 
L 201.043332 114.929073 
L 201.575155 115.188988 
L 201.618539 115.782883 
L 202.150361 116.042798 
L 202.638799 115.708818 
L 202.595415 115.114923 
L 203.083854 114.780944 
L 203.040471 114.187049 
L 203.52891 113.853071 
L 203.485527 113.259176 
L 202.953705 112.999259 
L 202.910321 112.405364 
L 203.398762 112.071386 
L 203.355379 111.477491 
L 203.84382 111.143514 
L 203.800438 110.549619 
L 203.268613 110.289702 
L 203.22523 109.695807 
L 202.693404 109.43589 
L 202.204962 109.769868 
L 201.673135 109.509952 
L 201.184693 109.843931 
L 201.228078 110.437826 
L 200.739637 110.771806 
L 200.783022 111.365701 
L 200.294581 111.699682 
M 287.84433 264.456106 
L 287.35599 264.790045 
L 287.399288 265.38393 
L 287.930926 265.643875 
L 287.974224 266.237759 
L 287.485884 266.571699 
L 287.529182 267.165584 
L 288.060819 267.425528 
L 288.104116 268.019413 
L 288.635752 268.279357 
L 289.12409 267.945418 
L 289.655724 268.205363 
L 290.144062 267.871425 
L 290.100767 267.277541 
L 289.569132 267.017595 
L 289.525836 266.423711 
L 290.014175 266.089772 
L 289.970879 265.495888 
L 289.439243 265.235942 
L 288.950903 265.569881 
L 288.419266 265.309935 
L 288.375968 264.716051 
L 287.84433 264.456106 
L 287.84433 264.456106 
" clip-path="url(#pc2a2d4e03d)" style="fill: none; stroke: #ff0000; stroke-width: 0.7"/>
    <path d="M 172.519739 61.474501 
L 172.476325 60.880602 
L 171.944437 60.620697 
L 171.901023 60.026798 
L 172.389498 59.692805 
L 172.921386 59.952711 
L 172.964799 60.546609 
L 173.496686 60.806515 
L 173.540099 61.400414 
L 173.051626 61.734406 
L 172.519739 61.474501 
" clip-path="url(#pc2a2d4e03d)" style="fill: none; stroke: #ff0000; stroke-width: 0.7"/>
    <path d="M 170.48992 54.755798 
L 169.958025 54.495892 
L 169.914609 53.901994 
L 170.403088 53.568 
L 170.934983 53.827906 
L 170.978398 54.421804 
L 171.510292 54.68171 
L 171.553706 55.275609 
L 172.085599 55.535515 
L 172.129013 56.129413 
L 172.660904 56.38932 
L 172.704318 56.983218 
L 173.236208 57.243125 
L 173.279622 57.837023 
L 172.791146 58.171015 
L 172.834559 58.764914 
L 172.346084 59.098906 
L 171.814194 58.839001 
L 171.77078 58.245102 
L 171.238889 57.985197 
L 171.195474 57.391298 
L 171.683951 57.057305 
L 171.640536 56.463406 
L 171.108644 56.2035 
L 171.065229 55.609602 
L 170.533336 55.349696 
L 170.48992 54.755798 
" clip-path="url(#pc2a2d4e03d)" style="fill: none; stroke: #ff0000; stroke-width: 0.7"/>
    <path d="M 275.005706 278.223746 
L 275.494036 277.889792 
L 276.025674 278.149727 
L 276.068981 278.743614 
L 275.580652 279.077566 
L 275.049015 278.817633 
L 275.005706 278.223746 
" clip-path="url(#pc2a2d4e03d)" style="fill: none; stroke: #ff0000; stroke-width: 0.7"/>
   </g>
   <g id="matplotlib.axis_1">
    <g id="xtick_1">
     <g id="line2d_1">
      <defs>
       <path id="m73e5a9d46b" d="M 0 0 
L 0 3.5 
" style="stroke: #000000; stroke-width: 0.8"/>
      </defs>
      <g>
       <use xlink:href="#m73e5a9d46b" x="183.515587" y="307.584" style="stroke: #000000; stroke-width: 0.8"/>
      </g>
     </g>
     <g id="text_1">
      <!-- −0.05 -->
      <g transform="translate(168.192931 322.182437) scale(0.1 -0.1)">
       <defs>
        <path id="DejaVuSans-2212" d="M 678 2272 
L 4684 2272 
L 4684 1741 
L 678 1741 
L 678 2272 
z
" transform="scale(0.015625)"/>
        <path id="DejaVuSans-30" d="M 2034 4250 
Q 1547 4250 1301 3770 
Q 1056 3291 1056 2328 
Q 1056 1369 1301 889 
Q 1547 409 2034 409 
Q 2525 409 2770 889 
Q 3016 1369 3016 2328 
Q 3016 3291 2770 3770 
Q 2525 4250 2034 4250 
z
M 2034 4750 
Q 2819 4750 3233 4129 
Q 3647 3509 3647 2328 
Q 3647 1150 3233 529 
Q 2819 -91 2034 -91 
Q 1250 -91 836 529 
Q 422 1150 422 2328 
Q 422 3509 836 4129 
Q 1250 4750 2034 4750 
z
" transform="scale(0.015625)"/>
        <path id="DejaVuSans-2e" d="M 684 794 
L 1344 794 
L 1344 0 
L 684 0 
L 684 794 
z
" transform="scale(0.015625)"/>
        <path id="DejaVuSans-35" d="M 691 4666 
L 3169 4666 
L 3169 4134 
L 1269 4134 
L 1269 2991 
Q 1406 3038 1543 3061 
Q 1681 3084 1819 3084 
Q 2600 3084 3056 2656 
Q 3513 2228 3513 1497 
Q 3513 744 3044 326 
Q 2575 -91 1722 -91 
Q 1428 -91 1123 -41 
Q 819 9 494 109 
L 494 744 
Q 775 591 1075 516 
Q 1375 441 1709 441 
Q 2250 441 2565 725 
Q 2881 1009 2881 1497 
Q 2881 1984 2565 2268 
Q 2250 2553 1709 2553 
Q 1456 2553 1204 2497 
Q 953 2441 691 2322 
L 691 4666 
z
" transform="scale(0.015625)"/>
       </defs>
       <use xlink:href="#DejaVuSans-2212"/>
       <use xlink:href="#DejaVuSans-30" x="83.789062"/>
       <use xlink:href="#DejaVuSans-2e" x="147.412109"/>
       <use xlink:href="#DejaVuSans-30" x="179.199219"/>
       <use xlink:href="#DejaVuSans-35" x="242.822266"/>
      </g>
     </g>
    </g>
    <g id="xtick_2">
     <g id="line2d_2">
      <g>
       <use xlink:href="#m73e5a9d46b" x="234.009215" y="307.584" style="stroke: #000000; stroke-width: 0.8"/>
      </g>
     </g>
     <g id="text_2">
      <!-- −0.04 -->
      <g transform="translate(218.686559 322.182437) scale(0.1 -0.1)">
       <defs>
        <path id="DejaVuSans-34" d="M 2419 4116 
L 825 1625 
L 2419 1625 
L 2419 4116 
z
M 2253 4666 
L 3047 4666 
L 3047 1625 
L 3713 1625 
L 3713 1100 
L 3047 1100 
L 3047 0 
L 2419 0 
L 2419 1100 
L 313 1100 
L 313 1709 
L 2253 4666 
z
" transform="scale(0.015625)"/>
       </defs>
       <use xlink:href="#DejaVuSans-2212"/>
       <use xlink:href="#DejaVuSans-30" x="83.789062"/>
       <use xlink:href="#DejaVuSans-2e" x="147.412109"/>
       <use xlink:href="#DejaVuSans-30" x="179.199219"/>
       <use xlink:href="#DejaVuSans-34" x="242.822266"/>
      </g>
     </g>
    </g>
    <g id="xtick_3">
     <g id="line2d_3">
      <g>
       <use xlink:href="#m73e5a9d46b" x="284.502844" y="307.584" style="stroke: #000000; stroke-width: 0.8"/>
      </g>
     </g>
     <g id="text_3">
      <!-- −0.03 -->
      <g transform="translate(269.180188 322.182437) scale(0.1 -0.1)">
       <defs>
        <path id="DejaVuSans-33" d="M 2597 2516 
Q 3050 2419 3304 2112 
Q 3559 1806 3559 1356 
Q 3559 666 3084 287 
Q 2609 -91 1734 -91 
Q 1441 -91 1130 -33 
Q 819 25 488 141 
L 488 750 
Q 750 597 1062 519 
Q 1375 441 1716 441 
Q 2309 441 2620 675 
Q 2931 909 2931 1356 
Q 2931 1769 2642 2001 
Q 2353 2234 1838 2234 
L 1294 2234 
L 1294 2753 
L 1863 2753 
Q 2328 2753 2575 2939 
Q 2822 3125 2822 3475 
Q 2822 3834 2567 4026 
Q 2313 4219 1838 4219 
Q 1578 4219 1281 4162 
Q 984 4106 628 3988 
L 628 4550 
Q 988 4650 1302 4700 
Q 1616 4750 1894 4750 
Q 2613 4750 3031 4423 
Q 3450 4097 3450 3541 
Q 3450 3153 3228 2886 
Q 3006 2619 2597 2516 
z
" transform="scale(0.015625)"/>
       </defs>
       <use xlink:href="#DejaVuSans-2212"/>
       <use xlink:href="#DejaVuSans-30" x="83.789062"/>
       <use xlink:href="#DejaVuSans-2e" x="147.412109"/>
       <use xlink:href="#DejaVuSans-30" x="179.199219"/>
       <use xlink:href="#DejaVuSans-33" x="242.822266"/>
      </g>
     </g>
    </g>
    <g id="text_4">
     <!-- −1.001e2 -->
     <g transform="translate(263.399141 334.860562) scale(0.1 -0.1)">
      <defs>
       <path id="DejaVuSans-31" d="M 794 531 
L 1825 531 
L 1825 4091 
L 703 3866 
L 703 4441 
L 1819 4666 
L 2450 4666 
L 2450 531 
L 3481 531 
L 3481 0 
L 794 0 
L 794 531 
z
" transform="scale(0.015625)"/>
       <path id="DejaVuSans-65" d="M 3597 1894 
L 3597 1613 
L 953 1613 
Q 991 1019 1311 708 
Q 1631 397 2203 397 
Q 2534 397 2845 478 
Q 3156 559 3463 722 
L 3463 178 
Q 3153 47 2828 -22 
Q 2503 -91 2169 -91 
Q 1331 -91 842 396 
Q 353 884 353 1716 
Q 353 2575 817 3079 
Q 1281 3584 2069 3584 
Q 2775 3584 3186 3129 
Q 3597 2675 3597 1894 
z
M 3022 2063 
Q 3016 2534 2758 2815 
Q 2500 3097 2075 3097 
Q 1594 3097 1305 2825 
Q 1016 2553 972 2059 
L 3022 2063 
z
" transform="scale(0.015625)"/>
       <path id="DejaVuSans-32" d="M 1228 531 
L 3431 531 
L 3431 0 
L 469 0 
L 469 531 
Q 828 903 1448 1529 
Q 2069 2156 2228 2338 
Q 2531 2678 2651 2914 
Q 2772 3150 2772 3378 
Q 2772 3750 2511 3984 
Q 2250 4219 1831 4219 
Q 1534 4219 1204 4116 
Q 875 4013 500 3803 
L 500 4441 
Q 881 4594 1212 4672 
Q 1544 4750 1819 4750 
Q 2544 4750 2975 4387 
Q 3406 4025 3406 3419 
Q 3406 3131 3298 2873 
Q 3191 2616 2906 2266 
Q 2828 2175 2409 1742 
Q 1991 1309 1228 531 
z
" transform="scale(0.015625)"/>
      </defs>
      <use xlink:href="#DejaVuSans-2212"/>
      <use xlink:href="#DejaVuSans-31" x="83.789062"/>
      <use xlink:href="#DejaVuSans-2e" x="147.412109"/>
      <use xlink:href="#DejaVuSans-30" x="179.199219"/>
      <use xlink:href="#DejaVuSans-30" x="242.822266"/>
      <use xlink:href="#DejaVuSans-31" x="306.445312"/>
      <use xlink:href="#DejaVuSans-65" x="370.068359"/>
      <use xlink:href="#DejaVuSans-32" x="431.591797"/>
     </g>
    </g>
   </g>
   <g id="matplotlib.axis_2">
    <g id="ytick_1">
     <g id="line2d_4">
      <defs>
       <path id="m2f22260c82" d="M 0 0 
L -3.5 0 
" style="stroke: #000000; stroke-width: 0.8"/>
      </defs>
      <g>
       <use xlink:href="#m2f22260c82" x="159.397421" y="271.120137" style="stroke: #000000; stroke-width: 0.8"/>
      </g>
     </g>
     <g id="text_5">
      <!-- 25.41 -->
      <g transform="translate(123.769296 274.919356) scale(0.1 -0.1)">
       <use xlink:href="#DejaVuSans-32"/>
       <use xlink:href="#DejaVuSans-35" x="63.623047"/>
       <use xlink:href="#DejaVuSans-2e" x="127.246094"/>
       <use xlink:href="#DejaVuSans-34" x="159.033203"/>
       <use xlink:href="#DejaVuSans-31" x="222.65625"/>
      </g>
     </g>
    </g>
    <g id="ytick_2">
     <g id="line2d_5">
      <g>
       <use xlink:href="#m2f22260c82" x="159.397421" y="215.210608" style="stroke: #000000; stroke-width: 0.8"/>
      </g>
     </g>
     <g id="text_6">
      <!-- 25.42 -->
      <g transform="translate(123.769296 219.009827) scale(0.1 -0.1)">
       <use xlink:href="#DejaVuSans-32"/>
       <use xlink:href="#DejaVuSans-35" x="63.623047"/>
       <use xlink:href="#DejaVuSans-2e" x="127.246094"/>
       <use xlink:href="#DejaVuSans-34" x="159.033203"/>
       <use xlink:href="#DejaVuSans-32" x="222.65625"/>
      </g>
     </g>
    </g>
    <g id="ytick_3">
     <g id="line2d_6">
      <g>
       <use xlink:href="#m2f22260c82" x="159.397421" y="159.301079" style="stroke: #000000; stroke-width: 0.8"/>
      </g>
     </g>
     <g id="text_7">
      <!-- 25.43 -->
      <g transform="translate(123.769296 163.100297) scale(0.1 -0.1)">
       <use xlink:href="#DejaVuSans-32"/>
       <use xlink:href="#DejaVuSans-35" x="63.623047"/>
       <use xlink:href="#DejaVuSans-2e" x="127.246094"/>
       <use xlink:href="#DejaVuSans-34" x="159.033203"/>
       <use xlink:href="#DejaVuSans-33" x="222.65625"/>
      </g>
     </g>
    </g>
    <g id="ytick_4">
     <g id="line2d_7">
      <g>
       <use xlink:href="#m2f22260c82" x="159.397421" y="103.391549" style="stroke: #000000; stroke-width: 0.8"/>
      </g>
     </g>
     <g id="text_8">
      <!-- 25.44 -->
      <g transform="translate(123.769296 107.190768) scale(0.1 -0.1)">
       <use xlink:href="#DejaVuSans-32"/>
       <use xlink:href="#DejaVuSans-35" x="63.623047"/>
       <use xlink:href="#DejaVuSans-2e" x="127.246094"/>
       <use xlink:href="#DejaVuSans-34" x="159.033203"/>
       <use xlink:href="#DejaVuSans-34" x="222.65625"/>
      </g>
     </g>
    </g>
    <g id="ytick_5">
     <g id="line2d_8">
      <g>
       <use xlink:href="#m2f22260c82" x="159.397421" y="47.48202" style="stroke: #000000; stroke-width: 0.8"/>
      </g>
     </g>
     <g id="text_9">
      <!-- 25.45 -->
      <g transform="translate(123.769296 51.281239) scale(0.1 -0.1)">
       <use xlink:href="#DejaVuSans-32"/>
       <use xlink:href="#DejaVuSans-35" x="63.623047"/>
       <use xlink:href="#DejaVuSans-2e" x="127.246094"/>
       <use xlink:href="#DejaVuSans-34" x="159.033203"/>
       <use xlink:href="#DejaVuSans-35" x="222.65625"/>
      </g>
     </g>
    </g>
   </g>
   <g id="patch_3">
    <path d="M 159.397421 307.584 
L 159.397421 41.472 
" style="fill: none; stroke: #000000; stroke-width: 0.8; stroke-linejoin: miter; stroke-linecap: square"/>
   </g>
   <g id="patch_4">
    <path d="M 312.922579 307.584 
L 312.922579 41.472 
" style="fill: none; stroke: #000000; stroke-width: 0.8; stroke-linejoin: miter; stroke-linecap: square"/>
   </g>
   <g id="patch_5">
    <path d="M 159.397421 307.584 
L 312.922579 307.584 
" style="fill: none; stroke: #000000; stroke-width: 0.8; stroke-linejoin: miter; stroke-linecap: square"/>
   </g>
   <g id="patch_6">
    <path d="M 159.397421 41.472 
L 312.922579 41.472 
" style="fill: none; stroke: #000000; stroke-width: 0.8; stroke-linejoin: miter; stroke-linecap: square"/>
   </g>
  </g>
 </g>
 <defs>
  <clipPath id="pc2a2d4e03d">
   <rect x="159.397421" y="41.472" width="153.525158" height="266.112"/>
  </clipPath>
 </defs>
</svg>
