<?xml version="1.0" encoding="utf-8" standalone="no"?>
<!DOCTYPE svg PUBLIC "-//W3C//DTD SVG 1.1//EN"
  "http://www.w3.org/Graphics/SVG/1.1/DTD/svg11.dtd">
<svg xmlns:xlink="http://www.w3.org/1999/xlink" width="460.8pt" height="345.6pt" viewBox="0 0 460.8 345.6" xmlns="http://www.w3.org/2000/svg" version="1.1">
 <metadata>
  <rdf:RDF xmlns:dc="http://purl.org/dc/elements/1.1/" xmlns:cc="http://creativecommons.org/ns#" xmlns:rdf="http://www.w3.org/1999/02/22-rdf-syntax-ns#">
   <cc:Work>
    <dc:type rdf:resource="http://purl.org/dc/dcmitype/StillImage"/>
    <dc:date>2024-03-04T19:42:25.610821</dc:date>
    <dc:format>image/svg+xml</dc:format>
    <dc:creator>
     <cc:Agent>
      <dc:title>Matplotlib v3.8.0, https://matplotlib.org/</dc:title>
     </cc:Agent>
    </dc:creator>
   </cc:Work>
  </rdf:RDF>
 </metadata>
 <defs>
  <style type="text/css">*{stroke-linejoin: round; stroke-linecap: butt}</style>
 </defs>
 <g id="figure_1">
  <g id="patch_1">
   <path d="M 0 345.6 
L 460.8 345.6 
L 460.8 0 
L 0 0 
z
" style="fill: #ffffff"/>
  </g>
  <g id="axes_1">
   <g id="patch_2">
    <path d="M 158.322599 307.584 
L 313.997401 307.584 
L 313.997401 41.472 
L 158.322599 41.472 
z
" style="fill: #ffffff"/>
   </g>
   <g id="PatchCollection_1">
    <path d="M 176.125131 191.173723 
L 175.575024 189.906541 
L 176.399098 188.782253 
L 175.848989 187.515068 
L 174.474801 187.372173 
L 173.924685 186.104987 
L 174.748763 184.980695 
L 174.198647 183.713507 
L 175.022728 182.589214 
L 176.396926 182.732114 
L 177.22101 181.607824 
L 176.670897 180.340632 
L 177.494985 179.216342 
L 176.94487 177.949147 
L 175.570663 177.806243 
L 175.020542 176.539047 
L 173.646329 176.396146 
L 173.096203 175.128948 
L 171.721984 174.986049 
L 170.897896 176.110349 
L 169.523676 175.967454 
L 168.973539 174.700257 
L 167.599313 174.557364 
L 167.04917 173.290166 
L 167.873258 172.165858 
L 167.323113 170.898657 
L 165.948877 170.755764 
L 165.398726 169.488562 
L 166.222817 168.364251 
L 165.672665 167.097046 
L 166.496759 165.972734 
L 165.946605 164.705526 
L 166.770703 163.581214 
L 168.144953 163.724113 
L 168.969054 162.599804 
L 168.418904 161.332592 
L 169.243008 160.208283 
L 168.692856 158.941069 
L 169.516964 157.816759 
L 168.966811 156.549542 
L 169.790922 155.425231 
L 169.240768 154.158012 
L 170.064882 153.033701 
L 169.514726 151.766479 
L 168.140452 151.623569 
L 167.59029 150.356346 
L 168.414408 149.232031 
L 167.864245 147.964805 
L 168.688366 146.84049 
L 168.138201 145.573261 
L 168.962325 144.448946 
L 168.41216 143.181715 
L 169.236287 142.057398 
L 168.68612 140.790165 
L 169.510251 139.665848 
L 168.960082 138.398612 
L 169.784217 137.274294 
L 169.234047 136.007056 
L 170.058184 134.882738 
L 169.508013 133.615497 
L 170.332154 132.491178 
L 169.781981 131.223934 
L 170.606126 130.099616 
L 170.055952 128.832369 
L 170.880099 127.70805 
L 170.329924 126.440801 
L 171.154075 125.316481 
L 170.603898 124.04923 
L 171.428053 122.924909 
L 170.877874 121.657655 
L 171.702032 120.533335 
L 171.151853 119.266078 
L 169.777511 119.123143 
L 169.227326 117.855885 
L 170.051486 116.73156 
L 169.5013 115.464299 
L 170.325464 114.339975 
L 169.775276 113.072711 
L 170.599443 111.948386 
L 170.049254 110.68112 
L 170.873425 109.556794 
L 170.323234 108.289526 
L 168.948867 108.146584 
L 168.39867 106.879315 
L 169.222845 105.754985 
L 168.672646 104.487713 
L 169.496824 103.363382 
L 168.946624 102.096107 
L 169.770805 100.971777 
L 169.220604 99.704499 
L 170.044788 98.580168 
L 169.494586 97.312888 
L 170.318773 96.188556 
L 169.76857 94.921274 
L 170.592761 93.796941 
L 171.967156 93.939895 
L 172.79135 92.815566 
L 172.24115 91.54828 
L 173.065347 90.42395 
L 172.515145 89.156661 
L 171.140741 89.013703 
L 170.590533 87.746412 
L 171.414734 86.622079 
L 170.864525 85.354786 
L 171.688729 84.230452 
L 171.138518 82.963156 
L 171.962726 81.838822 
L 171.412514 80.571524 
L 170.03809 80.428561 
L 169.487872 79.161262 
L 170.312083 78.036924 
L 169.761863 76.769622 
L 170.586078 75.645283 
L 170.035857 74.377978 
L 170.860074 73.253639 
L 170.309852 71.986332 
L 171.134073 70.861992 
L 170.58385 69.594682 
L 171.408074 68.470342 
L 172.782522 68.613315 
L 173.60675 67.488978 
L 173.05653 66.221664 
L 173.880761 65.097326 
L 173.33054 63.83001 
L 174.154774 62.705672 
L 175.529231 62.848653 
L 176.353469 61.724318 
L 175.803251 60.456998 
L 176.627492 59.332662 
L 178.001953 59.47565 
L 178.826198 58.351317 
L 178.275983 57.083993 
L 179.100231 55.95966 
L 178.550014 54.692334 
L 179.374266 53.568 
L 180.748735 53.710996 
L 181.298947 54.978324 
L 182.67341 55.121323 
L 183.223616 56.38865 
L 182.399364 57.512976 
L 182.949569 58.7803 
L 184.324022 58.923299 
L 184.87422 60.190622 
L 186.248667 60.333623 
L 186.79886 61.600944 
L 188.173301 61.743947 
L 188.723488 63.011267 
L 190.097923 63.154272 
L 190.648104 64.421591 
L 192.022534 64.564599 
L 192.572709 65.831917 
L 193.947132 65.974926 
L 194.497301 67.242242 
L 193.673051 68.366548 
L 194.223219 69.633862 
L 195.597632 69.776872 
L 196.147794 71.044184 
L 197.522201 71.187196 
L 198.072357 72.454507 
L 199.446758 72.597521 
L 199.996908 73.864831 
L 201.371304 74.007847 
L 201.921448 75.275156 
L 203.295838 75.418174 
L 203.845976 76.685482 
L 205.22036 76.828502 
L 205.770492 78.095809 
L 204.946244 79.220093 
L 205.496375 80.487397 
L 206.870748 80.630417 
L 207.420873 81.89772 
L 208.795241 82.040742 
L 209.345359 83.308044 
L 210.719721 83.451068 
L 211.269834 84.718368 
L 212.64419 84.861395 
L 213.194297 86.128694 
L 214.568647 86.271723 
L 215.118748 87.53902 
L 216.493093 87.682052 
L 217.317341 86.557788 
L 216.767245 85.290489 
L 217.591497 84.166225 
L 218.965845 84.309262 
L 219.790101 83.185001 
L 219.240008 81.917698 
L 220.064267 80.793436 
L 221.438619 80.93648 
L 222.262881 79.812221 
L 221.712791 78.544915 
L 222.537057 77.420655 
L 221.986966 76.153346 
L 222.811235 75.029086 
L 224.185595 75.172139 
L 224.735682 76.439449 
L 226.110037 76.582504 
L 226.660117 77.849813 
L 228.034466 77.99287 
L 228.584541 79.260178 
L 227.760271 80.384428 
L 228.310345 81.651733 
L 229.684683 81.79479 
L 230.23475 83.062094 
L 231.609083 83.205153 
L 232.159144 84.472456 
L 231.334878 85.596698 
L 231.884938 86.863998 
L 233.25926 87.007058 
L 234.083527 85.882819 
L 233.533471 84.615517 
L 234.357741 83.491278 
L 235.732067 83.634343 
L 236.556341 82.510107 
L 236.006288 81.242802 
L 236.830565 80.118565 
L 238.204895 80.261637 
L 239.029175 79.137403 
L 240.403504 79.280479 
L 241.227788 78.156248 
L 242.602115 78.299329 
L 243.426403 77.175101 
L 242.876363 75.907789 
L 243.700654 74.783561 
L 245.074985 74.926648 
L 245.899279 73.802422 
L 247.273609 73.945514 
L 248.097907 72.821291 
L 249.472236 72.964387 
L 250.296538 71.840167 
L 251.670866 71.983267 
L 252.495171 70.859051 
L 253.869498 71.002155 
L 254.693806 69.877941 
L 254.143788 68.61062 
L 254.9681 67.486406 
L 254.41808 66.219083 
L 255.242395 65.094868 
L 254.692374 63.827542 
L 255.516693 62.703327 
L 254.96667 61.435998 
L 255.790992 60.311783 
L 255.240968 59.044452 
L 256.065294 57.920236 
L 257.439643 58.063355 
L 257.989663 59.330687 
L 259.364007 59.473809 
L 260.188336 58.349599 
L 261.562678 58.492725 
L 262.112687 59.760058 
L 263.487024 59.903185 
L 264.311357 58.778982 
L 265.685693 58.922114 
L 266.510029 57.797914 
L 267.884364 57.94105 
L 268.434358 59.208385 
L 269.808687 59.351523 
L 270.358674 60.618856 
L 271.732998 60.761996 
L 272.282979 62.029328 
L 271.458643 63.153518 
L 272.008623 64.420847 
L 273.382936 64.563987 
L 273.93291 65.831315 
L 275.307217 65.974458 
L 275.857185 67.241785 
L 277.231487 67.38493 
L 277.781449 68.652255 
L 276.957115 69.776434 
L 277.507076 71.043756 
L 278.881367 71.186901 
L 279.431322 72.454223 
L 278.606991 73.578398 
L 279.156945 74.845717 
L 280.531225 74.988862 
L 281.081173 76.256179 
L 282.455447 76.399326 
L 283.005389 77.666643 
L 284.379657 77.809792 
L 284.929593 79.077107 
L 286.303856 79.220259 
L 286.853786 80.487572 
L 288.228043 80.630726 
L 288.777967 81.898038 
L 290.152218 82.041194 
L 290.702136 83.308506 
L 292.076381 83.451664 
L 292.626293 84.718974 
L 294.000533 84.862134 
L 294.550439 86.129442 
L 295.924673 86.272605 
L 296.474573 87.539912 
L 297.848801 87.683077 
L 298.398695 88.950383 
L 299.772917 89.09355 
L 300.322805 90.360854 
L 301.697022 90.504023 
L 302.246904 91.771327 
L 301.422574 92.89546 
L 301.972455 94.162761 
L 303.346661 94.30593 
L 303.896536 95.57323 
L 303.07221 96.697359 
L 303.622083 97.964656 
L 302.797761 99.088785 
L 303.347633 100.35608 
L 304.721823 100.499247 
L 305.27169 101.76654 
L 304.44737 102.890665 
L 304.997235 104.157956 
L 306.371415 104.301123 
L 306.921274 105.568412 
L 306.096957 106.692533 
L 306.646815 107.95982 
L 305.822502 109.083941 
L 306.372358 110.351225 
L 305.548048 111.475345 
L 306.097903 112.742627 
L 305.273597 113.866747 
L 305.82345 115.134026 
L 304.999147 116.258145 
L 303.624991 116.114989 
L 302.800691 117.239111 
L 303.350548 118.506386 
L 302.526252 119.630508 
L 303.076107 120.897781 
L 302.251814 122.021902 
L 300.877666 121.878754 
L 300.053377 123.002879 
L 300.603236 124.270147 
L 299.77895 125.394271 
L 298.404806 125.25113 
L 297.580523 126.375257 
L 296.206378 126.23212 
L 295.382099 127.35625 
L 294.007953 127.213117 
L 293.183678 128.33725 
L 291.809531 128.194121 
L 290.985259 129.318257 
L 291.535134 130.585518 
L 290.710866 131.709653 
L 289.336723 131.566531 
L 288.512458 132.690669 
L 289.062336 133.957926 
L 288.238075 135.082064 
L 288.787952 136.349318 
L 287.963694 137.473456 
L 288.51357 138.740708 
L 287.689315 139.864844 
L 288.239189 141.132094 
L 287.414938 142.25623 
L 286.040812 142.113121 
L 285.216565 143.23726 
L 285.766442 144.504505 
L 284.942198 145.628644 
L 285.492074 146.895887 
L 284.667833 148.020025 
L 283.293716 147.876925 
L 282.469478 149.001066 
L 283.019357 150.268305 
L 282.195123 151.392446 
L 280.82101 151.249351 
L 279.996779 152.373495 
L 280.546662 153.64073 
L 279.722434 154.764874 
L 280.272316 156.032106 
L 279.448092 157.156249 
L 278.073987 157.013163 
L 277.249766 158.137309 
L 277.799651 159.404537 
L 276.975434 160.528683 
L 275.601332 160.385603 
L 274.777119 161.509752 
L 275.327006 162.776976 
L 274.502796 163.901124 
L 275.052682 165.168346 
L 274.228476 166.292494 
L 272.854383 166.149423 
L 272.030179 167.273573 
L 272.580069 168.540791 
L 271.755869 169.664941 
L 272.305757 170.932157 
L 271.48156 172.056306 
L 270.107476 171.913244 
L 269.283283 173.037396 
L 269.833174 174.304608 
L 271.207254 174.447668 
L 271.757139 175.714878 
L 270.93295 176.839027 
L 271.482833 178.106234 
L 270.658647 179.230383 
L 271.20853 180.497588 
L 270.384347 181.621735 
L 270.934228 182.888938 
L 270.110048 184.013085 
L 270.659928 185.280285 
L 269.835751 186.404432 
L 270.38563 187.671629 
L 271.75968 187.814681 
L 272.309553 189.081877 
L 271.485379 190.206019 
L 272.035251 191.473213 
L 271.211081 192.597355 
L 271.76095 193.864546 
L 270.936784 194.988688 
L 271.486652 196.255876 
L 270.662489 197.380017 
L 271.212356 198.647203 
L 270.388196 199.771344 
L 269.01417 199.628303 
L 268.190014 200.752447 
L 268.739884 202.019628 
L 267.915731 203.143772 
L 268.4656 204.410951 
L 267.64145 205.535094 
L 268.191318 206.80227 
L 267.367172 207.926413 
L 267.917038 209.193587 
L 269.291045 209.336619 
L 269.840905 210.603792 
L 269.016762 211.727931 
L 269.566621 212.995101 
L 270.940618 213.138133 
L 271.490471 214.405302 
L 270.666331 215.529437 
L 271.216183 216.796603 
L 272.590169 216.939636 
L 273.140014 218.206801 
L 272.315878 219.330932 
L 272.865722 220.598094 
L 274.239698 220.741127 
L 274.789536 222.008288 
L 273.965403 223.132415 
L 274.515239 224.399573 
L 273.691109 225.523699 
L 274.240945 226.790855 
L 275.614905 226.933886 
L 276.164735 228.201041 
L 275.340608 229.325163 
L 275.890436 230.592315 
L 277.264386 230.735346 
L 277.814208 232.002497 
L 276.990085 233.126615 
L 277.539905 234.393763 
L 276.715785 235.517881 
L 277.265604 236.785027 
L 276.441487 237.909144 
L 276.991305 239.176287 
L 276.167192 240.300404 
L 276.717008 241.567545 
L 275.892898 242.691661 
L 276.442713 243.958799 
L 275.618607 245.082915 
L 276.16842 246.35005 
L 277.542336 246.493071 
L 278.092144 247.760204 
L 277.268041 248.884317 
L 275.894129 248.741299 
L 275.070029 249.865414 
L 275.61984 251.132544 
L 274.795744 252.256659 
L 275.345553 253.523786 
L 274.52146 254.6479 
L 275.071268 255.915025 
L 274.247178 257.039139 
L 274.796985 258.306261 
L 273.972899 259.430374 
L 274.522704 260.697494 
L 273.698621 261.821607 
L 272.324732 261.678603 
L 271.500653 262.802719 
L 272.050462 264.069835 
L 271.226385 265.19395 
L 269.8525 265.050953 
L 269.028428 266.175072 
L 269.578239 267.442183 
L 268.75417 268.566301 
L 267.380289 268.423311 
L 266.556223 269.547432 
L 267.106038 270.814539 
L 266.281976 271.93866 
L 266.831789 273.205765 
L 266.00773 274.329885 
L 264.633858 274.186903 
L 263.809802 275.311026 
L 262.435928 275.168048 
L 261.611876 276.292174 
L 260.238001 276.1492 
L 259.413953 277.273329 
L 258.040077 277.13036 
L 257.490245 275.86326 
L 256.116363 275.720293 
L 255.292318 276.844428 
L 253.918436 276.701466 
L 253.094395 277.825604 
L 251.720511 277.682645 
L 250.896473 278.806787 
L 249.522588 278.663832 
L 248.972737 277.396735 
L 247.598846 277.253783 
L 246.774812 278.377931 
L 245.40092 278.234983 
L 244.57689 279.359133 
L 243.202997 279.21619 
L 242.37897 280.340344 
L 241.005077 280.197404 
L 240.181053 281.321561 
L 238.807158 281.178626 
L 237.983138 282.302785 
L 236.609243 282.159855 
L 235.785226 283.284017 
L 234.411329 283.141091 
L 233.587316 284.265256 
L 232.213419 284.122334 
L 231.389409 285.246502 
L 230.01551 285.103584 
L 229.191504 286.227756 
L 227.817604 286.084842 
L 226.993602 287.209016 
L 227.5435 288.4761 
L 226.719501 289.600274 
L 225.345604 289.457367 
L 224.521609 290.581544 
L 223.147712 290.438641 
L 222.32372 291.56282 
L 220.949821 291.419922 
L 220.125833 292.544104 
L 218.751934 292.40121 
L 217.927949 293.525396 
L 216.554048 293.382506 
L 215.730067 294.506694 
L 214.356166 294.363809 
L 213.532188 295.488 
L 212.158285 295.345119 
L 211.608356 294.078044 
L 210.234448 293.935165 
L 209.684512 292.668089 
L 210.50849 291.54389 
L 209.958553 290.276812 
L 208.584634 290.133932 
L 208.034692 288.866852 
L 206.660767 288.723976 
L 206.110818 287.456894 
L 204.736888 287.314019 
L 204.186933 286.046937 
L 202.812997 285.904064 
L 202.263037 284.63698 
L 203.087017 283.512768 
L 202.537055 282.245682 
L 203.361038 281.121469 
L 202.811075 279.85438 
L 203.635062 278.730166 
L 203.085097 277.463075 
L 201.711141 277.320198 
L 201.16117 276.053105 
L 201.98516 274.928887 
L 201.435188 273.661792 
L 202.259182 272.537574 
L 201.709208 271.270476 
L 202.533205 270.146258 
L 201.98323 268.879157 
L 202.80723 267.754938 
L 202.257254 266.487835 
L 200.883273 266.344952 
L 200.333291 265.077847 
L 201.157294 263.953625 
L 200.607311 262.686517 
L 201.431318 261.562294 
L 200.881333 260.295185 
L 201.705343 259.170961 
L 201.155356 257.903849 
L 201.97937 256.779624 
L 201.429382 255.51251 
L 202.253399 254.388285 
L 201.70341 253.121167 
L 202.52743 251.996942 
L 201.97744 250.729822 
L 202.801463 249.605597 
L 204.175477 249.748495 
L 204.999504 248.624272 
L 204.449517 247.357148 
L 205.273548 246.232925 
L 204.723559 244.965798 
L 205.547593 243.841575 
L 206.921615 243.984481 
L 207.745653 242.860261 
L 207.195667 241.59313 
L 208.019708 240.468909 
L 209.393734 240.611822 
L 210.217778 239.487604 
L 209.667796 238.220469 
L 210.491844 237.096251 
L 211.865874 237.23917 
L 212.689925 236.114954 
L 212.139946 234.847816 
L 212.964 233.7236 
L 212.41402 232.456459 
L 213.238078 231.332242 
L 214.612116 231.47517 
L 215.436177 230.350956 
L 214.8862 229.083812 
L 213.512157 228.940882 
L 212.962174 227.673735 
L 213.786238 226.549518 
L 213.236254 225.282369 
L 214.060322 224.158151 
L 213.510336 222.891 
L 214.334407 221.766781 
L 213.78442 220.499627 
L 212.410357 220.356693 
L 211.860363 219.089538 
L 210.486294 218.946606 
L 209.936295 217.67945 
L 208.56222 217.53652 
L 208.012215 216.269362 
L 206.638135 216.126435 
L 206.088123 214.859276 
L 204.714037 214.71635 
L 204.16402 213.44919 
L 204.988094 212.324954 
L 204.438075 211.057791 
L 203.063979 210.914865 
L 202.513954 209.647701 
L 203.338031 208.523461 
L 202.788005 207.256294 
L 201.413898 207.113369 
L 200.589821 208.237612 
L 199.215713 208.094691 
L 198.665676 206.827525 
L 197.291562 206.684606 
L 196.74152 205.417438 
L 195.3674 205.274521 
L 194.817352 204.007352 
L 193.443226 203.864437 
L 192.619153 204.988694 
L 191.245026 204.845784 
L 190.694967 203.578614 
L 189.320835 203.435706 
L 188.77077 202.168536 
L 187.396632 202.02563 
L 186.572563 203.149896 
L 185.198423 203.006995 
L 184.648348 201.739824 
L 183.274203 201.596925 
L 182.724122 200.329753 
L 181.349971 200.186856 
L 180.799884 198.919683 
L 179.425727 198.776788 
L 178.875634 197.509613 
L 179.699702 196.385333 
L 179.149607 195.118156 
L 177.77544 194.975261 
L 177.22534 193.708083 
L 178.049411 192.583799 
L 177.499309 191.316618 
L 176.125131 191.173723 
M 235.738512 107.835689 
L 235.18848 106.56841 
L 233.814203 106.425362 
L 233.264164 105.158082 
L 231.889881 105.015036 
L 231.065641 106.139271 
L 229.691357 105.996228 
L 228.867121 107.120467 
L 229.417168 108.387743 
L 228.592936 109.511981 
L 229.142982 110.779255 
L 230.517256 110.922293 
L 231.067297 112.189567 
L 232.441565 112.332607 
L 232.9916 113.599879 
L 234.365863 113.742921 
L 234.915891 115.010191 
L 234.091661 116.134418 
L 232.717403 115.991378 
L 231.893176 117.115608 
L 230.518917 116.972572 
L 229.694694 118.096805 
L 228.320434 117.953773 
L 227.496214 119.078009 
L 228.046255 120.345273 
L 227.222039 121.469508 
L 227.772078 122.73677 
L 229.146329 122.879797 
L 229.696362 124.147057 
L 231.070608 124.290087 
L 231.894824 123.165858 
L 233.269068 123.308892 
L 233.819091 124.576152 
L 235.193329 124.719188 
L 235.743346 125.986447 
L 237.117578 126.129486 
L 237.667589 127.396743 
L 239.041816 127.539784 
L 239.591821 128.80704 
L 240.966042 128.950083 
L 241.516041 130.217338 
L 242.890256 130.360382 
L 243.440249 131.627636 
L 244.814458 131.770683 
L 245.638679 130.646478 
L 247.012887 130.789529 
L 247.837112 129.665327 
L 249.211319 129.808383 
L 250.035547 128.684184 
L 251.409753 128.827244 
L 252.233985 127.703048 
L 253.60819 127.846112 
L 254.158159 129.11337 
L 255.532358 129.256436 
L 256.082321 130.523692 
L 257.456514 130.666761 
L 258.28075 129.542575 
L 259.654942 129.685647 
L 260.204895 130.952904 
L 261.579081 131.095979 
L 262.40332 129.971799 
L 263.777506 130.114878 
L 264.601749 128.990701 
L 264.051806 127.723442 
L 264.876052 126.599265 
L 266.250241 126.74235 
L 267.07449 125.618176 
L 268.448679 125.761266 
L 269.272932 124.637095 
L 268.722996 123.36983 
L 267.348803 123.226738 
L 266.524551 124.350913 
L 265.150356 124.207825 
L 264.600411 122.940561 
L 263.226211 122.797476 
L 262.676259 121.53021 
L 263.500511 120.406028 
L 262.950558 119.13876 
L 261.576348 118.995675 
L 260.752095 120.11986 
L 259.377884 119.976779 
L 258.82792 118.70951 
L 257.453703 118.566431 
L 256.903733 117.299162 
L 255.52951 117.156085 
L 254.705262 118.28028 
L 253.331037 118.137207 
L 252.781057 116.869938 
L 251.406827 116.726868 
L 250.582582 117.851069 
L 249.208352 117.708003 
L 248.38411 118.832207 
L 247.009878 118.689145 
L 246.18564 119.813352 
L 244.811407 119.670295 
L 243.987173 120.794505 
L 242.612939 120.651452 
L 242.062935 119.384186 
L 242.887169 118.259973 
L 242.337163 116.992705 
L 243.1614 115.868491 
L 242.611393 114.60122 
L 241.237144 114.458165 
L 240.68713 113.190893 
L 241.511371 112.066675 
L 240.961356 110.799401 
L 239.587097 110.656345 
L 239.037076 109.38907 
L 237.66281 109.246017 
L 237.112784 107.97874 
L 235.738512 107.835689 
M 235.194945 130.7694 
L 234.370735 131.893621 
L 234.920748 133.160872 
L 236.294966 133.303904 
L 237.119177 132.179687 
L 236.569168 130.912434 
L 235.194945 130.7694 
M 239.07183 242.489315 
L 238.24776 243.613489 
L 238.797667 244.880621 
L 237.9736 246.004794 
L 236.599626 245.861838 
L 235.775563 246.986014 
L 236.325474 248.253142 
L 237.699443 248.396096 
L 238.523506 247.271923 
L 239.897474 247.414881 
L 240.721541 246.290712 
L 242.095508 246.433674 
L 242.919578 245.309508 
L 242.369681 244.042375 
L 240.99571 243.899411 
L 240.445807 242.632278 
L 239.07183 242.489315 
M 211.275362 102.869596 
L 210.725265 101.602315 
L 209.350942 101.459303 
L 208.800839 100.192021 
L 207.42651 100.049011 
L 206.60229 101.173285 
L 205.22796 101.030279 
L 204.677846 99.762998 
L 203.303511 99.619994 
L 202.479293 100.744275 
L 201.104957 100.601275 
L 200.554833 99.333994 
L 201.37905 98.20971 
L 200.828924 96.942425 
L 201.653145 95.818141 
L 201.103018 94.550854 
L 199.728666 94.407853 
L 199.178533 93.140565 
L 200.002757 92.016277 
L 199.452622 90.748986 
L 198.07826 90.605985 
L 197.52812 89.338693 
L 196.153751 89.195693 
L 195.603605 87.9284 
L 196.427832 86.804105 
L 195.877685 85.536809 
L 194.503306 85.39381 
L 193.679079 86.518109 
L 192.304699 86.375114 
L 191.754541 85.107818 
L 192.578768 83.983516 
L 192.028608 82.716217 
L 192.852838 81.591914 
L 192.302677 80.324613 
L 190.928282 80.181617 
L 190.104053 81.305923 
L 190.654218 82.573223 
L 189.829992 83.697529 
L 188.4556 83.554538 
L 187.631378 84.678847 
L 186.256985 84.535861 
L 185.706811 83.268564 
L 184.332413 83.12558 
L 183.508194 84.249895 
L 184.058373 85.517191 
L 183.234157 86.641506 
L 183.784335 87.908799 
L 182.960123 89.033113 
L 183.510299 90.300404 
L 182.68609 91.424718 
L 181.311705 91.281744 
L 180.4875 92.406061 
L 181.03768 93.673348 
L 180.213478 94.797664 
L 180.763656 96.064948 
L 179.939457 97.189264 
L 178.565081 97.0463 
L 177.740886 98.170618 
L 178.291067 99.437899 
L 177.466875 100.562217 
L 176.092502 100.419259 
L 175.268314 101.54358 
L 175.818499 102.810856 
L 174.994314 103.935177 
L 175.544497 105.202451 
L 174.720316 106.326771 
L 175.270498 107.594042 
L 174.44632 108.718362 
L 174.9965 109.985631 
L 176.370854 110.128581 
L 176.921028 111.395848 
L 176.096853 112.520164 
L 176.647027 113.787429 
L 178.02137 113.930379 
L 178.571537 115.197642 
L 177.747365 116.321954 
L 178.297531 117.589215 
L 177.473363 118.713527 
L 178.023527 119.980785 
L 179.397855 120.123733 
L 179.948014 121.39099 
L 179.123849 122.515297 
L 179.674006 123.782552 
L 178.849844 124.906859 
L 179.399999 126.174111 
L 178.575841 127.298418 
L 179.125995 128.565667 
L 178.30184 129.689973 
L 178.851993 130.95722 
L 178.027842 132.081526 
L 176.653537 131.938589 
L 175.829389 133.062897 
L 174.455084 132.919964 
L 173.630939 134.044276 
L 174.1811 135.311518 
L 173.356959 136.435829 
L 173.907118 137.703068 
L 173.08298 138.827379 
L 173.633138 140.094615 
L 172.809003 141.218925 
L 173.35916 142.486159 
L 172.535029 143.610469 
L 173.085184 144.8777 
L 172.261056 146.002009 
L 170.886773 145.859091 
L 170.062649 146.983404 
L 170.612808 148.250631 
L 171.987086 148.393547 
L 172.537238 149.660773 
L 173.91151 149.803691 
L 174.461656 151.070915 
L 173.637535 152.195221 
L 174.18768 153.462443 
L 175.561942 153.605361 
L 176.112081 154.872582 
L 175.287963 155.996883 
L 175.838101 157.264101 
L 175.013986 158.388402 
L 175.564122 159.655617 
L 176.938369 159.798533 
L 177.762483 158.674236 
L 179.136729 158.817157 
L 179.960847 157.692862 
L 179.41072 156.425644 
L 180.234842 155.301349 
L 181.609091 155.444276 
L 182.433216 154.319984 
L 183.807464 154.462915 
L 184.357582 155.730136 
L 185.731824 155.87307 
L 186.281936 157.140289 
L 187.656172 157.283225 
L 188.206278 158.550443 
L 187.382153 159.674724 
L 186.007921 159.531791 
L 185.45781 158.264574 
L 184.083573 158.121643 
L 183.259451 159.245931 
L 183.809566 160.513146 
L 182.985447 161.637434 
L 183.535561 162.904647 
L 182.711446 164.028934 
L 181.337217 163.886011 
L 180.513105 165.010301 
L 179.138875 164.867383 
L 178.588752 163.600172 
L 177.214516 163.457256 
L 176.390408 164.581553 
L 176.940536 165.848762 
L 176.116431 166.973058 
L 174.742199 166.830148 
L 173.918098 167.954447 
L 172.543865 167.811541 
L 171.719767 168.935843 
L 170.345533 168.792942 
L 169.795392 167.525736 
L 168.421152 167.382837 
L 167.597058 168.507146 
L 168.147204 169.774349 
L 169.521439 169.917246 
L 170.071579 171.184449 
L 171.445808 171.327348 
L 171.995942 172.594549 
L 173.370166 172.737451 
L 174.19426 171.613153 
L 173.644131 170.34595 
L 174.468229 169.221652 
L 175.842456 169.364559 
L 176.392581 170.631763 
L 177.766802 170.774673 
L 178.590904 169.650381 
L 179.965124 169.793295 
L 180.78923 168.669006 
L 182.163449 168.811925 
L 182.713559 170.07913 
L 184.087772 170.222051 
L 184.911881 169.097768 
L 184.361776 167.830562 
L 185.185888 166.706279 
L 186.560106 166.849206 
L 187.384221 165.724925 
L 188.758438 165.867857 
L 189.308534 167.135066 
L 190.682744 167.277999 
L 191.506864 166.153726 
L 192.881073 166.296663 
L 193.431159 167.563873 
L 194.805362 167.706813 
L 195.355442 168.974021 
L 196.72964 169.116963 
L 197.279713 170.38417 
L 198.653906 170.527114 
L 199.478029 169.402853 
L 200.85222 169.545802 
L 201.676347 168.421544 
L 201.126283 167.154335 
L 201.950413 166.030077 
L 203.324608 166.173032 
L 204.148742 165.048777 
L 203.59868 163.781564 
L 204.422818 162.657308 
L 203.872755 161.390092 
L 202.498551 161.247133 
L 201.674414 162.371392 
L 202.224481 163.638607 
L 201.400347 164.762865 
L 200.026147 164.619912 
L 199.202016 165.744174 
L 197.827815 165.601225 
L 197.277738 164.334013 
L 198.101868 163.209749 
L 197.551791 161.942534 
L 196.177579 161.799586 
L 195.627495 160.53237 
L 194.253277 160.389423 
L 193.429147 161.513695 
L 192.054928 161.370753 
L 191.504834 160.103537 
L 192.328963 158.979262 
L 193.703187 159.122206 
L 194.52732 157.997934 
L 195.901543 158.140883 
L 196.72568 157.016613 
L 198.099901 157.159566 
L 198.924041 156.0353 
L 200.298262 156.178257 
L 201.122406 155.053994 
L 202.496625 155.196955 
L 203.320772 154.072694 
L 204.694991 154.21566 
L 205.245058 155.482884 
L 206.61927 155.625851 
L 207.443421 154.501597 
L 208.817633 154.644569 
L 209.641787 153.520318 
L 209.09173 152.253092 
L 209.915887 151.128841 
L 211.290103 151.271819 
L 212.114264 150.147571 
L 211.56421 148.88034 
L 212.388374 147.756092 
L 211.838319 146.488859 
L 210.464094 146.345876 
L 209.639929 147.470128 
L 208.265703 147.32715 
L 207.715637 146.059917 
L 208.539801 144.935662 
L 207.989734 143.668426 
L 206.615497 143.525448 
L 206.065423 142.258211 
L 206.889591 141.133952 
L 206.339516 139.866713 
L 207.163687 138.742452 
L 208.537933 138.885435 
L 209.362107 137.761178 
L 208.812035 136.493935 
L 209.636213 135.369677 
L 211.010463 135.512666 
L 211.56053 136.77991 
L 212.934774 136.922901 
L 213.484835 138.190145 
L 214.859073 138.333138 
L 215.683255 137.20889 
L 215.133198 135.941645 
L 215.957383 134.817397 
L 217.331625 134.960397 
L 218.155814 133.836152 
L 219.530054 133.979155 
L 220.080102 135.246403 
L 221.454337 135.389409 
L 222.278529 134.26517 
L 221.728486 132.997921 
L 222.552682 131.873682 
L 223.92692 132.016694 
L 224.75112 130.892458 
L 224.20108 129.625206 
L 225.025282 128.500969 
L 224.475241 127.233714 
L 223.100993 127.090697 
L 222.550946 125.823441 
L 223.375151 124.6992 
L 222.825103 123.431941 
L 221.450844 123.288925 
L 220.90079 122.021665 
L 221.724999 120.89742 
L 223.099262 121.040439 
L 223.923474 119.916197 
L 223.373423 118.648933 
L 224.197639 117.524691 
L 223.647586 116.257424 
L 224.471805 115.133182 
L 225.846077 115.276209 
L 226.6703 114.151969 
L 228.044571 114.295001 
L 228.868797 113.170764 
L 228.318752 111.903493 
L 226.944477 111.760459 
L 226.120251 112.884699 
L 224.745974 112.74167 
L 223.921751 113.865913 
L 222.547474 113.722888 
L 221.723255 114.847134 
L 220.348976 114.704113 
L 219.798912 113.436844 
L 220.62313 112.312594 
L 220.073064 111.045322 
L 220.897287 109.921072 
L 222.271575 110.064098 
L 223.0958 108.939851 
L 224.470088 109.08288 
L 225.294317 107.958636 
L 226.668603 108.10167 
L 227.492836 106.977429 
L 226.942782 105.71015 
L 227.767018 104.585909 
L 227.216963 103.318628 
L 228.041203 102.194386 
L 227.491146 100.927103 
L 226.116846 100.784063 
L 225.566784 99.516778 
L 224.192478 99.37374 
L 223.642409 98.106454 
L 222.268097 97.963418 
L 221.718023 96.696131 
L 220.343705 96.553098 
L 219.519467 97.677354 
L 220.069545 98.944639 
L 219.24531 100.068895 
L 217.870996 99.925868 
L 217.046764 101.050126 
L 215.672449 100.907103 
L 214.848221 102.031364 
L 213.473904 101.888346 
L 212.64968 103.01261 
L 211.275362 102.869596 
M 217.086094 234.152383 
L 218.460121 234.295315 
L 219.284183 233.171109 
L 218.734218 231.903966 
L 217.360186 231.761032 
L 216.536124 232.885242 
L 217.086094 234.152383 
M 214.074849 272.556483 
L 212.700898 272.413585 
L 212.15095 271.146485 
L 210.776993 271.003589 
L 209.952989 272.127795 
L 208.579031 271.984903 
L 207.755031 273.109111 
L 208.304988 274.376208 
L 207.48099 275.500416 
L 208.030946 276.76751 
L 209.404894 276.910398 
L 209.954844 278.177491 
L 209.13085 279.301695 
L 209.680798 280.568785 
L 211.054736 280.711673 
L 211.604678 281.978762 
L 212.97861 282.121652 
L 213.528546 283.38874 
L 212.704555 284.512936 
L 213.25449 285.780022 
L 214.628412 285.922911 
L 215.452403 284.798718 
L 216.826323 284.941612 
L 217.650318 283.817422 
L 217.100392 282.550334 
L 217.92439 281.426143 
L 219.298314 281.569044 
L 220.122316 280.444856 
L 221.496239 280.587761 
L 222.046156 281.854851 
L 223.420073 281.997758 
L 223.969984 283.264847 
L 225.343895 283.407756 
L 226.167901 282.283578 
L 227.541811 282.426492 
L 228.36582 281.302317 
L 227.815919 280.035225 
L 226.442004 279.892309 
L 225.892096 278.625216 
L 224.518175 278.482303 
L 223.968262 277.215208 
L 222.594335 277.072297 
L 222.044415 275.805202 
L 222.868427 274.681016 
L 222.318507 273.413917 
L 223.142522 272.289731 
L 222.5926 271.02263 
L 221.218658 270.879717 
L 220.394643 272.003907 
L 219.020699 271.860998 
L 218.196688 272.985191 
L 216.822744 272.842286 
L 216.272806 271.575186 
L 214.898857 271.432284 
L 214.074849 272.556483 
M 189.034512 169.526549 
L 188.2104 170.650826 
L 188.760493 171.91803 
L 190.134694 172.060959 
L 190.684782 173.328162 
L 192.058977 173.471093 
L 192.88309 172.346824 
L 192.333007 171.07962 
L 193.157123 169.95535 
L 192.607039 168.688143 
L 191.232834 168.545207 
L 190.408718 169.669481 
L 189.034512 169.526549 
M 203.330361 184.323359 
L 201.956205 184.180417 
L 201.132098 185.304668 
L 201.682147 186.571858 
L 203.056298 186.714798 
L 203.880405 185.590551 
L 203.330361 184.323359 
M 181.61546 173.594904 
L 180.24125 173.451989 
L 179.417152 174.576277 
L 179.967263 175.843476 
L 181.341468 175.986388 
L 182.165567 174.862104 
L 181.61546 173.594904 
M 178.323384 190.192333 
L 179.697561 190.335233 
L 180.521639 189.210951 
L 179.97154 187.943766 
L 180.795622 186.819484 
L 180.245522 185.552297 
L 178.871336 185.409393 
L 178.047254 186.533679 
L 178.597359 187.800865 
L 177.773281 188.92515 
L 178.323384 190.192333 
M 207.460329 208.95225 
L 208.834424 209.095184 
L 209.658508 207.970953 
L 209.108497 206.703785 
L 207.734398 206.560849 
L 206.910314 207.685083 
L 207.460329 208.95225 
M 218.433502 143.545093 
L 219.25768 142.420853 
L 220.631901 142.563852 
L 221.456083 141.439615 
L 220.906044 140.172374 
L 219.531819 140.029372 
L 218.707637 141.153613 
L 217.33341 141.010616 
L 216.509232 142.13486 
L 217.05928 143.402098 
L 218.433502 143.545093 
M 249.238022 238.707506 
L 247.864049 238.564526 
L 247.039965 239.688688 
L 245.66599 239.545713 
L 244.84191 240.669877 
L 245.391803 241.937013 
L 246.765773 242.079986 
L 247.589854 240.955825 
L 248.963822 241.098803 
L 249.513705 242.365939 
L 248.689624 243.490096 
L 249.239505 244.75723 
L 250.613463 244.900207 
L 251.437545 243.776053 
L 250.887668 242.508918 
L 251.711752 241.384764 
L 251.161874 240.117626 
L 251.985962 238.993471 
L 253.359928 239.136457 
L 254.18402 238.012305 
L 253.634145 236.745163 
L 252.260173 236.602175 
L 251.436082 237.726331 
L 250.06211 237.583347 
L 249.238022 238.707506 
" clip-path="url(#p40b97633d1)" style="fill: #a0522d"/>
    <path d="M 191.778868 157.712044 
L 190.404638 157.569102 
L 189.854537 156.301882 
L 190.67867 155.177603 
L 190.128567 153.910381 
L 190.952703 152.786102 
L 192.326942 152.929048 
L 193.151081 151.804771 
L 194.525319 151.947722 
L 195.075413 153.214947 
L 194.251273 154.33922 
L 192.87704 154.196271 
L 192.052904 155.320547 
L 192.603001 156.587768 
L 191.778868 157.712044 
" clip-path="url(#p40b97633d1)" style="fill: #a0522d"/>
    <path d="M 196.723699 150.966403 
L 195.349462 150.823448 
L 194.799367 149.556221 
L 195.623514 148.431947 
L 196.997755 148.574903 
L 197.547846 149.842132 
L 196.723699 150.966403 
" clip-path="url(#p40b97633d1)" style="fill: #a0522d"/>
    <path d="M 202.218696 145.488026 
L 201.394539 146.612291 
L 200.0203 146.469325 
L 199.196146 147.593594 
L 197.821905 147.450632 
L 197.271813 146.183401 
L 198.095967 145.05913 
L 199.470212 145.202093 
L 200.294369 144.077824 
L 201.668613 144.220792 
L 202.218696 145.488026 
" clip-path="url(#p40b97633d1)" style="fill: #a0522d"/>
    <path d="M 243.164482 127.968918 
L 241.790262 127.825871 
L 241.240262 126.558613 
L 242.064486 125.434401 
L 243.438711 125.57745 
L 243.988706 126.844709 
L 243.164482 127.968918 
" clip-path="url(#p40b97633d1)" style="fill: #a0522d"/>
    <path d="M 180.795622 186.819484 
L 179.97154 187.943766 
L 180.521639 189.210951 
L 179.697561 190.335233 
L 178.323384 190.192333 
L 177.773281 188.92515 
L 178.597359 187.800865 
L 178.047254 186.533679 
L 178.871336 185.409393 
L 180.245522 185.552297 
L 180.795622 186.819484 
" clip-path="url(#p40b97633d1)" style="fill: #40e0d0"/>
    <path d="M 180.24125 173.451989 
L 181.61546 173.594904 
L 182.165567 174.862104 
L 181.341468 175.986388 
L 179.967263 175.843476 
L 179.417152 174.576277 
L 180.24125 173.451989 
" clip-path="url(#p40b97633d1)" style="fill: #40e0d0"/>
    <path d="M 168.421152 167.382837 
L 169.795392 167.525736 
L 170.345533 168.792942 
L 171.719767 168.935843 
L 172.543865 167.811541 
L 173.918098 167.954447 
L 174.742199 166.830148 
L 176.116431 166.973058 
L 176.940536 165.848762 
L 176.390408 164.581553 
L 177.214516 163.457256 
L 178.588752 163.600172 
L 179.138875 164.867383 
L 180.513105 165.010301 
L 181.337217 163.886011 
L 182.711446 164.028934 
L 183.535561 162.904647 
L 182.985447 161.637434 
L 183.809566 160.513146 
L 183.259451 159.245931 
L 184.083573 158.121643 
L 185.45781 158.264574 
L 186.007921 159.531791 
L 187.382153 159.674724 
L 188.206278 158.550443 
L 187.656172 157.283225 
L 186.281936 157.140289 
L 185.731824 155.87307 
L 184.357582 155.730136 
L 183.807464 154.462915 
L 182.433216 154.319984 
L 181.609091 155.444276 
L 180.234842 155.301349 
L 179.41072 156.425644 
L 179.960847 157.692862 
L 179.136729 158.817157 
L 177.762483 158.674236 
L 176.938369 159.798533 
L 175.564122 159.655617 
L 175.013986 158.388402 
L 175.838101 157.264101 
L 175.287963 155.996883 
L 176.112081 154.872582 
L 175.561942 153.605361 
L 174.18768 153.462443 
L 173.637535 152.195221 
L 174.461656 151.070915 
L 173.91151 149.803691 
L 172.537238 149.660773 
L 171.987086 148.393547 
L 170.612808 148.250631 
L 170.062649 146.983404 
L 170.886773 145.859091 
L 172.261056 146.002009 
L 173.085184 144.8777 
L 172.535029 143.610469 
L 173.35916 142.486159 
L 172.809003 141.218925 
L 173.633138 140.094615 
L 173.08298 138.827379 
L 173.907118 137.703068 
L 173.356959 136.435829 
L 174.1811 135.311518 
L 173.630939 134.044276 
L 174.455084 132.919964 
L 175.829389 133.062897 
L 176.653537 131.938589 
L 178.027842 132.081526 
L 178.851993 130.95722 
L 178.30184 129.689973 
L 179.125995 128.565667 
L 178.575841 127.298418 
L 179.399999 126.174111 
L 178.849844 124.906859 
L 179.674006 123.782552 
L 179.123849 122.515297 
L 179.948014 121.39099 
L 179.397855 120.123733 
L 178.023527 119.980785 
L 177.473363 118.713527 
L 178.297531 117.589215 
L 177.747365 116.321954 
L 178.571537 115.197642 
L 178.02137 113.930379 
L 176.647027 113.787429 
L 176.096853 112.520164 
L 176.921028 111.395848 
L 176.370854 110.128581 
L 174.9965 109.985631 
L 174.44632 108.718362 
L 175.270498 107.594042 
L 174.720316 106.326771 
L 175.544497 105.202451 
L 174.994314 103.935177 
L 175.818499 102.810856 
L 175.268314 101.54358 
L 176.092502 100.419259 
L 177.466875 100.562217 
L 178.291067 99.437899 
L 177.740886 98.170618 
L 178.565081 97.0463 
L 179.939457 97.189264 
L 180.763656 96.064948 
L 180.213478 94.797664 
L 181.03768 93.673348 
L 180.4875 92.406061 
L 181.311705 91.281744 
L 182.68609 91.424718 
L 183.510299 90.300404 
L 182.960123 89.033113 
L 183.784335 87.908799 
L 183.234157 86.641506 
L 184.058373 85.517191 
L 183.508194 84.249895 
L 184.332413 83.12558 
L 185.706811 83.268564 
L 186.256985 84.535861 
L 187.631378 84.678847 
L 188.4556 83.554538 
L 189.829992 83.697529 
L 190.654218 82.573223 
L 190.104053 81.305923 
L 190.928282 80.181617 
L 192.302677 80.324613 
L 192.852838 81.591914 
L 192.028608 82.716217 
L 192.578768 83.983516 
L 191.754541 85.107818 
L 192.304699 86.375114 
L 193.679079 86.518109 
L 194.503306 85.39381 
L 195.877685 85.536809 
L 196.427832 86.804105 
L 195.603605 87.9284 
L 196.153751 89.195693 
L 197.52812 89.338693 
L 198.07826 90.605985 
L 199.452622 90.748986 
L 200.002757 92.016277 
L 199.178533 93.140565 
L 199.728666 94.407853 
L 201.103018 94.550854 
L 201.653145 95.818141 
L 200.828924 96.942425 
L 201.37905 98.20971 
L 200.554833 99.333994 
L 201.104957 100.601275 
L 202.479293 100.744275 
L 203.303511 99.619994 
L 204.677846 99.762998 
L 205.22796 101.030279 
L 206.60229 101.173285 
L 207.42651 100.049011 
L 208.800839 100.192021 
L 209.350942 101.459303 
L 210.725265 101.602315 
L 211.275362 102.869596 
L 212.64968 103.01261 
L 213.473904 101.888346 
L 214.848221 102.031364 
L 215.672449 100.907103 
L 217.046764 101.050126 
L 217.870996 99.925868 
L 219.24531 100.068895 
L 220.069545 98.944639 
L 219.519467 97.677354 
L 220.343705 96.553098 
L 221.718023 96.696131 
L 222.268097 97.963418 
L 223.642409 98.106454 
L 224.192478 99.37374 
L 225.566784 99.516778 
L 226.116846 100.784063 
L 227.491146 100.927103 
L 228.041203 102.194386 
L 227.216963 103.318628 
L 227.767018 104.585909 
L 226.942782 105.71015 
L 227.492836 106.977429 
L 226.668603 108.10167 
L 225.294317 107.958636 
L 224.470088 109.08288 
L 223.0958 108.939851 
L 222.271575 110.064098 
L 220.897287 109.921072 
L 220.073064 111.045322 
L 220.62313 112.312594 
L 219.798912 113.436844 
L 220.348976 114.704113 
L 221.723255 114.847134 
L 222.547474 113.722888 
L 223.921751 113.865913 
L 224.745974 112.74167 
L 226.120251 112.884699 
L 226.944477 111.760459 
L 228.318752 111.903493 
L 228.868797 113.170764 
L 228.044571 114.295001 
L 226.6703 114.151969 
L 225.846077 115.276209 
L 224.471805 115.133182 
L 223.647586 116.257424 
L 224.197639 117.524691 
L 223.373423 118.648933 
L 223.923474 119.916197 
L 223.099262 121.040439 
L 221.724999 120.89742 
L 220.90079 122.021665 
L 221.450844 123.288925 
L 222.825103 123.431941 
L 223.375151 124.6992 
L 222.550946 125.823441 
L 223.100993 127.090697 
L 224.475241 127.233714 
L 225.025282 128.500969 
L 224.20108 129.625206 
L 224.75112 130.892458 
L 223.92692 132.016694 
L 222.552682 131.873682 
L 221.728486 132.997921 
L 222.278529 134.26517 
L 221.454337 135.389409 
L 220.080102 135.246403 
L 219.530054 133.979155 
L 218.155814 133.836152 
L 217.331625 134.960397 
L 215.957383 134.817397 
L 215.133198 135.941645 
L 215.683255 137.20889 
L 214.859073 138.333138 
L 213.484835 138.190145 
L 212.934774 136.922901 
L 211.56053 136.77991 
L 211.010463 135.512666 
L 209.636213 135.369677 
L 208.812035 136.493935 
L 209.362107 137.761178 
L 208.537933 138.885435 
L 207.163687 138.742452 
L 206.339516 139.866713 
L 206.889591 141.133952 
L 206.065423 142.258211 
L 206.615497 143.525448 
L 207.989734 143.668426 
L 208.539801 144.935662 
L 207.715637 146.059917 
L 208.265703 147.32715 
L 209.639929 147.470128 
L 210.464094 146.345876 
L 211.838319 146.488859 
L 212.388374 147.756092 
L 211.56421 148.88034 
L 212.114264 150.147571 
L 211.290103 151.271819 
L 209.915887 151.128841 
L 209.09173 152.253092 
L 209.641787 153.520318 
L 208.817633 154.644569 
L 207.443421 154.501597 
L 206.61927 155.625851 
L 205.245058 155.482884 
L 204.694991 154.21566 
L 203.320772 154.072694 
L 202.496625 155.196955 
L 201.122406 155.053994 
L 200.298262 156.178257 
L 198.924041 156.0353 
L 198.099901 157.159566 
L 196.72568 157.016613 
L 195.901543 158.140883 
L 194.52732 157.997934 
L 193.703187 159.122206 
L 192.328963 158.979262 
L 191.504834 160.103537 
L 192.054928 161.370753 
L 193.429147 161.513695 
L 194.253277 160.389423 
L 195.627495 160.53237 
L 196.177579 161.799586 
L 197.551791 161.942534 
L 198.101868 163.209749 
L 197.277738 164.334013 
L 197.827815 165.601225 
L 199.202016 165.744174 
L 200.026147 164.619912 
L 201.400347 164.762865 
L 202.224481 163.638607 
L 201.674414 162.371392 
L 202.498551 161.247133 
L 203.872755 161.390092 
L 204.422818 162.657308 
L 203.59868 163.781564 
L 204.148742 165.048777 
L 203.324608 166.173032 
L 201.950413 166.030077 
L 201.126283 167.154335 
L 201.676347 168.421544 
L 200.85222 169.545802 
L 199.478029 169.402853 
L 198.653906 170.527114 
L 197.279713 170.38417 
L 196.72964 169.116963 
L 195.355442 168.974021 
L 194.805362 167.706813 
L 193.431159 167.563873 
L 192.881073 166.296663 
L 191.506864 166.153726 
L 190.682744 167.277999 
L 189.308534 167.135066 
L 188.758438 165.867857 
L 187.384221 165.724925 
L 186.560106 166.849206 
L 185.185888 166.706279 
L 184.361776 167.830562 
L 184.911881 169.097768 
L 184.087772 170.222051 
L 182.713559 170.07913 
L 182.163449 168.811925 
L 180.78923 168.669006 
L 179.965124 169.793295 
L 178.590904 169.650381 
L 177.766802 170.774673 
L 176.392581 170.631763 
L 175.842456 169.364559 
L 174.468229 169.221652 
L 173.644131 170.34595 
L 174.19426 171.613153 
L 173.370166 172.737451 
L 171.995942 172.594549 
L 171.445808 171.327348 
L 170.071579 171.184449 
L 169.521439 169.917246 
L 168.147204 169.774349 
L 167.597058 168.507146 
L 168.421152 167.382837 
M 200.294369 144.077824 
L 199.470212 145.202093 
L 198.095967 145.05913 
L 197.271813 146.183401 
L 197.821905 147.450632 
L 199.196146 147.593594 
L 200.0203 146.469325 
L 201.394539 146.612291 
L 202.218696 145.488026 
L 201.668613 144.220792 
L 200.294369 144.077824 
M 190.67867 155.177603 
L 189.854537 156.301882 
L 190.404638 157.569102 
L 191.778868 157.712044 
L 192.603001 156.587768 
L 192.052904 155.320547 
L 192.87704 154.196271 
L 194.251273 154.33922 
L 195.075413 153.214947 
L 194.525319 151.947722 
L 193.151081 151.804771 
L 192.326942 152.929048 
L 190.952703 152.786102 
L 190.128567 153.910381 
L 190.67867 155.177603 
M 196.723699 150.966403 
L 197.547846 149.842132 
L 196.997755 148.574903 
L 195.623514 148.431947 
L 194.799367 149.556221 
L 195.349462 150.823448 
L 196.723699 150.966403 
" clip-path="url(#p40b97633d1)" style="fill: #40e0d0"/>
    <path d="M 190.408718 169.669481 
L 191.232834 168.545207 
L 192.607039 168.688143 
L 193.157123 169.95535 
L 192.333007 171.07962 
L 192.88309 172.346824 
L 192.058977 173.471093 
L 190.684782 173.328162 
L 190.134694 172.060959 
L 188.760493 171.91803 
L 188.2104 170.650826 
L 189.034512 169.526549 
L 190.408718 169.669481 
" clip-path="url(#p40b97633d1)" style="fill: #40e0d0"/>
    <path d="M 208.304988 274.376208 
L 207.755031 273.109111 
L 208.579031 271.984903 
L 209.952989 272.127795 
L 210.776993 271.003589 
L 212.15095 271.146485 
L 212.700898 272.413585 
L 214.074849 272.556483 
L 214.898857 271.432284 
L 216.272806 271.575186 
L 216.822744 272.842286 
L 218.196688 272.985191 
L 219.020699 271.860998 
L 220.394643 272.003907 
L 221.218658 270.879717 
L 222.5926 271.02263 
L 223.142522 272.289731 
L 222.318507 273.413917 
L 222.868427 274.681016 
L 222.044415 275.805202 
L 222.594335 277.072297 
L 223.968262 277.215208 
L 224.518175 278.482303 
L 225.892096 278.625216 
L 226.442004 279.892309 
L 227.815919 280.035225 
L 228.36582 281.302317 
L 227.541811 282.426492 
L 226.167901 282.283578 
L 225.343895 283.407756 
L 223.969984 283.264847 
L 223.420073 281.997758 
L 222.046156 281.854851 
L 221.496239 280.587761 
L 220.122316 280.444856 
L 219.298314 281.569044 
L 217.92439 281.426143 
L 217.100392 282.550334 
L 217.650318 283.817422 
L 216.826323 284.941612 
L 215.452403 284.798718 
L 214.628412 285.922911 
L 213.25449 285.780022 
L 212.704555 284.512936 
L 213.528546 283.38874 
L 212.97861 282.121652 
L 211.604678 281.978762 
L 211.054736 280.711673 
L 209.680798 280.568785 
L 209.13085 279.301695 
L 209.954844 278.177491 
L 209.404894 276.910398 
L 208.030946 276.76751 
L 207.48099 275.500416 
L 208.304988 274.376208 
" clip-path="url(#p40b97633d1)" style="fill: #40e0d0"/>
    <path d="M 209.108497 206.703785 
L 209.658508 207.970953 
L 208.834424 209.095184 
L 207.460329 208.95225 
L 206.910314 207.685083 
L 207.734398 206.560849 
L 209.108497 206.703785 
" clip-path="url(#p40b97633d1)" style="fill: #40e0d0"/>
    <path d="M 203.330361 184.323359 
L 203.880405 185.590551 
L 203.056298 186.714798 
L 201.682147 186.571858 
L 201.132098 185.304668 
L 201.956205 184.180417 
L 203.330361 184.323359 
" clip-path="url(#p40b97633d1)" style="fill: #40e0d0"/>
    <path d="M 218.707637 141.153613 
L 219.531819 140.029372 
L 220.906044 140.172374 
L 221.456083 141.439615 
L 220.631901 142.563852 
L 219.25768 142.420853 
L 218.433502 143.545093 
L 217.05928 143.402098 
L 216.509232 142.13486 
L 217.33341 141.010616 
L 218.707637 141.153613 
" clip-path="url(#p40b97633d1)" style="fill: #40e0d0"/>
    <path d="M 217.360186 231.761032 
L 218.734218 231.903966 
L 219.284183 233.171109 
L 218.460121 234.295315 
L 217.086094 234.152383 
L 216.536124 232.885242 
L 217.360186 231.761032 
" clip-path="url(#p40b97633d1)" style="fill: #40e0d0"/>
    <path d="M 236.569168 130.912434 
L 237.119177 132.179687 
L 236.294966 133.303904 
L 234.920748 133.160872 
L 234.370735 131.893621 
L 235.194945 130.7694 
L 236.569168 130.912434 
" clip-path="url(#p40b97633d1)" style="fill: #40e0d0"/>
    <path d="M 231.894824 123.165858 
L 231.070608 124.290087 
L 229.696362 124.147057 
L 229.146329 122.879797 
L 227.772078 122.73677 
L 227.222039 121.469508 
L 228.046255 120.345273 
L 227.496214 119.078009 
L 228.320434 117.953773 
L 229.694694 118.096805 
L 230.518917 116.972572 
L 231.893176 117.115608 
L 232.717403 115.991378 
L 234.091661 116.134418 
L 234.915891 115.010191 
L 234.365863 113.742921 
L 232.9916 113.599879 
L 232.441565 112.332607 
L 231.067297 112.189567 
L 230.517256 110.922293 
L 229.142982 110.779255 
L 228.592936 109.511981 
L 229.417168 108.387743 
L 228.867121 107.120467 
L 229.691357 105.996228 
L 231.065641 106.139271 
L 231.889881 105.015036 
L 233.264164 105.158082 
L 233.814203 106.425362 
L 235.18848 106.56841 
L 235.738512 107.835689 
L 237.112784 107.97874 
L 237.66281 109.246017 
L 239.037076 109.38907 
L 239.587097 110.656345 
L 240.961356 110.799401 
L 241.511371 112.066675 
L 240.68713 113.190893 
L 241.237144 114.458165 
L 242.611393 114.60122 
L 243.1614 115.868491 
L 242.337163 116.992705 
L 242.887169 118.259973 
L 242.062935 119.384186 
L 242.612939 120.651452 
L 243.987173 120.794505 
L 244.811407 119.670295 
L 246.18564 119.813352 
L 247.009878 118.689145 
L 248.38411 118.832207 
L 249.208352 117.708003 
L 250.582582 117.851069 
L 251.406827 116.726868 
L 252.781057 116.869938 
L 253.331037 118.137207 
L 254.705262 118.28028 
L 255.52951 117.156085 
L 256.903733 117.299162 
L 257.453703 118.566431 
L 258.82792 118.70951 
L 259.377884 119.976779 
L 260.752095 120.11986 
L 261.576348 118.995675 
L 262.950558 119.13876 
L 263.500511 120.406028 
L 262.676259 121.53021 
L 263.226211 122.797476 
L 264.600411 122.940561 
L 265.150356 124.207825 
L 266.524551 124.350913 
L 267.348803 123.226738 
L 268.722996 123.36983 
L 269.272932 124.637095 
L 268.448679 125.761266 
L 267.07449 125.618176 
L 266.250241 126.74235 
L 264.876052 126.599265 
L 264.051806 127.723442 
L 264.601749 128.990701 
L 263.777506 130.114878 
L 262.40332 129.971799 
L 261.579081 131.095979 
L 260.204895 130.952904 
L 259.654942 129.685647 
L 258.28075 129.542575 
L 257.456514 130.666761 
L 256.082321 130.523692 
L 255.532358 129.256436 
L 254.158159 129.11337 
L 253.60819 127.846112 
L 252.233985 127.703048 
L 251.409753 128.827244 
L 250.035547 128.684184 
L 249.211319 129.808383 
L 247.837112 129.665327 
L 247.012887 130.789529 
L 245.638679 130.646478 
L 244.814458 131.770683 
L 243.440249 131.627636 
L 242.890256 130.360382 
L 241.516041 130.217338 
L 240.966042 128.950083 
L 239.591821 128.80704 
L 239.041816 127.539784 
L 237.667589 127.396743 
L 237.117578 126.129486 
L 235.743346 125.986447 
L 235.193329 124.719188 
L 233.819091 124.576152 
L 233.269068 123.308892 
L 231.894824 123.165858 
M 243.438711 125.57745 
L 242.064486 125.434401 
L 241.240262 126.558613 
L 241.790262 127.825871 
L 243.164482 127.968918 
L 243.988706 126.844709 
L 243.438711 125.57745 
" clip-path="url(#p40b97633d1)" style="fill: #40e0d0"/>
    <path d="M 240.445807 242.632278 
L 240.99571 243.899411 
L 242.369681 244.042375 
L 242.919578 245.309508 
L 242.095508 246.433674 
L 240.721541 246.290712 
L 239.897474 247.414881 
L 238.523506 247.271923 
L 237.699443 248.396096 
L 236.325474 248.253142 
L 235.775563 246.986014 
L 236.599626 245.861838 
L 237.9736 246.004794 
L 238.797667 244.880621 
L 238.24776 243.613489 
L 239.07183 242.489315 
L 240.445807 242.632278 
" clip-path="url(#p40b97633d1)" style="fill: #40e0d0"/>
    <path d="M 244.84191 240.669877 
L 245.66599 239.545713 
L 247.039965 239.688688 
L 247.864049 238.564526 
L 249.238022 238.707506 
L 250.06211 237.583347 
L 251.436082 237.726331 
L 252.260173 236.602175 
L 253.634145 236.745163 
L 254.18402 238.012305 
L 253.359928 239.136457 
L 251.985962 238.993471 
L 251.161874 240.117626 
L 251.711752 241.384764 
L 250.887668 242.508918 
L 251.437545 243.776053 
L 250.613463 244.900207 
L 249.239505 244.75723 
L 248.689624 243.490096 
L 249.513705 242.365939 
L 248.963822 241.098803 
L 247.589854 240.955825 
L 246.765773 242.079986 
L 245.391803 241.937013 
L 244.84191 240.669877 
" clip-path="url(#p40b97633d1)" style="fill: #40e0d0"/>
   </g>
   <g id="matplotlib.axis_1">
    <g id="xtick_1">
     <g id="line2d_1">
      <defs>
       <path id="m1dd6a8f48e" d="M 0 0 
L 0 3.5 
" style="stroke: #000000; stroke-width: 0.8"/>
      </defs>
      <g>
       <use xlink:href="#m1dd6a8f48e" x="173.401155" y="307.584" style="stroke: #000000; stroke-width: 0.8"/>
      </g>
     </g>
     <g id="text_1">
      <!-- 100.42 -->
      <g transform="translate(151.715999 322.182437) scale(0.1 -0.1)">
       <defs>
        <path id="DejaVuSans-2212" d="M 678 2272 
L 4684 2272 
L 4684 1741 
L 678 1741 
L 678 2272 
z
" transform="scale(0.015625)"/>
        <path id="DejaVuSans-31" d="M 794 531 
L 1825 531 
L 1825 4091 
L 703 3866 
L 703 4441 
L 1819 4666 
L 2450 4666 
L 2450 531 
L 3481 531 
L 3481 0 
L 794 0 
L 794 531 
z
" transform="scale(0.015625)"/>
        <path id="DejaVuSans-30" d="M 2034 4250 
Q 1547 4250 1301 3770 
Q 1056 3291 1056 2328 
Q 1056 1369 1301 889 
Q 1547 409 2034 409 
Q 2525 409 2770 889 
Q 3016 1369 3016 2328 
Q 3016 3291 2770 3770 
Q 2525 4250 2034 4250 
z
M 2034 4750 
Q 2819 4750 3233 4129 
Q 3647 3509 3647 2328 
Q 3647 1150 3233 529 
Q 2819 -91 2034 -91 
Q 1250 -91 836 529 
Q 422 1150 422 2328 
Q 422 3509 836 4129 
Q 1250 4750 2034 4750 
z
" transform="scale(0.015625)"/>
        <path id="DejaVuSans-2e" d="M 684 794 
L 1344 794 
L 1344 0 
L 684 0 
L 684 794 
z
" transform="scale(0.015625)"/>
        <path id="DejaVuSans-34" d="M 2419 4116 
L 825 1625 
L 2419 1625 
L 2419 4116 
z
M 2253 4666 
L 3047 4666 
L 3047 1625 
L 3713 1625 
L 3713 1100 
L 3047 1100 
L 3047 0 
L 2419 0 
L 2419 1100 
L 313 1100 
L 313 1709 
L 2253 4666 
z
" transform="scale(0.015625)"/>
        <path id="DejaVuSans-32" d="M 1228 531 
L 3431 531 
L 3431 0 
L 469 0 
L 469 531 
Q 828 903 1448 1529 
Q 2069 2156 2228 2338 
Q 2531 2678 2651 2914 
Q 2772 3150 2772 3378 
Q 2772 3750 2511 3984 
Q 2250 4219 1831 4219 
Q 1534 4219 1204 4116 
Q 875 4013 500 3803 
L 500 4441 
Q 881 4594 1212 4672 
Q 1544 4750 1819 4750 
Q 2544 4750 2975 4387 
Q 3406 4025 3406 3419 
Q 3406 3131 3298 2873 
Q 3191 2616 2906 2266 
Q 2828 2175 2409 1742 
Q 1991 1309 1228 531 
z
" transform="scale(0.015625)"/>
       </defs>
       <use xlink:href="#DejaVuSans-2212"/>
       <use xlink:href="#DejaVuSans-31" x="83.789062"/>
       <use xlink:href="#DejaVuSans-30" x="147.412109"/>
       <use xlink:href="#DejaVuSans-30" x="211.035156"/>
       <use xlink:href="#DejaVuSans-2e" x="274.658203"/>
       <use xlink:href="#DejaVuSans-34" x="306.445312"/>
       <use xlink:href="#DejaVuSans-32" x="370.068359"/>
      </g>
     </g>
    </g>
    <g id="xtick_2">
     <g id="line2d_2">
      <g>
       <use xlink:href="#m1dd6a8f48e" x="220.235051" y="307.584" style="stroke: #000000; stroke-width: 0.8"/>
      </g>
     </g>
     <g id="text_2">
      <!-- 100.41 -->
      <g transform="translate(198.549894 322.182437) scale(0.1 -0.1)">
       <use xlink:href="#DejaVuSans-2212"/>
       <use xlink:href="#DejaVuSans-31" x="83.789062"/>
       <use xlink:href="#DejaVuSans-30" x="147.412109"/>
       <use xlink:href="#DejaVuSans-30" x="211.035156"/>
       <use xlink:href="#DejaVuSans-2e" x="274.658203"/>
       <use xlink:href="#DejaVuSans-34" x="306.445312"/>
       <use xlink:href="#DejaVuSans-31" x="370.068359"/>
      </g>
     </g>
    </g>
    <g id="xtick_3">
     <g id="line2d_3">
      <g>
       <use xlink:href="#m1dd6a8f48e" x="267.068946" y="307.584" style="stroke: #000000; stroke-width: 0.8"/>
      </g>
     </g>
     <g id="text_3">
      <!-- 100.40 -->
      <g transform="translate(245.38379 322.182437) scale(0.1 -0.1)">
       <use xlink:href="#DejaVuSans-2212"/>
       <use xlink:href="#DejaVuSans-31" x="83.789062"/>
       <use xlink:href="#DejaVuSans-30" x="147.412109"/>
       <use xlink:href="#DejaVuSans-30" x="211.035156"/>
       <use xlink:href="#DejaVuSans-2e" x="274.658203"/>
       <use xlink:href="#DejaVuSans-34" x="306.445312"/>
       <use xlink:href="#DejaVuSans-30" x="370.068359"/>
      </g>
     </g>
    </g>
    <g id="xtick_4">
     <g id="line2d_4">
      <g>
       <use xlink:href="#m1dd6a8f48e" x="313.902842" y="307.584" style="stroke: #000000; stroke-width: 0.8"/>
      </g>
     </g>
     <g id="text_4">
      <!-- 100.39 -->
      <g transform="translate(292.217685 322.182437) scale(0.1 -0.1)">
       <defs>
        <path id="DejaVuSans-33" d="M 2597 2516 
Q 3050 2419 3304 2112 
Q 3559 1806 3559 1356 
Q 3559 666 3084 287 
Q 2609 -91 1734 -91 
Q 1441 -91 1130 -33 
Q 819 25 488 141 
L 488 750 
Q 750 597 1062 519 
Q 1375 441 1716 441 
Q 2309 441 2620 675 
Q 2931 909 2931 1356 
Q 2931 1769 2642 2001 
Q 2353 2234 1838 2234 
L 1294 2234 
L 1294 2753 
L 1863 2753 
Q 2328 2753 2575 2939 
Q 2822 3125 2822 3475 
Q 2822 3834 2567 4026 
Q 2313 4219 1838 4219 
Q 1578 4219 1281 4162 
Q 984 4106 628 3988 
L 628 4550 
Q 988 4650 1302 4700 
Q 1616 4750 1894 4750 
Q 2613 4750 3031 4423 
Q 3450 4097 3450 3541 
Q 3450 3153 3228 2886 
Q 3006 2619 2597 2516 
z
" transform="scale(0.015625)"/>
        <path id="DejaVuSans-39" d="M 703 97 
L 703 672 
Q 941 559 1184 500 
Q 1428 441 1663 441 
Q 2288 441 2617 861 
Q 2947 1281 2994 2138 
Q 2813 1869 2534 1725 
Q 2256 1581 1919 1581 
Q 1219 1581 811 2004 
Q 403 2428 403 3163 
Q 403 3881 828 4315 
Q 1253 4750 1959 4750 
Q 2769 4750 3195 4129 
Q 3622 3509 3622 2328 
Q 3622 1225 3098 567 
Q 2575 -91 1691 -91 
Q 1453 -91 1209 -44 
Q 966 3 703 97 
z
M 1959 2075 
Q 2384 2075 2632 2365 
Q 2881 2656 2881 3163 
Q 2881 3666 2632 3958 
Q 2384 4250 1959 4250 
Q 1534 4250 1286 3958 
Q 1038 3666 1038 3163 
Q 1038 2656 1286 2365 
Q 1534 2075 1959 2075 
z
" transform="scale(0.015625)"/>
       </defs>
       <use xlink:href="#DejaVuSans-2212"/>
       <use xlink:href="#DejaVuSans-31" x="83.789062"/>
       <use xlink:href="#DejaVuSans-30" x="147.412109"/>
       <use xlink:href="#DejaVuSans-30" x="211.035156"/>
       <use xlink:href="#DejaVuSans-2e" x="274.658203"/>
       <use xlink:href="#DejaVuSans-33" x="306.445312"/>
       <use xlink:href="#DejaVuSans-39" x="370.068359"/>
      </g>
     </g>
    </g>
   </g>
   <g id="matplotlib.axis_2">
    <g id="ytick_1">
     <g id="line2d_5">
      <defs>
       <path id="md843cc49ee" d="M 0 0 
L -3.5 0 
" style="stroke: #000000; stroke-width: 0.8"/>
      </defs>
      <g>
       <use xlink:href="#md843cc49ee" x="158.322599" y="259.531097" style="stroke: #000000; stroke-width: 0.8"/>
      </g>
     </g>
     <g id="text_5">
      <!-- 19.37 -->
      <g transform="translate(122.694474 263.330316) scale(0.1 -0.1)">
       <defs>
        <path id="DejaVuSans-37" d="M 525 4666 
L 3525 4666 
L 3525 4397 
L 1831 0 
L 1172 0 
L 2766 4134 
L 525 4134 
L 525 4666 
z
" transform="scale(0.015625)"/>
       </defs>
       <use xlink:href="#DejaVuSans-31"/>
       <use xlink:href="#DejaVuSans-39" x="63.623047"/>
       <use xlink:href="#DejaVuSans-2e" x="127.246094"/>
       <use xlink:href="#DejaVuSans-33" x="159.033203"/>
       <use xlink:href="#DejaVuSans-37" x="222.65625"/>
      </g>
     </g>
    </g>
    <g id="ytick_2">
     <g id="line2d_6">
      <g>
       <use xlink:href="#md843cc49ee" x="158.322599" y="209.881962" style="stroke: #000000; stroke-width: 0.8"/>
      </g>
     </g>
     <g id="text_6">
      <!-- 19.38 -->
      <g transform="translate(122.694474 213.681181) scale(0.1 -0.1)">
       <defs>
        <path id="DejaVuSans-38" d="M 2034 2216 
Q 1584 2216 1326 1975 
Q 1069 1734 1069 1313 
Q 1069 891 1326 650 
Q 1584 409 2034 409 
Q 2484 409 2743 651 
Q 3003 894 3003 1313 
Q 3003 1734 2745 1975 
Q 2488 2216 2034 2216 
z
M 1403 2484 
Q 997 2584 770 2862 
Q 544 3141 544 3541 
Q 544 4100 942 4425 
Q 1341 4750 2034 4750 
Q 2731 4750 3128 4425 
Q 3525 4100 3525 3541 
Q 3525 3141 3298 2862 
Q 3072 2584 2669 2484 
Q 3125 2378 3379 2068 
Q 3634 1759 3634 1313 
Q 3634 634 3220 271 
Q 2806 -91 2034 -91 
Q 1263 -91 848 271 
Q 434 634 434 1313 
Q 434 1759 690 2068 
Q 947 2378 1403 2484 
z
M 1172 3481 
Q 1172 3119 1398 2916 
Q 1625 2713 2034 2713 
Q 2441 2713 2670 2916 
Q 2900 3119 2900 3481 
Q 2900 3844 2670 4047 
Q 2441 4250 2034 4250 
Q 1625 4250 1398 4047 
Q 1172 3844 1172 3481 
z
" transform="scale(0.015625)"/>
       </defs>
       <use xlink:href="#DejaVuSans-31"/>
       <use xlink:href="#DejaVuSans-39" x="63.623047"/>
       <use xlink:href="#DejaVuSans-2e" x="127.246094"/>
       <use xlink:href="#DejaVuSans-33" x="159.033203"/>
       <use xlink:href="#DejaVuSans-38" x="222.65625"/>
      </g>
     </g>
    </g>
    <g id="ytick_3">
     <g id="line2d_7">
      <g>
       <use xlink:href="#md843cc49ee" x="158.322599" y="160.232826" style="stroke: #000000; stroke-width: 0.8"/>
      </g>
     </g>
     <g id="text_7">
      <!-- 19.39 -->
      <g transform="translate(122.694474 164.032045) scale(0.1 -0.1)">
       <use xlink:href="#DejaVuSans-31"/>
       <use xlink:href="#DejaVuSans-39" x="63.623047"/>
       <use xlink:href="#DejaVuSans-2e" x="127.246094"/>
       <use xlink:href="#DejaVuSans-33" x="159.033203"/>
       <use xlink:href="#DejaVuSans-39" x="222.65625"/>
      </g>
     </g>
    </g>
    <g id="ytick_4">
     <g id="line2d_8">
      <g>
       <use xlink:href="#md843cc49ee" x="158.322599" y="110.583691" style="stroke: #000000; stroke-width: 0.8"/>
      </g>
     </g>
     <g id="text_8">
      <!-- 19.40 -->
      <g transform="translate(122.694474 114.38291) scale(0.1 -0.1)">
       <use xlink:href="#DejaVuSans-31"/>
       <use xlink:href="#DejaVuSans-39" x="63.623047"/>
       <use xlink:href="#DejaVuSans-2e" x="127.246094"/>
       <use xlink:href="#DejaVuSans-34" x="159.033203"/>
       <use xlink:href="#DejaVuSans-30" x="222.65625"/>
      </g>
     </g>
    </g>
    <g id="ytick_5">
     <g id="line2d_9">
      <g>
       <use xlink:href="#md843cc49ee" x="158.322599" y="60.934555" style="stroke: #000000; stroke-width: 0.8"/>
      </g>
     </g>
     <g id="text_9">
      <!-- 19.41 -->
      <g transform="translate(122.694474 64.733774) scale(0.1 -0.1)">
       <use xlink:href="#DejaVuSans-31"/>
       <use xlink:href="#DejaVuSans-39" x="63.623047"/>
       <use xlink:href="#DejaVuSans-2e" x="127.246094"/>
       <use xlink:href="#DejaVuSans-34" x="159.033203"/>
       <use xlink:href="#DejaVuSans-31" x="222.65625"/>
      </g>
     </g>
    </g>
   </g>
   <g id="patch_3">
    <path d="M 158.322599 307.584 
L 158.322599 41.472 
" style="fill: none; stroke: #000000; stroke-width: 0.8; stroke-linejoin: miter; stroke-linecap: square"/>
   </g>
   <g id="patch_4">
    <path d="M 313.997401 307.584 
L 313.997401 41.472 
" style="fill: none; stroke: #000000; stroke-width: 0.8; stroke-linejoin: miter; stroke-linecap: square"/>
   </g>
   <g id="patch_5">
    <path d="M 158.322599 307.584 
L 313.997401 307.584 
" style="fill: none; stroke: #000000; stroke-width: 0.8; stroke-linejoin: miter; stroke-linecap: square"/>
   </g>
   <g id="patch_6">
    <path d="M 158.322599 41.472 
L 313.997401 41.472 
" style="fill: none; stroke: #000000; stroke-width: 0.8; stroke-linejoin: miter; stroke-linecap: square"/>
   </g>
   <g id="text_10">
    <!-- presa_elbosque_hehaviour in 2022-05 -->
    <g transform="translate(121.771875 35.472) scale(0.12 -0.12)">
     <defs>
      <path id="DejaVuSans-70" d="M 1159 525 
L 1159 -1331 
L 581 -1331 
L 581 3500 
L 1159 3500 
L 1159 2969 
Q 1341 3281 1617 3432 
Q 1894 3584 2278 3584 
Q 2916 3584 3314 3078 
Q 3713 2572 3713 1747 
Q 3713 922 3314 415 
Q 2916 -91 2278 -91 
Q 1894 -91 1617 61 
Q 1341 213 1159 525 
z
M 3116 1747 
Q 3116 2381 2855 2742 
Q 2594 3103 2138 3103 
Q 1681 3103 1420 2742 
Q 1159 2381 1159 1747 
Q 1159 1113 1420 752 
Q 1681 391 2138 391 
Q 2594 391 2855 752 
Q 3116 1113 3116 1747 
z
" transform="scale(0.015625)"/>
      <path id="DejaVuSans-72" d="M 2631 2963 
Q 2534 3019 2420 3045 
Q 2306 3072 2169 3072 
Q 1681 3072 1420 2755 
Q 1159 2438 1159 1844 
L 1159 0 
L 581 0 
L 581 3500 
L 1159 3500 
L 1159 2956 
Q 1341 3275 1631 3429 
Q 1922 3584 2338 3584 
Q 2397 3584 2469 3576 
Q 2541 3569 2628 3553 
L 2631 2963 
z
" transform="scale(0.015625)"/>
      <path id="DejaVuSans-65" d="M 3597 1894 
L 3597 1613 
L 953 1613 
Q 991 1019 1311 708 
Q 1631 397 2203 397 
Q 2534 397 2845 478 
Q 3156 559 3463 722 
L 3463 178 
Q 3153 47 2828 -22 
Q 2503 -91 2169 -91 
Q 1331 -91 842 396 
Q 353 884 353 1716 
Q 353 2575 817 3079 
Q 1281 3584 2069 3584 
Q 2775 3584 3186 3129 
Q 3597 2675 3597 1894 
z
M 3022 2063 
Q 3016 2534 2758 2815 
Q 2500 3097 2075 3097 
Q 1594 3097 1305 2825 
Q 1016 2553 972 2059 
L 3022 2063 
z
" transform="scale(0.015625)"/>
      <path id="DejaVuSans-73" d="M 2834 3397 
L 2834 2853 
Q 2591 2978 2328 3040 
Q 2066 3103 1784 3103 
Q 1356 3103 1142 2972 
Q 928 2841 928 2578 
Q 928 2378 1081 2264 
Q 1234 2150 1697 2047 
L 1894 2003 
Q 2506 1872 2764 1633 
Q 3022 1394 3022 966 
Q 3022 478 2636 193 
Q 2250 -91 1575 -91 
Q 1294 -91 989 -36 
Q 684 19 347 128 
L 347 722 
Q 666 556 975 473 
Q 1284 391 1588 391 
Q 1994 391 2212 530 
Q 2431 669 2431 922 
Q 2431 1156 2273 1281 
Q 2116 1406 1581 1522 
L 1381 1569 
Q 847 1681 609 1914 
Q 372 2147 372 2553 
Q 372 3047 722 3315 
Q 1072 3584 1716 3584 
Q 2034 3584 2315 3537 
Q 2597 3491 2834 3397 
z
" transform="scale(0.015625)"/>
      <path id="DejaVuSans-61" d="M 2194 1759 
Q 1497 1759 1228 1600 
Q 959 1441 959 1056 
Q 959 750 1161 570 
Q 1363 391 1709 391 
Q 2188 391 2477 730 
Q 2766 1069 2766 1631 
L 2766 1759 
L 2194 1759 
z
M 3341 1997 
L 3341 0 
L 2766 0 
L 2766 531 
Q 2569 213 2275 61 
Q 1981 -91 1556 -91 
Q 1019 -91 701 211 
Q 384 513 384 1019 
Q 384 1609 779 1909 
Q 1175 2209 1959 2209 
L 2766 2209 
L 2766 2266 
Q 2766 2663 2505 2880 
Q 2244 3097 1772 3097 
Q 1472 3097 1187 3025 
Q 903 2953 641 2809 
L 641 3341 
Q 956 3463 1253 3523 
Q 1550 3584 1831 3584 
Q 2591 3584 2966 3190 
Q 3341 2797 3341 1997 
z
" transform="scale(0.015625)"/>
      <path id="DejaVuSans-5f" d="M 3263 -1063 
L 3263 -1509 
L -63 -1509 
L -63 -1063 
L 3263 -1063 
z
" transform="scale(0.015625)"/>
      <path id="DejaVuSans-6c" d="M 603 4863 
L 1178 4863 
L 1178 0 
L 603 0 
L 603 4863 
z
" transform="scale(0.015625)"/>
      <path id="DejaVuSans-62" d="M 3116 1747 
Q 3116 2381 2855 2742 
Q 2594 3103 2138 3103 
Q 1681 3103 1420 2742 
Q 1159 2381 1159 1747 
Q 1159 1113 1420 752 
Q 1681 391 2138 391 
Q 2594 391 2855 752 
Q 3116 1113 3116 1747 
z
M 1159 2969 
Q 1341 3281 1617 3432 
Q 1894 3584 2278 3584 
Q 2916 3584 3314 3078 
Q 3713 2572 3713 1747 
Q 3713 922 3314 415 
Q 2916 -91 2278 -91 
Q 1894 -91 1617 61 
Q 1341 213 1159 525 
L 1159 0 
L 581 0 
L 581 4863 
L 1159 4863 
L 1159 2969 
z
" transform="scale(0.015625)"/>
      <path id="DejaVuSans-6f" d="M 1959 3097 
Q 1497 3097 1228 2736 
Q 959 2375 959 1747 
Q 959 1119 1226 758 
Q 1494 397 1959 397 
Q 2419 397 2687 759 
Q 2956 1122 2956 1747 
Q 2956 2369 2687 2733 
Q 2419 3097 1959 3097 
z
M 1959 3584 
Q 2709 3584 3137 3096 
Q 3566 2609 3566 1747 
Q 3566 888 3137 398 
Q 2709 -91 1959 -91 
Q 1206 -91 779 398 
Q 353 888 353 1747 
Q 353 2609 779 3096 
Q 1206 3584 1959 3584 
z
" transform="scale(0.015625)"/>
      <path id="DejaVuSans-71" d="M 947 1747 
Q 947 1113 1208 752 
Q 1469 391 1925 391 
Q 2381 391 2643 752 
Q 2906 1113 2906 1747 
Q 2906 2381 2643 2742 
Q 2381 3103 1925 3103 
Q 1469 3103 1208 2742 
Q 947 2381 947 1747 
z
M 2906 525 
Q 2725 213 2448 61 
Q 2172 -91 1784 -91 
Q 1150 -91 751 415 
Q 353 922 353 1747 
Q 353 2572 751 3078 
Q 1150 3584 1784 3584 
Q 2172 3584 2448 3432 
Q 2725 3281 2906 2969 
L 2906 3500 
L 3481 3500 
L 3481 -1331 
L 2906 -1331 
L 2906 525 
z
" transform="scale(0.015625)"/>
      <path id="DejaVuSans-75" d="M 544 1381 
L 544 3500 
L 1119 3500 
L 1119 1403 
Q 1119 906 1312 657 
Q 1506 409 1894 409 
Q 2359 409 2629 706 
Q 2900 1003 2900 1516 
L 2900 3500 
L 3475 3500 
L 3475 0 
L 2900 0 
L 2900 538 
Q 2691 219 2414 64 
Q 2138 -91 1772 -91 
Q 1169 -91 856 284 
Q 544 659 544 1381 
z
M 1991 3584 
L 1991 3584 
z
" transform="scale(0.015625)"/>
      <path id="DejaVuSans-68" d="M 3513 2113 
L 3513 0 
L 2938 0 
L 2938 2094 
Q 2938 2591 2744 2837 
Q 2550 3084 2163 3084 
Q 1697 3084 1428 2787 
Q 1159 2491 1159 1978 
L 1159 0 
L 581 0 
L 581 4863 
L 1159 4863 
L 1159 2956 
Q 1366 3272 1645 3428 
Q 1925 3584 2291 3584 
Q 2894 3584 3203 3211 
Q 3513 2838 3513 2113 
z
" transform="scale(0.015625)"/>
      <path id="DejaVuSans-76" d="M 191 3500 
L 800 3500 
L 1894 563 
L 2988 3500 
L 3597 3500 
L 2284 0 
L 1503 0 
L 191 3500 
z
" transform="scale(0.015625)"/>
      <path id="DejaVuSans-69" d="M 603 3500 
L 1178 3500 
L 1178 0 
L 603 0 
L 603 3500 
z
M 603 4863 
L 1178 4863 
L 1178 4134 
L 603 4134 
L 603 4863 
z
" transform="scale(0.015625)"/>
      <path id="DejaVuSans-20" transform="scale(0.015625)"/>
      <path id="DejaVuSans-6e" d="M 3513 2113 
L 3513 0 
L 2938 0 
L 2938 2094 
Q 2938 2591 2744 2837 
Q 2550 3084 2163 3084 
Q 1697 3084 1428 2787 
Q 1159 2491 1159 1978 
L 1159 0 
L 581 0 
L 581 3500 
L 1159 3500 
L 1159 2956 
Q 1366 3272 1645 3428 
Q 1925 3584 2291 3584 
Q 2894 3584 3203 3211 
Q 3513 2838 3513 2113 
z
" transform="scale(0.015625)"/>
      <path id="DejaVuSans-2d" d="M 313 2009 
L 1997 2009 
L 1997 1497 
L 313 1497 
L 313 2009 
z
" transform="scale(0.015625)"/>
      <path id="DejaVuSans-35" d="M 691 4666 
L 3169 4666 
L 3169 4134 
L 1269 4134 
L 1269 2991 
Q 1406 3038 1543 3061 
Q 1681 3084 1819 3084 
Q 2600 3084 3056 2656 
Q 3513 2228 3513 1497 
Q 3513 744 3044 326 
Q 2575 -91 1722 -91 
Q 1428 -91 1123 -41 
Q 819 9 494 109 
L 494 744 
Q 775 591 1075 516 
Q 1375 441 1709 441 
Q 2250 441 2565 725 
Q 2881 1009 2881 1497 
Q 2881 1984 2565 2268 
Q 2250 2553 1709 2553 
Q 1456 2553 1204 2497 
Q 953 2441 691 2322 
L 691 4666 
z
" transform="scale(0.015625)"/>
     </defs>
     <use xlink:href="#DejaVuSans-70"/>
     <use xlink:href="#DejaVuSans-72" x="63.476562"/>
     <use xlink:href="#DejaVuSans-65" x="102.339844"/>
     <use xlink:href="#DejaVuSans-73" x="163.863281"/>
     <use xlink:href="#DejaVuSans-61" x="215.962891"/>
     <use xlink:href="#DejaVuSans-5f" x="277.242188"/>
     <use xlink:href="#DejaVuSans-65" x="327.242188"/>
     <use xlink:href="#DejaVuSans-6c" x="388.765625"/>
     <use xlink:href="#DejaVuSans-62" x="416.548828"/>
     <use xlink:href="#DejaVuSans-6f" x="480.025391"/>
     <use xlink:href="#DejaVuSans-73" x="541.207031"/>
     <use xlink:href="#DejaVuSans-71" x="593.306641"/>
     <use xlink:href="#DejaVuSans-75" x="656.783203"/>
     <use xlink:href="#DejaVuSans-65" x="720.162109"/>
     <use xlink:href="#DejaVuSans-5f" x="781.685547"/>
     <use xlink:href="#DejaVuSans-68" x="831.685547"/>
     <use xlink:href="#DejaVuSans-65" x="895.064453"/>
     <use xlink:href="#DejaVuSans-68" x="956.587891"/>
     <use xlink:href="#DejaVuSans-61" x="1019.966797"/>
     <use xlink:href="#DejaVuSans-76" x="1081.246094"/>
     <use xlink:href="#DejaVuSans-69" x="1140.425781"/>
     <use xlink:href="#DejaVuSans-6f" x="1168.208984"/>
     <use xlink:href="#DejaVuSans-75" x="1229.390625"/>
     <use xlink:href="#DejaVuSans-72" x="1292.769531"/>
     <use xlink:href="#DejaVuSans-20" x="1333.882812"/>
     <use xlink:href="#DejaVuSans-69" x="1365.669922"/>
     <use xlink:href="#DejaVuSans-6e" x="1393.453125"/>
     <use xlink:href="#DejaVuSans-20" x="1456.832031"/>
     <use xlink:href="#DejaVuSans-32" x="1488.619141"/>
     <use xlink:href="#DejaVuSans-30" x="1552.242188"/>
     <use xlink:href="#DejaVuSans-32" x="1615.865234"/>
     <use xlink:href="#DejaVuSans-32" x="1679.488281"/>
     <use xlink:href="#DejaVuSans-2d" x="1743.111328"/>
     <use xlink:href="#DejaVuSans-30" x="1779.195312"/>
     <use xlink:href="#DejaVuSans-35" x="1842.818359"/>
    </g>
   </g>
  </g>
 </g>
 <defs>
  <clipPath id="p40b97633d1">
   <rect x="158.322599" y="41.472" width="155.674802" height="266.112"/>
  </clipPath>
 </defs>
</svg>
