<?xml version="1.0" encoding="utf-8" standalone="no"?>
<!DOCTYPE svg PUBLIC "-//W3C//DTD SVG 1.1//EN"
  "http://www.w3.org/Graphics/SVG/1.1/DTD/svg11.dtd">
<svg xmlns:xlink="http://www.w3.org/1999/xlink" width="460.8pt" height="345.6pt" viewBox="0 0 460.8 345.6" xmlns="http://www.w3.org/2000/svg" version="1.1">
 <metadata>
  <rdf:RDF xmlns:dc="http://purl.org/dc/elements/1.1/" xmlns:cc="http://creativecommons.org/ns#" xmlns:rdf="http://www.w3.org/1999/02/22-rdf-syntax-ns#">
   <cc:Work>
    <dc:type rdf:resource="http://purl.org/dc/dcmitype/StillImage"/>
    <dc:date>2024-03-04T19:42:21.686095</dc:date>
    <dc:format>image/svg+xml</dc:format>
    <dc:creator>
     <cc:Agent>
      <dc:title>Matplotlib v3.8.0, https://matplotlib.org/</dc:title>
     </cc:Agent>
    </dc:creator>
   </cc:Work>
  </rdf:RDF>
 </metadata>
 <defs>
  <style type="text/css">*{stroke-linejoin: round; stroke-linecap: butt}</style>
 </defs>
 <g id="figure_1">
  <g id="patch_1">
   <path d="M 0 345.6 
L 460.8 345.6 
L 460.8 0 
L 0 0 
z
" style="fill: #ffffff"/>
  </g>
  <g id="axes_1">
   <g id="patch_2">
    <path d="M 157.276621 307.584 
L 315.043379 307.584 
L 315.043379 41.472 
L 157.276621 41.472 
z
" style="fill: #ffffff"/>
   </g>
   <g id="PatchCollection_1">
    <path d="M 178.593074 185.203552 
L 178.003516 183.845489 
L 176.530772 183.692342 
L 175.941207 182.334278 
L 176.824392 181.12936 
L 178.297141 181.28251 
L 179.180329 180.077595 
L 180.653077 180.230749 
L 181.536269 179.025837 
L 180.946712 177.667768 
L 181.829908 176.462855 
L 181.24035 175.104783 
L 179.767592 174.951624 
L 179.178028 173.59355 
L 177.705264 173.440394 
L 177.115694 172.082319 
L 175.642924 171.929165 
L 175.053347 170.571088 
L 173.58057 170.417936 
L 172.990987 169.059858 
L 171.518204 168.906709 
L 170.63501 170.111639 
L 169.162226 169.958494 
L 168.572632 168.600417 
L 167.099841 168.447274 
L 166.510241 167.089195 
L 165.037444 166.936054 
L 164.447837 165.577974 
L 165.331031 164.373032 
L 164.741423 163.014949 
L 165.62462 161.810007 
L 165.03501 160.451921 
L 165.918211 159.246978 
L 167.391023 159.400125 
L 168.274228 158.195186 
L 167.684621 156.837095 
L 168.56783 155.632155 
L 167.978222 154.274062 
L 168.861434 153.069122 
L 168.271824 151.711026 
L 169.15504 150.506085 
L 168.565429 149.147986 
L 169.448649 147.943045 
L 168.859036 146.584944 
L 167.386199 146.431785 
L 166.79658 145.073682 
L 167.679803 143.868737 
L 167.090182 142.510631 
L 167.973409 141.305685 
L 169.446256 141.458848 
L 170.329486 140.253905 
L 169.739869 138.895795 
L 170.623103 137.690852 
L 170.033485 136.332739 
L 170.916722 135.127795 
L 170.327102 133.76968 
L 171.210343 132.564735 
L 170.620722 131.206617 
L 171.503966 130.001672 
L 172.976833 130.154849 
L 173.860081 128.949907 
L 173.270463 127.591785 
L 174.153715 126.386843 
L 173.564096 125.028718 
L 174.447351 123.823775 
L 175.920227 123.97696 
L 176.803486 122.772021 
L 176.21387 121.413892 
L 177.097133 120.208951 
L 176.507516 118.850819 
L 177.390782 117.645879 
L 176.801163 116.287744 
L 177.684434 115.082803 
L 177.094813 113.724665 
L 177.978087 112.519724 
L 177.388465 111.161583 
L 175.915564 111.008386 
L 175.325936 109.650245 
L 176.209213 108.445299 
L 175.619583 107.087155 
L 174.146671 106.933957 
L 173.557035 105.575812 
L 174.440315 104.370862 
L 173.850677 103.012713 
L 172.377754 102.859516 
L 171.78811 101.501366 
L 172.671394 100.296412 
L 172.081748 98.938259 
L 172.965036 97.733305 
L 172.375389 96.375149 
L 173.25868 95.170194 
L 174.731619 95.323398 
L 175.614914 94.118446 
L 175.025271 92.760286 
L 173.552327 92.60708 
L 172.962677 91.248919 
L 173.845975 90.043963 
L 175.318924 90.197171 
L 176.202227 88.992218 
L 175.61258 87.634053 
L 176.495886 86.429099 
L 177.968839 86.582315 
L 178.852149 85.377364 
L 178.262505 84.019195 
L 179.145819 82.814244 
L 180.618776 82.967466 
L 181.502093 81.762518 
L 180.912453 80.404345 
L 181.795774 79.199397 
L 181.206132 77.84122 
L 182.089457 76.636272 
L 181.499814 75.278093 
L 180.026842 75.124864 
L 179.437193 73.766683 
L 180.320521 72.561731 
L 179.73087 71.203547 
L 178.257886 71.050319 
L 177.668229 69.692134 
L 178.551561 68.487177 
L 177.961902 67.12899 
L 178.845237 65.924032 
L 180.318231 66.077266 
L 181.201569 64.872311 
L 182.674562 65.025549 
L 183.557904 63.820598 
L 182.968254 62.462405 
L 183.8516 61.257453 
L 183.261948 59.899258 
L 184.145298 58.694305 
L 183.555645 57.336107 
L 184.438998 56.131154 
L 183.849343 54.772953 
L 184.7327 53.568 
L 186.205712 53.721252 
L 186.795362 55.079454 
L 188.268367 55.232708 
L 188.85801 56.590909 
L 190.33101 56.744166 
L 190.920647 58.102365 
L 192.39364 58.255624 
L 192.98327 59.613823 
L 194.456257 59.767083 
L 195.045881 61.125281 
L 196.518862 61.278544 
L 197.10848 62.63674 
L 198.581454 62.790005 
L 199.171066 64.1482 
L 200.644034 64.301468 
L 201.233639 65.659661 
L 200.35028 66.864584 
L 200.939884 68.222775 
L 202.412841 68.376043 
L 203.002438 69.734232 
L 204.475389 69.887502 
L 205.06498 71.245689 
L 204.181625 72.450605 
L 204.771214 73.80879 
L 206.244153 73.962061 
L 206.833736 75.320244 
L 208.30667 75.473517 
L 208.896246 76.831699 
L 208.012894 78.036607 
L 208.602469 79.394786 
L 210.075391 79.548059 
L 210.66496 80.906237 
L 209.781612 82.111141 
L 210.371179 83.469316 
L 211.844089 83.622589 
L 212.43365 84.980763 
L 213.906555 85.134038 
L 214.496109 86.49221 
L 213.612764 87.697106 
L 214.202317 89.055276 
L 215.67521 89.208551 
L 216.558555 88.003659 
L 218.031447 88.156938 
L 218.914797 86.952049 
L 220.387688 87.105334 
L 221.27104 85.900448 
L 222.74393 86.053737 
L 223.627287 84.848854 
L 223.037754 83.490678 
L 223.921114 82.285795 
L 225.394008 82.439091 
L 226.277372 81.234211 
L 225.687842 79.876031 
L 226.57121 78.671151 
L 228.044107 78.824453 
L 228.927479 77.619576 
L 230.400376 77.772883 
L 230.989896 79.131066 
L 230.106524 80.335939 
L 230.696043 81.694119 
L 232.168928 81.847426 
L 232.75844 83.205605 
L 234.231319 83.358914 
L 234.820825 84.717091 
L 236.293698 84.870403 
L 237.17707 83.66554 
L 238.649942 83.818857 
L 239.533318 82.613997 
L 241.006189 82.767319 
L 241.889569 81.562462 
L 243.362438 81.715788 
L 243.951923 83.073968 
L 245.424786 83.227296 
L 246.30817 82.022446 
L 245.71869 80.664265 
L 246.602078 79.459415 
L 246.012596 78.101231 
L 246.895987 76.896381 
L 246.306504 75.538194 
L 247.189899 74.333343 
L 246.600415 72.975154 
L 247.483813 71.770302 
L 246.894327 70.41211 
L 247.777729 69.207258 
L 249.250617 69.360602 
L 250.134022 68.155753 
L 251.606909 68.309102 
L 252.196385 69.667297 
L 253.669265 69.820648 
L 254.552675 68.615806 
L 256.025554 68.769162 
L 256.908967 67.564323 
L 258.381845 67.717683 
L 259.265262 66.512848 
L 260.738139 66.666212 
L 261.62156 65.46138 
L 263.094436 65.614749 
L 263.977861 64.40992 
L 265.450735 64.563294 
L 266.334164 63.358468 
L 265.744717 62.000265 
L 266.628149 60.795438 
L 268.101028 60.948819 
L 268.69047 62.307024 
L 270.163342 62.460407 
L 270.752777 63.818611 
L 272.225644 63.971996 
L 272.815073 65.330198 
L 274.287933 65.483586 
L 275.171369 64.278774 
L 274.581945 62.92057 
L 275.465385 61.715757 
L 276.938249 61.869152 
L 277.527668 63.227357 
L 276.644228 64.432166 
L 277.233646 65.790368 
L 278.706498 65.943763 
L 279.295909 67.301964 
L 280.768756 67.455361 
L 281.358161 68.81356 
L 282.831001 68.96696 
L 283.420399 70.325158 
L 284.893234 70.47856 
L 285.482626 71.836756 
L 286.955454 71.99016 
L 287.544839 73.348356 
L 286.661402 74.553146 
L 287.250786 75.911339 
L 288.723602 76.064743 
L 289.31298 77.422934 
L 290.785791 77.57634 
L 291.375162 78.93453 
L 290.491728 80.139313 
L 291.081098 81.4975 
L 292.553897 81.650906 
L 293.437331 80.446128 
L 294.910129 80.599539 
L 295.499488 81.957726 
L 296.97228 82.111139 
L 297.561632 83.469325 
L 299.034417 83.622741 
L 299.623763 84.980925 
L 301.096542 85.134343 
L 301.685882 86.492526 
L 303.158655 86.645947 
L 303.747988 88.004128 
L 305.220755 88.157551 
L 305.810082 89.515731 
L 307.282842 89.669156 
L 307.872163 91.027335 
L 306.988727 92.232088 
L 307.578046 93.590265 
L 306.694614 94.795017 
L 305.221863 94.641597 
L 304.338435 95.846352 
L 304.927757 97.204524 
L 304.044333 98.409279 
L 304.633653 99.767449 
L 306.106394 99.920864 
L 306.695708 101.279032 
L 305.812287 102.483783 
L 306.4016 103.841948 
L 305.518182 105.046699 
L 304.045452 104.893288 
L 303.162038 106.098041 
L 303.751355 107.456202 
L 302.867944 108.660955 
L 303.457259 110.019113 
L 302.573853 111.223866 
L 303.163166 112.582021 
L 302.279763 113.786773 
L 300.807047 113.633374 
L 299.923648 114.838129 
L 300.512965 116.19628 
L 299.629569 117.401035 
L 298.156857 117.247642 
L 297.273465 118.4524 
L 295.800752 118.299011 
L 294.917364 119.503772 
L 295.506689 120.861918 
L 294.623304 122.066679 
L 293.150595 121.913297 
L 292.267214 123.118061 
L 292.856543 124.476203 
L 291.973166 125.680966 
L 290.500461 125.527591 
L 289.617087 126.732358 
L 290.206419 128.090495 
L 289.32305 129.295261 
L 287.850348 129.141893 
L 286.966982 130.346662 
L 287.556318 131.704795 
L 286.672955 132.909564 
L 287.262289 134.267695 
L 286.378931 135.472463 
L 286.968263 136.83059 
L 286.084908 138.035358 
L 286.674239 139.393483 
L 285.790888 140.59825 
L 284.318205 140.444896 
L 283.434858 141.649666 
L 284.024192 143.007787 
L 283.140848 144.212557 
L 283.730181 145.570674 
L 282.846841 146.775444 
L 283.436172 148.133559 
L 282.552835 149.338328 
L 281.080167 149.184985 
L 280.196834 150.389757 
L 280.786169 151.747868 
L 279.90284 152.952639 
L 278.430175 152.799304 
L 277.54685 154.004078 
L 278.136188 155.362185 
L 277.252866 156.566959 
L 275.780206 156.41363 
L 274.896888 157.618408 
L 273.424226 157.465083 
L 272.834878 156.106979 
L 271.362211 155.953657 
L 270.772856 154.595552 
L 269.300183 154.442232 
L 268.416868 155.64702 
L 266.944194 155.493705 
L 266.060883 156.698496 
L 266.650248 158.056599 
L 265.766941 159.261389 
L 266.356304 160.619489 
L 265.473 161.824279 
L 266.062362 163.182376 
L 267.535021 163.335684 
L 268.124376 164.69378 
L 267.241077 165.898566 
L 267.83043 167.256658 
L 269.303078 167.409967 
L 269.892425 168.768058 
L 271.365068 168.921369 
L 271.954408 170.279459 
L 273.427044 170.432772 
L 274.016378 171.790861 
L 273.133082 172.995635 
L 273.722415 174.353721 
L 272.839122 175.558495 
L 271.366496 175.405186 
L 270.483207 176.609963 
L 271.072543 177.968045 
L 270.189257 179.172822 
L 270.778592 180.5309 
L 272.251208 180.684204 
L 272.840536 182.042282 
L 271.957254 183.247054 
L 272.546581 184.605129 
L 271.663302 185.809901 
L 272.252628 187.167973 
L 273.725227 187.321275 
L 274.314546 188.679345 
L 273.431271 189.884113 
L 274.020588 191.242181 
L 273.137317 192.446948 
L 271.664728 192.293651 
L 270.78146 193.498421 
L 269.30887 193.345129 
L 268.719542 191.987063 
L 267.246946 191.833773 
L 266.363682 193.03855 
L 264.891085 192.885265 
L 264.007825 194.090045 
L 262.535226 193.936764 
L 261.65197 195.141548 
L 262.241312 196.499608 
L 261.358059 197.704391 
L 261.9474 199.062449 
L 261.064151 200.267232 
L 261.65349 201.625287 
L 260.770245 202.830069 
L 261.359582 204.188122 
L 260.47634 205.392903 
L 261.065677 206.750953 
L 262.53825 206.904223 
L 263.127579 208.262271 
L 262.244341 209.467048 
L 262.833669 210.825094 
L 264.306231 210.978364 
L 264.895553 212.336408 
L 264.012318 213.541181 
L 264.601639 214.899222 
L 266.074189 215.052492 
L 266.663503 216.410532 
L 265.780272 217.615301 
L 266.369584 218.973338 
L 267.842124 219.126608 
L 268.43143 220.484644 
L 267.548202 221.689409 
L 268.137507 223.047442 
L 269.610035 223.200712 
L 270.199333 224.558744 
L 271.671855 224.712016 
L 272.261147 226.070046 
L 271.377922 227.274803 
L 271.967212 228.632831 
L 273.439723 228.786103 
L 274.029007 230.144129 
L 273.145785 231.348882 
L 273.735068 232.706905 
L 272.85185 233.911658 
L 273.441131 235.269678 
L 274.913626 235.422948 
L 275.5029 236.780968 
L 276.975388 236.93424 
L 277.564657 238.292258 
L 276.681442 239.497002 
L 277.270709 240.855017 
L 276.387498 242.059761 
L 276.976763 243.417773 
L 276.093556 244.622517 
L 274.621083 244.469251 
L 273.73788 245.673998 
L 272.265406 245.520737 
L 271.382206 246.725486 
L 271.97148 248.083493 
L 271.088284 249.288242 
L 271.677556 250.646246 
L 270.794363 251.850995 
L 271.383634 253.208996 
L 272.856093 253.36225 
L 273.445357 254.72025 
L 272.562168 255.924994 
L 271.089714 255.771743 
L 270.206529 256.97649 
L 270.795797 258.334486 
L 269.912615 259.539233 
L 270.501881 260.897226 
L 269.618703 262.101972 
L 270.207968 263.459963 
L 269.324794 264.664709 
L 267.852354 264.511468 
L 266.969183 265.716217 
L 267.558452 267.074203 
L 266.675284 268.278952 
L 265.202849 268.125718 
L 264.319686 269.33047 
L 264.908957 270.688452 
L 264.025798 271.893203 
L 264.615068 273.251182 
L 263.731912 274.455933 
L 262.259485 274.302709 
L 261.376333 275.507463 
L 259.903905 275.354243 
L 259.020757 276.559 
L 257.548328 276.405785 
L 256.665183 277.610545 
L 255.192753 277.457335 
L 254.309612 278.662098 
L 252.837182 278.508892 
L 251.954044 279.713659 
L 250.481612 279.560457 
L 249.892313 278.202487 
L 248.419874 278.049288 
L 247.536741 279.254061 
L 246.064302 279.100867 
L 245.181172 280.305644 
L 243.708732 280.152454 
L 242.825606 281.357234 
L 241.353165 281.204048 
L 240.470042 282.408831 
L 238.9976 282.25565 
L 238.114482 283.460437 
L 236.642038 283.30726 
L 235.758923 284.51205 
L 236.348253 285.870012 
L 235.465142 287.074801 
L 233.992702 286.921631 
L 233.109595 288.126424 
L 231.637154 287.973259 
L 230.754051 289.178054 
L 229.281609 289.024894 
L 228.398509 290.229692 
L 226.926066 290.076537 
L 226.04297 291.281338 
L 224.570526 291.128187 
L 223.687434 292.332992 
L 222.214989 292.179846 
L 221.331901 293.384654 
L 219.859454 293.231512 
L 218.97637 294.436323 
L 217.503922 294.283186 
L 216.620842 295.488 
L 215.148393 295.334867 
L 214.55902 293.976918 
L 215.4421 292.7721 
L 214.852725 291.414148 
L 213.380265 291.261015 
L 212.790884 289.903062 
L 211.318418 289.749932 
L 210.729031 288.391977 
L 211.612114 287.187151 
L 211.022725 285.829193 
L 209.550248 285.676063 
L 208.667164 286.880893 
L 207.194686 286.727767 
L 206.605285 285.36981 
L 207.488369 284.164976 
L 206.898967 282.807016 
L 207.782054 281.602182 
L 207.192651 280.244219 
L 208.075741 279.039385 
L 207.486336 277.681419 
L 208.36943 276.476584 
L 207.780024 275.118616 
L 208.663122 273.91378 
L 208.073714 272.555809 
L 206.601204 272.402674 
L 206.01179 271.044701 
L 206.894891 269.839862 
L 206.305476 268.481886 
L 207.18858 267.277046 
L 206.599163 265.919068 
L 207.482272 264.714227 
L 206.892853 263.356246 
L 207.775965 262.151405 
L 207.186545 260.793421 
L 208.069661 259.58858 
L 207.480239 258.230593 
L 208.363358 257.025751 
L 207.773936 255.667762 
L 208.657058 254.462919 
L 208.067634 253.104927 
L 208.95076 251.900084 
L 208.361334 250.542089 
L 209.244464 249.337245 
L 210.71702 249.4904 
L 211.600154 248.28556 
L 211.010732 246.927561 
L 211.893869 245.72272 
L 213.366429 245.875882 
L 214.24957 244.671044 
L 213.660151 243.31304 
L 214.543296 242.108202 
L 216.01586 242.261371 
L 216.899008 241.056536 
L 216.309592 239.698528 
L 217.192745 238.493693 
L 216.603327 237.135682 
L 217.486483 235.930846 
L 218.959056 236.084024 
L 219.842216 234.879191 
L 219.252802 233.521177 
L 220.135965 232.316343 
L 219.54655 230.958326 
L 220.429717 229.753492 
L 219.8403 228.395472 
L 220.72347 227.190637 
L 220.134052 225.832614 
L 221.017226 224.627779 
L 220.427807 223.269754 
L 218.955208 223.116564 
L 218.365782 221.758537 
L 219.24896 220.553698 
L 218.659532 219.195668 
L 217.186923 219.042479 
L 216.597489 217.684448 
L 215.124873 217.531261 
L 214.535433 216.173228 
L 213.062811 216.020043 
L 212.473364 214.662009 
L 211.000736 214.508827 
L 210.411283 213.150792 
L 208.938648 212.997612 
L 208.349189 211.639575 
L 209.232369 210.434717 
L 208.642908 209.076677 
L 207.170263 208.923497 
L 206.580795 207.565457 
L 207.463979 206.360594 
L 206.87451 205.002551 
L 205.401853 204.849371 
L 204.812378 203.491326 
L 203.339715 203.338148 
L 202.750233 201.980102 
L 201.277564 201.826927 
L 200.394381 203.0318 
L 198.92171 202.878629 
L 198.332218 201.520583 
L 196.859541 201.367415 
L 196.270042 200.009367 
L 194.797359 199.856201 
L 193.91418 201.061085 
L 192.441496 200.907923 
L 191.851986 199.549876 
L 190.379295 199.396717 
L 189.789779 198.038668 
L 188.317082 197.885511 
L 187.433908 199.090405 
L 185.96121 198.937253 
L 185.371682 197.579204 
L 183.898978 197.426054 
L 183.309444 196.068004 
L 181.836734 195.914856 
L 181.247193 194.556805 
L 179.774477 194.403659 
L 179.184929 193.045606 
L 180.068103 191.840697 
L 179.478555 190.482641 
L 178.005827 190.329496 
L 177.416272 188.971439 
L 178.299449 187.766526 
L 177.709893 186.408466 
L 178.593074 185.203552 
L 178.593074 185.203552 
" clip-path="url(#pa175e44871)" style="fill: none; stroke: #ff0000; stroke-width: 0.7"/>
   </g>
   <g id="matplotlib.axis_1">
    <g id="xtick_1">
     <g id="line2d_1">
      <defs>
       <path id="ma6895a022a" d="M 0 0 
L 0 3.5 
" style="stroke: #000000; stroke-width: 0.8"/>
      </defs>
      <g>
       <use xlink:href="#ma6895a022a" x="173.024199" y="307.584" style="stroke: #000000; stroke-width: 0.8"/>
      </g>
     </g>
     <g id="text_1">
      <!-- −0.02 -->
      <g transform="translate(157.701543 322.182437) scale(0.1 -0.1)">
       <defs>
        <path id="DejaVuSans-2212" d="M 678 2272 
L 4684 2272 
L 4684 1741 
L 678 1741 
L 678 2272 
z
" transform="scale(0.015625)"/>
        <path id="DejaVuSans-30" d="M 2034 4250 
Q 1547 4250 1301 3770 
Q 1056 3291 1056 2328 
Q 1056 1369 1301 889 
Q 1547 409 2034 409 
Q 2525 409 2770 889 
Q 3016 1369 3016 2328 
Q 3016 3291 2770 3770 
Q 2525 4250 2034 4250 
z
M 2034 4750 
Q 2819 4750 3233 4129 
Q 3647 3509 3647 2328 
Q 3647 1150 3233 529 
Q 2819 -91 2034 -91 
Q 1250 -91 836 529 
Q 422 1150 422 2328 
Q 422 3509 836 4129 
Q 1250 4750 2034 4750 
z
" transform="scale(0.015625)"/>
        <path id="DejaVuSans-2e" d="M 684 794 
L 1344 794 
L 1344 0 
L 684 0 
L 684 794 
z
" transform="scale(0.015625)"/>
        <path id="DejaVuSans-32" d="M 1228 531 
L 3431 531 
L 3431 0 
L 469 0 
L 469 531 
Q 828 903 1448 1529 
Q 2069 2156 2228 2338 
Q 2531 2678 2651 2914 
Q 2772 3150 2772 3378 
Q 2772 3750 2511 3984 
Q 2250 4219 1831 4219 
Q 1534 4219 1204 4116 
Q 875 4013 500 3803 
L 500 4441 
Q 881 4594 1212 4672 
Q 1544 4750 1819 4750 
Q 2544 4750 2975 4387 
Q 3406 4025 3406 3419 
Q 3406 3131 3298 2873 
Q 3191 2616 2906 2266 
Q 2828 2175 2409 1742 
Q 1991 1309 1228 531 
z
" transform="scale(0.015625)"/>
       </defs>
       <use xlink:href="#DejaVuSans-2212"/>
       <use xlink:href="#DejaVuSans-30" x="83.789062"/>
       <use xlink:href="#DejaVuSans-2e" x="147.412109"/>
       <use xlink:href="#DejaVuSans-30" x="179.199219"/>
       <use xlink:href="#DejaVuSans-32" x="242.822266"/>
      </g>
     </g>
    </g>
    <g id="xtick_2">
     <g id="line2d_2">
      <g>
       <use xlink:href="#ma6895a022a" x="223.217015" y="307.584" style="stroke: #000000; stroke-width: 0.8"/>
      </g>
     </g>
     <g id="text_2">
      <!-- −0.01 -->
      <g transform="translate(207.894358 322.182437) scale(0.1 -0.1)">
       <defs>
        <path id="DejaVuSans-31" d="M 794 531 
L 1825 531 
L 1825 4091 
L 703 3866 
L 703 4441 
L 1819 4666 
L 2450 4666 
L 2450 531 
L 3481 531 
L 3481 0 
L 794 0 
L 794 531 
z
" transform="scale(0.015625)"/>
       </defs>
       <use xlink:href="#DejaVuSans-2212"/>
       <use xlink:href="#DejaVuSans-30" x="83.789062"/>
       <use xlink:href="#DejaVuSans-2e" x="147.412109"/>
       <use xlink:href="#DejaVuSans-30" x="179.199219"/>
       <use xlink:href="#DejaVuSans-31" x="242.822266"/>
      </g>
     </g>
    </g>
    <g id="xtick_3">
     <g id="line2d_3">
      <g>
       <use xlink:href="#ma6895a022a" x="273.40983" y="307.584" style="stroke: #000000; stroke-width: 0.8"/>
      </g>
     </g>
     <g id="text_3">
      <!-- 0.00 -->
      <g transform="translate(262.277018 322.182437) scale(0.1 -0.1)">
       <use xlink:href="#DejaVuSans-30"/>
       <use xlink:href="#DejaVuSans-2e" x="63.623047"/>
       <use xlink:href="#DejaVuSans-30" x="95.410156"/>
       <use xlink:href="#DejaVuSans-30" x="159.033203"/>
      </g>
     </g>
    </g>
    <g id="text_4">
     <!-- −1.004e2 -->
     <g transform="translate(265.519942 334.860562) scale(0.1 -0.1)">
      <defs>
       <path id="DejaVuSans-34" d="M 2419 4116 
L 825 1625 
L 2419 1625 
L 2419 4116 
z
M 2253 4666 
L 3047 4666 
L 3047 1625 
L 3713 1625 
L 3713 1100 
L 3047 1100 
L 3047 0 
L 2419 0 
L 2419 1100 
L 313 1100 
L 313 1709 
L 2253 4666 
z
" transform="scale(0.015625)"/>
       <path id="DejaVuSans-65" d="M 3597 1894 
L 3597 1613 
L 953 1613 
Q 991 1019 1311 708 
Q 1631 397 2203 397 
Q 2534 397 2845 478 
Q 3156 559 3463 722 
L 3463 178 
Q 3153 47 2828 -22 
Q 2503 -91 2169 -91 
Q 1331 -91 842 396 
Q 353 884 353 1716 
Q 353 2575 817 3079 
Q 1281 3584 2069 3584 
Q 2775 3584 3186 3129 
Q 3597 2675 3597 1894 
z
M 3022 2063 
Q 3016 2534 2758 2815 
Q 2500 3097 2075 3097 
Q 1594 3097 1305 2825 
Q 1016 2553 972 2059 
L 3022 2063 
z
" transform="scale(0.015625)"/>
      </defs>
      <use xlink:href="#DejaVuSans-2212"/>
      <use xlink:href="#DejaVuSans-31" x="83.789062"/>
      <use xlink:href="#DejaVuSans-2e" x="147.412109"/>
      <use xlink:href="#DejaVuSans-30" x="179.199219"/>
      <use xlink:href="#DejaVuSans-30" x="242.822266"/>
      <use xlink:href="#DejaVuSans-34" x="306.445312"/>
      <use xlink:href="#DejaVuSans-65" x="370.068359"/>
      <use xlink:href="#DejaVuSans-32" x="431.591797"/>
     </g>
    </g>
   </g>
   <g id="matplotlib.axis_2">
    <g id="ytick_1">
     <g id="line2d_4">
      <defs>
       <path id="m0ed2efa81f" d="M 0 0 
L -3.5 0 
" style="stroke: #000000; stroke-width: 0.8"/>
      </defs>
      <g>
       <use xlink:href="#m0ed2efa81f" x="157.276621" y="262.077952" style="stroke: #000000; stroke-width: 0.8"/>
      </g>
     </g>
     <g id="text_5">
      <!-- 19.37 -->
      <g transform="translate(121.648496 265.87717) scale(0.1 -0.1)">
       <defs>
        <path id="DejaVuSans-39" d="M 703 97 
L 703 672 
Q 941 559 1184 500 
Q 1428 441 1663 441 
Q 2288 441 2617 861 
Q 2947 1281 2994 2138 
Q 2813 1869 2534 1725 
Q 2256 1581 1919 1581 
Q 1219 1581 811 2004 
Q 403 2428 403 3163 
Q 403 3881 828 4315 
Q 1253 4750 1959 4750 
Q 2769 4750 3195 4129 
Q 3622 3509 3622 2328 
Q 3622 1225 3098 567 
Q 2575 -91 1691 -91 
Q 1453 -91 1209 -44 
Q 966 3 703 97 
z
M 1959 2075 
Q 2384 2075 2632 2365 
Q 2881 2656 2881 3163 
Q 2881 3666 2632 3958 
Q 2384 4250 1959 4250 
Q 1534 4250 1286 3958 
Q 1038 3666 1038 3163 
Q 1038 2656 1286 2365 
Q 1534 2075 1959 2075 
z
" transform="scale(0.015625)"/>
        <path id="DejaVuSans-33" d="M 2597 2516 
Q 3050 2419 3304 2112 
Q 3559 1806 3559 1356 
Q 3559 666 3084 287 
Q 2609 -91 1734 -91 
Q 1441 -91 1130 -33 
Q 819 25 488 141 
L 488 750 
Q 750 597 1062 519 
Q 1375 441 1716 441 
Q 2309 441 2620 675 
Q 2931 909 2931 1356 
Q 2931 1769 2642 2001 
Q 2353 2234 1838 2234 
L 1294 2234 
L 1294 2753 
L 1863 2753 
Q 2328 2753 2575 2939 
Q 2822 3125 2822 3475 
Q 2822 3834 2567 4026 
Q 2313 4219 1838 4219 
Q 1578 4219 1281 4162 
Q 984 4106 628 3988 
L 628 4550 
Q 988 4650 1302 4700 
Q 1616 4750 1894 4750 
Q 2613 4750 3031 4423 
Q 3450 4097 3450 3541 
Q 3450 3153 3228 2886 
Q 3006 2619 2597 2516 
z
" transform="scale(0.015625)"/>
        <path id="DejaVuSans-37" d="M 525 4666 
L 3525 4666 
L 3525 4397 
L 1831 0 
L 1172 0 
L 2766 4134 
L 525 4134 
L 525 4666 
z
" transform="scale(0.015625)"/>
       </defs>
       <use xlink:href="#DejaVuSans-31"/>
       <use xlink:href="#DejaVuSans-39" x="63.623047"/>
       <use xlink:href="#DejaVuSans-2e" x="127.246094"/>
       <use xlink:href="#DejaVuSans-33" x="159.033203"/>
       <use xlink:href="#DejaVuSans-37" x="222.65625"/>
      </g>
     </g>
    </g>
    <g id="ytick_2">
     <g id="line2d_5">
      <g>
       <use xlink:href="#m0ed2efa81f" x="157.276621" y="208.868205" style="stroke: #000000; stroke-width: 0.8"/>
      </g>
     </g>
     <g id="text_6">
      <!-- 19.38 -->
      <g transform="translate(121.648496 212.667424) scale(0.1 -0.1)">
       <defs>
        <path id="DejaVuSans-38" d="M 2034 2216 
Q 1584 2216 1326 1975 
Q 1069 1734 1069 1313 
Q 1069 891 1326 650 
Q 1584 409 2034 409 
Q 2484 409 2743 651 
Q 3003 894 3003 1313 
Q 3003 1734 2745 1975 
Q 2488 2216 2034 2216 
z
M 1403 2484 
Q 997 2584 770 2862 
Q 544 3141 544 3541 
Q 544 4100 942 4425 
Q 1341 4750 2034 4750 
Q 2731 4750 3128 4425 
Q 3525 4100 3525 3541 
Q 3525 3141 3298 2862 
Q 3072 2584 2669 2484 
Q 3125 2378 3379 2068 
Q 3634 1759 3634 1313 
Q 3634 634 3220 271 
Q 2806 -91 2034 -91 
Q 1263 -91 848 271 
Q 434 634 434 1313 
Q 434 1759 690 2068 
Q 947 2378 1403 2484 
z
M 1172 3481 
Q 1172 3119 1398 2916 
Q 1625 2713 2034 2713 
Q 2441 2713 2670 2916 
Q 2900 3119 2900 3481 
Q 2900 3844 2670 4047 
Q 2441 4250 2034 4250 
Q 1625 4250 1398 4047 
Q 1172 3844 1172 3481 
z
" transform="scale(0.015625)"/>
       </defs>
       <use xlink:href="#DejaVuSans-31"/>
       <use xlink:href="#DejaVuSans-39" x="63.623047"/>
       <use xlink:href="#DejaVuSans-2e" x="127.246094"/>
       <use xlink:href="#DejaVuSans-33" x="159.033203"/>
       <use xlink:href="#DejaVuSans-38" x="222.65625"/>
      </g>
     </g>
    </g>
    <g id="ytick_3">
     <g id="line2d_6">
      <g>
       <use xlink:href="#m0ed2efa81f" x="157.276621" y="155.658459" style="stroke: #000000; stroke-width: 0.8"/>
      </g>
     </g>
     <g id="text_7">
      <!-- 19.39 -->
      <g transform="translate(121.648496 159.457678) scale(0.1 -0.1)">
       <use xlink:href="#DejaVuSans-31"/>
       <use xlink:href="#DejaVuSans-39" x="63.623047"/>
       <use xlink:href="#DejaVuSans-2e" x="127.246094"/>
       <use xlink:href="#DejaVuSans-33" x="159.033203"/>
       <use xlink:href="#DejaVuSans-39" x="222.65625"/>
      </g>
     </g>
    </g>
    <g id="ytick_4">
     <g id="line2d_7">
      <g>
       <use xlink:href="#m0ed2efa81f" x="157.276621" y="102.448713" style="stroke: #000000; stroke-width: 0.8"/>
      </g>
     </g>
     <g id="text_8">
      <!-- 19.40 -->
      <g transform="translate(121.648496 106.247931) scale(0.1 -0.1)">
       <use xlink:href="#DejaVuSans-31"/>
       <use xlink:href="#DejaVuSans-39" x="63.623047"/>
       <use xlink:href="#DejaVuSans-2e" x="127.246094"/>
       <use xlink:href="#DejaVuSans-34" x="159.033203"/>
       <use xlink:href="#DejaVuSans-30" x="222.65625"/>
      </g>
     </g>
    </g>
    <g id="ytick_5">
     <g id="line2d_8">
      <g>
       <use xlink:href="#m0ed2efa81f" x="157.276621" y="49.238966" style="stroke: #000000; stroke-width: 0.8"/>
      </g>
     </g>
     <g id="text_9">
      <!-- 19.41 -->
      <g transform="translate(121.648496 53.038185) scale(0.1 -0.1)">
       <use xlink:href="#DejaVuSans-31"/>
       <use xlink:href="#DejaVuSans-39" x="63.623047"/>
       <use xlink:href="#DejaVuSans-2e" x="127.246094"/>
       <use xlink:href="#DejaVuSans-34" x="159.033203"/>
       <use xlink:href="#DejaVuSans-31" x="222.65625"/>
      </g>
     </g>
    </g>
   </g>
   <g id="patch_3">
    <path d="M 157.276621 307.584 
L 157.276621 41.472 
" style="fill: none; stroke: #000000; stroke-width: 0.8; stroke-linejoin: miter; stroke-linecap: square"/>
   </g>
   <g id="patch_4">
    <path d="M 315.043379 307.584 
L 315.043379 41.472 
" style="fill: none; stroke: #000000; stroke-width: 0.8; stroke-linejoin: miter; stroke-linecap: square"/>
   </g>
   <g id="patch_5">
    <path d="M 157.276621 307.584 
L 315.043379 307.584 
" style="fill: none; stroke: #000000; stroke-width: 0.8; stroke-linejoin: miter; stroke-linecap: square"/>
   </g>
   <g id="patch_6">
    <path d="M 157.276621 41.472 
L 315.043379 41.472 
" style="fill: none; stroke: #000000; stroke-width: 0.8; stroke-linejoin: miter; stroke-linecap: square"/>
   </g>
  </g>
 </g>
 <defs>
  <clipPath id="pa175e44871">
   <rect x="157.276621" y="41.472" width="157.766758" height="266.112"/>
  </clipPath>
 </defs>
</svg>
