<?xml version="1.0" encoding="utf-8" standalone="no"?>
<!DOCTYPE svg PUBLIC "-//W3C//DTD SVG 1.1//EN"
  "http://www.w3.org/Graphics/SVG/1.1/DTD/svg11.dtd">
<svg xmlns:xlink="http://www.w3.org/1999/xlink" width="460.8pt" height="345.6pt" viewBox="0 0 460.8 345.6" xmlns="http://www.w3.org/2000/svg" version="1.1">
 <metadata>
  <rdf:RDF xmlns:dc="http://purl.org/dc/elements/1.1/" xmlns:cc="http://creativecommons.org/ns#" xmlns:rdf="http://www.w3.org/1999/02/22-rdf-syntax-ns#">
   <cc:Work>
    <dc:type rdf:resource="http://purl.org/dc/dcmitype/StillImage"/>
    <dc:date>2024-03-22T17:57:34.339362</dc:date>
    <dc:format>image/svg+xml</dc:format>
    <dc:creator>
     <cc:Agent>
      <dc:title>Matplotlib v3.8.0, https://matplotlib.org/</dc:title>
     </cc:Agent>
    </dc:creator>
   </cc:Work>
  </rdf:RDF>
 </metadata>
 <defs>
  <style type="text/css">*{stroke-linejoin: round; stroke-linecap: butt}</style>
 </defs>
 <g id="figure_1">
  <g id="patch_1">
   <path d="M 0 345.6 
L 460.8 345.6 
L 460.8 0 
L 0 0 
z
" style="fill: #ffffff"/>
  </g>
  <g id="axes_1">
   <g id="patch_2">
    <path d="M 158.32228 307.584 
L 313.99772 307.584 
L 313.99772 41.472 
L 158.32228 41.472 
z
" style="fill: #ffffff"/>
   </g>
   <g id="PatchCollection_1">
    <path d="M 178.597123 187.800865 
L 178.047016 186.533679 
L 176.672823 186.39078 
L 176.12271 185.123592 
L 176.946795 183.999303 
L 178.320993 184.142205 
L 179.145081 183.017919 
L 180.519278 183.160824 
L 181.34337 182.036541 
L 180.793264 180.769349 
L 181.61736 179.645065 
L 181.067253 178.37787 
L 179.693047 178.23496 
L 179.142935 176.967764 
L 177.768723 176.824856 
L 177.218604 175.557659 
L 175.844387 175.414753 
L 175.294262 174.147554 
L 173.920039 174.004651 
L 173.369909 172.737451 
L 171.995679 172.594549 
L 171.171585 173.71885 
L 169.797355 173.575953 
L 169.247214 172.308753 
L 167.872978 172.165858 
L 167.322831 170.898657 
L 165.948589 170.755764 
L 165.398436 169.488562 
L 166.22253 168.364251 
L 165.672376 167.097046 
L 166.496473 165.972734 
L 165.946318 164.705526 
L 166.770418 163.581214 
L 168.144674 163.724113 
L 168.968779 162.599804 
L 168.418626 161.332592 
L 169.242734 160.208283 
L 168.69258 158.941069 
L 169.516691 157.816759 
L 168.966536 156.549542 
L 169.79065 155.425231 
L 169.240493 154.158012 
L 170.064611 153.033701 
L 169.514453 151.766479 
L 168.140173 151.623569 
L 167.59001 150.356346 
L 168.41413 149.232031 
L 167.863965 147.964805 
L 168.688089 146.84049 
L 170.062378 146.983404 
L 170.886506 145.859091 
L 170.336344 144.591862 
L 171.160475 143.467549 
L 170.610312 142.200316 
L 171.434446 141.076003 
L 170.884281 139.808768 
L 171.708419 138.684454 
L 171.158253 137.417217 
L 171.982394 136.292902 
L 173.356701 136.435829 
L 174.180846 135.311518 
L 173.630683 134.044276 
L 174.454831 132.919964 
L 173.904667 131.65272 
L 174.728818 130.528408 
L 176.103134 130.671343 
L 176.927289 129.547034 
L 176.377127 128.279786 
L 177.201286 127.155476 
L 176.651123 125.888226 
L 177.475285 124.763915 
L 176.925121 123.496662 
L 177.749286 122.372352 
L 177.199121 121.105096 
L 178.023289 119.980785 
L 177.473122 118.713527 
L 176.098783 118.570581 
L 175.54861 117.303321 
L 176.372782 116.179006 
L 175.822608 114.911744 
L 174.448258 114.768799 
L 173.898078 113.501535 
L 174.722253 112.377216 
L 174.172071 111.10995 
L 172.797711 110.967005 
L 172.247524 109.699737 
L 173.071701 108.575415 
L 172.521513 107.308145 
L 173.345694 106.183821 
L 172.795504 104.916549 
L 173.619689 103.792225 
L 174.994064 103.935177 
L 175.818252 102.810856 
L 175.268065 101.54358 
L 173.893685 101.400626 
L 173.343493 100.133348 
L 174.167684 99.009024 
L 175.542068 99.15198 
L 176.366263 98.027658 
L 175.816073 96.760376 
L 176.640272 95.636054 
L 178.01466 95.779017 
L 178.838861 94.654697 
L 178.288675 93.387412 
L 179.11288 92.263092 
L 180.487272 92.406061 
L 181.311481 91.281744 
L 180.761297 90.014455 
L 181.585509 88.890138 
L 181.035325 87.622846 
L 181.85954 86.498528 
L 181.309354 85.231234 
L 179.934948 85.088259 
L 179.384756 83.820963 
L 180.208975 82.696641 
L 179.658782 81.429343 
L 178.284365 81.286368 
L 177.734166 80.019068 
L 178.558388 78.894743 
L 178.008187 77.627441 
L 178.832412 76.503115 
L 180.206838 76.646094 
L 181.031067 75.521771 
L 182.405492 75.664755 
L 183.229724 74.540435 
L 182.679531 73.273127 
L 183.503767 72.148807 
L 182.953573 70.881497 
L 183.777812 69.757176 
L 183.227616 68.489863 
L 184.051858 67.365542 
L 183.501661 66.098227 
L 184.325907 64.973905 
L 185.70035 65.116901 
L 186.250542 66.384218 
L 187.624979 66.527217 
L 188.175166 67.794532 
L 189.549597 67.937533 
L 190.099778 69.204846 
L 191.474203 69.34785 
L 192.024378 70.615162 
L 193.398797 70.758167 
L 193.948966 72.025479 
L 195.32338 72.168486 
L 195.873543 73.435796 
L 197.247951 73.578806 
L 197.798107 74.846114 
L 199.17251 74.989126 
L 199.72266 76.256434 
L 198.898413 77.380728 
L 199.448563 78.648033 
L 200.822954 78.791045 
L 201.373098 80.058349 
L 202.747484 80.201363 
L 203.297621 81.468665 
L 202.473377 82.592952 
L 203.023513 83.860252 
L 204.397889 84.003266 
L 204.948019 85.270565 
L 206.322389 85.413581 
L 206.872513 86.680878 
L 206.048272 87.805158 
L 206.598394 89.072453 
L 207.972754 89.215469 
L 208.52287 90.482762 
L 207.698633 91.607038 
L 208.248748 92.874329 
L 209.623097 93.017345 
L 210.173206 94.284635 
L 211.547549 94.427653 
L 212.097652 95.694942 
L 211.273418 96.81921 
L 211.82352 98.086496 
L 213.197852 98.229515 
L 214.022087 97.105249 
L 215.396418 97.248272 
L 216.220657 96.12401 
L 217.594987 96.267037 
L 218.419229 95.142778 
L 219.793558 95.285809 
L 220.617804 94.161553 
L 220.06772 92.894262 
L 220.891969 91.770005 
L 222.266302 91.913043 
L 223.090554 90.788789 
L 222.540474 89.521495 
L 223.364729 88.39724 
L 224.739066 88.540285 
L 225.563325 87.416033 
L 226.937661 87.559082 
L 227.487732 88.826379 
L 226.663473 89.950627 
L 227.213543 91.217922 
L 228.587868 91.360971 
L 229.137932 92.628264 
L 230.512251 92.771315 
L 231.062309 94.038607 
L 232.436623 94.18166 
L 233.260883 93.057423 
L 234.635195 93.20048 
L 235.459459 92.076245 
L 236.83377 92.219307 
L 237.658037 91.095075 
L 239.032347 91.238141 
L 239.582386 92.505436 
L 240.95669 92.648504 
L 241.780961 91.524279 
L 241.230927 90.256983 
L 242.055201 89.132757 
L 241.505166 87.865458 
L 242.329444 86.741232 
L 241.779407 85.47393 
L 242.603688 84.349704 
L 242.05365 83.0824 
L 242.877934 81.958173 
L 242.327895 80.690866 
L 243.152182 79.566638 
L 244.526509 79.709721 
L 245.350801 78.585497 
L 246.725127 78.728584 
L 247.275157 79.995893 
L 248.649477 80.138982 
L 249.473772 79.014764 
L 250.848091 79.157858 
L 251.67239 78.033643 
L 253.046708 78.176741 
L 253.87101 77.052528 
L 255.245327 77.195631 
L 256.069633 76.071421 
L 257.443949 76.214528 
L 258.268258 75.090322 
L 259.642573 75.233432 
L 260.466885 74.109229 
L 259.916883 72.841912 
L 260.741198 71.717708 
L 262.115517 71.860825 
L 262.665515 73.128144 
L 264.039828 73.271263 
L 264.589821 74.53858 
L 265.964128 74.681702 
L 266.514114 75.949018 
L 267.888416 76.092141 
L 268.712735 74.967951 
L 268.162754 73.700634 
L 268.987077 72.576443 
L 270.361382 72.719573 
L 270.911359 73.986891 
L 270.087036 75.111079 
L 270.637012 76.378395 
L 272.011306 76.521525 
L 272.561276 77.78884 
L 273.935565 77.931972 
L 274.485529 79.199286 
L 275.859812 79.34242 
L 276.40977 80.609732 
L 277.784047 80.752869 
L 278.333999 82.02018 
L 279.70827 82.163319 
L 280.258216 83.430628 
L 279.433895 84.554798 
L 279.98384 85.822105 
L 281.358101 85.965244 
L 281.908039 87.23255 
L 283.282294 87.375691 
L 283.832227 88.642996 
L 283.007909 89.767158 
L 283.55784 91.03446 
L 284.932085 91.177601 
L 285.756403 90.053442 
L 287.130647 90.196587 
L 287.680567 91.463889 
L 289.054805 91.607037 
L 289.60472 92.874338 
L 290.978952 93.017487 
L 291.528861 94.284787 
L 292.903087 94.427938 
L 293.45299 95.695237 
L 294.82721 95.838391 
L 295.377107 97.105688 
L 296.751321 97.248844 
L 297.301212 98.51614 
L 298.675421 98.659298 
L 299.225306 99.926592 
L 298.400987 101.050727 
L 298.950871 102.318019 
L 298.126555 103.442154 
L 296.752355 103.299 
L 295.928043 104.423137 
L 296.47793 105.690425 
L 295.653621 106.814562 
L 296.203507 108.081847 
L 297.577696 108.224997 
L 298.127576 109.492281 
L 297.30327 110.616414 
L 297.853148 111.883696 
L 297.028846 113.007829 
L 295.654666 112.864683 
L 294.830367 113.988819 
L 295.380248 115.256096 
L 294.555953 116.380232 
L 295.105833 117.647507 
L 294.28154 118.771641 
L 294.831419 120.038914 
L 294.00713 121.163048 
L 292.632963 121.019913 
L 291.808678 122.14405 
L 292.35856 123.411319 
L 291.534278 124.535456 
L 290.160114 124.392327 
L 289.335836 125.516467 
L 287.961672 125.373343 
L 287.137397 126.497485 
L 287.687286 127.764749 
L 286.863015 128.888891 
L 285.488854 128.745773 
L 284.664586 129.869918 
L 285.214479 131.137178 
L 284.390215 132.261322 
L 283.016058 132.118211 
L 282.191797 133.242359 
L 282.741693 134.509614 
L 281.917435 135.633762 
L 280.543282 135.490657 
L 279.719027 136.614807 
L 280.268927 137.882058 
L 279.444676 139.006208 
L 279.994574 140.273457 
L 279.170326 141.397606 
L 279.720223 142.664853 
L 278.895979 143.789002 
L 279.445874 145.056246 
L 278.621633 146.180394 
L 277.247498 146.037302 
L 276.42326 147.161453 
L 276.973159 148.428693 
L 276.148925 149.552844 
L 276.698822 150.820081 
L 275.874591 151.944232 
L 276.424487 153.211466 
L 275.60026 154.335616 
L 274.226137 154.192535 
L 273.401914 155.316688 
L 273.951813 156.583918 
L 273.127592 157.708071 
L 271.753474 157.564996 
L 270.929257 158.689151 
L 271.479159 159.956378 
L 270.654946 161.080533 
L 269.280831 160.937464 
L 268.456621 162.061622 
L 267.082505 161.918558 
L 266.532594 160.651333 
L 265.158473 160.508271 
L 264.608556 159.241045 
L 263.234428 159.097985 
L 262.410222 160.222153 
L 261.036094 160.079097 
L 260.211892 161.203268 
L 260.761818 162.470491 
L 259.937619 163.594661 
L 260.487543 164.861881 
L 259.663348 165.986051 
L 260.213271 167.253269 
L 261.587386 167.396318 
L 262.137303 168.663535 
L 261.313111 169.787701 
L 261.863027 171.054915 
L 263.23713 171.197964 
L 263.78704 172.465177 
L 265.161138 172.608229 
L 265.711042 173.87544 
L 267.085135 174.018494 
L 267.635033 175.285704 
L 266.810843 176.409859 
L 267.36074 177.677066 
L 266.536554 178.801221 
L 265.162471 178.658171 
L 264.338289 179.782329 
L 264.888188 181.049533 
L 264.064009 182.17369 
L 264.613908 183.440891 
L 265.987981 183.583936 
L 266.537874 184.851136 
L 265.713698 185.975289 
L 266.263589 187.242486 
L 265.439416 188.366639 
L 265.989306 189.633833 
L 267.363364 189.776877 
L 267.913248 191.04407 
L 267.089078 192.168219 
L 267.638961 193.43541 
L 266.814795 194.559558 
L 265.440746 194.416519 
L 264.616584 195.54067 
L 263.242534 195.397635 
L 262.692642 194.130447 
L 261.318587 193.987415 
L 260.494428 195.111572 
L 259.120372 194.968544 
L 258.296217 196.092705 
L 256.922159 195.949681 
L 256.098007 197.073844 
L 256.647913 198.341028 
L 255.823764 199.465192 
L 256.373668 200.732373 
L 255.549523 201.856536 
L 256.099426 203.123715 
L 255.275284 204.247877 
L 255.825185 205.515053 
L 255.001047 206.639215 
L 255.550947 207.906389 
L 256.92498 208.049402 
L 257.474874 209.316575 
L 256.650739 210.440732 
L 257.200632 211.707902 
L 258.574655 211.850916 
L 259.124541 213.118084 
L 258.300409 214.242238 
L 258.850295 215.509404 
L 260.224307 215.652418 
L 260.774187 216.919583 
L 259.950058 218.043733 
L 260.499936 219.310895 
L 261.873938 219.453908 
L 262.42381 220.721069 
L 261.599684 221.845215 
L 262.149555 223.112374 
L 263.523546 223.255387 
L 264.073411 224.522544 
L 265.447396 224.66556 
L 265.997255 225.932716 
L 265.173132 227.056854 
L 265.72299 228.324008 
L 267.096965 228.467023 
L 267.646816 229.734175 
L 266.822697 230.85831 
L 267.372547 232.125459 
L 266.548431 233.249594 
L 267.098279 234.51674 
L 268.472239 234.659754 
L 269.022082 235.926899 
L 270.396036 236.069915 
L 270.945873 237.337059 
L 270.12176 238.461186 
L 270.671595 239.728328 
L 269.847485 240.852454 
L 270.397319 242.119593 
L 269.573213 243.243719 
L 268.199273 243.10071 
L 267.37517 244.224839 
L 266.001229 244.081834 
L 265.17713 245.205966 
L 265.726972 246.473099 
L 264.902876 247.597231 
L 265.452716 248.864362 
L 264.628624 249.988493 
L 265.178463 251.255622 
L 266.552389 251.39862 
L 267.102222 252.665748 
L 266.278133 253.789875 
L 264.904211 253.646878 
L 264.080125 254.771008 
L 264.629961 256.038131 
L 263.805879 257.162261 
L 264.355714 258.429382 
L 263.531635 259.553511 
L 264.081468 260.820629 
L 263.257392 261.944758 
L 261.883484 261.801772 
L 261.059411 262.925903 
L 261.609248 264.193017 
L 260.785179 265.317149 
L 259.411274 265.174169 
L 258.587209 266.298303 
L 259.137049 267.565413 
L 258.312987 268.689547 
L 258.862825 269.956655 
L 258.038767 271.080788 
L 256.66487 270.937817 
L 255.840815 272.061953 
L 254.466917 271.918986 
L 253.642866 273.043125 
L 252.268967 272.900162 
L 251.444919 274.024304 
L 250.071019 273.881346 
L 249.246975 275.005491 
L 247.873074 274.862537 
L 247.049033 275.986685 
L 245.675131 275.843735 
L 245.125265 274.576635 
L 243.751358 274.433688 
L 242.92732 275.557842 
L 241.553412 275.414899 
L 240.729378 276.539056 
L 239.355468 276.396117 
L 238.531438 277.520277 
L 237.157527 277.377342 
L 236.333501 278.501506 
L 234.959589 278.358575 
L 234.135566 279.482741 
L 232.761653 279.339815 
L 231.937633 280.463984 
L 232.487527 281.731076 
L 231.66351 282.855245 
L 230.289601 282.712325 
L 229.465589 283.836497 
L 228.091678 283.693581 
L 227.267669 284.817756 
L 225.893758 284.674844 
L 225.069752 285.799022 
L 223.69584 285.656115 
L 222.871838 286.780295 
L 221.497925 286.637393 
L 220.673926 287.761576 
L 219.300012 287.618678 
L 218.476017 288.742864 
L 217.102101 288.59997 
L 216.27811 289.724159 
L 214.904193 289.58127 
L 214.080205 290.705462 
L 212.706288 290.562576 
L 212.156353 289.295496 
L 212.980341 288.171301 
L 212.430405 286.904218 
L 211.056477 286.761332 
L 210.506535 285.494248 
L 209.132601 285.351365 
L 208.582654 284.08428 
L 209.406644 282.960077 
L 208.856695 281.692989 
L 207.482751 281.550106 
L 206.65876 282.674312 
L 205.284815 282.531433 
L 204.734855 281.264345 
L 205.558846 280.140135 
L 205.008885 278.873045 
L 205.832878 277.748835 
L 205.282916 276.481742 
L 206.106913 275.357531 
L 205.556949 274.090435 
L 206.38095 272.966224 
L 205.830985 271.699126 
L 206.654988 270.574914 
L 206.105022 269.307813 
L 204.731047 269.164926 
L 204.181074 267.897824 
L 205.005082 266.773608 
L 204.455108 265.506503 
L 205.279118 264.382287 
L 204.729143 263.11518 
L 205.553157 261.990963 
L 205.00318 260.723853 
L 205.827197 259.599636 
L 205.277219 258.332523 
L 206.10124 257.208306 
L 205.55126 255.941191 
L 206.375284 254.816973 
L 205.825303 253.549855 
L 206.649331 252.425636 
L 206.099348 251.158516 
L 206.923379 250.034297 
L 206.373395 248.767174 
L 207.197429 247.642955 
L 208.571447 247.785861 
L 209.395485 246.661644 
L 208.845504 245.394518 
L 209.669545 244.270301 
L 211.043566 244.413213 
L 211.867611 243.288999 
L 211.317634 242.021869 
L 212.141681 240.897654 
L 213.515706 241.040573 
L 214.339758 239.916362 
L 213.789784 238.649227 
L 214.613838 237.525015 
L 214.063863 236.257878 
L 214.887921 235.133665 
L 216.261955 235.276593 
L 217.086016 234.152383 
L 216.536044 232.885242 
L 217.360109 231.761032 
L 216.810135 230.493888 
L 217.634204 229.369678 
L 217.084229 228.102532 
L 217.9083 226.978321 
L 217.358324 225.711172 
L 218.182399 224.58696 
L 217.632421 223.319809 
L 216.258364 223.17687 
L 215.708381 221.909718 
L 216.532459 220.785502 
L 215.982474 219.518347 
L 214.608406 219.375408 
L 214.058415 218.108252 
L 212.684342 217.965316 
L 212.134345 216.698158 
L 210.760265 216.555224 
L 210.210262 215.288065 
L 208.836177 215.145133 
L 208.286169 213.877973 
L 206.912078 213.735043 
L 206.362063 212.467881 
L 207.186144 211.343648 
L 206.636127 210.076484 
L 205.262026 209.933554 
L 204.712004 208.666389 
L 205.536088 207.542152 
L 204.986064 206.274983 
L 203.611952 206.132054 
L 203.061923 204.864884 
L 201.687805 204.721957 
L 201.13777 203.454786 
L 199.763646 203.311861 
L 198.939563 204.436108 
L 197.565438 204.293187 
L 197.015392 203.026017 
L 195.641262 202.883098 
L 195.09121 201.615926 
L 193.717074 201.473009 
L 192.892994 202.597267 
L 191.518857 202.454354 
L 190.968795 201.187182 
L 189.594652 201.044272 
L 189.044583 199.777099 
L 187.670435 199.634191 
L 186.846359 200.758458 
L 185.472209 200.615554 
L 184.92213 199.348381 
L 183.547975 199.20548 
L 182.99789 197.938305 
L 181.623729 197.795406 
L 181.073638 196.52823 
L 179.699471 196.385333 
L 179.149374 195.118156 
L 179.973449 193.993875 
L 179.423351 192.726696 
L 178.049173 192.583799 
L 177.499069 191.316618 
L 178.323147 190.192333 
L 177.773042 188.92515 
L 178.597123 187.800865 
L 178.597123 187.800865 
" clip-path="url(#p17417f3ea5)" style="fill: none; stroke: #ff0000; stroke-width: 0.7"/>
   </g>
   <g id="matplotlib.axis_1">
    <g id="xtick_1">
     <g id="line2d_1">
      <defs>
       <path id="m9fc217dd01" d="M 0 0 
L 0 3.5 
" style="stroke: #000000; stroke-width: 0.8"/>
      </defs>
      <g>
       <use xlink:href="#m9fc217dd01" x="173.400898" y="307.584" style="stroke: #000000; stroke-width: 0.8"/>
      </g>
     </g>
     <g id="text_1">
      <!-- −100.42 -->
      <g transform="translate(151.715742 322.182437) scale(0.1 -0.1)">
       <defs>
        <path id="DejaVuSans-2212" d="M 678 2272 
L 4684 2272 
L 4684 1741 
L 678 1741 
L 678 2272 
z
" transform="scale(0.015625)"/>
        <path id="DejaVuSans-31" d="M 794 531 
L 1825 531 
L 1825 4091 
L 703 3866 
L 703 4441 
L 1819 4666 
L 2450 4666 
L 2450 531 
L 3481 531 
L 3481 0 
L 794 0 
L 794 531 
z
" transform="scale(0.015625)"/>
        <path id="DejaVuSans-30" d="M 2034 4250 
Q 1547 4250 1301 3770 
Q 1056 3291 1056 2328 
Q 1056 1369 1301 889 
Q 1547 409 2034 409 
Q 2525 409 2770 889 
Q 3016 1369 3016 2328 
Q 3016 3291 2770 3770 
Q 2525 4250 2034 4250 
z
M 2034 4750 
Q 2819 4750 3233 4129 
Q 3647 3509 3647 2328 
Q 3647 1150 3233 529 
Q 2819 -91 2034 -91 
Q 1250 -91 836 529 
Q 422 1150 422 2328 
Q 422 3509 836 4129 
Q 1250 4750 2034 4750 
z
" transform="scale(0.015625)"/>
        <path id="DejaVuSans-2e" d="M 684 794 
L 1344 794 
L 1344 0 
L 684 0 
L 684 794 
z
" transform="scale(0.015625)"/>
        <path id="DejaVuSans-34" d="M 2419 4116 
L 825 1625 
L 2419 1625 
L 2419 4116 
z
M 2253 4666 
L 3047 4666 
L 3047 1625 
L 3713 1625 
L 3713 1100 
L 3047 1100 
L 3047 0 
L 2419 0 
L 2419 1100 
L 313 1100 
L 313 1709 
L 2253 4666 
z
" transform="scale(0.015625)"/>
        <path id="DejaVuSans-32" d="M 1228 531 
L 3431 531 
L 3431 0 
L 469 0 
L 469 531 
Q 828 903 1448 1529 
Q 2069 2156 2228 2338 
Q 2531 2678 2651 2914 
Q 2772 3150 2772 3378 
Q 2772 3750 2511 3984 
Q 2250 4219 1831 4219 
Q 1534 4219 1204 4116 
Q 875 4013 500 3803 
L 500 4441 
Q 881 4594 1212 4672 
Q 1544 4750 1819 4750 
Q 2544 4750 2975 4387 
Q 3406 4025 3406 3419 
Q 3406 3131 3298 2873 
Q 3191 2616 2906 2266 
Q 2828 2175 2409 1742 
Q 1991 1309 1228 531 
z
" transform="scale(0.015625)"/>
       </defs>
       <use xlink:href="#DejaVuSans-2212"/>
       <use xlink:href="#DejaVuSans-31" x="83.789062"/>
       <use xlink:href="#DejaVuSans-30" x="147.412109"/>
       <use xlink:href="#DejaVuSans-30" x="211.035156"/>
       <use xlink:href="#DejaVuSans-2e" x="274.658203"/>
       <use xlink:href="#DejaVuSans-34" x="306.445312"/>
       <use xlink:href="#DejaVuSans-32" x="370.068359"/>
      </g>
     </g>
    </g>
    <g id="xtick_2">
     <g id="line2d_2">
      <g>
       <use xlink:href="#m9fc217dd01" x="220.234985" y="307.584" style="stroke: #000000; stroke-width: 0.8"/>
      </g>
     </g>
     <g id="text_2">
      <!-- −100.41 -->
      <g transform="translate(198.549829 322.182437) scale(0.1 -0.1)">
       <use xlink:href="#DejaVuSans-2212"/>
       <use xlink:href="#DejaVuSans-31" x="83.789062"/>
       <use xlink:href="#DejaVuSans-30" x="147.412109"/>
       <use xlink:href="#DejaVuSans-30" x="211.035156"/>
       <use xlink:href="#DejaVuSans-2e" x="274.658203"/>
       <use xlink:href="#DejaVuSans-34" x="306.445312"/>
       <use xlink:href="#DejaVuSans-31" x="370.068359"/>
      </g>
     </g>
    </g>
    <g id="xtick_3">
     <g id="line2d_3">
      <g>
       <use xlink:href="#m9fc217dd01" x="267.069073" y="307.584" style="stroke: #000000; stroke-width: 0.8"/>
      </g>
     </g>
     <g id="text_3">
      <!-- −100.40 -->
      <g transform="translate(245.383916 322.182437) scale(0.1 -0.1)">
       <use xlink:href="#DejaVuSans-2212"/>
       <use xlink:href="#DejaVuSans-31" x="83.789062"/>
       <use xlink:href="#DejaVuSans-30" x="147.412109"/>
       <use xlink:href="#DejaVuSans-30" x="211.035156"/>
       <use xlink:href="#DejaVuSans-2e" x="274.658203"/>
       <use xlink:href="#DejaVuSans-34" x="306.445312"/>
       <use xlink:href="#DejaVuSans-30" x="370.068359"/>
      </g>
     </g>
    </g>
    <g id="xtick_4">
     <g id="line2d_4">
      <g>
       <use xlink:href="#m9fc217dd01" x="313.90316" y="307.584" style="stroke: #000000; stroke-width: 0.8"/>
      </g>
     </g>
     <g id="text_4">
      <!-- −100.39 -->
      <g transform="translate(292.218004 322.182437) scale(0.1 -0.1)">
       <defs>
        <path id="DejaVuSans-33" d="M 2597 2516 
Q 3050 2419 3304 2112 
Q 3559 1806 3559 1356 
Q 3559 666 3084 287 
Q 2609 -91 1734 -91 
Q 1441 -91 1130 -33 
Q 819 25 488 141 
L 488 750 
Q 750 597 1062 519 
Q 1375 441 1716 441 
Q 2309 441 2620 675 
Q 2931 909 2931 1356 
Q 2931 1769 2642 2001 
Q 2353 2234 1838 2234 
L 1294 2234 
L 1294 2753 
L 1863 2753 
Q 2328 2753 2575 2939 
Q 2822 3125 2822 3475 
Q 2822 3834 2567 4026 
Q 2313 4219 1838 4219 
Q 1578 4219 1281 4162 
Q 984 4106 628 3988 
L 628 4550 
Q 988 4650 1302 4700 
Q 1616 4750 1894 4750 
Q 2613 4750 3031 4423 
Q 3450 4097 3450 3541 
Q 3450 3153 3228 2886 
Q 3006 2619 2597 2516 
z
" transform="scale(0.015625)"/>
        <path id="DejaVuSans-39" d="M 703 97 
L 703 672 
Q 941 559 1184 500 
Q 1428 441 1663 441 
Q 2288 441 2617 861 
Q 2947 1281 2994 2138 
Q 2813 1869 2534 1725 
Q 2256 1581 1919 1581 
Q 1219 1581 811 2004 
Q 403 2428 403 3163 
Q 403 3881 828 4315 
Q 1253 4750 1959 4750 
Q 2769 4750 3195 4129 
Q 3622 3509 3622 2328 
Q 3622 1225 3098 567 
Q 2575 -91 1691 -91 
Q 1453 -91 1209 -44 
Q 966 3 703 97 
z
M 1959 2075 
Q 2384 2075 2632 2365 
Q 2881 2656 2881 3163 
Q 2881 3666 2632 3958 
Q 2384 4250 1959 4250 
Q 1534 4250 1286 3958 
Q 1038 3666 1038 3163 
Q 1038 2656 1286 2365 
Q 1534 2075 1959 2075 
z
" transform="scale(0.015625)"/>
       </defs>
       <use xlink:href="#DejaVuSans-2212"/>
       <use xlink:href="#DejaVuSans-31" x="83.789062"/>
       <use xlink:href="#DejaVuSans-30" x="147.412109"/>
       <use xlink:href="#DejaVuSans-30" x="211.035156"/>
       <use xlink:href="#DejaVuSans-2e" x="274.658203"/>
       <use xlink:href="#DejaVuSans-33" x="306.445312"/>
       <use xlink:href="#DejaVuSans-39" x="370.068359"/>
      </g>
     </g>
    </g>
   </g>
   <g id="matplotlib.axis_2">
    <g id="ytick_1">
     <g id="line2d_5">
      <defs>
       <path id="mfa4f6110bc" d="M 0 0 
L -3.5 0 
" style="stroke: #000000; stroke-width: 0.8"/>
      </defs>
      <g>
       <use xlink:href="#mfa4f6110bc" x="158.32228" y="259.531097" style="stroke: #000000; stroke-width: 0.8"/>
      </g>
     </g>
     <g id="text_5">
      <!-- 19.37 -->
      <g transform="translate(122.694155 263.330316) scale(0.1 -0.1)">
       <defs>
        <path id="DejaVuSans-37" d="M 525 4666 
L 3525 4666 
L 3525 4397 
L 1831 0 
L 1172 0 
L 2766 4134 
L 525 4134 
L 525 4666 
z
" transform="scale(0.015625)"/>
       </defs>
       <use xlink:href="#DejaVuSans-31"/>
       <use xlink:href="#DejaVuSans-39" x="63.623047"/>
       <use xlink:href="#DejaVuSans-2e" x="127.246094"/>
       <use xlink:href="#DejaVuSans-33" x="159.033203"/>
       <use xlink:href="#DejaVuSans-37" x="222.65625"/>
      </g>
     </g>
    </g>
    <g id="ytick_2">
     <g id="line2d_6">
      <g>
       <use xlink:href="#mfa4f6110bc" x="158.32228" y="209.881962" style="stroke: #000000; stroke-width: 0.8"/>
      </g>
     </g>
     <g id="text_6">
      <!-- 19.38 -->
      <g transform="translate(122.694155 213.681181) scale(0.1 -0.1)">
       <defs>
        <path id="DejaVuSans-38" d="M 2034 2216 
Q 1584 2216 1326 1975 
Q 1069 1734 1069 1313 
Q 1069 891 1326 650 
Q 1584 409 2034 409 
Q 2484 409 2743 651 
Q 3003 894 3003 1313 
Q 3003 1734 2745 1975 
Q 2488 2216 2034 2216 
z
M 1403 2484 
Q 997 2584 770 2862 
Q 544 3141 544 3541 
Q 544 4100 942 4425 
Q 1341 4750 2034 4750 
Q 2731 4750 3128 4425 
Q 3525 4100 3525 3541 
Q 3525 3141 3298 2862 
Q 3072 2584 2669 2484 
Q 3125 2378 3379 2068 
Q 3634 1759 3634 1313 
Q 3634 634 3220 271 
Q 2806 -91 2034 -91 
Q 1263 -91 848 271 
Q 434 634 434 1313 
Q 434 1759 690 2068 
Q 947 2378 1403 2484 
z
M 1172 3481 
Q 1172 3119 1398 2916 
Q 1625 2713 2034 2713 
Q 2441 2713 2670 2916 
Q 2900 3119 2900 3481 
Q 2900 3844 2670 4047 
Q 2441 4250 2034 4250 
Q 1625 4250 1398 4047 
Q 1172 3844 1172 3481 
z
" transform="scale(0.015625)"/>
       </defs>
       <use xlink:href="#DejaVuSans-31"/>
       <use xlink:href="#DejaVuSans-39" x="63.623047"/>
       <use xlink:href="#DejaVuSans-2e" x="127.246094"/>
       <use xlink:href="#DejaVuSans-33" x="159.033203"/>
       <use xlink:href="#DejaVuSans-38" x="222.65625"/>
      </g>
     </g>
    </g>
    <g id="ytick_3">
     <g id="line2d_7">
      <g>
       <use xlink:href="#mfa4f6110bc" x="158.32228" y="160.232826" style="stroke: #000000; stroke-width: 0.8"/>
      </g>
     </g>
     <g id="text_7">
      <!-- 19.39 -->
      <g transform="translate(122.694155 164.032045) scale(0.1 -0.1)">
       <use xlink:href="#DejaVuSans-31"/>
       <use xlink:href="#DejaVuSans-39" x="63.623047"/>
       <use xlink:href="#DejaVuSans-2e" x="127.246094"/>
       <use xlink:href="#DejaVuSans-33" x="159.033203"/>
       <use xlink:href="#DejaVuSans-39" x="222.65625"/>
      </g>
     </g>
    </g>
    <g id="ytick_4">
     <g id="line2d_8">
      <g>
       <use xlink:href="#mfa4f6110bc" x="158.32228" y="110.583691" style="stroke: #000000; stroke-width: 0.8"/>
      </g>
     </g>
     <g id="text_8">
      <!-- 19.40 -->
      <g transform="translate(122.694155 114.38291) scale(0.1 -0.1)">
       <use xlink:href="#DejaVuSans-31"/>
       <use xlink:href="#DejaVuSans-39" x="63.623047"/>
       <use xlink:href="#DejaVuSans-2e" x="127.246094"/>
       <use xlink:href="#DejaVuSans-34" x="159.033203"/>
       <use xlink:href="#DejaVuSans-30" x="222.65625"/>
      </g>
     </g>
    </g>
    <g id="ytick_5">
     <g id="line2d_9">
      <g>
       <use xlink:href="#mfa4f6110bc" x="158.32228" y="60.934555" style="stroke: #000000; stroke-width: 0.8"/>
      </g>
     </g>
     <g id="text_9">
      <!-- 19.41 -->
      <g transform="translate(122.694155 64.733774) scale(0.1 -0.1)">
       <use xlink:href="#DejaVuSans-31"/>
       <use xlink:href="#DejaVuSans-39" x="63.623047"/>
       <use xlink:href="#DejaVuSans-2e" x="127.246094"/>
       <use xlink:href="#DejaVuSans-34" x="159.033203"/>
       <use xlink:href="#DejaVuSans-31" x="222.65625"/>
      </g>
     </g>
    </g>
   </g>
   <g id="patch_3">
    <path d="M 158.32228 307.584 
L 158.32228 41.472 
" style="fill: none; stroke: #000000; stroke-width: 0.8; stroke-linejoin: miter; stroke-linecap: square"/>
   </g>
   <g id="patch_4">
    <path d="M 313.99772 307.584 
L 313.99772 41.472 
" style="fill: none; stroke: #000000; stroke-width: 0.8; stroke-linejoin: miter; stroke-linecap: square"/>
   </g>
   <g id="patch_5">
    <path d="M 158.32228 307.584 
L 313.99772 307.584 
" style="fill: none; stroke: #000000; stroke-width: 0.8; stroke-linejoin: miter; stroke-linecap: square"/>
   </g>
   <g id="patch_6">
    <path d="M 158.32228 41.472 
L 313.99772 41.472 
" style="fill: none; stroke: #000000; stroke-width: 0.8; stroke-linejoin: miter; stroke-linecap: square"/>
   </g>
  </g>
 </g>
 <defs>
  <clipPath id="p17417f3ea5">
   <rect x="158.32228" y="41.472" width="155.67544" height="266.112"/>
  </clipPath>
 </defs>
</svg>
