<?xml version="1.0" encoding="utf-8" standalone="no"?>
<!DOCTYPE svg PUBLIC "-//W3C//DTD SVG 1.1//EN"
  "http://www.w3.org/Graphics/SVG/1.1/DTD/svg11.dtd">
<svg xmlns:xlink="http://www.w3.org/1999/xlink" width="460.8pt" height="345.6pt" viewBox="0 0 460.8 345.6" xmlns="http://www.w3.org/2000/svg" version="1.1">
 <metadata>
  <rdf:RDF xmlns:dc="http://purl.org/dc/elements/1.1/" xmlns:cc="http://creativecommons.org/ns#" xmlns:rdf="http://www.w3.org/1999/02/22-rdf-syntax-ns#">
   <cc:Work>
    <dc:type rdf:resource="http://purl.org/dc/dcmitype/StillImage"/>
    <dc:date>2024-03-22T17:57:32.545070</dc:date>
    <dc:format>image/svg+xml</dc:format>
    <dc:creator>
     <cc:Agent>
      <dc:title>Matplotlib v3.8.0, https://matplotlib.org/</dc:title>
     </cc:Agent>
    </dc:creator>
   </cc:Work>
  </rdf:RDF>
 </metadata>
 <defs>
  <style type="text/css">*{stroke-linejoin: round; stroke-linecap: butt}</style>
 </defs>
 <g id="figure_1">
  <g id="patch_1">
   <path d="M 0 345.6 
L 460.8 345.6 
L 460.8 0 
L 0 0 
z
" style="fill: #ffffff"/>
  </g>
  <g id="axes_1">
   <g id="patch_2">
    <path d="M 158.322599 307.584 
L 313.997401 307.584 
L 313.997401 41.472 
L 158.322599 41.472 
z
" style="fill: #ffffff"/>
   </g>
   <g id="PatchCollection_1">
    <path d="M 176.670897 180.340632 
L 177.494985 179.216342 
L 176.94487 177.949147 
L 175.570663 177.806243 
L 175.020542 176.539047 
L 173.646329 176.396146 
L 173.096203 175.128948 
L 171.721984 174.986049 
L 170.897896 176.110349 
L 169.523676 175.967454 
L 168.973539 174.700257 
L 167.599313 174.557364 
L 167.04917 173.290166 
L 167.873258 172.165858 
L 167.323113 170.898657 
L 165.948877 170.755764 
L 165.398726 169.488562 
L 166.222817 168.364251 
L 165.672665 167.097046 
L 166.496759 165.972734 
L 165.946605 164.705526 
L 166.770703 163.581214 
L 168.144953 163.724113 
L 168.969054 162.599804 
L 168.418904 161.332592 
L 169.243008 160.208283 
L 168.692856 158.941069 
L 169.516964 157.816759 
L 168.966811 156.549542 
L 169.790922 155.425231 
L 169.240768 154.158012 
L 170.064882 153.033701 
L 169.514726 151.766479 
L 168.140452 151.623569 
L 167.59029 150.356346 
L 168.414408 149.232031 
L 167.864245 147.964805 
L 168.688366 146.84049 
L 168.138201 145.573261 
L 168.962325 144.448946 
L 168.41216 143.181715 
L 169.236287 142.057398 
L 168.68612 140.790165 
L 169.510251 139.665848 
L 168.960082 138.398612 
L 169.784217 137.274294 
L 169.234047 136.007056 
L 170.058184 134.882738 
L 169.508013 133.615497 
L 170.332154 132.491178 
L 169.781981 131.223934 
L 170.606126 130.099616 
L 170.055952 128.832369 
L 170.880099 127.70805 
L 170.329924 126.440801 
L 171.154075 125.316481 
L 170.603898 124.04923 
L 171.428053 122.924909 
L 170.877874 121.657655 
L 171.702032 120.533335 
L 171.151853 119.266078 
L 169.777511 119.123143 
L 169.227326 117.855885 
L 170.051486 116.73156 
L 169.5013 115.464299 
L 170.325464 114.339975 
L 169.775276 113.072711 
L 170.599443 111.948386 
L 170.049254 110.68112 
L 170.873425 109.556794 
L 170.323234 108.289526 
L 168.948867 108.146584 
L 168.39867 106.879315 
L 169.222845 105.754985 
L 168.672646 104.487713 
L 169.496824 103.363382 
L 168.946624 102.096107 
L 169.770805 100.971777 
L 169.220604 99.704499 
L 170.044788 98.580168 
L 169.494586 97.312888 
L 170.318773 96.188556 
L 169.76857 94.921274 
L 170.592761 93.796941 
L 171.967156 93.939895 
L 172.79135 92.815566 
L 172.24115 91.54828 
L 173.065347 90.42395 
L 172.515145 89.156661 
L 171.140741 89.013703 
L 170.590533 87.746412 
L 171.414734 86.622079 
L 170.864525 85.354786 
L 171.688729 84.230452 
L 171.138518 82.963156 
L 171.962726 81.838822 
L 171.412514 80.571524 
L 170.03809 80.428561 
L 169.487872 79.161262 
L 170.312083 78.036924 
L 169.761863 76.769622 
L 170.586078 75.645283 
L 170.035857 74.377978 
L 170.860074 73.253639 
L 170.309852 71.986332 
L 171.134073 70.861992 
L 170.58385 69.594682 
L 171.408074 68.470342 
L 172.782522 68.613315 
L 173.60675 67.488978 
L 173.05653 66.221664 
L 173.880761 65.097326 
L 173.33054 63.83001 
L 174.154774 62.705672 
L 175.529231 62.848653 
L 176.353469 61.724318 
L 175.803251 60.456998 
L 176.627492 59.332662 
L 178.001953 59.47565 
L 178.826198 58.351317 
L 178.275983 57.083993 
L 179.100231 55.95966 
L 178.550014 54.692334 
L 179.374266 53.568 
L 180.748735 53.710996 
L 181.298947 54.978324 
L 182.67341 55.121323 
L 183.223616 56.38865 
L 182.399364 57.512976 
L 182.949569 58.7803 
L 184.324022 58.923299 
L 184.87422 60.190622 
L 186.248667 60.333623 
L 186.79886 61.600944 
L 188.173301 61.743947 
L 188.723488 63.011267 
L 190.097923 63.154272 
L 190.648104 64.421591 
L 192.022534 64.564599 
L 192.572709 65.831917 
L 193.947132 65.974926 
L 194.497301 67.242242 
L 193.673051 68.366548 
L 194.223219 69.633862 
L 195.597632 69.776872 
L 196.147794 71.044184 
L 197.522201 71.187196 
L 198.072357 72.454507 
L 199.446758 72.597521 
L 199.996908 73.864831 
L 201.371304 74.007847 
L 201.921448 75.275156 
L 203.295838 75.418174 
L 203.845976 76.685482 
L 205.22036 76.828502 
L 205.770492 78.095809 
L 204.946244 79.220093 
L 205.496375 80.487397 
L 206.870748 80.630417 
L 207.420873 81.89772 
L 208.795241 82.040742 
L 209.345359 83.308044 
L 210.719721 83.451068 
L 211.269834 84.718368 
L 212.64419 84.861395 
L 213.194297 86.128694 
L 214.568647 86.271723 
L 215.118748 87.53902 
L 216.493093 87.682052 
L 217.317341 86.557788 
L 216.767245 85.290489 
L 217.591497 84.166225 
L 218.965845 84.309262 
L 219.790101 83.185001 
L 219.240008 81.917698 
L 220.064267 80.793436 
L 221.438619 80.93648 
L 222.262881 79.812221 
L 221.712791 78.544915 
L 222.537057 77.420655 
L 221.986966 76.153346 
L 222.811235 75.029086 
L 224.185595 75.172139 
L 224.735682 76.439449 
L 226.110037 76.582504 
L 226.660117 77.849813 
L 228.034466 77.99287 
L 228.584541 79.260178 
L 227.760271 80.384428 
L 228.310345 81.651733 
L 229.684683 81.79479 
L 230.23475 83.062094 
L 231.609083 83.205153 
L 232.159144 84.472456 
L 231.334878 85.596698 
L 231.884938 86.863998 
L 233.25926 87.007058 
L 234.083527 85.882819 
L 233.533471 84.615517 
L 234.357741 83.491278 
L 235.732067 83.634343 
L 236.556341 82.510107 
L 236.006288 81.242802 
L 236.830565 80.118565 
L 238.204895 80.261637 
L 239.029175 79.137403 
L 240.403504 79.280479 
L 241.227788 78.156248 
L 242.602115 78.299329 
L 243.426403 77.175101 
L 242.876363 75.907789 
L 243.700654 74.783561 
L 245.074985 74.926648 
L 245.899279 73.802422 
L 247.273609 73.945514 
L 248.097907 72.821291 
L 249.472236 72.964387 
L 250.296538 71.840167 
L 251.670866 71.983267 
L 252.495171 70.859051 
L 253.869498 71.002155 
L 254.693806 69.877941 
L 254.143788 68.61062 
L 254.9681 67.486406 
L 254.41808 66.219083 
L 255.242395 65.094868 
L 254.692374 63.827542 
L 255.516693 62.703327 
L 254.96667 61.435998 
L 255.790992 60.311783 
L 255.240968 59.044452 
L 256.065294 57.920236 
L 257.439643 58.063355 
L 257.989663 59.330687 
L 259.364007 59.473809 
L 260.188336 58.349599 
L 261.562678 58.492725 
L 262.112687 59.760058 
L 263.487024 59.903185 
L 264.311357 58.778982 
L 265.685693 58.922114 
L 266.510029 57.797914 
L 267.884364 57.94105 
L 268.434358 59.208385 
L 269.808687 59.351523 
L 270.358674 60.618856 
L 271.732998 60.761996 
L 272.282979 62.029328 
L 271.458643 63.153518 
L 272.008623 64.420847 
L 273.382936 64.563987 
L 273.93291 65.831315 
L 275.307217 65.974458 
L 275.857185 67.241785 
L 277.231487 67.38493 
L 277.781449 68.652255 
L 276.957115 69.776434 
L 277.507076 71.043756 
L 278.881367 71.186901 
L 279.431322 72.454223 
L 278.606991 73.578398 
L 279.156945 74.845717 
L 280.531225 74.988862 
L 281.081173 76.256179 
L 282.455447 76.399326 
L 283.005389 77.666643 
L 284.379657 77.809792 
L 284.929593 79.077107 
L 286.303856 79.220259 
L 286.853786 80.487572 
L 288.228043 80.630726 
L 288.777967 81.898038 
L 290.152218 82.041194 
L 290.702136 83.308506 
L 292.076381 83.451664 
L 292.626293 84.718974 
L 294.000533 84.862134 
L 294.550439 86.129442 
L 295.924673 86.272605 
L 296.474573 87.539912 
L 297.848801 87.683077 
L 298.398695 88.950383 
L 299.772917 89.09355 
L 300.322805 90.360854 
L 301.697022 90.504023 
L 302.246904 91.771327 
L 301.422574 92.89546 
L 301.972455 94.162761 
L 303.346661 94.30593 
L 303.896536 95.57323 
L 303.07221 96.697359 
L 303.622083 97.964656 
L 302.797761 99.088785 
L 303.347633 100.35608 
L 304.721823 100.499247 
L 305.27169 101.76654 
L 304.44737 102.890665 
L 304.997235 104.157956 
L 306.371415 104.301123 
L 306.921274 105.568412 
L 306.096957 106.692533 
L 306.646815 107.95982 
L 305.822502 109.083941 
L 306.372358 110.351225 
L 305.548048 111.475345 
L 306.097903 112.742627 
L 305.273597 113.866747 
L 305.82345 115.134026 
L 304.999147 116.258145 
L 303.624991 116.114989 
L 302.800691 117.239111 
L 303.350548 118.506386 
L 302.526252 119.630508 
L 303.076107 120.897781 
L 302.251814 122.021902 
L 300.877666 121.878754 
L 300.053377 123.002879 
L 300.603236 124.270147 
L 299.77895 125.394271 
L 298.404806 125.25113 
L 297.580523 126.375257 
L 296.206378 126.23212 
L 295.382099 127.35625 
L 294.007953 127.213117 
L 293.183678 128.33725 
L 291.809531 128.194121 
L 290.985259 129.318257 
L 291.535134 130.585518 
L 290.710866 131.709653 
L 289.336723 131.566531 
L 288.512458 132.690669 
L 289.062336 133.957926 
L 288.238075 135.082064 
L 288.787952 136.349318 
L 287.963694 137.473456 
L 288.51357 138.740708 
L 287.689315 139.864844 
L 288.239189 141.132094 
L 287.414938 142.25623 
L 286.040812 142.113121 
L 285.216565 143.23726 
L 285.766442 144.504505 
L 284.942198 145.628644 
L 285.492074 146.895887 
L 284.667833 148.020025 
L 283.293716 147.876925 
L 282.469478 149.001066 
L 283.019357 150.268305 
L 282.195123 151.392446 
L 280.82101 151.249351 
L 279.996779 152.373495 
L 280.546662 153.64073 
L 279.722434 154.764874 
L 280.272316 156.032106 
L 279.448092 157.156249 
L 278.073987 157.013163 
L 277.249766 158.137309 
L 277.799651 159.404537 
L 276.975434 160.528683 
L 275.601332 160.385603 
L 274.777119 161.509752 
L 275.327006 162.776976 
L 274.502796 163.901124 
L 275.052682 165.168346 
L 274.228476 166.292494 
L 272.854383 166.149423 
L 272.030179 167.273573 
L 272.580069 168.540791 
L 271.755869 169.664941 
L 272.305757 170.932157 
L 271.48156 172.056306 
L 270.107476 171.913244 
L 269.283283 173.037396 
L 269.833174 174.304608 
L 271.207254 174.447668 
L 271.757139 175.714878 
L 270.93295 176.839027 
L 271.482833 178.106234 
L 270.658647 179.230383 
L 271.20853 180.497588 
L 270.384347 181.621735 
L 270.934228 182.888938 
L 270.110048 184.013085 
L 270.659928 185.280285 
L 269.835751 186.404432 
L 270.38563 187.671629 
L 271.75968 187.814681 
L 272.309553 189.081877 
L 271.485379 190.206019 
L 272.035251 191.473213 
L 271.211081 192.597355 
L 271.76095 193.864546 
L 270.936784 194.988688 
L 271.486652 196.255876 
L 270.662489 197.380017 
L 271.212356 198.647203 
L 270.388196 199.771344 
L 269.01417 199.628303 
L 268.190014 200.752447 
L 268.739884 202.019628 
L 267.915731 203.143772 
L 268.4656 204.410951 
L 267.64145 205.535094 
L 268.191318 206.80227 
L 267.367172 207.926413 
L 267.917038 209.193587 
L 269.291045 209.336619 
L 269.840905 210.603792 
L 269.016762 211.727931 
L 269.566621 212.995101 
L 270.940618 213.138133 
L 271.490471 214.405302 
L 270.666331 215.529437 
L 271.216183 216.796603 
L 272.590169 216.939636 
L 273.140014 218.206801 
L 272.315878 219.330932 
L 272.865722 220.598094 
L 274.239698 220.741127 
L 274.789536 222.008288 
L 273.965403 223.132415 
L 274.515239 224.399573 
L 273.691109 225.523699 
L 274.240945 226.790855 
L 275.614905 226.933886 
L 276.164735 228.201041 
L 275.340608 229.325163 
L 275.890436 230.592315 
L 277.264386 230.735346 
L 277.814208 232.002497 
L 276.990085 233.126615 
L 277.539905 234.393763 
L 276.715785 235.517881 
L 277.265604 236.785027 
L 276.441487 237.909144 
L 276.991305 239.176287 
L 276.167192 240.300404 
L 276.717008 241.567545 
L 275.892898 242.691661 
L 276.442713 243.958799 
L 275.618607 245.082915 
L 276.16842 246.35005 
L 277.542336 246.493071 
L 278.092144 247.760204 
L 277.268041 248.884317 
L 275.894129 248.741299 
L 275.070029 249.865414 
L 275.61984 251.132544 
L 274.795744 252.256659 
L 275.345553 253.523786 
L 274.52146 254.6479 
L 275.071268 255.915025 
L 274.247178 257.039139 
L 274.796985 258.306261 
L 273.972899 259.430374 
L 274.522704 260.697494 
L 273.698621 261.821607 
L 272.324732 261.678603 
L 271.500653 262.802719 
L 272.050462 264.069835 
L 271.226385 265.19395 
L 269.8525 265.050953 
L 269.028428 266.175072 
L 269.578239 267.442183 
L 268.75417 268.566301 
L 267.380289 268.423311 
L 266.556223 269.547432 
L 267.106038 270.814539 
L 266.281976 271.93866 
L 266.831789 273.205765 
L 266.00773 274.329885 
L 264.633858 274.186903 
L 263.809802 275.311026 
L 262.435928 275.168048 
L 261.611876 276.292174 
L 260.238001 276.1492 
L 259.413953 277.273329 
L 258.040077 277.13036 
L 257.490245 275.86326 
L 256.116363 275.720293 
L 255.292318 276.844428 
L 253.918436 276.701466 
L 253.094395 277.825604 
L 251.720511 277.682645 
L 250.896473 278.806787 
L 249.522588 278.663832 
L 248.972737 277.396735 
L 247.598846 277.253783 
L 246.774812 278.377931 
L 245.40092 278.234983 
L 244.57689 279.359133 
L 243.202997 279.21619 
L 242.37897 280.340344 
L 241.005077 280.197404 
L 240.181053 281.321561 
L 238.807158 281.178626 
L 237.983138 282.302785 
L 236.609243 282.159855 
L 235.785226 283.284017 
L 234.411329 283.141091 
L 233.587316 284.265256 
L 232.213419 284.122334 
L 231.389409 285.246502 
L 230.01551 285.103584 
L 229.191504 286.227756 
L 227.817604 286.084842 
L 226.993602 287.209016 
L 227.5435 288.4761 
L 226.719501 289.600274 
L 225.345604 289.457367 
L 224.521609 290.581544 
L 223.147712 290.438641 
L 222.32372 291.56282 
L 220.949821 291.419922 
L 220.125833 292.544104 
L 218.751934 292.40121 
L 217.927949 293.525396 
L 216.554048 293.382506 
L 215.730067 294.506694 
L 214.356166 294.363809 
L 213.532188 295.488 
L 212.158285 295.345119 
L 211.608356 294.078044 
L 210.234448 293.935165 
L 209.684512 292.668089 
L 210.50849 291.54389 
L 209.958553 290.276812 
L 208.584634 290.133932 
L 208.034692 288.866852 
L 206.660767 288.723976 
L 206.110818 287.456894 
L 204.736888 287.314019 
L 204.186933 286.046937 
L 202.812997 285.904064 
L 202.263037 284.63698 
L 203.087017 283.512768 
L 202.537055 282.245682 
L 203.361038 281.121469 
L 202.811075 279.85438 
L 203.635062 278.730166 
L 203.085097 277.463075 
L 201.711141 277.320198 
L 201.16117 276.053105 
L 201.98516 274.928887 
L 201.435188 273.661792 
L 202.259182 272.537574 
L 201.709208 271.270476 
L 202.533205 270.146258 
L 201.98323 268.879157 
L 202.80723 267.754938 
L 202.257254 266.487835 
L 200.883273 266.344952 
L 200.333291 265.077847 
L 201.157294 263.953625 
L 200.607311 262.686517 
L 201.431318 261.562294 
L 200.881333 260.295185 
L 201.705343 259.170961 
L 201.155356 257.903849 
L 201.97937 256.779624 
L 201.429382 255.51251 
L 202.253399 254.388285 
L 201.70341 253.121167 
L 202.52743 251.996942 
L 201.97744 250.729822 
L 202.801463 249.605597 
L 204.175477 249.748495 
L 204.999504 248.624272 
L 204.449517 247.357148 
L 205.273548 246.232925 
L 204.723559 244.965798 
L 205.547593 243.841575 
L 206.921615 243.984481 
L 207.745653 242.860261 
L 207.195667 241.59313 
L 208.019708 240.468909 
L 209.393734 240.611822 
L 210.217778 239.487604 
L 209.667796 238.220469 
L 210.491844 237.096251 
L 211.865874 237.23917 
L 212.689925 236.114954 
L 212.139946 234.847816 
L 212.964 233.7236 
L 212.41402 232.456459 
L 213.238078 231.332242 
L 214.612116 231.47517 
L 215.436177 230.350956 
L 214.8862 229.083812 
L 213.512157 228.940882 
L 212.962174 227.673735 
L 213.786238 226.549518 
L 213.236254 225.282369 
L 214.060322 224.158151 
L 213.510336 222.891 
L 214.334407 221.766781 
L 213.78442 220.499627 
L 212.410357 220.356693 
L 211.860363 219.089538 
L 210.486294 218.946606 
L 209.936295 217.67945 
L 208.56222 217.53652 
L 208.012215 216.269362 
L 206.638135 216.126435 
L 206.088123 214.859276 
L 204.714037 214.71635 
L 204.16402 213.44919 
L 204.988094 212.324954 
L 204.438075 211.057791 
L 203.063979 210.914865 
L 202.513954 209.647701 
L 203.338031 208.523461 
L 202.788005 207.256294 
L 201.413898 207.113369 
L 200.589821 208.237612 
L 199.215713 208.094691 
L 198.665676 206.827525 
L 197.291562 206.684606 
L 196.74152 205.417438 
L 195.3674 205.274521 
L 194.817352 204.007352 
L 193.443226 203.864437 
L 192.619153 204.988694 
L 191.245026 204.845784 
L 190.694967 203.578614 
L 189.320835 203.435706 
L 188.77077 202.168536 
L 187.396632 202.02563 
L 186.572563 203.149896 
L 185.198423 203.006995 
L 184.648348 201.739824 
L 183.274203 201.596925 
L 182.724122 200.329753 
L 181.349971 200.186856 
L 180.799884 198.919683 
L 179.425727 198.776788 
L 178.875634 197.509613 
L 179.699702 196.385333 
L 179.149607 195.118156 
L 177.77544 194.975261 
L 177.22534 193.708083 
L 178.049411 192.583799 
L 177.499309 191.316618 
L 176.125131 191.173723 
L 175.575024 189.906541 
L 176.399098 188.782253 
L 175.848989 187.515068 
L 174.474801 187.372173 
L 173.924685 186.104987 
L 174.748763 184.980695 
L 174.198647 183.713507 
L 175.022728 182.589214 
L 176.396926 182.732114 
L 177.22101 181.607824 
L 176.670897 180.340632 
M 255.255236 119.547548 
L 254.705262 118.28028 
L 253.331037 118.137207 
L 252.506792 119.261405 
L 251.132567 119.118337 
L 250.308326 120.242538 
L 248.9341 120.099474 
L 248.109862 121.223678 
L 246.735634 121.080618 
L 245.9114 122.204825 
L 244.537172 122.061769 
L 243.987173 120.794505 
L 242.612939 120.651452 
L 242.062935 119.384186 
L 240.688695 119.241135 
L 240.138684 117.973869 
L 238.764439 117.83082 
L 238.214422 116.563552 
L 239.038656 115.439331 
L 238.488638 114.172061 
L 239.312875 113.04784 
L 238.762856 111.780567 
L 237.388595 111.637516 
L 236.83857 110.370241 
L 235.464303 110.227193 
L 234.914272 108.959917 
L 233.54 108.81687 
L 232.989963 107.549593 
L 231.615684 107.406549 
L 231.065641 106.139271 
L 229.691357 105.996228 
L 229.141308 104.728949 
L 229.965548 103.60471 
L 229.415497 102.337428 
L 228.041203 102.194386 
L 227.491146 100.927103 
L 226.116846 100.784063 
L 225.292607 101.908308 
L 223.918305 101.765272 
L 223.368238 100.497989 
L 221.993931 100.354955 
L 221.169696 101.479207 
L 219.795387 101.336178 
L 218.971155 102.460433 
L 217.596846 102.317408 
L 216.772617 103.441666 
L 215.398307 103.298645 
L 214.848221 102.031364 
L 213.473904 101.888346 
L 212.64968 103.01261 
L 211.275362 102.869596 
L 210.725265 101.602315 
L 209.350942 101.459303 
L 208.800839 100.192021 
L 207.42651 100.049011 
L 206.876401 98.781728 
L 207.700626 97.657453 
L 207.150515 96.390168 
L 207.974743 95.265893 
L 207.424631 93.998604 
L 206.050287 93.855592 
L 205.50017 92.588303 
L 204.12582 92.445293 
L 203.575696 91.178002 
L 204.399927 90.05372 
L 203.849802 88.786427 
L 202.475441 88.643417 
L 201.92531 87.376122 
L 202.749544 86.251836 
L 202.199412 84.984539 
L 200.825041 84.841529 
L 200.274903 83.57423 
L 198.900526 83.431223 
L 198.350382 82.163923 
L 199.174618 81.03963 
L 198.624473 79.772327 
L 197.250086 79.62932 
L 196.699934 78.362016 
L 195.325541 78.219011 
L 194.775383 76.951706 
L 193.400984 76.808703 
L 192.850821 75.541396 
L 193.675061 74.417092 
L 193.124896 73.149783 
L 191.750486 73.00678 
L 190.926247 74.131088 
L 189.551836 73.988089 
L 189.001661 72.720781 
L 187.627245 72.577784 
L 187.077063 71.310474 
L 185.702641 71.167479 
L 184.878406 72.291797 
L 185.428592 73.559106 
L 184.604359 74.683423 
L 183.229941 74.540435 
L 182.405712 75.664755 
L 182.955901 76.93206 
L 182.131676 78.056379 
L 180.757261 77.913397 
L 179.933039 79.03772 
L 180.483232 80.305021 
L 181.857642 80.448 
L 182.407828 81.7153 
L 181.583609 82.839619 
L 182.133794 84.106916 
L 183.508194 84.249895 
L 184.058373 85.517191 
L 183.234157 86.641506 
L 183.784335 87.908799 
L 182.960123 89.033113 
L 183.510299 90.300404 
L 182.68609 91.424718 
L 181.311705 91.281744 
L 180.4875 92.406061 
L 181.03768 93.673348 
L 180.213478 94.797664 
L 180.763656 96.064948 
L 179.939457 97.189264 
L 178.565081 97.0463 
L 177.740886 98.170618 
L 178.291067 99.437899 
L 177.466875 100.562217 
L 176.092502 100.419259 
L 175.268314 101.54358 
L 175.818499 102.810856 
L 174.994314 103.935177 
L 175.544497 105.202451 
L 174.720316 106.326771 
L 175.270498 107.594042 
L 174.44632 108.718362 
L 174.9965 109.985631 
L 176.370854 110.128581 
L 176.921028 111.395848 
L 176.096853 112.520164 
L 176.647027 113.787429 
L 178.02137 113.930379 
L 178.571537 115.197642 
L 177.747365 116.321954 
L 178.297531 117.589215 
L 177.473363 118.713527 
L 178.023527 119.980785 
L 179.397855 120.123733 
L 179.948014 121.39099 
L 179.123849 122.515297 
L 179.674006 123.782552 
L 178.849844 124.906859 
L 179.399999 126.174111 
L 178.575841 127.298418 
L 179.125995 128.565667 
L 178.30184 129.689973 
L 178.851993 130.95722 
L 178.027842 132.081526 
L 176.653537 131.938589 
L 175.829389 133.062897 
L 176.379545 134.33014 
L 175.5554 135.454448 
L 174.1811 135.311518 
L 173.356959 136.435829 
L 173.907118 137.703068 
L 173.08298 138.827379 
L 173.633138 140.094615 
L 172.809003 141.218925 
L 173.35916 142.486159 
L 172.535029 143.610469 
L 173.085184 144.8777 
L 172.261056 146.002009 
L 172.81121 147.269238 
L 171.987086 148.393547 
L 172.537238 149.660773 
L 173.91151 149.803691 
L 174.461656 151.070915 
L 173.637535 152.195221 
L 174.18768 153.462443 
L 175.561942 153.605361 
L 176.112081 154.872582 
L 175.287963 155.996883 
L 175.838101 157.264101 
L 177.212352 157.407019 
L 178.03647 156.282721 
L 177.486337 155.015502 
L 178.310458 153.891204 
L 177.760324 152.623982 
L 178.584449 151.499683 
L 178.034313 150.232458 
L 178.858441 149.108159 
L 178.308304 147.840932 
L 179.132435 146.716632 
L 180.506704 146.859563 
L 181.056837 148.126792 
L 180.232705 149.251088 
L 180.782837 150.518314 
L 179.958708 151.64261 
L 180.508838 152.909833 
L 179.684713 154.034128 
L 180.234842 155.301349 
L 179.41072 156.425644 
L 179.960847 157.692862 
L 179.136729 158.817157 
L 179.686854 160.084372 
L 178.862739 161.208666 
L 179.412864 162.475879 
L 178.588752 163.600172 
L 177.214516 163.457256 
L 176.390408 164.581553 
L 176.940536 165.848762 
L 176.116431 166.973058 
L 176.666557 168.240264 
L 175.842456 169.364559 
L 176.392581 170.631763 
L 175.568483 171.756058 
L 176.118606 173.02326 
L 177.492823 173.166167 
L 178.042941 174.433368 
L 179.417152 174.576277 
L 179.967263 175.843476 
L 181.341468 175.986388 
L 181.891574 177.253586 
L 181.067479 178.37787 
L 181.617583 179.645065 
L 182.991778 179.787977 
L 183.541876 181.055171 
L 182.717784 182.179451 
L 183.267881 183.446642 
L 182.443792 184.570922 
L 181.069607 184.428014 
L 180.245522 185.552297 
L 178.871336 185.409393 
L 178.047254 186.533679 
L 178.597359 187.800865 
L 179.97154 187.943766 
L 180.521639 189.210951 
L 179.697561 190.335233 
L 180.247658 191.602415 
L 179.423583 192.726696 
L 179.973679 193.993875 
L 181.347845 194.136775 
L 181.897935 195.403953 
L 183.272096 195.546854 
L 183.82218 196.814031 
L 185.196334 196.956935 
L 185.746412 198.224111 
L 187.120561 198.367017 
L 187.670633 199.634191 
L 189.044776 199.777099 
L 189.868852 198.652835 
L 191.242994 198.795747 
L 191.793056 200.062922 
L 193.167192 200.205836 
L 193.717248 201.473009 
L 195.091378 201.615926 
L 195.915458 200.491672 
L 197.289587 200.634593 
L 197.839632 201.901766 
L 199.213756 202.044689 
L 200.03784 200.920441 
L 201.411962 201.063369 
L 201.961997 202.330542 
L 203.336114 202.473472 
L 203.886142 203.740643 
L 205.260253 203.883575 
L 205.810276 205.150746 
L 204.986192 206.274983 
L 205.536213 207.542152 
L 206.910314 207.685083 
L 207.460329 208.95225 
L 206.636248 210.076484 
L 207.186262 211.343648 
L 208.560352 211.48658 
L 209.11036 212.753743 
L 210.484444 212.896677 
L 211.034446 214.163838 
L 212.408525 214.306775 
L 212.958521 215.573935 
L 214.332594 215.716873 
L 214.882584 216.984033 
L 216.25665 217.126973 
L 216.806635 218.394131 
L 215.982556 219.518347 
L 216.532539 220.785502 
L 217.906596 220.928443 
L 218.456572 222.195597 
L 217.632497 223.319809 
L 218.182473 224.58696 
L 219.556519 224.729901 
L 220.106488 225.997051 
L 219.282416 227.121259 
L 219.832384 228.388407 
L 219.008316 229.512614 
L 219.558283 230.779759 
L 218.734218 231.903966 
L 219.284183 233.171109 
L 218.460121 234.295315 
L 217.086094 234.152383 
L 216.262036 235.276593 
L 216.812005 236.543731 
L 215.98795 237.667941 
L 216.537917 238.935076 
L 215.713866 240.059285 
L 214.339847 239.916362 
L 213.515799 241.040573 
L 214.06577 242.307705 
L 213.241725 243.431916 
L 211.86771 243.288999 
L 211.043669 244.413213 
L 211.593643 245.680341 
L 210.769605 246.804555 
L 211.319577 248.071681 
L 210.495543 249.195894 
L 211.045514 250.463017 
L 210.221483 251.587229 
L 210.771452 252.85435 
L 209.947425 253.978562 
L 210.497393 255.24568 
L 209.673368 256.369891 
L 208.299376 256.226989 
L 207.475356 257.351204 
L 208.025327 258.618317 
L 207.20131 259.742532 
L 207.75128 261.009643 
L 206.927266 262.133857 
L 207.477234 263.400965 
L 206.653223 264.525179 
L 207.20319 265.792284 
L 206.379183 266.916497 
L 206.929149 268.183601 
L 206.105145 269.307813 
L 206.655109 270.574914 
L 205.831109 271.699126 
L 206.381072 272.966224 
L 205.557075 274.090435 
L 206.107036 275.357531 
L 207.48099 275.500416 
L 208.030946 276.76751 
L 207.206952 277.891718 
L 207.756906 279.15881 
L 209.13085 279.301695 
L 209.680798 280.568785 
L 211.054736 280.711673 
L 211.604678 281.978762 
L 210.780687 283.102962 
L 211.330628 284.370049 
L 212.704555 284.512936 
L 213.25449 285.780022 
L 212.430502 286.904218 
L 212.980436 288.171301 
L 214.354353 288.314188 
L 215.178341 287.189995 
L 216.552256 287.332887 
L 217.376248 286.208698 
L 216.826323 284.941612 
L 217.650318 283.817422 
L 219.024237 283.96032 
L 219.574157 285.227407 
L 220.948071 285.370307 
L 221.497985 286.637393 
L 222.871892 286.780295 
L 223.695891 285.656115 
L 223.145982 284.389028 
L 223.969984 283.264847 
L 225.343895 283.407756 
L 226.167901 282.283578 
L 227.541811 282.426492 
L 228.36582 281.302317 
L 229.73973 281.445234 
L 230.563742 280.321062 
L 231.937651 280.463984 
L 232.761667 279.339815 
L 234.135574 279.482741 
L 234.959594 278.358575 
L 234.409706 277.091479 
L 235.233729 275.967313 
L 236.60764 276.110245 
L 237.431667 274.986081 
L 238.805576 275.129018 
L 239.629607 274.004858 
L 241.003515 274.147799 
L 241.827549 273.023641 
L 241.277674 271.756539 
L 242.101711 270.63238 
L 241.551834 269.365275 
L 240.177915 269.22233 
L 239.628033 267.955224 
L 240.452073 266.831062 
L 241.825996 266.974009 
L 242.65004 265.84985 
L 242.10016 264.58274 
L 242.924207 263.45858 
L 242.374326 262.191467 
L 241.000393 262.048516 
L 240.450506 260.781402 
L 241.274557 259.657238 
L 242.648494 259.800192 
L 243.198376 261.067307 
L 244.572308 261.210263 
L 245.396362 260.086106 
L 244.846484 258.818989 
L 245.670541 257.694832 
L 247.044477 257.837794 
L 247.868538 256.713639 
L 247.318663 255.446519 
L 248.142727 254.322364 
L 249.516666 254.465332 
L 250.340734 253.34118 
L 251.714672 253.484153 
L 252.538743 252.360004 
L 253.91268 252.502982 
L 254.736755 251.378835 
L 254.186893 250.111708 
L 255.010971 248.987561 
L 256.384911 249.130545 
L 257.208993 248.006401 
L 256.659134 246.73927 
L 257.483219 245.615126 
L 256.933359 244.347992 
L 255.559409 244.205004 
L 255.009542 242.937869 
L 253.635586 242.794884 
L 253.085714 241.527747 
L 253.909802 240.403596 
L 253.359928 239.136457 
L 251.985962 238.993471 
L 251.436082 237.726331 
L 252.260173 236.602175 
L 251.710292 235.335033 
L 252.534387 234.210877 
L 251.984505 232.943731 
L 252.808603 231.819575 
L 252.258719 230.552427 
L 250.884732 230.409437 
L 250.334843 229.142288 
L 251.158944 228.018128 
L 250.609053 226.750976 
L 249.235056 226.607986 
L 248.685159 225.340833 
L 249.509263 224.216669 
L 248.959364 222.949513 
L 247.585357 222.806523 
L 247.035453 221.539366 
L 247.85956 220.415198 
L 247.309654 219.148038 
L 245.935636 219.005048 
L 245.385724 217.737888 
L 246.209835 216.613716 
L 245.659922 215.346552 
L 246.484036 214.22238 
L 245.934122 212.955214 
L 244.560088 212.812222 
L 244.010168 211.545055 
L 244.834285 210.420878 
L 246.208323 210.563872 
L 247.032444 209.439699 
L 246.482527 208.172527 
L 247.306651 207.048353 
L 246.756732 205.78118 
L 247.58086 204.657005 
L 247.03094 203.389829 
L 247.855071 202.265654 
L 249.229122 202.408659 
L 250.053257 201.284487 
L 249.50334 200.017306 
L 250.327478 198.893134 
L 251.701533 199.036145 
L 252.525674 197.911976 
L 253.899728 198.054991 
L 254.723873 196.930825 
L 254.173964 195.663639 
L 252.799905 195.520622 
L 252.24999 194.253435 
L 253.074138 193.129264 
L 252.524222 191.862075 
L 253.348373 190.737904 
L 254.722441 190.880926 
L 255.546596 189.756758 
L 256.920663 189.899784 
L 257.470571 191.166976 
L 258.844632 191.310004 
L 259.668791 190.185843 
L 259.118888 188.918649 
L 259.94305 187.794487 
L 259.393146 186.527292 
L 258.019075 186.384259 
L 257.469165 185.117062 
L 258.29333 183.992896 
L 257.743419 182.725696 
L 256.369338 182.582664 
L 255.81942 181.315463 
L 256.643589 180.191293 
L 256.09367 178.924089 
L 256.917842 177.799919 
L 256.367922 176.532713 
L 257.192097 175.408542 
L 258.566193 175.551581 
L 259.390371 174.427413 
L 258.840454 173.160203 
L 259.664636 172.036035 
L 259.114718 170.768822 
L 259.938904 169.644653 
L 259.388984 168.377438 
L 258.014874 168.234393 
L 257.464948 166.967176 
L 258.289137 165.843004 
L 257.73921 164.575785 
L 258.563402 163.451612 
L 258.013474 162.18439 
L 258.837669 161.060216 
L 258.287739 159.792992 
L 259.111938 158.668818 
L 260.486067 158.811871 
L 261.310269 157.6877 
L 262.684397 157.830758 
L 263.508603 156.70659 
L 264.882729 156.849652 
L 265.432645 158.116881 
L 266.806766 158.259945 
L 267.630976 157.135783 
L 267.081064 155.868554 
L 267.905277 154.744391 
L 267.355364 153.477159 
L 268.17958 152.352997 
L 267.629666 151.085762 
L 266.255531 150.942691 
L 265.705611 149.675455 
L 266.52983 148.551289 
L 265.979909 147.28405 
L 264.605763 147.140979 
L 264.055836 145.873739 
L 262.681684 145.730671 
L 262.131751 144.46343 
L 262.955973 143.339256 
L 264.330129 143.482327 
L 265.154355 142.358156 
L 264.604425 141.090911 
L 265.428654 139.966739 
L 264.878723 138.699492 
L 263.504557 138.556417 
L 262.954619 137.289168 
L 263.778852 136.164992 
L 263.228913 134.897741 
L 264.053149 133.773565 
L 265.427324 133.916644 
L 266.251564 132.792471 
L 265.701628 131.525216 
L 266.525871 130.401043 
L 265.975933 129.133785 
L 264.601749 128.990701 
L 264.051806 127.723442 
L 264.876052 126.599265 
L 264.326107 125.332003 
L 262.951912 125.18892 
L 262.401961 123.921657 
L 261.027761 123.778576 
L 260.477804 122.511311 
L 259.103597 122.368232 
L 258.553635 121.100967 
L 257.179423 120.95789 
L 256.629454 119.690623 
L 255.255236 119.547548 
M 170.071579 171.184449 
L 171.445808 171.327348 
L 171.995942 172.594549 
L 173.370166 172.737451 
L 174.19426 171.613153 
L 173.644131 170.34595 
L 174.468229 169.221652 
L 173.918098 167.954447 
L 174.742199 166.830148 
L 174.192067 165.56294 
L 175.016171 164.438641 
L 174.466038 163.17143 
L 175.290146 162.04713 
L 174.740011 160.779917 
L 173.365764 160.637006 
L 172.541656 161.761309 
L 173.091795 163.02852 
L 172.267691 164.152823 
L 170.893447 164.009918 
L 170.069346 165.134223 
L 170.619489 166.401431 
L 169.795392 167.525736 
L 168.421152 167.382837 
L 167.597058 168.507146 
L 168.147204 169.774349 
L 169.521439 169.917246 
L 170.071579 171.184449 
" clip-path="url(#p7753693e6e)" style="fill: #a0522d"/>
    <path d="M 188.193913 122.248722 
L 187.369741 123.373017 
L 185.995431 123.230058 
L 185.445289 121.962803 
L 186.269461 120.838504 
L 187.643776 120.981465 
L 188.193913 122.248722 
" clip-path="url(#p7753693e6e)" style="fill: #a0522d"/>
    <path d="M 203.857453 112.98803 
L 205.231759 113.131025 
L 205.78186 114.398293 
L 207.15616 114.54129 
L 207.706255 115.808556 
L 209.08055 115.951556 
L 209.630639 117.218821 
L 208.806437 118.343085 
L 209.356525 119.610348 
L 210.730809 119.753347 
L 211.28089 121.020608 
L 210.456692 122.144869 
L 211.006772 123.412127 
L 210.182578 124.536387 
L 210.732657 125.803643 
L 212.106925 125.946641 
L 212.656998 127.213896 
L 211.832807 128.338152 
L 210.458543 128.195156 
L 209.634355 129.319415 
L 210.184431 130.586666 
L 211.55869 130.729659 
L 212.10876 131.996909 
L 213.483014 132.139904 
L 214.033078 133.407153 
L 213.208893 134.531404 
L 211.834644 134.388411 
L 211.010463 135.512666 
L 211.56053 136.77991 
L 210.736352 137.904164 
L 209.362107 137.761178 
L 208.537933 138.885435 
L 207.163687 138.742452 
L 206.339516 139.866713 
L 204.965269 139.723734 
L 204.415188 138.456494 
L 203.040935 138.313518 
L 202.490848 137.046276 
L 203.315019 135.922009 
L 204.689276 136.064987 
L 205.51345 134.940723 
L 204.963367 133.673477 
L 203.589104 133.530497 
L 203.039015 132.26325 
L 203.863192 131.138982 
L 203.313101 129.871733 
L 204.137281 128.747464 
L 205.511553 128.890449 
L 206.335737 127.766183 
L 205.785649 126.49893 
L 206.609837 125.374664 
L 206.059748 124.107408 
L 204.685466 123.964419 
L 204.135371 122.697162 
L 204.959562 121.572892 
L 204.409465 120.305632 
L 203.035173 120.162644 
L 202.485071 118.895383 
L 203.309265 117.771109 
L 202.759161 116.503845 
L 203.583358 115.379571 
L 203.033253 114.112305 
L 201.658946 113.969314 
L 201.108834 112.702046 
L 201.933035 111.577768 
L 203.307347 111.720761 
L 203.857453 112.98803 
" clip-path="url(#p7753693e6e)" style="fill: #a0522d"/>
    <path d="M 193.132954 97.351747 
L 192.308744 98.476044 
L 190.934388 98.33306 
L 190.384237 97.065777 
L 191.208446 95.941477 
L 192.582807 96.084463 
L 193.132954 97.351747 
" clip-path="url(#p7753693e6e)" style="fill: #a0522d"/>
    <path d="M 196.975999 82.020918 
L 196.151766 83.145214 
L 194.777382 83.002213 
L 194.227227 81.734913 
L 195.051461 80.610613 
L 196.425849 80.753617 
L 196.975999 82.020918 
" clip-path="url(#p7753693e6e)" style="fill: #a0522d"/>
    <path d="M 212.392038 159.856431 
L 212.942081 161.123649 
L 212.117933 162.247892 
L 212.667975 163.515109 
L 214.04216 163.658083 
L 214.592195 164.925297 
L 213.768051 166.049537 
L 212.39387 165.906565 
L 211.84383 164.639351 
L 210.469644 164.496381 
L 209.919598 163.229167 
L 208.545407 163.086199 
L 207.995354 161.818983 
L 208.819499 160.694733 
L 210.193695 160.837703 
L 211.017843 159.713457 
L 212.392038 159.856431 
" clip-path="url(#p7753693e6e)" style="fill: #a0522d"/>
    <path d="M 210.7382 143.954389 
L 210.188137 142.687153 
L 211.012308 141.562899 
L 210.462243 140.29566 
L 211.286418 139.171406 
L 212.660657 139.314395 
L 213.210717 140.581636 
L 212.386542 141.705886 
L 212.936601 142.973124 
L 212.11243 144.097374 
L 210.7382 143.954389 
" clip-path="url(#p7753693e6e)" style="fill: #a0522d"/>
    <path d="M 225.314835 180.56071 
L 224.4907 181.684927 
L 223.116568 181.541949 
L 222.566568 180.274751 
L 223.390704 179.15053 
L 224.76484 179.293511 
L 225.314835 180.56071 
" clip-path="url(#p7753693e6e)" style="fill: #a0522d"/>
    <path d="M 223.664841 176.759108 
L 222.840702 177.883329 
L 221.46656 177.740351 
L 220.916553 176.473149 
L 221.740691 175.348924 
L 223.114838 175.491905 
L 223.664841 176.759108 
" clip-path="url(#p7753693e6e)" style="fill: #a0522d"/>
    <path d="M 217.068219 173.65279 
L 217.892357 172.528559 
L 217.342336 171.261352 
L 218.166478 170.13712 
L 217.616456 168.86991 
L 216.242287 168.726934 
L 215.692259 167.459723 
L 216.516404 166.335487 
L 215.966374 165.068274 
L 216.790523 163.944038 
L 218.164701 164.087018 
L 218.714726 165.354233 
L 220.088898 165.497216 
L 220.91305 164.372986 
L 220.36303 163.10577 
L 221.187185 161.98154 
L 220.637163 160.714321 
L 219.262981 160.571334 
L 218.712954 159.304114 
L 219.537112 158.17988 
L 220.911299 158.322869 
L 221.461322 159.59009 
L 222.835503 159.733082 
L 223.38552 161.000302 
L 222.561361 162.124529 
L 223.111377 163.391746 
L 222.287221 164.515973 
L 222.837236 165.783188 
L 222.013084 166.907414 
L 222.563097 168.174627 
L 221.738948 169.298853 
L 220.364786 169.15587 
L 219.540641 170.280099 
L 220.090657 171.547307 
L 221.464814 171.690288 
L 222.014825 172.957495 
L 221.190683 174.08172 
L 219.81653 173.938741 
L 218.992392 175.062969 
L 217.618238 174.919995 
L 217.068219 173.65279 
" clip-path="url(#p7753693e6e)" style="fill: #a0522d"/>
    <path d="M 217.064643 161.552585 
L 216.240492 162.676822 
L 214.866308 162.533843 
L 214.316271 161.266626 
L 215.140422 160.142386 
L 216.514611 160.285366 
L 217.064643 161.552585 
" clip-path="url(#p7753693e6e)" style="fill: #a0522d"/>
    <path d="M 226.132166 155.236175 
L 225.307996 156.360401 
L 223.933812 156.217403 
L 223.383792 154.950178 
L 224.207961 153.825949 
L 225.58215 153.968949 
L 226.132166 155.236175 
" clip-path="url(#p7753693e6e)" style="fill: #a0522d"/>
    <path d="M 222.283745 152.415723 
L 221.459576 153.539956 
L 220.08538 153.396962 
L 219.535348 152.129734 
L 220.359516 151.005499 
L 221.733717 151.148494 
L 222.283745 152.415723 
" clip-path="url(#p7753693e6e)" style="fill: #a0522d"/>
    <path d="M 223.106185 145.241329 
L 222.282006 146.365563 
L 220.907796 146.222563 
L 220.35776 144.955327 
L 221.181939 143.83109 
L 220.631901 142.563852 
L 219.25768 142.420853 
L 218.707637 141.153613 
L 219.531819 140.029372 
L 218.981774 138.76213 
L 217.607543 138.619131 
L 217.057492 137.351887 
L 215.683255 137.20889 
L 214.859073 138.333138 
L 213.484835 138.190145 
L 212.934774 136.922901 
L 213.758955 135.79865 
L 215.133198 135.941645 
L 215.957383 134.817397 
L 217.331625 134.960397 
L 218.155814 133.836152 
L 219.530054 133.979155 
L 220.080102 135.246403 
L 221.454337 135.389409 
L 222.004379 136.656655 
L 221.18019 137.780893 
L 221.73023 139.048136 
L 223.104454 139.191142 
L 223.654489 140.458384 
L 222.830303 141.582619 
L 223.380336 142.849858 
L 222.556154 143.974092 
L 223.106185 145.241329 
" clip-path="url(#p7753693e6e)" style="fill: #a0522d"/>
    <path d="M 226.442004 279.892309 
L 225.892096 278.625216 
L 226.716108 277.501037 
L 226.166199 276.233941 
L 224.792274 276.091026 
L 224.242359 274.823929 
L 225.066374 273.699746 
L 226.440305 273.842664 
L 226.990215 275.109762 
L 228.36414 275.252682 
L 228.914044 276.519779 
L 228.090028 277.643955 
L 228.639931 278.911049 
L 227.815919 280.035225 
L 226.442004 279.892309 
" clip-path="url(#p7753693e6e)" style="fill: #a0522d"/>
    <path d="M 233.554687 163.26852 
L 232.73052 164.392731 
L 231.356364 164.249727 
L 230.806369 162.98251 
L 231.630535 161.858295 
L 233.004697 162.001301 
L 233.554687 163.26852 
" clip-path="url(#p7753693e6e)" style="fill: #a0522d"/>
    <path d="M 232.453062 154.68398 
L 231.628885 155.808196 
L 230.254709 155.665188 
L 229.704704 154.397961 
L 230.52888 153.273742 
L 231.903061 153.416753 
L 232.453062 154.68398 
" clip-path="url(#p7753693e6e)" style="fill: #a0522d"/>
    <path d="M 233.275606 147.509638 
L 232.45142 148.633856 
L 231.077229 148.490841 
L 230.52722 147.223607 
L 231.351406 146.099386 
L 232.725602 146.242403 
L 233.275606 147.509638 
" clip-path="url(#p7753693e6e)" style="fill: #a0522d"/>
    <path d="M 232.17395 138.925002 
L 231.349753 140.049224 
L 229.975543 139.906205 
L 229.425523 138.638962 
L 230.24972 137.514736 
L 231.623935 137.657758 
L 232.17395 138.925002 
" clip-path="url(#p7753693e6e)" style="fill: #a0522d"/>
    <path d="M 248.129284 199.8743 
L 247.30515 200.998475 
L 245.931093 200.855472 
L 245.381165 199.588292 
L 246.205299 198.464113 
L 247.579361 198.607118 
L 248.129284 199.8743 
" clip-path="url(#p7753693e6e)" style="fill: #a0522d"/>
    <path d="M 179.97154 187.943766 
L 178.597359 187.800865 
L 178.047254 186.533679 
L 178.871336 185.409393 
L 180.245522 185.552297 
L 181.069607 184.428014 
L 182.443792 184.570922 
L 183.267881 183.446642 
L 182.717784 182.179451 
L 183.541876 181.055171 
L 182.991778 179.787977 
L 181.617583 179.645065 
L 181.067479 178.37787 
L 181.891574 177.253586 
L 181.341468 175.986388 
L 179.967263 175.843476 
L 179.417152 174.576277 
L 178.042941 174.433368 
L 177.492823 173.166167 
L 176.118606 173.02326 
L 175.568483 171.756058 
L 176.392581 170.631763 
L 175.842456 169.364559 
L 176.666557 168.240264 
L 176.116431 166.973058 
L 176.940536 165.848762 
L 176.390408 164.581553 
L 177.214516 163.457256 
L 178.588752 163.600172 
L 179.412864 162.475879 
L 178.862739 161.208666 
L 179.686854 160.084372 
L 179.136729 158.817157 
L 179.960847 157.692862 
L 179.41072 156.425644 
L 180.234842 155.301349 
L 179.684713 154.034128 
L 180.508838 152.909833 
L 179.958708 151.64261 
L 180.782837 150.518314 
L 180.232705 149.251088 
L 181.056837 148.126792 
L 180.506704 146.859563 
L 179.132435 146.716632 
L 178.308304 147.840932 
L 178.858441 149.108159 
L 178.034313 150.232458 
L 178.584449 151.499683 
L 177.760324 152.623982 
L 178.310458 153.891204 
L 177.486337 155.015502 
L 178.03647 156.282721 
L 177.212352 157.407019 
L 175.838101 157.264101 
L 175.287963 155.996883 
L 176.112081 154.872582 
L 175.561942 153.605361 
L 174.18768 153.462443 
L 173.637535 152.195221 
L 174.461656 151.070915 
L 173.91151 149.803691 
L 172.537238 149.660773 
L 171.987086 148.393547 
L 172.81121 147.269238 
L 172.261056 146.002009 
L 173.085184 144.8777 
L 172.535029 143.610469 
L 173.35916 142.486159 
L 172.809003 141.218925 
L 173.633138 140.094615 
L 173.08298 138.827379 
L 173.907118 137.703068 
L 173.356959 136.435829 
L 174.1811 135.311518 
L 175.5554 135.454448 
L 176.379545 134.33014 
L 175.829389 133.062897 
L 176.653537 131.938589 
L 178.027842 132.081526 
L 178.851993 130.95722 
L 178.30184 129.689973 
L 179.125995 128.565667 
L 178.575841 127.298418 
L 179.399999 126.174111 
L 178.849844 124.906859 
L 179.674006 123.782552 
L 179.123849 122.515297 
L 179.948014 121.39099 
L 179.397855 120.123733 
L 178.023527 119.980785 
L 177.473363 118.713527 
L 178.297531 117.589215 
L 177.747365 116.321954 
L 178.571537 115.197642 
L 178.02137 113.930379 
L 176.647027 113.787429 
L 176.096853 112.520164 
L 176.921028 111.395848 
L 176.370854 110.128581 
L 174.9965 109.985631 
L 174.44632 108.718362 
L 175.270498 107.594042 
L 174.720316 106.326771 
L 175.544497 105.202451 
L 174.994314 103.935177 
L 175.818499 102.810856 
L 175.268314 101.54358 
L 176.092502 100.419259 
L 177.466875 100.562217 
L 178.291067 99.437899 
L 177.740886 98.170618 
L 178.565081 97.0463 
L 179.939457 97.189264 
L 180.763656 96.064948 
L 180.213478 94.797664 
L 181.03768 93.673348 
L 180.4875 92.406061 
L 181.311705 91.281744 
L 182.68609 91.424718 
L 183.510299 90.300404 
L 182.960123 89.033113 
L 183.784335 87.908799 
L 183.234157 86.641506 
L 184.058373 85.517191 
L 183.508194 84.249895 
L 182.133794 84.106916 
L 181.583609 82.839619 
L 182.407828 81.7153 
L 181.857642 80.448 
L 180.483232 80.305021 
L 179.933039 79.03772 
L 180.757261 77.913397 
L 182.131676 78.056379 
L 182.955901 76.93206 
L 182.405712 75.664755 
L 183.229941 74.540435 
L 184.604359 74.683423 
L 185.428592 73.559106 
L 184.878406 72.291797 
L 185.702641 71.167479 
L 187.077063 71.310474 
L 187.627245 72.577784 
L 189.001661 72.720781 
L 189.551836 73.988089 
L 190.926247 74.131088 
L 191.750486 73.00678 
L 193.124896 73.149783 
L 193.675061 74.417092 
L 192.850821 75.541396 
L 193.400984 76.808703 
L 194.775383 76.951706 
L 195.325541 78.219011 
L 196.699934 78.362016 
L 197.250086 79.62932 
L 198.624473 79.772327 
L 199.174618 81.03963 
L 198.350382 82.163923 
L 198.900526 83.431223 
L 200.274903 83.57423 
L 200.825041 84.841529 
L 202.199412 84.984539 
L 202.749544 86.251836 
L 201.92531 87.376122 
L 202.475441 88.643417 
L 203.849802 88.786427 
L 204.399927 90.05372 
L 203.575696 91.178002 
L 204.12582 92.445293 
L 205.50017 92.588303 
L 206.050287 93.855592 
L 207.424631 93.998604 
L 207.974743 95.265893 
L 207.150515 96.390168 
L 207.700626 97.657453 
L 206.876401 98.781728 
L 207.42651 100.049011 
L 208.800839 100.192021 
L 209.350942 101.459303 
L 210.725265 101.602315 
L 211.275362 102.869596 
L 212.64968 103.01261 
L 213.473904 101.888346 
L 214.848221 102.031364 
L 215.398307 103.298645 
L 216.772617 103.441666 
L 217.596846 102.317408 
L 218.971155 102.460433 
L 219.795387 101.336178 
L 221.169696 101.479207 
L 221.993931 100.354955 
L 223.368238 100.497989 
L 223.918305 101.765272 
L 225.292607 101.908308 
L 226.116846 100.784063 
L 227.491146 100.927103 
L 228.041203 102.194386 
L 229.415497 102.337428 
L 229.965548 103.60471 
L 229.141308 104.728949 
L 229.691357 105.996228 
L 231.065641 106.139271 
L 231.615684 107.406549 
L 232.989963 107.549593 
L 233.54 108.81687 
L 234.914272 108.959917 
L 235.464303 110.227193 
L 236.83857 110.370241 
L 237.388595 111.637516 
L 238.762856 111.780567 
L 239.312875 113.04784 
L 238.488638 114.172061 
L 239.038656 115.439331 
L 238.214422 116.563552 
L 238.764439 117.83082 
L 240.138684 117.973869 
L 240.688695 119.241135 
L 242.062935 119.384186 
L 242.612939 120.651452 
L 243.987173 120.794505 
L 244.537172 122.061769 
L 245.9114 122.204825 
L 246.735634 121.080618 
L 248.109862 121.223678 
L 248.9341 120.099474 
L 250.308326 120.242538 
L 251.132567 119.118337 
L 252.506792 119.261405 
L 253.331037 118.137207 
L 254.705262 118.28028 
L 255.255236 119.547548 
L 256.629454 119.690623 
L 257.179423 120.95789 
L 258.553635 121.100967 
L 259.103597 122.368232 
L 260.477804 122.511311 
L 261.027761 123.778576 
L 262.401961 123.921657 
L 262.951912 125.18892 
L 264.326107 125.332003 
L 264.876052 126.599265 
L 264.051806 127.723442 
L 264.601749 128.990701 
L 265.975933 129.133785 
L 266.525871 130.401043 
L 265.701628 131.525216 
L 266.251564 132.792471 
L 265.427324 133.916644 
L 264.053149 133.773565 
L 263.228913 134.897741 
L 263.778852 136.164992 
L 262.954619 137.289168 
L 263.504557 138.556417 
L 264.878723 138.699492 
L 265.428654 139.966739 
L 264.604425 141.090911 
L 265.154355 142.358156 
L 264.330129 143.482327 
L 262.955973 143.339256 
L 262.131751 144.46343 
L 262.681684 145.730671 
L 264.055836 145.873739 
L 264.605763 147.140979 
L 265.979909 147.28405 
L 266.52983 148.551289 
L 265.705611 149.675455 
L 266.255531 150.942691 
L 267.629666 151.085762 
L 268.17958 152.352997 
L 267.355364 153.477159 
L 267.905277 154.744391 
L 267.081064 155.868554 
L 267.630976 157.135783 
L 266.806766 158.259945 
L 265.432645 158.116881 
L 264.882729 156.849652 
L 263.508603 156.70659 
L 262.684397 157.830758 
L 261.310269 157.6877 
L 260.486067 158.811871 
L 259.111938 158.668818 
L 258.287739 159.792992 
L 258.837669 161.060216 
L 258.013474 162.18439 
L 258.563402 163.451612 
L 257.73921 164.575785 
L 258.289137 165.843004 
L 257.464948 166.967176 
L 258.014874 168.234393 
L 259.388984 168.377438 
L 259.938904 169.644653 
L 259.114718 170.768822 
L 259.664636 172.036035 
L 258.840454 173.160203 
L 259.390371 174.427413 
L 258.566193 175.551581 
L 257.192097 175.408542 
L 256.367922 176.532713 
L 256.917842 177.799919 
L 256.09367 178.924089 
L 256.643589 180.191293 
L 255.81942 181.315463 
L 256.369338 182.582664 
L 257.743419 182.725696 
L 258.29333 183.992896 
L 257.469165 185.117062 
L 258.019075 186.384259 
L 259.393146 186.527292 
L 259.94305 187.794487 
L 259.118888 188.918649 
L 259.668791 190.185843 
L 258.844632 191.310004 
L 257.470571 191.166976 
L 256.920663 189.899784 
L 255.546596 189.756758 
L 254.722441 190.880926 
L 253.348373 190.737904 
L 252.524222 191.862075 
L 253.074138 193.129264 
L 252.24999 194.253435 
L 252.799905 195.520622 
L 254.173964 195.663639 
L 254.723873 196.930825 
L 253.899728 198.054991 
L 252.525674 197.911976 
L 251.701533 199.036145 
L 250.327478 198.893134 
L 249.50334 200.017306 
L 250.053257 201.284487 
L 249.229122 202.408659 
L 247.855071 202.265654 
L 247.03094 203.389829 
L 247.58086 204.657005 
L 246.756732 205.78118 
L 247.306651 207.048353 
L 246.482527 208.172527 
L 247.032444 209.439699 
L 246.208323 210.563872 
L 244.834285 210.420878 
L 244.010168 211.545055 
L 244.560088 212.812222 
L 245.934122 212.955214 
L 246.484036 214.22238 
L 245.659922 215.346552 
L 246.209835 216.613716 
L 245.385724 217.737888 
L 245.935636 219.005048 
L 247.309654 219.148038 
L 247.85956 220.415198 
L 247.035453 221.539366 
L 247.585357 222.806523 
L 248.959364 222.949513 
L 249.509263 224.216669 
L 248.685159 225.340833 
L 249.235056 226.607986 
L 250.609053 226.750976 
L 251.158944 228.018128 
L 250.334843 229.142288 
L 250.884732 230.409437 
L 252.258719 230.552427 
L 252.808603 231.819575 
L 251.984505 232.943731 
L 252.534387 234.210877 
L 251.710292 235.335033 
L 252.260173 236.602175 
L 251.436082 237.726331 
L 251.985962 238.993471 
L 253.359928 239.136457 
L 253.909802 240.403596 
L 253.085714 241.527747 
L 253.635586 242.794884 
L 255.009542 242.937869 
L 255.559409 244.205004 
L 256.933359 244.347992 
L 257.483219 245.615126 
L 256.659134 246.73927 
L 257.208993 248.006401 
L 256.384911 249.130545 
L 255.010971 248.987561 
L 254.186893 250.111708 
L 254.736755 251.378835 
L 253.91268 252.502982 
L 252.538743 252.360004 
L 251.714672 253.484153 
L 250.340734 253.34118 
L 249.516666 254.465332 
L 248.142727 254.322364 
L 247.318663 255.446519 
L 247.868538 256.713639 
L 247.044477 257.837794 
L 245.670541 257.694832 
L 244.846484 258.818989 
L 245.396362 260.086106 
L 244.572308 261.210263 
L 243.198376 261.067307 
L 242.648494 259.800192 
L 241.274557 259.657238 
L 240.450506 260.781402 
L 241.000393 262.048516 
L 242.374326 262.191467 
L 242.924207 263.45858 
L 242.10016 264.58274 
L 242.65004 265.84985 
L 241.825996 266.974009 
L 240.452073 266.831062 
L 239.628033 267.955224 
L 240.177915 269.22233 
L 241.551834 269.365275 
L 242.101711 270.63238 
L 241.277674 271.756539 
L 241.827549 273.023641 
L 241.003515 274.147799 
L 239.629607 274.004858 
L 238.805576 275.129018 
L 237.431667 274.986081 
L 236.60764 276.110245 
L 235.233729 275.967313 
L 234.409706 277.091479 
L 234.959594 278.358575 
L 234.135574 279.482741 
L 232.761667 279.339815 
L 231.937651 280.463984 
L 230.563742 280.321062 
L 229.73973 281.445234 
L 228.36582 281.302317 
L 227.541811 282.426492 
L 226.167901 282.283578 
L 225.343895 283.407756 
L 223.969984 283.264847 
L 223.145982 284.389028 
L 223.695891 285.656115 
L 222.871892 286.780295 
L 221.497985 286.637393 
L 220.948071 285.370307 
L 219.574157 285.227407 
L 219.024237 283.96032 
L 217.650318 283.817422 
L 216.826323 284.941612 
L 217.376248 286.208698 
L 216.552256 287.332887 
L 215.178341 287.189995 
L 214.354353 288.314188 
L 212.980436 288.171301 
L 212.430502 286.904218 
L 213.25449 285.780022 
L 212.704555 284.512936 
L 211.330628 284.370049 
L 210.780687 283.102962 
L 211.604678 281.978762 
L 211.054736 280.711673 
L 209.680798 280.568785 
L 209.13085 279.301695 
L 207.756906 279.15881 
L 207.206952 277.891718 
L 208.030946 276.76751 
L 207.48099 275.500416 
L 206.107036 275.357531 
L 205.557075 274.090435 
L 206.381072 272.966224 
L 205.831109 271.699126 
L 206.655109 270.574914 
L 206.105145 269.307813 
L 206.929149 268.183601 
L 206.379183 266.916497 
L 207.20319 265.792284 
L 206.653223 264.525179 
L 207.477234 263.400965 
L 206.927266 262.133857 
L 207.75128 261.009643 
L 207.20131 259.742532 
L 208.025327 258.618317 
L 207.475356 257.351204 
L 208.299376 256.226989 
L 209.673368 256.369891 
L 210.497393 255.24568 
L 209.947425 253.978562 
L 210.771452 252.85435 
L 210.221483 251.587229 
L 211.045514 250.463017 
L 210.495543 249.195894 
L 211.319577 248.071681 
L 210.769605 246.804555 
L 211.593643 245.680341 
L 211.043669 244.413213 
L 211.86771 243.288999 
L 213.241725 243.431916 
L 214.06577 242.307705 
L 213.515799 241.040573 
L 214.339847 239.916362 
L 215.713866 240.059285 
L 216.537917 238.935076 
L 215.98795 237.667941 
L 216.812005 236.543731 
L 216.262036 235.276593 
L 217.086094 234.152383 
L 218.460121 234.295315 
L 219.284183 233.171109 
L 218.734218 231.903966 
L 219.558283 230.779759 
L 219.008316 229.512614 
L 219.832384 228.388407 
L 219.282416 227.121259 
L 220.106488 225.997051 
L 219.556519 224.729901 
L 218.182473 224.58696 
L 217.632497 223.319809 
L 218.456572 222.195597 
L 217.906596 220.928443 
L 216.532539 220.785502 
L 215.982556 219.518347 
L 216.806635 218.394131 
L 216.25665 217.126973 
L 214.882584 216.984033 
L 214.332594 215.716873 
L 212.958521 215.573935 
L 212.408525 214.306775 
L 211.034446 214.163838 
L 210.484444 212.896677 
L 209.11036 212.753743 
L 208.560352 211.48658 
L 207.186262 211.343648 
L 206.636248 210.076484 
L 207.460329 208.95225 
L 206.910314 207.685083 
L 205.536213 207.542152 
L 204.986192 206.274983 
L 205.810276 205.150746 
L 205.260253 203.883575 
L 203.886142 203.740643 
L 203.336114 202.473472 
L 201.961997 202.330542 
L 201.411962 201.063369 
L 200.03784 200.920441 
L 199.213756 202.044689 
L 197.839632 201.901766 
L 197.289587 200.634593 
L 195.915458 200.491672 
L 195.091378 201.615926 
L 193.717248 201.473009 
L 193.167192 200.205836 
L 191.793056 200.062922 
L 191.242994 198.795747 
L 189.868852 198.652835 
L 189.044776 199.777099 
L 187.670633 199.634191 
L 187.120561 198.367017 
L 185.746412 198.224111 
L 185.196334 196.956935 
L 183.82218 196.814031 
L 183.272096 195.546854 
L 181.897935 195.403953 
L 181.347845 194.136775 
L 179.973679 193.993875 
L 179.423583 192.726696 
L 180.247658 191.602415 
L 179.697561 190.335233 
L 180.521639 189.210951 
L 179.97154 187.943766 
M 218.155814 133.836152 
L 217.331625 134.960397 
L 215.957383 134.817397 
L 215.133198 135.941645 
L 213.758955 135.79865 
L 212.934774 136.922901 
L 213.484835 138.190145 
L 214.859073 138.333138 
L 215.683255 137.20889 
L 217.057492 137.351887 
L 217.607543 138.619131 
L 218.981774 138.76213 
L 219.531819 140.029372 
L 218.707637 141.153613 
L 219.25768 142.420853 
L 220.631901 142.563852 
L 221.181939 143.83109 
L 220.35776 144.955327 
L 220.907796 146.222563 
L 222.282006 146.365563 
L 223.106185 145.241329 
L 222.556154 143.974092 
L 223.380336 142.849858 
L 222.830303 141.582619 
L 223.654489 140.458384 
L 223.104454 139.191142 
L 221.73023 139.048136 
L 221.18019 137.780893 
L 222.004379 136.656655 
L 221.454337 135.389409 
L 220.080102 135.246403 
L 219.530054 133.979155 
L 218.155814 133.836152 
M 219.535348 152.129734 
L 220.08538 153.396962 
L 221.459576 153.539956 
L 222.283745 152.415723 
L 221.733717 151.148494 
L 220.359516 151.005499 
L 219.535348 152.129734 
M 218.712954 159.304114 
L 219.262981 160.571334 
L 220.637163 160.714321 
L 221.187185 161.98154 
L 220.36303 163.10577 
L 220.91305 164.372986 
L 220.088898 165.497216 
L 218.714726 165.354233 
L 218.164701 164.087018 
L 216.790523 163.944038 
L 215.966374 165.068274 
L 216.516404 166.335487 
L 215.692259 167.459723 
L 216.242287 168.726934 
L 217.616456 168.86991 
L 218.166478 170.13712 
L 217.342336 171.261352 
L 217.892357 172.528559 
L 217.068219 173.65279 
L 217.618238 174.919995 
L 218.992392 175.062969 
L 219.81653 173.938741 
L 221.190683 174.08172 
L 222.014825 172.957495 
L 221.464814 171.690288 
L 220.090657 171.547307 
L 219.540641 170.280099 
L 220.364786 169.15587 
L 221.738948 169.298853 
L 222.563097 168.174627 
L 222.013084 166.907414 
L 222.837236 165.783188 
L 222.287221 164.515973 
L 223.111377 163.391746 
L 222.561361 162.124529 
L 223.38552 161.000302 
L 222.835503 159.733082 
L 221.461322 159.59009 
L 220.911299 158.322869 
L 219.537112 158.17988 
L 218.712954 159.304114 
M 194.227227 81.734913 
L 194.777382 83.002213 
L 196.151766 83.145214 
L 196.975999 82.020918 
L 196.425849 80.753617 
L 195.051461 80.610613 
L 194.227227 81.734913 
M 203.033253 114.112305 
L 203.583358 115.379571 
L 202.759161 116.503845 
L 203.309265 117.771109 
L 202.485071 118.895383 
L 203.035173 120.162644 
L 204.409465 120.305632 
L 204.959562 121.572892 
L 204.135371 122.697162 
L 204.685466 123.964419 
L 206.059748 124.107408 
L 206.609837 125.374664 
L 205.785649 126.49893 
L 206.335737 127.766183 
L 205.511553 128.890449 
L 204.137281 128.747464 
L 203.313101 129.871733 
L 203.863192 131.138982 
L 203.039015 132.26325 
L 203.589104 133.530497 
L 204.963367 133.673477 
L 205.51345 134.940723 
L 204.689276 136.064987 
L 203.315019 135.922009 
L 202.490848 137.046276 
L 203.040935 138.313518 
L 204.415188 138.456494 
L 204.965269 139.723734 
L 206.339516 139.866713 
L 207.163687 138.742452 
L 208.537933 138.885435 
L 209.362107 137.761178 
L 210.736352 137.904164 
L 211.56053 136.77991 
L 211.010463 135.512666 
L 211.834644 134.388411 
L 213.208893 134.531404 
L 214.033078 133.407153 
L 213.483014 132.139904 
L 212.10876 131.996909 
L 211.55869 130.729659 
L 210.184431 130.586666 
L 209.634355 129.319415 
L 210.458543 128.195156 
L 211.832807 128.338152 
L 212.656998 127.213896 
L 212.106925 125.946641 
L 210.732657 125.803643 
L 210.182578 124.536387 
L 211.006772 123.412127 
L 210.456692 122.144869 
L 211.28089 121.020608 
L 210.730809 119.753347 
L 209.356525 119.610348 
L 208.806437 118.343085 
L 209.630639 117.218821 
L 209.08055 115.951556 
L 207.706255 115.808556 
L 207.15616 114.54129 
L 205.78186 114.398293 
L 205.231759 113.131025 
L 203.857453 112.98803 
L 203.307347 111.720761 
L 201.933035 111.577768 
L 201.108834 112.702046 
L 201.658946 113.969314 
L 203.033253 114.112305 
M 192.308744 98.476044 
L 193.132954 97.351747 
L 192.582807 96.084463 
L 191.208446 95.941477 
L 190.384237 97.065777 
L 190.934388 98.33306 
L 192.308744 98.476044 
M 187.643776 120.981465 
L 186.269461 120.838504 
L 185.445289 121.962803 
L 185.995431 123.230058 
L 187.369741 123.373017 
L 188.193913 122.248722 
L 187.643776 120.981465 
M 209.919598 163.229167 
L 210.469644 164.496381 
L 211.84383 164.639351 
L 212.39387 165.906565 
L 213.768051 166.049537 
L 214.592195 164.925297 
L 214.04216 163.658083 
L 212.667975 163.515109 
L 212.117933 162.247892 
L 212.942081 161.123649 
L 212.392038 159.856431 
L 211.017843 159.713457 
L 210.193695 160.837703 
L 208.819499 160.694733 
L 207.995354 161.818983 
L 208.545407 163.086199 
L 209.919598 163.229167 
M 217.064643 161.552585 
L 216.514611 160.285366 
L 215.140422 160.142386 
L 214.316271 161.266626 
L 214.866308 162.533843 
L 216.240492 162.676822 
L 217.064643 161.552585 
M 213.210717 140.581636 
L 212.660657 139.314395 
L 211.286418 139.171406 
L 210.462243 140.29566 
L 211.012308 141.562899 
L 210.188137 142.687153 
L 210.7382 143.954389 
L 212.11243 144.097374 
L 212.936601 142.973124 
L 212.386542 141.705886 
L 213.210717 140.581636 
M 222.840702 177.883329 
L 223.664841 176.759108 
L 223.114838 175.491905 
L 221.740691 175.348924 
L 220.916553 176.473149 
L 221.46656 177.740351 
L 222.840702 177.883329 
M 225.314835 180.56071 
L 224.76484 179.293511 
L 223.390704 179.15053 
L 222.566568 180.274751 
L 223.116568 181.541949 
L 224.4907 181.684927 
L 225.314835 180.56071 
M 226.132166 155.236175 
L 225.58215 153.968949 
L 224.207961 153.825949 
L 223.383792 154.950178 
L 223.933812 156.217403 
L 225.307996 156.360401 
L 226.132166 155.236175 
M 226.166199 276.233941 
L 226.716108 277.501037 
L 225.892096 278.625216 
L 226.442004 279.892309 
L 227.815919 280.035225 
L 228.639931 278.911049 
L 228.090028 277.643955 
L 228.914044 276.519779 
L 228.36414 275.252682 
L 226.990215 275.109762 
L 226.440305 273.842664 
L 225.066374 273.699746 
L 224.242359 274.823929 
L 224.792274 276.091026 
L 226.166199 276.233941 
M 231.349753 140.049224 
L 232.17395 138.925002 
L 231.623935 137.657758 
L 230.24972 137.514736 
L 229.425523 138.638962 
L 229.975543 139.906205 
L 231.349753 140.049224 
M 232.45142 148.633856 
L 233.275606 147.509638 
L 232.725602 146.242403 
L 231.351406 146.099386 
L 230.52722 147.223607 
L 231.077229 148.490841 
L 232.45142 148.633856 
M 231.628885 155.808196 
L 232.453062 154.68398 
L 231.903061 153.416753 
L 230.52888 153.273742 
L 229.704704 154.397961 
L 230.254709 155.665188 
L 231.628885 155.808196 
M 233.554687 163.26852 
L 233.004697 162.001301 
L 231.630535 161.858295 
L 230.806369 162.98251 
L 231.356364 164.249727 
L 232.73052 164.392731 
L 233.554687 163.26852 
M 247.30515 200.998475 
L 248.129284 199.8743 
L 247.579361 198.607118 
L 246.205299 198.464113 
L 245.381165 199.588292 
L 245.931093 200.855472 
L 247.30515 200.998475 
" clip-path="url(#p7753693e6e)" style="fill: #40e0d0"/>
    <path d="M 167.597058 168.507146 
L 168.421152 167.382837 
L 169.795392 167.525736 
L 170.619489 166.401431 
L 170.069346 165.134223 
L 170.893447 164.009918 
L 172.267691 164.152823 
L 173.091795 163.02852 
L 172.541656 161.761309 
L 173.365764 160.637006 
L 174.740011 160.779917 
L 175.290146 162.04713 
L 174.466038 163.17143 
L 175.016171 164.438641 
L 174.192067 165.56294 
L 174.742199 166.830148 
L 173.918098 167.954447 
L 174.468229 169.221652 
L 173.644131 170.34595 
L 174.19426 171.613153 
L 173.370166 172.737451 
L 171.995942 172.594549 
L 171.445808 171.327348 
L 170.071579 171.184449 
L 169.521439 169.917246 
L 168.147204 169.774349 
L 167.597058 168.507146 
" clip-path="url(#p7753693e6e)" style="fill: #40e0d0"/>
   </g>
   <g id="matplotlib.axis_1">
    <g id="xtick_1">
     <g id="line2d_1">
      <defs>
       <path id="m39286877b7" d="M 0 0 
L 0 3.5 
" style="stroke: #000000; stroke-width: 0.8"/>
      </defs>
      <g>
       <use xlink:href="#m39286877b7" x="173.401155" y="307.584" style="stroke: #000000; stroke-width: 0.8"/>
      </g>
     </g>
     <g id="text_1">
      <!-- 100.42 -->
      <g transform="translate(151.715999 322.182437) scale(0.1 -0.1)">
       <defs>
        <path id="DejaVuSans-2212" d="M 678 2272 
L 4684 2272 
L 4684 1741 
L 678 1741 
L 678 2272 
z
" transform="scale(0.015625)"/>
        <path id="DejaVuSans-31" d="M 794 531 
L 1825 531 
L 1825 4091 
L 703 3866 
L 703 4441 
L 1819 4666 
L 2450 4666 
L 2450 531 
L 3481 531 
L 3481 0 
L 794 0 
L 794 531 
z
" transform="scale(0.015625)"/>
        <path id="DejaVuSans-30" d="M 2034 4250 
Q 1547 4250 1301 3770 
Q 1056 3291 1056 2328 
Q 1056 1369 1301 889 
Q 1547 409 2034 409 
Q 2525 409 2770 889 
Q 3016 1369 3016 2328 
Q 3016 3291 2770 3770 
Q 2525 4250 2034 4250 
z
M 2034 4750 
Q 2819 4750 3233 4129 
Q 3647 3509 3647 2328 
Q 3647 1150 3233 529 
Q 2819 -91 2034 -91 
Q 1250 -91 836 529 
Q 422 1150 422 2328 
Q 422 3509 836 4129 
Q 1250 4750 2034 4750 
z
" transform="scale(0.015625)"/>
        <path id="DejaVuSans-2e" d="M 684 794 
L 1344 794 
L 1344 0 
L 684 0 
L 684 794 
z
" transform="scale(0.015625)"/>
        <path id="DejaVuSans-34" d="M 2419 4116 
L 825 1625 
L 2419 1625 
L 2419 4116 
z
M 2253 4666 
L 3047 4666 
L 3047 1625 
L 3713 1625 
L 3713 1100 
L 3047 1100 
L 3047 0 
L 2419 0 
L 2419 1100 
L 313 1100 
L 313 1709 
L 2253 4666 
z
" transform="scale(0.015625)"/>
        <path id="DejaVuSans-32" d="M 1228 531 
L 3431 531 
L 3431 0 
L 469 0 
L 469 531 
Q 828 903 1448 1529 
Q 2069 2156 2228 2338 
Q 2531 2678 2651 2914 
Q 2772 3150 2772 3378 
Q 2772 3750 2511 3984 
Q 2250 4219 1831 4219 
Q 1534 4219 1204 4116 
Q 875 4013 500 3803 
L 500 4441 
Q 881 4594 1212 4672 
Q 1544 4750 1819 4750 
Q 2544 4750 2975 4387 
Q 3406 4025 3406 3419 
Q 3406 3131 3298 2873 
Q 3191 2616 2906 2266 
Q 2828 2175 2409 1742 
Q 1991 1309 1228 531 
z
" transform="scale(0.015625)"/>
       </defs>
       <use xlink:href="#DejaVuSans-2212"/>
       <use xlink:href="#DejaVuSans-31" x="83.789062"/>
       <use xlink:href="#DejaVuSans-30" x="147.412109"/>
       <use xlink:href="#DejaVuSans-30" x="211.035156"/>
       <use xlink:href="#DejaVuSans-2e" x="274.658203"/>
       <use xlink:href="#DejaVuSans-34" x="306.445312"/>
       <use xlink:href="#DejaVuSans-32" x="370.068359"/>
      </g>
     </g>
    </g>
    <g id="xtick_2">
     <g id="line2d_2">
      <g>
       <use xlink:href="#m39286877b7" x="220.235051" y="307.584" style="stroke: #000000; stroke-width: 0.8"/>
      </g>
     </g>
     <g id="text_2">
      <!-- 100.41 -->
      <g transform="translate(198.549894 322.182437) scale(0.1 -0.1)">
       <use xlink:href="#DejaVuSans-2212"/>
       <use xlink:href="#DejaVuSans-31" x="83.789062"/>
       <use xlink:href="#DejaVuSans-30" x="147.412109"/>
       <use xlink:href="#DejaVuSans-30" x="211.035156"/>
       <use xlink:href="#DejaVuSans-2e" x="274.658203"/>
       <use xlink:href="#DejaVuSans-34" x="306.445312"/>
       <use xlink:href="#DejaVuSans-31" x="370.068359"/>
      </g>
     </g>
    </g>
    <g id="xtick_3">
     <g id="line2d_3">
      <g>
       <use xlink:href="#m39286877b7" x="267.068946" y="307.584" style="stroke: #000000; stroke-width: 0.8"/>
      </g>
     </g>
     <g id="text_3">
      <!-- 100.40 -->
      <g transform="translate(245.38379 322.182437) scale(0.1 -0.1)">
       <use xlink:href="#DejaVuSans-2212"/>
       <use xlink:href="#DejaVuSans-31" x="83.789062"/>
       <use xlink:href="#DejaVuSans-30" x="147.412109"/>
       <use xlink:href="#DejaVuSans-30" x="211.035156"/>
       <use xlink:href="#DejaVuSans-2e" x="274.658203"/>
       <use xlink:href="#DejaVuSans-34" x="306.445312"/>
       <use xlink:href="#DejaVuSans-30" x="370.068359"/>
      </g>
     </g>
    </g>
    <g id="xtick_4">
     <g id="line2d_4">
      <g>
       <use xlink:href="#m39286877b7" x="313.902842" y="307.584" style="stroke: #000000; stroke-width: 0.8"/>
      </g>
     </g>
     <g id="text_4">
      <!-- 100.39 -->
      <g transform="translate(292.217685 322.182437) scale(0.1 -0.1)">
       <defs>
        <path id="DejaVuSans-33" d="M 2597 2516 
Q 3050 2419 3304 2112 
Q 3559 1806 3559 1356 
Q 3559 666 3084 287 
Q 2609 -91 1734 -91 
Q 1441 -91 1130 -33 
Q 819 25 488 141 
L 488 750 
Q 750 597 1062 519 
Q 1375 441 1716 441 
Q 2309 441 2620 675 
Q 2931 909 2931 1356 
Q 2931 1769 2642 2001 
Q 2353 2234 1838 2234 
L 1294 2234 
L 1294 2753 
L 1863 2753 
Q 2328 2753 2575 2939 
Q 2822 3125 2822 3475 
Q 2822 3834 2567 4026 
Q 2313 4219 1838 4219 
Q 1578 4219 1281 4162 
Q 984 4106 628 3988 
L 628 4550 
Q 988 4650 1302 4700 
Q 1616 4750 1894 4750 
Q 2613 4750 3031 4423 
Q 3450 4097 3450 3541 
Q 3450 3153 3228 2886 
Q 3006 2619 2597 2516 
z
" transform="scale(0.015625)"/>
        <path id="DejaVuSans-39" d="M 703 97 
L 703 672 
Q 941 559 1184 500 
Q 1428 441 1663 441 
Q 2288 441 2617 861 
Q 2947 1281 2994 2138 
Q 2813 1869 2534 1725 
Q 2256 1581 1919 1581 
Q 1219 1581 811 2004 
Q 403 2428 403 3163 
Q 403 3881 828 4315 
Q 1253 4750 1959 4750 
Q 2769 4750 3195 4129 
Q 3622 3509 3622 2328 
Q 3622 1225 3098 567 
Q 2575 -91 1691 -91 
Q 1453 -91 1209 -44 
Q 966 3 703 97 
z
M 1959 2075 
Q 2384 2075 2632 2365 
Q 2881 2656 2881 3163 
Q 2881 3666 2632 3958 
Q 2384 4250 1959 4250 
Q 1534 4250 1286 3958 
Q 1038 3666 1038 3163 
Q 1038 2656 1286 2365 
Q 1534 2075 1959 2075 
z
" transform="scale(0.015625)"/>
       </defs>
       <use xlink:href="#DejaVuSans-2212"/>
       <use xlink:href="#DejaVuSans-31" x="83.789062"/>
       <use xlink:href="#DejaVuSans-30" x="147.412109"/>
       <use xlink:href="#DejaVuSans-30" x="211.035156"/>
       <use xlink:href="#DejaVuSans-2e" x="274.658203"/>
       <use xlink:href="#DejaVuSans-33" x="306.445312"/>
       <use xlink:href="#DejaVuSans-39" x="370.068359"/>
      </g>
     </g>
    </g>
   </g>
   <g id="matplotlib.axis_2">
    <g id="ytick_1">
     <g id="line2d_5">
      <defs>
       <path id="m3c034efe85" d="M 0 0 
L -3.5 0 
" style="stroke: #000000; stroke-width: 0.8"/>
      </defs>
      <g>
       <use xlink:href="#m3c034efe85" x="158.322599" y="259.531097" style="stroke: #000000; stroke-width: 0.8"/>
      </g>
     </g>
     <g id="text_5">
      <!-- 19.37 -->
      <g transform="translate(122.694474 263.330316) scale(0.1 -0.1)">
       <defs>
        <path id="DejaVuSans-37" d="M 525 4666 
L 3525 4666 
L 3525 4397 
L 1831 0 
L 1172 0 
L 2766 4134 
L 525 4134 
L 525 4666 
z
" transform="scale(0.015625)"/>
       </defs>
       <use xlink:href="#DejaVuSans-31"/>
       <use xlink:href="#DejaVuSans-39" x="63.623047"/>
       <use xlink:href="#DejaVuSans-2e" x="127.246094"/>
       <use xlink:href="#DejaVuSans-33" x="159.033203"/>
       <use xlink:href="#DejaVuSans-37" x="222.65625"/>
      </g>
     </g>
    </g>
    <g id="ytick_2">
     <g id="line2d_6">
      <g>
       <use xlink:href="#m3c034efe85" x="158.322599" y="209.881962" style="stroke: #000000; stroke-width: 0.8"/>
      </g>
     </g>
     <g id="text_6">
      <!-- 19.38 -->
      <g transform="translate(122.694474 213.681181) scale(0.1 -0.1)">
       <defs>
        <path id="DejaVuSans-38" d="M 2034 2216 
Q 1584 2216 1326 1975 
Q 1069 1734 1069 1313 
Q 1069 891 1326 650 
Q 1584 409 2034 409 
Q 2484 409 2743 651 
Q 3003 894 3003 1313 
Q 3003 1734 2745 1975 
Q 2488 2216 2034 2216 
z
M 1403 2484 
Q 997 2584 770 2862 
Q 544 3141 544 3541 
Q 544 4100 942 4425 
Q 1341 4750 2034 4750 
Q 2731 4750 3128 4425 
Q 3525 4100 3525 3541 
Q 3525 3141 3298 2862 
Q 3072 2584 2669 2484 
Q 3125 2378 3379 2068 
Q 3634 1759 3634 1313 
Q 3634 634 3220 271 
Q 2806 -91 2034 -91 
Q 1263 -91 848 271 
Q 434 634 434 1313 
Q 434 1759 690 2068 
Q 947 2378 1403 2484 
z
M 1172 3481 
Q 1172 3119 1398 2916 
Q 1625 2713 2034 2713 
Q 2441 2713 2670 2916 
Q 2900 3119 2900 3481 
Q 2900 3844 2670 4047 
Q 2441 4250 2034 4250 
Q 1625 4250 1398 4047 
Q 1172 3844 1172 3481 
z
" transform="scale(0.015625)"/>
       </defs>
       <use xlink:href="#DejaVuSans-31"/>
       <use xlink:href="#DejaVuSans-39" x="63.623047"/>
       <use xlink:href="#DejaVuSans-2e" x="127.246094"/>
       <use xlink:href="#DejaVuSans-33" x="159.033203"/>
       <use xlink:href="#DejaVuSans-38" x="222.65625"/>
      </g>
     </g>
    </g>
    <g id="ytick_3">
     <g id="line2d_7">
      <g>
       <use xlink:href="#m3c034efe85" x="158.322599" y="160.232826" style="stroke: #000000; stroke-width: 0.8"/>
      </g>
     </g>
     <g id="text_7">
      <!-- 19.39 -->
      <g transform="translate(122.694474 164.032045) scale(0.1 -0.1)">
       <use xlink:href="#DejaVuSans-31"/>
       <use xlink:href="#DejaVuSans-39" x="63.623047"/>
       <use xlink:href="#DejaVuSans-2e" x="127.246094"/>
       <use xlink:href="#DejaVuSans-33" x="159.033203"/>
       <use xlink:href="#DejaVuSans-39" x="222.65625"/>
      </g>
     </g>
    </g>
    <g id="ytick_4">
     <g id="line2d_8">
      <g>
       <use xlink:href="#m3c034efe85" x="158.322599" y="110.583691" style="stroke: #000000; stroke-width: 0.8"/>
      </g>
     </g>
     <g id="text_8">
      <!-- 19.40 -->
      <g transform="translate(122.694474 114.38291) scale(0.1 -0.1)">
       <use xlink:href="#DejaVuSans-31"/>
       <use xlink:href="#DejaVuSans-39" x="63.623047"/>
       <use xlink:href="#DejaVuSans-2e" x="127.246094"/>
       <use xlink:href="#DejaVuSans-34" x="159.033203"/>
       <use xlink:href="#DejaVuSans-30" x="222.65625"/>
      </g>
     </g>
    </g>
    <g id="ytick_5">
     <g id="line2d_9">
      <g>
       <use xlink:href="#m3c034efe85" x="158.322599" y="60.934555" style="stroke: #000000; stroke-width: 0.8"/>
      </g>
     </g>
     <g id="text_9">
      <!-- 19.41 -->
      <g transform="translate(122.694474 64.733774) scale(0.1 -0.1)">
       <use xlink:href="#DejaVuSans-31"/>
       <use xlink:href="#DejaVuSans-39" x="63.623047"/>
       <use xlink:href="#DejaVuSans-2e" x="127.246094"/>
       <use xlink:href="#DejaVuSans-34" x="159.033203"/>
       <use xlink:href="#DejaVuSans-31" x="222.65625"/>
      </g>
     </g>
    </g>
   </g>
   <g id="patch_3">
    <path d="M 158.322599 307.584 
L 158.322599 41.472 
" style="fill: none; stroke: #000000; stroke-width: 0.8; stroke-linejoin: miter; stroke-linecap: square"/>
   </g>
   <g id="patch_4">
    <path d="M 313.997401 307.584 
L 313.997401 41.472 
" style="fill: none; stroke: #000000; stroke-width: 0.8; stroke-linejoin: miter; stroke-linecap: square"/>
   </g>
   <g id="patch_5">
    <path d="M 158.322599 307.584 
L 313.997401 307.584 
" style="fill: none; stroke: #000000; stroke-width: 0.8; stroke-linejoin: miter; stroke-linecap: square"/>
   </g>
   <g id="patch_6">
    <path d="M 158.322599 41.472 
L 313.997401 41.472 
" style="fill: none; stroke: #000000; stroke-width: 0.8; stroke-linejoin: miter; stroke-linecap: square"/>
   </g>
   <g id="text_10">
    <!-- presa_elbosque_hehaviour in 2023-06 -->
    <g transform="translate(121.771875 35.472) scale(0.12 -0.12)">
     <defs>
      <path id="DejaVuSans-70" d="M 1159 525 
L 1159 -1331 
L 581 -1331 
L 581 3500 
L 1159 3500 
L 1159 2969 
Q 1341 3281 1617 3432 
Q 1894 3584 2278 3584 
Q 2916 3584 3314 3078 
Q 3713 2572 3713 1747 
Q 3713 922 3314 415 
Q 2916 -91 2278 -91 
Q 1894 -91 1617 61 
Q 1341 213 1159 525 
z
M 3116 1747 
Q 3116 2381 2855 2742 
Q 2594 3103 2138 3103 
Q 1681 3103 1420 2742 
Q 1159 2381 1159 1747 
Q 1159 1113 1420 752 
Q 1681 391 2138 391 
Q 2594 391 2855 752 
Q 3116 1113 3116 1747 
z
" transform="scale(0.015625)"/>
      <path id="DejaVuSans-72" d="M 2631 2963 
Q 2534 3019 2420 3045 
Q 2306 3072 2169 3072 
Q 1681 3072 1420 2755 
Q 1159 2438 1159 1844 
L 1159 0 
L 581 0 
L 581 3500 
L 1159 3500 
L 1159 2956 
Q 1341 3275 1631 3429 
Q 1922 3584 2338 3584 
Q 2397 3584 2469 3576 
Q 2541 3569 2628 3553 
L 2631 2963 
z
" transform="scale(0.015625)"/>
      <path id="DejaVuSans-65" d="M 3597 1894 
L 3597 1613 
L 953 1613 
Q 991 1019 1311 708 
Q 1631 397 2203 397 
Q 2534 397 2845 478 
Q 3156 559 3463 722 
L 3463 178 
Q 3153 47 2828 -22 
Q 2503 -91 2169 -91 
Q 1331 -91 842 396 
Q 353 884 353 1716 
Q 353 2575 817 3079 
Q 1281 3584 2069 3584 
Q 2775 3584 3186 3129 
Q 3597 2675 3597 1894 
z
M 3022 2063 
Q 3016 2534 2758 2815 
Q 2500 3097 2075 3097 
Q 1594 3097 1305 2825 
Q 1016 2553 972 2059 
L 3022 2063 
z
" transform="scale(0.015625)"/>
      <path id="DejaVuSans-73" d="M 2834 3397 
L 2834 2853 
Q 2591 2978 2328 3040 
Q 2066 3103 1784 3103 
Q 1356 3103 1142 2972 
Q 928 2841 928 2578 
Q 928 2378 1081 2264 
Q 1234 2150 1697 2047 
L 1894 2003 
Q 2506 1872 2764 1633 
Q 3022 1394 3022 966 
Q 3022 478 2636 193 
Q 2250 -91 1575 -91 
Q 1294 -91 989 -36 
Q 684 19 347 128 
L 347 722 
Q 666 556 975 473 
Q 1284 391 1588 391 
Q 1994 391 2212 530 
Q 2431 669 2431 922 
Q 2431 1156 2273 1281 
Q 2116 1406 1581 1522 
L 1381 1569 
Q 847 1681 609 1914 
Q 372 2147 372 2553 
Q 372 3047 722 3315 
Q 1072 3584 1716 3584 
Q 2034 3584 2315 3537 
Q 2597 3491 2834 3397 
z
" transform="scale(0.015625)"/>
      <path id="DejaVuSans-61" d="M 2194 1759 
Q 1497 1759 1228 1600 
Q 959 1441 959 1056 
Q 959 750 1161 570 
Q 1363 391 1709 391 
Q 2188 391 2477 730 
Q 2766 1069 2766 1631 
L 2766 1759 
L 2194 1759 
z
M 3341 1997 
L 3341 0 
L 2766 0 
L 2766 531 
Q 2569 213 2275 61 
Q 1981 -91 1556 -91 
Q 1019 -91 701 211 
Q 384 513 384 1019 
Q 384 1609 779 1909 
Q 1175 2209 1959 2209 
L 2766 2209 
L 2766 2266 
Q 2766 2663 2505 2880 
Q 2244 3097 1772 3097 
Q 1472 3097 1187 3025 
Q 903 2953 641 2809 
L 641 3341 
Q 956 3463 1253 3523 
Q 1550 3584 1831 3584 
Q 2591 3584 2966 3190 
Q 3341 2797 3341 1997 
z
" transform="scale(0.015625)"/>
      <path id="DejaVuSans-5f" d="M 3263 -1063 
L 3263 -1509 
L -63 -1509 
L -63 -1063 
L 3263 -1063 
z
" transform="scale(0.015625)"/>
      <path id="DejaVuSans-6c" d="M 603 4863 
L 1178 4863 
L 1178 0 
L 603 0 
L 603 4863 
z
" transform="scale(0.015625)"/>
      <path id="DejaVuSans-62" d="M 3116 1747 
Q 3116 2381 2855 2742 
Q 2594 3103 2138 3103 
Q 1681 3103 1420 2742 
Q 1159 2381 1159 1747 
Q 1159 1113 1420 752 
Q 1681 391 2138 391 
Q 2594 391 2855 752 
Q 3116 1113 3116 1747 
z
M 1159 2969 
Q 1341 3281 1617 3432 
Q 1894 3584 2278 3584 
Q 2916 3584 3314 3078 
Q 3713 2572 3713 1747 
Q 3713 922 3314 415 
Q 2916 -91 2278 -91 
Q 1894 -91 1617 61 
Q 1341 213 1159 525 
L 1159 0 
L 581 0 
L 581 4863 
L 1159 4863 
L 1159 2969 
z
" transform="scale(0.015625)"/>
      <path id="DejaVuSans-6f" d="M 1959 3097 
Q 1497 3097 1228 2736 
Q 959 2375 959 1747 
Q 959 1119 1226 758 
Q 1494 397 1959 397 
Q 2419 397 2687 759 
Q 2956 1122 2956 1747 
Q 2956 2369 2687 2733 
Q 2419 3097 1959 3097 
z
M 1959 3584 
Q 2709 3584 3137 3096 
Q 3566 2609 3566 1747 
Q 3566 888 3137 398 
Q 2709 -91 1959 -91 
Q 1206 -91 779 398 
Q 353 888 353 1747 
Q 353 2609 779 3096 
Q 1206 3584 1959 3584 
z
" transform="scale(0.015625)"/>
      <path id="DejaVuSans-71" d="M 947 1747 
Q 947 1113 1208 752 
Q 1469 391 1925 391 
Q 2381 391 2643 752 
Q 2906 1113 2906 1747 
Q 2906 2381 2643 2742 
Q 2381 3103 1925 3103 
Q 1469 3103 1208 2742 
Q 947 2381 947 1747 
z
M 2906 525 
Q 2725 213 2448 61 
Q 2172 -91 1784 -91 
Q 1150 -91 751 415 
Q 353 922 353 1747 
Q 353 2572 751 3078 
Q 1150 3584 1784 3584 
Q 2172 3584 2448 3432 
Q 2725 3281 2906 2969 
L 2906 3500 
L 3481 3500 
L 3481 -1331 
L 2906 -1331 
L 2906 525 
z
" transform="scale(0.015625)"/>
      <path id="DejaVuSans-75" d="M 544 1381 
L 544 3500 
L 1119 3500 
L 1119 1403 
Q 1119 906 1312 657 
Q 1506 409 1894 409 
Q 2359 409 2629 706 
Q 2900 1003 2900 1516 
L 2900 3500 
L 3475 3500 
L 3475 0 
L 2900 0 
L 2900 538 
Q 2691 219 2414 64 
Q 2138 -91 1772 -91 
Q 1169 -91 856 284 
Q 544 659 544 1381 
z
M 1991 3584 
L 1991 3584 
z
" transform="scale(0.015625)"/>
      <path id="DejaVuSans-68" d="M 3513 2113 
L 3513 0 
L 2938 0 
L 2938 2094 
Q 2938 2591 2744 2837 
Q 2550 3084 2163 3084 
Q 1697 3084 1428 2787 
Q 1159 2491 1159 1978 
L 1159 0 
L 581 0 
L 581 4863 
L 1159 4863 
L 1159 2956 
Q 1366 3272 1645 3428 
Q 1925 3584 2291 3584 
Q 2894 3584 3203 3211 
Q 3513 2838 3513 2113 
z
" transform="scale(0.015625)"/>
      <path id="DejaVuSans-76" d="M 191 3500 
L 800 3500 
L 1894 563 
L 2988 3500 
L 3597 3500 
L 2284 0 
L 1503 0 
L 191 3500 
z
" transform="scale(0.015625)"/>
      <path id="DejaVuSans-69" d="M 603 3500 
L 1178 3500 
L 1178 0 
L 603 0 
L 603 3500 
z
M 603 4863 
L 1178 4863 
L 1178 4134 
L 603 4134 
L 603 4863 
z
" transform="scale(0.015625)"/>
      <path id="DejaVuSans-20" transform="scale(0.015625)"/>
      <path id="DejaVuSans-6e" d="M 3513 2113 
L 3513 0 
L 2938 0 
L 2938 2094 
Q 2938 2591 2744 2837 
Q 2550 3084 2163 3084 
Q 1697 3084 1428 2787 
Q 1159 2491 1159 1978 
L 1159 0 
L 581 0 
L 581 3500 
L 1159 3500 
L 1159 2956 
Q 1366 3272 1645 3428 
Q 1925 3584 2291 3584 
Q 2894 3584 3203 3211 
Q 3513 2838 3513 2113 
z
" transform="scale(0.015625)"/>
      <path id="DejaVuSans-2d" d="M 313 2009 
L 1997 2009 
L 1997 1497 
L 313 1497 
L 313 2009 
z
" transform="scale(0.015625)"/>
      <path id="DejaVuSans-36" d="M 2113 2584 
Q 1688 2584 1439 2293 
Q 1191 2003 1191 1497 
Q 1191 994 1439 701 
Q 1688 409 2113 409 
Q 2538 409 2786 701 
Q 3034 994 3034 1497 
Q 3034 2003 2786 2293 
Q 2538 2584 2113 2584 
z
M 3366 4563 
L 3366 3988 
Q 3128 4100 2886 4159 
Q 2644 4219 2406 4219 
Q 1781 4219 1451 3797 
Q 1122 3375 1075 2522 
Q 1259 2794 1537 2939 
Q 1816 3084 2150 3084 
Q 2853 3084 3261 2657 
Q 3669 2231 3669 1497 
Q 3669 778 3244 343 
Q 2819 -91 2113 -91 
Q 1303 -91 875 529 
Q 447 1150 447 2328 
Q 447 3434 972 4092 
Q 1497 4750 2381 4750 
Q 2619 4750 2861 4703 
Q 3103 4656 3366 4563 
z
" transform="scale(0.015625)"/>
     </defs>
     <use xlink:href="#DejaVuSans-70"/>
     <use xlink:href="#DejaVuSans-72" x="63.476562"/>
     <use xlink:href="#DejaVuSans-65" x="102.339844"/>
     <use xlink:href="#DejaVuSans-73" x="163.863281"/>
     <use xlink:href="#DejaVuSans-61" x="215.962891"/>
     <use xlink:href="#DejaVuSans-5f" x="277.242188"/>
     <use xlink:href="#DejaVuSans-65" x="327.242188"/>
     <use xlink:href="#DejaVuSans-6c" x="388.765625"/>
     <use xlink:href="#DejaVuSans-62" x="416.548828"/>
     <use xlink:href="#DejaVuSans-6f" x="480.025391"/>
     <use xlink:href="#DejaVuSans-73" x="541.207031"/>
     <use xlink:href="#DejaVuSans-71" x="593.306641"/>
     <use xlink:href="#DejaVuSans-75" x="656.783203"/>
     <use xlink:href="#DejaVuSans-65" x="720.162109"/>
     <use xlink:href="#DejaVuSans-5f" x="781.685547"/>
     <use xlink:href="#DejaVuSans-68" x="831.685547"/>
     <use xlink:href="#DejaVuSans-65" x="895.064453"/>
     <use xlink:href="#DejaVuSans-68" x="956.587891"/>
     <use xlink:href="#DejaVuSans-61" x="1019.966797"/>
     <use xlink:href="#DejaVuSans-76" x="1081.246094"/>
     <use xlink:href="#DejaVuSans-69" x="1140.425781"/>
     <use xlink:href="#DejaVuSans-6f" x="1168.208984"/>
     <use xlink:href="#DejaVuSans-75" x="1229.390625"/>
     <use xlink:href="#DejaVuSans-72" x="1292.769531"/>
     <use xlink:href="#DejaVuSans-20" x="1333.882812"/>
     <use xlink:href="#DejaVuSans-69" x="1365.669922"/>
     <use xlink:href="#DejaVuSans-6e" x="1393.453125"/>
     <use xlink:href="#DejaVuSans-20" x="1456.832031"/>
     <use xlink:href="#DejaVuSans-32" x="1488.619141"/>
     <use xlink:href="#DejaVuSans-30" x="1552.242188"/>
     <use xlink:href="#DejaVuSans-32" x="1615.865234"/>
     <use xlink:href="#DejaVuSans-33" x="1679.488281"/>
     <use xlink:href="#DejaVuSans-2d" x="1743.111328"/>
     <use xlink:href="#DejaVuSans-30" x="1779.195312"/>
     <use xlink:href="#DejaVuSans-36" x="1842.818359"/>
    </g>
   </g>
  </g>
 </g>
 <defs>
  <clipPath id="p7753693e6e">
   <rect x="158.322599" y="41.472" width="155.674802" height="266.112"/>
  </clipPath>
 </defs>
</svg>
