<?xml version="1.0" encoding="utf-8" standalone="no"?>
<!DOCTYPE svg PUBLIC "-//W3C//DTD SVG 1.1//EN"
  "http://www.w3.org/Graphics/SVG/1.1/DTD/svg11.dtd">
<svg xmlns:xlink="http://www.w3.org/1999/xlink" width="460.8pt" height="345.6pt" viewBox="0 0 460.8 345.6" xmlns="http://www.w3.org/2000/svg" version="1.1">
 <metadata>
  <rdf:RDF xmlns:dc="http://purl.org/dc/elements/1.1/" xmlns:cc="http://creativecommons.org/ns#" xmlns:rdf="http://www.w3.org/1999/02/22-rdf-syntax-ns#">
   <cc:Work>
    <dc:type rdf:resource="http://purl.org/dc/dcmitype/StillImage"/>
    <dc:date>2024-03-22T17:57:26.312571</dc:date>
    <dc:format>image/svg+xml</dc:format>
    <dc:creator>
     <cc:Agent>
      <dc:title>Matplotlib v3.8.0, https://matplotlib.org/</dc:title>
     </cc:Agent>
    </dc:creator>
   </cc:Work>
  </rdf:RDF>
 </metadata>
 <defs>
  <style type="text/css">*{stroke-linejoin: round; stroke-linecap: butt}</style>
 </defs>
 <g id="figure_1">
  <g id="patch_1">
   <path d="M 0 345.6 
L 460.8 345.6 
L 460.8 0 
L 0 0 
z
" style="fill: #ffffff"/>
  </g>
  <g id="axes_1">
   <g id="patch_2">
    <path d="M 158.322599 307.584 
L 313.997401 307.584 
L 313.997401 41.472 
L 158.322599 41.472 
z
" style="fill: #ffffff"/>
   </g>
   <g id="PatchCollection_1">
    <path d="M 167.873258 172.165858 
L 169.247488 172.308753 
L 169.797627 173.575953 
L 171.171851 173.71885 
L 171.995942 172.594549 
L 173.370166 172.737451 
L 173.920294 174.004651 
L 175.294512 174.147554 
L 175.844634 175.414753 
L 177.218846 175.557659 
L 177.768962 176.824856 
L 179.143168 176.967764 
L 179.693278 178.23496 
L 181.067479 178.37787 
L 181.617583 179.645065 
L 180.793491 180.769349 
L 181.343594 182.036541 
L 180.519506 183.160824 
L 179.145315 183.017919 
L 178.32123 184.142205 
L 176.947038 183.999303 
L 176.122956 185.123592 
L 176.673067 186.39078 
L 178.047254 186.533679 
L 178.597359 187.800865 
L 177.773281 188.92515 
L 178.323384 190.192333 
L 177.499309 191.316618 
L 176.125131 191.173723 
L 175.575024 189.906541 
L 176.399098 188.782253 
L 175.848989 187.515068 
L 174.474801 187.372173 
L 173.924685 186.104987 
L 174.748763 184.980695 
L 174.198647 183.713507 
L 175.022728 182.589214 
L 176.396926 182.732114 
L 177.22101 181.607824 
L 176.670897 180.340632 
L 177.494985 179.216342 
L 176.94487 177.949147 
L 175.570663 177.806243 
L 175.020542 176.539047 
L 173.646329 176.396146 
L 173.096203 175.128948 
L 171.721984 174.986049 
L 170.897896 176.110349 
L 169.523676 175.967454 
L 168.973539 174.700257 
L 167.599313 174.557364 
L 167.04917 173.290166 
L 167.873258 172.165858 
" clip-path="url(#pe286d600fe)" style="fill: #a0522d"/>
    <path d="M 169.510251 139.665848 
L 168.960082 138.398612 
L 169.784217 137.274294 
L 169.234047 136.007056 
L 170.058184 134.882738 
L 169.508013 133.615497 
L 170.332154 132.491178 
L 169.781981 131.223934 
L 170.606126 130.099616 
L 170.055952 128.832369 
L 170.880099 127.70805 
L 170.329924 126.440801 
L 171.154075 125.316481 
L 170.603898 124.04923 
L 171.428053 122.924909 
L 170.877874 121.657655 
L 171.702032 120.533335 
L 171.151853 119.266078 
L 169.777511 119.123143 
L 169.227326 117.855885 
L 170.051486 116.73156 
L 169.5013 115.464299 
L 170.325464 114.339975 
L 169.775276 113.072711 
L 170.599443 111.948386 
L 170.049254 110.68112 
L 170.873425 109.556794 
L 170.323234 108.289526 
L 168.948867 108.146584 
L 168.39867 106.879315 
L 169.222845 105.754985 
L 168.672646 104.487713 
L 169.496824 103.363382 
L 168.946624 102.096107 
L 169.770805 100.971777 
L 169.220604 99.704499 
L 170.044788 98.580168 
L 169.494586 97.312888 
L 170.318773 96.188556 
L 169.76857 94.921274 
L 170.592761 93.796941 
L 171.967156 93.939895 
L 172.79135 92.815566 
L 172.24115 91.54828 
L 173.065347 90.42395 
L 172.515145 89.156661 
L 171.140741 89.013703 
L 170.590533 87.746412 
L 171.414734 86.622079 
L 170.864525 85.354786 
L 171.688729 84.230452 
L 171.138518 82.963156 
L 171.962726 81.838822 
L 171.412514 80.571524 
L 170.03809 80.428561 
L 169.487872 79.161262 
L 170.312083 78.036924 
L 169.761863 76.769622 
L 170.586078 75.645283 
L 170.035857 74.377978 
L 170.860074 73.253639 
L 170.309852 71.986332 
L 171.134073 70.861992 
L 170.58385 69.594682 
L 171.408074 68.470342 
L 172.782522 68.613315 
L 173.60675 67.488978 
L 173.05653 66.221664 
L 173.880761 65.097326 
L 173.33054 63.83001 
L 174.154774 62.705672 
L 175.529231 62.848653 
L 176.353469 61.724318 
L 175.803251 60.456998 
L 176.627492 59.332662 
L 178.001953 59.47565 
L 178.826198 58.351317 
L 178.275983 57.083993 
L 179.100231 55.95966 
L 178.550014 54.692334 
L 179.374266 53.568 
L 180.748735 53.710996 
L 181.298947 54.978324 
L 182.67341 55.121323 
L 183.223616 56.38865 
L 182.399364 57.512976 
L 182.949569 58.7803 
L 184.324022 58.923299 
L 184.87422 60.190622 
L 186.248667 60.333623 
L 186.79886 61.600944 
L 188.173301 61.743947 
L 188.723488 63.011267 
L 190.097923 63.154272 
L 190.648104 64.421591 
L 192.022534 64.564599 
L 192.572709 65.831917 
L 193.947132 65.974926 
L 194.497301 67.242242 
L 193.673051 68.366548 
L 194.223219 69.633862 
L 195.597632 69.776872 
L 196.147794 71.044184 
L 197.522201 71.187196 
L 198.072357 72.454507 
L 199.446758 72.597521 
L 199.996908 73.864831 
L 201.371304 74.007847 
L 201.921448 75.275156 
L 203.295838 75.418174 
L 203.845976 76.685482 
L 205.22036 76.828502 
L 205.770492 78.095809 
L 204.946244 79.220093 
L 205.496375 80.487397 
L 206.870748 80.630417 
L 207.420873 81.89772 
L 208.795241 82.040742 
L 209.345359 83.308044 
L 210.719721 83.451068 
L 211.269834 84.718368 
L 212.64419 84.861395 
L 213.194297 86.128694 
L 214.568647 86.271723 
L 215.118748 87.53902 
L 216.493093 87.682052 
L 217.317341 86.557788 
L 216.767245 85.290489 
L 217.591497 84.166225 
L 218.965845 84.309262 
L 219.790101 83.185001 
L 219.240008 81.917698 
L 220.064267 80.793436 
L 221.438619 80.93648 
L 222.262881 79.812221 
L 221.712791 78.544915 
L 222.537057 77.420655 
L 221.986966 76.153346 
L 222.811235 75.029086 
L 224.185595 75.172139 
L 224.735682 76.439449 
L 226.110037 76.582504 
L 226.660117 77.849813 
L 228.034466 77.99287 
L 228.584541 79.260178 
L 227.760271 80.384428 
L 228.310345 81.651733 
L 229.684683 81.79479 
L 230.23475 83.062094 
L 231.609083 83.205153 
L 232.159144 84.472456 
L 231.334878 85.596698 
L 231.884938 86.863998 
L 233.25926 87.007058 
L 234.083527 85.882819 
L 233.533471 84.615517 
L 234.357741 83.491278 
L 235.732067 83.634343 
L 236.556341 82.510107 
L 236.006288 81.242802 
L 236.830565 80.118565 
L 238.204895 80.261637 
L 239.029175 79.137403 
L 240.403504 79.280479 
L 241.227788 78.156248 
L 242.602115 78.299329 
L 243.426403 77.175101 
L 242.876363 75.907789 
L 243.700654 74.783561 
L 245.074985 74.926648 
L 245.899279 73.802422 
L 247.273609 73.945514 
L 248.097907 72.821291 
L 249.472236 72.964387 
L 250.296538 71.840167 
L 251.670866 71.983267 
L 252.495171 70.859051 
L 253.869498 71.002155 
L 254.693806 69.877941 
L 254.143788 68.61062 
L 254.9681 67.486406 
L 254.41808 66.219083 
L 255.242395 65.094868 
L 254.692374 63.827542 
L 255.516693 62.703327 
L 254.96667 61.435998 
L 255.790992 60.311783 
L 255.240968 59.044452 
L 256.065294 57.920236 
L 257.439643 58.063355 
L 257.989663 59.330687 
L 259.364007 59.473809 
L 260.188336 58.349599 
L 261.562678 58.492725 
L 262.112687 59.760058 
L 263.487024 59.903185 
L 264.311357 58.778982 
L 265.685693 58.922114 
L 266.510029 57.797914 
L 267.884364 57.94105 
L 268.434358 59.208385 
L 269.808687 59.351523 
L 270.358674 60.618856 
L 271.732998 60.761996 
L 272.282979 62.029328 
L 271.458643 63.153518 
L 272.008623 64.420847 
L 273.382936 64.563987 
L 273.93291 65.831315 
L 275.307217 65.974458 
L 275.857185 67.241785 
L 277.231487 67.38493 
L 277.781449 68.652255 
L 276.957115 69.776434 
L 277.507076 71.043756 
L 278.881367 71.186901 
L 279.431322 72.454223 
L 278.606991 73.578398 
L 279.156945 74.845717 
L 280.531225 74.988862 
L 281.081173 76.256179 
L 282.455447 76.399326 
L 283.005389 77.666643 
L 284.379657 77.809792 
L 284.929593 79.077107 
L 286.303856 79.220259 
L 286.853786 80.487572 
L 288.228043 80.630726 
L 288.777967 81.898038 
L 290.152218 82.041194 
L 290.702136 83.308506 
L 292.076381 83.451664 
L 292.626293 84.718974 
L 294.000533 84.862134 
L 294.550439 86.129442 
L 295.924673 86.272605 
L 296.474573 87.539912 
L 297.848801 87.683077 
L 298.398695 88.950383 
L 299.772917 89.09355 
L 300.322805 90.360854 
L 301.697022 90.504023 
L 302.246904 91.771327 
L 301.422574 92.89546 
L 301.972455 94.162761 
L 303.346661 94.30593 
L 303.896536 95.57323 
L 303.07221 96.697359 
L 303.622083 97.964656 
L 302.797761 99.088785 
L 301.423564 98.945621 
L 300.873686 97.678325 
L 299.499484 97.535162 
L 298.9496 96.267865 
L 297.575392 96.124705 
L 297.025502 94.857407 
L 295.651288 94.714248 
L 295.101392 93.446949 
L 293.727173 93.303793 
L 293.177271 92.036492 
L 291.803046 91.893338 
L 291.253138 90.626036 
L 289.878907 90.482884 
L 289.328993 89.215581 
L 287.954756 89.072431 
L 287.130438 90.196587 
L 285.7562 90.053442 
L 285.206275 88.786139 
L 283.832032 88.642996 
L 283.282101 87.375691 
L 281.907852 87.23255 
L 281.357916 85.965244 
L 282.182233 84.841078 
L 281.632295 83.573769 
L 280.258035 83.430628 
L 279.708092 82.163319 
L 280.532413 81.039148 
L 279.982467 79.771836 
L 278.608197 79.628695 
L 278.058246 78.361382 
L 276.68397 78.218243 
L 276.134013 76.950928 
L 276.958336 75.82675 
L 276.408378 74.559433 
L 275.034091 74.416294 
L 274.484127 73.148976 
L 273.109834 73.005839 
L 272.559864 71.738519 
L 271.185565 71.595385 
L 270.635589 70.328064 
L 269.261285 70.184931 
L 268.436962 71.309123 
L 267.062656 71.165995 
L 266.51267 69.898674 
L 265.138359 69.755548 
L 264.588366 68.488226 
L 263.214049 68.345102 
L 262.66405 67.077778 
L 263.488373 65.953577 
L 262.938373 64.68625 
L 261.564045 64.543127 
L 260.739723 65.667332 
L 261.289728 66.934657 
L 260.465408 68.058862 
L 261.015412 69.326184 
L 260.191096 70.450388 
L 260.741098 71.717708 
L 259.916785 72.841912 
L 258.542471 72.698799 
L 257.718162 73.823006 
L 258.268167 75.090322 
L 257.443862 76.214528 
L 256.069551 76.071421 
L 255.245249 77.195631 
L 253.870937 77.052528 
L 253.046639 78.176741 
L 251.672326 78.033643 
L 250.848031 79.157858 
L 249.473718 79.014764 
L 248.923694 77.747454 
L 247.549375 77.604362 
L 246.725083 78.728584 
L 245.350763 78.585497 
L 244.526475 79.709721 
L 243.152154 79.566638 
L 242.327869 80.690866 
L 242.877907 81.958173 
L 242.053626 83.0824 
L 242.603661 84.349704 
L 241.779384 85.47393 
L 242.329418 86.741232 
L 241.505144 87.865458 
L 242.055177 89.132757 
L 241.230906 90.256983 
L 239.856603 90.113913 
L 239.032336 91.238141 
L 237.658031 91.095075 
L 236.833767 92.219307 
L 235.459462 92.076245 
L 234.635201 93.20048 
L 233.260895 93.057423 
L 232.436638 94.18166 
L 231.06233 94.038607 
L 230.512274 92.771315 
L 229.137961 92.628264 
L 228.587899 91.360971 
L 227.213579 91.217922 
L 226.663512 89.950627 
L 227.487768 88.826379 
L 226.937699 87.559082 
L 225.563369 87.416033 
L 225.013294 86.148735 
L 223.638958 86.005688 
L 222.814702 87.129943 
L 223.364782 88.39724 
L 222.540529 89.521495 
L 223.090608 90.788789 
L 222.266359 91.913043 
L 220.892031 91.770005 
L 220.067786 92.894262 
L 220.617867 94.161553 
L 219.793625 95.285809 
L 218.419302 95.142778 
L 217.595063 96.267037 
L 216.220738 96.12401 
L 215.396503 97.248272 
L 214.022178 97.105249 
L 213.197946 98.229515 
L 211.823619 98.086496 
L 211.27352 96.81921 
L 212.097751 95.694942 
L 211.54765 94.427653 
L 210.173313 94.284635 
L 209.623205 93.017345 
L 208.248862 92.874329 
L 207.698749 91.607038 
L 208.522984 90.482762 
L 207.972869 89.215469 
L 206.598516 89.072453 
L 206.048395 87.805158 
L 206.872633 86.680878 
L 206.322511 85.413581 
L 204.948147 85.270565 
L 204.398019 84.003266 
L 203.023649 83.860252 
L 202.473515 82.592952 
L 203.297756 81.468665 
L 202.747621 80.201363 
L 201.37324 80.058349 
L 200.823099 78.791045 
L 199.448713 78.648033 
L 198.898566 77.380728 
L 199.72281 76.256434 
L 199.172661 74.989126 
L 197.798264 74.846114 
L 197.24811 73.578806 
L 195.873708 73.435796 
L 195.323547 72.168486 
L 193.949139 72.025479 
L 193.398973 70.758167 
L 192.024558 70.615162 
L 191.474386 69.34785 
L 190.099966 69.204846 
L 189.549788 67.937533 
L 190.374034 66.81322 
L 189.823855 65.545904 
L 188.449424 65.402901 
L 187.899239 64.135583 
L 186.524802 63.992583 
L 185.700557 65.116901 
L 184.326119 64.973905 
L 183.501877 66.098227 
L 184.052072 67.365542 
L 183.227833 68.489863 
L 183.778026 69.757176 
L 182.953791 70.881497 
L 183.503983 72.148807 
L 182.67975 73.273127 
L 181.305326 73.130141 
L 180.481098 74.254465 
L 181.031293 75.521771 
L 180.207068 76.646094 
L 178.832647 76.503115 
L 178.008425 77.627441 
L 176.634004 77.484465 
L 175.809786 78.608794 
L 176.359989 79.876095 
L 177.734405 80.019068 
L 178.284602 81.286368 
L 179.659013 81.429343 
L 180.209204 82.696641 
L 179.384989 83.820963 
L 179.935179 85.088259 
L 181.309579 85.231234 
L 181.859763 86.498528 
L 181.035551 87.622846 
L 181.585733 88.890138 
L 180.761524 90.014455 
L 181.311705 91.281744 
L 180.4875 92.406061 
L 179.113114 92.263092 
L 178.288912 93.387412 
L 178.839096 94.654697 
L 178.014898 95.779017 
L 176.640516 95.636054 
L 175.816321 96.760376 
L 176.366508 98.027658 
L 175.542316 99.15198 
L 174.167938 99.009024 
L 173.34375 100.133348 
L 173.89394 101.400626 
L 175.268314 101.54358 
L 175.818499 102.810856 
L 174.994314 103.935177 
L 173.619945 103.792225 
L 172.795764 104.916549 
L 173.345951 106.183821 
L 172.521774 107.308145 
L 173.07196 108.575415 
L 172.247785 109.699737 
L 172.79797 110.967005 
L 174.172325 111.10995 
L 174.722504 112.377216 
L 173.898333 113.501535 
L 174.448511 114.768799 
L 175.822855 114.911744 
L 176.373027 116.179006 
L 175.548859 117.303321 
L 176.099029 118.570581 
L 177.473363 118.713527 
L 178.023527 119.980785 
L 177.199362 121.105096 
L 177.749525 122.372352 
L 176.925364 123.496662 
L 177.475525 124.763915 
L 176.651367 125.888226 
L 177.201527 127.155476 
L 176.377372 128.279786 
L 176.927531 129.547034 
L 176.10338 130.671343 
L 174.72907 130.528408 
L 173.904922 131.65272 
L 174.455084 132.919964 
L 173.630939 134.044276 
L 174.1811 135.311518 
L 173.356959 136.435829 
L 171.982657 136.292902 
L 171.158519 137.417217 
L 171.708683 138.684454 
L 170.884549 139.808768 
L 171.434711 141.076003 
L 170.61058 142.200316 
L 171.160741 143.467549 
L 170.336614 144.591862 
L 168.962325 144.448946 
L 168.41216 143.181715 
L 169.236287 142.057398 
L 168.68612 140.790165 
L 169.510251 139.665848 
" clip-path="url(#pe286d600fe)" style="fill: #a0522d"/>
    <path d="M 194.817352 204.007352 
L 193.443226 203.864437 
L 192.619153 204.988694 
L 191.245026 204.845784 
L 190.694967 203.578614 
L 189.320835 203.435706 
L 188.77077 202.168536 
L 187.396632 202.02563 
L 186.572563 203.149896 
L 185.198423 203.006995 
L 184.648348 201.739824 
L 183.274203 201.596925 
L 182.724122 200.329753 
L 181.349971 200.186856 
L 180.799884 198.919683 
L 179.425727 198.776788 
L 178.875634 197.509613 
L 179.699702 196.385333 
L 181.073863 196.52823 
L 181.623952 197.795406 
L 182.998108 197.938305 
L 183.54819 199.20548 
L 184.92234 199.348381 
L 185.472417 200.615554 
L 186.846561 200.758458 
L 187.670633 199.634191 
L 189.044776 199.777099 
L 189.594843 201.044272 
L 190.96898 201.187182 
L 191.51904 202.454354 
L 192.893172 202.597267 
L 193.717248 201.473009 
L 195.091378 201.615926 
L 195.641428 202.883098 
L 197.015553 203.026017 
L 197.565596 204.293187 
L 198.939715 204.436108 
L 199.489753 205.703278 
L 200.863866 205.846201 
L 201.687946 204.721957 
L 203.062058 204.864884 
L 203.612086 206.132054 
L 204.986192 206.274983 
L 205.536213 207.542152 
L 204.712133 208.666389 
L 205.262153 209.933554 
L 204.438075 211.057791 
L 203.063979 210.914865 
L 202.513954 209.647701 
L 203.338031 208.523461 
L 202.788005 207.256294 
L 201.413898 207.113369 
L 200.589821 208.237612 
L 199.215713 208.094691 
L 198.665676 206.827525 
L 197.291562 206.684606 
L 196.74152 205.417438 
L 195.3674 205.274521 
L 194.817352 204.007352 
" clip-path="url(#pe286d600fe)" style="fill: #a0522d"/>
    <path d="M 178.049411 192.583799 
L 179.423583 192.726696 
L 179.973679 193.993875 
L 179.149607 195.118156 
L 177.77544 194.975261 
L 177.22534 193.708083 
L 178.049411 192.583799 
" clip-path="url(#pe286d600fe)" style="fill: #a0522d"/>
    <path d="M 209.684512 292.668089 
L 210.50849 291.54389 
L 209.958553 290.276812 
L 208.584634 290.133932 
L 208.034692 288.866852 
L 206.660767 288.723976 
L 206.110818 287.456894 
L 204.736888 287.314019 
L 204.186933 286.046937 
L 202.812997 285.904064 
L 202.263037 284.63698 
L 203.087017 283.512768 
L 202.537055 282.245682 
L 203.361038 281.121469 
L 202.811075 279.85438 
L 203.635062 278.730166 
L 203.085097 277.463075 
L 201.711141 277.320198 
L 201.16117 276.053105 
L 201.98516 274.928887 
L 201.435188 273.661792 
L 202.259182 272.537574 
L 201.709208 271.270476 
L 202.533205 270.146258 
L 201.98323 268.879157 
L 202.80723 267.754938 
L 202.257254 266.487835 
L 200.883273 266.344952 
L 200.333291 265.077847 
L 201.157294 263.953625 
L 200.607311 262.686517 
L 201.431318 261.562294 
L 200.881333 260.295185 
L 201.705343 259.170961 
L 201.155356 257.903849 
L 201.97937 256.779624 
L 201.429382 255.51251 
L 202.253399 254.388285 
L 201.70341 253.121167 
L 202.52743 251.996942 
L 201.97744 250.729822 
L 202.801463 249.605597 
L 204.175477 249.748495 
L 204.999504 248.624272 
L 204.449517 247.357148 
L 205.273548 246.232925 
L 204.723559 244.965798 
L 205.547593 243.841575 
L 206.921615 243.984481 
L 207.745653 242.860261 
L 207.195667 241.59313 
L 208.019708 240.468909 
L 209.393734 240.611822 
L 210.217778 239.487604 
L 209.667796 238.220469 
L 210.491844 237.096251 
L 211.865874 237.23917 
L 212.689925 236.114954 
L 212.139946 234.847816 
L 212.964 233.7236 
L 212.41402 232.456459 
L 213.238078 231.332242 
L 214.612116 231.47517 
L 215.436177 230.350956 
L 214.8862 229.083812 
L 213.512157 228.940882 
L 212.962174 227.673735 
L 213.786238 226.549518 
L 213.236254 225.282369 
L 214.060322 224.158151 
L 213.510336 222.891 
L 214.334407 221.766781 
L 213.78442 220.499627 
L 212.410357 220.356693 
L 211.860363 219.089538 
L 210.486294 218.946606 
L 209.936295 217.67945 
L 208.56222 217.53652 
L 208.012215 216.269362 
L 206.638135 216.126435 
L 206.088123 214.859276 
L 204.714037 214.71635 
L 204.16402 213.44919 
L 204.988094 212.324954 
L 206.362185 212.467881 
L 206.912197 213.735043 
L 208.286283 213.877973 
L 208.836289 215.145133 
L 210.210369 215.288065 
L 210.760369 216.555224 
L 212.134443 216.698158 
L 212.684438 217.965316 
L 214.058506 218.108252 
L 214.608494 219.375408 
L 215.982556 219.518347 
L 216.532539 220.785502 
L 215.708464 221.909718 
L 216.258446 223.17687 
L 217.632497 223.319809 
L 218.182473 224.58696 
L 217.358401 225.711172 
L 217.908375 226.978321 
L 217.084307 228.102532 
L 217.63428 229.369678 
L 216.810215 230.493888 
L 217.360186 231.761032 
L 216.536124 232.885242 
L 217.086094 234.152383 
L 216.262036 235.276593 
L 214.888008 235.133665 
L 214.063954 236.257878 
L 214.613927 237.525015 
L 213.789875 238.649227 
L 214.339847 239.916362 
L 213.515799 241.040573 
L 212.14178 240.897654 
L 211.317735 242.021869 
L 211.86771 243.288999 
L 211.043669 244.413213 
L 209.669654 244.270301 
L 208.845616 245.394518 
L 207.471599 245.251609 
L 206.647565 246.375829 
L 207.197548 247.642955 
L 206.373517 248.767174 
L 206.923499 250.034297 
L 206.099472 251.158516 
L 206.649451 252.425636 
L 205.825428 253.549855 
L 206.375406 254.816973 
L 205.551386 255.941191 
L 206.101363 257.208306 
L 205.277346 258.332523 
L 205.827321 259.599636 
L 205.003308 260.723853 
L 205.553282 261.990963 
L 204.729272 263.11518 
L 205.279245 264.382287 
L 204.455238 265.506503 
L 205.005209 266.773608 
L 204.181205 267.897824 
L 204.731176 269.164926 
L 206.105145 269.307813 
L 206.655109 270.574914 
L 205.831109 271.699126 
L 206.381072 272.966224 
L 205.557075 274.090435 
L 206.107036 275.357531 
L 205.283042 276.481742 
L 205.833003 277.748835 
L 205.009012 278.873045 
L 205.558971 280.140135 
L 204.734984 281.264345 
L 205.284941 282.531433 
L 206.658881 282.674312 
L 207.208833 283.941399 
L 208.582767 284.08428 
L 209.132712 285.351365 
L 210.50664 285.494248 
L 211.05658 286.761332 
L 212.430502 286.904218 
L 212.980436 288.171301 
L 212.156452 289.295496 
L 212.706384 290.562576 
L 214.080296 290.705462 
L 214.630222 291.972541 
L 216.004128 292.115428 
L 216.828113 290.991239 
L 216.278191 289.724159 
L 217.102179 288.59997 
L 218.476089 288.742864 
L 219.300081 287.618678 
L 220.67399 287.761576 
L 221.497985 286.637393 
L 222.871892 286.780295 
L 223.695891 285.656115 
L 225.069798 285.799022 
L 225.8938 284.674844 
L 227.267706 284.817756 
L 228.091711 283.693581 
L 229.465616 283.836497 
L 230.289625 282.712325 
L 231.663529 282.855245 
L 232.487542 281.731076 
L 233.861444 281.874 
L 234.685461 280.749834 
L 236.059362 280.892763 
L 236.883382 279.7686 
L 238.257282 279.911533 
L 239.081306 278.787373 
L 238.531428 277.520277 
L 239.355455 276.396117 
L 240.729359 276.539056 
L 241.55339 275.414899 
L 242.927293 275.557842 
L 243.477161 276.82494 
L 244.851058 276.967886 
L 245.675092 275.843735 
L 247.048988 275.986685 
L 247.873026 274.862537 
L 249.246921 275.005491 
L 250.070962 273.881346 
L 251.444856 274.024304 
L 251.994705 275.291405 
L 253.368593 275.434366 
L 254.192638 274.310227 
L 255.566525 274.453192 
L 256.390574 273.329056 
L 257.76446 273.472025 
L 258.588512 272.347893 
L 258.038677 271.080788 
L 258.862732 269.956655 
L 260.236622 270.09963 
L 261.060681 268.9755 
L 260.510849 267.708391 
L 261.334911 266.58426 
L 260.785078 265.317149 
L 261.609144 264.193017 
L 262.983042 264.336001 
L 263.807111 263.211873 
L 263.257281 261.944758 
L 264.081354 260.820629 
L 263.531523 259.553511 
L 264.355598 258.429382 
L 265.729505 258.572374 
L 266.553584 257.448248 
L 266.003756 256.181126 
L 266.827839 255.056999 
L 266.27801 253.789875 
L 267.102095 252.665748 
L 266.552265 251.39862 
L 267.376354 250.274493 
L 266.826522 249.007363 
L 265.452596 248.864362 
L 264.902758 247.597231 
L 265.726851 246.473099 
L 265.177011 245.205966 
L 266.001107 244.081834 
L 267.375042 244.224839 
L 268.199142 243.10071 
L 269.573076 243.243719 
L 270.397179 242.119593 
L 269.847347 240.852454 
L 270.671454 239.728328 
L 270.121621 238.461186 
L 270.94573 237.337059 
L 270.395896 236.069915 
L 271.220009 234.945788 
L 270.670173 233.678641 
L 269.29622 233.535623 
L 268.746378 232.268475 
L 269.570494 231.144344 
L 269.020651 229.877193 
L 267.646687 229.734175 
L 267.096838 228.467023 
L 267.920958 227.342888 
L 267.371107 226.075734 
L 265.997133 225.932716 
L 265.447276 224.66556 
L 266.271399 223.541421 
L 265.721541 222.274262 
L 264.347556 222.131245 
L 263.797693 220.864085 
L 264.621818 219.739942 
L 264.071953 218.47278 
L 262.697958 218.329762 
L 262.148087 217.062598 
L 260.774086 216.919583 
L 260.224209 215.652418 
L 261.048337 214.528267 
L 260.498459 213.2611 
L 261.322591 212.136949 
L 260.772711 210.869779 
L 259.398695 210.726761 
L 258.848809 209.45959 
L 257.474787 209.316575 
L 256.924895 208.049402 
L 257.749031 206.925244 
L 257.199137 205.658069 
L 255.825105 205.515053 
L 255.275206 204.247877 
L 256.099344 203.123715 
L 255.549444 201.856536 
L 256.373585 200.732373 
L 255.823684 199.465192 
L 256.647829 198.341028 
L 258.021876 198.48405 
L 258.846024 197.35989 
L 258.296126 196.092705 
L 259.120278 194.968544 
L 260.494329 195.111572 
L 261.318484 193.987415 
L 262.692534 194.130447 
L 263.242423 195.397635 
L 264.616467 195.54067 
L 265.440626 194.416519 
L 266.814669 194.559558 
L 267.364548 195.826746 
L 268.738585 195.969787 
L 269.562748 194.845642 
L 269.012874 193.578453 
L 269.83704 192.454308 
L 269.287164 191.187115 
L 267.913118 191.04407 
L 267.363236 189.776877 
L 268.187406 188.652727 
L 267.637523 187.385532 
L 266.263465 187.242486 
L 265.713577 185.975289 
L 266.537749 184.851136 
L 265.987859 183.583936 
L 264.613791 183.440891 
L 264.063895 182.17369 
L 264.888071 181.049533 
L 264.338173 179.782329 
L 265.162352 178.658171 
L 266.536429 178.801221 
L 267.360612 177.677066 
L 266.810718 176.409859 
L 267.634904 175.285704 
L 267.085008 174.018494 
L 265.710921 173.87544 
L 265.16102 172.608229 
L 263.786927 172.465177 
L 263.237019 171.197964 
L 261.862921 171.054915 
L 261.313008 169.787701 
L 262.137197 168.663535 
L 261.587281 167.396318 
L 262.411474 166.272152 
L 261.861557 165.004933 
L 260.487444 164.861881 
L 259.937521 163.594661 
L 260.761717 162.470491 
L 260.211793 161.203268 
L 261.035992 160.079097 
L 262.410115 160.222153 
L 263.234317 159.097985 
L 264.608439 159.241045 
L 265.158354 160.508271 
L 266.53247 160.651333 
L 267.082379 161.918558 
L 268.456489 162.061622 
L 269.280695 160.937464 
L 270.654805 161.080533 
L 271.479014 159.956378 
L 270.929115 158.689151 
L 271.753328 157.564996 
L 273.127441 157.708071 
L 273.951658 156.583918 
L 273.401761 155.316688 
L 274.225981 154.192535 
L 275.600098 154.335616 
L 276.424322 153.211466 
L 275.874429 151.944232 
L 276.698656 150.820081 
L 276.148761 149.552844 
L 276.972991 148.428693 
L 278.347116 148.571783 
L 279.17135 147.447635 
L 278.621459 146.180394 
L 279.445696 145.056246 
L 278.895804 143.789002 
L 279.720044 142.664853 
L 281.094178 142.807951 
L 281.918422 141.683806 
L 281.368532 140.416558 
L 282.19278 139.292412 
L 281.642889 138.025161 
L 282.46714 136.901015 
L 281.917247 135.633762 
L 282.741502 134.509614 
L 284.115648 134.652724 
L 284.939906 133.528579 
L 284.390017 132.261322 
L 285.214278 131.137178 
L 286.588429 131.280293 
L 287.412693 130.156152 
L 286.862807 128.888891 
L 287.687075 127.764749 
L 287.137188 126.497485 
L 287.96146 125.373343 
L 289.335618 125.516467 
L 290.159893 124.392327 
L 291.534051 124.535456 
L 292.358329 123.411319 
L 293.732486 123.554452 
L 294.556768 122.430318 
L 295.930924 122.573455 
L 296.755209 121.449324 
L 296.205339 120.182053 
L 297.029628 119.057922 
L 296.479756 117.790648 
L 297.304048 116.666516 
L 296.754175 115.39924 
L 297.578471 114.275108 
L 298.95264 114.418255 
L 299.776939 113.294126 
L 299.227069 112.026846 
L 300.051372 110.902716 
L 299.5015 109.635433 
L 298.127322 109.492281 
L 297.577445 108.224997 
L 298.40175 107.100864 
L 297.851872 105.833577 
L 298.676181 104.709443 
L 298.126301 103.442154 
L 298.950613 102.318019 
L 300.324806 102.461177 
L 301.149122 101.337046 
L 302.523313 101.480208 
L 303.347633 100.35608 
L 304.721823 100.499247 
L 305.27169 101.76654 
L 304.44737 102.890665 
L 304.997235 104.157956 
L 306.371415 104.301123 
L 306.921274 105.568412 
L 306.096957 106.692533 
L 306.646815 107.95982 
L 305.822502 109.083941 
L 306.372358 110.351225 
L 305.548048 111.475345 
L 306.097903 112.742627 
L 305.273597 113.866747 
L 305.82345 115.134026 
L 304.999147 116.258145 
L 303.624991 116.114989 
L 302.800691 117.239111 
L 303.350548 118.506386 
L 302.526252 119.630508 
L 303.076107 120.897781 
L 302.251814 122.021902 
L 300.877666 121.878754 
L 300.053377 123.002879 
L 300.603236 124.270147 
L 299.77895 125.394271 
L 298.404806 125.25113 
L 297.580523 126.375257 
L 296.206378 126.23212 
L 295.382099 127.35625 
L 294.007953 127.213117 
L 293.183678 128.33725 
L 291.809531 128.194121 
L 290.985259 129.318257 
L 291.535134 130.585518 
L 290.710866 131.709653 
L 289.336723 131.566531 
L 288.512458 132.690669 
L 289.062336 133.957926 
L 288.238075 135.082064 
L 288.787952 136.349318 
L 287.963694 137.473456 
L 288.51357 138.740708 
L 287.689315 139.864844 
L 288.239189 141.132094 
L 287.414938 142.25623 
L 286.040812 142.113121 
L 285.216565 143.23726 
L 285.766442 144.504505 
L 284.942198 145.628644 
L 285.492074 146.895887 
L 284.667833 148.020025 
L 283.293716 147.876925 
L 282.469478 149.001066 
L 283.019357 150.268305 
L 282.195123 151.392446 
L 280.82101 151.249351 
L 279.996779 152.373495 
L 280.546662 153.64073 
L 279.722434 154.764874 
L 280.272316 156.032106 
L 279.448092 157.156249 
L 278.073987 157.013163 
L 277.249766 158.137309 
L 277.799651 159.404537 
L 276.975434 160.528683 
L 275.601332 160.385603 
L 274.777119 161.509752 
L 275.327006 162.776976 
L 274.502796 163.901124 
L 275.052682 165.168346 
L 274.228476 166.292494 
L 272.854383 166.149423 
L 272.030179 167.273573 
L 272.580069 168.540791 
L 271.755869 169.664941 
L 272.305757 170.932157 
L 271.48156 172.056306 
L 270.107476 171.913244 
L 269.283283 173.037396 
L 269.833174 174.304608 
L 271.207254 174.447668 
L 271.757139 175.714878 
L 270.93295 176.839027 
L 271.482833 178.106234 
L 270.658647 179.230383 
L 271.20853 180.497588 
L 270.384347 181.621735 
L 270.934228 182.888938 
L 270.110048 184.013085 
L 270.659928 185.280285 
L 269.835751 186.404432 
L 270.38563 187.671629 
L 271.75968 187.814681 
L 272.309553 189.081877 
L 271.485379 190.206019 
L 272.035251 191.473213 
L 271.211081 192.597355 
L 271.76095 193.864546 
L 270.936784 194.988688 
L 271.486652 196.255876 
L 270.662489 197.380017 
L 271.212356 198.647203 
L 270.388196 199.771344 
L 269.01417 199.628303 
L 268.190014 200.752447 
L 268.739884 202.019628 
L 267.915731 203.143772 
L 268.4656 204.410951 
L 267.64145 205.535094 
L 268.191318 206.80227 
L 267.367172 207.926413 
L 267.917038 209.193587 
L 269.291045 209.336619 
L 269.840905 210.603792 
L 269.016762 211.727931 
L 269.566621 212.995101 
L 270.940618 213.138133 
L 271.490471 214.405302 
L 270.666331 215.529437 
L 271.216183 216.796603 
L 272.590169 216.939636 
L 273.140014 218.206801 
L 272.315878 219.330932 
L 272.865722 220.598094 
L 274.239698 220.741127 
L 274.789536 222.008288 
L 273.965403 223.132415 
L 274.515239 224.399573 
L 273.691109 225.523699 
L 274.240945 226.790855 
L 275.614905 226.933886 
L 276.164735 228.201041 
L 275.340608 229.325163 
L 275.890436 230.592315 
L 277.264386 230.735346 
L 277.814208 232.002497 
L 276.990085 233.126615 
L 277.539905 234.393763 
L 276.715785 235.517881 
L 277.265604 236.785027 
L 276.441487 237.909144 
L 276.991305 239.176287 
L 276.167192 240.300404 
L 276.717008 241.567545 
L 275.892898 242.691661 
L 276.442713 243.958799 
L 275.618607 245.082915 
L 276.16842 246.35005 
L 277.542336 246.493071 
L 278.092144 247.760204 
L 277.268041 248.884317 
L 275.894129 248.741299 
L 275.070029 249.865414 
L 275.61984 251.132544 
L 274.795744 252.256659 
L 275.345553 253.523786 
L 274.52146 254.6479 
L 275.071268 255.915025 
L 274.247178 257.039139 
L 274.796985 258.306261 
L 273.972899 259.430374 
L 274.522704 260.697494 
L 273.698621 261.821607 
L 272.324732 261.678603 
L 271.500653 262.802719 
L 272.050462 264.069835 
L 271.226385 265.19395 
L 269.8525 265.050953 
L 269.028428 266.175072 
L 269.578239 267.442183 
L 268.75417 268.566301 
L 267.380289 268.423311 
L 266.556223 269.547432 
L 267.106038 270.814539 
L 266.281976 271.93866 
L 266.831789 273.205765 
L 266.00773 274.329885 
L 264.633858 274.186903 
L 263.809802 275.311026 
L 262.435928 275.168048 
L 261.611876 276.292174 
L 260.238001 276.1492 
L 259.413953 277.273329 
L 258.040077 277.13036 
L 257.490245 275.86326 
L 256.116363 275.720293 
L 255.292318 276.844428 
L 253.918436 276.701466 
L 253.094395 277.825604 
L 251.720511 277.682645 
L 250.896473 278.806787 
L 249.522588 278.663832 
L 248.972737 277.396735 
L 247.598846 277.253783 
L 246.774812 278.377931 
L 245.40092 278.234983 
L 244.57689 279.359133 
L 243.202997 279.21619 
L 242.37897 280.340344 
L 241.005077 280.197404 
L 240.181053 281.321561 
L 238.807158 281.178626 
L 237.983138 282.302785 
L 236.609243 282.159855 
L 235.785226 283.284017 
L 234.411329 283.141091 
L 233.587316 284.265256 
L 232.213419 284.122334 
L 231.389409 285.246502 
L 230.01551 285.103584 
L 229.191504 286.227756 
L 227.817604 286.084842 
L 226.993602 287.209016 
L 227.5435 288.4761 
L 226.719501 289.600274 
L 225.345604 289.457367 
L 224.521609 290.581544 
L 223.147712 290.438641 
L 222.32372 291.56282 
L 220.949821 291.419922 
L 220.125833 292.544104 
L 218.751934 292.40121 
L 217.927949 293.525396 
L 216.554048 293.382506 
L 215.730067 294.506694 
L 214.356166 294.363809 
L 213.532188 295.488 
L 212.158285 295.345119 
L 211.608356 294.078044 
L 210.234448 293.935165 
L 209.684512 292.668089 
" clip-path="url(#pe286d600fe)" style="fill: #a0522d"/>
    <path d="M 178.597359 187.800865 
L 178.047254 186.533679 
L 176.673067 186.39078 
L 176.122956 185.123592 
L 176.947038 183.999303 
L 178.32123 184.142205 
L 179.145315 183.017919 
L 180.519506 183.160824 
L 181.343594 182.036541 
L 180.793491 180.769349 
L 181.617583 179.645065 
L 181.067479 178.37787 
L 179.693278 178.23496 
L 179.143168 176.967764 
L 177.768962 176.824856 
L 177.218846 175.557659 
L 175.844634 175.414753 
L 175.294512 174.147554 
L 173.920294 174.004651 
L 173.370166 172.737451 
L 171.995942 172.594549 
L 171.171851 173.71885 
L 169.797627 173.575953 
L 169.247488 172.308753 
L 167.873258 172.165858 
L 167.323113 170.898657 
L 165.948877 170.755764 
L 165.398726 169.488562 
L 166.222817 168.364251 
L 165.672665 167.097046 
L 166.496759 165.972734 
L 165.946605 164.705526 
L 166.770703 163.581214 
L 168.144953 163.724113 
L 168.969054 162.599804 
L 168.418904 161.332592 
L 169.243008 160.208283 
L 168.692856 158.941069 
L 169.516964 157.816759 
L 168.966811 156.549542 
L 169.790922 155.425231 
L 169.240768 154.158012 
L 170.064882 153.033701 
L 169.514726 151.766479 
L 168.140452 151.623569 
L 167.59029 150.356346 
L 168.414408 149.232031 
L 167.864245 147.964805 
L 168.688366 146.84049 
L 168.138201 145.573261 
L 168.962325 144.448946 
L 170.336614 144.591862 
L 171.160741 143.467549 
L 170.61058 142.200316 
L 171.434711 141.076003 
L 170.884549 139.808768 
L 171.708683 138.684454 
L 171.158519 137.417217 
L 171.982657 136.292902 
L 173.356959 136.435829 
L 174.1811 135.311518 
L 173.630939 134.044276 
L 174.455084 132.919964 
L 173.904922 131.65272 
L 174.72907 130.528408 
L 176.10338 130.671343 
L 176.927531 129.547034 
L 176.377372 128.279786 
L 177.201527 127.155476 
L 176.651367 125.888226 
L 177.475525 124.763915 
L 176.925364 123.496662 
L 177.749525 122.372352 
L 177.199362 121.105096 
L 178.023527 119.980785 
L 177.473363 118.713527 
L 176.099029 118.570581 
L 175.548859 117.303321 
L 176.373027 116.179006 
L 175.822855 114.911744 
L 174.448511 114.768799 
L 173.898333 113.501535 
L 174.722504 112.377216 
L 174.172325 111.10995 
L 172.79797 110.967005 
L 172.247785 109.699737 
L 173.07196 108.575415 
L 172.521774 107.308145 
L 173.345951 106.183821 
L 172.795764 104.916549 
L 173.619945 103.792225 
L 174.994314 103.935177 
L 175.818499 102.810856 
L 175.268314 101.54358 
L 173.89394 101.400626 
L 173.34375 100.133348 
L 174.167938 99.009024 
L 175.542316 99.15198 
L 176.366508 98.027658 
L 175.816321 96.760376 
L 176.640516 95.636054 
L 178.014898 95.779017 
L 178.839096 94.654697 
L 178.288912 93.387412 
L 179.113114 92.263092 
L 180.4875 92.406061 
L 181.311705 91.281744 
L 180.761524 90.014455 
L 181.585733 88.890138 
L 181.035551 87.622846 
L 181.859763 86.498528 
L 181.309579 85.231234 
L 179.935179 85.088259 
L 179.384989 83.820963 
L 180.209204 82.696641 
L 179.659013 81.429343 
L 178.284602 81.286368 
L 177.734405 80.019068 
L 176.359989 79.876095 
L 175.809786 78.608794 
L 176.634004 77.484465 
L 178.008425 77.627441 
L 178.832647 76.503115 
L 180.207068 76.646094 
L 181.031293 75.521771 
L 180.481098 74.254465 
L 181.305326 73.130141 
L 182.67975 73.273127 
L 183.503983 72.148807 
L 182.953791 70.881497 
L 183.778026 69.757176 
L 183.227833 68.489863 
L 184.052072 67.365542 
L 183.501877 66.098227 
L 184.326119 64.973905 
L 185.700557 65.116901 
L 186.524802 63.992583 
L 187.899239 64.135583 
L 188.449424 65.402901 
L 189.823855 65.545904 
L 190.374034 66.81322 
L 189.549788 67.937533 
L 190.099966 69.204846 
L 191.474386 69.34785 
L 192.024558 70.615162 
L 193.398973 70.758167 
L 193.949139 72.025479 
L 195.323547 72.168486 
L 195.873708 73.435796 
L 197.24811 73.578806 
L 197.798264 74.846114 
L 199.172661 74.989126 
L 199.72281 76.256434 
L 198.898566 77.380728 
L 199.448713 78.648033 
L 200.823099 78.791045 
L 201.37324 80.058349 
L 202.747621 80.201363 
L 203.297756 81.468665 
L 202.473515 82.592952 
L 203.023649 83.860252 
L 204.398019 84.003266 
L 204.948147 85.270565 
L 206.322511 85.413581 
L 206.872633 86.680878 
L 206.048395 87.805158 
L 206.598516 89.072453 
L 207.972869 89.215469 
L 208.522984 90.482762 
L 207.698749 91.607038 
L 208.248862 92.874329 
L 209.623205 93.017345 
L 210.173313 94.284635 
L 211.54765 94.427653 
L 212.097751 95.694942 
L 211.27352 96.81921 
L 211.823619 98.086496 
L 213.197946 98.229515 
L 214.022178 97.105249 
L 215.396503 97.248272 
L 216.220738 96.12401 
L 217.595063 96.267037 
L 218.419302 95.142778 
L 219.793625 95.285809 
L 220.617867 94.161553 
L 220.067786 92.894262 
L 220.892031 91.770005 
L 222.266359 91.913043 
L 223.090608 90.788789 
L 222.540529 89.521495 
L 223.364782 88.39724 
L 222.814702 87.129943 
L 223.638958 86.005688 
L 225.013294 86.148735 
L 225.563369 87.416033 
L 226.937699 87.559082 
L 227.487768 88.826379 
L 226.663512 89.950627 
L 227.213579 91.217922 
L 228.587899 91.360971 
L 229.137961 92.628264 
L 230.512274 92.771315 
L 231.06233 94.038607 
L 232.436638 94.18166 
L 233.260895 93.057423 
L 234.635201 93.20048 
L 235.459462 92.076245 
L 236.833767 92.219307 
L 237.658031 91.095075 
L 239.032336 91.238141 
L 239.856603 90.113913 
L 241.230906 90.256983 
L 242.055177 89.132757 
L 241.505144 87.865458 
L 242.329418 86.741232 
L 241.779384 85.47393 
L 242.603661 84.349704 
L 242.053626 83.0824 
L 242.877907 81.958173 
L 242.327869 80.690866 
L 243.152154 79.566638 
L 244.526475 79.709721 
L 245.350763 78.585497 
L 246.725083 78.728584 
L 247.549375 77.604362 
L 248.923694 77.747454 
L 249.473718 79.014764 
L 250.848031 79.157858 
L 251.672326 78.033643 
L 253.046639 78.176741 
L 253.870937 77.052528 
L 255.245249 77.195631 
L 256.069551 76.071421 
L 257.443862 76.214528 
L 258.268167 75.090322 
L 257.718162 73.823006 
L 258.542471 72.698799 
L 259.916785 72.841912 
L 260.741098 71.717708 
L 260.191096 70.450388 
L 261.015412 69.326184 
L 260.465408 68.058862 
L 261.289728 66.934657 
L 260.739723 65.667332 
L 261.564045 64.543127 
L 262.938373 64.68625 
L 263.488373 65.953577 
L 262.66405 67.077778 
L 263.214049 68.345102 
L 264.588366 68.488226 
L 265.138359 69.755548 
L 266.51267 69.898674 
L 267.062656 71.165995 
L 268.436962 71.309123 
L 269.261285 70.184931 
L 270.635589 70.328064 
L 271.185565 71.595385 
L 272.559864 71.738519 
L 273.109834 73.005839 
L 274.484127 73.148976 
L 275.034091 74.416294 
L 276.408378 74.559433 
L 276.958336 75.82675 
L 276.134013 76.950928 
L 276.68397 78.218243 
L 278.058246 78.361382 
L 278.608197 79.628695 
L 279.982467 79.771836 
L 280.532413 81.039148 
L 279.708092 82.163319 
L 280.258035 83.430628 
L 281.632295 83.573769 
L 282.182233 84.841078 
L 281.357916 85.965244 
L 281.907852 87.23255 
L 283.282101 87.375691 
L 283.832032 88.642996 
L 285.206275 88.786139 
L 285.7562 90.053442 
L 287.130438 90.196587 
L 287.954756 89.072431 
L 289.328993 89.215581 
L 289.878907 90.482884 
L 291.253138 90.626036 
L 291.803046 91.893338 
L 293.177271 92.036492 
L 293.727173 93.303793 
L 295.101392 93.446949 
L 295.651288 94.714248 
L 297.025502 94.857407 
L 297.575392 96.124705 
L 298.9496 96.267865 
L 299.499484 97.535162 
L 300.873686 97.678325 
L 301.423564 98.945621 
L 302.797761 99.088785 
L 303.347633 100.35608 
L 302.523313 101.480208 
L 301.149122 101.337046 
L 300.324806 102.461177 
L 298.950613 102.318019 
L 298.126301 103.442154 
L 298.676181 104.709443 
L 297.851872 105.833577 
L 298.40175 107.100864 
L 297.577445 108.224997 
L 298.127322 109.492281 
L 299.5015 109.635433 
L 300.051372 110.902716 
L 299.227069 112.026846 
L 299.776939 113.294126 
L 298.95264 114.418255 
L 297.578471 114.275108 
L 296.754175 115.39924 
L 297.304048 116.666516 
L 296.479756 117.790648 
L 297.029628 119.057922 
L 296.205339 120.182053 
L 296.755209 121.449324 
L 295.930924 122.573455 
L 294.556768 122.430318 
L 293.732486 123.554452 
L 292.358329 123.411319 
L 291.534051 124.535456 
L 290.159893 124.392327 
L 289.335618 125.516467 
L 287.96146 125.373343 
L 287.137188 126.497485 
L 287.687075 127.764749 
L 286.862807 128.888891 
L 287.412693 130.156152 
L 286.588429 131.280293 
L 285.214278 131.137178 
L 284.390017 132.261322 
L 284.939906 133.528579 
L 284.115648 134.652724 
L 282.741502 134.509614 
L 281.917247 135.633762 
L 282.46714 136.901015 
L 281.642889 138.025161 
L 282.19278 139.292412 
L 281.368532 140.416558 
L 281.918422 141.683806 
L 281.094178 142.807951 
L 279.720044 142.664853 
L 278.895804 143.789002 
L 279.445696 145.056246 
L 278.621459 146.180394 
L 279.17135 147.447635 
L 278.347116 148.571783 
L 276.972991 148.428693 
L 276.148761 149.552844 
L 276.698656 150.820081 
L 275.874429 151.944232 
L 276.424322 153.211466 
L 275.600098 154.335616 
L 274.225981 154.192535 
L 273.401761 155.316688 
L 273.951658 156.583918 
L 273.127441 157.708071 
L 271.753328 157.564996 
L 270.929115 158.689151 
L 271.479014 159.956378 
L 270.654805 161.080533 
L 269.280695 160.937464 
L 268.456489 162.061622 
L 267.082379 161.918558 
L 266.53247 160.651333 
L 265.158354 160.508271 
L 264.608439 159.241045 
L 263.234317 159.097985 
L 262.410115 160.222153 
L 261.035992 160.079097 
L 260.211793 161.203268 
L 260.761717 162.470491 
L 259.937521 163.594661 
L 260.487444 164.861881 
L 261.861557 165.004933 
L 262.411474 166.272152 
L 261.587281 167.396318 
L 262.137197 168.663535 
L 261.313008 169.787701 
L 261.862921 171.054915 
L 263.237019 171.197964 
L 263.786927 172.465177 
L 265.16102 172.608229 
L 265.710921 173.87544 
L 267.085008 174.018494 
L 267.634904 175.285704 
L 266.810718 176.409859 
L 267.360612 177.677066 
L 266.536429 178.801221 
L 265.162352 178.658171 
L 264.338173 179.782329 
L 264.888071 181.049533 
L 264.063895 182.17369 
L 264.613791 183.440891 
L 265.987859 183.583936 
L 266.537749 184.851136 
L 265.713577 185.975289 
L 266.263465 187.242486 
L 267.637523 187.385532 
L 268.187406 188.652727 
L 267.363236 189.776877 
L 267.913118 191.04407 
L 269.287164 191.187115 
L 269.83704 192.454308 
L 269.012874 193.578453 
L 269.562748 194.845642 
L 268.738585 195.969787 
L 267.364548 195.826746 
L 266.814669 194.559558 
L 265.440626 194.416519 
L 264.616467 195.54067 
L 263.242423 195.397635 
L 262.692534 194.130447 
L 261.318484 193.987415 
L 260.494329 195.111572 
L 259.120278 194.968544 
L 258.296126 196.092705 
L 258.846024 197.35989 
L 258.021876 198.48405 
L 256.647829 198.341028 
L 255.823684 199.465192 
L 256.373585 200.732373 
L 255.549444 201.856536 
L 256.099344 203.123715 
L 255.275206 204.247877 
L 255.825105 205.515053 
L 257.199137 205.658069 
L 257.749031 206.925244 
L 256.924895 208.049402 
L 257.474787 209.316575 
L 258.848809 209.45959 
L 259.398695 210.726761 
L 260.772711 210.869779 
L 261.322591 212.136949 
L 260.498459 213.2611 
L 261.048337 214.528267 
L 260.224209 215.652418 
L 260.774086 216.919583 
L 262.148087 217.062598 
L 262.697958 218.329762 
L 264.071953 218.47278 
L 264.621818 219.739942 
L 263.797693 220.864085 
L 264.347556 222.131245 
L 265.721541 222.274262 
L 266.271399 223.541421 
L 265.447276 224.66556 
L 265.997133 225.932716 
L 267.371107 226.075734 
L 267.920958 227.342888 
L 267.096838 228.467023 
L 267.646687 229.734175 
L 269.020651 229.877193 
L 269.570494 231.144344 
L 268.746378 232.268475 
L 269.29622 233.535623 
L 270.670173 233.678641 
L 271.220009 234.945788 
L 270.395896 236.069915 
L 270.94573 237.337059 
L 270.121621 238.461186 
L 270.671454 239.728328 
L 269.847347 240.852454 
L 270.397179 242.119593 
L 269.573076 243.243719 
L 268.199142 243.10071 
L 267.375042 244.224839 
L 266.001107 244.081834 
L 265.177011 245.205966 
L 265.726851 246.473099 
L 264.902758 247.597231 
L 265.452596 248.864362 
L 266.826522 249.007363 
L 267.376354 250.274493 
L 266.552265 251.39862 
L 267.102095 252.665748 
L 266.27801 253.789875 
L 266.827839 255.056999 
L 266.003756 256.181126 
L 266.553584 257.448248 
L 265.729505 258.572374 
L 264.355598 258.429382 
L 263.531523 259.553511 
L 264.081354 260.820629 
L 263.257281 261.944758 
L 263.807111 263.211873 
L 262.983042 264.336001 
L 261.609144 264.193017 
L 260.785078 265.317149 
L 261.334911 266.58426 
L 260.510849 267.708391 
L 261.060681 268.9755 
L 260.236622 270.09963 
L 258.862732 269.956655 
L 258.038677 271.080788 
L 258.588512 272.347893 
L 257.76446 273.472025 
L 256.390574 273.329056 
L 255.566525 274.453192 
L 254.192638 274.310227 
L 253.368593 275.434366 
L 251.994705 275.291405 
L 251.444856 274.024304 
L 250.070962 273.881346 
L 249.246921 275.005491 
L 247.873026 274.862537 
L 247.048988 275.986685 
L 245.675092 275.843735 
L 244.851058 276.967886 
L 243.477161 276.82494 
L 242.927293 275.557842 
L 241.55339 275.414899 
L 240.729359 276.539056 
L 239.355455 276.396117 
L 238.531428 277.520277 
L 239.081306 278.787373 
L 238.257282 279.911533 
L 236.883382 279.7686 
L 236.059362 280.892763 
L 234.685461 280.749834 
L 233.861444 281.874 
L 232.487542 281.731076 
L 231.663529 282.855245 
L 230.289625 282.712325 
L 229.465616 283.836497 
L 228.091711 283.693581 
L 227.267706 284.817756 
L 225.8938 284.674844 
L 225.069798 285.799022 
L 223.695891 285.656115 
L 222.871892 286.780295 
L 221.497985 286.637393 
L 220.67399 287.761576 
L 219.300081 287.618678 
L 218.476089 288.742864 
L 217.102179 288.59997 
L 216.278191 289.724159 
L 216.828113 290.991239 
L 216.004128 292.115428 
L 214.630222 291.972541 
L 214.080296 290.705462 
L 212.706384 290.562576 
L 212.156452 289.295496 
L 212.980436 288.171301 
L 212.430502 286.904218 
L 211.05658 286.761332 
L 210.50664 285.494248 
L 209.132712 285.351365 
L 208.582767 284.08428 
L 207.208833 283.941399 
L 206.658881 282.674312 
L 205.284941 282.531433 
L 204.734984 281.264345 
L 205.558971 280.140135 
L 205.009012 278.873045 
L 205.833003 277.748835 
L 205.283042 276.481742 
L 206.107036 275.357531 
L 205.557075 274.090435 
L 206.381072 272.966224 
L 205.831109 271.699126 
L 206.655109 270.574914 
L 206.105145 269.307813 
L 204.731176 269.164926 
L 204.181205 267.897824 
L 205.005209 266.773608 
L 204.455238 265.506503 
L 205.279245 264.382287 
L 204.729272 263.11518 
L 205.553282 261.990963 
L 205.003308 260.723853 
L 205.827321 259.599636 
L 205.277346 258.332523 
L 206.101363 257.208306 
L 205.551386 255.941191 
L 206.375406 254.816973 
L 205.825428 253.549855 
L 206.649451 252.425636 
L 206.099472 251.158516 
L 206.923499 250.034297 
L 206.373517 248.767174 
L 207.197548 247.642955 
L 206.647565 246.375829 
L 207.471599 245.251609 
L 208.845616 245.394518 
L 209.669654 244.270301 
L 211.043669 244.413213 
L 211.86771 243.288999 
L 211.317735 242.021869 
L 212.14178 240.897654 
L 213.515799 241.040573 
L 214.339847 239.916362 
L 213.789875 238.649227 
L 214.613927 237.525015 
L 214.063954 236.257878 
L 214.888008 235.133665 
L 216.262036 235.276593 
L 217.086094 234.152383 
L 216.536124 232.885242 
L 217.360186 231.761032 
L 216.810215 230.493888 
L 217.63428 229.369678 
L 217.084307 228.102532 
L 217.908375 226.978321 
L 217.358401 225.711172 
L 218.182473 224.58696 
L 217.632497 223.319809 
L 216.258446 223.17687 
L 215.708464 221.909718 
L 216.532539 220.785502 
L 215.982556 219.518347 
L 214.608494 219.375408 
L 214.058506 218.108252 
L 212.684438 217.965316 
L 212.134443 216.698158 
L 210.760369 216.555224 
L 210.210369 215.288065 
L 208.836289 215.145133 
L 208.286283 213.877973 
L 206.912197 213.735043 
L 206.362185 212.467881 
L 204.988094 212.324954 
L 204.438075 211.057791 
L 205.262153 209.933554 
L 204.712133 208.666389 
L 205.536213 207.542152 
L 204.986192 206.274983 
L 203.612086 206.132054 
L 203.062058 204.864884 
L 201.687946 204.721957 
L 200.863866 205.846201 
L 199.489753 205.703278 
L 198.939715 204.436108 
L 197.565596 204.293187 
L 197.015553 203.026017 
L 195.641428 202.883098 
L 195.091378 201.615926 
L 193.717248 201.473009 
L 192.893172 202.597267 
L 191.51904 202.454354 
L 190.96898 201.187182 
L 189.594843 201.044272 
L 189.044776 199.777099 
L 187.670633 199.634191 
L 186.846561 200.758458 
L 185.472417 200.615554 
L 184.92234 199.348381 
L 183.54819 199.20548 
L 182.998108 197.938305 
L 181.623952 197.795406 
L 181.073863 196.52823 
L 179.699702 196.385333 
L 179.149607 195.118156 
L 179.973679 193.993875 
L 179.423583 192.726696 
L 178.049411 192.583799 
L 177.499309 191.316618 
L 178.323384 190.192333 
L 177.773281 188.92515 
L 178.597359 187.800865 
" clip-path="url(#pe286d600fe)" style="fill: #40e0d0"/>
   </g>
   <g id="matplotlib.axis_1">
    <g id="xtick_1">
     <g id="line2d_1">
      <defs>
       <path id="m076e8dcdfe" d="M 0 0 
L 0 3.5 
" style="stroke: #000000; stroke-width: 0.8"/>
      </defs>
      <g>
       <use xlink:href="#m076e8dcdfe" x="173.401155" y="307.584" style="stroke: #000000; stroke-width: 0.8"/>
      </g>
     </g>
     <g id="text_1">
      <!-- −100.42 -->
      <g transform="translate(151.715999 322.182437) scale(0.1 -0.1)">
       <defs>
        <path id="DejaVuSans-2212" d="M 678 2272 
L 4684 2272 
L 4684 1741 
L 678 1741 
L 678 2272 
z
" transform="scale(0.015625)"/>
        <path id="DejaVuSans-31" d="M 794 531 
L 1825 531 
L 1825 4091 
L 703 3866 
L 703 4441 
L 1819 4666 
L 2450 4666 
L 2450 531 
L 3481 531 
L 3481 0 
L 794 0 
L 794 531 
z
" transform="scale(0.015625)"/>
        <path id="DejaVuSans-30" d="M 2034 4250 
Q 1547 4250 1301 3770 
Q 1056 3291 1056 2328 
Q 1056 1369 1301 889 
Q 1547 409 2034 409 
Q 2525 409 2770 889 
Q 3016 1369 3016 2328 
Q 3016 3291 2770 3770 
Q 2525 4250 2034 4250 
z
M 2034 4750 
Q 2819 4750 3233 4129 
Q 3647 3509 3647 2328 
Q 3647 1150 3233 529 
Q 2819 -91 2034 -91 
Q 1250 -91 836 529 
Q 422 1150 422 2328 
Q 422 3509 836 4129 
Q 1250 4750 2034 4750 
z
" transform="scale(0.015625)"/>
        <path id="DejaVuSans-2e" d="M 684 794 
L 1344 794 
L 1344 0 
L 684 0 
L 684 794 
z
" transform="scale(0.015625)"/>
        <path id="DejaVuSans-34" d="M 2419 4116 
L 825 1625 
L 2419 1625 
L 2419 4116 
z
M 2253 4666 
L 3047 4666 
L 3047 1625 
L 3713 1625 
L 3713 1100 
L 3047 1100 
L 3047 0 
L 2419 0 
L 2419 1100 
L 313 1100 
L 313 1709 
L 2253 4666 
z
" transform="scale(0.015625)"/>
        <path id="DejaVuSans-32" d="M 1228 531 
L 3431 531 
L 3431 0 
L 469 0 
L 469 531 
Q 828 903 1448 1529 
Q 2069 2156 2228 2338 
Q 2531 2678 2651 2914 
Q 2772 3150 2772 3378 
Q 2772 3750 2511 3984 
Q 2250 4219 1831 4219 
Q 1534 4219 1204 4116 
Q 875 4013 500 3803 
L 500 4441 
Q 881 4594 1212 4672 
Q 1544 4750 1819 4750 
Q 2544 4750 2975 4387 
Q 3406 4025 3406 3419 
Q 3406 3131 3298 2873 
Q 3191 2616 2906 2266 
Q 2828 2175 2409 1742 
Q 1991 1309 1228 531 
z
" transform="scale(0.015625)"/>
       </defs>
       <use xlink:href="#DejaVuSans-2212"/>
       <use xlink:href="#DejaVuSans-31" x="83.789062"/>
       <use xlink:href="#DejaVuSans-30" x="147.412109"/>
       <use xlink:href="#DejaVuSans-30" x="211.035156"/>
       <use xlink:href="#DejaVuSans-2e" x="274.658203"/>
       <use xlink:href="#DejaVuSans-34" x="306.445312"/>
       <use xlink:href="#DejaVuSans-32" x="370.068359"/>
      </g>
     </g>
    </g>
    <g id="xtick_2">
     <g id="line2d_2">
      <g>
       <use xlink:href="#m076e8dcdfe" x="220.235051" y="307.584" style="stroke: #000000; stroke-width: 0.8"/>
      </g>
     </g>
     <g id="text_2">
      <!-- −100.41 -->
      <g transform="translate(198.549894 322.182437) scale(0.1 -0.1)">
       <use xlink:href="#DejaVuSans-2212"/>
       <use xlink:href="#DejaVuSans-31" x="83.789062"/>
       <use xlink:href="#DejaVuSans-30" x="147.412109"/>
       <use xlink:href="#DejaVuSans-30" x="211.035156"/>
       <use xlink:href="#DejaVuSans-2e" x="274.658203"/>
       <use xlink:href="#DejaVuSans-34" x="306.445312"/>
       <use xlink:href="#DejaVuSans-31" x="370.068359"/>
      </g>
     </g>
    </g>
    <g id="xtick_3">
     <g id="line2d_3">
      <g>
       <use xlink:href="#m076e8dcdfe" x="267.068946" y="307.584" style="stroke: #000000; stroke-width: 0.8"/>
      </g>
     </g>
     <g id="text_3">
      <!-- −100.40 -->
      <g transform="translate(245.38379 322.182437) scale(0.1 -0.1)">
       <use xlink:href="#DejaVuSans-2212"/>
       <use xlink:href="#DejaVuSans-31" x="83.789062"/>
       <use xlink:href="#DejaVuSans-30" x="147.412109"/>
       <use xlink:href="#DejaVuSans-30" x="211.035156"/>
       <use xlink:href="#DejaVuSans-2e" x="274.658203"/>
       <use xlink:href="#DejaVuSans-34" x="306.445312"/>
       <use xlink:href="#DejaVuSans-30" x="370.068359"/>
      </g>
     </g>
    </g>
    <g id="xtick_4">
     <g id="line2d_4">
      <g>
       <use xlink:href="#m076e8dcdfe" x="313.902842" y="307.584" style="stroke: #000000; stroke-width: 0.8"/>
      </g>
     </g>
     <g id="text_4">
      <!-- −100.39 -->
      <g transform="translate(292.217685 322.182437) scale(0.1 -0.1)">
       <defs>
        <path id="DejaVuSans-33" d="M 2597 2516 
Q 3050 2419 3304 2112 
Q 3559 1806 3559 1356 
Q 3559 666 3084 287 
Q 2609 -91 1734 -91 
Q 1441 -91 1130 -33 
Q 819 25 488 141 
L 488 750 
Q 750 597 1062 519 
Q 1375 441 1716 441 
Q 2309 441 2620 675 
Q 2931 909 2931 1356 
Q 2931 1769 2642 2001 
Q 2353 2234 1838 2234 
L 1294 2234 
L 1294 2753 
L 1863 2753 
Q 2328 2753 2575 2939 
Q 2822 3125 2822 3475 
Q 2822 3834 2567 4026 
Q 2313 4219 1838 4219 
Q 1578 4219 1281 4162 
Q 984 4106 628 3988 
L 628 4550 
Q 988 4650 1302 4700 
Q 1616 4750 1894 4750 
Q 2613 4750 3031 4423 
Q 3450 4097 3450 3541 
Q 3450 3153 3228 2886 
Q 3006 2619 2597 2516 
z
" transform="scale(0.015625)"/>
        <path id="DejaVuSans-39" d="M 703 97 
L 703 672 
Q 941 559 1184 500 
Q 1428 441 1663 441 
Q 2288 441 2617 861 
Q 2947 1281 2994 2138 
Q 2813 1869 2534 1725 
Q 2256 1581 1919 1581 
Q 1219 1581 811 2004 
Q 403 2428 403 3163 
Q 403 3881 828 4315 
Q 1253 4750 1959 4750 
Q 2769 4750 3195 4129 
Q 3622 3509 3622 2328 
Q 3622 1225 3098 567 
Q 2575 -91 1691 -91 
Q 1453 -91 1209 -44 
Q 966 3 703 97 
z
M 1959 2075 
Q 2384 2075 2632 2365 
Q 2881 2656 2881 3163 
Q 2881 3666 2632 3958 
Q 2384 4250 1959 4250 
Q 1534 4250 1286 3958 
Q 1038 3666 1038 3163 
Q 1038 2656 1286 2365 
Q 1534 2075 1959 2075 
z
" transform="scale(0.015625)"/>
       </defs>
       <use xlink:href="#DejaVuSans-2212"/>
       <use xlink:href="#DejaVuSans-31" x="83.789062"/>
       <use xlink:href="#DejaVuSans-30" x="147.412109"/>
       <use xlink:href="#DejaVuSans-30" x="211.035156"/>
       <use xlink:href="#DejaVuSans-2e" x="274.658203"/>
       <use xlink:href="#DejaVuSans-33" x="306.445312"/>
       <use xlink:href="#DejaVuSans-39" x="370.068359"/>
      </g>
     </g>
    </g>
   </g>
   <g id="matplotlib.axis_2">
    <g id="ytick_1">
     <g id="line2d_5">
      <defs>
       <path id="medbf891dd6" d="M 0 0 
L -3.5 0 
" style="stroke: #000000; stroke-width: 0.8"/>
      </defs>
      <g>
       <use xlink:href="#medbf891dd6" x="158.322599" y="259.531097" style="stroke: #000000; stroke-width: 0.8"/>
      </g>
     </g>
     <g id="text_5">
      <!-- 19.37 -->
      <g transform="translate(122.694474 263.330316) scale(0.1 -0.1)">
       <defs>
        <path id="DejaVuSans-37" d="M 525 4666 
L 3525 4666 
L 3525 4397 
L 1831 0 
L 1172 0 
L 2766 4134 
L 525 4134 
L 525 4666 
z
" transform="scale(0.015625)"/>
       </defs>
       <use xlink:href="#DejaVuSans-31"/>
       <use xlink:href="#DejaVuSans-39" x="63.623047"/>
       <use xlink:href="#DejaVuSans-2e" x="127.246094"/>
       <use xlink:href="#DejaVuSans-33" x="159.033203"/>
       <use xlink:href="#DejaVuSans-37" x="222.65625"/>
      </g>
     </g>
    </g>
    <g id="ytick_2">
     <g id="line2d_6">
      <g>
       <use xlink:href="#medbf891dd6" x="158.322599" y="209.881962" style="stroke: #000000; stroke-width: 0.8"/>
      </g>
     </g>
     <g id="text_6">
      <!-- 19.38 -->
      <g transform="translate(122.694474 213.681181) scale(0.1 -0.1)">
       <defs>
        <path id="DejaVuSans-38" d="M 2034 2216 
Q 1584 2216 1326 1975 
Q 1069 1734 1069 1313 
Q 1069 891 1326 650 
Q 1584 409 2034 409 
Q 2484 409 2743 651 
Q 3003 894 3003 1313 
Q 3003 1734 2745 1975 
Q 2488 2216 2034 2216 
z
M 1403 2484 
Q 997 2584 770 2862 
Q 544 3141 544 3541 
Q 544 4100 942 4425 
Q 1341 4750 2034 4750 
Q 2731 4750 3128 4425 
Q 3525 4100 3525 3541 
Q 3525 3141 3298 2862 
Q 3072 2584 2669 2484 
Q 3125 2378 3379 2068 
Q 3634 1759 3634 1313 
Q 3634 634 3220 271 
Q 2806 -91 2034 -91 
Q 1263 -91 848 271 
Q 434 634 434 1313 
Q 434 1759 690 2068 
Q 947 2378 1403 2484 
z
M 1172 3481 
Q 1172 3119 1398 2916 
Q 1625 2713 2034 2713 
Q 2441 2713 2670 2916 
Q 2900 3119 2900 3481 
Q 2900 3844 2670 4047 
Q 2441 4250 2034 4250 
Q 1625 4250 1398 4047 
Q 1172 3844 1172 3481 
z
" transform="scale(0.015625)"/>
       </defs>
       <use xlink:href="#DejaVuSans-31"/>
       <use xlink:href="#DejaVuSans-39" x="63.623047"/>
       <use xlink:href="#DejaVuSans-2e" x="127.246094"/>
       <use xlink:href="#DejaVuSans-33" x="159.033203"/>
       <use xlink:href="#DejaVuSans-38" x="222.65625"/>
      </g>
     </g>
    </g>
    <g id="ytick_3">
     <g id="line2d_7">
      <g>
       <use xlink:href="#medbf891dd6" x="158.322599" y="160.232826" style="stroke: #000000; stroke-width: 0.8"/>
      </g>
     </g>
     <g id="text_7">
      <!-- 19.39 -->
      <g transform="translate(122.694474 164.032045) scale(0.1 -0.1)">
       <use xlink:href="#DejaVuSans-31"/>
       <use xlink:href="#DejaVuSans-39" x="63.623047"/>
       <use xlink:href="#DejaVuSans-2e" x="127.246094"/>
       <use xlink:href="#DejaVuSans-33" x="159.033203"/>
       <use xlink:href="#DejaVuSans-39" x="222.65625"/>
      </g>
     </g>
    </g>
    <g id="ytick_4">
     <g id="line2d_8">
      <g>
       <use xlink:href="#medbf891dd6" x="158.322599" y="110.583691" style="stroke: #000000; stroke-width: 0.8"/>
      </g>
     </g>
     <g id="text_8">
      <!-- 19.40 -->
      <g transform="translate(122.694474 114.38291) scale(0.1 -0.1)">
       <use xlink:href="#DejaVuSans-31"/>
       <use xlink:href="#DejaVuSans-39" x="63.623047"/>
       <use xlink:href="#DejaVuSans-2e" x="127.246094"/>
       <use xlink:href="#DejaVuSans-34" x="159.033203"/>
       <use xlink:href="#DejaVuSans-30" x="222.65625"/>
      </g>
     </g>
    </g>
    <g id="ytick_5">
     <g id="line2d_9">
      <g>
       <use xlink:href="#medbf891dd6" x="158.322599" y="60.934555" style="stroke: #000000; stroke-width: 0.8"/>
      </g>
     </g>
     <g id="text_9">
      <!-- 19.41 -->
      <g transform="translate(122.694474 64.733774) scale(0.1 -0.1)">
       <use xlink:href="#DejaVuSans-31"/>
       <use xlink:href="#DejaVuSans-39" x="63.623047"/>
       <use xlink:href="#DejaVuSans-2e" x="127.246094"/>
       <use xlink:href="#DejaVuSans-34" x="159.033203"/>
       <use xlink:href="#DejaVuSans-31" x="222.65625"/>
      </g>
     </g>
    </g>
   </g>
   <g id="patch_3">
    <path d="M 158.322599 307.584 
L 158.322599 41.472 
" style="fill: none; stroke: #000000; stroke-width: 0.8; stroke-linejoin: miter; stroke-linecap: square"/>
   </g>
   <g id="patch_4">
    <path d="M 313.997401 307.584 
L 313.997401 41.472 
" style="fill: none; stroke: #000000; stroke-width: 0.8; stroke-linejoin: miter; stroke-linecap: square"/>
   </g>
   <g id="patch_5">
    <path d="M 158.322599 307.584 
L 313.997401 307.584 
" style="fill: none; stroke: #000000; stroke-width: 0.8; stroke-linejoin: miter; stroke-linecap: square"/>
   </g>
   <g id="patch_6">
    <path d="M 158.322599 41.472 
L 313.997401 41.472 
" style="fill: none; stroke: #000000; stroke-width: 0.8; stroke-linejoin: miter; stroke-linecap: square"/>
   </g>
   <g id="text_10">
    <!-- presa_elbosque_hehaviour in 2019 -->
    <g transform="translate(131.571563 35.472) scale(0.12 -0.12)">
     <defs>
      <path id="DejaVuSans-70" d="M 1159 525 
L 1159 -1331 
L 581 -1331 
L 581 3500 
L 1159 3500 
L 1159 2969 
Q 1341 3281 1617 3432 
Q 1894 3584 2278 3584 
Q 2916 3584 3314 3078 
Q 3713 2572 3713 1747 
Q 3713 922 3314 415 
Q 2916 -91 2278 -91 
Q 1894 -91 1617 61 
Q 1341 213 1159 525 
z
M 3116 1747 
Q 3116 2381 2855 2742 
Q 2594 3103 2138 3103 
Q 1681 3103 1420 2742 
Q 1159 2381 1159 1747 
Q 1159 1113 1420 752 
Q 1681 391 2138 391 
Q 2594 391 2855 752 
Q 3116 1113 3116 1747 
z
" transform="scale(0.015625)"/>
      <path id="DejaVuSans-72" d="M 2631 2963 
Q 2534 3019 2420 3045 
Q 2306 3072 2169 3072 
Q 1681 3072 1420 2755 
Q 1159 2438 1159 1844 
L 1159 0 
L 581 0 
L 581 3500 
L 1159 3500 
L 1159 2956 
Q 1341 3275 1631 3429 
Q 1922 3584 2338 3584 
Q 2397 3584 2469 3576 
Q 2541 3569 2628 3553 
L 2631 2963 
z
" transform="scale(0.015625)"/>
      <path id="DejaVuSans-65" d="M 3597 1894 
L 3597 1613 
L 953 1613 
Q 991 1019 1311 708 
Q 1631 397 2203 397 
Q 2534 397 2845 478 
Q 3156 559 3463 722 
L 3463 178 
Q 3153 47 2828 -22 
Q 2503 -91 2169 -91 
Q 1331 -91 842 396 
Q 353 884 353 1716 
Q 353 2575 817 3079 
Q 1281 3584 2069 3584 
Q 2775 3584 3186 3129 
Q 3597 2675 3597 1894 
z
M 3022 2063 
Q 3016 2534 2758 2815 
Q 2500 3097 2075 3097 
Q 1594 3097 1305 2825 
Q 1016 2553 972 2059 
L 3022 2063 
z
" transform="scale(0.015625)"/>
      <path id="DejaVuSans-73" d="M 2834 3397 
L 2834 2853 
Q 2591 2978 2328 3040 
Q 2066 3103 1784 3103 
Q 1356 3103 1142 2972 
Q 928 2841 928 2578 
Q 928 2378 1081 2264 
Q 1234 2150 1697 2047 
L 1894 2003 
Q 2506 1872 2764 1633 
Q 3022 1394 3022 966 
Q 3022 478 2636 193 
Q 2250 -91 1575 -91 
Q 1294 -91 989 -36 
Q 684 19 347 128 
L 347 722 
Q 666 556 975 473 
Q 1284 391 1588 391 
Q 1994 391 2212 530 
Q 2431 669 2431 922 
Q 2431 1156 2273 1281 
Q 2116 1406 1581 1522 
L 1381 1569 
Q 847 1681 609 1914 
Q 372 2147 372 2553 
Q 372 3047 722 3315 
Q 1072 3584 1716 3584 
Q 2034 3584 2315 3537 
Q 2597 3491 2834 3397 
z
" transform="scale(0.015625)"/>
      <path id="DejaVuSans-61" d="M 2194 1759 
Q 1497 1759 1228 1600 
Q 959 1441 959 1056 
Q 959 750 1161 570 
Q 1363 391 1709 391 
Q 2188 391 2477 730 
Q 2766 1069 2766 1631 
L 2766 1759 
L 2194 1759 
z
M 3341 1997 
L 3341 0 
L 2766 0 
L 2766 531 
Q 2569 213 2275 61 
Q 1981 -91 1556 -91 
Q 1019 -91 701 211 
Q 384 513 384 1019 
Q 384 1609 779 1909 
Q 1175 2209 1959 2209 
L 2766 2209 
L 2766 2266 
Q 2766 2663 2505 2880 
Q 2244 3097 1772 3097 
Q 1472 3097 1187 3025 
Q 903 2953 641 2809 
L 641 3341 
Q 956 3463 1253 3523 
Q 1550 3584 1831 3584 
Q 2591 3584 2966 3190 
Q 3341 2797 3341 1997 
z
" transform="scale(0.015625)"/>
      <path id="DejaVuSans-5f" d="M 3263 -1063 
L 3263 -1509 
L -63 -1509 
L -63 -1063 
L 3263 -1063 
z
" transform="scale(0.015625)"/>
      <path id="DejaVuSans-6c" d="M 603 4863 
L 1178 4863 
L 1178 0 
L 603 0 
L 603 4863 
z
" transform="scale(0.015625)"/>
      <path id="DejaVuSans-62" d="M 3116 1747 
Q 3116 2381 2855 2742 
Q 2594 3103 2138 3103 
Q 1681 3103 1420 2742 
Q 1159 2381 1159 1747 
Q 1159 1113 1420 752 
Q 1681 391 2138 391 
Q 2594 391 2855 752 
Q 3116 1113 3116 1747 
z
M 1159 2969 
Q 1341 3281 1617 3432 
Q 1894 3584 2278 3584 
Q 2916 3584 3314 3078 
Q 3713 2572 3713 1747 
Q 3713 922 3314 415 
Q 2916 -91 2278 -91 
Q 1894 -91 1617 61 
Q 1341 213 1159 525 
L 1159 0 
L 581 0 
L 581 4863 
L 1159 4863 
L 1159 2969 
z
" transform="scale(0.015625)"/>
      <path id="DejaVuSans-6f" d="M 1959 3097 
Q 1497 3097 1228 2736 
Q 959 2375 959 1747 
Q 959 1119 1226 758 
Q 1494 397 1959 397 
Q 2419 397 2687 759 
Q 2956 1122 2956 1747 
Q 2956 2369 2687 2733 
Q 2419 3097 1959 3097 
z
M 1959 3584 
Q 2709 3584 3137 3096 
Q 3566 2609 3566 1747 
Q 3566 888 3137 398 
Q 2709 -91 1959 -91 
Q 1206 -91 779 398 
Q 353 888 353 1747 
Q 353 2609 779 3096 
Q 1206 3584 1959 3584 
z
" transform="scale(0.015625)"/>
      <path id="DejaVuSans-71" d="M 947 1747 
Q 947 1113 1208 752 
Q 1469 391 1925 391 
Q 2381 391 2643 752 
Q 2906 1113 2906 1747 
Q 2906 2381 2643 2742 
Q 2381 3103 1925 3103 
Q 1469 3103 1208 2742 
Q 947 2381 947 1747 
z
M 2906 525 
Q 2725 213 2448 61 
Q 2172 -91 1784 -91 
Q 1150 -91 751 415 
Q 353 922 353 1747 
Q 353 2572 751 3078 
Q 1150 3584 1784 3584 
Q 2172 3584 2448 3432 
Q 2725 3281 2906 2969 
L 2906 3500 
L 3481 3500 
L 3481 -1331 
L 2906 -1331 
L 2906 525 
z
" transform="scale(0.015625)"/>
      <path id="DejaVuSans-75" d="M 544 1381 
L 544 3500 
L 1119 3500 
L 1119 1403 
Q 1119 906 1312 657 
Q 1506 409 1894 409 
Q 2359 409 2629 706 
Q 2900 1003 2900 1516 
L 2900 3500 
L 3475 3500 
L 3475 0 
L 2900 0 
L 2900 538 
Q 2691 219 2414 64 
Q 2138 -91 1772 -91 
Q 1169 -91 856 284 
Q 544 659 544 1381 
z
M 1991 3584 
L 1991 3584 
z
" transform="scale(0.015625)"/>
      <path id="DejaVuSans-68" d="M 3513 2113 
L 3513 0 
L 2938 0 
L 2938 2094 
Q 2938 2591 2744 2837 
Q 2550 3084 2163 3084 
Q 1697 3084 1428 2787 
Q 1159 2491 1159 1978 
L 1159 0 
L 581 0 
L 581 4863 
L 1159 4863 
L 1159 2956 
Q 1366 3272 1645 3428 
Q 1925 3584 2291 3584 
Q 2894 3584 3203 3211 
Q 3513 2838 3513 2113 
z
" transform="scale(0.015625)"/>
      <path id="DejaVuSans-76" d="M 191 3500 
L 800 3500 
L 1894 563 
L 2988 3500 
L 3597 3500 
L 2284 0 
L 1503 0 
L 191 3500 
z
" transform="scale(0.015625)"/>
      <path id="DejaVuSans-69" d="M 603 3500 
L 1178 3500 
L 1178 0 
L 603 0 
L 603 3500 
z
M 603 4863 
L 1178 4863 
L 1178 4134 
L 603 4134 
L 603 4863 
z
" transform="scale(0.015625)"/>
      <path id="DejaVuSans-20" transform="scale(0.015625)"/>
      <path id="DejaVuSans-6e" d="M 3513 2113 
L 3513 0 
L 2938 0 
L 2938 2094 
Q 2938 2591 2744 2837 
Q 2550 3084 2163 3084 
Q 1697 3084 1428 2787 
Q 1159 2491 1159 1978 
L 1159 0 
L 581 0 
L 581 3500 
L 1159 3500 
L 1159 2956 
Q 1366 3272 1645 3428 
Q 1925 3584 2291 3584 
Q 2894 3584 3203 3211 
Q 3513 2838 3513 2113 
z
" transform="scale(0.015625)"/>
     </defs>
     <use xlink:href="#DejaVuSans-70"/>
     <use xlink:href="#DejaVuSans-72" x="63.476562"/>
     <use xlink:href="#DejaVuSans-65" x="102.339844"/>
     <use xlink:href="#DejaVuSans-73" x="163.863281"/>
     <use xlink:href="#DejaVuSans-61" x="215.962891"/>
     <use xlink:href="#DejaVuSans-5f" x="277.242188"/>
     <use xlink:href="#DejaVuSans-65" x="327.242188"/>
     <use xlink:href="#DejaVuSans-6c" x="388.765625"/>
     <use xlink:href="#DejaVuSans-62" x="416.548828"/>
     <use xlink:href="#DejaVuSans-6f" x="480.025391"/>
     <use xlink:href="#DejaVuSans-73" x="541.207031"/>
     <use xlink:href="#DejaVuSans-71" x="593.306641"/>
     <use xlink:href="#DejaVuSans-75" x="656.783203"/>
     <use xlink:href="#DejaVuSans-65" x="720.162109"/>
     <use xlink:href="#DejaVuSans-5f" x="781.685547"/>
     <use xlink:href="#DejaVuSans-68" x="831.685547"/>
     <use xlink:href="#DejaVuSans-65" x="895.064453"/>
     <use xlink:href="#DejaVuSans-68" x="956.587891"/>
     <use xlink:href="#DejaVuSans-61" x="1019.966797"/>
     <use xlink:href="#DejaVuSans-76" x="1081.246094"/>
     <use xlink:href="#DejaVuSans-69" x="1140.425781"/>
     <use xlink:href="#DejaVuSans-6f" x="1168.208984"/>
     <use xlink:href="#DejaVuSans-75" x="1229.390625"/>
     <use xlink:href="#DejaVuSans-72" x="1292.769531"/>
     <use xlink:href="#DejaVuSans-20" x="1333.882812"/>
     <use xlink:href="#DejaVuSans-69" x="1365.669922"/>
     <use xlink:href="#DejaVuSans-6e" x="1393.453125"/>
     <use xlink:href="#DejaVuSans-20" x="1456.832031"/>
     <use xlink:href="#DejaVuSans-32" x="1488.619141"/>
     <use xlink:href="#DejaVuSans-30" x="1552.242188"/>
     <use xlink:href="#DejaVuSans-31" x="1615.865234"/>
     <use xlink:href="#DejaVuSans-39" x="1679.488281"/>
    </g>
   </g>
  </g>
 </g>
 <defs>
  <clipPath id="pe286d600fe">
   <rect x="158.322599" y="41.472" width="155.674802" height="266.112"/>
  </clipPath>
 </defs>
</svg>
