<?xml version="1.0" encoding="utf-8" standalone="no"?>
<!DOCTYPE svg PUBLIC "-//W3C//DTD SVG 1.1//EN"
  "http://www.w3.org/Graphics/SVG/1.1/DTD/svg11.dtd">
<svg xmlns:xlink="http://www.w3.org/1999/xlink" width="460.8pt" height="345.6pt" viewBox="0 0 460.8 345.6" xmlns="http://www.w3.org/2000/svg" version="1.1">
 <metadata>
  <rdf:RDF xmlns:dc="http://purl.org/dc/elements/1.1/" xmlns:cc="http://creativecommons.org/ns#" xmlns:rdf="http://www.w3.org/1999/02/22-rdf-syntax-ns#">
   <cc:Work>
    <dc:type rdf:resource="http://purl.org/dc/dcmitype/StillImage"/>
    <dc:date>2024-03-22T17:57:32.159790</dc:date>
    <dc:format>image/svg+xml</dc:format>
    <dc:creator>
     <cc:Agent>
      <dc:title>Matplotlib v3.8.0, https://matplotlib.org/</dc:title>
     </cc:Agent>
    </dc:creator>
   </cc:Work>
  </rdf:RDF>
 </metadata>
 <defs>
  <style type="text/css">*{stroke-linejoin: round; stroke-linecap: butt}</style>
 </defs>
 <g id="figure_1">
  <g id="patch_1">
   <path d="M 0 345.6 
L 460.8 345.6 
L 460.8 0 
L 0 0 
z
" style="fill: #ffffff"/>
  </g>
  <g id="axes_1">
   <g id="patch_2">
    <path d="M 158.322599 307.584 
L 313.997401 307.584 
L 313.997401 41.472 
L 158.322599 41.472 
z
" style="fill: #ffffff"/>
   </g>
   <g id="PatchCollection_1">
    <path d="M 174.198647 183.713507 
L 175.022728 182.589214 
L 176.396926 182.732114 
L 177.22101 181.607824 
L 176.670897 180.340632 
L 177.494985 179.216342 
L 176.94487 177.949147 
L 175.570663 177.806243 
L 175.020542 176.539047 
L 173.646329 176.396146 
L 173.096203 175.128948 
L 171.721984 174.986049 
L 170.897896 176.110349 
L 169.523676 175.967454 
L 168.973539 174.700257 
L 167.599313 174.557364 
L 167.04917 173.290166 
L 167.873258 172.165858 
L 167.323113 170.898657 
L 165.948877 170.755764 
L 165.398726 169.488562 
L 166.222817 168.364251 
L 165.672665 167.097046 
L 166.496759 165.972734 
L 165.946605 164.705526 
L 166.770703 163.581214 
L 168.144953 163.724113 
L 168.969054 162.599804 
L 168.418904 161.332592 
L 169.243008 160.208283 
L 168.692856 158.941069 
L 169.516964 157.816759 
L 168.966811 156.549542 
L 169.790922 155.425231 
L 169.240768 154.158012 
L 170.064882 153.033701 
L 169.514726 151.766479 
L 168.140452 151.623569 
L 167.59029 150.356346 
L 168.414408 149.232031 
L 167.864245 147.964805 
L 168.688366 146.84049 
L 168.138201 145.573261 
L 168.962325 144.448946 
L 168.41216 143.181715 
L 169.236287 142.057398 
L 168.68612 140.790165 
L 169.510251 139.665848 
L 168.960082 138.398612 
L 169.784217 137.274294 
L 169.234047 136.007056 
L 170.058184 134.882738 
L 169.508013 133.615497 
L 170.332154 132.491178 
L 169.781981 131.223934 
L 170.606126 130.099616 
L 170.055952 128.832369 
L 170.880099 127.70805 
L 170.329924 126.440801 
L 171.154075 125.316481 
L 170.603898 124.04923 
L 171.428053 122.924909 
L 170.877874 121.657655 
L 171.702032 120.533335 
L 171.151853 119.266078 
L 169.777511 119.123143 
L 169.227326 117.855885 
L 170.051486 116.73156 
L 169.5013 115.464299 
L 170.325464 114.339975 
L 169.775276 113.072711 
L 170.599443 111.948386 
L 170.049254 110.68112 
L 170.873425 109.556794 
L 170.323234 108.289526 
L 168.948867 108.146584 
L 168.39867 106.879315 
L 169.222845 105.754985 
L 168.672646 104.487713 
L 169.496824 103.363382 
L 168.946624 102.096107 
L 169.770805 100.971777 
L 169.220604 99.704499 
L 170.044788 98.580168 
L 169.494586 97.312888 
L 170.318773 96.188556 
L 169.76857 94.921274 
L 170.592761 93.796941 
L 171.967156 93.939895 
L 172.79135 92.815566 
L 172.24115 91.54828 
L 173.065347 90.42395 
L 172.515145 89.156661 
L 171.140741 89.013703 
L 170.590533 87.746412 
L 171.414734 86.622079 
L 170.864525 85.354786 
L 171.688729 84.230452 
L 171.138518 82.963156 
L 171.962726 81.838822 
L 171.412514 80.571524 
L 170.03809 80.428561 
L 169.487872 79.161262 
L 170.312083 78.036924 
L 169.761863 76.769622 
L 170.586078 75.645283 
L 170.035857 74.377978 
L 170.860074 73.253639 
L 170.309852 71.986332 
L 171.134073 70.861992 
L 170.58385 69.594682 
L 171.408074 68.470342 
L 172.782522 68.613315 
L 173.60675 67.488978 
L 173.05653 66.221664 
L 173.880761 65.097326 
L 173.33054 63.83001 
L 174.154774 62.705672 
L 175.529231 62.848653 
L 176.353469 61.724318 
L 175.803251 60.456998 
L 176.627492 59.332662 
L 178.001953 59.47565 
L 178.826198 58.351317 
L 178.275983 57.083993 
L 179.100231 55.95966 
L 178.550014 54.692334 
L 179.374266 53.568 
L 180.748735 53.710996 
L 181.298947 54.978324 
L 182.67341 55.121323 
L 183.223616 56.38865 
L 182.399364 57.512976 
L 182.949569 58.7803 
L 184.324022 58.923299 
L 184.87422 60.190622 
L 186.248667 60.333623 
L 186.79886 61.600944 
L 188.173301 61.743947 
L 188.723488 63.011267 
L 190.097923 63.154272 
L 190.648104 64.421591 
L 192.022534 64.564599 
L 192.572709 65.831917 
L 193.947132 65.974926 
L 194.497301 67.242242 
L 193.673051 68.366548 
L 194.223219 69.633862 
L 195.597632 69.776872 
L 196.147794 71.044184 
L 197.522201 71.187196 
L 198.072357 72.454507 
L 199.446758 72.597521 
L 199.996908 73.864831 
L 201.371304 74.007847 
L 201.921448 75.275156 
L 203.295838 75.418174 
L 203.845976 76.685482 
L 205.22036 76.828502 
L 205.770492 78.095809 
L 204.946244 79.220093 
L 205.496375 80.487397 
L 206.870748 80.630417 
L 207.420873 81.89772 
L 208.795241 82.040742 
L 209.345359 83.308044 
L 210.719721 83.451068 
L 211.269834 84.718368 
L 212.64419 84.861395 
L 213.194297 86.128694 
L 214.568647 86.271723 
L 215.118748 87.53902 
L 216.493093 87.682052 
L 217.317341 86.557788 
L 216.767245 85.290489 
L 217.591497 84.166225 
L 218.965845 84.309262 
L 219.790101 83.185001 
L 219.240008 81.917698 
L 220.064267 80.793436 
L 221.438619 80.93648 
L 222.262881 79.812221 
L 221.712791 78.544915 
L 222.537057 77.420655 
L 221.986966 76.153346 
L 222.811235 75.029086 
L 224.185595 75.172139 
L 224.735682 76.439449 
L 226.110037 76.582504 
L 226.660117 77.849813 
L 228.034466 77.99287 
L 228.584541 79.260178 
L 227.760271 80.384428 
L 228.310345 81.651733 
L 229.684683 81.79479 
L 230.23475 83.062094 
L 231.609083 83.205153 
L 232.159144 84.472456 
L 231.334878 85.596698 
L 231.884938 86.863998 
L 233.25926 87.007058 
L 234.083527 85.882819 
L 233.533471 84.615517 
L 234.357741 83.491278 
L 235.732067 83.634343 
L 236.556341 82.510107 
L 236.006288 81.242802 
L 236.830565 80.118565 
L 238.204895 80.261637 
L 239.029175 79.137403 
L 240.403504 79.280479 
L 241.227788 78.156248 
L 242.602115 78.299329 
L 243.426403 77.175101 
L 242.876363 75.907789 
L 243.700654 74.783561 
L 245.074985 74.926648 
L 245.899279 73.802422 
L 247.273609 73.945514 
L 248.097907 72.821291 
L 249.472236 72.964387 
L 250.296538 71.840167 
L 251.670866 71.983267 
L 252.495171 70.859051 
L 253.869498 71.002155 
L 254.693806 69.877941 
L 254.143788 68.61062 
L 254.9681 67.486406 
L 254.41808 66.219083 
L 255.242395 65.094868 
L 254.692374 63.827542 
L 255.516693 62.703327 
L 254.96667 61.435998 
L 255.790992 60.311783 
L 255.240968 59.044452 
L 256.065294 57.920236 
L 257.439643 58.063355 
L 257.989663 59.330687 
L 259.364007 59.473809 
L 260.188336 58.349599 
L 261.562678 58.492725 
L 262.112687 59.760058 
L 263.487024 59.903185 
L 264.311357 58.778982 
L 265.685693 58.922114 
L 266.510029 57.797914 
L 267.884364 57.94105 
L 268.434358 59.208385 
L 269.808687 59.351523 
L 270.358674 60.618856 
L 271.732998 60.761996 
L 272.282979 62.029328 
L 271.458643 63.153518 
L 272.008623 64.420847 
L 273.382936 64.563987 
L 273.93291 65.831315 
L 275.307217 65.974458 
L 275.857185 67.241785 
L 277.231487 67.38493 
L 277.781449 68.652255 
L 276.957115 69.776434 
L 277.507076 71.043756 
L 278.881367 71.186901 
L 279.431322 72.454223 
L 278.606991 73.578398 
L 279.156945 74.845717 
L 280.531225 74.988862 
L 281.081173 76.256179 
L 282.455447 76.399326 
L 283.005389 77.666643 
L 284.379657 77.809792 
L 284.929593 79.077107 
L 286.303856 79.220259 
L 286.853786 80.487572 
L 288.228043 80.630726 
L 288.777967 81.898038 
L 290.152218 82.041194 
L 290.702136 83.308506 
L 292.076381 83.451664 
L 292.626293 84.718974 
L 294.000533 84.862134 
L 294.550439 86.129442 
L 295.924673 86.272605 
L 296.474573 87.539912 
L 297.848801 87.683077 
L 298.398695 88.950383 
L 299.772917 89.09355 
L 300.322805 90.360854 
L 301.697022 90.504023 
L 302.246904 91.771327 
L 301.422574 92.89546 
L 301.972455 94.162761 
L 303.346661 94.30593 
L 303.896536 95.57323 
L 303.07221 96.697359 
L 303.622083 97.964656 
L 302.797761 99.088785 
L 303.347633 100.35608 
L 304.721823 100.499247 
L 305.27169 101.76654 
L 304.44737 102.890665 
L 304.997235 104.157956 
L 306.371415 104.301123 
L 306.921274 105.568412 
L 306.096957 106.692533 
L 306.646815 107.95982 
L 305.822502 109.083941 
L 306.372358 110.351225 
L 305.548048 111.475345 
L 306.097903 112.742627 
L 305.273597 113.866747 
L 305.82345 115.134026 
L 304.999147 116.258145 
L 303.624991 116.114989 
L 302.800691 117.239111 
L 303.350548 118.506386 
L 302.526252 119.630508 
L 303.076107 120.897781 
L 302.251814 122.021902 
L 300.877666 121.878754 
L 300.053377 123.002879 
L 300.603236 124.270147 
L 299.77895 125.394271 
L 298.404806 125.25113 
L 297.580523 126.375257 
L 296.206378 126.23212 
L 295.382099 127.35625 
L 294.007953 127.213117 
L 293.183678 128.33725 
L 291.809531 128.194121 
L 290.985259 129.318257 
L 291.535134 130.585518 
L 290.710866 131.709653 
L 289.336723 131.566531 
L 288.512458 132.690669 
L 289.062336 133.957926 
L 288.238075 135.082064 
L 288.787952 136.349318 
L 287.963694 137.473456 
L 288.51357 138.740708 
L 287.689315 139.864844 
L 288.239189 141.132094 
L 287.414938 142.25623 
L 286.040812 142.113121 
L 285.216565 143.23726 
L 285.766442 144.504505 
L 284.942198 145.628644 
L 285.492074 146.895887 
L 284.667833 148.020025 
L 283.293716 147.876925 
L 282.469478 149.001066 
L 283.019357 150.268305 
L 282.195123 151.392446 
L 280.82101 151.249351 
L 279.996779 152.373495 
L 280.546662 153.64073 
L 279.722434 154.764874 
L 280.272316 156.032106 
L 279.448092 157.156249 
L 278.073987 157.013163 
L 277.249766 158.137309 
L 277.799651 159.404537 
L 276.975434 160.528683 
L 275.601332 160.385603 
L 274.777119 161.509752 
L 275.327006 162.776976 
L 274.502796 163.901124 
L 275.052682 165.168346 
L 274.228476 166.292494 
L 272.854383 166.149423 
L 272.030179 167.273573 
L 272.580069 168.540791 
L 271.755869 169.664941 
L 272.305757 170.932157 
L 271.48156 172.056306 
L 270.107476 171.913244 
L 269.283283 173.037396 
L 269.833174 174.304608 
L 271.207254 174.447668 
L 271.757139 175.714878 
L 270.93295 176.839027 
L 271.482833 178.106234 
L 270.658647 179.230383 
L 271.20853 180.497588 
L 270.384347 181.621735 
L 270.934228 182.888938 
L 270.110048 184.013085 
L 270.659928 185.280285 
L 269.835751 186.404432 
L 270.38563 187.671629 
L 271.75968 187.814681 
L 272.309553 189.081877 
L 271.485379 190.206019 
L 272.035251 191.473213 
L 271.211081 192.597355 
L 271.76095 193.864546 
L 270.936784 194.988688 
L 271.486652 196.255876 
L 270.662489 197.380017 
L 271.212356 198.647203 
L 270.388196 199.771344 
L 269.01417 199.628303 
L 268.190014 200.752447 
L 268.739884 202.019628 
L 267.915731 203.143772 
L 268.4656 204.410951 
L 267.64145 205.535094 
L 268.191318 206.80227 
L 267.367172 207.926413 
L 267.917038 209.193587 
L 269.291045 209.336619 
L 269.840905 210.603792 
L 269.016762 211.727931 
L 269.566621 212.995101 
L 270.940618 213.138133 
L 271.490471 214.405302 
L 270.666331 215.529437 
L 271.216183 216.796603 
L 272.590169 216.939636 
L 273.140014 218.206801 
L 272.315878 219.330932 
L 272.865722 220.598094 
L 274.239698 220.741127 
L 274.789536 222.008288 
L 273.965403 223.132415 
L 274.515239 224.399573 
L 273.691109 225.523699 
L 274.240945 226.790855 
L 275.614905 226.933886 
L 276.164735 228.201041 
L 275.340608 229.325163 
L 275.890436 230.592315 
L 277.264386 230.735346 
L 277.814208 232.002497 
L 276.990085 233.126615 
L 277.539905 234.393763 
L 276.715785 235.517881 
L 277.265604 236.785027 
L 276.441487 237.909144 
L 276.991305 239.176287 
L 276.167192 240.300404 
L 276.717008 241.567545 
L 275.892898 242.691661 
L 276.442713 243.958799 
L 275.618607 245.082915 
L 276.16842 246.35005 
L 277.542336 246.493071 
L 278.092144 247.760204 
L 277.268041 248.884317 
L 275.894129 248.741299 
L 275.070029 249.865414 
L 275.61984 251.132544 
L 274.795744 252.256659 
L 275.345553 253.523786 
L 274.52146 254.6479 
L 275.071268 255.915025 
L 274.247178 257.039139 
L 274.796985 258.306261 
L 273.972899 259.430374 
L 274.522704 260.697494 
L 273.698621 261.821607 
L 272.324732 261.678603 
L 271.500653 262.802719 
L 272.050462 264.069835 
L 271.226385 265.19395 
L 269.8525 265.050953 
L 269.028428 266.175072 
L 269.578239 267.442183 
L 268.75417 268.566301 
L 267.380289 268.423311 
L 266.556223 269.547432 
L 267.106038 270.814539 
L 266.281976 271.93866 
L 266.831789 273.205765 
L 266.00773 274.329885 
L 264.633858 274.186903 
L 263.809802 275.311026 
L 262.435928 275.168048 
L 261.611876 276.292174 
L 260.238001 276.1492 
L 259.413953 277.273329 
L 258.040077 277.13036 
L 257.490245 275.86326 
L 256.116363 275.720293 
L 255.292318 276.844428 
L 253.918436 276.701466 
L 253.094395 277.825604 
L 251.720511 277.682645 
L 250.896473 278.806787 
L 249.522588 278.663832 
L 248.972737 277.396735 
L 247.598846 277.253783 
L 246.774812 278.377931 
L 245.40092 278.234983 
L 244.57689 279.359133 
L 243.202997 279.21619 
L 242.37897 280.340344 
L 241.005077 280.197404 
L 240.181053 281.321561 
L 238.807158 281.178626 
L 237.983138 282.302785 
L 236.609243 282.159855 
L 235.785226 283.284017 
L 234.411329 283.141091 
L 233.587316 284.265256 
L 232.213419 284.122334 
L 231.389409 285.246502 
L 230.01551 285.103584 
L 229.191504 286.227756 
L 227.817604 286.084842 
L 226.993602 287.209016 
L 227.5435 288.4761 
L 226.719501 289.600274 
L 225.345604 289.457367 
L 224.521609 290.581544 
L 223.147712 290.438641 
L 222.32372 291.56282 
L 220.949821 291.419922 
L 220.125833 292.544104 
L 218.751934 292.40121 
L 217.927949 293.525396 
L 216.554048 293.382506 
L 215.730067 294.506694 
L 214.356166 294.363809 
L 213.532188 295.488 
L 212.158285 295.345119 
L 211.608356 294.078044 
L 210.234448 293.935165 
L 209.684512 292.668089 
L 210.50849 291.54389 
L 209.958553 290.276812 
L 208.584634 290.133932 
L 208.034692 288.866852 
L 206.660767 288.723976 
L 206.110818 287.456894 
L 204.736888 287.314019 
L 204.186933 286.046937 
L 202.812997 285.904064 
L 202.263037 284.63698 
L 203.087017 283.512768 
L 202.537055 282.245682 
L 203.361038 281.121469 
L 202.811075 279.85438 
L 203.635062 278.730166 
L 203.085097 277.463075 
L 201.711141 277.320198 
L 201.16117 276.053105 
L 201.98516 274.928887 
L 201.435188 273.661792 
L 202.259182 272.537574 
L 201.709208 271.270476 
L 202.533205 270.146258 
L 201.98323 268.879157 
L 202.80723 267.754938 
L 202.257254 266.487835 
L 200.883273 266.344952 
L 200.333291 265.077847 
L 201.157294 263.953625 
L 200.607311 262.686517 
L 201.431318 261.562294 
L 200.881333 260.295185 
L 201.705343 259.170961 
L 201.155356 257.903849 
L 201.97937 256.779624 
L 201.429382 255.51251 
L 202.253399 254.388285 
L 201.70341 253.121167 
L 202.52743 251.996942 
L 201.97744 250.729822 
L 202.801463 249.605597 
L 204.175477 249.748495 
L 204.999504 248.624272 
L 204.449517 247.357148 
L 205.273548 246.232925 
L 204.723559 244.965798 
L 205.547593 243.841575 
L 206.921615 243.984481 
L 207.745653 242.860261 
L 207.195667 241.59313 
L 208.019708 240.468909 
L 209.393734 240.611822 
L 210.217778 239.487604 
L 209.667796 238.220469 
L 210.491844 237.096251 
L 211.865874 237.23917 
L 212.689925 236.114954 
L 212.139946 234.847816 
L 212.964 233.7236 
L 212.41402 232.456459 
L 213.238078 231.332242 
L 214.612116 231.47517 
L 215.436177 230.350956 
L 214.8862 229.083812 
L 213.512157 228.940882 
L 212.962174 227.673735 
L 213.786238 226.549518 
L 213.236254 225.282369 
L 214.060322 224.158151 
L 213.510336 222.891 
L 214.334407 221.766781 
L 213.78442 220.499627 
L 212.410357 220.356693 
L 211.860363 219.089538 
L 210.486294 218.946606 
L 209.936295 217.67945 
L 208.56222 217.53652 
L 208.012215 216.269362 
L 206.638135 216.126435 
L 206.088123 214.859276 
L 204.714037 214.71635 
L 204.16402 213.44919 
L 204.988094 212.324954 
L 204.438075 211.057791 
L 203.063979 210.914865 
L 202.513954 209.647701 
L 203.338031 208.523461 
L 202.788005 207.256294 
L 201.413898 207.113369 
L 200.589821 208.237612 
L 199.215713 208.094691 
L 198.665676 206.827525 
L 197.291562 206.684606 
L 196.74152 205.417438 
L 195.3674 205.274521 
L 194.817352 204.007352 
L 193.443226 203.864437 
L 192.619153 204.988694 
L 191.245026 204.845784 
L 190.694967 203.578614 
L 189.320835 203.435706 
L 188.77077 202.168536 
L 187.396632 202.02563 
L 186.572563 203.149896 
L 185.198423 203.006995 
L 184.648348 201.739824 
L 183.274203 201.596925 
L 182.724122 200.329753 
L 181.349971 200.186856 
L 180.799884 198.919683 
L 179.425727 198.776788 
L 178.875634 197.509613 
L 179.699702 196.385333 
L 179.149607 195.118156 
L 177.77544 194.975261 
L 177.22534 193.708083 
L 178.049411 192.583799 
L 177.499309 191.316618 
L 176.125131 191.173723 
L 175.575024 189.906541 
L 176.399098 188.782253 
L 175.848989 187.515068 
L 174.474801 187.372173 
L 173.924685 186.104987 
L 174.748763 184.980695 
L 174.198647 183.713507 
M 256.352345 109.981678 
L 255.528086 111.105874 
L 254.153848 110.962795 
L 253.603863 109.695518 
L 252.229619 109.552441 
L 251.679629 108.285163 
L 250.305379 108.142088 
L 249.755383 106.874808 
L 248.381127 106.731736 
L 247.831125 105.464455 
L 246.456863 105.321385 
L 245.906855 104.054103 
L 246.731113 102.929889 
L 246.181103 101.662604 
L 244.806831 101.519534 
L 244.256816 100.252248 
L 242.882538 100.10918 
L 242.332516 98.841893 
L 240.958233 98.698827 
L 240.408205 97.431538 
L 239.033916 97.288474 
L 238.483882 96.021184 
L 237.109587 95.878123 
L 236.559548 94.610832 
L 235.185247 94.467772 
L 234.36099 95.592007 
L 232.986688 95.448951 
L 232.162435 96.573188 
L 230.788132 96.430138 
L 230.238077 95.162848 
L 228.863768 95.019799 
L 228.313708 93.752508 
L 226.939393 93.609462 
L 226.389327 92.342169 
L 227.213579 91.217922 
L 226.663512 89.950627 
L 225.289186 89.807581 
L 224.464934 90.931832 
L 225.015006 92.199125 
L 224.190757 93.323375 
L 222.816436 93.180336 
L 221.99219 94.304589 
L 222.542265 95.571879 
L 221.718023 96.696131 
L 220.343705 96.553098 
L 219.519467 97.677354 
L 218.145148 97.534324 
L 217.320913 98.658583 
L 215.946593 98.515558 
L 215.122361 99.63982 
L 213.74804 99.496799 
L 212.923812 100.621064 
L 211.54949 100.478047 
L 210.999391 99.210764 
L 209.625064 99.06775 
L 209.074959 97.800465 
L 209.899187 96.676194 
L 209.349081 95.408907 
L 207.974743 95.265893 
L 207.424631 93.998604 
L 208.248862 92.874329 
L 207.698749 91.607038 
L 206.3244 91.464024 
L 205.774281 90.196732 
L 204.399927 90.05372 
L 203.849802 88.786427 
L 204.674036 87.662144 
L 204.123909 86.394848 
L 202.749544 86.251836 
L 202.199412 84.984539 
L 203.023649 83.860252 
L 202.473515 82.592952 
L 201.09914 82.44994 
L 200.549 81.182639 
L 199.174618 81.03963 
L 198.624473 79.772327 
L 199.448713 78.648033 
L 198.898566 77.380728 
L 197.524174 77.237719 
L 196.974021 75.970412 
L 195.599623 75.827405 
L 195.049464 74.560097 
L 193.675061 74.417092 
L 193.124896 73.149783 
L 191.750486 73.00678 
L 191.200316 71.73947 
L 189.8259 71.596469 
L 189.275724 70.329158 
L 187.901303 70.186159 
L 187.35112 68.918847 
L 185.976693 68.77585 
L 185.152454 69.900168 
L 185.702641 71.167479 
L 184.878406 72.291797 
L 185.428592 73.559106 
L 184.604359 74.683423 
L 183.229941 74.540435 
L 182.405712 75.664755 
L 182.955901 76.93206 
L 182.131676 78.056379 
L 180.757261 77.913397 
L 179.933039 79.03772 
L 180.483232 80.305021 
L 181.857642 80.448 
L 182.407828 81.7153 
L 181.583609 82.839619 
L 182.133794 84.106916 
L 183.508194 84.249895 
L 184.058373 85.517191 
L 183.234157 86.641506 
L 183.784335 87.908799 
L 182.960123 89.033113 
L 181.585733 88.890138 
L 180.761524 90.014455 
L 181.311705 91.281744 
L 180.4875 92.406061 
L 181.03768 93.673348 
L 180.213478 94.797664 
L 178.839096 94.654697 
L 178.014898 95.779017 
L 178.565081 97.0463 
L 177.740886 98.170618 
L 176.366508 98.027658 
L 175.542316 99.15198 
L 176.092502 100.419259 
L 175.268314 101.54358 
L 175.818499 102.810856 
L 174.994314 103.935177 
L 175.544497 105.202451 
L 174.720316 106.326771 
L 175.270498 107.594042 
L 174.44632 108.718362 
L 174.9965 109.985631 
L 174.172325 111.10995 
L 174.722504 112.377216 
L 176.096853 112.520164 
L 176.647027 113.787429 
L 175.822855 114.911744 
L 176.373027 116.179006 
L 177.747365 116.321954 
L 178.297531 117.589215 
L 177.473363 118.713527 
L 178.023527 119.980785 
L 177.199362 121.105096 
L 177.749525 122.372352 
L 176.925364 123.496662 
L 177.475525 124.763915 
L 176.651367 125.888226 
L 177.201527 127.155476 
L 178.575841 127.298418 
L 179.125995 128.565667 
L 178.30184 129.689973 
L 176.927531 129.547034 
L 176.10338 130.671343 
L 176.653537 131.938589 
L 175.829389 133.062897 
L 174.455084 132.919964 
L 173.630939 134.044276 
L 174.1811 135.311518 
L 173.356959 136.435829 
L 173.907118 137.703068 
L 173.08298 138.827379 
L 173.633138 140.094615 
L 172.809003 141.218925 
L 173.35916 142.486159 
L 172.535029 143.610469 
L 171.160741 143.467549 
L 170.336614 144.591862 
L 170.886773 145.859091 
L 170.062649 146.983404 
L 170.612808 148.250631 
L 171.987086 148.393547 
L 172.537238 149.660773 
L 171.713117 150.785081 
L 172.263268 152.052305 
L 173.637535 152.195221 
L 174.18768 153.462443 
L 175.561942 153.605361 
L 176.112081 154.872582 
L 175.287963 155.996883 
L 175.838101 157.264101 
L 175.013986 158.388402 
L 173.639734 158.245488 
L 172.815623 159.369791 
L 173.365764 160.637006 
L 172.541656 161.761309 
L 173.091795 163.02852 
L 172.267691 164.152823 
L 170.893447 164.009918 
L 170.069346 165.134223 
L 168.695102 164.991322 
L 167.871004 166.115631 
L 168.421152 167.382837 
L 167.597058 168.507146 
L 168.147204 169.774349 
L 169.521439 169.917246 
L 170.071579 171.184449 
L 171.445808 171.327348 
L 171.995942 172.594549 
L 173.370166 172.737451 
L 174.19426 171.613153 
L 175.568483 171.756058 
L 176.118606 173.02326 
L 177.492823 173.166167 
L 178.042941 174.433368 
L 179.417152 174.576277 
L 179.967263 175.843476 
L 179.143168 176.967764 
L 179.693278 178.23496 
L 181.067479 178.37787 
L 181.617583 179.645065 
L 180.793491 180.769349 
L 181.343594 182.036541 
L 180.519506 183.160824 
L 181.069607 184.428014 
L 180.245522 185.552297 
L 178.871336 185.409393 
L 178.047254 186.533679 
L 178.597359 187.800865 
L 177.773281 188.92515 
L 178.323384 190.192333 
L 179.697561 190.335233 
L 180.247658 191.602415 
L 179.423583 192.726696 
L 179.973679 193.993875 
L 181.347845 194.136775 
L 181.897935 195.403953 
L 183.272096 195.546854 
L 183.82218 196.814031 
L 185.196334 196.956935 
L 185.746412 198.224111 
L 187.120561 198.367017 
L 187.670633 199.634191 
L 189.044776 199.777099 
L 189.868852 198.652835 
L 191.242994 198.795747 
L 191.793056 200.062922 
L 193.167192 200.205836 
L 193.717248 201.473009 
L 195.091378 201.615926 
L 195.915458 200.491672 
L 197.289587 200.634593 
L 197.839632 201.901766 
L 199.213756 202.044689 
L 200.03784 200.920441 
L 201.411962 201.063369 
L 201.961997 202.330542 
L 203.336114 202.473472 
L 203.886142 203.740643 
L 205.260253 203.883575 
L 205.810276 205.150746 
L 204.986192 206.274983 
L 205.536213 207.542152 
L 206.910314 207.685083 
L 207.460329 208.95225 
L 206.636248 210.076484 
L 207.186262 211.343648 
L 208.560352 211.48658 
L 209.11036 212.753743 
L 210.484444 212.896677 
L 211.034446 214.163838 
L 212.408525 214.306775 
L 212.958521 215.573935 
L 214.332594 215.716873 
L 214.882584 216.984033 
L 216.25665 217.126973 
L 216.806635 218.394131 
L 215.982556 219.518347 
L 216.532539 220.785502 
L 217.906596 220.928443 
L 218.456572 222.195597 
L 217.632497 223.319809 
L 218.182473 224.58696 
L 219.556519 224.729901 
L 220.106488 225.997051 
L 219.282416 227.121259 
L 219.832384 228.388407 
L 219.008316 229.512614 
L 217.63428 229.369678 
L 216.810215 230.493888 
L 217.360186 231.761032 
L 216.536124 232.885242 
L 217.086094 234.152383 
L 216.262036 235.276593 
L 216.812005 236.543731 
L 215.98795 237.667941 
L 214.613927 237.525015 
L 213.789875 238.649227 
L 214.339847 239.916362 
L 213.515799 241.040573 
L 212.14178 240.897654 
L 211.317735 242.021869 
L 211.86771 243.288999 
L 211.043669 244.413213 
L 209.669654 244.270301 
L 208.845616 245.394518 
L 209.395594 246.661644 
L 208.57156 247.785861 
L 209.121537 249.052985 
L 208.297506 250.177201 
L 208.847481 251.444323 
L 208.023454 252.568539 
L 208.573428 253.835657 
L 207.749404 254.959873 
L 208.299376 256.226989 
L 207.475356 257.351204 
L 208.025327 258.618317 
L 207.20131 259.742532 
L 207.75128 261.009643 
L 206.927266 262.133857 
L 207.477234 263.400965 
L 206.653223 264.525179 
L 207.20319 265.792284 
L 206.379183 266.916497 
L 206.929149 268.183601 
L 206.105145 269.307813 
L 206.655109 270.574914 
L 205.831109 271.699126 
L 206.381072 272.966224 
L 205.557075 274.090435 
L 206.107036 275.357531 
L 207.48099 275.500416 
L 208.030946 276.76751 
L 207.206952 277.891718 
L 207.756906 279.15881 
L 209.13085 279.301695 
L 209.680798 280.568785 
L 211.054736 280.711673 
L 211.604678 281.978762 
L 210.780687 283.102962 
L 211.330628 284.370049 
L 212.704555 284.512936 
L 213.25449 285.780022 
L 212.430502 286.904218 
L 212.980436 288.171301 
L 214.354353 288.314188 
L 214.90428 289.58127 
L 216.278191 289.724159 
L 217.102179 288.59997 
L 218.476089 288.742864 
L 219.300081 287.618678 
L 220.67399 287.761576 
L 221.497985 286.637393 
L 222.871892 286.780295 
L 223.695891 285.656115 
L 225.069798 285.799022 
L 225.8938 284.674844 
L 225.343895 283.407756 
L 226.167901 282.283578 
L 227.541811 282.426492 
L 228.36582 281.302317 
L 229.73973 281.445234 
L 230.563742 280.321062 
L 231.937651 280.463984 
L 232.761667 279.339815 
L 234.135574 279.482741 
L 234.959594 278.358575 
L 236.3335 278.501506 
L 237.157523 277.377342 
L 238.531428 277.520277 
L 239.355455 276.396117 
L 240.729359 276.539056 
L 241.55339 275.414899 
L 242.927293 275.557842 
L 243.751327 274.433688 
L 243.201457 273.166586 
L 244.025494 272.042432 
L 245.399401 272.185381 
L 246.223442 271.06123 
L 245.673575 269.794125 
L 244.299664 269.651173 
L 243.749791 268.384066 
L 244.573835 267.259911 
L 245.947752 267.402865 
L 246.771799 266.278712 
L 246.22193 265.011602 
L 247.045981 263.887448 
L 248.419901 264.030409 
L 248.969765 265.29752 
L 250.343679 265.440483 
L 251.167734 264.316336 
L 250.617874 263.049223 
L 249.243955 262.906258 
L 248.694089 261.639144 
L 249.518147 260.514993 
L 248.968279 259.247877 
L 249.79234 258.123725 
L 251.166269 258.266694 
L 251.990334 257.142546 
L 253.364261 257.285519 
L 254.188329 256.161374 
L 253.638469 254.894252 
L 254.462541 253.770106 
L 255.836472 253.913086 
L 256.660547 252.788943 
L 256.110691 251.521817 
L 256.934769 250.397674 
L 256.384911 249.130545 
L 257.208993 248.006401 
L 258.582933 248.149389 
L 259.407018 247.025249 
L 258.857163 245.758116 
L 259.681252 244.633975 
L 259.131396 243.36684 
L 259.955488 242.242698 
L 259.405631 240.975561 
L 258.031677 240.832566 
L 257.481814 239.565427 
L 258.305909 238.441282 
L 257.756044 237.17414 
L 256.38208 237.031146 
L 255.832209 235.764003 
L 256.656308 234.639853 
L 256.106436 233.372708 
L 256.930538 232.248558 
L 256.380664 230.98141 
L 255.006685 230.838414 
L 254.456805 229.571264 
L 255.28091 228.44711 
L 254.73103 227.179959 
L 253.35704 227.036962 
L 252.807153 225.769809 
L 253.631261 224.645651 
L 253.081373 223.378496 
L 251.707373 223.235499 
L 251.157479 221.968342 
L 251.98159 220.844181 
L 251.431695 219.577021 
L 250.057683 219.434025 
L 249.507782 218.166864 
L 250.331897 217.042698 
L 249.781994 215.775535 
L 248.407972 215.632538 
L 247.858064 214.365374 
L 248.682181 213.241204 
L 248.132271 211.974037 
L 248.956393 210.849867 
L 248.406481 209.582697 
L 249.230606 208.458526 
L 248.680693 207.191354 
L 249.504821 206.067183 
L 248.954907 204.800008 
L 249.779038 203.675836 
L 251.153083 203.818843 
L 251.977218 202.694675 
L 251.427307 201.427496 
L 252.251445 200.303327 
L 253.625494 200.44634 
L 254.449636 199.322174 
L 253.899728 198.054991 
L 254.723873 196.930825 
L 254.173964 195.663639 
L 254.998112 194.539472 
L 254.448202 193.272284 
L 255.272353 192.148117 
L 254.722441 190.880926 
L 255.546596 189.756758 
L 256.920663 189.899784 
L 257.470571 191.166976 
L 258.844632 191.310004 
L 259.394533 192.577195 
L 260.768589 192.720225 
L 261.592748 191.596067 
L 261.042851 190.328875 
L 261.867013 189.204717 
L 261.317115 187.937522 
L 262.141281 186.813363 
L 261.591381 185.546166 
L 260.217311 185.403129 
L 259.667406 184.135931 
L 258.29333 183.992896 
L 257.743419 182.725696 
L 258.567588 181.60153 
L 258.017675 180.334328 
L 258.841847 179.210161 
L 258.291933 177.942956 
L 259.116108 176.818788 
L 260.490198 176.961829 
L 261.314377 175.837665 
L 260.764466 174.570456 
L 261.588648 173.446291 
L 261.038736 172.17908 
L 261.862921 171.054915 
L 261.313008 169.787701 
L 259.938904 169.644653 
L 259.388984 168.377438 
L 260.213173 167.253269 
L 259.663252 165.986051 
L 260.487444 164.861881 
L 259.937521 163.594661 
L 260.761717 162.470491 
L 260.211793 161.203268 
L 261.035992 160.079097 
L 260.486067 158.811871 
L 261.310269 157.6877 
L 262.684397 157.830758 
L 263.508603 156.70659 
L 264.882729 156.849652 
L 265.432645 158.116881 
L 266.806766 158.259945 
L 267.630976 157.135783 
L 269.005095 157.278852 
L 269.829308 156.154693 
L 269.279401 154.887462 
L 270.103618 153.763303 
L 269.55371 152.49607 
L 270.377929 151.37191 
L 269.82802 150.104674 
L 270.652243 148.980514 
L 270.102332 147.713275 
L 270.926558 146.589114 
L 270.376646 145.321873 
L 271.200876 144.197712 
L 270.650962 142.930468 
L 271.475195 141.806307 
L 272.849342 141.949392 
L 273.673579 140.825234 
L 273.123669 139.557986 
L 273.947909 138.433827 
L 275.32206 138.576919 
L 276.146303 137.452763 
L 275.596396 136.185511 
L 276.420643 135.061355 
L 277.794797 135.204453 
L 278.619048 134.0803 
L 278.069144 132.813044 
L 278.893398 131.68889 
L 280.267556 131.831995 
L 281.091813 130.707844 
L 282.465971 130.850953 
L 283.290232 129.726805 
L 282.740335 128.459544 
L 283.564599 127.335396 
L 283.014702 126.068132 
L 283.838969 124.943983 
L 283.28907 123.676717 
L 284.113341 122.552568 
L 283.563441 121.285299 
L 284.387715 120.161149 
L 283.837813 118.893878 
L 284.662091 117.769728 
L 284.112188 116.502454 
L 282.738002 116.359332 
L 282.188093 115.092057 
L 280.813901 114.948937 
L 280.263986 113.681661 
L 278.889789 113.538544 
L 278.065511 114.662704 
L 276.691313 114.519591 
L 276.141387 113.252315 
L 274.767183 113.109204 
L 273.942909 114.233371 
L 272.568704 114.090264 
L 272.018768 112.822988 
L 270.644557 112.679883 
L 270.094615 111.412606 
L 268.720398 111.269503 
L 268.17045 110.002225 
L 266.796227 109.859124 
L 265.971958 110.983305 
L 264.597734 110.840209 
L 263.773468 111.964392 
L 262.399243 111.8213 
L 261.84928 110.554023 
L 260.47505 110.410934 
L 259.650787 111.535123 
L 258.276556 111.392038 
L 257.726582 110.124761 
L 256.352345 109.981678 
" clip-path="url(#pe53cd1281a)" style="fill: #a0522d"/>
    <path d="M 178.871336 185.409393 
L 180.245522 185.552297 
L 181.069607 184.428014 
L 180.519506 183.160824 
L 181.343594 182.036541 
L 180.793491 180.769349 
L 181.617583 179.645065 
L 181.067479 178.37787 
L 179.693278 178.23496 
L 179.143168 176.967764 
L 179.967263 175.843476 
L 179.417152 174.576277 
L 178.042941 174.433368 
L 177.492823 173.166167 
L 176.118606 173.02326 
L 175.568483 171.756058 
L 174.19426 171.613153 
L 173.370166 172.737451 
L 171.995942 172.594549 
L 171.445808 171.327348 
L 170.071579 171.184449 
L 169.521439 169.917246 
L 168.147204 169.774349 
L 167.597058 168.507146 
L 168.421152 167.382837 
L 167.871004 166.115631 
L 168.695102 164.991322 
L 170.069346 165.134223 
L 170.893447 164.009918 
L 172.267691 164.152823 
L 173.091795 163.02852 
L 172.541656 161.761309 
L 173.365764 160.637006 
L 172.815623 159.369791 
L 173.639734 158.245488 
L 175.013986 158.388402 
L 175.838101 157.264101 
L 175.287963 155.996883 
L 176.112081 154.872582 
L 175.561942 153.605361 
L 174.18768 153.462443 
L 173.637535 152.195221 
L 172.263268 152.052305 
L 171.713117 150.785081 
L 172.537238 149.660773 
L 171.987086 148.393547 
L 170.612808 148.250631 
L 170.062649 146.983404 
L 170.886773 145.859091 
L 170.336614 144.591862 
L 171.160741 143.467549 
L 172.535029 143.610469 
L 173.35916 142.486159 
L 172.809003 141.218925 
L 173.633138 140.094615 
L 173.08298 138.827379 
L 173.907118 137.703068 
L 173.356959 136.435829 
L 174.1811 135.311518 
L 173.630939 134.044276 
L 174.455084 132.919964 
L 175.829389 133.062897 
L 176.653537 131.938589 
L 176.10338 130.671343 
L 176.927531 129.547034 
L 178.30184 129.689973 
L 179.125995 128.565667 
L 178.575841 127.298418 
L 177.201527 127.155476 
L 176.651367 125.888226 
L 177.475525 124.763915 
L 176.925364 123.496662 
L 177.749525 122.372352 
L 177.199362 121.105096 
L 178.023527 119.980785 
L 177.473363 118.713527 
L 178.297531 117.589215 
L 177.747365 116.321954 
L 176.373027 116.179006 
L 175.822855 114.911744 
L 176.647027 113.787429 
L 176.096853 112.520164 
L 174.722504 112.377216 
L 174.172325 111.10995 
L 174.9965 109.985631 
L 174.44632 108.718362 
L 175.270498 107.594042 
L 174.720316 106.326771 
L 175.544497 105.202451 
L 174.994314 103.935177 
L 175.818499 102.810856 
L 175.268314 101.54358 
L 176.092502 100.419259 
L 175.542316 99.15198 
L 176.366508 98.027658 
L 177.740886 98.170618 
L 178.565081 97.0463 
L 178.014898 95.779017 
L 178.839096 94.654697 
L 180.213478 94.797664 
L 181.03768 93.673348 
L 180.4875 92.406061 
L 181.311705 91.281744 
L 180.761524 90.014455 
L 181.585733 88.890138 
L 182.960123 89.033113 
L 183.784335 87.908799 
L 183.234157 86.641506 
L 184.058373 85.517191 
L 183.508194 84.249895 
L 182.133794 84.106916 
L 181.583609 82.839619 
L 182.407828 81.7153 
L 181.857642 80.448 
L 180.483232 80.305021 
L 179.933039 79.03772 
L 180.757261 77.913397 
L 182.131676 78.056379 
L 182.955901 76.93206 
L 182.405712 75.664755 
L 183.229941 74.540435 
L 184.604359 74.683423 
L 185.428592 73.559106 
L 184.878406 72.291797 
L 185.702641 71.167479 
L 185.152454 69.900168 
L 185.976693 68.77585 
L 187.35112 68.918847 
L 187.901303 70.186159 
L 189.275724 70.329158 
L 189.8259 71.596469 
L 191.200316 71.73947 
L 191.750486 73.00678 
L 193.124896 73.149783 
L 193.675061 74.417092 
L 195.049464 74.560097 
L 195.599623 75.827405 
L 196.974021 75.970412 
L 197.524174 77.237719 
L 198.898566 77.380728 
L 199.448713 78.648033 
L 198.624473 79.772327 
L 199.174618 81.03963 
L 200.549 81.182639 
L 201.09914 82.44994 
L 202.473515 82.592952 
L 203.023649 83.860252 
L 202.199412 84.984539 
L 202.749544 86.251836 
L 204.123909 86.394848 
L 204.674036 87.662144 
L 203.849802 88.786427 
L 204.399927 90.05372 
L 205.774281 90.196732 
L 206.3244 91.464024 
L 207.698749 91.607038 
L 208.248862 92.874329 
L 207.424631 93.998604 
L 207.974743 95.265893 
L 209.349081 95.408907 
L 209.899187 96.676194 
L 209.074959 97.800465 
L 209.625064 99.06775 
L 210.999391 99.210764 
L 211.54949 100.478047 
L 212.923812 100.621064 
L 213.74804 99.496799 
L 215.122361 99.63982 
L 215.946593 98.515558 
L 217.320913 98.658583 
L 218.145148 97.534324 
L 219.519467 97.677354 
L 220.343705 96.553098 
L 221.718023 96.696131 
L 222.542265 95.571879 
L 221.99219 94.304589 
L 222.816436 93.180336 
L 224.190757 93.323375 
L 225.015006 92.199125 
L 224.464934 90.931832 
L 225.289186 89.807581 
L 226.663512 89.950627 
L 227.213579 91.217922 
L 226.389327 92.342169 
L 226.939393 93.609462 
L 228.313708 93.752508 
L 228.863768 95.019799 
L 230.238077 95.162848 
L 230.788132 96.430138 
L 232.162435 96.573188 
L 232.986688 95.448951 
L 234.36099 95.592007 
L 235.185247 94.467772 
L 236.559548 94.610832 
L 237.109587 95.878123 
L 238.483882 96.021184 
L 239.033916 97.288474 
L 240.408205 97.431538 
L 240.958233 98.698827 
L 242.332516 98.841893 
L 242.882538 100.10918 
L 244.256816 100.252248 
L 244.806831 101.519534 
L 246.181103 101.662604 
L 246.731113 102.929889 
L 245.906855 104.054103 
L 246.456863 105.321385 
L 247.831125 105.464455 
L 248.381127 106.731736 
L 249.755383 106.874808 
L 250.305379 108.142088 
L 251.679629 108.285163 
L 252.229619 109.552441 
L 253.603863 109.695518 
L 254.153848 110.962795 
L 255.528086 111.105874 
L 256.352345 109.981678 
L 257.726582 110.124761 
L 258.276556 111.392038 
L 259.650787 111.535123 
L 260.47505 110.410934 
L 261.84928 110.554023 
L 262.399243 111.8213 
L 263.773468 111.964392 
L 264.597734 110.840209 
L 265.971958 110.983305 
L 266.796227 109.859124 
L 268.17045 110.002225 
L 268.720398 111.269503 
L 270.094615 111.412606 
L 270.644557 112.679883 
L 272.018768 112.822988 
L 272.568704 114.090264 
L 273.942909 114.233371 
L 274.767183 113.109204 
L 276.141387 113.252315 
L 276.691313 114.519591 
L 278.065511 114.662704 
L 278.889789 113.538544 
L 280.263986 113.681661 
L 280.813901 114.948937 
L 282.188093 115.092057 
L 282.738002 116.359332 
L 284.112188 116.502454 
L 284.662091 117.769728 
L 283.837813 118.893878 
L 284.387715 120.161149 
L 283.563441 121.285299 
L 284.113341 122.552568 
L 283.28907 123.676717 
L 283.838969 124.943983 
L 283.014702 126.068132 
L 283.564599 127.335396 
L 282.740335 128.459544 
L 283.290232 129.726805 
L 282.465971 130.850953 
L 281.091813 130.707844 
L 280.267556 131.831995 
L 278.893398 131.68889 
L 278.069144 132.813044 
L 278.619048 134.0803 
L 277.794797 135.204453 
L 276.420643 135.061355 
L 275.596396 136.185511 
L 276.146303 137.452763 
L 275.32206 138.576919 
L 273.947909 138.433827 
L 273.123669 139.557986 
L 273.673579 140.825234 
L 272.849342 141.949392 
L 271.475195 141.806307 
L 270.650962 142.930468 
L 271.200876 144.197712 
L 270.376646 145.321873 
L 270.926558 146.589114 
L 270.102332 147.713275 
L 270.652243 148.980514 
L 269.82802 150.104674 
L 270.377929 151.37191 
L 269.55371 152.49607 
L 270.103618 153.763303 
L 269.279401 154.887462 
L 269.829308 156.154693 
L 269.005095 157.278852 
L 267.630976 157.135783 
L 266.806766 158.259945 
L 265.432645 158.116881 
L 264.882729 156.849652 
L 263.508603 156.70659 
L 262.684397 157.830758 
L 261.310269 157.6877 
L 260.486067 158.811871 
L 261.035992 160.079097 
L 260.211793 161.203268 
L 260.761717 162.470491 
L 259.937521 163.594661 
L 260.487444 164.861881 
L 259.663252 165.986051 
L 260.213173 167.253269 
L 259.388984 168.377438 
L 259.938904 169.644653 
L 261.313008 169.787701 
L 261.862921 171.054915 
L 261.038736 172.17908 
L 261.588648 173.446291 
L 260.764466 174.570456 
L 261.314377 175.837665 
L 260.490198 176.961829 
L 259.116108 176.818788 
L 258.291933 177.942956 
L 258.841847 179.210161 
L 258.017675 180.334328 
L 258.567588 181.60153 
L 257.743419 182.725696 
L 258.29333 183.992896 
L 259.667406 184.135931 
L 260.217311 185.403129 
L 261.591381 185.546166 
L 262.141281 186.813363 
L 261.317115 187.937522 
L 261.867013 189.204717 
L 261.042851 190.328875 
L 261.592748 191.596067 
L 260.768589 192.720225 
L 259.394533 192.577195 
L 258.844632 191.310004 
L 257.470571 191.166976 
L 256.920663 189.899784 
L 255.546596 189.756758 
L 254.722441 190.880926 
L 255.272353 192.148117 
L 254.448202 193.272284 
L 254.998112 194.539472 
L 254.173964 195.663639 
L 254.723873 196.930825 
L 253.899728 198.054991 
L 254.449636 199.322174 
L 253.625494 200.44634 
L 252.251445 200.303327 
L 251.427307 201.427496 
L 251.977218 202.694675 
L 251.153083 203.818843 
L 249.779038 203.675836 
L 248.954907 204.800008 
L 249.504821 206.067183 
L 248.680693 207.191354 
L 249.230606 208.458526 
L 248.406481 209.582697 
L 248.956393 210.849867 
L 248.132271 211.974037 
L 248.682181 213.241204 
L 247.858064 214.365374 
L 248.407972 215.632538 
L 249.781994 215.775535 
L 250.331897 217.042698 
L 249.507782 218.166864 
L 250.057683 219.434025 
L 251.431695 219.577021 
L 251.98159 220.844181 
L 251.157479 221.968342 
L 251.707373 223.235499 
L 253.081373 223.378496 
L 253.631261 224.645651 
L 252.807153 225.769809 
L 253.35704 227.036962 
L 254.73103 227.179959 
L 255.28091 228.44711 
L 254.456805 229.571264 
L 255.006685 230.838414 
L 256.380664 230.98141 
L 256.930538 232.248558 
L 256.106436 233.372708 
L 256.656308 234.639853 
L 255.832209 235.764003 
L 256.38208 237.031146 
L 257.756044 237.17414 
L 258.305909 238.441282 
L 257.481814 239.565427 
L 258.031677 240.832566 
L 259.405631 240.975561 
L 259.955488 242.242698 
L 259.131396 243.36684 
L 259.681252 244.633975 
L 258.857163 245.758116 
L 259.407018 247.025249 
L 258.582933 248.149389 
L 257.208993 248.006401 
L 256.384911 249.130545 
L 256.934769 250.397674 
L 256.110691 251.521817 
L 256.660547 252.788943 
L 255.836472 253.913086 
L 254.462541 253.770106 
L 253.638469 254.894252 
L 254.188329 256.161374 
L 253.364261 257.285519 
L 251.990334 257.142546 
L 251.166269 258.266694 
L 249.79234 258.123725 
L 248.968279 259.247877 
L 249.518147 260.514993 
L 248.694089 261.639144 
L 249.243955 262.906258 
L 250.617874 263.049223 
L 251.167734 264.316336 
L 250.343679 265.440483 
L 248.969765 265.29752 
L 248.419901 264.030409 
L 247.045981 263.887448 
L 246.22193 265.011602 
L 246.771799 266.278712 
L 245.947752 267.402865 
L 244.573835 267.259911 
L 243.749791 268.384066 
L 244.299664 269.651173 
L 245.673575 269.794125 
L 246.223442 271.06123 
L 245.399401 272.185381 
L 244.025494 272.042432 
L 243.201457 273.166586 
L 243.751327 274.433688 
L 242.927293 275.557842 
L 241.55339 275.414899 
L 240.729359 276.539056 
L 239.355455 276.396117 
L 238.531428 277.520277 
L 237.157523 277.377342 
L 236.3335 278.501506 
L 234.959594 278.358575 
L 234.135574 279.482741 
L 232.761667 279.339815 
L 231.937651 280.463984 
L 230.563742 280.321062 
L 229.73973 281.445234 
L 228.36582 281.302317 
L 227.541811 282.426492 
L 226.167901 282.283578 
L 225.343895 283.407756 
L 225.8938 284.674844 
L 225.069798 285.799022 
L 223.695891 285.656115 
L 222.871892 286.780295 
L 221.497985 286.637393 
L 220.67399 287.761576 
L 219.300081 287.618678 
L 218.476089 288.742864 
L 217.102179 288.59997 
L 216.278191 289.724159 
L 214.90428 289.58127 
L 214.354353 288.314188 
L 212.980436 288.171301 
L 212.430502 286.904218 
L 213.25449 285.780022 
L 212.704555 284.512936 
L 211.330628 284.370049 
L 210.780687 283.102962 
L 211.604678 281.978762 
L 211.054736 280.711673 
L 209.680798 280.568785 
L 209.13085 279.301695 
L 207.756906 279.15881 
L 207.206952 277.891718 
L 208.030946 276.76751 
L 207.48099 275.500416 
L 206.107036 275.357531 
L 205.557075 274.090435 
L 206.381072 272.966224 
L 205.831109 271.699126 
L 206.655109 270.574914 
L 206.105145 269.307813 
L 206.929149 268.183601 
L 206.379183 266.916497 
L 207.20319 265.792284 
L 206.653223 264.525179 
L 207.477234 263.400965 
L 206.927266 262.133857 
L 207.75128 261.009643 
L 207.20131 259.742532 
L 208.025327 258.618317 
L 207.475356 257.351204 
L 208.299376 256.226989 
L 207.749404 254.959873 
L 208.573428 253.835657 
L 208.023454 252.568539 
L 208.847481 251.444323 
L 208.297506 250.177201 
L 209.121537 249.052985 
L 208.57156 247.785861 
L 209.395594 246.661644 
L 208.845616 245.394518 
L 209.669654 244.270301 
L 211.043669 244.413213 
L 211.86771 243.288999 
L 211.317735 242.021869 
L 212.14178 240.897654 
L 213.515799 241.040573 
L 214.339847 239.916362 
L 213.789875 238.649227 
L 214.613927 237.525015 
L 215.98795 237.667941 
L 216.812005 236.543731 
L 216.262036 235.276593 
L 217.086094 234.152383 
L 216.536124 232.885242 
L 217.360186 231.761032 
L 216.810215 230.493888 
L 217.63428 229.369678 
L 219.008316 229.512614 
L 219.832384 228.388407 
L 219.282416 227.121259 
L 220.106488 225.997051 
L 219.556519 224.729901 
L 218.182473 224.58696 
L 217.632497 223.319809 
L 218.456572 222.195597 
L 217.906596 220.928443 
L 216.532539 220.785502 
L 215.982556 219.518347 
L 216.806635 218.394131 
L 216.25665 217.126973 
L 214.882584 216.984033 
L 214.332594 215.716873 
L 212.958521 215.573935 
L 212.408525 214.306775 
L 211.034446 214.163838 
L 210.484444 212.896677 
L 209.11036 212.753743 
L 208.560352 211.48658 
L 207.186262 211.343648 
L 206.636248 210.076484 
L 207.460329 208.95225 
L 206.910314 207.685083 
L 205.536213 207.542152 
L 204.986192 206.274983 
L 205.810276 205.150746 
L 205.260253 203.883575 
L 203.886142 203.740643 
L 203.336114 202.473472 
L 201.961997 202.330542 
L 201.411962 201.063369 
L 200.03784 200.920441 
L 199.213756 202.044689 
L 197.839632 201.901766 
L 197.289587 200.634593 
L 195.915458 200.491672 
L 195.091378 201.615926 
L 193.717248 201.473009 
L 193.167192 200.205836 
L 191.793056 200.062922 
L 191.242994 198.795747 
L 189.868852 198.652835 
L 189.044776 199.777099 
L 187.670633 199.634191 
L 187.120561 198.367017 
L 185.746412 198.224111 
L 185.196334 196.956935 
L 183.82218 196.814031 
L 183.272096 195.546854 
L 181.897935 195.403953 
L 181.347845 194.136775 
L 179.973679 193.993875 
L 179.423583 192.726696 
L 180.247658 191.602415 
L 179.697561 190.335233 
L 178.323384 190.192333 
L 177.773281 188.92515 
L 178.597359 187.800865 
L 178.047254 186.533679 
L 178.871336 185.409393 
" clip-path="url(#pe53cd1281a)" style="fill: #40e0d0"/>
   </g>
   <g id="matplotlib.axis_1">
    <g id="xtick_1">
     <g id="line2d_1">
      <defs>
       <path id="ma7200f04e2" d="M 0 0 
L 0 3.5 
" style="stroke: #000000; stroke-width: 0.8"/>
      </defs>
      <g>
       <use xlink:href="#ma7200f04e2" x="173.401155" y="307.584" style="stroke: #000000; stroke-width: 0.8"/>
      </g>
     </g>
     <g id="text_1">
      <!-- −100.42 -->
      <g transform="translate(151.715999 322.182437) scale(0.1 -0.1)">
       <defs>
        <path id="DejaVuSans-2212" d="M 678 2272 
L 4684 2272 
L 4684 1741 
L 678 1741 
L 678 2272 
z
" transform="scale(0.015625)"/>
        <path id="DejaVuSans-31" d="M 794 531 
L 1825 531 
L 1825 4091 
L 703 3866 
L 703 4441 
L 1819 4666 
L 2450 4666 
L 2450 531 
L 3481 531 
L 3481 0 
L 794 0 
L 794 531 
z
" transform="scale(0.015625)"/>
        <path id="DejaVuSans-30" d="M 2034 4250 
Q 1547 4250 1301 3770 
Q 1056 3291 1056 2328 
Q 1056 1369 1301 889 
Q 1547 409 2034 409 
Q 2525 409 2770 889 
Q 3016 1369 3016 2328 
Q 3016 3291 2770 3770 
Q 2525 4250 2034 4250 
z
M 2034 4750 
Q 2819 4750 3233 4129 
Q 3647 3509 3647 2328 
Q 3647 1150 3233 529 
Q 2819 -91 2034 -91 
Q 1250 -91 836 529 
Q 422 1150 422 2328 
Q 422 3509 836 4129 
Q 1250 4750 2034 4750 
z
" transform="scale(0.015625)"/>
        <path id="DejaVuSans-2e" d="M 684 794 
L 1344 794 
L 1344 0 
L 684 0 
L 684 794 
z
" transform="scale(0.015625)"/>
        <path id="DejaVuSans-34" d="M 2419 4116 
L 825 1625 
L 2419 1625 
L 2419 4116 
z
M 2253 4666 
L 3047 4666 
L 3047 1625 
L 3713 1625 
L 3713 1100 
L 3047 1100 
L 3047 0 
L 2419 0 
L 2419 1100 
L 313 1100 
L 313 1709 
L 2253 4666 
z
" transform="scale(0.015625)"/>
        <path id="DejaVuSans-32" d="M 1228 531 
L 3431 531 
L 3431 0 
L 469 0 
L 469 531 
Q 828 903 1448 1529 
Q 2069 2156 2228 2338 
Q 2531 2678 2651 2914 
Q 2772 3150 2772 3378 
Q 2772 3750 2511 3984 
Q 2250 4219 1831 4219 
Q 1534 4219 1204 4116 
Q 875 4013 500 3803 
L 500 4441 
Q 881 4594 1212 4672 
Q 1544 4750 1819 4750 
Q 2544 4750 2975 4387 
Q 3406 4025 3406 3419 
Q 3406 3131 3298 2873 
Q 3191 2616 2906 2266 
Q 2828 2175 2409 1742 
Q 1991 1309 1228 531 
z
" transform="scale(0.015625)"/>
       </defs>
       <use xlink:href="#DejaVuSans-2212"/>
       <use xlink:href="#DejaVuSans-31" x="83.789062"/>
       <use xlink:href="#DejaVuSans-30" x="147.412109"/>
       <use xlink:href="#DejaVuSans-30" x="211.035156"/>
       <use xlink:href="#DejaVuSans-2e" x="274.658203"/>
       <use xlink:href="#DejaVuSans-34" x="306.445312"/>
       <use xlink:href="#DejaVuSans-32" x="370.068359"/>
      </g>
     </g>
    </g>
    <g id="xtick_2">
     <g id="line2d_2">
      <g>
       <use xlink:href="#ma7200f04e2" x="220.235051" y="307.584" style="stroke: #000000; stroke-width: 0.8"/>
      </g>
     </g>
     <g id="text_2">
      <!-- −100.41 -->
      <g transform="translate(198.549894 322.182437) scale(0.1 -0.1)">
       <use xlink:href="#DejaVuSans-2212"/>
       <use xlink:href="#DejaVuSans-31" x="83.789062"/>
       <use xlink:href="#DejaVuSans-30" x="147.412109"/>
       <use xlink:href="#DejaVuSans-30" x="211.035156"/>
       <use xlink:href="#DejaVuSans-2e" x="274.658203"/>
       <use xlink:href="#DejaVuSans-34" x="306.445312"/>
       <use xlink:href="#DejaVuSans-31" x="370.068359"/>
      </g>
     </g>
    </g>
    <g id="xtick_3">
     <g id="line2d_3">
      <g>
       <use xlink:href="#ma7200f04e2" x="267.068946" y="307.584" style="stroke: #000000; stroke-width: 0.8"/>
      </g>
     </g>
     <g id="text_3">
      <!-- −100.40 -->
      <g transform="translate(245.38379 322.182437) scale(0.1 -0.1)">
       <use xlink:href="#DejaVuSans-2212"/>
       <use xlink:href="#DejaVuSans-31" x="83.789062"/>
       <use xlink:href="#DejaVuSans-30" x="147.412109"/>
       <use xlink:href="#DejaVuSans-30" x="211.035156"/>
       <use xlink:href="#DejaVuSans-2e" x="274.658203"/>
       <use xlink:href="#DejaVuSans-34" x="306.445312"/>
       <use xlink:href="#DejaVuSans-30" x="370.068359"/>
      </g>
     </g>
    </g>
    <g id="xtick_4">
     <g id="line2d_4">
      <g>
       <use xlink:href="#ma7200f04e2" x="313.902842" y="307.584" style="stroke: #000000; stroke-width: 0.8"/>
      </g>
     </g>
     <g id="text_4">
      <!-- −100.39 -->
      <g transform="translate(292.217685 322.182437) scale(0.1 -0.1)">
       <defs>
        <path id="DejaVuSans-33" d="M 2597 2516 
Q 3050 2419 3304 2112 
Q 3559 1806 3559 1356 
Q 3559 666 3084 287 
Q 2609 -91 1734 -91 
Q 1441 -91 1130 -33 
Q 819 25 488 141 
L 488 750 
Q 750 597 1062 519 
Q 1375 441 1716 441 
Q 2309 441 2620 675 
Q 2931 909 2931 1356 
Q 2931 1769 2642 2001 
Q 2353 2234 1838 2234 
L 1294 2234 
L 1294 2753 
L 1863 2753 
Q 2328 2753 2575 2939 
Q 2822 3125 2822 3475 
Q 2822 3834 2567 4026 
Q 2313 4219 1838 4219 
Q 1578 4219 1281 4162 
Q 984 4106 628 3988 
L 628 4550 
Q 988 4650 1302 4700 
Q 1616 4750 1894 4750 
Q 2613 4750 3031 4423 
Q 3450 4097 3450 3541 
Q 3450 3153 3228 2886 
Q 3006 2619 2597 2516 
z
" transform="scale(0.015625)"/>
        <path id="DejaVuSans-39" d="M 703 97 
L 703 672 
Q 941 559 1184 500 
Q 1428 441 1663 441 
Q 2288 441 2617 861 
Q 2947 1281 2994 2138 
Q 2813 1869 2534 1725 
Q 2256 1581 1919 1581 
Q 1219 1581 811 2004 
Q 403 2428 403 3163 
Q 403 3881 828 4315 
Q 1253 4750 1959 4750 
Q 2769 4750 3195 4129 
Q 3622 3509 3622 2328 
Q 3622 1225 3098 567 
Q 2575 -91 1691 -91 
Q 1453 -91 1209 -44 
Q 966 3 703 97 
z
M 1959 2075 
Q 2384 2075 2632 2365 
Q 2881 2656 2881 3163 
Q 2881 3666 2632 3958 
Q 2384 4250 1959 4250 
Q 1534 4250 1286 3958 
Q 1038 3666 1038 3163 
Q 1038 2656 1286 2365 
Q 1534 2075 1959 2075 
z
" transform="scale(0.015625)"/>
       </defs>
       <use xlink:href="#DejaVuSans-2212"/>
       <use xlink:href="#DejaVuSans-31" x="83.789062"/>
       <use xlink:href="#DejaVuSans-30" x="147.412109"/>
       <use xlink:href="#DejaVuSans-30" x="211.035156"/>
       <use xlink:href="#DejaVuSans-2e" x="274.658203"/>
       <use xlink:href="#DejaVuSans-33" x="306.445312"/>
       <use xlink:href="#DejaVuSans-39" x="370.068359"/>
      </g>
     </g>
    </g>
   </g>
   <g id="matplotlib.axis_2">
    <g id="ytick_1">
     <g id="line2d_5">
      <defs>
       <path id="m08cf251fdf" d="M 0 0 
L -3.5 0 
" style="stroke: #000000; stroke-width: 0.8"/>
      </defs>
      <g>
       <use xlink:href="#m08cf251fdf" x="158.322599" y="259.531097" style="stroke: #000000; stroke-width: 0.8"/>
      </g>
     </g>
     <g id="text_5">
      <!-- 19.37 -->
      <g transform="translate(122.694474 263.330316) scale(0.1 -0.1)">
       <defs>
        <path id="DejaVuSans-37" d="M 525 4666 
L 3525 4666 
L 3525 4397 
L 1831 0 
L 1172 0 
L 2766 4134 
L 525 4134 
L 525 4666 
z
" transform="scale(0.015625)"/>
       </defs>
       <use xlink:href="#DejaVuSans-31"/>
       <use xlink:href="#DejaVuSans-39" x="63.623047"/>
       <use xlink:href="#DejaVuSans-2e" x="127.246094"/>
       <use xlink:href="#DejaVuSans-33" x="159.033203"/>
       <use xlink:href="#DejaVuSans-37" x="222.65625"/>
      </g>
     </g>
    </g>
    <g id="ytick_2">
     <g id="line2d_6">
      <g>
       <use xlink:href="#m08cf251fdf" x="158.322599" y="209.881962" style="stroke: #000000; stroke-width: 0.8"/>
      </g>
     </g>
     <g id="text_6">
      <!-- 19.38 -->
      <g transform="translate(122.694474 213.681181) scale(0.1 -0.1)">
       <defs>
        <path id="DejaVuSans-38" d="M 2034 2216 
Q 1584 2216 1326 1975 
Q 1069 1734 1069 1313 
Q 1069 891 1326 650 
Q 1584 409 2034 409 
Q 2484 409 2743 651 
Q 3003 894 3003 1313 
Q 3003 1734 2745 1975 
Q 2488 2216 2034 2216 
z
M 1403 2484 
Q 997 2584 770 2862 
Q 544 3141 544 3541 
Q 544 4100 942 4425 
Q 1341 4750 2034 4750 
Q 2731 4750 3128 4425 
Q 3525 4100 3525 3541 
Q 3525 3141 3298 2862 
Q 3072 2584 2669 2484 
Q 3125 2378 3379 2068 
Q 3634 1759 3634 1313 
Q 3634 634 3220 271 
Q 2806 -91 2034 -91 
Q 1263 -91 848 271 
Q 434 634 434 1313 
Q 434 1759 690 2068 
Q 947 2378 1403 2484 
z
M 1172 3481 
Q 1172 3119 1398 2916 
Q 1625 2713 2034 2713 
Q 2441 2713 2670 2916 
Q 2900 3119 2900 3481 
Q 2900 3844 2670 4047 
Q 2441 4250 2034 4250 
Q 1625 4250 1398 4047 
Q 1172 3844 1172 3481 
z
" transform="scale(0.015625)"/>
       </defs>
       <use xlink:href="#DejaVuSans-31"/>
       <use xlink:href="#DejaVuSans-39" x="63.623047"/>
       <use xlink:href="#DejaVuSans-2e" x="127.246094"/>
       <use xlink:href="#DejaVuSans-33" x="159.033203"/>
       <use xlink:href="#DejaVuSans-38" x="222.65625"/>
      </g>
     </g>
    </g>
    <g id="ytick_3">
     <g id="line2d_7">
      <g>
       <use xlink:href="#m08cf251fdf" x="158.322599" y="160.232826" style="stroke: #000000; stroke-width: 0.8"/>
      </g>
     </g>
     <g id="text_7">
      <!-- 19.39 -->
      <g transform="translate(122.694474 164.032045) scale(0.1 -0.1)">
       <use xlink:href="#DejaVuSans-31"/>
       <use xlink:href="#DejaVuSans-39" x="63.623047"/>
       <use xlink:href="#DejaVuSans-2e" x="127.246094"/>
       <use xlink:href="#DejaVuSans-33" x="159.033203"/>
       <use xlink:href="#DejaVuSans-39" x="222.65625"/>
      </g>
     </g>
    </g>
    <g id="ytick_4">
     <g id="line2d_8">
      <g>
       <use xlink:href="#m08cf251fdf" x="158.322599" y="110.583691" style="stroke: #000000; stroke-width: 0.8"/>
      </g>
     </g>
     <g id="text_8">
      <!-- 19.40 -->
      <g transform="translate(122.694474 114.38291) scale(0.1 -0.1)">
       <use xlink:href="#DejaVuSans-31"/>
       <use xlink:href="#DejaVuSans-39" x="63.623047"/>
       <use xlink:href="#DejaVuSans-2e" x="127.246094"/>
       <use xlink:href="#DejaVuSans-34" x="159.033203"/>
       <use xlink:href="#DejaVuSans-30" x="222.65625"/>
      </g>
     </g>
    </g>
    <g id="ytick_5">
     <g id="line2d_9">
      <g>
       <use xlink:href="#m08cf251fdf" x="158.322599" y="60.934555" style="stroke: #000000; stroke-width: 0.8"/>
      </g>
     </g>
     <g id="text_9">
      <!-- 19.41 -->
      <g transform="translate(122.694474 64.733774) scale(0.1 -0.1)">
       <use xlink:href="#DejaVuSans-31"/>
       <use xlink:href="#DejaVuSans-39" x="63.623047"/>
       <use xlink:href="#DejaVuSans-2e" x="127.246094"/>
       <use xlink:href="#DejaVuSans-34" x="159.033203"/>
       <use xlink:href="#DejaVuSans-31" x="222.65625"/>
      </g>
     </g>
    </g>
   </g>
   <g id="patch_3">
    <path d="M 158.322599 307.584 
L 158.322599 41.472 
" style="fill: none; stroke: #000000; stroke-width: 0.8; stroke-linejoin: miter; stroke-linecap: square"/>
   </g>
   <g id="patch_4">
    <path d="M 313.997401 307.584 
L 313.997401 41.472 
" style="fill: none; stroke: #000000; stroke-width: 0.8; stroke-linejoin: miter; stroke-linecap: square"/>
   </g>
   <g id="patch_5">
    <path d="M 158.322599 307.584 
L 313.997401 307.584 
" style="fill: none; stroke: #000000; stroke-width: 0.8; stroke-linejoin: miter; stroke-linecap: square"/>
   </g>
   <g id="patch_6">
    <path d="M 158.322599 41.472 
L 313.997401 41.472 
" style="fill: none; stroke: #000000; stroke-width: 0.8; stroke-linejoin: miter; stroke-linecap: square"/>
   </g>
   <g id="text_10">
    <!-- presa_elbosque_hehaviour in 2023-04 -->
    <g transform="translate(121.771875 35.472) scale(0.12 -0.12)">
     <defs>
      <path id="DejaVuSans-70" d="M 1159 525 
L 1159 -1331 
L 581 -1331 
L 581 3500 
L 1159 3500 
L 1159 2969 
Q 1341 3281 1617 3432 
Q 1894 3584 2278 3584 
Q 2916 3584 3314 3078 
Q 3713 2572 3713 1747 
Q 3713 922 3314 415 
Q 2916 -91 2278 -91 
Q 1894 -91 1617 61 
Q 1341 213 1159 525 
z
M 3116 1747 
Q 3116 2381 2855 2742 
Q 2594 3103 2138 3103 
Q 1681 3103 1420 2742 
Q 1159 2381 1159 1747 
Q 1159 1113 1420 752 
Q 1681 391 2138 391 
Q 2594 391 2855 752 
Q 3116 1113 3116 1747 
z
" transform="scale(0.015625)"/>
      <path id="DejaVuSans-72" d="M 2631 2963 
Q 2534 3019 2420 3045 
Q 2306 3072 2169 3072 
Q 1681 3072 1420 2755 
Q 1159 2438 1159 1844 
L 1159 0 
L 581 0 
L 581 3500 
L 1159 3500 
L 1159 2956 
Q 1341 3275 1631 3429 
Q 1922 3584 2338 3584 
Q 2397 3584 2469 3576 
Q 2541 3569 2628 3553 
L 2631 2963 
z
" transform="scale(0.015625)"/>
      <path id="DejaVuSans-65" d="M 3597 1894 
L 3597 1613 
L 953 1613 
Q 991 1019 1311 708 
Q 1631 397 2203 397 
Q 2534 397 2845 478 
Q 3156 559 3463 722 
L 3463 178 
Q 3153 47 2828 -22 
Q 2503 -91 2169 -91 
Q 1331 -91 842 396 
Q 353 884 353 1716 
Q 353 2575 817 3079 
Q 1281 3584 2069 3584 
Q 2775 3584 3186 3129 
Q 3597 2675 3597 1894 
z
M 3022 2063 
Q 3016 2534 2758 2815 
Q 2500 3097 2075 3097 
Q 1594 3097 1305 2825 
Q 1016 2553 972 2059 
L 3022 2063 
z
" transform="scale(0.015625)"/>
      <path id="DejaVuSans-73" d="M 2834 3397 
L 2834 2853 
Q 2591 2978 2328 3040 
Q 2066 3103 1784 3103 
Q 1356 3103 1142 2972 
Q 928 2841 928 2578 
Q 928 2378 1081 2264 
Q 1234 2150 1697 2047 
L 1894 2003 
Q 2506 1872 2764 1633 
Q 3022 1394 3022 966 
Q 3022 478 2636 193 
Q 2250 -91 1575 -91 
Q 1294 -91 989 -36 
Q 684 19 347 128 
L 347 722 
Q 666 556 975 473 
Q 1284 391 1588 391 
Q 1994 391 2212 530 
Q 2431 669 2431 922 
Q 2431 1156 2273 1281 
Q 2116 1406 1581 1522 
L 1381 1569 
Q 847 1681 609 1914 
Q 372 2147 372 2553 
Q 372 3047 722 3315 
Q 1072 3584 1716 3584 
Q 2034 3584 2315 3537 
Q 2597 3491 2834 3397 
z
" transform="scale(0.015625)"/>
      <path id="DejaVuSans-61" d="M 2194 1759 
Q 1497 1759 1228 1600 
Q 959 1441 959 1056 
Q 959 750 1161 570 
Q 1363 391 1709 391 
Q 2188 391 2477 730 
Q 2766 1069 2766 1631 
L 2766 1759 
L 2194 1759 
z
M 3341 1997 
L 3341 0 
L 2766 0 
L 2766 531 
Q 2569 213 2275 61 
Q 1981 -91 1556 -91 
Q 1019 -91 701 211 
Q 384 513 384 1019 
Q 384 1609 779 1909 
Q 1175 2209 1959 2209 
L 2766 2209 
L 2766 2266 
Q 2766 2663 2505 2880 
Q 2244 3097 1772 3097 
Q 1472 3097 1187 3025 
Q 903 2953 641 2809 
L 641 3341 
Q 956 3463 1253 3523 
Q 1550 3584 1831 3584 
Q 2591 3584 2966 3190 
Q 3341 2797 3341 1997 
z
" transform="scale(0.015625)"/>
      <path id="DejaVuSans-5f" d="M 3263 -1063 
L 3263 -1509 
L -63 -1509 
L -63 -1063 
L 3263 -1063 
z
" transform="scale(0.015625)"/>
      <path id="DejaVuSans-6c" d="M 603 4863 
L 1178 4863 
L 1178 0 
L 603 0 
L 603 4863 
z
" transform="scale(0.015625)"/>
      <path id="DejaVuSans-62" d="M 3116 1747 
Q 3116 2381 2855 2742 
Q 2594 3103 2138 3103 
Q 1681 3103 1420 2742 
Q 1159 2381 1159 1747 
Q 1159 1113 1420 752 
Q 1681 391 2138 391 
Q 2594 391 2855 752 
Q 3116 1113 3116 1747 
z
M 1159 2969 
Q 1341 3281 1617 3432 
Q 1894 3584 2278 3584 
Q 2916 3584 3314 3078 
Q 3713 2572 3713 1747 
Q 3713 922 3314 415 
Q 2916 -91 2278 -91 
Q 1894 -91 1617 61 
Q 1341 213 1159 525 
L 1159 0 
L 581 0 
L 581 4863 
L 1159 4863 
L 1159 2969 
z
" transform="scale(0.015625)"/>
      <path id="DejaVuSans-6f" d="M 1959 3097 
Q 1497 3097 1228 2736 
Q 959 2375 959 1747 
Q 959 1119 1226 758 
Q 1494 397 1959 397 
Q 2419 397 2687 759 
Q 2956 1122 2956 1747 
Q 2956 2369 2687 2733 
Q 2419 3097 1959 3097 
z
M 1959 3584 
Q 2709 3584 3137 3096 
Q 3566 2609 3566 1747 
Q 3566 888 3137 398 
Q 2709 -91 1959 -91 
Q 1206 -91 779 398 
Q 353 888 353 1747 
Q 353 2609 779 3096 
Q 1206 3584 1959 3584 
z
" transform="scale(0.015625)"/>
      <path id="DejaVuSans-71" d="M 947 1747 
Q 947 1113 1208 752 
Q 1469 391 1925 391 
Q 2381 391 2643 752 
Q 2906 1113 2906 1747 
Q 2906 2381 2643 2742 
Q 2381 3103 1925 3103 
Q 1469 3103 1208 2742 
Q 947 2381 947 1747 
z
M 2906 525 
Q 2725 213 2448 61 
Q 2172 -91 1784 -91 
Q 1150 -91 751 415 
Q 353 922 353 1747 
Q 353 2572 751 3078 
Q 1150 3584 1784 3584 
Q 2172 3584 2448 3432 
Q 2725 3281 2906 2969 
L 2906 3500 
L 3481 3500 
L 3481 -1331 
L 2906 -1331 
L 2906 525 
z
" transform="scale(0.015625)"/>
      <path id="DejaVuSans-75" d="M 544 1381 
L 544 3500 
L 1119 3500 
L 1119 1403 
Q 1119 906 1312 657 
Q 1506 409 1894 409 
Q 2359 409 2629 706 
Q 2900 1003 2900 1516 
L 2900 3500 
L 3475 3500 
L 3475 0 
L 2900 0 
L 2900 538 
Q 2691 219 2414 64 
Q 2138 -91 1772 -91 
Q 1169 -91 856 284 
Q 544 659 544 1381 
z
M 1991 3584 
L 1991 3584 
z
" transform="scale(0.015625)"/>
      <path id="DejaVuSans-68" d="M 3513 2113 
L 3513 0 
L 2938 0 
L 2938 2094 
Q 2938 2591 2744 2837 
Q 2550 3084 2163 3084 
Q 1697 3084 1428 2787 
Q 1159 2491 1159 1978 
L 1159 0 
L 581 0 
L 581 4863 
L 1159 4863 
L 1159 2956 
Q 1366 3272 1645 3428 
Q 1925 3584 2291 3584 
Q 2894 3584 3203 3211 
Q 3513 2838 3513 2113 
z
" transform="scale(0.015625)"/>
      <path id="DejaVuSans-76" d="M 191 3500 
L 800 3500 
L 1894 563 
L 2988 3500 
L 3597 3500 
L 2284 0 
L 1503 0 
L 191 3500 
z
" transform="scale(0.015625)"/>
      <path id="DejaVuSans-69" d="M 603 3500 
L 1178 3500 
L 1178 0 
L 603 0 
L 603 3500 
z
M 603 4863 
L 1178 4863 
L 1178 4134 
L 603 4134 
L 603 4863 
z
" transform="scale(0.015625)"/>
      <path id="DejaVuSans-20" transform="scale(0.015625)"/>
      <path id="DejaVuSans-6e" d="M 3513 2113 
L 3513 0 
L 2938 0 
L 2938 2094 
Q 2938 2591 2744 2837 
Q 2550 3084 2163 3084 
Q 1697 3084 1428 2787 
Q 1159 2491 1159 1978 
L 1159 0 
L 581 0 
L 581 3500 
L 1159 3500 
L 1159 2956 
Q 1366 3272 1645 3428 
Q 1925 3584 2291 3584 
Q 2894 3584 3203 3211 
Q 3513 2838 3513 2113 
z
" transform="scale(0.015625)"/>
      <path id="DejaVuSans-2d" d="M 313 2009 
L 1997 2009 
L 1997 1497 
L 313 1497 
L 313 2009 
z
" transform="scale(0.015625)"/>
     </defs>
     <use xlink:href="#DejaVuSans-70"/>
     <use xlink:href="#DejaVuSans-72" x="63.476562"/>
     <use xlink:href="#DejaVuSans-65" x="102.339844"/>
     <use xlink:href="#DejaVuSans-73" x="163.863281"/>
     <use xlink:href="#DejaVuSans-61" x="215.962891"/>
     <use xlink:href="#DejaVuSans-5f" x="277.242188"/>
     <use xlink:href="#DejaVuSans-65" x="327.242188"/>
     <use xlink:href="#DejaVuSans-6c" x="388.765625"/>
     <use xlink:href="#DejaVuSans-62" x="416.548828"/>
     <use xlink:href="#DejaVuSans-6f" x="480.025391"/>
     <use xlink:href="#DejaVuSans-73" x="541.207031"/>
     <use xlink:href="#DejaVuSans-71" x="593.306641"/>
     <use xlink:href="#DejaVuSans-75" x="656.783203"/>
     <use xlink:href="#DejaVuSans-65" x="720.162109"/>
     <use xlink:href="#DejaVuSans-5f" x="781.685547"/>
     <use xlink:href="#DejaVuSans-68" x="831.685547"/>
     <use xlink:href="#DejaVuSans-65" x="895.064453"/>
     <use xlink:href="#DejaVuSans-68" x="956.587891"/>
     <use xlink:href="#DejaVuSans-61" x="1019.966797"/>
     <use xlink:href="#DejaVuSans-76" x="1081.246094"/>
     <use xlink:href="#DejaVuSans-69" x="1140.425781"/>
     <use xlink:href="#DejaVuSans-6f" x="1168.208984"/>
     <use xlink:href="#DejaVuSans-75" x="1229.390625"/>
     <use xlink:href="#DejaVuSans-72" x="1292.769531"/>
     <use xlink:href="#DejaVuSans-20" x="1333.882812"/>
     <use xlink:href="#DejaVuSans-69" x="1365.669922"/>
     <use xlink:href="#DejaVuSans-6e" x="1393.453125"/>
     <use xlink:href="#DejaVuSans-20" x="1456.832031"/>
     <use xlink:href="#DejaVuSans-32" x="1488.619141"/>
     <use xlink:href="#DejaVuSans-30" x="1552.242188"/>
     <use xlink:href="#DejaVuSans-32" x="1615.865234"/>
     <use xlink:href="#DejaVuSans-33" x="1679.488281"/>
     <use xlink:href="#DejaVuSans-2d" x="1743.111328"/>
     <use xlink:href="#DejaVuSans-30" x="1779.195312"/>
     <use xlink:href="#DejaVuSans-34" x="1842.818359"/>
    </g>
   </g>
  </g>
 </g>
 <defs>
  <clipPath id="pe53cd1281a">
   <rect x="158.322599" y="41.472" width="155.674802" height="266.112"/>
  </clipPath>
 </defs>
</svg>
