<?xml version="1.0" encoding="utf-8" standalone="no"?>
<!DOCTYPE svg PUBLIC "-//W3C//DTD SVG 1.1//EN"
  "http://www.w3.org/Graphics/SVG/1.1/DTD/svg11.dtd">
<svg height="869.834375pt" version="1.1" viewBox="0 0 593.457812 869.834375" width="593.457812pt" xmlns="http://www.w3.org/2000/svg" xmlns:xlink="http://www.w3.org/1999/xlink">
 <metadata>
  <rdf:RDF xmlns:cc="http://creativecommons.org/ns#" xmlns:dc="http://purl.org/dc/elements/1.1/" xmlns:rdf="http://www.w3.org/1999/02/22-rdf-syntax-ns#">
   <cc:Work>
    <dc:type rdf:resource="http://purl.org/dc/dcmitype/StillImage"/>
    <dc:date>2021-10-30T09:53:11.748805</dc:date>
    <dc:format>image/svg+xml</dc:format>
    <dc:creator>
     <cc:Agent>
      <dc:title>Matplotlib v3.4.2, https://matplotlib.org/</dc:title>
     </cc:Agent>
    </dc:creator>
   </cc:Work>
  </rdf:RDF>
 </metadata>
 <defs>
  <style type="text/css">*{stroke-linecap:butt;stroke-linejoin:round;}</style>
 </defs>
 <g id="figure_1">
  <g id="patch_1">
   <path d="M 0 869.834375 
L 593.457812 869.834375 
L 593.457812 0 
L 0 0 
z
" style="fill:#ffffff;"/>
  </g>
  <g id="axes_1">
   <g id="patch_2">
    <path d="M 127.930469 822.6 
L 574.330469 822.6 
L 574.330469 7.2 
L 127.930469 7.2 
z
" style="fill:#ffffff;"/>
   </g>
   <g id="matplotlib.axis_1">
    <g id="xtick_1">
     <g id="line2d_1">
      <path clip-path="url(#p0f7f7d120b)" d="M 127.930469 822.6 
L 127.930469 7.2 
" style="fill:none;stroke:#999999;stroke-linecap:round;stroke-width:0.8;"/>
     </g>
     <g id="text_1">
      <!-- 0.0 -->
      <g style="fill:#262626;" transform="translate(116.003125 840.997656)scale(0.15 -0.15)">
       <defs>
        <path d="M 2034 4250 
Q 1547 4250 1301 3770 
Q 1056 3291 1056 2328 
Q 1056 1369 1301 889 
Q 1547 409 2034 409 
Q 2525 409 2770 889 
Q 3016 1369 3016 2328 
Q 3016 3291 2770 3770 
Q 2525 4250 2034 4250 
z
M 2034 4750 
Q 2819 4750 3233 4129 
Q 3647 3509 3647 2328 
Q 3647 1150 3233 529 
Q 2819 -91 2034 -91 
Q 1250 -91 836 529 
Q 422 1150 422 2328 
Q 422 3509 836 4129 
Q 1250 4750 2034 4750 
z
" id="DejaVuSans-30" transform="scale(0.015625)"/>
        <path d="M 684 794 
L 1344 794 
L 1344 0 
L 684 0 
L 684 794 
z
" id="DejaVuSans-2e" transform="scale(0.015625)"/>
       </defs>
       <use xlink:href="#DejaVuSans-30"/>
       <use x="63.623047" xlink:href="#DejaVuSans-2e"/>
       <use x="95.410156" xlink:href="#DejaVuSans-30"/>
      </g>
     </g>
    </g>
    <g id="xtick_2">
     <g id="line2d_2">
      <path clip-path="url(#p0f7f7d120b)" d="M 217.210469 822.6 
L 217.210469 7.2 
" style="fill:none;stroke:#999999;stroke-linecap:round;stroke-width:0.8;"/>
     </g>
     <g id="text_2">
      <!-- 0.2 -->
      <g style="fill:#262626;" transform="translate(205.283125 840.997656)scale(0.15 -0.15)">
       <defs>
        <path d="M 1228 531 
L 3431 531 
L 3431 0 
L 469 0 
L 469 531 
Q 828 903 1448 1529 
Q 2069 2156 2228 2338 
Q 2531 2678 2651 2914 
Q 2772 3150 2772 3378 
Q 2772 3750 2511 3984 
Q 2250 4219 1831 4219 
Q 1534 4219 1204 4116 
Q 875 4013 500 3803 
L 500 4441 
Q 881 4594 1212 4672 
Q 1544 4750 1819 4750 
Q 2544 4750 2975 4387 
Q 3406 4025 3406 3419 
Q 3406 3131 3298 2873 
Q 3191 2616 2906 2266 
Q 2828 2175 2409 1742 
Q 1991 1309 1228 531 
z
" id="DejaVuSans-32" transform="scale(0.015625)"/>
       </defs>
       <use xlink:href="#DejaVuSans-30"/>
       <use x="63.623047" xlink:href="#DejaVuSans-2e"/>
       <use x="95.410156" xlink:href="#DejaVuSans-32"/>
      </g>
     </g>
    </g>
    <g id="xtick_3">
     <g id="line2d_3">
      <path clip-path="url(#p0f7f7d120b)" d="M 306.490469 822.6 
L 306.490469 7.2 
" style="fill:none;stroke:#999999;stroke-linecap:round;stroke-width:0.8;"/>
     </g>
     <g id="text_3">
      <!-- 0.4 -->
      <g style="fill:#262626;" transform="translate(294.563125 840.997656)scale(0.15 -0.15)">
       <defs>
        <path d="M 2419 4116 
L 825 1625 
L 2419 1625 
L 2419 4116 
z
M 2253 4666 
L 3047 4666 
L 3047 1625 
L 3713 1625 
L 3713 1100 
L 3047 1100 
L 3047 0 
L 2419 0 
L 2419 1100 
L 313 1100 
L 313 1709 
L 2253 4666 
z
" id="DejaVuSans-34" transform="scale(0.015625)"/>
       </defs>
       <use xlink:href="#DejaVuSans-30"/>
       <use x="63.623047" xlink:href="#DejaVuSans-2e"/>
       <use x="95.410156" xlink:href="#DejaVuSans-34"/>
      </g>
     </g>
    </g>
    <g id="xtick_4">
     <g id="line2d_4">
      <path clip-path="url(#p0f7f7d120b)" d="M 395.770469 822.6 
L 395.770469 7.2 
" style="fill:none;stroke:#999999;stroke-linecap:round;stroke-width:0.8;"/>
     </g>
     <g id="text_4">
      <!-- 0.6 -->
      <g style="fill:#262626;" transform="translate(383.843125 840.997656)scale(0.15 -0.15)">
       <defs>
        <path d="M 2113 2584 
Q 1688 2584 1439 2293 
Q 1191 2003 1191 1497 
Q 1191 994 1439 701 
Q 1688 409 2113 409 
Q 2538 409 2786 701 
Q 3034 994 3034 1497 
Q 3034 2003 2786 2293 
Q 2538 2584 2113 2584 
z
M 3366 4563 
L 3366 3988 
Q 3128 4100 2886 4159 
Q 2644 4219 2406 4219 
Q 1781 4219 1451 3797 
Q 1122 3375 1075 2522 
Q 1259 2794 1537 2939 
Q 1816 3084 2150 3084 
Q 2853 3084 3261 2657 
Q 3669 2231 3669 1497 
Q 3669 778 3244 343 
Q 2819 -91 2113 -91 
Q 1303 -91 875 529 
Q 447 1150 447 2328 
Q 447 3434 972 4092 
Q 1497 4750 2381 4750 
Q 2619 4750 2861 4703 
Q 3103 4656 3366 4563 
z
" id="DejaVuSans-36" transform="scale(0.015625)"/>
       </defs>
       <use xlink:href="#DejaVuSans-30"/>
       <use x="63.623047" xlink:href="#DejaVuSans-2e"/>
       <use x="95.410156" xlink:href="#DejaVuSans-36"/>
      </g>
     </g>
    </g>
    <g id="xtick_5">
     <g id="line2d_5">
      <path clip-path="url(#p0f7f7d120b)" d="M 485.050469 822.6 
L 485.050469 7.2 
" style="fill:none;stroke:#999999;stroke-linecap:round;stroke-width:0.8;"/>
     </g>
     <g id="text_5">
      <!-- 0.8 -->
      <g style="fill:#262626;" transform="translate(473.123125 840.997656)scale(0.15 -0.15)">
       <defs>
        <path d="M 2034 2216 
Q 1584 2216 1326 1975 
Q 1069 1734 1069 1313 
Q 1069 891 1326 650 
Q 1584 409 2034 409 
Q 2484 409 2743 651 
Q 3003 894 3003 1313 
Q 3003 1734 2745 1975 
Q 2488 2216 2034 2216 
z
M 1403 2484 
Q 997 2584 770 2862 
Q 544 3141 544 3541 
Q 544 4100 942 4425 
Q 1341 4750 2034 4750 
Q 2731 4750 3128 4425 
Q 3525 4100 3525 3541 
Q 3525 3141 3298 2862 
Q 3072 2584 2669 2484 
Q 3125 2378 3379 2068 
Q 3634 1759 3634 1313 
Q 3634 634 3220 271 
Q 2806 -91 2034 -91 
Q 1263 -91 848 271 
Q 434 634 434 1313 
Q 434 1759 690 2068 
Q 947 2378 1403 2484 
z
M 1172 3481 
Q 1172 3119 1398 2916 
Q 1625 2713 2034 2713 
Q 2441 2713 2670 2916 
Q 2900 3119 2900 3481 
Q 2900 3844 2670 4047 
Q 2441 4250 2034 4250 
Q 1625 4250 1398 4047 
Q 1172 3844 1172 3481 
z
" id="DejaVuSans-38" transform="scale(0.015625)"/>
       </defs>
       <use xlink:href="#DejaVuSans-30"/>
       <use x="63.623047" xlink:href="#DejaVuSans-2e"/>
       <use x="95.410156" xlink:href="#DejaVuSans-38"/>
      </g>
     </g>
    </g>
    <g id="xtick_6">
     <g id="line2d_6">
      <path clip-path="url(#p0f7f7d120b)" d="M 574.330469 822.6 
L 574.330469 7.2 
" style="fill:none;stroke:#999999;stroke-linecap:round;stroke-width:0.8;"/>
     </g>
     <g id="text_6">
      <!-- 1.0 -->
      <g style="fill:#262626;" transform="translate(562.403125 840.997656)scale(0.15 -0.15)">
       <defs>
        <path d="M 794 531 
L 1825 531 
L 1825 4091 
L 703 3866 
L 703 4441 
L 1819 4666 
L 2450 4666 
L 2450 531 
L 3481 531 
L 3481 0 
L 794 0 
L 794 531 
z
" id="DejaVuSans-31" transform="scale(0.015625)"/>
       </defs>
       <use xlink:href="#DejaVuSans-31"/>
       <use x="63.623047" xlink:href="#DejaVuSans-2e"/>
       <use x="95.410156" xlink:href="#DejaVuSans-30"/>
      </g>
     </g>
    </g>
    <g id="text_7">
     <!-- Índice -->
     <g style="fill:#262626;" transform="translate(328.58125 859.514844)scale(0.15 -0.15)">
      <defs>
       <path d="M 628 4666 
L 1259 4666 
L 1259 0 
L 628 0 
L 628 4666 
z
M 1116 5921 
L 1694 5921 
L 982 5096 
L 503 5096 
L 1116 5921 
z
" id="DejaVuSans-cd" transform="scale(0.015625)"/>
       <path d="M 3513 2113 
L 3513 0 
L 2938 0 
L 2938 2094 
Q 2938 2591 2744 2837 
Q 2550 3084 2163 3084 
Q 1697 3084 1428 2787 
Q 1159 2491 1159 1978 
L 1159 0 
L 581 0 
L 581 3500 
L 1159 3500 
L 1159 2956 
Q 1366 3272 1645 3428 
Q 1925 3584 2291 3584 
Q 2894 3584 3203 3211 
Q 3513 2838 3513 2113 
z
" id="DejaVuSans-6e" transform="scale(0.015625)"/>
       <path d="M 2906 2969 
L 2906 4863 
L 3481 4863 
L 3481 0 
L 2906 0 
L 2906 525 
Q 2725 213 2448 61 
Q 2172 -91 1784 -91 
Q 1150 -91 751 415 
Q 353 922 353 1747 
Q 353 2572 751 3078 
Q 1150 3584 1784 3584 
Q 2172 3584 2448 3432 
Q 2725 3281 2906 2969 
z
M 947 1747 
Q 947 1113 1208 752 
Q 1469 391 1925 391 
Q 2381 391 2643 752 
Q 2906 1113 2906 1747 
Q 2906 2381 2643 2742 
Q 2381 3103 1925 3103 
Q 1469 3103 1208 2742 
Q 947 2381 947 1747 
z
" id="DejaVuSans-64" transform="scale(0.015625)"/>
       <path d="M 603 3500 
L 1178 3500 
L 1178 0 
L 603 0 
L 603 3500 
z
M 603 4863 
L 1178 4863 
L 1178 4134 
L 603 4134 
L 603 4863 
z
" id="DejaVuSans-69" transform="scale(0.015625)"/>
       <path d="M 3122 3366 
L 3122 2828 
Q 2878 2963 2633 3030 
Q 2388 3097 2138 3097 
Q 1578 3097 1268 2742 
Q 959 2388 959 1747 
Q 959 1106 1268 751 
Q 1578 397 2138 397 
Q 2388 397 2633 464 
Q 2878 531 3122 666 
L 3122 134 
Q 2881 22 2623 -34 
Q 2366 -91 2075 -91 
Q 1284 -91 818 406 
Q 353 903 353 1747 
Q 353 2603 823 3093 
Q 1294 3584 2113 3584 
Q 2378 3584 2631 3529 
Q 2884 3475 3122 3366 
z
" id="DejaVuSans-63" transform="scale(0.015625)"/>
       <path d="M 3597 1894 
L 3597 1613 
L 953 1613 
Q 991 1019 1311 708 
Q 1631 397 2203 397 
Q 2534 397 2845 478 
Q 3156 559 3463 722 
L 3463 178 
Q 3153 47 2828 -22 
Q 2503 -91 2169 -91 
Q 1331 -91 842 396 
Q 353 884 353 1716 
Q 353 2575 817 3079 
Q 1281 3584 2069 3584 
Q 2775 3584 3186 3129 
Q 3597 2675 3597 1894 
z
M 3022 2063 
Q 3016 2534 2758 2815 
Q 2500 3097 2075 3097 
Q 1594 3097 1305 2825 
Q 1016 2553 972 2059 
L 3022 2063 
z
" id="DejaVuSans-65" transform="scale(0.015625)"/>
      </defs>
      <use xlink:href="#DejaVuSans-cd"/>
      <use x="29.492188" xlink:href="#DejaVuSans-6e"/>
      <use x="92.871094" xlink:href="#DejaVuSans-64"/>
      <use x="156.347656" xlink:href="#DejaVuSans-69"/>
      <use x="184.130859" xlink:href="#DejaVuSans-63"/>
      <use x="239.111328" xlink:href="#DejaVuSans-65"/>
     </g>
    </g>
   </g>
   <g id="matplotlib.axis_2">
    <g id="ytick_1">
     <g id="line2d_7">
      <path clip-path="url(#p0f7f7d120b)" d="M 127.930469 785.536364 
L 574.330469 785.536364 
" style="fill:none;stroke:#999999;stroke-linecap:round;stroke-width:0.8;"/>
     </g>
     <g id="text_8">
      <!-- Acapulco -->
      <g style="fill:#262626;" transform="translate(52.870312 791.235192)scale(0.15 -0.15)">
       <defs>
        <path d="M 2188 4044 
L 1331 1722 
L 3047 1722 
L 2188 4044 
z
M 1831 4666 
L 2547 4666 
L 4325 0 
L 3669 0 
L 3244 1197 
L 1141 1197 
L 716 0 
L 50 0 
L 1831 4666 
z
" id="DejaVuSans-41" transform="scale(0.015625)"/>
        <path d="M 2194 1759 
Q 1497 1759 1228 1600 
Q 959 1441 959 1056 
Q 959 750 1161 570 
Q 1363 391 1709 391 
Q 2188 391 2477 730 
Q 2766 1069 2766 1631 
L 2766 1759 
L 2194 1759 
z
M 3341 1997 
L 3341 0 
L 2766 0 
L 2766 531 
Q 2569 213 2275 61 
Q 1981 -91 1556 -91 
Q 1019 -91 701 211 
Q 384 513 384 1019 
Q 384 1609 779 1909 
Q 1175 2209 1959 2209 
L 2766 2209 
L 2766 2266 
Q 2766 2663 2505 2880 
Q 2244 3097 1772 3097 
Q 1472 3097 1187 3025 
Q 903 2953 641 2809 
L 641 3341 
Q 956 3463 1253 3523 
Q 1550 3584 1831 3584 
Q 2591 3584 2966 3190 
Q 3341 2797 3341 1997 
z
" id="DejaVuSans-61" transform="scale(0.015625)"/>
        <path d="M 1159 525 
L 1159 -1331 
L 581 -1331 
L 581 3500 
L 1159 3500 
L 1159 2969 
Q 1341 3281 1617 3432 
Q 1894 3584 2278 3584 
Q 2916 3584 3314 3078 
Q 3713 2572 3713 1747 
Q 3713 922 3314 415 
Q 2916 -91 2278 -91 
Q 1894 -91 1617 61 
Q 1341 213 1159 525 
z
M 3116 1747 
Q 3116 2381 2855 2742 
Q 2594 3103 2138 3103 
Q 1681 3103 1420 2742 
Q 1159 2381 1159 1747 
Q 1159 1113 1420 752 
Q 1681 391 2138 391 
Q 2594 391 2855 752 
Q 3116 1113 3116 1747 
z
" id="DejaVuSans-70" transform="scale(0.015625)"/>
        <path d="M 544 1381 
L 544 3500 
L 1119 3500 
L 1119 1403 
Q 1119 906 1312 657 
Q 1506 409 1894 409 
Q 2359 409 2629 706 
Q 2900 1003 2900 1516 
L 2900 3500 
L 3475 3500 
L 3475 0 
L 2900 0 
L 2900 538 
Q 2691 219 2414 64 
Q 2138 -91 1772 -91 
Q 1169 -91 856 284 
Q 544 659 544 1381 
z
M 1991 3584 
L 1991 3584 
z
" id="DejaVuSans-75" transform="scale(0.015625)"/>
        <path d="M 603 4863 
L 1178 4863 
L 1178 0 
L 603 0 
L 603 4863 
z
" id="DejaVuSans-6c" transform="scale(0.015625)"/>
        <path d="M 1959 3097 
Q 1497 3097 1228 2736 
Q 959 2375 959 1747 
Q 959 1119 1226 758 
Q 1494 397 1959 397 
Q 2419 397 2687 759 
Q 2956 1122 2956 1747 
Q 2956 2369 2687 2733 
Q 2419 3097 1959 3097 
z
M 1959 3584 
Q 2709 3584 3137 3096 
Q 3566 2609 3566 1747 
Q 3566 888 3137 398 
Q 2709 -91 1959 -91 
Q 1206 -91 779 398 
Q 353 888 353 1747 
Q 353 2609 779 3096 
Q 1206 3584 1959 3584 
z
" id="DejaVuSans-6f" transform="scale(0.015625)"/>
       </defs>
       <use xlink:href="#DejaVuSans-41"/>
       <use x="66.658203" xlink:href="#DejaVuSans-63"/>
       <use x="121.638672" xlink:href="#DejaVuSans-61"/>
       <use x="182.917969" xlink:href="#DejaVuSans-70"/>
       <use x="246.394531" xlink:href="#DejaVuSans-75"/>
       <use x="309.773438" xlink:href="#DejaVuSans-6c"/>
       <use x="337.556641" xlink:href="#DejaVuSans-63"/>
       <use x="392.537109" xlink:href="#DejaVuSans-6f"/>
      </g>
     </g>
    </g>
    <g id="ytick_2">
     <g id="line2d_8">
      <path clip-path="url(#p0f7f7d120b)" d="M 127.930469 763.073554 
L 574.330469 763.073554 
" style="fill:none;stroke:#999999;stroke-linecap:round;stroke-width:0.8;"/>
     </g>
     <g id="text_9">
      <!-- Mexicali -->
      <g style="fill:#262626;" transform="translate(60.201562 768.772382)scale(0.15 -0.15)">
       <defs>
        <path d="M 628 4666 
L 1569 4666 
L 2759 1491 
L 3956 4666 
L 4897 4666 
L 4897 0 
L 4281 0 
L 4281 4097 
L 3078 897 
L 2444 897 
L 1241 4097 
L 1241 0 
L 628 0 
L 628 4666 
z
" id="DejaVuSans-4d" transform="scale(0.015625)"/>
        <path d="M 3513 3500 
L 2247 1797 
L 3578 0 
L 2900 0 
L 1881 1375 
L 863 0 
L 184 0 
L 1544 1831 
L 300 3500 
L 978 3500 
L 1906 2253 
L 2834 3500 
L 3513 3500 
z
" id="DejaVuSans-78" transform="scale(0.015625)"/>
       </defs>
       <use xlink:href="#DejaVuSans-4d"/>
       <use x="86.279297" xlink:href="#DejaVuSans-65"/>
       <use x="146.052734" xlink:href="#DejaVuSans-78"/>
       <use x="205.232422" xlink:href="#DejaVuSans-69"/>
       <use x="233.015625" xlink:href="#DejaVuSans-63"/>
       <use x="287.996094" xlink:href="#DejaVuSans-61"/>
       <use x="349.275391" xlink:href="#DejaVuSans-6c"/>
       <use x="377.058594" xlink:href="#DejaVuSans-69"/>
      </g>
     </g>
    </g>
    <g id="ytick_3">
     <g id="line2d_9">
      <path clip-path="url(#p0f7f7d120b)" d="M 127.930469 740.610744 
L 574.330469 740.610744 
" style="fill:none;stroke:#999999;stroke-linecap:round;stroke-width:0.8;"/>
     </g>
     <g id="text_10">
      <!-- Tlaxcala -->
      <g style="fill:#262626;" transform="translate(58.994531 746.309572)scale(0.15 -0.15)">
       <defs>
        <path d="M -19 4666 
L 3928 4666 
L 3928 4134 
L 2272 4134 
L 2272 0 
L 1638 0 
L 1638 4134 
L -19 4134 
L -19 4666 
z
" id="DejaVuSans-54" transform="scale(0.015625)"/>
       </defs>
       <use xlink:href="#DejaVuSans-54"/>
       <use x="61.083984" xlink:href="#DejaVuSans-6c"/>
       <use x="88.867188" xlink:href="#DejaVuSans-61"/>
       <use x="150.146484" xlink:href="#DejaVuSans-78"/>
       <use x="207.576172" xlink:href="#DejaVuSans-63"/>
       <use x="262.556641" xlink:href="#DejaVuSans-61"/>
       <use x="323.835938" xlink:href="#DejaVuSans-6c"/>
       <use x="351.619141" xlink:href="#DejaVuSans-61"/>
      </g>
     </g>
    </g>
    <g id="ytick_4">
     <g id="line2d_10">
      <path clip-path="url(#p0f7f7d120b)" d="M 127.930469 718.147934 
L 574.330469 718.147934 
" style="fill:none;stroke:#999999;stroke-linecap:round;stroke-width:0.8;"/>
     </g>
     <g id="text_11">
      <!-- Querétaro -->
      <g style="fill:#262626;" transform="translate(45.248437 723.846762)scale(0.15 -0.15)">
       <defs>
        <path d="M 2522 4238 
Q 1834 4238 1429 3725 
Q 1025 3213 1025 2328 
Q 1025 1447 1429 934 
Q 1834 422 2522 422 
Q 3209 422 3611 934 
Q 4013 1447 4013 2328 
Q 4013 3213 3611 3725 
Q 3209 4238 2522 4238 
z
M 3406 84 
L 4238 -825 
L 3475 -825 
L 2784 -78 
Q 2681 -84 2626 -87 
Q 2572 -91 2522 -91 
Q 1538 -91 948 567 
Q 359 1225 359 2328 
Q 359 3434 948 4092 
Q 1538 4750 2522 4750 
Q 3503 4750 4090 4092 
Q 4678 3434 4678 2328 
Q 4678 1516 4351 937 
Q 4025 359 3406 84 
z
" id="DejaVuSans-51" transform="scale(0.015625)"/>
        <path d="M 2631 2963 
Q 2534 3019 2420 3045 
Q 2306 3072 2169 3072 
Q 1681 3072 1420 2755 
Q 1159 2438 1159 1844 
L 1159 0 
L 581 0 
L 581 3500 
L 1159 3500 
L 1159 2956 
Q 1341 3275 1631 3429 
Q 1922 3584 2338 3584 
Q 2397 3584 2469 3576 
Q 2541 3569 2628 3553 
L 2631 2963 
z
" id="DejaVuSans-72" transform="scale(0.015625)"/>
        <path d="M 3597 1894 
L 3597 1613 
L 953 1613 
Q 991 1019 1311 708 
Q 1631 397 2203 397 
Q 2534 397 2845 478 
Q 3156 559 3463 722 
L 3463 178 
Q 3153 47 2828 -22 
Q 2503 -91 2169 -91 
Q 1331 -91 842 396 
Q 353 884 353 1716 
Q 353 2575 817 3079 
Q 1281 3584 2069 3584 
Q 2775 3584 3186 3129 
Q 3597 2675 3597 1894 
z
M 3022 2063 
Q 3016 2534 2758 2815 
Q 2500 3097 2075 3097 
Q 1594 3097 1305 2825 
Q 1016 2553 972 2059 
L 3022 2063 
z
M 2466 5119 
L 3088 5119 
L 2070 3944 
L 1591 3944 
L 2466 5119 
z
" id="DejaVuSans-e9" transform="scale(0.015625)"/>
        <path d="M 1172 4494 
L 1172 3500 
L 2356 3500 
L 2356 3053 
L 1172 3053 
L 1172 1153 
Q 1172 725 1289 603 
Q 1406 481 1766 481 
L 2356 481 
L 2356 0 
L 1766 0 
Q 1100 0 847 248 
Q 594 497 594 1153 
L 594 3053 
L 172 3053 
L 172 3500 
L 594 3500 
L 594 4494 
L 1172 4494 
z
" id="DejaVuSans-74" transform="scale(0.015625)"/>
       </defs>
       <use xlink:href="#DejaVuSans-51"/>
       <use x="78.710938" xlink:href="#DejaVuSans-75"/>
       <use x="142.089844" xlink:href="#DejaVuSans-65"/>
       <use x="203.613281" xlink:href="#DejaVuSans-72"/>
       <use x="242.476562" xlink:href="#DejaVuSans-e9"/>
       <use x="304" xlink:href="#DejaVuSans-74"/>
       <use x="343.208984" xlink:href="#DejaVuSans-61"/>
       <use x="404.488281" xlink:href="#DejaVuSans-72"/>
       <use x="443.351562" xlink:href="#DejaVuSans-6f"/>
      </g>
     </g>
    </g>
    <g id="ytick_5">
     <g id="line2d_11">
      <path clip-path="url(#p0f7f7d120b)" d="M 127.930469 695.685124 
L 574.330469 695.685124 
" style="fill:none;stroke:#999999;stroke-linecap:round;stroke-width:0.8;"/>
     </g>
     <g id="text_12">
      <!-- Villahermosa -->
      <g style="fill:#262626;" transform="translate(23.878125 701.383952)scale(0.15 -0.15)">
       <defs>
        <path d="M 1831 0 
L 50 4666 
L 709 4666 
L 2188 738 
L 3669 4666 
L 4325 4666 
L 2547 0 
L 1831 0 
z
" id="DejaVuSans-56" transform="scale(0.015625)"/>
        <path d="M 3513 2113 
L 3513 0 
L 2938 0 
L 2938 2094 
Q 2938 2591 2744 2837 
Q 2550 3084 2163 3084 
Q 1697 3084 1428 2787 
Q 1159 2491 1159 1978 
L 1159 0 
L 581 0 
L 581 4863 
L 1159 4863 
L 1159 2956 
Q 1366 3272 1645 3428 
Q 1925 3584 2291 3584 
Q 2894 3584 3203 3211 
Q 3513 2838 3513 2113 
z
" id="DejaVuSans-68" transform="scale(0.015625)"/>
        <path d="M 3328 2828 
Q 3544 3216 3844 3400 
Q 4144 3584 4550 3584 
Q 5097 3584 5394 3201 
Q 5691 2819 5691 2113 
L 5691 0 
L 5113 0 
L 5113 2094 
Q 5113 2597 4934 2840 
Q 4756 3084 4391 3084 
Q 3944 3084 3684 2787 
Q 3425 2491 3425 1978 
L 3425 0 
L 2847 0 
L 2847 2094 
Q 2847 2600 2669 2842 
Q 2491 3084 2119 3084 
Q 1678 3084 1418 2786 
Q 1159 2488 1159 1978 
L 1159 0 
L 581 0 
L 581 3500 
L 1159 3500 
L 1159 2956 
Q 1356 3278 1631 3431 
Q 1906 3584 2284 3584 
Q 2666 3584 2933 3390 
Q 3200 3197 3328 2828 
z
" id="DejaVuSans-6d" transform="scale(0.015625)"/>
        <path d="M 2834 3397 
L 2834 2853 
Q 2591 2978 2328 3040 
Q 2066 3103 1784 3103 
Q 1356 3103 1142 2972 
Q 928 2841 928 2578 
Q 928 2378 1081 2264 
Q 1234 2150 1697 2047 
L 1894 2003 
Q 2506 1872 2764 1633 
Q 3022 1394 3022 966 
Q 3022 478 2636 193 
Q 2250 -91 1575 -91 
Q 1294 -91 989 -36 
Q 684 19 347 128 
L 347 722 
Q 666 556 975 473 
Q 1284 391 1588 391 
Q 1994 391 2212 530 
Q 2431 669 2431 922 
Q 2431 1156 2273 1281 
Q 2116 1406 1581 1522 
L 1381 1569 
Q 847 1681 609 1914 
Q 372 2147 372 2553 
Q 372 3047 722 3315 
Q 1072 3584 1716 3584 
Q 2034 3584 2315 3537 
Q 2597 3491 2834 3397 
z
" id="DejaVuSans-73" transform="scale(0.015625)"/>
       </defs>
       <use xlink:href="#DejaVuSans-56"/>
       <use x="66.158203" xlink:href="#DejaVuSans-69"/>
       <use x="93.941406" xlink:href="#DejaVuSans-6c"/>
       <use x="121.724609" xlink:href="#DejaVuSans-6c"/>
       <use x="149.507812" xlink:href="#DejaVuSans-61"/>
       <use x="210.787109" xlink:href="#DejaVuSans-68"/>
       <use x="274.166016" xlink:href="#DejaVuSans-65"/>
       <use x="335.689453" xlink:href="#DejaVuSans-72"/>
       <use x="375.052734" xlink:href="#DejaVuSans-6d"/>
       <use x="472.464844" xlink:href="#DejaVuSans-6f"/>
       <use x="533.646484" xlink:href="#DejaVuSans-73"/>
       <use x="585.746094" xlink:href="#DejaVuSans-61"/>
      </g>
     </g>
    </g>
    <g id="ytick_6">
     <g id="line2d_12">
      <path clip-path="url(#p0f7f7d120b)" d="M 127.930469 673.222314 
L 574.330469 673.222314 
" style="fill:none;stroke:#999999;stroke-linecap:round;stroke-width:0.8;"/>
     </g>
     <g id="text_13">
      <!-- Toluca -->
      <g style="fill:#262626;" transform="translate(74.027344 678.921142)scale(0.15 -0.15)">
       <use xlink:href="#DejaVuSans-54"/>
       <use x="44.083984" xlink:href="#DejaVuSans-6f"/>
       <use x="105.265625" xlink:href="#DejaVuSans-6c"/>
       <use x="133.048828" xlink:href="#DejaVuSans-75"/>
       <use x="196.427734" xlink:href="#DejaVuSans-63"/>
       <use x="251.408203" xlink:href="#DejaVuSans-61"/>
      </g>
     </g>
    </g>
    <g id="ytick_7">
     <g id="line2d_13">
      <path clip-path="url(#p0f7f7d120b)" d="M 127.930469 650.759504 
L 574.330469 650.759504 
" style="fill:none;stroke:#999999;stroke-linecap:round;stroke-width:0.8;"/>
     </g>
     <g id="text_14">
      <!-- Cuernavaca -->
      <g style="fill:#262626;" transform="translate(31.607812 656.458332)scale(0.15 -0.15)">
       <defs>
        <path d="M 4122 4306 
L 4122 3641 
Q 3803 3938 3442 4084 
Q 3081 4231 2675 4231 
Q 1875 4231 1450 3742 
Q 1025 3253 1025 2328 
Q 1025 1406 1450 917 
Q 1875 428 2675 428 
Q 3081 428 3442 575 
Q 3803 722 4122 1019 
L 4122 359 
Q 3791 134 3420 21 
Q 3050 -91 2638 -91 
Q 1578 -91 968 557 
Q 359 1206 359 2328 
Q 359 3453 968 4101 
Q 1578 4750 2638 4750 
Q 3056 4750 3426 4639 
Q 3797 4528 4122 4306 
z
" id="DejaVuSans-43" transform="scale(0.015625)"/>
        <path d="M 191 3500 
L 800 3500 
L 1894 563 
L 2988 3500 
L 3597 3500 
L 2284 0 
L 1503 0 
L 191 3500 
z
" id="DejaVuSans-76" transform="scale(0.015625)"/>
       </defs>
       <use xlink:href="#DejaVuSans-43"/>
       <use x="69.824219" xlink:href="#DejaVuSans-75"/>
       <use x="133.203125" xlink:href="#DejaVuSans-65"/>
       <use x="194.726562" xlink:href="#DejaVuSans-72"/>
       <use x="234.089844" xlink:href="#DejaVuSans-6e"/>
       <use x="297.46875" xlink:href="#DejaVuSans-61"/>
       <use x="358.748047" xlink:href="#DejaVuSans-76"/>
       <use x="417.927734" xlink:href="#DejaVuSans-61"/>
       <use x="479.207031" xlink:href="#DejaVuSans-63"/>
       <use x="534.1875" xlink:href="#DejaVuSans-61"/>
      </g>
     </g>
    </g>
    <g id="ytick_8">
     <g id="line2d_14">
      <path clip-path="url(#p0f7f7d120b)" d="M 127.930469 628.296694 
L 574.330469 628.296694 
" style="fill:none;stroke:#999999;stroke-linecap:round;stroke-width:0.8;"/>
     </g>
     <g id="text_15">
      <!-- Pachuca -->
      <g style="fill:#262626;" transform="translate(58.66875 633.995522)scale(0.15 -0.15)">
       <defs>
        <path d="M 1259 4147 
L 1259 2394 
L 2053 2394 
Q 2494 2394 2734 2622 
Q 2975 2850 2975 3272 
Q 2975 3691 2734 3919 
Q 2494 4147 2053 4147 
L 1259 4147 
z
M 628 4666 
L 2053 4666 
Q 2838 4666 3239 4311 
Q 3641 3956 3641 3272 
Q 3641 2581 3239 2228 
Q 2838 1875 2053 1875 
L 1259 1875 
L 1259 0 
L 628 0 
L 628 4666 
z
" id="DejaVuSans-50" transform="scale(0.015625)"/>
       </defs>
       <use xlink:href="#DejaVuSans-50"/>
       <use x="55.802734" xlink:href="#DejaVuSans-61"/>
       <use x="117.082031" xlink:href="#DejaVuSans-63"/>
       <use x="172.0625" xlink:href="#DejaVuSans-68"/>
       <use x="235.441406" xlink:href="#DejaVuSans-75"/>
       <use x="298.820312" xlink:href="#DejaVuSans-63"/>
       <use x="353.800781" xlink:href="#DejaVuSans-61"/>
      </g>
     </g>
    </g>
    <g id="ytick_9">
     <g id="line2d_15">
      <path clip-path="url(#p0f7f7d120b)" d="M 127.930469 605.833884 
L 574.330469 605.833884 
" style="fill:none;stroke:#999999;stroke-linecap:round;stroke-width:0.8;"/>
     </g>
     <g id="text_16">
      <!-- Mérida -->
      <g style="fill:#262626;" transform="translate(69.710156 611.532712)scale(0.15 -0.15)">
       <use xlink:href="#DejaVuSans-4d"/>
       <use x="86.279297" xlink:href="#DejaVuSans-e9"/>
       <use x="147.802734" xlink:href="#DejaVuSans-72"/>
       <use x="188.916016" xlink:href="#DejaVuSans-69"/>
       <use x="216.699219" xlink:href="#DejaVuSans-64"/>
       <use x="280.175781" xlink:href="#DejaVuSans-61"/>
      </g>
     </g>
    </g>
    <g id="ytick_10">
     <g id="line2d_16">
      <path clip-path="url(#p0f7f7d120b)" d="M 127.930469 583.371074 
L 574.330469 583.371074 
" style="fill:none;stroke:#999999;stroke-linecap:round;stroke-width:0.8;"/>
     </g>
     <g id="text_17">
      <!-- Tuxtla -->
      <g style="fill:#262626;" transform="translate(76.413281 589.069903)scale(0.15 -0.15)">
       <use xlink:href="#DejaVuSans-54"/>
       <use x="45.958984" xlink:href="#DejaVuSans-75"/>
       <use x="109.337891" xlink:href="#DejaVuSans-78"/>
       <use x="168.517578" xlink:href="#DejaVuSans-74"/>
       <use x="207.726562" xlink:href="#DejaVuSans-6c"/>
       <use x="235.509766" xlink:href="#DejaVuSans-61"/>
      </g>
     </g>
    </g>
    <g id="ytick_11">
     <g id="line2d_17">
      <path clip-path="url(#p0f7f7d120b)" d="M 127.930469 560.908264 
L 574.330469 560.908264 
" style="fill:none;stroke:#999999;stroke-linecap:round;stroke-width:0.8;"/>
     </g>
     <g id="text_18">
      <!-- Celaya -->
      <g style="fill:#262626;" transform="translate(69.796875 566.607093)scale(0.15 -0.15)">
       <defs>
        <path d="M 2059 -325 
Q 1816 -950 1584 -1140 
Q 1353 -1331 966 -1331 
L 506 -1331 
L 506 -850 
L 844 -850 
Q 1081 -850 1212 -737 
Q 1344 -625 1503 -206 
L 1606 56 
L 191 3500 
L 800 3500 
L 1894 763 
L 2988 3500 
L 3597 3500 
L 2059 -325 
z
" id="DejaVuSans-79" transform="scale(0.015625)"/>
       </defs>
       <use xlink:href="#DejaVuSans-43"/>
       <use x="69.824219" xlink:href="#DejaVuSans-65"/>
       <use x="131.347656" xlink:href="#DejaVuSans-6c"/>
       <use x="159.130859" xlink:href="#DejaVuSans-61"/>
       <use x="220.410156" xlink:href="#DejaVuSans-79"/>
       <use x="279.589844" xlink:href="#DejaVuSans-61"/>
      </g>
     </g>
    </g>
    <g id="ytick_12">
     <g id="line2d_18">
      <path clip-path="url(#p0f7f7d120b)" d="M 127.930469 538.445455 
L 574.330469 538.445455 
" style="fill:none;stroke:#999999;stroke-linecap:round;stroke-width:0.8;"/>
     </g>
     <g id="text_19">
      <!-- Saltillo -->
      <g style="fill:#262626;" transform="translate(70.488281 544.144283)scale(0.15 -0.15)">
       <defs>
        <path d="M 3425 4513 
L 3425 3897 
Q 3066 4069 2747 4153 
Q 2428 4238 2131 4238 
Q 1616 4238 1336 4038 
Q 1056 3838 1056 3469 
Q 1056 3159 1242 3001 
Q 1428 2844 1947 2747 
L 2328 2669 
Q 3034 2534 3370 2195 
Q 3706 1856 3706 1288 
Q 3706 609 3251 259 
Q 2797 -91 1919 -91 
Q 1588 -91 1214 -16 
Q 841 59 441 206 
L 441 856 
Q 825 641 1194 531 
Q 1563 422 1919 422 
Q 2459 422 2753 634 
Q 3047 847 3047 1241 
Q 3047 1584 2836 1778 
Q 2625 1972 2144 2069 
L 1759 2144 
Q 1053 2284 737 2584 
Q 422 2884 422 3419 
Q 422 4038 858 4394 
Q 1294 4750 2059 4750 
Q 2388 4750 2728 4690 
Q 3069 4631 3425 4513 
z
" id="DejaVuSans-53" transform="scale(0.015625)"/>
       </defs>
       <use xlink:href="#DejaVuSans-53"/>
       <use x="63.476562" xlink:href="#DejaVuSans-61"/>
       <use x="124.755859" xlink:href="#DejaVuSans-6c"/>
       <use x="152.539062" xlink:href="#DejaVuSans-74"/>
       <use x="191.748047" xlink:href="#DejaVuSans-69"/>
       <use x="219.53125" xlink:href="#DejaVuSans-6c"/>
       <use x="247.314453" xlink:href="#DejaVuSans-6c"/>
       <use x="275.097656" xlink:href="#DejaVuSans-6f"/>
      </g>
     </g>
    </g>
    <g id="ytick_13">
     <g id="line2d_19">
      <path clip-path="url(#p0f7f7d120b)" d="M 127.930469 515.982645 
L 574.330469 515.982645 
" style="fill:none;stroke:#999999;stroke-linecap:round;stroke-width:0.8;"/>
     </g>
     <g id="text_20">
      <!-- Chihuahua -->
      <g style="fill:#262626;" transform="translate(40.373437 521.681473)scale(0.15 -0.15)">
       <use xlink:href="#DejaVuSans-43"/>
       <use x="69.824219" xlink:href="#DejaVuSans-68"/>
       <use x="133.203125" xlink:href="#DejaVuSans-69"/>
       <use x="160.986328" xlink:href="#DejaVuSans-68"/>
       <use x="224.365234" xlink:href="#DejaVuSans-75"/>
       <use x="287.744141" xlink:href="#DejaVuSans-61"/>
       <use x="349.023438" xlink:href="#DejaVuSans-68"/>
       <use x="412.402344" xlink:href="#DejaVuSans-75"/>
       <use x="475.78125" xlink:href="#DejaVuSans-61"/>
      </g>
     </g>
    </g>
    <g id="ytick_14">
     <g id="line2d_20">
      <path clip-path="url(#p0f7f7d120b)" d="M 127.930469 493.519835 
L 574.330469 493.519835 
" style="fill:none;stroke:#999999;stroke-linecap:round;stroke-width:0.8;"/>
     </g>
     <g id="text_21">
      <!-- Aguascalientes -->
      <g style="fill:#262626;" transform="translate(7.2 499.218663)scale(0.15 -0.15)">
       <defs>
        <path d="M 2906 1791 
Q 2906 2416 2648 2759 
Q 2391 3103 1925 3103 
Q 1463 3103 1205 2759 
Q 947 2416 947 1791 
Q 947 1169 1205 825 
Q 1463 481 1925 481 
Q 2391 481 2648 825 
Q 2906 1169 2906 1791 
z
M 3481 434 
Q 3481 -459 3084 -895 
Q 2688 -1331 1869 -1331 
Q 1566 -1331 1297 -1286 
Q 1028 -1241 775 -1147 
L 775 -588 
Q 1028 -725 1275 -790 
Q 1522 -856 1778 -856 
Q 2344 -856 2625 -561 
Q 2906 -266 2906 331 
L 2906 616 
Q 2728 306 2450 153 
Q 2172 0 1784 0 
Q 1141 0 747 490 
Q 353 981 353 1791 
Q 353 2603 747 3093 
Q 1141 3584 1784 3584 
Q 2172 3584 2450 3431 
Q 2728 3278 2906 2969 
L 2906 3500 
L 3481 3500 
L 3481 434 
z
" id="DejaVuSans-67" transform="scale(0.015625)"/>
       </defs>
       <use xlink:href="#DejaVuSans-41"/>
       <use x="68.408203" xlink:href="#DejaVuSans-67"/>
       <use x="131.884766" xlink:href="#DejaVuSans-75"/>
       <use x="195.263672" xlink:href="#DejaVuSans-61"/>
       <use x="256.542969" xlink:href="#DejaVuSans-73"/>
       <use x="308.642578" xlink:href="#DejaVuSans-63"/>
       <use x="363.623047" xlink:href="#DejaVuSans-61"/>
       <use x="424.902344" xlink:href="#DejaVuSans-6c"/>
       <use x="452.685547" xlink:href="#DejaVuSans-69"/>
       <use x="480.46875" xlink:href="#DejaVuSans-65"/>
       <use x="541.992188" xlink:href="#DejaVuSans-6e"/>
       <use x="605.371094" xlink:href="#DejaVuSans-74"/>
       <use x="644.580078" xlink:href="#DejaVuSans-65"/>
       <use x="706.103516" xlink:href="#DejaVuSans-73"/>
      </g>
     </g>
    </g>
    <g id="ytick_15">
     <g id="line2d_21">
      <path clip-path="url(#p0f7f7d120b)" d="M 127.930469 471.057025 
L 574.330469 471.057025 
" style="fill:none;stroke:#999999;stroke-linecap:round;stroke-width:0.8;"/>
     </g>
     <g id="text_22">
      <!-- Morelia -->
      <g style="fill:#262626;" transform="translate(66.225 476.755853)scale(0.15 -0.15)">
       <use xlink:href="#DejaVuSans-4d"/>
       <use x="86.279297" xlink:href="#DejaVuSans-6f"/>
       <use x="147.460938" xlink:href="#DejaVuSans-72"/>
       <use x="186.324219" xlink:href="#DejaVuSans-65"/>
       <use x="247.847656" xlink:href="#DejaVuSans-6c"/>
       <use x="275.630859" xlink:href="#DejaVuSans-69"/>
       <use x="303.414062" xlink:href="#DejaVuSans-61"/>
      </g>
     </g>
    </g>
    <g id="ytick_16">
     <g id="line2d_22">
      <path clip-path="url(#p0f7f7d120b)" d="M 127.930469 448.594215 
L 574.330469 448.594215 
" style="fill:none;stroke:#999999;stroke-linecap:round;stroke-width:0.8;"/>
     </g>
     <g id="text_23">
      <!-- Matamoros -->
      <g style="fill:#262626;" transform="translate(37.113281 454.293043)scale(0.15 -0.15)">
       <use xlink:href="#DejaVuSans-4d"/>
       <use x="86.279297" xlink:href="#DejaVuSans-61"/>
       <use x="147.558594" xlink:href="#DejaVuSans-74"/>
       <use x="186.767578" xlink:href="#DejaVuSans-61"/>
       <use x="248.046875" xlink:href="#DejaVuSans-6d"/>
       <use x="345.458984" xlink:href="#DejaVuSans-6f"/>
       <use x="406.640625" xlink:href="#DejaVuSans-72"/>
       <use x="445.503906" xlink:href="#DejaVuSans-6f"/>
       <use x="506.685547" xlink:href="#DejaVuSans-73"/>
      </g>
     </g>
    </g>
    <g id="ytick_17">
     <g id="line2d_23">
      <path clip-path="url(#p0f7f7d120b)" d="M 127.930469 426.131405 
L 574.330469 426.131405 
" style="fill:none;stroke:#999999;stroke-linecap:round;stroke-width:0.8;"/>
     </g>
     <g id="text_24">
      <!-- León -->
      <g style="fill:#262626;" transform="translate(84.921094 431.830233)scale(0.15 -0.15)">
       <defs>
        <path d="M 628 4666 
L 1259 4666 
L 1259 531 
L 3531 531 
L 3531 0 
L 628 0 
L 628 4666 
z
" id="DejaVuSans-4c" transform="scale(0.015625)"/>
        <path d="M 1959 3097 
Q 1497 3097 1228 2736 
Q 959 2375 959 1747 
Q 959 1119 1226 758 
Q 1494 397 1959 397 
Q 2419 397 2687 759 
Q 2956 1122 2956 1747 
Q 2956 2369 2687 2733 
Q 2419 3097 1959 3097 
z
M 1959 3584 
Q 2709 3584 3137 3096 
Q 3566 2609 3566 1747 
Q 3566 888 3137 398 
Q 2709 -91 1959 -91 
Q 1206 -91 779 398 
Q 353 888 353 1747 
Q 353 2609 779 3096 
Q 1206 3584 1959 3584 
z
M 2394 5119 
L 3016 5119 
L 1998 3944 
L 1519 3944 
L 2394 5119 
z
" id="DejaVuSans-f3" transform="scale(0.015625)"/>
       </defs>
       <use xlink:href="#DejaVuSans-4c"/>
       <use x="53.962891" xlink:href="#DejaVuSans-65"/>
       <use x="115.486328" xlink:href="#DejaVuSans-f3"/>
       <use x="176.667969" xlink:href="#DejaVuSans-6e"/>
      </g>
     </g>
    </g>
    <g id="ytick_18">
     <g id="line2d_24">
      <path clip-path="url(#p0f7f7d120b)" d="M 127.930469 403.668595 
L 574.330469 403.668595 
" style="fill:none;stroke:#999999;stroke-linecap:round;stroke-width:0.8;"/>
     </g>
     <g id="text_25">
      <!-- Hermosillo -->
      <g style="fill:#262626;" transform="translate(41.233594 409.367423)scale(0.15 -0.15)">
       <defs>
        <path d="M 628 4666 
L 1259 4666 
L 1259 2753 
L 3553 2753 
L 3553 4666 
L 4184 4666 
L 4184 0 
L 3553 0 
L 3553 2222 
L 1259 2222 
L 1259 0 
L 628 0 
L 628 4666 
z
" id="DejaVuSans-48" transform="scale(0.015625)"/>
       </defs>
       <use xlink:href="#DejaVuSans-48"/>
       <use x="75.195312" xlink:href="#DejaVuSans-65"/>
       <use x="136.71875" xlink:href="#DejaVuSans-72"/>
       <use x="176.082031" xlink:href="#DejaVuSans-6d"/>
       <use x="273.494141" xlink:href="#DejaVuSans-6f"/>
       <use x="334.675781" xlink:href="#DejaVuSans-73"/>
       <use x="386.775391" xlink:href="#DejaVuSans-69"/>
       <use x="414.558594" xlink:href="#DejaVuSans-6c"/>
       <use x="442.341797" xlink:href="#DejaVuSans-6c"/>
       <use x="470.125" xlink:href="#DejaVuSans-6f"/>
      </g>
     </g>
    </g>
    <g id="ytick_19">
     <g id="line2d_25">
      <path clip-path="url(#p0f7f7d120b)" d="M 127.930469 381.205785 
L 574.330469 381.205785 
" style="fill:none;stroke:#999999;stroke-linecap:round;stroke-width:0.8;"/>
     </g>
     <g id="text_26">
      <!-- Xalapa -->
      <g style="fill:#262626;" transform="translate(69.389062 386.904613)scale(0.15 -0.15)">
       <defs>
        <path d="M 403 4666 
L 1081 4666 
L 2241 2931 
L 3406 4666 
L 4084 4666 
L 2584 2425 
L 4184 0 
L 3506 0 
L 2194 1984 
L 872 0 
L 191 0 
L 1856 2491 
L 403 4666 
z
" id="DejaVuSans-58" transform="scale(0.015625)"/>
       </defs>
       <use xlink:href="#DejaVuSans-58"/>
       <use x="68.505859" xlink:href="#DejaVuSans-61"/>
       <use x="129.785156" xlink:href="#DejaVuSans-6c"/>
       <use x="157.568359" xlink:href="#DejaVuSans-61"/>
       <use x="218.847656" xlink:href="#DejaVuSans-70"/>
       <use x="282.324219" xlink:href="#DejaVuSans-61"/>
      </g>
     </g>
    </g>
    <g id="ytick_20">
     <g id="line2d_26">
      <path clip-path="url(#p0f7f7d120b)" d="M 127.930469 358.742975 
L 574.330469 358.742975 
" style="fill:none;stroke:#999999;stroke-linecap:round;stroke-width:0.8;"/>
     </g>
     <g id="text_27">
      <!-- Durango -->
      <g style="fill:#262626;" transform="translate(56.308594 364.441803)scale(0.15 -0.15)">
       <defs>
        <path d="M 1259 4147 
L 1259 519 
L 2022 519 
Q 2988 519 3436 956 
Q 3884 1394 3884 2338 
Q 3884 3275 3436 3711 
Q 2988 4147 2022 4147 
L 1259 4147 
z
M 628 4666 
L 1925 4666 
Q 3281 4666 3915 4102 
Q 4550 3538 4550 2338 
Q 4550 1131 3912 565 
Q 3275 0 1925 0 
L 628 0 
L 628 4666 
z
" id="DejaVuSans-44" transform="scale(0.015625)"/>
       </defs>
       <use xlink:href="#DejaVuSans-44"/>
       <use x="77.001953" xlink:href="#DejaVuSans-75"/>
       <use x="140.380859" xlink:href="#DejaVuSans-72"/>
       <use x="181.494141" xlink:href="#DejaVuSans-61"/>
       <use x="242.773438" xlink:href="#DejaVuSans-6e"/>
       <use x="306.152344" xlink:href="#DejaVuSans-67"/>
       <use x="369.628906" xlink:href="#DejaVuSans-6f"/>
      </g>
     </g>
    </g>
    <g id="ytick_21">
     <g id="line2d_27">
      <path clip-path="url(#p0f7f7d120b)" d="M 127.930469 336.280165 
L 574.330469 336.280165 
" style="fill:none;stroke:#999999;stroke-linecap:round;stroke-width:0.8;"/>
     </g>
     <g id="text_28">
      <!-- Tijuana -->
      <g style="fill:#262626;" transform="translate(66.50625 341.978993)scale(0.15 -0.15)">
       <defs>
        <path d="M 603 3500 
L 1178 3500 
L 1178 -63 
Q 1178 -731 923 -1031 
Q 669 -1331 103 -1331 
L -116 -1331 
L -116 -844 
L 38 -844 
Q 366 -844 484 -692 
Q 603 -541 603 -63 
L 603 3500 
z
M 603 4863 
L 1178 4863 
L 1178 4134 
L 603 4134 
L 603 4863 
z
" id="DejaVuSans-6a" transform="scale(0.015625)"/>
       </defs>
       <use xlink:href="#DejaVuSans-54"/>
       <use x="57.958984" xlink:href="#DejaVuSans-69"/>
       <use x="85.742188" xlink:href="#DejaVuSans-6a"/>
       <use x="113.525391" xlink:href="#DejaVuSans-75"/>
       <use x="176.904297" xlink:href="#DejaVuSans-61"/>
       <use x="238.183594" xlink:href="#DejaVuSans-6e"/>
       <use x="301.5625" xlink:href="#DejaVuSans-61"/>
      </g>
     </g>
    </g>
    <g id="ytick_22">
     <g id="line2d_28">
      <path clip-path="url(#p0f7f7d120b)" d="M 127.930469 313.817355 
L 574.330469 313.817355 
" style="fill:none;stroke:#999999;stroke-linecap:round;stroke-width:0.8;"/>
     </g>
     <g id="text_29">
      <!-- Oaxaca -->
      <g style="fill:#262626;" transform="translate(64.420312 319.516183)scale(0.15 -0.15)">
       <defs>
        <path d="M 2522 4238 
Q 1834 4238 1429 3725 
Q 1025 3213 1025 2328 
Q 1025 1447 1429 934 
Q 1834 422 2522 422 
Q 3209 422 3611 934 
Q 4013 1447 4013 2328 
Q 4013 3213 3611 3725 
Q 3209 4238 2522 4238 
z
M 2522 4750 
Q 3503 4750 4090 4092 
Q 4678 3434 4678 2328 
Q 4678 1225 4090 567 
Q 3503 -91 2522 -91 
Q 1538 -91 948 565 
Q 359 1222 359 2328 
Q 359 3434 948 4092 
Q 1538 4750 2522 4750 
z
" id="DejaVuSans-4f" transform="scale(0.015625)"/>
       </defs>
       <use xlink:href="#DejaVuSans-4f"/>
       <use x="78.710938" xlink:href="#DejaVuSans-61"/>
       <use x="139.990234" xlink:href="#DejaVuSans-78"/>
       <use x="199.169922" xlink:href="#DejaVuSans-61"/>
       <use x="260.449219" xlink:href="#DejaVuSans-63"/>
       <use x="315.429688" xlink:href="#DejaVuSans-61"/>
      </g>
     </g>
    </g>
    <g id="ytick_23">
     <g id="line2d_29">
      <path clip-path="url(#p0f7f7d120b)" d="M 127.930469 291.354545 
L 574.330469 291.354545 
" style="fill:none;stroke:#999999;stroke-linecap:round;stroke-width:0.8;"/>
     </g>
     <g id="text_30">
      <!-- San Luis Potosí -->
      <g style="fill:#262626;" transform="translate(8.873437 297.053374)scale(0.15 -0.15)">
       <defs>
        <path id="DejaVuSans-20" transform="scale(0.015625)"/>
        <path d="M 1322 5119 
L 1944 5119 
L 926 3944 
L 447 3944 
L 1322 5119 
z
M 603 3500 
L 1178 3500 
L 1178 0 
L 603 0 
L 603 3500 
z
M 891 3584 
L 891 3584 
z
" id="DejaVuSans-ed" transform="scale(0.015625)"/>
       </defs>
       <use xlink:href="#DejaVuSans-53"/>
       <use x="63.476562" xlink:href="#DejaVuSans-61"/>
       <use x="124.755859" xlink:href="#DejaVuSans-6e"/>
       <use x="188.134766" xlink:href="#DejaVuSans-20"/>
       <use x="219.921875" xlink:href="#DejaVuSans-4c"/>
       <use x="273.884766" xlink:href="#DejaVuSans-75"/>
       <use x="337.263672" xlink:href="#DejaVuSans-69"/>
       <use x="365.046875" xlink:href="#DejaVuSans-73"/>
       <use x="417.146484" xlink:href="#DejaVuSans-20"/>
       <use x="448.933594" xlink:href="#DejaVuSans-50"/>
       <use x="505.611328" xlink:href="#DejaVuSans-6f"/>
       <use x="566.792969" xlink:href="#DejaVuSans-74"/>
       <use x="606.001953" xlink:href="#DejaVuSans-6f"/>
       <use x="667.183594" xlink:href="#DejaVuSans-73"/>
       <use x="719.283203" xlink:href="#DejaVuSans-ed"/>
      </g>
     </g>
    </g>
    <g id="ytick_24">
     <g id="line2d_30">
      <path clip-path="url(#p0f7f7d120b)" d="M 127.930469 268.891736 
L 574.330469 268.891736 
" style="fill:none;stroke:#999999;stroke-linecap:round;stroke-width:0.8;"/>
     </g>
     <g id="text_31">
      <!-- Tampico -->
      <g style="fill:#262626;" transform="translate(59.325 274.590564)scale(0.15 -0.15)">
       <use xlink:href="#DejaVuSans-54"/>
       <use x="44.583984" xlink:href="#DejaVuSans-61"/>
       <use x="105.863281" xlink:href="#DejaVuSans-6d"/>
       <use x="203.275391" xlink:href="#DejaVuSans-70"/>
       <use x="266.751953" xlink:href="#DejaVuSans-69"/>
       <use x="294.535156" xlink:href="#DejaVuSans-63"/>
       <use x="349.515625" xlink:href="#DejaVuSans-6f"/>
      </g>
     </g>
    </g>
    <g id="ytick_25">
     <g id="line2d_31">
      <path clip-path="url(#p0f7f7d120b)" d="M 127.930469 246.428926 
L 574.330469 246.428926 
" style="fill:none;stroke:#999999;stroke-linecap:round;stroke-width:0.8;"/>
     </g>
     <g id="text_32">
      <!-- Puebla -->
      <g style="fill:#262626;" transform="translate(70.530469 252.127754)scale(0.15 -0.15)">
       <defs>
        <path d="M 3116 1747 
Q 3116 2381 2855 2742 
Q 2594 3103 2138 3103 
Q 1681 3103 1420 2742 
Q 1159 2381 1159 1747 
Q 1159 1113 1420 752 
Q 1681 391 2138 391 
Q 2594 391 2855 752 
Q 3116 1113 3116 1747 
z
M 1159 2969 
Q 1341 3281 1617 3432 
Q 1894 3584 2278 3584 
Q 2916 3584 3314 3078 
Q 3713 2572 3713 1747 
Q 3713 922 3314 415 
Q 2916 -91 2278 -91 
Q 1894 -91 1617 61 
Q 1341 213 1159 525 
L 1159 0 
L 581 0 
L 581 4863 
L 1159 4863 
L 1159 2969 
z
" id="DejaVuSans-62" transform="scale(0.015625)"/>
       </defs>
       <use xlink:href="#DejaVuSans-50"/>
       <use x="58.552734" xlink:href="#DejaVuSans-75"/>
       <use x="121.931641" xlink:href="#DejaVuSans-65"/>
       <use x="183.455078" xlink:href="#DejaVuSans-62"/>
       <use x="246.931641" xlink:href="#DejaVuSans-6c"/>
       <use x="274.714844" xlink:href="#DejaVuSans-61"/>
      </g>
     </g>
    </g>
    <g id="ytick_26">
     <g id="line2d_32">
      <path clip-path="url(#p0f7f7d120b)" d="M 127.930469 223.966116 
L 574.330469 223.966116 
" style="fill:none;stroke:#999999;stroke-linecap:round;stroke-width:0.8;"/>
     </g>
     <g id="text_33">
      <!-- Veracruz -->
      <g style="fill:#262626;" transform="translate(55.450781 229.664944)scale(0.15 -0.15)">
       <defs>
        <path d="M 353 3500 
L 3084 3500 
L 3084 2975 
L 922 459 
L 3084 459 
L 3084 0 
L 275 0 
L 275 525 
L 2438 3041 
L 353 3041 
L 353 3500 
z
" id="DejaVuSans-7a" transform="scale(0.015625)"/>
       </defs>
       <use xlink:href="#DejaVuSans-56"/>
       <use x="60.658203" xlink:href="#DejaVuSans-65"/>
       <use x="122.181641" xlink:href="#DejaVuSans-72"/>
       <use x="163.294922" xlink:href="#DejaVuSans-61"/>
       <use x="224.574219" xlink:href="#DejaVuSans-63"/>
       <use x="279.554688" xlink:href="#DejaVuSans-72"/>
       <use x="320.667969" xlink:href="#DejaVuSans-75"/>
       <use x="384.046875" xlink:href="#DejaVuSans-7a"/>
      </g>
     </g>
    </g>
    <g id="ytick_27">
     <g id="line2d_33">
      <path clip-path="url(#p0f7f7d120b)" d="M 127.930469 201.503306 
L 574.330469 201.503306 
" style="fill:none;stroke:#999999;stroke-linecap:round;stroke-width:0.8;"/>
     </g>
     <g id="text_34">
      <!-- Laguna -->
      <g style="fill:#262626;" transform="translate(65.653125 207.202134)scale(0.15 -0.15)">
       <use xlink:href="#DejaVuSans-4c"/>
       <use x="55.712891" xlink:href="#DejaVuSans-61"/>
       <use x="116.992188" xlink:href="#DejaVuSans-67"/>
       <use x="180.46875" xlink:href="#DejaVuSans-75"/>
       <use x="243.847656" xlink:href="#DejaVuSans-6e"/>
       <use x="307.226562" xlink:href="#DejaVuSans-61"/>
      </g>
     </g>
    </g>
    <g id="ytick_28">
     <g id="line2d_34">
      <path clip-path="url(#p0f7f7d120b)" d="M 127.930469 179.040496 
L 574.330469 179.040496 
" style="fill:none;stroke:#999999;stroke-linecap:round;stroke-width:0.8;"/>
     </g>
     <g id="text_35">
      <!-- Reynosa -->
      <g style="fill:#262626;" transform="translate(57.384375 184.739324)scale(0.15 -0.15)">
       <defs>
        <path d="M 2841 2188 
Q 3044 2119 3236 1894 
Q 3428 1669 3622 1275 
L 4263 0 
L 3584 0 
L 2988 1197 
Q 2756 1666 2539 1819 
Q 2322 1972 1947 1972 
L 1259 1972 
L 1259 0 
L 628 0 
L 628 4666 
L 2053 4666 
Q 2853 4666 3247 4331 
Q 3641 3997 3641 3322 
Q 3641 2881 3436 2590 
Q 3231 2300 2841 2188 
z
M 1259 4147 
L 1259 2491 
L 2053 2491 
Q 2509 2491 2742 2702 
Q 2975 2913 2975 3322 
Q 2975 3731 2742 3939 
Q 2509 4147 2053 4147 
L 1259 4147 
z
" id="DejaVuSans-52" transform="scale(0.015625)"/>
       </defs>
       <use xlink:href="#DejaVuSans-52"/>
       <use x="64.982422" xlink:href="#DejaVuSans-65"/>
       <use x="126.505859" xlink:href="#DejaVuSans-79"/>
       <use x="185.685547" xlink:href="#DejaVuSans-6e"/>
       <use x="249.064453" xlink:href="#DejaVuSans-6f"/>
       <use x="310.246094" xlink:href="#DejaVuSans-73"/>
       <use x="362.345703" xlink:href="#DejaVuSans-61"/>
      </g>
     </g>
    </g>
    <g id="ytick_29">
     <g id="line2d_35">
      <path clip-path="url(#p0f7f7d120b)" d="M 127.930469 156.577686 
L 574.330469 156.577686 
" style="fill:none;stroke:#999999;stroke-linecap:round;stroke-width:0.8;"/>
     </g>
     <g id="text_36">
      <!-- Cancún -->
      <g style="fill:#262626;" transform="translate(64.497656 162.276514)scale(0.15 -0.15)">
       <defs>
        <path d="M 544 1381 
L 544 3500 
L 1119 3500 
L 1119 1403 
Q 1119 906 1312 657 
Q 1506 409 1894 409 
Q 2359 409 2629 706 
Q 2900 1003 2900 1516 
L 2900 3500 
L 3475 3500 
L 3475 0 
L 2900 0 
L 2900 538 
Q 2691 219 2414 64 
Q 2138 -91 1772 -91 
Q 1169 -91 856 284 
Q 544 659 544 1381 
z
M 1991 3584 
L 1991 3584 
z
M 2418 5119 
L 3040 5119 
L 2022 3944 
L 1543 3944 
L 2418 5119 
z
" id="DejaVuSans-fa" transform="scale(0.015625)"/>
       </defs>
       <use xlink:href="#DejaVuSans-43"/>
       <use x="69.824219" xlink:href="#DejaVuSans-61"/>
       <use x="131.103516" xlink:href="#DejaVuSans-6e"/>
       <use x="194.482422" xlink:href="#DejaVuSans-63"/>
       <use x="249.462891" xlink:href="#DejaVuSans-fa"/>
       <use x="312.841797" xlink:href="#DejaVuSans-6e"/>
      </g>
     </g>
    </g>
    <g id="ytick_30">
     <g id="line2d_36">
      <path clip-path="url(#p0f7f7d120b)" d="M 127.930469 134.114876 
L 574.330469 134.114876 
" style="fill:none;stroke:#999999;stroke-linecap:round;stroke-width:0.8;"/>
     </g>
     <g id="text_37">
      <!-- Culiacán -->
      <g style="fill:#262626;" transform="translate(56.477344 139.813704)scale(0.15 -0.15)">
       <defs>
        <path d="M 2194 1759 
Q 1497 1759 1228 1600 
Q 959 1441 959 1056 
Q 959 750 1161 570 
Q 1363 391 1709 391 
Q 2188 391 2477 730 
Q 2766 1069 2766 1631 
L 2766 1759 
L 2194 1759 
z
M 3341 1997 
L 3341 0 
L 2766 0 
L 2766 531 
Q 2569 213 2275 61 
Q 1981 -91 1556 -91 
Q 1019 -91 701 211 
Q 384 513 384 1019 
Q 384 1609 779 1909 
Q 1175 2209 1959 2209 
L 2766 2209 
L 2766 2266 
Q 2766 2663 2505 2880 
Q 2244 3097 1772 3097 
Q 1472 3097 1187 3025 
Q 903 2953 641 2809 
L 641 3341 
Q 956 3463 1253 3523 
Q 1550 3584 1831 3584 
Q 2591 3584 2966 3190 
Q 3341 2797 3341 1997 
z
M 2290 5119 
L 2912 5119 
L 1894 3944 
L 1415 3944 
L 2290 5119 
z
" id="DejaVuSans-e1" transform="scale(0.015625)"/>
       </defs>
       <use xlink:href="#DejaVuSans-43"/>
       <use x="69.824219" xlink:href="#DejaVuSans-75"/>
       <use x="133.203125" xlink:href="#DejaVuSans-6c"/>
       <use x="160.986328" xlink:href="#DejaVuSans-69"/>
       <use x="188.769531" xlink:href="#DejaVuSans-61"/>
       <use x="250.048828" xlink:href="#DejaVuSans-63"/>
       <use x="305.029297" xlink:href="#DejaVuSans-e1"/>
       <use x="366.308594" xlink:href="#DejaVuSans-6e"/>
      </g>
     </g>
    </g>
    <g id="ytick_31">
     <g id="line2d_37">
      <path clip-path="url(#p0f7f7d120b)" d="M 127.930469 111.652066 
L 574.330469 111.652066 
" style="fill:none;stroke:#999999;stroke-linecap:round;stroke-width:0.8;"/>
     </g>
     <g id="text_38">
      <!-- Monterrey -->
      <g style="fill:#262626;" transform="translate(44.353125 117.350894)scale(0.15 -0.15)">
       <use xlink:href="#DejaVuSans-4d"/>
       <use x="86.279297" xlink:href="#DejaVuSans-6f"/>
       <use x="147.460938" xlink:href="#DejaVuSans-6e"/>
       <use x="210.839844" xlink:href="#DejaVuSans-74"/>
       <use x="250.048828" xlink:href="#DejaVuSans-65"/>
       <use x="311.572266" xlink:href="#DejaVuSans-72"/>
       <use x="350.935547" xlink:href="#DejaVuSans-72"/>
       <use x="389.798828" xlink:href="#DejaVuSans-65"/>
       <use x="451.322266" xlink:href="#DejaVuSans-79"/>
      </g>
     </g>
    </g>
    <g id="ytick_32">
     <g id="line2d_38">
      <path clip-path="url(#p0f7f7d120b)" d="M 127.930469 89.189256 
L 574.330469 89.189256 
" style="fill:none;stroke:#999999;stroke-linecap:round;stroke-width:0.8;"/>
     </g>
     <g id="text_39">
      <!-- Guadalajara -->
      <g style="fill:#262626;" transform="translate(29.817187 94.888084)scale(0.15 -0.15)">
       <defs>
        <path d="M 3809 666 
L 3809 1919 
L 2778 1919 
L 2778 2438 
L 4434 2438 
L 4434 434 
Q 4069 175 3628 42 
Q 3188 -91 2688 -91 
Q 1594 -91 976 548 
Q 359 1188 359 2328 
Q 359 3472 976 4111 
Q 1594 4750 2688 4750 
Q 3144 4750 3555 4637 
Q 3966 4525 4313 4306 
L 4313 3634 
Q 3963 3931 3569 4081 
Q 3175 4231 2741 4231 
Q 1884 4231 1454 3753 
Q 1025 3275 1025 2328 
Q 1025 1384 1454 906 
Q 1884 428 2741 428 
Q 3075 428 3337 486 
Q 3600 544 3809 666 
z
" id="DejaVuSans-47" transform="scale(0.015625)"/>
       </defs>
       <use xlink:href="#DejaVuSans-47"/>
       <use x="77.490234" xlink:href="#DejaVuSans-75"/>
       <use x="140.869141" xlink:href="#DejaVuSans-61"/>
       <use x="202.148438" xlink:href="#DejaVuSans-64"/>
       <use x="265.625" xlink:href="#DejaVuSans-61"/>
       <use x="326.904297" xlink:href="#DejaVuSans-6c"/>
       <use x="354.6875" xlink:href="#DejaVuSans-61"/>
       <use x="415.966797" xlink:href="#DejaVuSans-6a"/>
       <use x="443.75" xlink:href="#DejaVuSans-61"/>
       <use x="505.029297" xlink:href="#DejaVuSans-72"/>
       <use x="546.142578" xlink:href="#DejaVuSans-61"/>
      </g>
     </g>
    </g>
    <g id="ytick_33">
     <g id="line2d_39">
      <path clip-path="url(#p0f7f7d120b)" d="M 127.930469 66.726446 
L 574.330469 66.726446 
" style="fill:none;stroke:#999999;stroke-linecap:round;stroke-width:0.8;"/>
     </g>
     <g id="text_40">
      <!-- Juárez -->
      <g style="fill:#262626;" transform="translate(74.875781 72.666681)scale(0.15 -0.15)">
       <defs>
        <path d="M 628 4666 
L 1259 4666 
L 1259 325 
Q 1259 -519 939 -900 
Q 619 -1281 -91 -1281 
L -331 -1281 
L -331 -750 
L -134 -750 
Q 284 -750 456 -515 
Q 628 -281 628 325 
L 628 4666 
z
" id="DejaVuSans-4a" transform="scale(0.015625)"/>
       </defs>
       <use xlink:href="#DejaVuSans-4a"/>
       <use x="29.492188" xlink:href="#DejaVuSans-75"/>
       <use x="92.871094" xlink:href="#DejaVuSans-e1"/>
       <use x="154.150391" xlink:href="#DejaVuSans-72"/>
       <use x="193.013672" xlink:href="#DejaVuSans-65"/>
       <use x="254.537109" xlink:href="#DejaVuSans-7a"/>
      </g>
     </g>
    </g>
    <g id="ytick_34">
     <g id="line2d_40">
      <path clip-path="url(#p0f7f7d120b)" d="M 127.930469 44.263636 
L 574.330469 44.263636 
" style="fill:none;stroke:#999999;stroke-linecap:round;stroke-width:0.8;"/>
     </g>
     <g id="text_41">
      <!-- ZMVM -->
      <g style="fill:#262626;" transform="translate(74.510156 49.962464)scale(0.15 -0.15)">
       <defs>
        <path d="M 359 4666 
L 4025 4666 
L 4025 4184 
L 1075 531 
L 4097 531 
L 4097 0 
L 288 0 
L 288 481 
L 3238 4134 
L 359 4134 
L 359 4666 
z
" id="DejaVuSans-5a" transform="scale(0.015625)"/>
       </defs>
       <use xlink:href="#DejaVuSans-5a"/>
       <use x="68.505859" xlink:href="#DejaVuSans-4d"/>
       <use x="154.785156" xlink:href="#DejaVuSans-56"/>
       <use x="223.193359" xlink:href="#DejaVuSans-4d"/>
      </g>
     </g>
    </g>
   </g>
   <g id="LineCollection_1">
    <path clip-path="url(#p0f7f7d120b)" d="M 290.582116 785.536364 
L 299.407209 785.536364 
" style="fill:none;stroke:#1b1b1b;stroke-width:3;"/>
    <path clip-path="url(#p0f7f7d120b)" d="M 310.806172 763.073554 
L 311.266229 763.073554 
" style="fill:none;stroke:#1b1b1b;stroke-width:3;"/>
    <path clip-path="url(#p0f7f7d120b)" d="M 252.810589 740.610744 
L 311.804448 740.610744 
" style="fill:none;stroke:#1b1b1b;stroke-width:3;"/>
    <path clip-path="url(#p0f7f7d120b)" d="M 304.300228 718.147934 
L 313.907804 718.147934 
" style="fill:none;stroke:#1b1b1b;stroke-width:3;"/>
    <path clip-path="url(#p0f7f7d120b)" d="M 295.955849 695.685124 
L 314.747018 695.685124 
" style="fill:none;stroke:#1b1b1b;stroke-width:3;"/>
    <path clip-path="url(#p0f7f7d120b)" d="M 306.004562 673.222314 
L 315.467854 673.222314 
" style="fill:none;stroke:#1b1b1b;stroke-width:3;"/>
    <path clip-path="url(#p0f7f7d120b)" d="M 313.534643 650.759504 
L 317.399675 650.759504 
" style="fill:none;stroke:#1b1b1b;stroke-width:3;"/>
    <path clip-path="url(#p0f7f7d120b)" d="M 308.746708 628.296694 
L 318.149856 628.296694 
" style="fill:none;stroke:#1b1b1b;stroke-width:3;"/>
    <path clip-path="url(#p0f7f7d120b)" d="M 310.929646 605.833884 
L 320.708169 605.833884 
" style="fill:none;stroke:#1b1b1b;stroke-width:3;"/>
    <path clip-path="url(#p0f7f7d120b)" d="M 306.944591 583.371074 
L 322.095938 583.371074 
" style="fill:none;stroke:#1b1b1b;stroke-width:3;"/>
    <path clip-path="url(#p0f7f7d120b)" d="M 330.25903 560.908264 
L 322.335241 560.908264 
" style="fill:none;stroke:#1b1b1b;stroke-width:3;"/>
    <path clip-path="url(#p0f7f7d120b)" d="M 322.487811 538.445455 
L 324.960952 538.445455 
" style="fill:none;stroke:#1b1b1b;stroke-width:3;"/>
    <path clip-path="url(#p0f7f7d120b)" d="M 296.250577 515.982645 
L 325.234844 515.982645 
" style="fill:none;stroke:#1b1b1b;stroke-width:3;"/>
    <path clip-path="url(#p0f7f7d120b)" d="M 326.720289 493.519835 
L 325.821319 493.519835 
" style="fill:none;stroke:#1b1b1b;stroke-width:3;"/>
    <path clip-path="url(#p0f7f7d120b)" d="M 319.86644 471.057025 
L 331.725496 471.057025 
" style="fill:none;stroke:#1b1b1b;stroke-width:3;"/>
    <path clip-path="url(#p0f7f7d120b)" d="M 336.731759 448.594215 
L 333.259473 448.594215 
" style="fill:none;stroke:#1b1b1b;stroke-width:3;"/>
    <path clip-path="url(#p0f7f7d120b)" d="M 337.821345 426.131405 
L 344.316853 426.131405 
" style="fill:none;stroke:#1b1b1b;stroke-width:3;"/>
    <path clip-path="url(#p0f7f7d120b)" d="M 316.141882 403.668595 
L 344.863236 403.668595 
" style="fill:none;stroke:#1b1b1b;stroke-width:3;"/>
    <path clip-path="url(#p0f7f7d120b)" d="M 340.832819 381.205785 
L 344.987756 381.205785 
" style="fill:none;stroke:#1b1b1b;stroke-width:3;"/>
    <path clip-path="url(#p0f7f7d120b)" d="M 346.595121 358.742975 
L 345.283302 358.742975 
" style="fill:none;stroke:#1b1b1b;stroke-width:3;"/>
    <path clip-path="url(#p0f7f7d120b)" d="M 334.427101 336.280165 
L 348.46779 336.280165 
" style="fill:none;stroke:#1b1b1b;stroke-width:3;"/>
    <path clip-path="url(#p0f7f7d120b)" d="M 315.080998 313.817355 
L 348.940682 313.817355 
" style="fill:none;stroke:#1b1b1b;stroke-width:3;"/>
    <path clip-path="url(#p0f7f7d120b)" d="M 327.381324 291.354545 
L 349.203581 291.354545 
" style="fill:none;stroke:#1b1b1b;stroke-width:3;"/>
    <path clip-path="url(#p0f7f7d120b)" d="M 343.908982 268.891736 
L 350.319476 268.891736 
" style="fill:none;stroke:#1b1b1b;stroke-width:3;"/>
    <path clip-path="url(#p0f7f7d120b)" d="M 302.826213 246.428926 
L 350.921767 246.428926 
" style="fill:none;stroke:#1b1b1b;stroke-width:3;"/>
    <path clip-path="url(#p0f7f7d120b)" d="M 371.664907 223.966116 
L 355.452641 223.966116 
" style="fill:none;stroke:#1b1b1b;stroke-width:3;"/>
    <path clip-path="url(#p0f7f7d120b)" d="M 355.625734 201.503306 
L 360.065994 201.503306 
" style="fill:none;stroke:#1b1b1b;stroke-width:3;"/>
    <path clip-path="url(#p0f7f7d120b)" d="M 357.15984 179.040496 
L 360.907212 179.040496 
" style="fill:none;stroke:#1b1b1b;stroke-width:3;"/>
    <path clip-path="url(#p0f7f7d120b)" d="M 324.428085 156.577686 
L 361.238855 156.577686 
" style="fill:none;stroke:#1b1b1b;stroke-width:3;"/>
    <path clip-path="url(#p0f7f7d120b)" d="M 370.066694 134.114876 
L 365.446799 134.114876 
" style="fill:none;stroke:#1b1b1b;stroke-width:3;"/>
    <path clip-path="url(#p0f7f7d120b)" d="M 339.117032 111.652066 
L 370.458628 111.652066 
" style="fill:none;stroke:#1b1b1b;stroke-width:3;"/>
    <path clip-path="url(#p0f7f7d120b)" d="M 346.790185 89.189256 
L 371.972829 89.189256 
" style="fill:none;stroke:#1b1b1b;stroke-width:3;"/>
    <path clip-path="url(#p0f7f7d120b)" d="M 331.58068 66.726446 
L 379.234612 66.726446 
" style="fill:none;stroke:#1b1b1b;stroke-width:3;"/>
    <path clip-path="url(#p0f7f7d120b)" d="M 362.866999 44.263636 
L 403.423593 44.263636 
" style="fill:none;stroke:#1b1b1b;stroke-width:3;"/>
   </g>
   <g id="PathCollection_1">
    <defs>
     <path d="M 0 4.472136 
C 1.186024 4.472136 2.323632 4.000923 3.162278 3.162278 
C 4.000923 2.323632 4.472136 1.186024 4.472136 0 
C 4.472136 -1.186024 4.000923 -2.323632 3.162278 -3.162278 
C 2.323632 -4.000923 1.186024 -4.472136 0 -4.472136 
C -1.186024 -4.472136 -2.323632 -4.000923 -3.162278 -3.162278 
C -4.000923 -2.323632 -4.472136 -1.186024 -4.472136 0 
C -4.472136 1.186024 -4.000923 2.323632 -3.162278 3.162278 
C -2.323632 4.000923 -1.186024 4.472136 0 4.472136 
z
" id="m9d0eb57e32" style="stroke:#adadad;"/>
    </defs>
    <g clip-path="url(#p0f7f7d120b)">
     <use style="fill:#adadad;stroke:#adadad;" x="290.582116" xlink:href="#m9d0eb57e32" y="785.536364"/>
     <use style="fill:#adadad;stroke:#adadad;" x="310.806172" xlink:href="#m9d0eb57e32" y="763.073554"/>
     <use style="fill:#adadad;stroke:#adadad;" x="252.810589" xlink:href="#m9d0eb57e32" y="740.610744"/>
     <use style="fill:#adadad;stroke:#adadad;" x="304.300228" xlink:href="#m9d0eb57e32" y="718.147934"/>
     <use style="fill:#adadad;stroke:#adadad;" x="295.955849" xlink:href="#m9d0eb57e32" y="695.685124"/>
     <use style="fill:#adadad;stroke:#adadad;" x="306.004562" xlink:href="#m9d0eb57e32" y="673.222314"/>
     <use style="fill:#adadad;stroke:#adadad;" x="313.534643" xlink:href="#m9d0eb57e32" y="650.759504"/>
     <use style="fill:#adadad;stroke:#adadad;" x="308.746708" xlink:href="#m9d0eb57e32" y="628.296694"/>
     <use style="fill:#adadad;stroke:#adadad;" x="310.929646" xlink:href="#m9d0eb57e32" y="605.833884"/>
     <use style="fill:#adadad;stroke:#adadad;" x="306.944591" xlink:href="#m9d0eb57e32" y="583.371074"/>
     <use style="fill:#adadad;stroke:#adadad;" x="330.25903" xlink:href="#m9d0eb57e32" y="560.908264"/>
     <use style="fill:#adadad;stroke:#adadad;" x="322.487811" xlink:href="#m9d0eb57e32" y="538.445455"/>
     <use style="fill:#adadad;stroke:#adadad;" x="296.250577" xlink:href="#m9d0eb57e32" y="515.982645"/>
     <use style="fill:#adadad;stroke:#adadad;" x="326.720289" xlink:href="#m9d0eb57e32" y="493.519835"/>
     <use style="fill:#adadad;stroke:#adadad;" x="319.86644" xlink:href="#m9d0eb57e32" y="471.057025"/>
     <use style="fill:#adadad;stroke:#adadad;" x="336.731759" xlink:href="#m9d0eb57e32" y="448.594215"/>
     <use style="fill:#adadad;stroke:#adadad;" x="337.821345" xlink:href="#m9d0eb57e32" y="426.131405"/>
     <use style="fill:#adadad;stroke:#adadad;" x="316.141882" xlink:href="#m9d0eb57e32" y="403.668595"/>
     <use style="fill:#adadad;stroke:#adadad;" x="340.832819" xlink:href="#m9d0eb57e32" y="381.205785"/>
     <use style="fill:#adadad;stroke:#adadad;" x="346.595121" xlink:href="#m9d0eb57e32" y="358.742975"/>
     <use style="fill:#adadad;stroke:#adadad;" x="334.427101" xlink:href="#m9d0eb57e32" y="336.280165"/>
     <use style="fill:#adadad;stroke:#adadad;" x="315.080998" xlink:href="#m9d0eb57e32" y="313.817355"/>
     <use style="fill:#adadad;stroke:#adadad;" x="327.381324" xlink:href="#m9d0eb57e32" y="291.354545"/>
     <use style="fill:#adadad;stroke:#adadad;" x="343.908982" xlink:href="#m9d0eb57e32" y="268.891736"/>
     <use style="fill:#adadad;stroke:#adadad;" x="302.826213" xlink:href="#m9d0eb57e32" y="246.428926"/>
     <use style="fill:#adadad;stroke:#adadad;" x="371.664907" xlink:href="#m9d0eb57e32" y="223.966116"/>
     <use style="fill:#adadad;stroke:#adadad;" x="355.625734" xlink:href="#m9d0eb57e32" y="201.503306"/>
     <use style="fill:#adadad;stroke:#adadad;" x="357.15984" xlink:href="#m9d0eb57e32" y="179.040496"/>
     <use style="fill:#adadad;stroke:#adadad;" x="324.428085" xlink:href="#m9d0eb57e32" y="156.577686"/>
     <use style="fill:#adadad;stroke:#adadad;" x="370.066694" xlink:href="#m9d0eb57e32" y="134.114876"/>
     <use style="fill:#adadad;stroke:#adadad;" x="339.117032" xlink:href="#m9d0eb57e32" y="111.652066"/>
     <use style="fill:#adadad;stroke:#adadad;" x="346.790185" xlink:href="#m9d0eb57e32" y="89.189256"/>
     <use style="fill:#adadad;stroke:#adadad;" x="331.58068" xlink:href="#m9d0eb57e32" y="66.726446"/>
     <use style="fill:#adadad;stroke:#adadad;" x="362.866999" xlink:href="#m9d0eb57e32" y="44.263636"/>
    </g>
   </g>
   <g id="PathCollection_2">
    <defs>
     <path d="M 0 4.472136 
C 1.186024 4.472136 2.323632 4.000923 3.162278 3.162278 
C 4.000923 2.323632 4.472136 1.186024 4.472136 0 
C 4.472136 -1.186024 4.000923 -2.323632 3.162278 -3.162278 
C 2.323632 -4.000923 1.186024 -4.472136 0 -4.472136 
C -1.186024 -4.472136 -2.323632 -4.000923 -3.162278 -3.162278 
C -4.000923 -2.323632 -4.472136 -1.186024 -4.472136 0 
C -4.472136 1.186024 -4.000923 2.323632 -3.162278 3.162278 
C -2.323632 4.000923 -1.186024 4.472136 0 4.472136 
z
" id="mf3e0805885" style="stroke:#000000;"/>
    </defs>
    <g clip-path="url(#p0f7f7d120b)">
     <use style="stroke:#000000;" x="299.407209" xlink:href="#mf3e0805885" y="785.536364"/>
     <use style="stroke:#000000;" x="311.266229" xlink:href="#mf3e0805885" y="763.073554"/>
     <use style="stroke:#000000;" x="311.804448" xlink:href="#mf3e0805885" y="740.610744"/>
     <use style="stroke:#000000;" x="313.907804" xlink:href="#mf3e0805885" y="718.147934"/>
     <use style="stroke:#000000;" x="314.747018" xlink:href="#mf3e0805885" y="695.685124"/>
     <use style="stroke:#000000;" x="315.467854" xlink:href="#mf3e0805885" y="673.222314"/>
     <use style="stroke:#000000;" x="317.399675" xlink:href="#mf3e0805885" y="650.759504"/>
     <use style="stroke:#000000;" x="318.149856" xlink:href="#mf3e0805885" y="628.296694"/>
     <use style="stroke:#000000;" x="320.708169" xlink:href="#mf3e0805885" y="605.833884"/>
     <use style="stroke:#000000;" x="322.095938" xlink:href="#mf3e0805885" y="583.371074"/>
     <use style="stroke:#000000;" x="322.335241" xlink:href="#mf3e0805885" y="560.908264"/>
     <use style="stroke:#000000;" x="324.960952" xlink:href="#mf3e0805885" y="538.445455"/>
     <use style="stroke:#000000;" x="325.234844" xlink:href="#mf3e0805885" y="515.982645"/>
     <use style="stroke:#000000;" x="325.821319" xlink:href="#mf3e0805885" y="493.519835"/>
     <use style="stroke:#000000;" x="331.725496" xlink:href="#mf3e0805885" y="471.057025"/>
     <use style="stroke:#000000;" x="333.259473" xlink:href="#mf3e0805885" y="448.594215"/>
     <use style="stroke:#000000;" x="344.316853" xlink:href="#mf3e0805885" y="426.131405"/>
     <use style="stroke:#000000;" x="344.863236" xlink:href="#mf3e0805885" y="403.668595"/>
     <use style="stroke:#000000;" x="344.987756" xlink:href="#mf3e0805885" y="381.205785"/>
     <use style="stroke:#000000;" x="345.283302" xlink:href="#mf3e0805885" y="358.742975"/>
     <use style="stroke:#000000;" x="348.46779" xlink:href="#mf3e0805885" y="336.280165"/>
     <use style="stroke:#000000;" x="348.940682" xlink:href="#mf3e0805885" y="313.817355"/>
     <use style="stroke:#000000;" x="349.203581" xlink:href="#mf3e0805885" y="291.354545"/>
     <use style="stroke:#000000;" x="350.319476" xlink:href="#mf3e0805885" y="268.891736"/>
     <use style="stroke:#000000;" x="350.921767" xlink:href="#mf3e0805885" y="246.428926"/>
     <use style="stroke:#000000;" x="355.452641" xlink:href="#mf3e0805885" y="223.966116"/>
     <use style="stroke:#000000;" x="360.065994" xlink:href="#mf3e0805885" y="201.503306"/>
     <use style="stroke:#000000;" x="360.907212" xlink:href="#mf3e0805885" y="179.040496"/>
     <use style="stroke:#000000;" x="361.238855" xlink:href="#mf3e0805885" y="156.577686"/>
     <use style="stroke:#000000;" x="365.446799" xlink:href="#mf3e0805885" y="134.114876"/>
     <use style="stroke:#000000;" x="370.458628" xlink:href="#mf3e0805885" y="111.652066"/>
     <use style="stroke:#000000;" x="371.972829" xlink:href="#mf3e0805885" y="89.189256"/>
     <use style="stroke:#000000;" x="379.234612" xlink:href="#mf3e0805885" y="66.726446"/>
     <use style="stroke:#000000;" x="403.423593" xlink:href="#mf3e0805885" y="44.263636"/>
    </g>
   </g>
   <g id="patch_3">
    <path d="M 127.930469 822.6 
L 127.930469 7.2 
" style="fill:none;stroke:#cccccc;stroke-linecap:square;stroke-linejoin:miter;stroke-width:0.8;"/>
   </g>
   <g id="patch_4">
    <path d="M 574.330469 822.6 
L 574.330469 7.2 
" style="fill:none;stroke:#cccccc;stroke-linecap:square;stroke-linejoin:miter;stroke-width:0.8;"/>
   </g>
   <g id="patch_5">
    <path d="M 127.930469 822.6 
L 574.330469 822.6 
" style="fill:none;stroke:#cccccc;stroke-linecap:square;stroke-linejoin:miter;stroke-width:0.8;"/>
   </g>
   <g id="patch_6">
    <path d="M 127.930469 7.2 
L 574.330469 7.2 
" style="fill:none;stroke:#cccccc;stroke-linecap:square;stroke-linejoin:miter;stroke-width:0.8;"/>
   </g>
   <g id="legend_1">
    <g id="patch_7">
     <path d="M 444.725781 817.6 
L 567.330469 817.6 
Q 569.330469 817.6 569.330469 815.6 
L 569.330469 770.9125 
Q 569.330469 768.9125 567.330469 768.9125 
L 444.725781 768.9125 
Q 442.725781 768.9125 442.725781 770.9125 
L 442.725781 815.6 
Q 442.725781 817.6 444.725781 817.6 
z
" style="fill:#ffffff;opacity:0.8;stroke:#cccccc;stroke-linejoin:miter;"/>
    </g>
    <g id="PathCollection_3">
     <g>
      <use style="fill:#adadad;stroke:#adadad;" x="456.725781" xlink:href="#m9d0eb57e32" y="779.539062"/>
     </g>
    </g>
    <g id="text_42">
     <!-- Índice poblacional -->
     <g style="fill:#262626;" transform="translate(474.725781 782.164062)scale(0.1 -0.1)">
      <use xlink:href="#DejaVuSans-cd"/>
      <use x="29.492188" xlink:href="#DejaVuSans-6e"/>
      <use x="92.871094" xlink:href="#DejaVuSans-64"/>
      <use x="156.347656" xlink:href="#DejaVuSans-69"/>
      <use x="184.130859" xlink:href="#DejaVuSans-63"/>
      <use x="239.111328" xlink:href="#DejaVuSans-65"/>
      <use x="300.634766" xlink:href="#DejaVuSans-20"/>
      <use x="332.421875" xlink:href="#DejaVuSans-70"/>
      <use x="395.898438" xlink:href="#DejaVuSans-6f"/>
      <use x="457.080078" xlink:href="#DejaVuSans-62"/>
      <use x="520.556641" xlink:href="#DejaVuSans-6c"/>
      <use x="548.339844" xlink:href="#DejaVuSans-61"/>
      <use x="609.619141" xlink:href="#DejaVuSans-63"/>
      <use x="664.599609" xlink:href="#DejaVuSans-69"/>
      <use x="692.382812" xlink:href="#DejaVuSans-6f"/>
      <use x="753.564453" xlink:href="#DejaVuSans-6e"/>
      <use x="816.943359" xlink:href="#DejaVuSans-61"/>
      <use x="878.222656" xlink:href="#DejaVuSans-6c"/>
     </g>
    </g>
    <g id="PathCollection_4">
     <g>
      <use style="stroke:#000000;" x="456.725781" xlink:href="#mf3e0805885" y="794.217187"/>
     </g>
    </g>
    <g id="text_43">
     <!-- Índice territorial -->
     <g style="fill:#262626;" transform="translate(474.725781 796.842187)scale(0.1 -0.1)">
      <use xlink:href="#DejaVuSans-cd"/>
      <use x="29.492188" xlink:href="#DejaVuSans-6e"/>
      <use x="92.871094" xlink:href="#DejaVuSans-64"/>
      <use x="156.347656" xlink:href="#DejaVuSans-69"/>
      <use x="184.130859" xlink:href="#DejaVuSans-63"/>
      <use x="239.111328" xlink:href="#DejaVuSans-65"/>
      <use x="300.634766" xlink:href="#DejaVuSans-20"/>
      <use x="332.421875" xlink:href="#DejaVuSans-74"/>
      <use x="371.630859" xlink:href="#DejaVuSans-65"/>
      <use x="433.154297" xlink:href="#DejaVuSans-72"/>
      <use x="472.517578" xlink:href="#DejaVuSans-72"/>
      <use x="513.630859" xlink:href="#DejaVuSans-69"/>
      <use x="541.414062" xlink:href="#DejaVuSans-74"/>
      <use x="580.623047" xlink:href="#DejaVuSans-6f"/>
      <use x="641.804688" xlink:href="#DejaVuSans-72"/>
      <use x="682.917969" xlink:href="#DejaVuSans-69"/>
      <use x="710.701172" xlink:href="#DejaVuSans-61"/>
      <use x="771.980469" xlink:href="#DejaVuSans-6c"/>
     </g>
    </g>
    <g id="line2d_41">
     <path d="M 446.725781 808.020312 
L 466.725781 808.020312 
" style="fill:none;stroke:#1b1b1b;stroke-width:3;"/>
    </g>
    <g id="text_44">
     <!-- Diferencia -->
     <g style="fill:#262626;" transform="translate(474.725781 811.520312)scale(0.1 -0.1)">
      <defs>
       <path d="M 2375 4863 
L 2375 4384 
L 1825 4384 
Q 1516 4384 1395 4259 
Q 1275 4134 1275 3809 
L 1275 3500 
L 2222 3500 
L 2222 3053 
L 1275 3053 
L 1275 0 
L 697 0 
L 697 3053 
L 147 3053 
L 147 3500 
L 697 3500 
L 697 3744 
Q 697 4328 969 4595 
Q 1241 4863 1831 4863 
L 2375 4863 
z
" id="DejaVuSans-66" transform="scale(0.015625)"/>
      </defs>
      <use xlink:href="#DejaVuSans-44"/>
      <use x="77.001953" xlink:href="#DejaVuSans-69"/>
      <use x="104.785156" xlink:href="#DejaVuSans-66"/>
      <use x="139.990234" xlink:href="#DejaVuSans-65"/>
      <use x="201.513672" xlink:href="#DejaVuSans-72"/>
      <use x="240.376953" xlink:href="#DejaVuSans-65"/>
      <use x="301.900391" xlink:href="#DejaVuSans-6e"/>
      <use x="365.279297" xlink:href="#DejaVuSans-63"/>
      <use x="420.259766" xlink:href="#DejaVuSans-69"/>
      <use x="448.042969" xlink:href="#DejaVuSans-61"/>
     </g>
    </g>
   </g>
  </g>
 </g>
 <defs>
  <clipPath id="p0f7f7d120b">
   <rect height="815.4" width="446.4" x="127.930469" y="7.2"/>
  </clipPath>
 </defs>
</svg>
